<?xml version="1.0" encoding="utf-8"?>
<!-- Generator: Adobe Illustrator 21.0.0, SVG Export Plug-In . SVG Version: 6.00 Build 0)  -->
<svg version="1.1" id="Layer_1" xmlns="http://www.w3.org/2000/svg" xmlns:xlink="http://www.w3.org/1999/xlink" x="0px" y="0px"
	 viewBox="0 0 64 60" style="enable-background:new 0 0 64 60;" xml:space="preserve">
<style type="text/css">
	.st0{fill:#CAD1D8;}
	.st1{fill:#9BA7AF;}
	.st2{fill:#FFFFFF;}
	.st3{fill:#E2E5E7;}
	.st4{fill:#595A66;}
	.st5{fill:#ABE1FA;}
	.st6{fill:#6F707E;}
	.st7{fill:#3BB54A;}
	.st8{fill:#0E9347;}
	.st9{fill:#517CBE;}
	.st10{fill:#65CCEF;}
	.st11{fill:#EE2C39;}
	.st12{fill:#CC202C;}
	.st13{fill:#F16351;}
	.st14{fill:#DDDFE1;}
	.st15{fill:#89C763;}
	.st16{fill:#3689C9;}
	.st17{fill:#1B6FAB;}
	.st18{fill:#4C9FD7;}
	.st19{fill:#FDBA4D;}
	.st20{fill:#F19F36;}
	.st21{fill:#F19F35;}
	.st22{fill:#FFFFFF;stroke:#595A66;stroke-width:2;stroke-miterlimit:10;}
	.st23{fill:#1A70AC;}
	.st24{fill:#35363E;}
</style>
<g>
	<path class="st0" d="M0,57V3c0-1.7,1.3-3,3-3h58c1.7,0,3,1.3,3,3v54c0,1.7-1.3,3-3,3H3C1.3,60,0,58.7,0,57z"/>
	<circle class="st1" cx="3" cy="4" r="1"/>
	<circle class="st1" cx="7" cy="4" r="1"/>
	<circle class="st1" cx="11" cy="4" r="1"/>
	<path class="st2" d="M3,8h58c0.6,0,1,0.4,1,1v48c0,0.6-0.4,1-1,1H3c-0.6,0-1-0.4-1-1V9C2,8.4,2.4,8,3,8z"/>
	<path class="st3" d="M61,5H15c-0.6,0-1-0.4-1-1v0c0-0.6,0.4-1,1-1h46c0.6,0,1,0.4,1,1v0C62,4.6,61.6,5,61,5z"/>
	<path class="st3" d="M17,52H7c-0.6,0-1-0.4-1-1V15c0-0.6,0.4-1,1-1h10c0.6,0,1,0.4,1,1v36C18,51.6,17.6,52,17,52z"/>
	<circle class="st5" cx="12" cy="22" r="4"/>
	<path class="st17" d="M15,24.6c0-0.3-0.2-0.6-0.6-0.8l-1-0.6c-0.1-0.1-0.2-0.1-0.4-0.2v-0.5c0.3-0.3,0.5-0.7,0.5-1.1
		c0-0.8-0.7-1.5-1.5-1.5s-1.5,0.7-1.5,1.5c0,0.4,0.2,0.8,0.5,1.1v0.5c-0.1,0-0.3,0.1-0.4,0.2l-1,0.6C9.3,24,9.1,24.3,9,24.6
		c0.7,0.8,1.8,1.4,3,1.4S14.3,25.5,15,24.6z"/>
	<path class="st1" d="M8,29L8,29c0-0.6,0.4-1,1-1h6c0.6,0,1,0.4,1,1v0c0,0.6-0.4,1-1,1H9C8.4,30,8,29.6,8,29z"/>
	<path class="st1" d="M9,32L9,32c0-0.6,0.4-1,1-1l4,0c0.6,0,1,0.4,1,1v0c0,0.6-0.4,1-1,1h-4C9.4,33,9,32.6,9,32z"/>
	<path class="st3" d="M57,20H23c-0.6,0-1-0.4-1-1v-4c0-0.6,0.4-1,1-1h34c0.6,0,1,0.4,1,1v4C58,19.6,57.6,20,57,20z"/>
	<path class="st3" d="M57,28H23c-0.6,0-1-0.4-1-1v-4c0-0.6,0.4-1,1-1h34c0.6,0,1,0.4,1,1v4C58,27.6,57.6,28,57,28z"/>
	<path class="st3" d="M57,36H23c-0.6,0-1-0.4-1-1v-4c0-0.6,0.4-1,1-1h34c0.6,0,1,0.4,1,1v4C58,35.6,57.6,36,57,36z"/>
	<path class="st3" d="M57,44H23c-0.6,0-1-0.4-1-1v-4c0-0.6,0.4-1,1-1h34c0.6,0,1,0.4,1,1v4C58,43.6,57.6,44,57,44z"/>
	<path class="st3" d="M57,52H23c-0.6,0-1-0.4-1-1v-4c0-0.6,0.4-1,1-1h34c0.6,0,1,0.4,1,1v4C58,51.6,57.6,52,57,52z"/>
	<path class="st0" d="M52,50H30c-0.6,0-1-0.4-1-1l0,0c0-0.6,0.4-1,1-1h22c0.6,0,1,0.4,1,1l0,0C53,49.6,52.6,50,52,50z"/>
	<path class="st0" d="M52,26H30c-0.6,0-1-0.4-1-1v0c0-0.6,0.4-1,1-1h22c0.6,0,1,0.4,1,1v0C53,25.6,52.6,26,52,26z"/>
	<path class="st0" d="M46,42H30c-0.6,0-1-0.4-1-1l0,0c0-0.6,0.4-1,1-1h16c0.6,0,1,0.4,1,1l0,0C47,41.6,46.6,42,46,42z"/>
	<path class="st0" d="M49,34H30c-0.6,0-1-0.4-1-1l0,0c0-0.6,0.4-1,1-1h19c0.6,0,1,0.4,1,1l0,0C50,33.6,49.6,34,49,34z"/>
	<path class="st0" d="M46,18H30c-0.6,0-1-0.4-1-1v0c0-0.6,0.4-1,1-1h16c0.6,0,1,0.4,1,1v0C47,17.6,46.6,18,46,18z"/>
	<circle class="st11" cx="26" cy="33" r="1"/>
	<circle class="st7" cx="26" cy="41" r="1"/>
	<circle class="st7" cx="26" cy="49" r="1"/>
	<circle class="st11" cx="26" cy="17" r="1"/>
	<circle class="st7" cx="26" cy="25" r="1"/>
</g>
</svg>
