<?xml version="1.0" encoding="utf-8"?>
<!-- Generator: Adobe Illustrator 21.0.0, SVG Export Plug-In . SVG Version: 6.00 Build 0)  -->
<svg version="1.1" id="Layer_1" xmlns="http://www.w3.org/2000/svg" xmlns:xlink="http://www.w3.org/1999/xlink" x="0px" y="0px"
	 viewBox="0 0 64 60" style="enable-background:new 0 0 64 60;" xml:space="preserve">
<style type="text/css">
	.st0{fill:#CAD1D8;}
	.st1{fill:#9BA7AF;}
	.st2{fill:#FFFFFF;}
	.st3{fill:#E2E5E7;}
	.st4{fill:#595A66;}
	.st5{fill:#ABE1FA;}
	.st6{fill:#6F707E;}
	.st7{fill:#3BB54A;}
	.st8{fill:#0E9347;}
	.st9{fill:#517CBE;}
	.st10{fill:#65CCEF;}
	.st11{fill:#EE2C39;}
	.st12{fill:#CC202C;}
	.st13{fill:#F16351;}
	.st14{fill:#DDDFE1;}
	.st15{fill:#89C763;}
	.st16{fill:#3689C9;}
	.st17{fill:#1B6FAB;}
	.st18{fill:#4C9FD7;}
	.st19{fill:#FDBA4D;}
	.st20{fill:#F19F36;}
	.st21{fill:#F19F35;}
	.st22{fill:#FFFFFF;stroke:#595A66;stroke-width:2;stroke-miterlimit:10;}
	.st23{fill:#1A70AC;}
	.st24{fill:#35363E;}
</style>
<g>
	<g>
		<path class="st0" d="M0,57V3c0-1.7,1.3-3,3-3h58c1.7,0,3,1.3,3,3v54c0,1.7-1.3,3-3,3H3C1.3,60,0,58.7,0,57z"/>
	</g>
	<g>
		<path class="st2" d="M3,8h58c0.6,0,1,0.4,1,1v48c0,0.6-0.4,1-1,1H3c-0.6,0-1-0.4-1-1V9C2,8.4,2.4,8,3,8z"/>
	</g>
	<g>
		<circle class="st1" cx="3" cy="4" r="1"/>
	</g>
	<g>
		<circle class="st1" cx="7" cy="4" r="1"/>
	</g>
	<g>
		<circle class="st1" cx="11" cy="4" r="1"/>
	</g>
	<g>
		<path class="st4" d="M6,12L6,12c0-0.6,0.4-1,1-1l5,0c0.6,0,1,0.4,1,1v0c0,0.6-0.4,1-1,1l-5,0C6.4,13,6,12.6,6,12z"/>
	</g>
	<g>
		<path class="st4" d="M52,12L52,12c0-0.6,0.4-1,1-1l4,0c0.6,0,1,0.4,1,1v0c0,0.6-0.4,1-1,1l-4,0C52.4,13,52,12.6,52,12z"/>
	</g>
	<g>
		<path class="st4" d="M44,12L44,12c0-0.6,0.4-1,1-1l4,0c0.6,0,1,0.4,1,1v0c0,0.6-0.4,1-1,1l-4,0C44.4,13,44,12.6,44,12z"/>
	</g>
	<g>
		<path class="st4" d="M36,12L36,12c0-0.6,0.4-1,1-1l4,0c0.6,0,1,0.4,1,1v0c0,0.6-0.4,1-1,1l-4,0C36.4,13,36,12.6,36,12z"/>
	</g>
	<g>
		<path class="st3" d="M61,5H15c-0.6,0-1-0.4-1-1v0c0-0.6,0.4-1,1-1h46c0.6,0,1,0.4,1,1v0C62,4.6,61.6,5,61,5z"/>
	</g>
	<path class="st11" d="M48,32H16c-0.6,0-1,0.4-1,1v16c0,0.6,0.4,1,1,1h32c0.6,0,1-0.4,1-1V33C49,32.4,48.6,32,48,32z"/>
	<path class="st12" d="M48,31H16c-1.1,0-2,0.9-2,2v16c0,1.1,0.9,2,2,2h32c1.1,0,2-0.9,2-2V33C50,31.9,49.1,31,48,31z M49,49
		c0,0.6-0.4,1-1,1H16c-0.6,0-1-0.4-1-1V33c0-0.6,0.4-1,1-1h32c0.6,0,1,0.4,1,1V49z"/>
	<g>
		<path class="st0" d="M45,23H19c-0.6,0-1-0.4-1-1v0c0-0.6,0.4-1,1-1h26c0.6,0,1,0.4,1,1v0C46,22.6,45.6,23,45,23z"/>
	</g>
	<g>
		<path class="st0" d="M40,27H24c-0.6,0-1-0.4-1-1v0c0-0.6,0.4-1,1-1h16c0.6,0,1,0.4,1,1v0C41,26.6,40.6,27,40,27z"/>
	</g>
	<g>
		<path class="st12" d="M36.4,41.1l-6-3c-0.3-0.2-0.7-0.1-1,0C29.2,38.3,29,38.7,29,39v6c0,0.3,0.2,0.7,0.5,0.9
			c0.2,0.1,0.3,0.1,0.5,0.1c0.2,0,0.3,0,0.4-0.1l6-3c0.3-0.2,0.6-0.5,0.6-0.9S36.8,41.3,36.4,41.1z"/>
	</g>
	<g>
		<path class="st2" d="M36.4,40.1l-6-3c-0.3-0.2-0.7-0.1-1,0C29.2,37.3,29,37.7,29,38v6c0,0.3,0.2,0.7,0.5,0.9
			c0.2,0.1,0.3,0.1,0.5,0.1c0.2,0,0.3,0,0.4-0.1l6-3c0.3-0.2,0.6-0.5,0.6-0.9S36.8,40.3,36.4,40.1z"/>
	</g>
	<g>
		<path class="st14" d="M36.4,40.9l-6,3C30.3,44,30.2,44,30,44c-0.2,0-0.4-0.1-0.5-0.1C29.2,43.7,29,43.3,29,43v1
			c0,0.3,0.2,0.7,0.5,0.9c0.2,0.1,0.3,0.1,0.5,0.1c0.2,0,0.3,0,0.4-0.1l6-3c0.3-0.2,0.6-0.5,0.6-0.9c0-0.2-0.1-0.4-0.1-0.5
			C36.8,40.7,36.6,40.8,36.4,40.9z"/>
	</g>
</g>
</svg>
