<?xml version="1.0" encoding="utf-8"?>
<!-- Generator: Adobe Illustrator 21.0.0, SVG Export Plug-In . SVG Version: 6.00 Build 0)  -->
<svg version="1.1" id="Layer_1" xmlns="http://www.w3.org/2000/svg" xmlns:xlink="http://www.w3.org/1999/xlink" x="0px" y="0px"
	 viewBox="0 0 64 60" style="enable-background:new 0 0 64 60;" xml:space="preserve">
<style type="text/css">
	.st0{fill:#CAD1D8;}
	.st1{fill:#9BA7AF;}
	.st2{fill:#FFFFFF;}
	.st3{fill:#E2E5E7;}
	.st4{fill:#595A66;}
	.st5{fill:#ABE1FA;}
	.st6{fill:#6F707E;}
	.st7{fill:#3BB54A;}
	.st8{fill:#0E9347;}
	.st9{fill:#517CBE;}
	.st10{fill:#65CCEF;}
	.st11{fill:#EE2C39;}
	.st12{fill:#CC202C;}
	.st13{fill:#F16351;}
	.st14{fill:#DDDFE1;}
	.st15{fill:#89C763;}
	.st16{fill:#3689C9;}
	.st17{fill:#1B6FAB;}
	.st18{fill:#4C9FD7;}
	.st19{fill:#FDBA4D;}
	.st20{fill:#F19F36;}
	.st21{fill:#F19F35;}
	.st22{fill:#FFFFFF;stroke:#595A66;stroke-width:2;stroke-miterlimit:10;}
	.st23{fill:#1A70AC;}
	.st24{fill:#35363E;}
</style>
<g>
	<path class="st0" d="M0,57V3c0-1.7,1.3-3,3-3h58c1.7,0,3,1.3,3,3v54c0,1.7-1.3,3-3,3H3C1.3,60,0,58.7,0,57z"/>
	<circle class="st1" cx="3" cy="4" r="1"/>
	<circle class="st1" cx="7" cy="4" r="1"/>
	<circle class="st1" cx="11" cy="4" r="1"/>
	<path class="st2" d="M3,8h58c0.6,0,1,0.4,1,1v48c0,0.6-0.4,1-1,1H3c-0.6,0-1-0.4-1-1V9C2,8.4,2.4,8,3,8z"/>
	<path class="st0" d="M54,20H36c-0.6,0-1-0.4-1-1v0c0-0.6,0.4-1,1-1h18c0.6,0,1,0.4,1,1v0C55,19.6,54.6,20,54,20z"/>
	<path class="st0" d="M48,24H36c-0.6,0-1-0.4-1-1v0c0-0.6,0.4-1,1-1h12c0.6,0,1,0.4,1,1v0C49,23.6,48.6,24,48,24z"/>
	<path class="st3" d="M61,5H15c-0.6,0-1-0.4-1-1v0c0-0.6,0.4-1,1-1h46c0.6,0,1,0.4,1,1v0C62,4.6,61.6,5,61,5z"/>
	<path class="st4" d="M26,52H12c-1.7,0-3-1.3-3-3V17c0-1.7,1.3-3,3-3h14c1.7,0,3,1.3,3,3v32C29,50.7,27.7,52,26,52z"/>
	<rect x="11" y="20" class="st5" width="16" height="26"/>
	<path class="st6" d="M16,17L16,17c0-0.6,0.4-1,1-1l4,0c0.6,0,1,0.4,1,1v0c0,0.6-0.4,1-1,1l-4,0C16.4,18,16,17.6,16,17z"/>
	<circle class="st6" cx="19" cy="49" r="2"/>
	<circle class="st2" cx="19" cy="31" r="3"/>
	<path class="st2" d="M11,46h13l-6.2-7.1c-0.4-0.5-1.1-0.5-1.5,0L11,44V46z"/>
	<path class="st2" d="M27,39l-2.3-2.3c-0.4-0.4-1-0.4-1.4,0L14,46h13V39z"/>
	<path class="st3" d="M23.2,42.8c-0.6-0.7-1.6-0.9-2.4-0.5L24,46h2L23.2,42.8z"/>
	<circle class="st7" cx="36" cy="15" r="1"/>
	<path class="st0" d="M54,34H36c-0.6,0-1-0.4-1-1l0,0c0-0.6,0.4-1,1-1h18c0.6,0,1,0.4,1,1l0,0C55,33.6,54.6,34,54,34z"/>
	<path class="st0" d="M48,38H36c-0.6,0-1-0.4-1-1l0,0c0-0.6,0.4-1,1-1h12c0.6,0,1,0.4,1,1l0,0C49,37.6,48.6,38,48,38z"/>
	<circle class="st7" cx="36" cy="29" r="1"/>
	<path class="st0" d="M54,48H36c-0.6,0-1-0.4-1-1l0,0c0-0.6,0.4-1,1-1h18c0.6,0,1,0.4,1,1l0,0C55,47.6,54.6,48,54,48z"/>
	<path class="st0" d="M48,52H36c-0.6,0-1-0.4-1-1l0,0c0-0.6,0.4-1,1-1h12c0.6,0,1,0.4,1,1l0,0C49,51.6,48.6,52,48,52z"/>
	<circle class="st7" cx="36" cy="43" r="1"/>
	<path class="st4" d="M39,15L39,15c0-0.6,0.4-1,1-1h4c0.6,0,1,0.4,1,1v0c0,0.6-0.4,1-1,1h-4C39.4,16,39,15.6,39,15z"/>
	<path class="st4" d="M39,29L39,29c0-0.6,0.4-1,1-1l4,0c0.6,0,1,0.4,1,1v0c0,0.6-0.4,1-1,1l-4,0C39.4,30,39,29.6,39,29z"/>
	<path class="st4" d="M39,43L39,43c0-0.6,0.4-1,1-1h4c0.6,0,1,0.4,1,1v0c0,0.6-0.4,1-1,1h-4C39.4,44,39,43.6,39,43z"/>
</g>
</svg>
