<?xml version="1.0" encoding="utf-8"?>
<!-- Generator: Adobe Illustrator 21.0.0, SVG Export Plug-In . SVG Version: 6.00 Build 0)  -->
<svg version="1.1" xmlns="http://www.w3.org/2000/svg" xmlns:xlink="http://www.w3.org/1999/xlink" x="0px" y="0px"
	 viewBox="0 0 64 60" style="enable-background:new 0 0 64 60;" xml:space="preserve">
<style type="text/css">
	.st0{fill:#CAD1D8;}
	.st1{fill:#FFFFFF;}
	.st2{fill:#595A66;}
	.st3{fill:#9BA7AF;}
	.st4{fill:#E2E5E7;}
	.st5{fill:#ABE1FA;}
	.st6{fill:#FDBA4D;}
	.st7{fill:#F19F35;}
	.st8{fill:#3BB54A;}
	.st9{fill:#0E9347;}
	.st10{fill:#E6E7E8;}
	.st11{fill:#BCBEC0;}
	.st12{fill:#D1D3D4;}
	.st13{fill:#A7A9AC;}
	.st14{fill:#DCDDDE;}
	.st15{fill:#B1B3B6;}
	.st16{fill:#C7C8CA;}
	.st17{fill:#9D9FA2;}
	.st18{fill:#3689C9;}
	.st19{fill:#EE2C39;}
	.st20{fill:#FFFFFF;stroke:#595A66;stroke-width:2;stroke-miterlimit:10;}
	.st21{fill:#F19F36;}
	.st22{fill:#D4D5D6;}
	.st23{fill:#35363E;}
	.st24{fill:#CC202C;}
	.st25{fill:#1A70AC;}
	.st26{fill:#BD6428;}
	.st27{fill:#A35723;}
	.st28{fill:#A35623;}
	.st29{fill:#DDDFE1;}
	.st30{fill:#1B6FAB;}
	.st31{fill:#165D91;}
	.st32{fill:#699DC4;}
	.st33{fill:#6F707E;}
	.st34{fill:#4C9FD7;}
	.st35{fill:#748B9E;}
	.st36{fill:#78B6E4;}
</style>
<g id="Layer_62">
</g>
<g id="Layer_60">
</g>
<g id="Layer_59">
</g>
<g id="Layer_58">
</g>
<g id="Layer_57">
</g>
<g id="Layer_56">
</g>
<g id="Layer_55">
</g>
<g id="Layer_54">
</g>
<g id="Layer_53">
</g>
<g id="Layer_52">
</g>
<g id="Layer_51">
</g>
<g id="Layer_50">
</g>
<g id="Layer_49">
</g>
<g id="Layer_48">
	<g>
		<g>
			<path class="st0" d="M0,57V3c0-1.7,1.3-3,3-3h58c1.7,0,3,1.3,3,3v54c0,1.7-1.3,3-3,3H3C1.3,60,0,58.7,0,57z"/>
		</g>
		<g>
			<circle class="st3" cx="3" cy="4" r="1"/>
		</g>
		<g>
			<circle class="st3" cx="7" cy="4" r="1"/>
		</g>
		<g>
			<circle class="st3" cx="11" cy="4" r="1"/>
		</g>
		<g>
			<path class="st1" d="M3,8h58c0.6,0,1,0.4,1,1v48c0,0.6-0.4,1-1,1H3c-0.6,0-1-0.4-1-1V9C2,8.4,2.4,8,3,8z"/>
		</g>
		<g>
			<path class="st4" d="M61,5H15c-0.6,0-1-0.4-1-1v0c0-0.6,0.4-1,1-1h46c0.6,0,1,0.4,1,1v0C62,4.6,61.6,5,61,5z"/>
		</g>
		<g>
			<g>
				<path class="st6" d="M8,30.5c-0.8,0-1.5-0.7-1.5-1.5V15c0-0.8,0.7-1.5,1.5-1.5h20c0.8,0,1.5,0.7,1.5,1.5v14
					c0,0.8-0.7,1.5-1.5,1.5H8z"/>
			</g>
			<path class="st21" d="M28,13H8c-1.1,0-2,0.9-2,2v14c0,1.1,0.9,2,2,2h20c1.1,0,2-0.9,2-2V15C30,13.9,29.1,13,28,13z M29,29
				c0,0.6-0.4,1-1,1H8c-0.6,0-1-0.4-1-1V15c0-0.6,0.4-1,1-1h20c0.6,0,1,0.4,1,1V29z"/>
		</g>
		<g>
			<path class="st0" d="M53,52c0-0.5,0.5-1,1-1l0,0c0.5,0,1,0.5,1,1l0,0c0,0.5-0.5,1-1,1l0,0C53.5,53,53,52.5,53,52z M49,52
				c0-0.5,0.4-1,1-1l0,0c0.5,0,1,0.5,1,1l0,0c0,0.5-0.5,1-1,1l0,0C49.5,53,49,52.5,49,52z M45,52c0-0.5,0.5-1,1-1l0,0
				c0.6,0,1,0.5,1,1l0,0c0,0.5-0.4,1-1,1l0,0C45.4,53,45,52.5,45,52z M40.9,52c0-0.5,0.4-1,1-1l0,0c0.5,0,1,0.5,1,1l0,0
				c0,0.5-0.5,1-1,1l0,0C41.4,53,40.9,52.5,40.9,52z M36.9,52c0-0.5,0.4-1,1-1l0,0c0.6,0,1,0.5,1,1l0,0c0,0.5-0.4,1-1,1l0,0
				C37.4,53,36.9,52.5,36.9,52z M57,51.1c-0.5,0-1-0.5-1-1l0,0c0-0.5,0.5-1,1-1l0,0c0.5,0,1,0.5,1,1l0,0C58,50.7,57.5,51.1,57,51.1
				L57,51.1C57,51.1,57,51.1,57,51.1z M34,50C34,50,34,50,34,50L34,50L34,50L34,50c0-0.6,0.4-1,1-1l0,0c0.5,0,1,0.5,1,1l0,0v0l0,0
				c0,0,0,0,0,0l0,0c0,0.5-0.4,1-1,1l0,0c0,0,0,0,0,0l0,0C34.5,51,34,50.6,34,50z M34,50L34,50L34,50L34,50L34,50L34,50z M56,46
				c0-0.5,0.4-1,1-1l0,0c0.5,0,1,0.5,1,1l0,0c0,0.6-0.4,1-1,1l0,0C56.4,47,56,46.6,56,46z M34,46c0-0.6,0.4-1,1-1l0,0
				c0.5,0,1,0.4,1,1l0,0c0,0.6-0.5,1-1,1l0,0C34.4,47,34,46.5,34,46z M56,42c0-0.5,0.4-1,1-1l0,0c0.5,0,1,0.5,1,1l0,0
				c0,0.5-0.4,1-1,1l0,0C56.4,43,56,42.6,56,42z M34,41.9c0-0.5,0.4-1,1-1l0,0c0.5,0,1,0.5,1,1l0,0c0,0.5-0.5,1-1,1l0,0
				C34.4,42.9,34,42.5,34,41.9z M56,38L56,38c0-0.6,0.4-1,1-1l0,0c0.5,0,1,0.4,1,1l0,0c0,0.5-0.4,1-1,1l0,0C56.5,39,56,38.5,56,38z
				 M35,38.9c-0.5,0-1-0.5-0.9-1l0,0c0-0.5,0.5-1,1-1l0,0c0.6,0,1,0.5,1,1l0,0C36,38.5,35.5,38.9,35,38.9L35,38.9
				C35,38.9,35,38.9,35,38.9z M58,38L58,38L58,38C58,38,58,38,58,38L58,38L58,38z M53.1,36c0-0.5,0.4-1,1-1l0,0c0.6,0,1,0.5,1,1l0,0
				c0,0.6-0.4,1-1,1l0,0C53.5,37,53.1,36.6,53.1,36z M49.1,36c0-0.5,0.5-1,1-1l0,0c0.6,0,1,0.5,1,1l0,0c0,0.6-0.5,1-1,1l0,0
				C49.5,37,49.1,36.6,49.1,36z M45,36c0-0.5,0.5-1,1-1l0,0c0.6,0,1,0.5,1,1l0,0c0,0.6-0.4,1-1,1l0,0C45.5,37,45,36.6,45,36z M41,36
				c0-0.5,0.4-1,1-1l0,0c0.6,0,1,0.5,1,1l0,0c0,0.6-0.4,1-1,1l0,0C41.5,37,41,36.6,41,36z M37,36c0-0.5,0.5-1,1-1l0,0
				c0.6,0,1,0.5,1,1l0,0c0,0.6-0.4,1-1,1l0,0C37.4,37,37,36.6,37,36z"/>
		</g>
		<g>
			<path class="st7" d="M23,28H13c-0.6,0-1-0.4-1-1v-1h12v1C24,27.6,23.6,28,23,28z"/>
		</g>
		<g>
			<g>
				<path class="st1" d="M12,26c0,0.5,0.5,1,1,1h10c0.5,0,1-0.5,1-1v-6H12V26z"/>
			</g>
			<g>
				<path class="st22" d="M23,19h-5l-2-2h-3c-0.5,0-1,0.5-1,1v2h12l0,0C24,19.5,23.5,19,23,19z"/>
			</g>
		</g>
		<g>
			<g>
				<path class="st6" d="M8,52.5c-0.8,0-1.5-0.7-1.5-1.5V37c0-0.8,0.7-1.5,1.5-1.5h20c0.8,0,1.5,0.7,1.5,1.5v14
					c0,0.8-0.7,1.5-1.5,1.5H8z"/>
			</g>
			<path class="st21" d="M28,35H8c-1.1,0-2,0.9-2,2v14c0,1.1,0.9,2,2,2h20c1.1,0,2-0.9,2-2V37C30,35.9,29.1,35,28,35z M29,51
				c0,0.6-0.4,1-1,1H8c-0.6,0-1-0.4-1-1V37c0-0.6,0.4-1,1-1h20c0.6,0,1,0.4,1,1V51z"/>
		</g>
		<g>
			<path class="st7" d="M23,50H13c-0.6,0-1-0.4-1-1v-1h12v1C24,49.6,23.6,50,23,50z"/>
		</g>
		<g>
			<g>
				<path class="st1" d="M12,48c0,0.5,0.5,1,1,1h10c0.5,0,1-0.5,1-1v-6H12V48z"/>
			</g>
			<g>
				<path class="st22" d="M23,41h-5l-2-2h-3c-0.5,0-1,0.5-1,1v2h12l0,0C24,41.5,23.5,41,23,41z"/>
			</g>
		</g>
		<g>
			<g>
				<path class="st6" d="M36,30.5c-0.8,0-1.5-0.7-1.5-1.5V15c0-0.8,0.7-1.5,1.5-1.5h20c0.8,0,1.5,0.7,1.5,1.5v14
					c0,0.8-0.7,1.5-1.5,1.5H36z"/>
			</g>
			<path class="st21" d="M56,13H36c-1.1,0-2,0.9-2,2v14c0,1.1,0.9,2,2,2h20c1.1,0,2-0.9,2-2V15C58,13.9,57.1,13,56,13z M57,29
				c0,0.6-0.4,1-1,1H36c-0.6,0-1-0.4-1-1V15c0-0.6,0.4-1,1-1h20c0.6,0,1,0.4,1,1V29z"/>
		</g>
		<g>
			<path class="st7" d="M51,28H41c-0.6,0-1-0.4-1-1v-1h12v1C52,27.6,51.6,28,51,28z"/>
		</g>
		<g>
			<g>
				<path class="st1" d="M40,26c0,0.5,0.5,1,1,1h10c0.5,0,1-0.5,1-1v-6H40V26z"/>
			</g>
			<g>
				<path class="st22" d="M51,19h-5l-2-2h-3c-0.5,0-1,0.5-1,1v2h12l0,0C52,19.5,51.5,19,51,19z"/>
			</g>
		</g>
		<path class="st0" d="M48,43h-1v-1c0-0.6-0.4-1-1-1s-1,0.4-1,1v1h-1c-0.6,0-1,0.4-1,1s0.4,1,1,1h1v1c0,0.6,0.4,1,1,1s1-0.4,1-1v-1
			h1c0.6,0,1-0.4,1-1S48.6,43,48,43z"/>
	</g>
</g>
<g id="Layer_47">
</g>
<g id="Layer_46">
</g>
<g id="Layer_45">
</g>
<g id="Layer_44">
</g>
<g id="Layer_43">
</g>
<g id="Layer_42">
</g>
<g id="Layer_41">
</g>
<g id="Layer_40">
</g>
<g id="Layer_39">
</g>
<g id="Layer_38">
</g>
<g id="Layer_37">
</g>
<g id="Layer_36">
</g>
<g id="Layer_35">
</g>
<g id="Layer_34">
</g>
<g id="Layer_33">
</g>
<g id="Layer_32">
</g>
<g id="Layer_31">
</g>
<g id="Layer_30">
</g>
<g id="Layer_29">
</g>
<g id="Layer_28">
</g>
<g id="Layer_27">
</g>
<g id="Layer_26">
</g>
<g id="Layer_25">
</g>
<g id="Layer_24">
</g>
<g id="Layer_23">
</g>
<g id="Layer_22">
</g>
<g id="Layer_21">
</g>
<g id="Layer_20">
</g>
<g id="Layer_19">
</g>
<g id="Layer_18">
</g>
<g id="Layer_17">
</g>
<g id="Layer_16">
</g>
<g id="Layer_15">
</g>
<g id="Layer_14">
</g>
<g id="Layer_13">
</g>
<g id="Layer_12">
</g>
<g id="Layer_11">
</g>
<g id="Layer_10">
</g>
<g id="Layer_9">
</g>
<g id="Layer_8">
</g>
<g id="Layer_7">
</g>
<g id="Layer_6">
</g>
<g id="Layer_5">
</g>
<g id="Layer_4">
</g>
<g id="Layer_3">
</g>
<g id="Layer_2">
</g>
</svg>
