<?xml version="1.0" encoding="utf-8"?>
<!-- Generator: Adobe Illustrator 21.0.0, SVG Export Plug-In . SVG Version: 6.00 Build 0)  -->
<svg version="1.1" id="Layer_1" xmlns="http://www.w3.org/2000/svg" xmlns:xlink="http://www.w3.org/1999/xlink" x="0px" y="0px"
	 viewBox="0 0 64 60" style="enable-background:new 0 0 64 60;" xml:space="preserve">
<style type="text/css">
	.st0{fill:#CAD1D8;}
	.st1{fill:#9BA7AF;}
	.st2{fill:#FFFFFF;}
	.st3{fill:#E2E5E7;}
	.st4{fill:#595A66;}
	.st5{fill:#ABE1FA;}
	.st6{fill:#6F707E;}
	.st7{fill:#3BB54A;}
	.st8{fill:#0E9347;}
	.st9{fill:#517CBE;}
	.st10{fill:#65CCEF;}
	.st11{fill:#EE2C39;}
	.st12{fill:#CC202C;}
	.st13{fill:#F16351;}
	.st14{fill:#DDDFE1;}
	.st15{fill:#89C763;}
	.st16{fill:#3689C9;}
	.st17{fill:#1B6FAB;}
	.st18{fill:#4C9FD7;}
	.st19{fill:#FDBA4D;}
	.st20{fill:#F19F36;}
	.st21{fill:#F19F35;}
	.st22{fill:#FFFFFF;stroke:#595A66;stroke-width:2;stroke-miterlimit:10;}
	.st23{fill:#1A70AC;}
	.st24{fill:#35363E;}
</style>
<g>
	<path class="st0" d="M0,57V3c0-1.7,1.3-3,3-3h58c1.7,0,3,1.3,3,3v54c0,1.7-1.3,3-3,3H3C1.3,60,0,58.7,0,57z"/>
	<circle class="st1" cx="3" cy="4" r="1"/>
	<circle class="st1" cx="7" cy="4" r="1"/>
	<circle class="st1" cx="11" cy="4" r="1"/>
	<path class="st2" d="M3,8h58c0.6,0,1,0.4,1,1v48c0,0.6-0.4,1-1,1H3c-0.6,0-1-0.4-1-1V9C2,8.4,2.4,8,3,8z"/>
	<path class="st3" d="M61,5H15c-0.6,0-1-0.4-1-1v0c0-0.6,0.4-1,1-1h46c0.6,0,1,0.4,1,1v0C62,4.6,61.6,5,61,5z"/>
	<path class="st0" d="M40,29H18c-0.6,0-1-0.4-1-1v0c0-0.6,0.4-1,1-1h22c0.6,0,1,0.4,1,1v0C41,28.6,40.6,29,40,29z"/>
	<path class="st0" d="M35,33H18c-0.6,0-1-0.4-1-1v0c0-0.6,0.4-1,1-1h17c0.6,0,1,0.4,1,1v0C36,32.6,35.6,33,35,33z"/>
	<path class="st0" d="M40,39H18c-0.6,0-1-0.4-1-1l0,0c0-0.6,0.4-1,1-1h22c0.6,0,1,0.4,1,1l0,0C41,38.6,40.6,39,40,39z"/>
	<path class="st0" d="M35,43H18c-0.6,0-1-0.4-1-1l0,0c0-0.6,0.4-1,1-1h17c0.6,0,1,0.4,1,1l0,0C36,42.6,35.6,43,35,43z"/>
	<path class="st11" d="M53,33h-4c-1.7,0-3-1.3-3-3v0c0-1.7,1.3-3,3-3h4c1.7,0,3,1.3,3,3v0C56,31.7,54.7,33,53,33z"/>
	<path class="st16" d="M62,17H2V9c0-0.6,0.4-1,1-1h58c0.6,0,1,0.4,1,1V17z"/>
	<circle class="st5" cx="32" cy="17" r="5"/>
	<path class="st17" d="M36.2,19.8c-0.1-0.3-0.4-0.6-0.8-0.9l-1.4-0.9c-0.2-0.1-0.3-0.2-0.5-0.2v-0.6c0.4-0.4,0.7-0.9,0.7-1.6
		c0-1.2-1-2.1-2.1-2.1s-2.1,1-2.1,2.1c0,0.6,0.3,1.2,0.7,1.6v0.6c-0.2,0.1-0.4,0.1-0.5,0.2l-1.4,0.9c-0.4,0.2-0.7,0.5-0.8,0.9
		c0.9,1.3,2.4,2.2,4.2,2.2S35.3,21.1,36.2,19.8z"/>
	<circle class="st2" cx="53" cy="30" r="2"/>
	<circle class="st0" cx="12" cy="29" r="2"/>
	<circle class="st0" cx="12" cy="39" r="2"/>
	<circle class="st0" cx="12" cy="49" r="2"/>
	<path class="st7" d="M53,43h-4c-1.7,0-3-1.3-3-3v0c0-1.7,1.3-3,3-3h4c1.7,0,3,1.3,3,3v0C56,41.7,54.7,43,53,43z"/>
	<circle class="st2" cx="49" cy="40" r="2"/>
	<path class="st0" d="M40,49H18c-0.6,0-1-0.4-1-1l0,0c0-0.6,0.4-1,1-1h22c0.6,0,1,0.4,1,1l0,0C41,48.6,40.6,49,40,49z"/>
	<path class="st0" d="M35,53H18c-0.6,0-1-0.4-1-1l0,0c0-0.6,0.4-1,1-1h17c0.6,0,1,0.4,1,1l0,0C36,52.6,35.6,53,35,53z"/>
	<path class="st7" d="M53,53h-4c-1.7,0-3-1.3-3-3v0c0-1.7,1.3-3,3-3h4c1.7,0,3,1.3,3,3v0C56,51.7,54.7,53,53,53z"/>
	<circle class="st2" cx="49" cy="50" r="2"/>
</g>
</svg>
