<?xml version="1.0" encoding="utf-8"?>
<!-- Generator: Adobe Illustrator 21.0.0, SVG Export Plug-In . SVG Version: 6.00 Build 0)  -->
<svg version="1.1" xmlns="http://www.w3.org/2000/svg" xmlns:xlink="http://www.w3.org/1999/xlink" x="0px" y="0px"
	 viewBox="0 0 64 60" style="enable-background:new 0 0 64 60;" xml:space="preserve">
<style type="text/css">
	.st0{fill:#CAD1D8;}
	.st1{fill:#FFFFFF;}
	.st2{fill:#595A66;}
	.st3{fill:#9BA7AF;}
	.st4{fill:#E2E5E7;}
	.st5{fill:#ABE1FA;}
	.st6{fill:#FDBA4D;}
	.st7{fill:#F19F35;}
	.st8{fill:#3BB54A;}
	.st9{fill:#0E9347;}
	.st10{fill:#E6E7E8;}
	.st11{fill:#BCBEC0;}
	.st12{fill:#D1D3D4;}
	.st13{fill:#A7A9AC;}
	.st14{fill:#DCDDDE;}
	.st15{fill:#B1B3B6;}
	.st16{fill:#C7C8CA;}
	.st17{fill:#9D9FA2;}
	.st18{fill:#3689C9;}
	.st19{fill:#EE2C39;}
	.st20{fill:#FFFFFF;stroke:#595A66;stroke-width:2;stroke-miterlimit:10;}
	.st21{fill:#F19F36;}
	.st22{fill:#D4D5D6;}
	.st23{fill:#35363E;}
	.st24{fill:#CC202C;}
	.st25{fill:#1A70AC;}
	.st26{fill:#BD6428;}
	.st27{fill:#A35723;}
	.st28{fill:#A35623;}
	.st29{fill:#DDDFE1;}
	.st30{fill:#1B6FAB;}
	.st31{fill:#165D91;}
	.st32{fill:#699DC4;}
	.st33{fill:#6F707E;}
	.st34{fill:#4C9FD7;}
	.st35{fill:#748B9E;}
	.st36{fill:#78B6E4;}
</style>
<g id="Layer_62">
</g>
<g id="Layer_60">
</g>
<g id="Layer_59">
</g>
<g id="Layer_58">
</g>
<g id="Layer_57">
</g>
<g id="Layer_56">
</g>
<g id="Layer_55">
</g>
<g id="Layer_54">
	<g>
		<path class="st0" d="M0,57V3c0-1.7,1.3-3,3-3h58c1.7,0,3,1.3,3,3v54c0,1.7-1.3,3-3,3H3C1.3,60,0,58.7,0,57z"/>
		<circle class="st3" cx="3" cy="4" r="1"/>
		<circle class="st3" cx="7" cy="4" r="1"/>
		<circle class="st3" cx="11" cy="4" r="1"/>
		<path class="st1" d="M3,8h58c0.6,0,1,0.4,1,1v48c0,0.6-0.4,1-1,1H3c-0.6,0-1-0.4-1-1V9C2,8.4,2.4,8,3,8z"/>
		<path class="st4" d="M61,5H15c-0.6,0-1-0.4-1-1v0c0-0.6,0.4-1,1-1h46c0.6,0,1,0.4,1,1v0C62,4.6,61.6,5,61,5z"/>
		<path class="st2" d="M45,15H19c-0.6,0-1-0.4-1-1v0c0-0.6,0.4-1,1-1h26c0.6,0,1,0.4,1,1v0C46,14.6,45.6,15,45,15z"/>
		<path class="st2" d="M40,19H24c-0.6,0-1-0.4-1-1v0c0-0.6,0.4-1,1-1h16c0.6,0,1,0.4,1,1v0C41,18.6,40.6,19,40,19z"/>
		<path class="st0" d="M53,40H11c-0.6,0-1-0.4-1-1l0,0c0-0.6,0.4-1,1-1h42c0.6,0,1,0.4,1,1l0,0C54,39.6,53.6,40,53,40z"/>
		<path class="st0" d="M53,33H11c-0.6,0-1-0.4-1-1v0c0-0.6,0.4-1,1-1h42c0.6,0,1,0.4,1,1v0C54,32.6,53.6,33,53,33z"/>
		<path class="st0" d="M31,53l0-28c0-0.6,0.4-1,1-1h0c0.6,0,1,0.4,1,1v28c0,0.6-0.4,1-1,1h0C31.4,54,31,53.6,31,53z"/>
		<path class="st0" d="M24,53l0-28c0-0.6,0.4-1,1-1h0c0.6,0,1,0.4,1,1l0,28c0,0.6-0.4,1-1,1h0C24.4,54,24,53.6,24,53z"/>
		<path class="st0" d="M17,53l0-28c0-0.6,0.4-1,1-1h0c0.6,0,1,0.4,1,1l0,28c0,0.6-0.4,1-1,1h0C17.4,54,17,53.6,17,53z"/>
		<path class="st0" d="M45,53V25c0-0.6,0.4-1,1-1h0c0.6,0,1,0.4,1,1v28c0,0.6-0.4,1-1,1l0,0C45.4,54,45,53.6,45,53z"/>
		<path class="st0" d="M52,53V25c0-0.6,0.4-1,1-1h0c0.6,0,1,0.4,1,1v28c0,0.6-0.4,1-1,1l0,0C52.4,54,52,53.6,52,53z"/>
		<path class="st0" d="M10,53l0-28c0-0.6,0.4-1,1-1h0c0.6,0,1,0.4,1,1l0,28c0,0.6-0.4,1-1,1h0C10.4,54,10,53.6,10,53z"/>
		<path class="st0" d="M38,53V25c0-0.6,0.4-1,1-1l0,0c0.6,0,1,0.4,1,1v28c0,0.6-0.4,1-1,1h0C38.4,54,38,53.6,38,53z"/>
		<path class="st0" d="M53,26H11c-0.6,0-1-0.4-1-1v0c0-0.6,0.4-1,1-1h42c0.6,0,1,0.4,1,1v0C54,25.6,53.6,26,53,26z"/>
		<path class="st0" d="M53,47H11c-0.6,0-1-0.4-1-1l0,0c0-0.6,0.4-1,1-1h42c0.6,0,1,0.4,1,1l0,0C54,46.6,53.6,47,53,47z"/>
		<path class="st0" d="M53,54H11c-0.6,0-1-0.4-1-1l0,0c0-0.6,0.4-1,1-1h42c0.6,0,1,0.4,1,1l0,0C54,53.6,53.6,54,53,54z"/>
		<circle class="st8" cx="14.5" cy="28.5" r="1.5"/>
		<circle class="st19" cx="42.5" cy="28.5" r="1.5"/>
		<circle class="st19" cx="28.5" cy="35.5" r="1.5"/>
		<circle class="st8" cx="28.5" cy="49.5" r="1.5"/>
		<circle class="st18" cx="35.5" cy="42.5" r="1.5"/>
	</g>
</g>
<g id="Layer_53">
</g>
<g id="Layer_52">
</g>
<g id="Layer_51">
</g>
<g id="Layer_50">
</g>
<g id="Layer_49">
</g>
<g id="Layer_48">
</g>
<g id="Layer_47">
</g>
<g id="Layer_46">
</g>
<g id="Layer_45">
</g>
<g id="Layer_44">
</g>
<g id="Layer_43">
</g>
<g id="Layer_42">
</g>
<g id="Layer_41">
</g>
<g id="Layer_40">
</g>
<g id="Layer_39">
</g>
<g id="Layer_38">
</g>
<g id="Layer_37">
</g>
<g id="Layer_36">
</g>
<g id="Layer_35">
</g>
<g id="Layer_34">
</g>
<g id="Layer_33">
</g>
<g id="Layer_32">
</g>
<g id="Layer_31">
</g>
<g id="Layer_30">
</g>
<g id="Layer_29">
</g>
<g id="Layer_28">
</g>
<g id="Layer_27">
</g>
<g id="Layer_26">
</g>
<g id="Layer_25">
</g>
<g id="Layer_24">
</g>
<g id="Layer_23">
</g>
<g id="Layer_22">
</g>
<g id="Layer_21">
</g>
<g id="Layer_20">
</g>
<g id="Layer_19">
</g>
<g id="Layer_18">
</g>
<g id="Layer_17">
</g>
<g id="Layer_16">
</g>
<g id="Layer_15">
</g>
<g id="Layer_14">
</g>
<g id="Layer_13">
</g>
<g id="Layer_12">
</g>
<g id="Layer_11">
</g>
<g id="Layer_10">
</g>
<g id="Layer_9">
</g>
<g id="Layer_8">
</g>
<g id="Layer_7">
</g>
<g id="Layer_6">
</g>
<g id="Layer_5">
</g>
<g id="Layer_4">
</g>
<g id="Layer_3">
</g>
<g id="Layer_2">
</g>
</svg>
