<?xml version="1.0" encoding="utf-8"?>
<!-- Generator: Adobe Illustrator 21.0.0, SVG Export Plug-In . SVG Version: 6.00 Build 0)  -->
<svg version="1.1" id="Layer_1" xmlns="http://www.w3.org/2000/svg" xmlns:xlink="http://www.w3.org/1999/xlink" x="0px" y="0px"
	 viewBox="0 0 64 60" style="enable-background:new 0 0 64 60;" xml:space="preserve">
<style type="text/css">
	.st0{fill:#CAD1D8;}
	.st1{fill:#9BA7AF;}
	.st2{fill:#FFFFFF;}
	.st3{fill:#E2E5E7;}
	.st4{fill:#595A66;}
	.st5{fill:#ABE1FA;}
	.st6{fill:#6F707E;}
	.st7{fill:#3BB54A;}
	.st8{fill:#0E9347;}
	.st9{fill:#517CBE;}
	.st10{fill:#65CCEF;}
	.st11{fill:#EE2C39;}
	.st12{fill:#CC202C;}
	.st13{fill:#F16351;}
	.st14{fill:#DDDFE1;}
	.st15{fill:#89C763;}
	.st16{fill:#3689C9;}
	.st17{fill:#1B6FAB;}
	.st18{fill:#4C9FD7;}
	.st19{fill:#FDBA4D;}
	.st20{fill:#F19F36;}
	.st21{fill:#F19F35;}
	.st22{fill:#FFFFFF;stroke:#595A66;stroke-width:2;stroke-miterlimit:10;}
	.st23{fill:#1A70AC;}
	.st24{fill:#35363E;}
</style>
<g>
	<path class="st0" d="M0,57V3c0-1.7,1.3-3,3-3h58c1.7,0,3,1.3,3,3v54c0,1.7-1.3,3-3,3H3C1.3,60,0,58.7,0,57z"/>
	<circle class="st1" cx="3" cy="4" r="1"/>
	<circle class="st1" cx="7" cy="4" r="1"/>
	<circle class="st1" cx="11" cy="4" r="1"/>
	<path class="st2" d="M3,8h58c0.6,0,1,0.4,1,1v48c0,0.6-0.4,1-1,1H3c-0.6,0-1-0.4-1-1V9C2,8.4,2.4,8,3,8z"/>
	<path class="st3" d="M61,5H15c-0.6,0-1-0.4-1-1v0c0-0.6,0.4-1,1-1h46c0.6,0,1,0.4,1,1v0C62,4.6,61.6,5,61,5z"/>
	<path class="st3" d="M40,17H10c-1.1,0-2-0.9-2-2v0c0-1.1,0.9-2,2-2h30V17z"/>
	<path class="st7" d="M54,18H41v-6h13c1.7,0,3,1.3,3,3v0C57,16.7,55.7,18,54,18z"/>
	<circle class="st8" cx="45" cy="15" r="1"/>
	<circle class="st8" cx="49" cy="15" r="1"/>
	<circle class="st8" cx="53" cy="15" r="1"/>
	<path class="st0" d="M40,12H10c-1.7,0-3,1.3-3,3s1.3,3,3,3h31v-5v-1H40z M40,17H10c-1.1,0-2-0.9-2-2c0-1.1,0.9-2,2-2h30V17z"/>
	<path class="st4" d="M11,23L11,23c0-0.6,0.4-1,1-1l8,0c0.6,0,1,0.4,1,1v0c0,0.6-0.4,1-1,1l-8,0C11.4,24,11,23.6,11,23z"/>
	<path class="st0" d="M11,27L11,27c0-0.6,0.4-1,1-1l38,0c0.6,0,1,0.4,1,1v0c0,0.6-0.4,1-1,1l-38,0C11.4,28,11,27.6,11,27z"/>
	<path class="st0" d="M11,31L11,31c0-0.6,0.4-1,1-1l20,0c0.6,0,1,0.4,1,1v0c0,0.6-0.4,1-1,1l-20,0C11.4,32,11,31.6,11,31z"/>
	<path class="st4" d="M11,36L11,36c0-0.6,0.4-1,1-1h8c0.6,0,1,0.4,1,1l0,0c0,0.6-0.4,1-1,1h-8C11.4,37,11,36.6,11,36z"/>
	<path class="st0" d="M11,40L11,40c0-0.6,0.4-1,1-1h38c0.6,0,1,0.4,1,1l0,0c0,0.6-0.4,1-1,1H12C11.4,41,11,40.6,11,40z"/>
	<path class="st4" d="M11,49L11,49c0-0.6,0.4-1,1-1h8c0.6,0,1,0.4,1,1l0,0c0,0.6-0.4,1-1,1h-8C11.4,50,11,49.6,11,49z"/>
	<path class="st0" d="M11,53L11,53c0-0.6,0.4-1,1-1h38c0.6,0,1,0.4,1,1l0,0c0,0.6-0.4,1-1,1H12C11.4,54,11,53.6,11,53z"/>
	<path class="st0" d="M11,44L11,44c0-0.6,0.4-1,1-1h20c0.6,0,1,0.4,1,1l0,0c0,0.6-0.4,1-1,1H12C11.4,45,11,44.6,11,44z"/>
	<circle class="st16" cx="8" cy="23" r="1"/>
	<circle class="st16" cx="8" cy="36" r="1"/>
	<circle class="st16" cx="8" cy="49" r="1"/>
</g>
</svg>
