<?xml version="1.0" encoding="utf-8"?>
<!-- Generator: Adobe Illustrator 21.0.0, SVG Export Plug-In . SVG Version: 6.00 Build 0)  -->
<svg version="1.1" id="Layer_1" xmlns="http://www.w3.org/2000/svg" xmlns:xlink="http://www.w3.org/1999/xlink" x="0px" y="0px"
	 viewBox="0 0 64 60" style="enable-background:new 0 0 64 60;" xml:space="preserve">
<style type="text/css">
	.st0{fill:#CAD1D8;}
	.st1{fill:#9BA7AF;}
	.st2{fill:#FFFFFF;}
	.st3{fill:#E2E5E7;}
	.st4{fill:#595A66;}
	.st5{fill:#ABE1FA;}
	.st6{fill:#6F707E;}
	.st7{fill:#3BB54A;}
	.st8{fill:#0E9347;}
	.st9{fill:#517CBE;}
	.st10{fill:#65CCEF;}
	.st11{fill:#EE2C39;}
	.st12{fill:#CC202C;}
	.st13{fill:#F16351;}
	.st14{fill:#DDDFE1;}
	.st15{fill:#89C763;}
	.st16{fill:#3689C9;}
	.st17{fill:#1B6FAB;}
	.st18{fill:#4C9FD7;}
	.st19{fill:#FDBA4D;}
	.st20{fill:#F19F36;}
	.st21{fill:#F19F35;}
	.st22{fill:#FFFFFF;stroke:#595A66;stroke-width:2;stroke-miterlimit:10;}
	.st23{fill:#1A70AC;}
	.st24{fill:#35363E;}
</style>
<g>
	<path class="st0" d="M0,57V3c0-1.7,1.3-3,3-3h58c1.7,0,3,1.3,3,3v54c0,1.7-1.3,3-3,3H3C1.3,60,0,58.7,0,57z"/>
	<circle class="st1" cx="3" cy="4" r="1"/>
	<circle class="st1" cx="7" cy="4" r="1"/>
	<circle class="st1" cx="11" cy="4" r="1"/>
	<path class="st2" d="M3,8h58c0.6,0,1,0.4,1,1v48c0,0.6-0.4,1-1,1H3c-0.6,0-1-0.4-1-1V9C2,8.4,2.4,8,3,8z"/>
	<path class="st3" d="M61,5H15c-0.6,0-1-0.4-1-1v0c0-0.6,0.4-1,1-1h46c0.6,0,1,0.4,1,1v0C62,4.6,61.6,5,61,5z"/>
	<path class="st0" d="M45,15H19c-0.6,0-1-0.4-1-1v0c0-0.6,0.4-1,1-1h26c0.6,0,1,0.4,1,1v0C46,14.6,45.6,15,45,15z"/>
	<path class="st0" d="M40,19H24c-0.6,0-1-0.4-1-1v0c0-0.6,0.4-1,1-1h16c0.6,0,1,0.4,1,1v0C41,18.6,40.6,19,40,19z"/>
	<circle class="st9" cx="32" cy="35" r="7"/>
	<path class="st2" d="M33.8,33.6h-1.2v-0.8c0-0.3,0.2-0.4,0.3-0.4c0.1,0,0.9,0,0.9,0v-1.3l-1.2,0c-1.3,0-1.6,1-1.6,1.6v0.9h-0.8V35
		H31c0,1.8,0,3.9,0,3.9h1.6c0,0,0-2.1,0-3.9h1.1L33.8,33.6z"/>
	<circle class="st10" cx="14" cy="35" r="7"/>
	<g>
		<g>
			<path class="st2" d="M18,32.4c-0.3,0.1-0.6,0.2-0.9,0.3c0.3-0.2,0.6-0.5,0.7-1c-0.3,0.2-0.7,0.3-1,0.4c-0.3-0.3-0.7-0.5-1.2-0.5
				c-0.9,0-1.6,0.8-1.6,1.7c0,0.1,0,0.3,0,0.4c-1.3-0.1-2.5-0.8-3.3-1.8c-0.1,0.3-0.2,0.5-0.2,0.9c0,0.6,0.3,1.1,0.7,1.4
				c-0.3,0-0.5-0.1-0.7-0.2c0,0,0,0,0,0c0,0.8,0.6,1.5,1.3,1.7c-0.1,0-0.3,0.1-0.4,0.1c-0.1,0-0.2,0-0.3,0c0.2,0.7,0.8,1.2,1.5,1.2
				c-0.5,0.5-1.2,0.7-2,0.7c-0.1,0-0.3,0-0.4,0c0.7,0.5,1.5,0.8,2.5,0.8c2.9,0,4.5-2.6,4.5-4.9c0-0.1,0-0.1,0-0.2
				C17.5,33,17.8,32.7,18,32.4z"/>
		</g>
	</g>
	<circle class="st11" cx="50" cy="35" r="7"/>
	<path class="st2" d="M50,31.3c-2,0-3.7,1.7-3.7,3.7c0,1.5,0.9,2.8,2.2,3.4c0-0.3,0-0.6,0.1-0.9c0.1-0.3,0.5-2,0.5-2
		s-0.1-0.2-0.1-0.6c0-0.5,0.3-1,0.7-1c0.3,0,0.5,0.3,0.5,0.6c0,0.3-0.2,0.8-0.3,1.3c-0.1,0.4,0.2,0.7,0.6,0.7c0.7,0,1.2-0.9,1.2-2
		c0-0.8-0.5-1.4-1.5-1.4c-1.1,0-1.8,0.8-1.8,1.8c0,0.3,0.1,0.6,0.2,0.7c0.1,0.1,0.1,0.1,0.1,0.2c0,0.1-0.1,0.2-0.1,0.3
		c0,0.1-0.1,0.1-0.2,0.1c-0.5-0.2-0.8-0.8-0.8-1.4c0-1.1,0.9-2.3,2.6-2.3c1.4,0,2.3,1,2.3,2.1c0,1.5-0.8,2.5-2,2.5
		c-0.4,0-0.8-0.2-0.9-0.5c0,0-0.2,0.9-0.3,1c-0.1,0.3-0.2,0.6-0.4,0.8c0.3,0.1,0.7,0.2,1,0.2c2,0,3.7-1.7,3.7-3.7
		C53.7,33,52,31.3,50,31.3z"/>
</g>
</svg>
