<?xml version="1.0" encoding="utf-8"?>
<!-- Generator: Adobe Illustrator 21.0.0, SVG Export Plug-In . SVG Version: 6.00 Build 0)  -->
<svg version="1.1" xmlns="http://www.w3.org/2000/svg" xmlns:xlink="http://www.w3.org/1999/xlink" x="0px" y="0px"
	 viewBox="0 0 64 60" style="enable-background:new 0 0 64 60;" xml:space="preserve">
<style type="text/css">
	.st0{fill:#CAD1D8;}
	.st1{fill:#FFFFFF;}
	.st2{fill:#595A66;}
	.st3{fill:#9BA7AF;}
	.st4{fill:#E2E5E7;}
	.st5{fill:#ABE1FA;}
	.st6{fill:#FDBA4D;}
	.st7{fill:#F19F35;}
	.st8{fill:#3BB54A;}
	.st9{fill:#0E9347;}
	.st10{fill:#E6E7E8;}
	.st11{fill:#BCBEC0;}
	.st12{fill:#D1D3D4;}
	.st13{fill:#A7A9AC;}
	.st14{fill:#DCDDDE;}
	.st15{fill:#B1B3B6;}
	.st16{fill:#C7C8CA;}
	.st17{fill:#9D9FA2;}
	.st18{fill:#3689C9;}
	.st19{fill:#EE2C39;}
	.st20{fill:#FFFFFF;stroke:#595A66;stroke-width:2;stroke-miterlimit:10;}
	.st21{fill:#F19F36;}
	.st22{fill:#D4D5D6;}
	.st23{fill:#35363E;}
	.st24{fill:#CC202C;}
	.st25{fill:#1A70AC;}
	.st26{fill:#BD6428;}
	.st27{fill:#A35723;}
	.st28{fill:#A35623;}
	.st29{fill:#DDDFE1;}
	.st30{fill:#1B6FAB;}
	.st31{fill:#165D91;}
	.st32{fill:#699DC4;}
	.st33{fill:#6F707E;}
	.st34{fill:#4C9FD7;}
	.st35{fill:#748B9E;}
	.st36{fill:#78B6E4;}
</style>
<g id="Layer_62">
</g>
<g id="Layer_60">
</g>
<g id="Layer_59">
</g>
<g id="Layer_58">
</g>
<g id="Layer_57">
</g>
<g id="Layer_56">
</g>
<g id="Layer_55">
</g>
<g id="Layer_54">
</g>
<g id="Layer_53">
</g>
<g id="Layer_52">
</g>
<g id="Layer_51">
</g>
<g id="Layer_50">
</g>
<g id="Layer_49">
</g>
<g id="Layer_48">
</g>
<g id="Layer_47">
</g>
<g id="Layer_46">
</g>
<g id="Layer_45">
</g>
<g id="Layer_44">
</g>
<g id="Layer_43">
</g>
<g id="Layer_42">
</g>
<g id="Layer_41">
</g>
<g id="Layer_40">
</g>
<g id="Layer_39">
</g>
<g id="Layer_38">
</g>
<g id="Layer_37">
</g>
<g id="Layer_36">
</g>
<g id="Layer_35">
</g>
<g id="Layer_34">
</g>
<g id="Layer_33">
</g>
<g id="Layer_32">
</g>
<g id="Layer_31">
</g>
<g id="Layer_30">
</g>
<g id="Layer_29">
</g>
<g id="Layer_28">
</g>
<g id="Layer_27">
</g>
<g id="Layer_26">
</g>
<g id="Layer_25">
</g>
<g id="Layer_24">
</g>
<g id="Layer_23">
</g>
<g id="Layer_22">
	<g>
		<path class="st0" d="M0,57V3c0-1.7,1.3-3,3-3h58c1.7,0,3,1.3,3,3v54c0,1.7-1.3,3-3,3H3C1.3,60,0,58.7,0,57z"/>
		<circle class="st3" cx="3" cy="4" r="1"/>
		<circle class="st3" cx="7" cy="4" r="1"/>
		<circle class="st3" cx="11" cy="4" r="1"/>
		<path class="st1" d="M3,8h58c0.6,0,1,0.4,1,1v48c0,0.6-0.4,1-1,1H3c-0.6,0-1-0.4-1-1V9C2,8.4,2.4,8,3,8z"/>
		<path class="st4" d="M61,5H15c-0.6,0-1-0.4-1-1v0c0-0.6,0.4-1,1-1h46c0.6,0,1,0.4,1,1v0C62,4.6,61.6,5,61,5z"/>
		<path class="st0" d="M57,15H29c-0.6,0-1-0.4-1-1v0c0-0.6,0.4-1,1-1h28c0.6,0,1,0.4,1,1v0C58,14.6,57.6,15,57,15z"/>
		<path class="st0" d="M51,23H29c-0.6,0-1-0.4-1-1v0c0-0.6,0.4-1,1-1h22c0.6,0,1,0.4,1,1v0C52,22.6,51.6,23,51,23z"/>
		<path class="st0" d="M46,19H29c-0.6,0-1-0.4-1-1v0c0-0.6,0.4-1,1-1h17c0.6,0,1,0.4,1,1v0C47,18.6,46.6,19,46,19z"/>
		<g>
			<path class="st4" d="M36,32h-6c-1.1,0-2-0.9-2-2v0c0-1.1,0.9-2,2-2h6c1.1,0,2,0.9,2,2v0C38,31.1,37.1,32,36,32z"/>
			<path class="st8" d="M36,31h-6c-1.1,0-2-0.9-2-2v0c0-1.1,0.9-2,2-2h6c1.1,0,2,0.9,2,2v0C38,30.1,37.1,31,36,31z"/>
			<circle class="st9" cx="33" cy="29" r="1"/>
		</g>
		<g>
			<g>
				<g>
					<path class="st26" d="M7,30.5c-0.3,0-0.5-0.2-0.5-0.5V14c0-0.3,0.2-0.5,0.5-0.5h18c0.3,0,0.5,0.2,0.5,0.5v16
						c0,0.3-0.2,0.5-0.5,0.5H7z"/>
				</g>
				<path class="st27" d="M25,13H7c-0.6,0-1,0.4-1,1v16c0,0.6,0.4,1,1,1h18c0.6,0,1-0.4,1-1V14C26,13.4,25.6,13,25,13z M25,30H7V14
					h18V30z"/>
			</g>
		</g>
		<g>
			<g>
				<circle class="st28" cx="14" cy="27" r="1"/>
			</g>
			<g>
				<circle class="st28" cx="18" cy="27" r="1"/>
			</g>
			<path class="st28" d="M21,18h-2c-0.6,0-1,0.4-1,1v1h-5c-0.5,0-1,0.5-1,1l0,3c0,0.5,0.5,1,1,1h6c0.5,0,1-0.5,1-1v-4h1
				c0.6,0,1-0.4,1-1C22,18.4,21.6,18,21,18z"/>
		</g>
		<g>
			<g>
				<circle class="st1" cx="14" cy="26" r="1"/>
			</g>
			<g>
				<circle class="st1" cx="18" cy="26" r="1"/>
			</g>
			<path class="st1" d="M21,17h-2c-0.6,0-1,0.4-1,1v1h-5c-0.5,0-1,0.5-1,1l0,3c0,0.5,0.5,1,1,1h6c0.5,0,1-0.5,1-1v-4h1
				c0.6,0,1-0.4,1-1C22,17.4,21.6,17,21,17z"/>
		</g>
		<path class="st0" d="M57,37H29c-0.6,0-1-0.4-1-1v0c0-0.6,0.4-1,1-1h28c0.6,0,1,0.4,1,1v0C58,36.6,57.6,37,57,37z"/>
		<path class="st0" d="M51,45H29c-0.6,0-1-0.4-1-1l0,0c0-0.6,0.4-1,1-1h22c0.6,0,1,0.4,1,1l0,0C52,44.6,51.6,45,51,45z"/>
		<path class="st0" d="M46,41H29c-0.6,0-1-0.4-1-1v0c0-0.6,0.4-1,1-1h17c0.6,0,1,0.4,1,1v0C47,40.6,46.6,41,46,41z"/>
		<g>
			<path class="st4" d="M36,54h-6c-1.1,0-2-0.9-2-2v0c0-1.1,0.9-2,2-2h6c1.1,0,2,0.9,2,2v0C38,53.1,37.1,54,36,54z"/>
			<path class="st8" d="M36,53h-6c-1.1,0-2-0.9-2-2v0c0-1.1,0.9-2,2-2h6c1.1,0,2,0.9,2,2v0C38,52.1,37.1,53,36,53z"/>
			<circle class="st9" cx="33" cy="51" r="1"/>
		</g>
		<g>
			<g>
				<g>
					<path class="st26" d="M7,52.5c-0.3,0-0.5-0.2-0.5-0.5V36c0-0.3,0.2-0.5,0.5-0.5h18c0.3,0,0.5,0.2,0.5,0.5v16
						c0,0.3-0.2,0.5-0.5,0.5H7z"/>
				</g>
				<path class="st27" d="M25,35H7c-0.6,0-1,0.4-1,1v16c0,0.6,0.4,1,1,1h18c0.6,0,1-0.4,1-1V36C26,35.4,25.6,35,25,35z M25,52H7V36
					h18V52z"/>
			</g>
		</g>
		<g>
			<g>
				<circle class="st28" cx="14" cy="49" r="1"/>
			</g>
			<g>
				<circle class="st28" cx="18" cy="49" r="1"/>
			</g>
			<path class="st28" d="M21,40h-2c-0.6,0-1,0.4-1,1v1h-5c-0.5,0-1,0.5-1,1l0,3c0,0.5,0.5,1,1,1h6c0.5,0,1-0.5,1-1v-4h1
				c0.6,0,1-0.4,1-1S21.6,40,21,40z"/>
		</g>
		<g>
			<g>
				<circle class="st1" cx="14" cy="48" r="1"/>
			</g>
			<g>
				<circle class="st1" cx="18" cy="48" r="1"/>
			</g>
			<path class="st1" d="M21,39h-2c-0.6,0-1,0.4-1,1v1h-5c-0.5,0-1,0.5-1,1l0,3c0,0.5,0.5,1,1,1h6c0.5,0,1-0.5,1-1v-4h1
				c0.6,0,1-0.4,1-1S21.6,39,21,39z"/>
		</g>
		<g>
			<path class="st29" d="M21,40c-0.6,0-1,0.4-1,1h1c0.6,0,1-0.4,1-1H21z"/>
			<path class="st29" d="M19,43v2h-7c0,0.6,0.4,1,1,1h6c0.6,0,1-0.4,1-1v-2v-1C19.4,42,19,42.4,19,43z"/>
		</g>
		<g>
			<path class="st29" d="M21,18c-0.6,0-1,0.4-1,1h1c0.6,0,1-0.4,1-1H21z"/>
			<path class="st29" d="M19,21v2h-7c0,0.6,0.4,1,1,1h6c0.6,0,1-0.4,1-1v-2v-1C19.4,20,19,20.4,19,21z"/>
		</g>
	</g>
</g>
<g id="Layer_21">
</g>
<g id="Layer_20">
</g>
<g id="Layer_19">
</g>
<g id="Layer_18">
</g>
<g id="Layer_17">
</g>
<g id="Layer_16">
</g>
<g id="Layer_15">
</g>
<g id="Layer_14">
</g>
<g id="Layer_13">
</g>
<g id="Layer_12">
</g>
<g id="Layer_11">
</g>
<g id="Layer_10">
</g>
<g id="Layer_9">
</g>
<g id="Layer_8">
</g>
<g id="Layer_7">
</g>
<g id="Layer_6">
</g>
<g id="Layer_5">
</g>
<g id="Layer_4">
</g>
<g id="Layer_3">
</g>
<g id="Layer_2">
</g>
</svg>
