<?xml version="1.0" encoding="utf-8"?>
<!-- Generator: Adobe Illustrator 21.0.0, SVG Export Plug-In . SVG Version: 6.00 Build 0)  -->
<svg version="1.1" id="Layer_1" xmlns="http://www.w3.org/2000/svg" xmlns:xlink="http://www.w3.org/1999/xlink" x="0px" y="0px"
	 viewBox="0 0 64 60" style="enable-background:new 0 0 64 60;" xml:space="preserve">
<style type="text/css">
	.st0{fill:#CAD1D8;}
	.st1{fill:#9BA7AF;}
	.st2{fill:#FFFFFF;}
	.st3{fill:#E2E5E7;}
	.st4{fill:#595A66;}
	.st5{fill:#ABE1FA;}
	.st6{fill:#6F707E;}
	.st7{fill:#3BB54A;}
	.st8{fill:#0E9347;}
	.st9{fill:#517CBE;}
	.st10{fill:#65CCEF;}
	.st11{fill:#EE2C39;}
	.st12{fill:#CC202C;}
	.st13{fill:#F16351;}
	.st14{fill:#DDDFE1;}
	.st15{fill:#89C763;}
	.st16{fill:#3689C9;}
	.st17{fill:#1B6FAB;}
	.st18{fill:#4C9FD7;}
	.st19{fill:#FDBA4D;}
	.st20{fill:#F19F36;}
	.st21{fill:#F19F35;}
	.st22{fill:#FFFFFF;stroke:#595A66;stroke-width:2;stroke-miterlimit:10;}
	.st23{fill:#1A70AC;}
	.st24{fill:#35363E;}
</style>
<g>
	<path class="st0" d="M0,57V3c0-1.7,1.3-3,3-3h58c1.7,0,3,1.3,3,3v54c0,1.7-1.3,3-3,3H3C1.3,60,0,58.7,0,57z"/>
	<circle class="st1" cx="3" cy="4" r="1"/>
	<circle class="st1" cx="7" cy="4" r="1"/>
	<circle class="st1" cx="11" cy="4" r="1"/>
	<path class="st2" d="M3,8h58c0.6,0,1,0.4,1,1v48c0,0.6-0.4,1-1,1H3c-0.6,0-1-0.4-1-1V9C2,8.4,2.4,8,3,8z"/>
	<path class="st3" d="M61,5H15c-0.6,0-1-0.4-1-1v0c0-0.6,0.4-1,1-1h46c0.6,0,1,0.4,1,1v0C62,4.6,61.6,5,61,5z"/>
	<path class="st3" d="M58,52H23c-0.6,0-1-0.4-1-1V15c0-0.6,0.4-1,1-1h35c0.6,0,1,0.4,1,1v36C59,51.6,58.6,52,58,52z"/>
	<path class="st4" d="M54,20H27c-0.6,0-1-0.4-1-1v0c0-0.6,0.4-1,1-1h27c0.6,0,1,0.4,1,1v0C55,19.6,54.6,20,54,20z"/>
	<circle class="st22" cx="47" cy="19" r="2"/>
	<path class="st4" d="M54,34H27c-0.6,0-1-0.4-1-1l0,0c0-0.6,0.4-1,1-1h27c0.6,0,1,0.4,1,1l0,0C55,33.6,54.6,34,54,34z"/>
	<path class="st4" d="M54,27H27c-0.6,0-1-0.4-1-1v0c0-0.6,0.4-1,1-1h27c0.6,0,1,0.4,1,1v0C55,26.6,54.6,27,54,27z"/>
	<path class="st4" d="M54,41H27c-0.6,0-1-0.4-1-1l0,0c0-0.6,0.4-1,1-1h27c0.6,0,1,0.4,1,1l0,0C55,40.6,54.6,41,54,41z"/>
	<path class="st4" d="M54,48H27c-0.6,0-1-0.4-1-1l0,0c0-0.6,0.4-1,1-1h27c0.6,0,1,0.4,1,1l0,0C55,47.6,54.6,48,54,48z"/>
	<g>
		<g>
			<g>
				<path class="st16" d="M6,25.5c-0.3,0-0.5-0.2-0.5-0.5V15c0-0.3,0.2-0.5,0.5-0.5h12c0.3,0,0.5,0.2,0.5,0.5v10
					c0,0.3-0.2,0.5-0.5,0.5H6z"/>
			</g>
			<path class="st23" d="M18,14H6c-0.6,0-1,0.4-1,1v10c0,0.6,0.4,1,1,1h12c0.6,0,1-0.4,1-1V15C19,14.4,18.6,14,18,14z M18,25H6V15
				h12V25z"/>
		</g>
		<g>
			<path class="st23" d="M13.7,20.6l-3-1.5c-0.2-0.1-0.3-0.1-0.5,0c-0.1,0.1-0.2,0.3-0.2,0.4v3c0,0.2,0.1,0.3,0.2,0.4
				c0.1,0,0.2,0.1,0.3,0.1c0.1,0,0.2,0,0.2-0.1l3-1.5c0.2-0.1,0.3-0.3,0.3-0.4S13.9,20.6,13.7,20.6z"/>
		</g>
		<g>
			<path class="st2" d="M13.7,19.6l-3-1.5c-0.2-0.1-0.3-0.1-0.5,0c-0.1,0.1-0.2,0.3-0.2,0.4v3c0,0.2,0.1,0.3,0.2,0.4
				c0.1,0,0.2,0.1,0.3,0.1c0.1,0,0.2,0,0.2-0.1l3-1.5c0.2-0.1,0.3-0.3,0.3-0.4S13.9,19.6,13.7,19.6z"/>
		</g>
	</g>
	<path class="st0" d="M5,30L5,30c0-0.6,0.4-1,1-1l10,0c0.6,0,1,0.4,1,1v0c0,0.6-0.4,1-1,1L6,31C5.4,31,5,30.6,5,30z"/>
	<path class="st0" d="M5,34L5,34c0-0.6,0.4-1,1-1h7c0.6,0,1,0.4,1,1v0c0,0.6-0.4,1-1,1H6C5.4,35,5,34.6,5,34z"/>
</g>
</svg>
