<?xml version="1.0" encoding="utf-8"?>
<!-- Generator: Adobe Illustrator 21.0.0, SVG Export Plug-In . SVG Version: 6.00 Build 0)  -->
<svg version="1.1" id="Layer_1" xmlns="http://www.w3.org/2000/svg" xmlns:xlink="http://www.w3.org/1999/xlink" x="0px" y="0px"
	 viewBox="0 0 64 60" style="enable-background:new 0 0 64 60;" xml:space="preserve">
<style type="text/css">
	.st0{fill:#CAD1D8;}
	.st1{fill:#9BA7AF;}
	.st2{fill:#FFFFFF;}
	.st3{fill:#E2E5E7;}
	.st4{fill:#595A66;}
	.st5{fill:#ABE1FA;}
	.st6{fill:#6F707E;}
	.st7{fill:#3BB54A;}
	.st8{fill:#0E9347;}
	.st9{fill:#517CBE;}
	.st10{fill:#65CCEF;}
	.st11{fill:#EE2C39;}
	.st12{fill:#CC202C;}
	.st13{fill:#F16351;}
	.st14{fill:#DDDFE1;}
	.st15{fill:#89C763;}
	.st16{fill:#3689C9;}
	.st17{fill:#1B6FAB;}
	.st18{fill:#4C9FD7;}
	.st19{fill:#FDBA4D;}
	.st20{fill:#F19F36;}
	.st21{fill:#F19F35;}
	.st22{fill:#FFFFFF;stroke:#595A66;stroke-width:2;stroke-miterlimit:10;}
	.st23{fill:#1A70AC;}
	.st24{fill:#35363E;}
</style>
<g>
	<path class="st0" d="M0,57V3c0-1.7,1.3-3,3-3h58c1.7,0,3,1.3,3,3v54c0,1.7-1.3,3-3,3H3C1.3,60,0,58.7,0,57z"/>
	<circle class="st1" cx="3" cy="4" r="1"/>
	<circle class="st1" cx="7" cy="4" r="1"/>
	<circle class="st1" cx="11" cy="4" r="1"/>
	<path class="st2" d="M3,8h58c0.6,0,1,0.4,1,1v48c0,0.6-0.4,1-1,1H3c-0.6,0-1-0.4-1-1V9C2,8.4,2.4,8,3,8z"/>
	<path class="st3" d="M61,5H15c-0.6,0-1-0.4-1-1v0c0-0.6,0.4-1,1-1h46c0.6,0,1,0.4,1,1v0C62,4.6,61.6,5,61,5z"/>
	<g>
		<path class="st5" d="M58,24H6c-0.6,0-1-0.4-1-1V13c0-0.6,0.4-1,1-1h52c0.6,0,1,0.4,1,1v10C59,23.6,58.6,24,58,24z"/>
		<circle class="st21" cx="11" cy="16" r="2"/>
		<path class="st4" d="M59,23v-2.8l-4.5-4.5c-0.3-0.3-0.9-0.3-1.3,0L44.9,24H58C58.6,24,59,23.6,59,23z"/>
		<path class="st4" d="M44.2,17.6L38,24h13.1l-5.6-6.4C45.2,17.2,44.6,17.2,44.2,17.6z"/>
		<path class="st24" d="M50.4,21.1c-0.6-0.6-1.4-0.8-2.2-0.4l2.9,3.3h1.8L50.4,21.1z"/>
		<path class="st4" d="M37.3,17.6L31.1,24h13.1l-5.6-6.4C38.3,17.2,37.6,17.2,37.3,17.6z"/>
		<path class="st24" d="M43.5,21.1c-0.6-0.6-1.4-0.8-2.2-0.4l2.9,3.3H46L43.5,21.1z"/>
		<path class="st6" d="M51.7,18.9L51.7,18.9c0.2,0.2,0.5,0.2,0.7,0l1.4-1.4c0.2-0.2,0.2-0.5,0-0.7l0,0c-0.2-0.2-0.5-0.2-0.7,0
			l-1.4,1.4C51.5,18.3,51.5,18.7,51.7,18.9z"/>
		<path class="st24" d="M59,20.2l-0.7-0.7c-0.2-0.2-0.6-0.2-0.9,0c-0.2,0.2-0.2,0.6,0,0.9l0.5,0.5c0.5,0.5,0.9,1.1,1.1,1.8V20.2z"/>
		<path class="st4" d="M40,24l-7.4-8.3c-0.3-0.3-0.9-0.3-1.3,0L23,24H40z"/>
		<path class="st4" d="M23.2,17.6L17,24h13.1l-5.6-6.4C24.2,17.2,23.6,17.2,23.2,17.6z"/>
		<path class="st24" d="M29.4,21.1c-0.6-0.6-1.4-0.8-2.2-0.4l2.9,3.3h1.8L29.4,21.1z"/>
		<path class="st24" d="M37.9,19.6c-0.6-0.6-1.4-0.8-2.2-0.4L40,24h1.8L37.9,19.6z"/>
		<path class="st6" d="M30.1,18.9L30.1,18.9c0.2,0.2,0.5,0.2,0.7,0l1.4-1.4c0.2-0.2,0.2-0.5,0-0.7l0,0c-0.2-0.2-0.5-0.2-0.7,0
			l-1.4,1.4C30,18.3,30,18.7,30.1,18.9z"/>
		<path class="st6" d="M21.7,20.9L21.7,20.9c0.2,0.2,0.5,0.2,0.7,0l1.4-1.4c0.2-0.2,0.2-0.5,0-0.7l0,0c-0.2-0.2-0.5-0.2-0.7,0
			l-1.4,1.4C21.5,20.3,21.5,20.7,21.7,20.9z"/>
	</g>
	<path class="st0" d="M23,42H6c-0.6,0-1-0.4-1-1l0,0c0-0.6,0.4-1,1-1h17c0.6,0,1,0.4,1,1l0,0C24,41.6,23.6,42,23,42z"/>
	<path class="st0" d="M23,34H6c-0.6,0-1-0.4-1-1l0,0c0-0.6,0.4-1,1-1h17c0.6,0,1,0.4,1,1l0,0C24,33.6,23.6,34,23,34z"/>
	<path class="st0" d="M20,38H6c-0.6,0-1-0.4-1-1l0,0c0-0.6,0.4-1,1-1h14c0.6,0,1,0.4,1,1l0,0C21,37.6,20.6,38,20,38z"/>
	<path class="st0" d="M55,42H36c-0.6,0-1-0.4-1-1l0,0c0-0.6,0.4-1,1-1h19c0.6,0,1,0.4,1,1l0,0C56,41.6,55.6,42,55,42z"/>
	<path class="st0" d="M58,34H36c-0.6,0-1-0.4-1-1l0,0c0-0.6,0.4-1,1-1h22c0.6,0,1,0.4,1,1l0,0C59,33.6,58.6,34,58,34z"/>
	<path class="st0" d="M51,38H36c-0.6,0-1-0.4-1-1l0,0c0-0.6,0.4-1,1-1h15c0.6,0,1,0.4,1,1l0,0C52,37.6,51.6,38,51,38z"/>
	<path class="st0" d="M17,46H6c-0.6,0-1-0.4-1-1l0,0c0-0.6,0.4-1,1-1h11c0.6,0,1,0.4,1,1l0,0C18,45.6,17.6,46,17,46z"/>
	<path class="st0" d="M51,46H36c-0.6,0-1-0.4-1-1v0c0-0.6,0.4-1,1-1h15c0.6,0,1,0.4,1,1v0C52,45.6,51.6,46,51,46z"/>
	<path class="st3" d="M13,54H7c-1.1,0-2-0.9-2-2v0c0-1.1,0.9-2,2-2h6c1.1,0,2,0.9,2,2v0C15,53.1,14.1,54,13,54z"/>
	<path class="st7" d="M13,53H7c-1.1,0-2-0.9-2-2v0c0-1.1,0.9-2,2-2h6c1.1,0,2,0.9,2,2v0C15,52.1,14.1,53,13,53z"/>
	<circle class="st8" cx="10" cy="51" r="1"/>
	<path class="st3" d="M43,54h-6c-1.1,0-2-0.9-2-2v0c0-1.1,0.9-2,2-2h6c1.1,0,2,0.9,2,2v0C45,53.1,44.1,54,43,54z"/>
	<path class="st7" d="M43,53h-6c-1.1,0-2-0.9-2-2v0c0-1.1,0.9-2,2-2h6c1.1,0,2,0.9,2,2v0C45,52.1,44.1,53,43,53z"/>
	<circle class="st8" cx="40" cy="51" r="1"/>
	<path class="st4" d="M5,29L5,29c0-0.6,0.4-1,1-1h10c0.6,0,1,0.4,1,1v0c0,0.6-0.4,1-1,1H6C5.4,30,5,29.6,5,29z"/>
	<path class="st4" d="M35,29L35,29c0-0.6,0.4-1,1-1h10c0.6,0,1,0.4,1,1v0c0,0.6-0.4,1-1,1H36C35.4,30,35,29.6,35,29z"/>
</g>
</svg>
