<?xml version="1.0" encoding="utf-8"?>
<!-- Generator: Adobe Illustrator 21.0.0, SVG Export Plug-In . SVG Version: 6.00 Build 0)  -->
<svg version="1.1" xmlns="http://www.w3.org/2000/svg" xmlns:xlink="http://www.w3.org/1999/xlink" x="0px" y="0px"
	 viewBox="0 0 64 60" style="enable-background:new 0 0 64 60;" xml:space="preserve">
<style type="text/css">
	.st0{fill:#CAD1D8;}
	.st1{fill:#FFFFFF;}
	.st2{fill:#595A66;}
	.st3{fill:#9BA7AF;}
	.st4{fill:#E2E5E7;}
	.st5{fill:#ABE1FA;}
	.st6{fill:#FDBA4D;}
	.st7{fill:#F19F35;}
	.st8{fill:#3BB54A;}
	.st9{fill:#0E9347;}
	.st10{fill:#E6E7E8;}
	.st11{fill:#BCBEC0;}
	.st12{fill:#D1D3D4;}
	.st13{fill:#A7A9AC;}
	.st14{fill:#DCDDDE;}
	.st15{fill:#B1B3B6;}
	.st16{fill:#C7C8CA;}
	.st17{fill:#9D9FA2;}
	.st18{fill:#3689C9;}
	.st19{fill:#EE2C39;}
	.st20{fill:#FFFFFF;stroke:#595A66;stroke-width:2;stroke-miterlimit:10;}
	.st21{fill:#F19F36;}
	.st22{fill:#D4D5D6;}
	.st23{fill:#35363E;}
	.st24{fill:#CC202C;}
	.st25{fill:#1A70AC;}
	.st26{fill:#BD6428;}
	.st27{fill:#A35723;}
	.st28{fill:#A35623;}
	.st29{fill:#DDDFE1;}
	.st30{fill:#1B6FAB;}
	.st31{fill:#165D91;}
	.st32{fill:#699DC4;}
	.st33{fill:#6F707E;}
	.st34{fill:#4C9FD7;}
	.st35{fill:#748B9E;}
	.st36{fill:#78B6E4;}
</style>
<g id="Layer_62">
</g>
<g id="Layer_60">
</g>
<g id="Layer_59">
	<g>
		<path class="st0" d="M61,0H3C1.3,0,0,1.3,0,3v3v51c0,1.7,1.3,3,3,3h58c1.7,0,3-1.3,3-3V6V3C64,1.3,62.7,0,61,0z"/>
		<circle class="st3" cx="7" cy="4" r="1"/>
		<circle class="st3" cx="11" cy="4" r="1"/>
		<path class="st1" d="M3,8h58c0.6,0,1,0.4,1,1v48c0,0.6-0.4,1-1,1H3c-0.6,0-1-0.4-1-1V9C2,8.4,2.4,8,3,8z"/>
		<path class="st4" d="M61,5H15c-0.6,0-1-0.4-1-1v0c0-0.6,0.4-1,1-1h46c0.6,0,1,0.4,1,1v0C62,4.6,61.6,5,61,5z"/>
		<circle class="st3" cx="3" cy="4" r="1"/>
		<g>
			<path class="st7" d="M33.6,34c-0.1,0-0.2,0-0.2-0.1L32,33.2l-1.3,0.7c-0.2,0.1-0.4,0.1-0.5,0c-0.2-0.1-0.2-0.3-0.2-0.5l0.3-1.5
				l-1.1-1.1C29,30.6,29,30.4,29,30.3c0.1-0.2,0.2-0.3,0.4-0.3l1.5-0.2l0.7-1.4c0.1-0.2,0.3-0.3,0.4-0.3c0.2,0,0.4,0.1,0.4,0.3
				l0.7,1.4l1.5,0.2c0.2,0,0.3,0.2,0.4,0.3c0.1,0.2,0,0.4-0.1,0.5l-1.1,1.1l0.3,1.5c0,0.2,0,0.4-0.2,0.5C33.8,34,33.7,34,33.6,34z"
				/>
		</g>
		<g>
			<path class="st0" d="M51.7,34c-0.1,0-0.2,0-0.2-0.1l-1.3-0.7l-1.3,0.7c-0.2,0.1-0.4,0.1-0.5,0c-0.2-0.1-0.2-0.3-0.2-0.5l0.3-1.5
				l-1.1-1.1c-0.1-0.1-0.2-0.3-0.1-0.5c0.1-0.2,0.2-0.3,0.4-0.3l1.5-0.2l0.7-1.4c0.1-0.2,0.3-0.3,0.4-0.3c0.2,0,0.4,0.1,0.4,0.3
				l0.7,1.4l1.5,0.2c0.2,0,0.3,0.2,0.4,0.3c0.1,0.2,0,0.4-0.1,0.5l-1.1,1.1l0.3,1.5c0,0.2,0,0.4-0.2,0.5C51.9,34,51.8,34,51.7,34z"
				/>
		</g>
		<g>
			<path class="st7" d="M15.7,34c-0.1,0-0.2,0-0.2-0.1l-1.3-0.7l-1.3,0.7c-0.2,0.1-0.4,0.1-0.5,0c-0.2-0.1-0.2-0.3-0.2-0.5l0.3-1.5
				l-1.1-1.1c-0.1-0.1-0.2-0.3-0.1-0.5c0.1-0.2,0.2-0.3,0.4-0.3l1.5-0.2l0.7-1.4c0.1-0.2,0.3-0.3,0.4-0.3c0.2,0,0.4,0.1,0.4,0.3
				l0.7,1.4l1.5,0.2c0.2,0,0.3,0.2,0.4,0.3c0.1,0.2,0,0.4-0.1,0.5l-1.1,1.1l0.3,1.5c0,0.2,0,0.4-0.2,0.5C15.9,34,15.8,34,15.7,34z"
				/>
		</g>
		<g>
			<path class="st7" d="M24.6,34c-0.1,0-0.2,0-0.2-0.1L23,33.2l-1.3,0.7c-0.2,0.1-0.4,0.1-0.5,0c-0.2-0.1-0.2-0.3-0.2-0.5l0.3-1.5
				l-1.1-1.1C20,30.6,20,30.4,20,30.3c0.1-0.2,0.2-0.3,0.4-0.3l1.5-0.2l0.7-1.4c0.1-0.2,0.3-0.3,0.4-0.3c0.2,0,0.4,0.1,0.4,0.3
				l0.7,1.4l1.5,0.2c0.2,0,0.3,0.2,0.4,0.3c0.1,0.2,0,0.4-0.1,0.5l-1.1,1.1l0.3,1.5c0,0.2,0,0.4-0.2,0.5C24.8,34,24.7,34,24.6,34z"
				/>
		</g>
		<path class="st0" d="M43.7,29.9l-1.5-0.2l-0.7-1.4c-0.1-0.2-0.3-0.3-0.4-0.3c0,0-0.1,0-0.1,0v5.2l0.1-0.1l1.3,0.7
			c0.1,0,0.1,0.1,0.2,0.1c0.1,0,0.2,0,0.3-0.1c0.2-0.1,0.2-0.3,0.2-0.5l-0.3-1.5l1.1-1.1c0.1-0.1,0.2-0.3,0.1-0.5
			C44,30.1,43.9,29.9,43.7,29.9z"/>
		<path class="st7" d="M41,28c-0.1,0-0.3,0.1-0.3,0.3L40,29.7l-1.5,0.2c-0.2,0-0.3,0.2-0.4,0.3c-0.1,0.2,0,0.4,0.1,0.5l1.1,1.1
			l-0.3,1.5c0,0.2,0,0.4,0.2,0.5c0.2,0.1,0.4,0.1,0.5,0l1.2-0.7V28z"/>
		<g>
			<path class="st4" d="M39,50H25c-1.7,0-3-1.3-3-3v0c0-1.7,1.3-3,3-3h14c1.7,0,3,1.3,3,3v0C42,48.7,40.7,50,39,50z"/>
			<path class="st8" d="M39,49H25c-1.7,0-3-1.3-3-3v0c0-1.7,1.3-3,3-3h14c1.7,0,3,1.3,3,3v0C42,47.7,40.7,49,39,49z"/>
			<circle class="st9" cx="32" cy="46" r="1"/>
			<circle class="st9" cx="36" cy="46" r="1"/>
			<circle class="st9" cx="28" cy="46" r="1"/>
		</g>
		<path class="st2" d="M45,18H19c-0.6,0-1-0.4-1-1v0c0-0.6,0.4-1,1-1h26c0.6,0,1,0.4,1,1v0C46,17.6,45.6,18,45,18z"/>
		<path class="st2" d="M40,22H24c-0.6,0-1-0.4-1-1v0c0-0.6,0.4-1,1-1h16c0.6,0,1,0.4,1,1v0C41,21.6,40.6,22,40,22z"/>
	</g>
</g>
<g id="Layer_58">
</g>
<g id="Layer_57">
</g>
<g id="Layer_56">
</g>
<g id="Layer_55">
</g>
<g id="Layer_54">
</g>
<g id="Layer_53">
</g>
<g id="Layer_52">
</g>
<g id="Layer_51">
</g>
<g id="Layer_50">
</g>
<g id="Layer_49">
</g>
<g id="Layer_48">
</g>
<g id="Layer_47">
</g>
<g id="Layer_46">
</g>
<g id="Layer_45">
</g>
<g id="Layer_44">
</g>
<g id="Layer_43">
</g>
<g id="Layer_42">
</g>
<g id="Layer_41">
</g>
<g id="Layer_40">
</g>
<g id="Layer_39">
</g>
<g id="Layer_38">
</g>
<g id="Layer_37">
</g>
<g id="Layer_36">
</g>
<g id="Layer_35">
</g>
<g id="Layer_34">
</g>
<g id="Layer_33">
</g>
<g id="Layer_32">
</g>
<g id="Layer_31">
</g>
<g id="Layer_30">
</g>
<g id="Layer_29">
</g>
<g id="Layer_28">
</g>
<g id="Layer_27">
</g>
<g id="Layer_26">
</g>
<g id="Layer_25">
</g>
<g id="Layer_24">
</g>
<g id="Layer_23">
</g>
<g id="Layer_22">
</g>
<g id="Layer_21">
</g>
<g id="Layer_20">
</g>
<g id="Layer_19">
</g>
<g id="Layer_18">
</g>
<g id="Layer_17">
</g>
<g id="Layer_16">
</g>
<g id="Layer_15">
</g>
<g id="Layer_14">
</g>
<g id="Layer_13">
</g>
<g id="Layer_12">
</g>
<g id="Layer_11">
</g>
<g id="Layer_10">
</g>
<g id="Layer_9">
</g>
<g id="Layer_8">
</g>
<g id="Layer_7">
</g>
<g id="Layer_6">
</g>
<g id="Layer_5">
</g>
<g id="Layer_4">
</g>
<g id="Layer_3">
</g>
<g id="Layer_2">
</g>
</svg>
