<?xml version="1.0" encoding="utf-8"?>
<!-- Generator: Adobe Illustrator 21.0.0, SVG Export Plug-In . SVG Version: 6.00 Build 0)  -->
<svg version="1.1" id="Layer_1" xmlns="http://www.w3.org/2000/svg" xmlns:xlink="http://www.w3.org/1999/xlink" x="0px" y="0px"
	 viewBox="0 0 64 60" style="enable-background:new 0 0 64 60;" xml:space="preserve">
<style type="text/css">
	.st0{fill:#CAD1D8;}
	.st1{fill:#9BA7AF;}
	.st2{fill:#FFFFFF;}
	.st3{fill:#E2E5E7;}
	.st4{fill:#595A66;}
	.st5{fill:#ABE1FA;}
	.st6{fill:#6F707E;}
	.st7{fill:#3BB54A;}
	.st8{fill:#0E9347;}
	.st9{fill:#517CBE;}
	.st10{fill:#65CCEF;}
	.st11{fill:#EE2C39;}
	.st12{fill:#CC202C;}
	.st13{fill:#F16351;}
	.st14{fill:#DDDFE1;}
	.st15{fill:#89C763;}
	.st16{fill:#3689C9;}
	.st17{fill:#1B6FAB;}
	.st18{fill:#4C9FD7;}
	.st19{fill:#FDBA4D;}
	.st20{fill:#F19F36;}
	.st21{fill:#F19F35;}
	.st22{fill:#FFFFFF;stroke:#595A66;stroke-width:2;stroke-miterlimit:10;}
	.st23{fill:#1A70AC;}
	.st24{fill:#35363E;}
</style>
<g>
	<path class="st0" d="M0,57V3c0-1.7,1.3-3,3-3h58c1.7,0,3,1.3,3,3v54c0,1.7-1.3,3-3,3H3C1.3,60,0,58.7,0,57z"/>
	<circle class="st1" cx="3" cy="4" r="1"/>
	<circle class="st1" cx="7" cy="4" r="1"/>
	<circle class="st1" cx="11" cy="4" r="1"/>
	<path class="st2" d="M3,8h58c0.6,0,1,0.4,1,1v48c0,0.6-0.4,1-1,1H3c-0.6,0-1-0.4-1-1V9C2,8.4,2.4,8,3,8z"/>
	<path class="st3" d="M61,5H15c-0.6,0-1-0.4-1-1v0c0-0.6,0.4-1,1-1h46c0.6,0,1,0.4,1,1v0C62,4.6,61.6,5,61,5z"/>
	<g>
		<path class="st5" d="M39,26H25c-0.6,0-1-0.4-1-1V15c0-0.6,0.4-1,1-1h14c0.6,0,1,0.4,1,1v10C40,25.6,39.6,26,39,26z"/>
		<circle class="st21" cx="29" cy="17" r="1"/>
		<path class="st4" d="M40,25v-2.8l-4.5-4.5c-0.3-0.3-0.9-0.3-1.3,0L25.9,26H39C39.6,26,40,25.6,40,25z"/>
		<path class="st4" d="M25.2,19.6L24,20.8V25c0,0.6,0.4,1,1,1h7.1l-5.6-6.4C26.2,19.2,25.6,19.2,25.2,19.6z"/>
		<path class="st24" d="M31.4,23.1c-0.6-0.6-1.4-0.8-2.2-0.4l2.9,3.3h1.8L31.4,23.1z"/>
		<path class="st6" d="M32.7,20.9L32.7,20.9c0.2,0.2,0.5,0.2,0.7,0l1.4-1.4c0.2-0.2,0.2-0.5,0-0.7l0,0c-0.2-0.2-0.5-0.2-0.7,0
			l-1.4,1.4C32.5,20.3,32.5,20.7,32.7,20.9z"/>
		<path class="st24" d="M40,22.2l-0.7-0.7c-0.2-0.2-0.6-0.2-0.9,0c-0.2,0.2-0.2,0.6,0,0.9l0.5,0.5c0.5,0.5,0.9,1.1,1.1,1.8V22.2z"/>
		<path class="st6" d="M25.7,20.4c-0.2-0.2-0.5-0.2-0.6,0L24,21.5v0.9c0.2,0.1,0.4,0,0.5-0.1l1.3-1.3C25.9,20.8,25.9,20.6,25.7,20.4
			L25.7,20.4z"/>
	</g>
	<g>
		<path class="st5" d="M20,26H6c-0.6,0-1-0.4-1-1V15c0-0.6,0.4-1,1-1h14c0.6,0,1,0.4,1,1v10C21,25.6,20.6,26,20,26z"/>
		<circle class="st21" cx="10" cy="17" r="1"/>
		<path class="st4" d="M21,25v-2.8l-4.5-4.5c-0.3-0.3-0.9-0.3-1.3,0L6.9,26H20C20.6,26,21,25.6,21,25z"/>
		<path class="st4" d="M6.2,19.6L5,20.8V25c0,0.6,0.4,1,1,1h7.1l-5.6-6.4C7.2,19.2,6.6,19.2,6.2,19.6z"/>
		<path class="st24" d="M12.4,23.1c-0.6-0.6-1.4-0.8-2.2-0.4l2.9,3.3h1.8L12.4,23.1z"/>
		<path class="st6" d="M13.7,20.9L13.7,20.9c0.2,0.2,0.5,0.2,0.7,0l1.4-1.4c0.2-0.2,0.2-0.5,0-0.7h0c-0.2-0.2-0.5-0.2-0.7,0
			l-1.4,1.4C13.5,20.3,13.5,20.7,13.7,20.9z"/>
		<path class="st24" d="M21,22.2l-0.7-0.7c-0.2-0.2-0.6-0.2-0.9,0c-0.2,0.2-0.2,0.6,0,0.9l0.5,0.5c0.5,0.5,0.9,1.1,1.1,1.8V22.2z"/>
		<path class="st6" d="M6.7,20.4c-0.2-0.2-0.5-0.2-0.6,0L5,21.5v0.9c0.2,0.1,0.4,0,0.5-0.1L6.7,21C6.9,20.8,6.9,20.6,6.7,20.4
			L6.7,20.4z"/>
	</g>
	<g>
		<path class="st5" d="M58,26H44c-0.6,0-1-0.4-1-1V15c0-0.6,0.4-1,1-1h14c0.6,0,1,0.4,1,1v10C59,25.6,58.6,26,58,26z"/>
		<circle class="st21" cx="48" cy="17" r="1"/>
		<path class="st4" d="M59,25v-2.8l-4.5-4.5c-0.3-0.3-0.9-0.3-1.3,0L44.9,26H58C58.6,26,59,25.6,59,25z"/>
		<path class="st4" d="M44.2,19.6L43,20.8V25c0,0.6,0.4,1,1,1h7.1l-5.6-6.4C45.2,19.2,44.6,19.2,44.2,19.6z"/>
		<path class="st24" d="M50.4,23.1c-0.6-0.6-1.4-0.8-2.2-0.4l2.9,3.3h1.8L50.4,23.1z"/>
		<path class="st6" d="M51.7,20.9L51.7,20.9c0.2,0.2,0.5,0.2,0.7,0l1.4-1.4c0.2-0.2,0.2-0.5,0-0.7l0,0c-0.2-0.2-0.5-0.2-0.7,0
			l-1.4,1.4C51.5,20.3,51.5,20.7,51.7,20.9z"/>
		<path class="st24" d="M59,22.2l-0.7-0.7c-0.2-0.2-0.6-0.2-0.9,0c-0.2,0.2-0.2,0.6,0,0.9l0.5,0.5c0.5,0.5,0.9,1.1,1.1,1.8V22.2z"/>
		<path class="st6" d="M44.7,20.4c-0.2-0.2-0.5-0.2-0.6,0L43,21.5v0.9c0.2,0.1,0.4,0,0.5-0.1l1.3-1.3C44.9,20.8,44.9,20.6,44.7,20.4
			L44.7,20.4z"/>
	</g>
	<path class="st4" d="M5,31L5,31c0-0.6,0.4-1,1-1l5,0c0.6,0,1,0.4,1,1v0c0,0.6-0.4,1-1,1H6C5.4,32,5,31.6,5,31z"/>
	<path class="st0" d="M18,44H6c-0.6,0-1-0.4-1-1l0,0c0-0.6,0.4-1,1-1h12c0.6,0,1,0.4,1,1l0,0C19,43.6,18.6,44,18,44z"/>
	<path class="st0" d="M18,36H6c-0.6,0-1-0.4-1-1l0,0c0-0.6,0.4-1,1-1h12c0.6,0,1,0.4,1,1l0,0C19,35.6,18.6,36,18,36z"/>
	<path class="st0" d="M12,40H6c-0.6,0-1-0.4-1-1l0,0c0-0.6,0.4-1,1-1h6c0.6,0,1,0.4,1,1l0,0C13,39.6,12.6,40,12,40z"/>
	<path class="st0" d="M12,52H6c-0.6,0-1-0.4-1-1l0,0c0-0.6,0.4-1,1-1h6c0.6,0,1,0.4,1,1l0,0C13,51.6,12.6,52,12,52z"/>
	<path class="st0" d="M16,48H6c-0.6,0-1-0.4-1-1l0,0c0-0.6,0.4-1,1-1h10c0.6,0,1,0.4,1,1l0,0C17,47.6,16.6,48,16,48z"/>
	<path class="st4" d="M24,31L24,31c0-0.6,0.4-1,1-1l5,0c0.6,0,1,0.4,1,1v0c0,0.6-0.4,1-1,1h-5C24.4,32,24,31.6,24,31z"/>
	<path class="st0" d="M35,44H25c-0.6,0-1-0.4-1-1l0,0c0-0.6,0.4-1,1-1h10c0.6,0,1,0.4,1,1l0,0C36,43.6,35.6,44,35,44z"/>
	<path class="st0" d="M37,36H25c-0.6,0-1-0.4-1-1l0,0c0-0.6,0.4-1,1-1h12c0.6,0,1,0.4,1,1l0,0C38,35.6,37.6,36,37,36z"/>
	<path class="st0" d="M33,40h-8c-0.6,0-1-0.4-1-1l0,0c0-0.6,0.4-1,1-1h8c0.6,0,1,0.4,1,1l0,0C34,39.6,33.6,40,33,40z"/>
	<path class="st0" d="M31,52h-6c-0.6,0-1-0.4-1-1l0,0c0-0.6,0.4-1,1-1h6c0.6,0,1,0.4,1,1l0,0C32,51.6,31.6,52,31,52z"/>
	<path class="st0" d="M37,48H25c-0.6,0-1-0.4-1-1l0,0c0-0.6,0.4-1,1-1h12c0.6,0,1,0.4,1,1l0,0C38,47.6,37.6,48,37,48z"/>
	<path class="st4" d="M43,31L43,31c0-0.6,0.4-1,1-1l5,0c0.6,0,1,0.4,1,1v0c0,0.6-0.4,1-1,1h-5C43.4,32,43,31.6,43,31z"/>
	<path class="st0" d="M56,44H44c-0.6,0-1-0.4-1-1l0,0c0-0.6,0.4-1,1-1h12c0.6,0,1,0.4,1,1l0,0C57,43.6,56.6,44,56,44z"/>
	<path class="st0" d="M56,36H44c-0.6,0-1-0.4-1-1l0,0c0-0.6,0.4-1,1-1h12c0.6,0,1,0.4,1,1l0,0C57,35.6,56.6,36,56,36z"/>
	<path class="st0" d="M53,40h-9c-0.6,0-1-0.4-1-1l0,0c0-0.6,0.4-1,1-1h9c0.6,0,1,0.4,1,1l0,0C54,39.6,53.6,40,53,40z"/>
	<path class="st0" d="M51,52h-7c-0.6,0-1-0.4-1-1l0,0c0-0.6,0.4-1,1-1h7c0.6,0,1,0.4,1,1l0,0C52,51.6,51.6,52,51,52z"/>
	<path class="st0" d="M52,48h-8c-0.6,0-1-0.4-1-1l0,0c0-0.6,0.4-1,1-1h8c0.6,0,1,0.4,1,1l0,0C53,47.6,52.6,48,52,48z"/>
</g>
</svg>
