<?xml version="1.0" encoding="utf-8"?>
<!-- Generator: Adobe Illustrator 21.0.0, SVG Export Plug-In . SVG Version: 6.00 Build 0)  -->
<svg version="1.1" id="Layer_1" xmlns="http://www.w3.org/2000/svg" xmlns:xlink="http://www.w3.org/1999/xlink" x="0px" y="0px"
	 viewBox="0 0 64 60" style="enable-background:new 0 0 64 60;" xml:space="preserve">
<style type="text/css">
	.st0{fill:#CAD1D8;}
	.st1{fill:#9BA7AF;}
	.st2{fill:#FFFFFF;}
	.st3{fill:#E2E5E7;}
	.st4{fill:#595A66;}
	.st5{fill:#ABE1FA;}
	.st6{fill:#6F707E;}
	.st7{fill:#3BB54A;}
	.st8{fill:#0E9347;}
	.st9{fill:#517CBE;}
	.st10{fill:#65CCEF;}
	.st11{fill:#EE2C39;}
	.st12{fill:#CC202C;}
	.st13{fill:#F16351;}
	.st14{fill:#DDDFE1;}
	.st15{fill:#89C763;}
	.st16{fill:#3689C9;}
	.st17{fill:#1B6FAB;}
	.st18{fill:#4C9FD7;}
	.st19{fill:#FDBA4D;}
	.st20{fill:#F19F36;}
	.st21{fill:#F19F35;}
	.st22{fill:#FFFFFF;stroke:#595A66;stroke-width:2;stroke-miterlimit:10;}
	.st23{fill:#1A70AC;}
	.st24{fill:#35363E;}
</style>
<g>
	<path class="st0" d="M0,57V3c0-1.7,1.3-3,3-3h58c1.7,0,3,1.3,3,3v54c0,1.7-1.3,3-3,3H3C1.3,60,0,58.7,0,57z"/>
	<circle class="st1" cx="3" cy="4" r="1"/>
	<circle class="st1" cx="7" cy="4" r="1"/>
	<circle class="st1" cx="11" cy="4" r="1"/>
	<path class="st2" d="M3,8h58c0.6,0,1,0.4,1,1v48c0,0.6-0.4,1-1,1H3c-0.6,0-1-0.4-1-1V9C2,8.4,2.4,8,3,8z"/>
	<path class="st4" d="M6,12L6,12c0-0.6,0.4-1,1-1l5,0c0.6,0,1,0.4,1,1v0c0,0.6-0.4,1-1,1l-5,0C6.4,13,6,12.6,6,12z"/>
	<path class="st4" d="M52,12L52,12c0-0.6,0.4-1,1-1l4,0c0.6,0,1,0.4,1,1v0c0,0.6-0.4,1-1,1l-4,0C52.4,13,52,12.6,52,12z"/>
	<path class="st4" d="M44,12L44,12c0-0.6,0.4-1,1-1l4,0c0.6,0,1,0.4,1,1v0c0,0.6-0.4,1-1,1l-4,0C44.4,13,44,12.6,44,12z"/>
	<path class="st4" d="M36,12L36,12c0-0.6,0.4-1,1-1l4,0c0.6,0,1,0.4,1,1v0c0,0.6-0.4,1-1,1l-4,0C36.4,13,36,12.6,36,12z"/>
	<path class="st0" d="M23,26H7c-0.6,0-1-0.4-1-1v0c0-0.6,0.4-1,1-1h16c0.6,0,1,0.4,1,1v0C24,25.6,23.6,26,23,26z"/>
	<path class="st0" d="M21,30H7c-0.6,0-1-0.4-1-1v0c0-0.6,0.4-1,1-1h14c0.6,0,1,0.4,1,1v0C22,29.6,21.6,30,21,30z"/>
	<path class="st0" d="M18,34H7c-0.6,0-1-0.4-1-1v0c0-0.6,0.4-1,1-1h11c0.6,0,1,0.4,1,1v0C19,33.6,18.6,34,18,34z"/>
	<path class="st3" d="M61,5H15c-0.6,0-1-0.4-1-1v0c0-0.6,0.4-1,1-1h46c0.6,0,1,0.4,1,1v0C62,4.6,61.6,5,61,5z"/>
	<path class="st3" d="M23,53H9c-1.7,0-3-1.3-3-3v0c0-1.7,1.3-3,3-3h14c1.7,0,3,1.3,3,3v0C26,51.7,24.7,53,23,53z"/>
	<path class="st7" d="M23,52H9c-1.7,0-3-1.3-3-3v0c0-1.7,1.3-3,3-3h14c1.7,0,3,1.3,3,3v0C26,50.7,24.7,52,23,52z"/>
	<circle class="st8" cx="16" cy="49" r="1"/>
	<circle class="st8" cx="20" cy="49" r="1"/>
	<circle class="st8" cx="12" cy="49" r="1"/>
	<path class="st4" d="M53,55H39c-1.7,0-3-1.3-3-3V20c0-1.7,1.3-3,3-3h14c1.7,0,3,1.3,3,3v32C56,53.7,54.7,55,53,55z"/>
	<rect x="38" y="23" class="st5" width="16" height="26"/>
	<path class="st6" d="M43,20L43,20c0-0.6,0.4-1,1-1l4,0c0.6,0,1,0.4,1,1v0c0,0.6-0.4,1-1,1l-4,0C43.4,21,43,20.6,43,20z"/>
	<circle class="st6" cx="46" cy="52" r="2"/>
	<circle class="st2" cx="46" cy="34" r="3"/>
	<path class="st2" d="M38,49h13l-6.2-7.1c-0.4-0.5-1.1-0.5-1.5,0L38,47V49z"/>
	<path class="st2" d="M54,42l-2.3-2.3c-0.4-0.4-1-0.4-1.4,0L41,49h13V42z"/>
	<path class="st3" d="M50.2,45.8c-0.6-0.7-1.6-0.9-2.4-0.5L51,49h2L50.2,45.8z"/>
</g>
</svg>
