<?xml version="1.0" encoding="utf-8"?>
<!-- Generator: Adobe Illustrator 21.0.0, SVG Export Plug-In . SVG Version: 6.00 Build 0)  -->
<svg version="1.1" id="Layer_1" xmlns="http://www.w3.org/2000/svg" xmlns:xlink="http://www.w3.org/1999/xlink" x="0px" y="0px"
	 viewBox="0 0 64 60" style="enable-background:new 0 0 64 60;" xml:space="preserve">
<style type="text/css">
	.st0{fill:#CAD1D8;}
	.st1{fill:#9BA7AF;}
	.st2{fill:#FFFFFF;}
	.st3{fill:#E2E5E7;}
	.st4{fill:#595A66;}
	.st5{fill:#ABE1FA;}
	.st6{fill:#6F707E;}
	.st7{fill:#3BB54A;}
	.st8{fill:#0E9347;}
	.st9{fill:#517CBE;}
	.st10{fill:#65CCEF;}
	.st11{fill:#EE2C39;}
	.st12{fill:#CC202C;}
	.st13{fill:#F16351;}
	.st14{fill:#DDDFE1;}
	.st15{fill:#89C763;}
	.st16{fill:#3689C9;}
	.st17{fill:#1B6FAB;}
	.st18{fill:#4C9FD7;}
	.st19{fill:#FDBA4D;}
	.st20{fill:#F19F36;}
	.st21{fill:#F19F35;}
	.st22{fill:#FFFFFF;stroke:#595A66;stroke-width:2;stroke-miterlimit:10;}
	.st23{fill:#1A70AC;}
	.st24{fill:#35363E;}
</style>
<g>
	<path class="st0" d="M0,57V3c0-1.7,1.3-3,3-3h58c1.7,0,3,1.3,3,3v54c0,1.7-1.3,3-3,3H3C1.3,60,0,58.7,0,57z"/>
	<circle class="st1" cx="3" cy="4" r="1"/>
	<circle class="st1" cx="7" cy="4" r="1"/>
	<circle class="st1" cx="11" cy="4" r="1"/>
	<path class="st2" d="M3,8h58c0.6,0,1,0.4,1,1v48c0,0.6-0.4,1-1,1H3c-0.6,0-1-0.4-1-1V9C2,8.4,2.4,8,3,8z"/>
	<path class="st3" d="M61,5H15c-0.6,0-1-0.4-1-1v0c0-0.6,0.4-1,1-1h46c0.6,0,1,0.4,1,1v0C62,4.6,61.6,5,61,5z"/>
	<path class="st0" d="M56,21H28c-0.6,0-1-0.4-1-1v0c0-0.6,0.4-1,1-1h28c0.6,0,1,0.4,1,1v0C57,20.6,56.6,21,56,21z"/>
	<path class="st0" d="M50,29H28c-0.6,0-1-0.4-1-1v0c0-0.6,0.4-1,1-1h22c0.6,0,1,0.4,1,1v0C51,28.6,50.6,29,50,29z"/>
	<path class="st0" d="M45,25H28c-0.6,0-1-0.4-1-1v0c0-0.6,0.4-1,1-1h17c0.6,0,1,0.4,1,1v0C46,24.6,45.6,25,45,25z"/>
	<path class="st4" d="M27,16L27,16c0-0.6,0.4-1,1-1l5,0c0.6,0,1,0.4,1,1v0c0,0.6-0.4,1-1,1l-5,0C27.4,17,27,16.6,27,16z"/>
	<path class="st0" d="M56,42H28c-0.6,0-1-0.4-1-1v0c0-0.6,0.4-1,1-1h28c0.6,0,1,0.4,1,1v0C57,41.6,56.6,42,56,42z"/>
	<path class="st0" d="M50,50H28c-0.6,0-1-0.4-1-1l0,0c0-0.6,0.4-1,1-1h22c0.6,0,1,0.4,1,1l0,0C51,49.6,50.6,50,50,50z"/>
	<path class="st0" d="M45,46H28c-0.6,0-1-0.4-1-1v0c0-0.6,0.4-1,1-1h17c0.6,0,1,0.4,1,1v0C46,45.6,45.6,46,45,46z"/>
	<path class="st4" d="M27,37L27,37c0-0.6,0.4-1,1-1h5c0.6,0,1,0.4,1,1v0c0,0.6-0.4,1-1,1h-5C27.4,38,27,37.6,27,37z"/>
	<g>
		<path class="st5" d="M22,29H8c-0.6,0-1-0.4-1-1V16c0-0.6,0.4-1,1-1h14c0.6,0,1,0.4,1,1v12C23,28.6,22.6,29,22,29z"/>
		<circle class="st21" cx="12" cy="18" r="1"/>
		<path class="st4" d="M23,28v-2.8l-4.5-4.5c-0.3-0.3-0.9-0.3-1.3,0L8.9,29H22C22.6,29,23,28.6,23,28z"/>
		<path class="st4" d="M8.2,22.6L7,23.8V28c0,0.6,0.4,1,1,1h7.1l-5.6-6.4C9.2,22.2,8.6,22.2,8.2,22.6z"/>
		<path class="st24" d="M14.4,26.1c-0.6-0.6-1.4-0.8-2.2-0.4l2.9,3.3h1.8L14.4,26.1z"/>
		<path class="st6" d="M15.7,23.9L15.7,23.9c0.2,0.2,0.5,0.2,0.7,0l1.4-1.4c0.2-0.2,0.2-0.5,0-0.7l0,0c-0.2-0.2-0.5-0.2-0.7,0
			l-1.4,1.4C15.5,23.3,15.5,23.7,15.7,23.9z"/>
		<path class="st24" d="M23,25.2l-0.7-0.7c-0.2-0.2-0.6-0.2-0.9,0c-0.2,0.2-0.2,0.6,0,0.9l0.5,0.5c0.5,0.5,0.9,1.1,1.1,1.8V25.2z"/>
		<path class="st6" d="M8.7,23.4c-0.2-0.2-0.5-0.2-0.6,0L7,24.5v0.9c0.2,0.1,0.4,0,0.5-0.1L8.7,24C8.9,23.8,8.9,23.6,8.7,23.4
			L8.7,23.4z"/>
	</g>
	<g>
		<path class="st5" d="M22,50H8c-0.6,0-1-0.4-1-1V37c0-0.6,0.4-1,1-1h14c0.6,0,1,0.4,1,1v12C23,49.6,22.6,50,22,50z"/>
		<circle class="st21" cx="12" cy="39" r="1"/>
		<path class="st4" d="M23,49v-2.8l-4.5-4.5c-0.3-0.3-0.9-0.3-1.3,0L8.9,50H22C22.6,50,23,49.6,23,49z"/>
		<path class="st4" d="M8.2,43.6L7,44.8V49c0,0.6,0.4,1,1,1h7.1l-5.6-6.4C9.2,43.2,8.6,43.2,8.2,43.6z"/>
		<path class="st24" d="M14.4,47.1c-0.6-0.6-1.4-0.8-2.2-0.4l2.9,3.3h1.8L14.4,47.1z"/>
		<path class="st6" d="M15.7,44.9L15.7,44.9c0.2,0.2,0.5,0.2,0.7,0l1.4-1.4c0.2-0.2,0.2-0.5,0-0.7v0c-0.2-0.2-0.5-0.2-0.7,0
			l-1.4,1.4C15.5,44.3,15.5,44.7,15.7,44.9z"/>
		<path class="st24" d="M23,46.2l-0.7-0.7c-0.2-0.2-0.6-0.2-0.9,0c-0.2,0.2-0.2,0.6,0,0.9l0.5,0.5c0.5,0.5,0.9,1.1,1.1,1.8V46.2z"/>
		<path class="st6" d="M8.7,44.4c-0.2-0.2-0.5-0.2-0.6,0L7,45.5v0.9c0.2,0.1,0.4,0,0.5-0.1L8.7,45C8.9,44.8,8.9,44.6,8.7,44.4
			L8.7,44.4z"/>
	</g>
</g>
</svg>
