<?xml version="1.0" encoding="utf-8"?>
<!-- Generator: Adobe Illustrator 21.0.0, SVG Export Plug-In . SVG Version: 6.00 Build 0)  -->
<svg version="1.1" id="Layer_1" xmlns="http://www.w3.org/2000/svg" xmlns:xlink="http://www.w3.org/1999/xlink" x="0px" y="0px"
	 viewBox="0 0 64 60" style="enable-background:new 0 0 64 60;" xml:space="preserve">
<style type="text/css">
	.st0{fill:#CAD1D8;}
	.st1{fill:#9BA7AF;}
	.st2{fill:#FFFFFF;}
	.st3{fill:#E2E5E7;}
	.st4{fill:#595A66;}
	.st5{fill:#ABE1FA;}
	.st6{fill:#6F707E;}
	.st7{fill:#3BB54A;}
	.st8{fill:#0E9347;}
	.st9{fill:#517CBE;}
	.st10{fill:#65CCEF;}
	.st11{fill:#EE2C39;}
	.st12{fill:#CC202C;}
	.st13{fill:#F16351;}
	.st14{fill:#DDDFE1;}
	.st15{fill:#89C763;}
	.st16{fill:#3689C9;}
	.st17{fill:#1B6FAB;}
	.st18{fill:#4C9FD7;}
	.st19{fill:#FDBA4D;}
	.st20{fill:#F19F36;}
	.st21{fill:#F19F35;}
	.st22{fill:#FFFFFF;stroke:#595A66;stroke-width:2;stroke-miterlimit:10;}
	.st23{fill:#1A70AC;}
	.st24{fill:#35363E;}
</style>
<g>
	<path class="st0" d="M0,57V3c0-1.7,1.3-3,3-3h58c1.7,0,3,1.3,3,3v54c0,1.7-1.3,3-3,3H3C1.3,60,0,58.7,0,57z"/>
	<circle class="st1" cx="3" cy="4" r="1"/>
	<circle class="st1" cx="7" cy="4" r="1"/>
	<circle class="st1" cx="11" cy="4" r="1"/>
	<path class="st2" d="M3,8h58c0.6,0,1,0.4,1,1v48c0,0.6-0.4,1-1,1H3c-0.6,0-1-0.4-1-1V9C2,8.4,2.4,8,3,8z"/>
	<path class="st3" d="M61,5H15c-0.6,0-1-0.4-1-1v0c0-0.6,0.4-1,1-1h46c0.6,0,1,0.4,1,1v0C62,4.6,61.6,5,61,5z"/>
	<circle class="st5" cx="12" cy="27.9" r="4"/>
	<path class="st17" d="M15,30.6c0-0.3-0.2-0.6-0.6-0.8l-1-0.6C13.3,29.1,13.1,29,13,29v-0.5c0.3-0.3,0.5-0.7,0.5-1.1
		c0-0.8-0.7-1.5-1.5-1.5s-1.5,0.7-1.5,1.5c0,0.4,0.2,0.8,0.5,1.1V29c-0.1,0-0.3,0.1-0.4,0.2l-1,0.6C9.3,30,9.1,30.3,9,30.6
		c0.7,0.8,1.8,1.4,3,1.4S14.3,31.4,15,30.6z"/>
	<g>
		<path class="st3" d="M23,24c-1.1,0-2,0.9-2,2l0,0c0,1.1-0.9,2-2,2c1.1,0,2,0.9,2,2l0,0c0,1.1,0.9,2,2,2h31c1.1,0,2-0.9,2-2v-4
			c0-1.1-0.9-2-2-2H23z"/>
	</g>
	<circle class="st1" cx="39" cy="28" r="1"/>
	<circle class="st1" cx="44" cy="28" r="1"/>
	<circle class="st1" cx="34" cy="28" r="1"/>
	<circle class="st5" cx="12" cy="38.5" r="4"/>
	<path class="st17" d="M15,41.1c0-0.3-0.2-0.6-0.6-0.8l-1-0.6c-0.1-0.1-0.2-0.1-0.4-0.2v-0.5c0.3-0.3,0.5-0.7,0.5-1.1
		c0-0.8-0.7-1.5-1.5-1.5s-1.5,0.7-1.5,1.5c0,0.4,0.2,0.8,0.5,1.1v0.5c-0.1,0-0.3,0.1-0.4,0.2l-1,0.6c-0.4,0.2-0.6,0.5-0.6,0.8
		c0.7,0.8,1.8,1.4,3,1.4S14.3,41.9,15,41.1z"/>
	<g>
		<path class="st3" d="M23,34.5c-1.1,0-2,0.9-2,2l0,0c0,1.1-0.9,2-2,2c1.1,0,2,0.9,2,2l0,0c0,1.1,0.9,2,2,2h31c1.1,0,2-0.9,2-2v-4
			c0-1.1-0.9-2-2-2H23z"/>
	</g>
	<circle class="st1" cx="39" cy="38.5" r="1"/>
	<circle class="st1" cx="44" cy="38.5" r="1"/>
	<circle class="st1" cx="34" cy="38.5" r="1"/>
	<circle class="st5" cx="12" cy="49.5" r="4"/>
	<path class="st17" d="M15,52.1c0-0.3-0.2-0.6-0.6-0.8l-1-0.6c-0.1-0.1-0.2-0.1-0.4-0.2v-0.5c0.3-0.3,0.5-0.7,0.5-1.1
		c0-0.8-0.7-1.5-1.5-1.5s-1.5,0.7-1.5,1.5c0,0.4,0.2,0.8,0.5,1.1v0.5c-0.1,0-0.3,0.1-0.4,0.2l-1,0.6c-0.4,0.2-0.6,0.5-0.6,0.8
		c0.7,0.8,1.8,1.4,3,1.4S14.3,52.9,15,52.1z"/>
	<g>
		<path class="st3" d="M23,45.5c-1.1,0-2,0.9-2,2l0,0c0,1.1-0.9,2-2,2c1.1,0,2,0.9,2,2l0,0c0,1.1,0.9,2,2,2h31c1.1,0,2-0.9,2-2v-4
			c0-1.1-0.9-2-2-2H23z"/>
	</g>
	<circle class="st1" cx="39" cy="49.5" r="1"/>
	<circle class="st1" cx="44" cy="49.5" r="1"/>
	<circle class="st1" cx="34" cy="49.5" r="1"/>
	<path class="st3" d="M8,18.5v-4c0-1.1,0.9-2,2-2h44c1.1,0,2,0.9,2,2l0,4c0,1.1-0.9,2-2,2H10C8.9,20.5,8,19.6,8,18.5z"/>
	<path class="st1" d="M53,15.5h-1v-1c0-0.6-0.4-1-1-1s-1,0.4-1,1v1h-1c-0.6,0-1,0.4-1,1c0,0.6,0.4,1,1,1h1v1c0,0.6,0.4,1,1,1
		s1-0.4,1-1v-1h1c0.6,0,1-0.4,1-1C54,16,53.6,15.5,53,15.5z"/>
</g>
</svg>
