<?xml version="1.0" encoding="utf-8"?>
<!-- Generator: Adobe Illustrator 21.0.0, SVG Export Plug-In . SVG Version: 6.00 Build 0)  -->
<svg version="1.1" id="Layer_1" xmlns="http://www.w3.org/2000/svg" xmlns:xlink="http://www.w3.org/1999/xlink" x="0px" y="0px"
	 viewBox="0 0 64 60" style="enable-background:new 0 0 64 60;" xml:space="preserve">
<style type="text/css">
	.st0{fill:#CAD1D8;}
	.st1{fill:#9BA7AF;}
	.st2{fill:#FFFFFF;}
	.st3{fill:#E2E5E7;}
	.st4{fill:#595A66;}
	.st5{fill:#ABE1FA;}
	.st6{fill:#6F707E;}
	.st7{fill:#3BB54A;}
	.st8{fill:#0E9347;}
	.st9{fill:#517CBE;}
	.st10{fill:#65CCEF;}
	.st11{fill:#EE2C39;}
	.st12{fill:#CC202C;}
	.st13{fill:#F16351;}
	.st14{fill:#DDDFE1;}
	.st15{fill:#89C763;}
	.st16{fill:#3689C9;}
	.st17{fill:#1B6FAB;}
	.st18{fill:#4C9FD7;}
	.st19{fill:#FDBA4D;}
	.st20{fill:#F19F36;}
	.st21{fill:#F19F35;}
	.st22{fill:#FFFFFF;stroke:#595A66;stroke-width:2;stroke-miterlimit:10;}
	.st23{fill:#1A70AC;}
	.st24{fill:#35363E;}
</style>
<g>
	<path class="st0" d="M0,57V3c0-1.7,1.3-3,3-3h58c1.7,0,3,1.3,3,3v54c0,1.7-1.3,3-3,3H3C1.3,60,0,58.7,0,57z"/>
	<circle class="st1" cx="3" cy="4" r="1"/>
	<circle class="st1" cx="7" cy="4" r="1"/>
	<circle class="st1" cx="11" cy="4" r="1"/>
	<path class="st2" d="M3,8h58c0.6,0,1,0.4,1,1v48c0,0.6-0.4,1-1,1H3c-0.6,0-1-0.4-1-1V9C2,8.4,2.4,8,3,8z"/>
	<path class="st3" d="M61,5H15c-0.6,0-1-0.4-1-1v0c0-0.6,0.4-1,1-1h46c0.6,0,1,0.4,1,1v0C62,4.6,61.6,5,61,5z"/>
	<g>
		<path class="st5" d="M28,30.7H6c-0.6,0-1-0.4-1-1v-16c0-0.6,0.4-1,1-1h22c0.6,0,1,0.4,1,1v16C29,30.3,28.6,30.7,28,30.7z"/>
		<circle class="st21" cx="10" cy="16.7" r="2"/>
		<path class="st4" d="M29,28.7l-7.3-7.3c-0.4-0.4-1-0.4-1.4,0L11,30.7h17c0.6,0,1-0.4,1-1V28.7z"/>
		<path class="st24" d="M25,25.7L25,25.7c-0.3,0.3-0.3,0.7,0,1l0.6,0.6c0.9,0.9,1.4,2.1,1.4,3.4v0h1c0.6,0,1-0.4,1-1v-1l-3-3
			C25.7,25.5,25.3,25.5,25,25.7z"/>
		<path class="st4" d="M6,30.7h12l-6.2-7.1c-0.4-0.5-1.1-0.5-1.5,0L5,28.7v1C5,30.3,5.4,30.7,6,30.7z"/>
		<path class="st24" d="M17.2,27.5c-0.6-0.7-1.6-0.9-2.4-0.5l3.2,3.7h2L17.2,27.5z"/>
		<path class="st6" d="M18.1,25L18.1,25c0.2,0.2,0.5,0.2,0.7,0l1.4-1.4c0.2-0.2,0.2-0.5,0-0.7v0c-0.2-0.2-0.5-0.2-0.7,0l-1.4,1.4
			C18,24.5,18,24.8,18.1,25z"/>
		<path class="st6" d="M8.7,26.6L8.7,26.6c0.2,0.2,0.5,0.2,0.7,0l1.4-1.4c0.2-0.2,0.2-0.5,0-0.7h0c-0.2-0.2-0.5-0.2-0.7,0l-1.4,1.4
			C8.5,26.1,8.5,26.4,8.7,26.6z"/>
	</g>
	<path class="st0" d="M23,44H6c-0.6,0-1-0.4-1-1v0c0-0.6,0.4-1,1-1h17c0.6,0,1,0.4,1,1v0C24,43.6,23.6,44,23,44z"/>
	<path class="st0" d="M23,36H6c-0.6,0-1-0.4-1-1v0c0-0.6,0.4-1,1-1h17c0.6,0,1,0.4,1,1v0C24,35.6,23.6,36,23,36z"/>
	<path class="st0" d="M20,40H6c-0.6,0-1-0.4-1-1v0c0-0.6,0.4-1,1-1h14c0.6,0,1,0.4,1,1v0C21,39.6,20.6,40,20,40z"/>
	<path class="st0" d="M19,48H6c-0.6,0-1-0.4-1-1v0c0-0.6,0.4-1,1-1h13c0.6,0,1,0.4,1,1v0C20,47.6,19.6,48,19,48z"/>
	<g>
		<path class="st5" d="M58,30.7H36c-0.6,0-1-0.4-1-1v-16c0-0.6,0.4-1,1-1h22c0.6,0,1,0.4,1,1v16C59,30.3,58.6,30.7,58,30.7z"/>
		<circle class="st21" cx="40" cy="16.7" r="2"/>
		<path class="st4" d="M59,28.7l-7.3-7.3c-0.4-0.4-1-0.4-1.4,0L41,30.7h17c0.6,0,1-0.4,1-1V28.7z"/>
		<path class="st24" d="M55,25.7L55,25.7c-0.3,0.3-0.3,0.7,0,1l0.6,0.6c0.9,0.9,1.4,2.1,1.4,3.4v0h1c0.6,0,1-0.4,1-1v-1l-3-3
			C55.7,25.5,55.3,25.5,55,25.7z"/>
		<path class="st4" d="M36,30.7h12l-6.2-7.1c-0.4-0.5-1.1-0.5-1.5,0L35,28.7v1C35,30.3,35.4,30.7,36,30.7z"/>
		<path class="st24" d="M47.2,27.5c-0.6-0.7-1.6-0.9-2.4-0.5l3.2,3.7h2L47.2,27.5z"/>
		<path class="st6" d="M48.1,25L48.1,25c0.2,0.2,0.5,0.2,0.7,0l1.4-1.4c0.2-0.2,0.2-0.5,0-0.7l0,0c-0.2-0.2-0.5-0.2-0.7,0l-1.4,1.4
			C48,24.5,48,24.8,48.1,25z"/>
		<path class="st6" d="M38.7,26.6L38.7,26.6c0.2,0.2,0.5,0.2,0.7,0l1.4-1.4c0.2-0.2,0.2-0.5,0-0.7l0,0c-0.2-0.2-0.5-0.2-0.7,0
			l-1.4,1.4C38.5,26.1,38.5,26.4,38.7,26.6z"/>
	</g>
	<path class="st0" d="M50,44H36c-0.6,0-1-0.4-1-1v0c0-0.6,0.4-1,1-1h14c0.6,0,1,0.4,1,1l0,0C51,43.6,50.6,44,50,44z"/>
	<path class="st0" d="M56,36H36c-0.6,0-1-0.4-1-1v0c0-0.6,0.4-1,1-1h20c0.6,0,1,0.4,1,1l0,0C57,35.6,56.6,36,56,36z"/>
	<path class="st0" d="M52,40H36c-0.6,0-1-0.4-1-1v0c0-0.6,0.4-1,1-1h16c0.6,0,1,0.4,1,1l0,0C53,39.6,52.6,40,52,40z"/>
	<path class="st0" d="M52,48H36c-0.6,0-1-0.4-1-1v0c0-0.6,0.4-1,1-1h16c0.6,0,1,0.4,1,1l0,0C53,47.6,52.6,48,52,48z"/>
	<path class="st0" d="M13,52H6c-0.6,0-1-0.4-1-1v0c0-0.6,0.4-1,1-1h7c0.6,0,1,0.4,1,1v0C14,51.6,13.6,52,13,52z"/>
	<path class="st0" d="M43,52h-7c-0.6,0-1-0.4-1-1l0,0c0-0.6,0.4-1,1-1h7c0.6,0,1,0.4,1,1l0,0C44,51.6,43.6,52,43,52z"/>
</g>
</svg>
