<?xml version="1.0" encoding="utf-8"?>
<!-- Generator: Adobe Illustrator 21.0.0, SVG Export Plug-In . SVG Version: 6.00 Build 0)  -->
<svg version="1.1" xmlns="http://www.w3.org/2000/svg" xmlns:xlink="http://www.w3.org/1999/xlink" x="0px" y="0px"
	 viewBox="0 0 64 60" style="enable-background:new 0 0 64 60;" xml:space="preserve">
<style type="text/css">
	.st0{fill:#CAD1D8;}
	.st1{fill:#FFFFFF;}
	.st2{fill:#595A66;}
	.st3{fill:#9BA7AF;}
	.st4{fill:#E2E5E7;}
	.st5{fill:#ABE1FA;}
	.st6{fill:#FDBA4D;}
	.st7{fill:#F19F35;}
	.st8{fill:#3BB54A;}
	.st9{fill:#0E9347;}
	.st10{fill:#E6E7E8;}
	.st11{fill:#BCBEC0;}
	.st12{fill:#D1D3D4;}
	.st13{fill:#A7A9AC;}
	.st14{fill:#DCDDDE;}
	.st15{fill:#B1B3B6;}
	.st16{fill:#C7C8CA;}
	.st17{fill:#9D9FA2;}
	.st18{fill:#3689C9;}
	.st19{fill:#EE2C39;}
	.st20{fill:#FFFFFF;stroke:#595A66;stroke-width:2;stroke-miterlimit:10;}
	.st21{fill:#F19F36;}
	.st22{fill:#D4D5D6;}
	.st23{fill:#35363E;}
	.st24{fill:#CC202C;}
	.st25{fill:#1A70AC;}
	.st26{fill:#BD6428;}
	.st27{fill:#A35723;}
	.st28{fill:#A35623;}
	.st29{fill:#DDDFE1;}
	.st30{fill:#1B6FAB;}
	.st31{fill:#165D91;}
	.st32{fill:#699DC4;}
	.st33{fill:#6F707E;}
	.st34{fill:#4C9FD7;}
	.st35{fill:#748B9E;}
	.st36{fill:#78B6E4;}
</style>
<g id="Layer_62">
</g>
<g id="Layer_60">
</g>
<g id="Layer_59">
</g>
<g id="Layer_58">
</g>
<g id="Layer_57">
</g>
<g id="Layer_56">
</g>
<g id="Layer_55">
</g>
<g id="Layer_54">
</g>
<g id="Layer_53">
</g>
<g id="Layer_52">
</g>
<g id="Layer_51">
</g>
<g id="Layer_50">
</g>
<g id="Layer_49">
</g>
<g id="Layer_48">
</g>
<g id="Layer_47">
</g>
<g id="Layer_46">
</g>
<g id="Layer_45">
</g>
<g id="Layer_44">
</g>
<g id="Layer_43">
</g>
<g id="Layer_42">
</g>
<g id="Layer_41">
</g>
<g id="Layer_40">
</g>
<g id="Layer_39">
</g>
<g id="Layer_38">
</g>
<g id="Layer_37">
</g>
<g id="Layer_36">
</g>
<g id="Layer_35">
</g>
<g id="Layer_34">
</g>
<g id="Layer_33">
</g>
<g id="Layer_32">
</g>
<g id="Layer_31">
</g>
<g id="Layer_30">
</g>
<g id="Layer_29">
</g>
<g id="Layer_28">
</g>
<g id="Layer_27">
</g>
<g id="Layer_26">
</g>
<g id="Layer_25">
</g>
<g id="Layer_24">
</g>
<g id="Layer_23">
</g>
<g id="Layer_22">
</g>
<g id="Layer_21">
</g>
<g id="Layer_20">
</g>
<g id="Layer_19">
</g>
<g id="Layer_18">
</g>
<g id="Layer_17">
</g>
<g id="Layer_16">
</g>
<g id="Layer_15">
</g>
<g id="Layer_14">
</g>
<g id="Layer_13">
</g>
<g id="Layer_12">
</g>
<g id="Layer_11">
</g>
<g id="Layer_10">
</g>
<g id="Layer_9">
	<g>
		<g>
			<path class="st0" d="M0,57V3c0-1.7,1.3-3,3-3h58c1.7,0,3,1.3,3,3v54c0,1.7-1.3,3-3,3H3C1.3,60,0,58.7,0,57z"/>
		</g>
		<g>
			<circle class="st3" cx="3" cy="4" r="1"/>
		</g>
		<g>
			<circle class="st3" cx="7" cy="4" r="1"/>
		</g>
		<g>
			<circle class="st3" cx="11" cy="4" r="1"/>
		</g>
		<g>
			<path class="st3" d="M3,8h58c0.6,0,1,0.4,1,1v48c0,0.6-0.4,1-1,1H3c-0.6,0-1-0.4-1-1V9C2,8.4,2.4,8,3,8z"/>
		</g>
		<g>
			<path class="st4" d="M61,5H15c-0.6,0-1-0.4-1-1v0c0-0.6,0.4-1,1-1h46c0.6,0,1,0.4,1,1v0C62,4.6,61.6,5,61,5z"/>
		</g>
		<g>
			<g>
				<path class="st19" d="M13,49.5c-0.8,0-1.5-0.7-1.5-1.5V18c0-0.8,0.7-1.5,1.5-1.5h38c0.8,0,1.5,0.7,1.5,1.5v30
					c0,0.8-0.7,1.5-1.5,1.5H13z"/>
			</g>
			<path class="st24" d="M51,16H13c-1.1,0-2,0.9-2,2v30c0,1.1,0.9,2,2,2h38c1.1,0,2-0.9,2-2V18C53,16.9,52.1,16,51,16z M52,48
				c0,0.6-0.4,1-1,1H13c-0.6,0-1-0.4-1-1V18c0-0.6,0.4-1,1-1h38c0.6,0,1,0.4,1,1V48z"/>
		</g>
		<g>
			<path class="st24" d="M37.3,32.9l-7.5-3.8c-0.4-0.2-0.8-0.2-1.2,0.1c-0.4,0.2-0.6,0.6-0.6,1.1v7.5c0,0.4,0.2,0.8,0.6,1.1
				c0.2,0.1,0.4,0.2,0.7,0.2c0.2,0,0.4,0,0.6-0.1l7.5-3.8c0.4-0.2,0.7-0.6,0.7-1.1S37.7,33.1,37.3,32.9z"/>
		</g>
		<g>
			<path class="st1" d="M37.3,31.9l-7.5-3.8c-0.4-0.2-0.8-0.2-1.2,0.1c-0.4,0.2-0.6,0.6-0.6,1.1v7.5c0,0.4,0.2,0.8,0.6,1.1
				c0.2,0.1,0.4,0.2,0.7,0.2c0.2,0,0.4,0,0.6-0.1l7.5-3.8c0.4-0.2,0.7-0.6,0.7-1.1S37.7,32.1,37.3,31.9z"/>
		</g>
		<g>
			<path class="st29" d="M37.3,33.1l-7.5,3.8C29.6,37,29.4,37,29.2,37c-0.2,0-0.5-0.1-0.7-0.2c-0.4-0.2-0.6-0.6-0.6-1.1v1
				c0,0.4,0.2,0.8,0.6,1.1c0.2,0.1,0.4,0.2,0.7,0.2c0.2,0,0.4,0,0.6-0.1l7.5-3.8c0.4-0.2,0.7-0.6,0.7-1.1c0-0.2,0-0.3-0.1-0.5
				C37.8,32.8,37.6,33,37.3,33.1z"/>
		</g>
		<g>
			<g>
				<path class="st19" d="M47,47.5c-0.3,0-0.5-0.2-0.5-0.5v-3c0-0.3,0.2-0.5,0.5-0.5h3c0.3,0,0.5,0.2,0.5,0.5v3
					c0,0.3-0.2,0.5-0.5,0.5H47z"/>
			</g>
			<path class="st24" d="M50,43h-3c-0.6,0-1,0.4-1,1v3c0,0.6,0.4,1,1,1h3c0.6,0,1-0.4,1-1v-3C51,43.4,50.6,43,50,43z M50,47h-3v-3h3
				V47z"/>
		</g>
		<g>
			<path class="st24" d="M49,48h-1v-2c0-0.6,0.4-1,1-1h2v1C51,47.1,50.1,48,49,48z"/>
		</g>
	</g>
</g>
<g id="Layer_8">
</g>
<g id="Layer_7">
</g>
<g id="Layer_6">
</g>
<g id="Layer_5">
</g>
<g id="Layer_4">
</g>
<g id="Layer_3">
</g>
<g id="Layer_2">
</g>
</svg>
