<?xml version="1.0" encoding="utf-8"?>
<!-- Generator: Adobe Illustrator 21.0.0, SVG Export Plug-In . SVG Version: 6.00 Build 0)  -->
<svg version="1.1" id="Layer_1" xmlns="http://www.w3.org/2000/svg" xmlns:xlink="http://www.w3.org/1999/xlink" x="0px" y="0px"
	 viewBox="0 0 64 60" style="enable-background:new 0 0 64 60;" xml:space="preserve">
<style type="text/css">
	.st0{fill:#CAD1D8;}
	.st1{fill:#9BA7AF;}
	.st2{fill:#FFFFFF;}
	.st3{fill:#E2E5E7;}
	.st4{fill:#595A66;}
	.st5{fill:#ABE1FA;}
	.st6{fill:#6F707E;}
	.st7{fill:#3BB54A;}
	.st8{fill:#0E9347;}
	.st9{fill:#517CBE;}
	.st10{fill:#65CCEF;}
	.st11{fill:#EE2C39;}
	.st12{fill:#CC202C;}
	.st13{fill:#F16351;}
	.st14{fill:#DDDFE1;}
	.st15{fill:#89C763;}
	.st16{fill:#3689C9;}
	.st17{fill:#1B6FAB;}
	.st18{fill:#4C9FD7;}
	.st19{fill:#FDBA4D;}
	.st20{fill:#F19F36;}
	.st21{fill:#F19F35;}
	.st22{fill:#FFFFFF;stroke:#595A66;stroke-width:2;stroke-miterlimit:10;}
	.st23{fill:#1A70AC;}
	.st24{fill:#35363E;}
</style>
<g>
	<path class="st0" d="M0,57V3c0-1.7,1.3-3,3-3h58c1.7,0,3,1.3,3,3v54c0,1.7-1.3,3-3,3H3C1.3,60,0,58.7,0,57z"/>
	<circle class="st1" cx="3" cy="4" r="1"/>
	<circle class="st1" cx="7" cy="4" r="1"/>
	<circle class="st1" cx="11" cy="4" r="1"/>
	<path class="st2" d="M3,8h58c0.6,0,1,0.4,1,1v48c0,0.6-0.4,1-1,1H3c-0.6,0-1-0.4-1-1V9C2,8.4,2.4,8,3,8z"/>
	<path class="st3" d="M61,5H15c-0.6,0-1-0.4-1-1v0c0-0.6,0.4-1,1-1h46c0.6,0,1,0.4,1,1v0C62,4.6,61.6,5,61,5z"/>
	<path class="st0" d="M39,21H7c-0.6,0-1-0.4-1-1v0c0-0.6,0.4-1,1-1h32c0.6,0,1,0.4,1,1v0C40,20.6,39.6,21,39,21z"/>
	<path class="st0" d="M39,41H7c-0.6,0-1-0.4-1-1l0,0c0-0.6,0.4-1,1-1h32c0.6,0,1,0.4,1,1l0,0C40,40.6,39.6,41,39,41z"/>
	<path class="st0" d="M34,49H7c-0.6,0-1-0.4-1-1l0,0c0-0.6,0.4-1,1-1h27c0.6,0,1,0.4,1,1l0,0C35,48.6,34.6,49,34,49z"/>
	<path class="st0" d="M29,29H7c-0.6,0-1-0.4-1-1v0c0-0.6,0.4-1,1-1h22c0.6,0,1,0.4,1,1v0C30,28.6,29.6,29,29,29z"/>
	<path class="st0" d="M24,25H7c-0.6,0-1-0.4-1-1v0c0-0.6,0.4-1,1-1h17c0.6,0,1,0.4,1,1v0C25,24.6,24.6,25,24,25z"/>
	<path class="st4" d="M6,14L6,14c0-0.6,0.4-1,1-1l12,0c0.6,0,1,0.4,1,1v0c0,0.6-0.4,1-1,1L7,15C6.4,15,6,14.6,6,14z"/>
	<path class="st4" d="M22,14L22,14c0-0.6,0.4-1,1-1l6,0c0.6,0,1,0.4,1,1v0c0,0.6-0.4,1-1,1l-6,0C22.4,15,22,14.6,22,14z"/>
	<path class="st0" d="M34,44L34,44c0-0.6,0.4-1,1-1h3c0.6,0,1,0.4,1,1v0c0,0.6-0.4,1-1,1h-3C34.4,45,34,44.6,34,44z"/>
	<path class="st0" d="M32,28L32,28c0-0.6,0.4-1,1-1l3,0c0.6,0,1,0.4,1,1v0c0,0.6-0.4,1-1,1l-3,0C32.4,29,32,28.6,32,28z"/>
	<path class="st0" d="M27,24L27,24c0-0.6,0.4-1,1-1h8c0.6,0,1,0.4,1,1v0c0,0.6-0.4,1-1,1h-8C27.4,25,27,24.6,27,24z"/>
	<path class="st0" d="M18,37H7c-0.6,0-1-0.4-1-1l0,0c0-0.6,0.4-1,1-1h11c0.6,0,1,0.4,1,1l0,0C19,36.6,18.6,37,18,37z"/>
	<path class="st0" d="M21,36L21,36c0-0.6,0.4-1,1-1h15c0.6,0,1,0.4,1,1l0,0c0,0.6-0.4,1-1,1H22C21.4,37,21,36.6,21,36z"/>
	<path class="st0" d="M6,32L6,32c0-0.6,0.4-1,1-1l8,0c0.6,0,1,0.4,1,1v0c0,0.6-0.4,1-1,1H7C6.4,33,6,32.6,6,32z"/>
	<path class="st0" d="M18,32L18,32c0-0.6,0.4-1,1-1l8,0c0.6,0,1,0.4,1,1v0c0,0.6-0.4,1-1,1h-8C18.4,33,18,32.6,18,32z"/>
	<path class="st0" d="M6,44L6,44c0-0.6,0.4-1,1-1h14c0.6,0,1,0.4,1,1v0c0,0.6-0.4,1-1,1H7C6.4,45,6,44.6,6,44z"/>
	<path class="st0" d="M24,44L24,44c0-0.6,0.4-1,1-1h6c0.6,0,1,0.4,1,1v0c0,0.6-0.4,1-1,1h-6C24.4,45,24,44.6,24,44z"/>
	<path class="st0" d="M16,52L16,52c0-0.6,0.4-1,1-1h3c0.6,0,1,0.4,1,1v0c0,0.6-0.4,1-1,1h-3C16.4,53,16,52.6,16,52z"/>
	<path class="st0" d="M6,52L6,52c0-0.6,0.4-1,1-1h6c0.6,0,1,0.4,1,1v0c0,0.6-0.4,1-1,1H7C6.4,53,6,52.6,6,52z"/>
	<path class="st0" d="M30,32L30,32c0-0.6,0.4-1,1-1l8,0c0.6,0,1,0.4,1,1v0c0,0.6-0.4,1-1,1h-8C30.4,33,30,32.6,30,32z"/>
	<g>
		<circle class="st5" cx="52" cy="18" r="5"/>
		<path class="st17" d="M55.7,21.3c0-0.4-0.3-0.7-0.8-1l-1.3-0.8c-0.1-0.1-0.3-0.2-0.5-0.2v-0.6c0.4-0.3,0.6-0.8,0.6-1.4
			c0-1-0.8-1.9-1.9-1.9s-1.9,0.8-1.9,1.9c0,0.6,0.2,1,0.6,1.4v0.6c-0.2,0-0.3,0.1-0.5,0.2L49,20.3c-0.5,0.3-0.7,0.6-0.8,1
			c0.9,1,2.2,1.7,3.7,1.7S54.8,22.3,55.7,21.3z"/>
		<path class="st0" d="M58,27H46c-0.6,0-1-0.4-1-1v0c0-0.6,0.4-1,1-1h12c0.6,0,1,0.4,1,1v0C59,26.6,58.6,27,58,27z"/>
		<path class="st0" d="M55,31h-6c-0.6,0-1-0.4-1-1v0c0-0.6,0.4-1,1-1h6c0.6,0,1,0.4,1,1v0C56,30.6,55.6,31,55,31z"/>
	</g>
</g>
</svg>
