<?xml version="1.0" encoding="utf-8"?>
<!-- Generator: Adobe Illustrator 21.0.0, SVG Export Plug-In . SVG Version: 6.00 Build 0)  -->
<svg version="1.1" id="Layer_1" xmlns="http://www.w3.org/2000/svg" xmlns:xlink="http://www.w3.org/1999/xlink" x="0px" y="0px"
	 viewBox="0 0 64 60" style="enable-background:new 0 0 64 60;" xml:space="preserve">
<style type="text/css">
	.st0{fill:#CAD1D8;}
	.st1{fill:#9BA7AF;}
	.st2{fill:#FFFFFF;}
	.st3{fill:#E2E5E7;}
	.st4{fill:#595A66;}
	.st5{fill:#ABE1FA;}
	.st6{fill:#6F707E;}
	.st7{fill:#3BB54A;}
	.st8{fill:#0E9347;}
	.st9{fill:#517CBE;}
	.st10{fill:#65CCEF;}
	.st11{fill:#EE2C39;}
	.st12{fill:#CC202C;}
	.st13{fill:#F16351;}
	.st14{fill:#DDDFE1;}
	.st15{fill:#89C763;}
	.st16{fill:#3689C9;}
	.st17{fill:#1B6FAB;}
	.st18{fill:#4C9FD7;}
	.st19{fill:#FDBA4D;}
	.st20{fill:#F19F36;}
	.st21{fill:#F19F35;}
	.st22{fill:#FFFFFF;stroke:#595A66;stroke-width:2;stroke-miterlimit:10;}
	.st23{fill:#1A70AC;}
	.st24{fill:#35363E;}
</style>
<g>
	<path class="st0" d="M0,57V3c0-1.7,1.3-3,3-3h58c1.7,0,3,1.3,3,3v54c0,1.7-1.3,3-3,3H3C1.3,60,0,58.7,0,57z"/>
	<circle class="st1" cx="3" cy="4" r="1"/>
	<circle class="st1" cx="7" cy="4" r="1"/>
	<circle class="st1" cx="11" cy="4" r="1"/>
	<path class="st2" d="M3,8h58c0.6,0,1,0.4,1,1v48c0,0.6-0.4,1-1,1H3c-0.6,0-1-0.4-1-1V9C2,8.4,2.4,8,3,8z"/>
	<path class="st3" d="M61,5H15c-0.6,0-1-0.4-1-1v0c0-0.6,0.4-1,1-1h46c0.6,0,1,0.4,1,1v0C62,4.6,61.6,5,61,5z"/>
	<circle class="st5" cx="12" cy="19" r="4"/>
	<path class="st17" d="M15,21.6c0-0.3-0.2-0.6-0.6-0.8l-1-0.6c-0.1-0.1-0.2-0.1-0.4-0.2v-0.5c0.3-0.3,0.5-0.7,0.5-1.1
		c0-0.8-0.7-1.5-1.5-1.5s-1.5,0.7-1.5,1.5c0,0.4,0.2,0.8,0.5,1.1v0.5c-0.1,0-0.3,0.1-0.4,0.2l-1,0.6C9.3,21,9.1,21.3,9,21.6
		c0.7,0.8,1.8,1.4,3,1.4S14.3,22.5,15,21.6z"/>
	<circle class="st5" cx="12" cy="47" r="4"/>
	<path class="st17" d="M15,49.6c0-0.3-0.2-0.6-0.6-0.8l-1-0.6c-0.1-0.1-0.2-0.1-0.4-0.2v-0.5c0.3-0.3,0.5-0.7,0.5-1.1
		c0-0.8-0.7-1.5-1.5-1.5s-1.5,0.7-1.5,1.5c0,0.4,0.2,0.8,0.5,1.1v0.5c-0.1,0-0.3,0.1-0.4,0.2l-1,0.6C9.3,49,9.1,49.3,9,49.6
		c0.7,0.8,1.8,1.4,3,1.4S14.3,50.5,15,49.6z"/>
	<path class="st0" d="M42,18H20c-0.6,0-1-0.4-1-1v0c0-0.6,0.4-1,1-1h22c0.6,0,1,0.4,1,1v0C43,17.6,42.6,18,42,18z"/>
	<path class="st0" d="M37,22H20c-0.6,0-1-0.4-1-1v0c0-0.6,0.4-1,1-1h17c0.6,0,1,0.4,1,1v0C38,21.6,37.6,22,37,22z"/>
	<path class="st3" d="M56,22h-6c-1.1,0-2-0.9-2-2v0c0-1.1,0.9-2,2-2h6c1.1,0,2,0.9,2,2v0C58,21.1,57.1,22,56,22z"/>
	<path class="st7" d="M56,21h-6c-1.1,0-2-0.9-2-2v0c0-1.1,0.9-2,2-2h6c1.1,0,2,0.9,2,2v0C58,20.1,57.1,21,56,21z"/>
	<circle class="st8" cx="53" cy="19" r="1"/>
	<path class="st0" d="M42,46H20c-0.6,0-1-0.4-1-1l0,0c0-0.6,0.4-1,1-1h22c0.6,0,1,0.4,1,1l0,0C43,45.6,42.6,46,42,46z"/>
	<path class="st0" d="M37,50H20c-0.6,0-1-0.4-1-1l0,0c0-0.6,0.4-1,1-1h17c0.6,0,1,0.4,1,1l0,0C38,49.6,37.6,50,37,50z"/>
	<path class="st3" d="M56,50h-6c-1.1,0-2-0.9-2-2v0c0-1.1,0.9-2,2-2h6c1.1,0,2,0.9,2,2v0C58,49.1,57.1,50,56,50z"/>
	<path class="st7" d="M56,49h-6c-1.1,0-2-0.9-2-2v0c0-1.1,0.9-2,2-2h6c1.1,0,2,0.9,2,2v0C58,48.1,57.1,49,56,49z"/>
	<circle class="st8" cx="53" cy="47" r="1"/>
	<circle class="st5" cx="12" cy="33" r="4"/>
	<path class="st17" d="M15,35.6c0-0.3-0.2-0.6-0.6-0.8l-1-0.6c-0.1-0.1-0.2-0.1-0.4-0.2v-0.5c0.3-0.3,0.5-0.7,0.5-1.1
		c0-0.8-0.7-1.5-1.5-1.5s-1.5,0.7-1.5,1.5c0,0.4,0.2,0.8,0.5,1.1v0.5c-0.1,0-0.3,0.1-0.4,0.2l-1,0.6C9.3,35,9.1,35.3,9,35.6
		c0.7,0.8,1.8,1.4,3,1.4S14.3,36.5,15,35.6z"/>
	<path class="st0" d="M42,32H20c-0.6,0-1-0.4-1-1v0c0-0.6,0.4-1,1-1h22c0.6,0,1,0.4,1,1v0C43,31.6,42.6,32,42,32z"/>
	<path class="st0" d="M37,36H20c-0.6,0-1-0.4-1-1v0c0-0.6,0.4-1,1-1h17c0.6,0,1,0.4,1,1v0C38,35.6,37.6,36,37,36z"/>
	<path class="st3" d="M56,36h-6c-1.1,0-2-0.9-2-2v0c0-1.1,0.9-2,2-2h6c1.1,0,2,0.9,2,2v0C58,35.1,57.1,36,56,36z"/>
	<path class="st7" d="M56,35h-6c-1.1,0-2-0.9-2-2v0c0-1.1,0.9-2,2-2h6c1.1,0,2,0.9,2,2v0C58,34.1,57.1,35,56,35z"/>
	<circle class="st8" cx="53" cy="33" r="1"/>
</g>
</svg>
