<?xml version="1.0" encoding="utf-8"?>
<!-- Generator: Adobe Illustrator 21.0.0, SVG Export Plug-In . SVG Version: 6.00 Build 0)  -->
<svg version="1.1" id="Layer_1" xmlns="http://www.w3.org/2000/svg" xmlns:xlink="http://www.w3.org/1999/xlink" x="0px" y="0px"
	 viewBox="0 0 64 60" style="enable-background:new 0 0 64 60;" xml:space="preserve">
<style type="text/css">
	.st0{fill:#CAD1D8;}
	.st1{fill:#9BA7AF;}
	.st2{fill:#FFFFFF;}
	.st3{fill:#E2E5E7;}
	.st4{fill:#595A66;}
	.st5{fill:#ABE1FA;}
	.st6{fill:#6F707E;}
	.st7{fill:#3BB54A;}
	.st8{fill:#0E9347;}
	.st9{fill:#517CBE;}
	.st10{fill:#65CCEF;}
	.st11{fill:#EE2C39;}
	.st12{fill:#CC202C;}
	.st13{fill:#F16351;}
	.st14{fill:#DDDFE1;}
	.st15{fill:#89C763;}
	.st16{fill:#3689C9;}
	.st17{fill:#1B6FAB;}
	.st18{fill:#4C9FD7;}
	.st19{fill:#FDBA4D;}
	.st20{fill:#F19F36;}
	.st21{fill:#F19F35;}
	.st22{fill:#FFFFFF;stroke:#595A66;stroke-width:2;stroke-miterlimit:10;}
	.st23{fill:#1A70AC;}
	.st24{fill:#35363E;}
</style>
<g>
	<path class="st0" d="M61,0H3C1.3,0,0,1.3,0,3v3v51c0,1.7,1.3,3,3,3h58c1.7,0,3-1.3,3-3V6V3C64,1.3,62.7,0,61,0z"/>
	<circle class="st1" cx="7" cy="4" r="1"/>
	<circle class="st1" cx="11" cy="4" r="1"/>
	<path class="st2" d="M3,8h58c0.6,0,1,0.4,1,1v48c0,0.6-0.4,1-1,1H3c-0.6,0-1-0.4-1-1V9C2,8.4,2.4,8,3,8z"/>
	<path class="st3" d="M61,5H15c-0.6,0-1-0.4-1-1v0c0-0.6,0.4-1,1-1h46c0.6,0,1,0.4,1,1v0C62,4.6,61.6,5,61,5z"/>
	<circle class="st1" cx="3" cy="4" r="1"/>
	<path class="st0" d="M45,18H19c-0.6,0-1-0.4-1-1v0c0-0.6,0.4-1,1-1h26c0.6,0,1,0.4,1,1v0C46,17.6,45.6,18,45,18z"/>
	<path class="st0" d="M40,22H24c-0.6,0-1-0.4-1-1v0c0-0.6,0.4-1,1-1h16c0.6,0,1,0.4,1,1v0C41,21.6,40.6,22,40,22z"/>
	<path class="st0" d="M47.9,28.1c-2.4-0.4-4.5,0.9-5.4,2.8c-0.3,0.7-1,1.1-1.8,1.1l-2.4,0c-0.8,0-1.5-0.4-1.8-1.1
		C35.7,29.2,34,28,32,28s-3.7,1.2-4.5,2.9c-0.3,0.7-1,1.1-1.8,1.1l-2.4,0c-0.8,0-1.5-0.4-1.8-1.1c-0.9-1.9-3-3.2-5.4-2.8
		c-2,0.3-3.6,1.9-4,3.8C11.4,35.2,13.9,38,17,38c2,0,3.7-1.2,4.5-2.9c0.3-0.7,1-1.1,1.8-1.1h2.4c0.8,0,1.5,0.4,1.8,1.1
		C28.3,36.8,30,38,32,38s3.7-1.2,4.5-2.9c0.3-0.7,1-1.1,1.8-1.1h2.4c0.8,0,1.5,0.4,1.8,1.1C43.3,36.8,45,38,47,38
		c3.1,0,5.6-2.8,4.9-6.1C51.5,30,49.9,28.4,47.9,28.1z"/>
	<g>
		<path class="st4" d="M32.2,32.9c0.8-0.6,0.8-1.9-0.4-1.9c-0.4,0-0.8,0.2-1,0.6c-0.3,0.5-1.3,0.2-0.9-0.6c0.4-0.8,1.1-1.1,1.9-1.1
			c2,0,2.9,2.1,1.2,3.7c-0.6,0.5-1.1,0.8-1.7,1.2c0.4,0,0.8-0.1,1.2-0.1h1c0.7,0,0.8,1.1,0,1.1h-3.3c-0.5,0-0.8-0.5-0.4-0.9
			C30.7,34.2,31.4,33.7,32.2,32.9z"/>
	</g>
	<g>
		<path class="st4" d="M47.2,31.1h-1.5c-0.7,0-0.7-1.1,0-1.1h2.6c0.5,0,0.8,0.6,0.4,1l-1.4,1.3c1.1-0.1,1.9,0.7,1.9,1.7
			c0,1.1-0.8,2-2.3,2c-0.7,0-1.4-0.3-1.8-0.9c-0.4-0.6,0.5-1.2,0.9-0.6c0.2,0.3,0.6,0.4,1,0.4c0.5,0,1-0.2,1-0.9
			c0-0.9-1.1-0.8-1.7-0.7c-0.7,0.1-0.9-0.6-0.5-1L47.2,31.1z"/>
	</g>
	<g>
		<path class="st4" d="M16.9,31.4l-0.5,0.2c-0.7,0.2-1.1-0.8-0.3-1.1l1.2-0.4c0.4-0.2,0.8,0,0.8,0.6v4.8c0,0.6-1.1,0.7-1.1,0V31.4z"
			/>
	</g>
	<path class="st3" d="M39,51H25c-1.7,0-3-1.3-3-3v0c0-1.7,1.3-3,3-3h14c1.7,0,3,1.3,3,3v0C42,49.7,40.7,51,39,51z"/>
	<path class="st7" d="M39,50H25c-1.7,0-3-1.3-3-3v0c0-1.7,1.3-3,3-3h14c1.7,0,3,1.3,3,3v0C42,48.7,40.7,50,39,50z"/>
	<circle class="st8" cx="32" cy="47" r="1"/>
	<circle class="st8" cx="36" cy="47" r="1"/>
	<circle class="st8" cx="28" cy="47" r="1"/>
</g>
</svg>
