<?xml version="1.0" encoding="utf-8"?>
<!-- Generator: Adobe Illustrator 21.0.0, SVG Export Plug-In . SVG Version: 6.00 Build 0)  -->
<svg version="1.1" id="Layer_1" xmlns="http://www.w3.org/2000/svg" xmlns:xlink="http://www.w3.org/1999/xlink" x="0px" y="0px"
	 viewBox="0 0 64 60" style="enable-background:new 0 0 64 60;" xml:space="preserve">
<style type="text/css">
	.st0{fill:#CAD1D8;}
	.st1{fill:#9BA7AF;}
	.st2{fill:#FFFFFF;}
	.st3{fill:#E2E5E7;}
	.st4{fill:#595A66;}
	.st5{fill:#ABE1FA;}
	.st6{fill:#6F707E;}
	.st7{fill:#3BB54A;}
	.st8{fill:#0E9347;}
	.st9{fill:#517CBE;}
	.st10{fill:#65CCEF;}
	.st11{fill:#EE2C39;}
	.st12{fill:#CC202C;}
	.st13{fill:#F16351;}
	.st14{fill:#DDDFE1;}
	.st15{fill:#89C763;}
	.st16{fill:#3689C9;}
	.st17{fill:#1B6FAB;}
	.st18{fill:#4C9FD7;}
	.st19{fill:#FDBA4D;}
	.st20{fill:#F19F36;}
	.st21{fill:#F19F35;}
	.st22{fill:#FFFFFF;stroke:#595A66;stroke-width:2;stroke-miterlimit:10;}
	.st23{fill:#1A70AC;}
	.st24{fill:#35363E;}
</style>
<g>
	<path class="st0" d="M0,57V3c0-1.7,1.3-3,3-3h58c1.7,0,3,1.3,3,3v54c0,1.7-1.3,3-3,3H3C1.3,60,0,58.7,0,57z"/>
	<path class="st2" d="M3,8h58c0.6,0,1,0.4,1,1v48c0,0.6-0.4,1-1,1H3c-0.6,0-1-0.4-1-1V9C2,8.4,2.4,8,3,8z"/>
	<circle class="st1" cx="11" cy="4" r="1"/>
	<path class="st3" d="M61,5H15c-0.6,0-1-0.4-1-1v0c0-0.6,0.4-1,1-1h46c0.6,0,1,0.4,1,1v0C62,4.6,61.6,5,61,5z"/>
	<path class="st0" d="M45,47H19c-0.6,0-1-0.4-1-1l0,0c0-0.6,0.4-1,1-1h26c0.6,0,1,0.4,1,1l0,0C46,46.6,45.6,47,45,47z"/>
	<path class="st0" d="M40,51H24c-0.6,0-1-0.4-1-1l0,0c0-0.6,0.4-1,1-1h16c0.6,0,1,0.4,1,1l0,0C41,50.6,40.6,51,40,51z"/>
	<circle class="st1" cx="3" cy="4" r="1"/>
	<circle class="st1" cx="7" cy="4" r="1"/>
	<g>
		<circle class="st16" cx="32" cy="27" r="13"/>
		<path class="st2" d="M38.3,25.5c-0.8-0.7-2.1-0.6-2.8,0.3L34,27.5V21c0-1.1-0.9-2-2-2s-2,0.9-2,2v6.5l-1.5-1.8
			c-0.7-0.8-2-1-2.8-0.3c-0.8,0.7-1,2-0.3,2.8l5,6c0.4,0.5,0.9,0.7,1.5,0.7c0.6,0,1.2-0.3,1.5-0.7l5-6
			C39.2,27.4,39.1,26.2,38.3,25.5z"/>
		<g>
			<path class="st14" d="M38.3,25.5c-0.1-0.1-0.3-0.2-0.5-0.3c0.3,0.7,0.2,1.5-0.3,2.1l-5,6C32.2,33.7,31.6,34,31,34
				c-0.4,0-0.7-0.1-1-0.3l0.5,0.6c0.4,0.5,0.9,0.7,1.5,0.7c0.6,0,1.2-0.3,1.5-0.7l5-6C39.2,27.4,39.1,26.2,38.3,25.5z"/>
		</g>
		<path class="st17" d="M43,25c-1.1,0-2,0.9-2,2c0,5-4,9-9,9c-1.1,0-2,0.9-2,2c0,1.1,0.9,2,2,2c7.2,0,13-5.8,13-13
			C45,25.9,44.1,25,43,25z"/>
		<path class="st18" d="M21,29c1.1,0,2-0.9,2-2c0-5,4-9,9-9c1.1,0,2-0.9,2-2c0-1.1-0.9-2-2-2c-7.2,0-13,5.8-13,13
			C19,28.1,19.9,29,21,29z"/>
		<g>
			<path class="st17" d="M34,21v6.5l1-1.2V22c0-0.8-0.5-1.5-1.2-1.8C33.9,20.4,34,20.7,34,21z"/>
			<path class="st17" d="M39.3,26.5c-0.1-0.1-0.3-0.2-0.5-0.3c0.3,0.7,0.2,1.5-0.3,2.1l-5,6C33.2,34.7,32.6,35,32,35
				c-0.4,0-0.7-0.1-1-0.3l0.5,0.6c0.4,0.5,0.9,0.7,1.5,0.7c0.6,0,1.2-0.3,1.5-0.7l5-6C40.2,28.4,40.1,27.2,39.3,26.5z"/>
		</g>
		<g>
			<path class="st14" d="M34,27.5c-0.6,0-1-0.4-1-1V20c0-0.3-0.1-0.6-0.2-0.8c0.7,0.3,1.2,1,1.2,1.8V27.5L34,27.5z"/>
		</g>
	</g>
</g>
</svg>
