<?xml version="1.0" encoding="utf-8"?>
<!-- Generator: Adobe Illustrator 21.0.0, SVG Export Plug-In . SVG Version: 6.00 Build 0)  -->
<svg version="1.1" id="Layer_1" xmlns="http://www.w3.org/2000/svg" xmlns:xlink="http://www.w3.org/1999/xlink" x="0px" y="0px"
	 viewBox="0 0 64 60" style="enable-background:new 0 0 64 60;" xml:space="preserve">
<style type="text/css">
	.st0{fill:#CAD1D8;}
	.st1{fill:#9BA7AF;}
	.st2{fill:#FFFFFF;}
	.st3{fill:#E2E5E7;}
	.st4{fill:#595A66;}
	.st5{fill:#ABE1FA;}
	.st6{fill:#6F707E;}
	.st7{fill:#3BB54A;}
	.st8{fill:#0E9347;}
	.st9{fill:#517CBE;}
	.st10{fill:#65CCEF;}
	.st11{fill:#EE2C39;}
	.st12{fill:#CC202C;}
	.st13{fill:#F16351;}
	.st14{fill:#DDDFE1;}
	.st15{fill:#89C763;}
	.st16{fill:#3689C9;}
	.st17{fill:#1B6FAB;}
	.st18{fill:#4C9FD7;}
	.st19{fill:#FDBA4D;}
	.st20{fill:#F19F36;}
	.st21{fill:#F19F35;}
	.st22{fill:#FFFFFF;stroke:#595A66;stroke-width:2;stroke-miterlimit:10;}
	.st23{fill:#1A70AC;}
	.st24{fill:#35363E;}
</style>
<g>
	<path class="st0" d="M0,57V3c0-1.7,1.3-3,3-3h58c1.7,0,3,1.3,3,3v54c0,1.7-1.3,3-3,3H3C1.3,60,0,58.7,0,57z"/>
	<path class="st5" d="M3,8h58c0.6,0,1,0.4,1,1v48c0,0.6-0.4,1-1,1H3c-0.6,0-1-0.4-1-1V9C2,8.4,2.4,8,3,8z"/>
	<circle class="st19" cx="13" cy="22" r="4"/>
	<path class="st2" d="M62,53L43.8,34.8c-1-1-2.6-1-3.5,0L17,58h43.9c0.6,0,1.1-0.5,1.1-1.1V53z"/>
	<path class="st3" d="M52,45.5L52,45.5c-0.7,0.7-0.7,1.8,0,2.5l1.5,1.5c2.3,2.3,3.5,5.3,3.5,8.5v0h3.9c0.6,0,1.1-0.5,1.1-1.1V53
		l-7.5-7.5C53.8,44.8,52.7,44.8,52,45.5z"/>
	<path class="st2" d="M3.1,58h31.4L18.9,40.2c-1-1.1-2.8-1.1-3.8,0L2,53v3.9C2,57.5,2.5,58,3.1,58z"/>
	<path class="st3" d="M32.5,50c-1.5-1.8-4-2.1-6-1.1l8,9.1h5L32.5,50z"/>
	<path class="st2" d="M41.5,20c-1,0-1.9,0.6-2.3,1.4C38.9,21.2,38.5,21,38,21c-1.1,0-2,0.9-2,2c0,1.1,0.9,2,2,2h3.5
		c1.4,0,2.5-1.1,2.5-2.5C44,21.1,42.9,20,41.5,20z"/>
	<path class="st2" d="M51.5,18c-1,0-1.9,0.6-2.3,1.4C48.9,19.2,48.5,19,48,19c-1.1,0-2,0.9-2,2c0,1.1,0.9,2,2,2h3.5
		c1.4,0,2.5-1.1,2.5-2.5C54,19.1,52.9,18,51.5,18z"/>
	<path class="st7" d="M39,46H25c-1.7,0-3-1.3-3-3v0c0-1.7,1.3-3,3-3h14c1.7,0,3,1.3,3,3v0C42,44.7,40.7,46,39,46z"/>
	<circle class="st8" cx="32" cy="43" r="1"/>
	<circle class="st8" cx="36" cy="43" r="1"/>
	<circle class="st8" cx="28" cy="43" r="1"/>
	<circle class="st1" cx="3" cy="4" r="1"/>
	<circle class="st1" cx="7" cy="4" r="1"/>
	<circle class="st1" cx="11" cy="4" r="1"/>
	<path class="st4" d="M6,12L6,12c0-0.6,0.4-1,1-1l5,0c0.6,0,1,0.4,1,1v0c0,0.6-0.4,1-1,1l-5,0C6.4,13,6,12.6,6,12z"/>
	<path class="st4" d="M52,12L52,12c0-0.6,0.4-1,1-1l4,0c0.6,0,1,0.4,1,1v0c0,0.6-0.4,1-1,1l-4,0C52.4,13,52,12.6,52,12z"/>
	<path class="st4" d="M44,12L44,12c0-0.6,0.4-1,1-1l4,0c0.6,0,1,0.4,1,1v0c0,0.6-0.4,1-1,1l-4,0C44.4,13,44,12.6,44,12z"/>
	<path class="st4" d="M36,12L36,12c0-0.6,0.4-1,1-1l4,0c0.6,0,1,0.4,1,1v0c0,0.6-0.4,1-1,1l-4,0C36.4,13,36,12.6,36,12z"/>
	<path class="st3" d="M61,5H15c-0.6,0-1-0.4-1-1v0c0-0.6,0.4-1,1-1h46c0.6,0,1,0.4,1,1v0C62,4.6,61.6,5,61,5z"/>
	<path class="st4" d="M45,31H19c-0.6,0-1-0.4-1-1v0c0-0.6,0.4-1,1-1h26c0.6,0,1,0.4,1,1v0C46,30.6,45.6,31,45,31z"/>
	<path class="st4" d="M40,35H24c-0.6,0-1-0.4-1-1l0,0c0-0.6,0.4-1,1-1h16c0.6,0,1,0.4,1,1l0,0C41,34.6,40.6,35,40,35z"/>
</g>
</svg>
