<?xml version="1.0" encoding="utf-8"?>
<!-- Generator: Adobe Illustrator 21.0.0, SVG Export Plug-In . SVG Version: 6.00 Build 0)  -->
<svg version="1.1" id="Layer_1" xmlns="http://www.w3.org/2000/svg" xmlns:xlink="http://www.w3.org/1999/xlink" x="0px" y="0px"
	 viewBox="0 0 64 60" style="enable-background:new 0 0 64 60;" xml:space="preserve">
<style type="text/css">
	.st0{fill:#CAD1D8;}
	.st1{fill:#9BA7AF;}
	.st2{fill:#FFFFFF;}
	.st3{fill:#E2E5E7;}
	.st4{fill:#595A66;}
	.st5{fill:#ABE1FA;}
	.st6{fill:#6F707E;}
	.st7{fill:#3BB54A;}
	.st8{fill:#0E9347;}
	.st9{fill:#517CBE;}
	.st10{fill:#65CCEF;}
	.st11{fill:#EE2C39;}
	.st12{fill:#CC202C;}
	.st13{fill:#F16351;}
	.st14{fill:#DDDFE1;}
	.st15{fill:#89C763;}
	.st16{fill:#3689C9;}
	.st17{fill:#1B6FAB;}
	.st18{fill:#4C9FD7;}
	.st19{fill:#FDBA4D;}
	.st20{fill:#F19F36;}
	.st21{fill:#F19F35;}
	.st22{fill:#FFFFFF;stroke:#595A66;stroke-width:2;stroke-miterlimit:10;}
	.st23{fill:#1A70AC;}
	.st24{fill:#35363E;}
</style>
<g>
	<path class="st0" d="M0,57V3c0-1.7,1.3-3,3-3h58c1.7,0,3,1.3,3,3v54c0,1.7-1.3,3-3,3H3C1.3,60,0,58.7,0,57z"/>
	<circle class="st1" cx="3" cy="4" r="1"/>
	<circle class="st1" cx="7" cy="4" r="1"/>
	<circle class="st1" cx="11" cy="4" r="1"/>
	<path class="st2" d="M3,8h58c0.6,0,1,0.4,1,1v48c0,0.6-0.4,1-1,1H3c-0.6,0-1-0.4-1-1V9C2,8.4,2.4,8,3,8z"/>
	<path class="st3" d="M61,5H15c-0.6,0-1-0.4-1-1v0c0-0.6,0.4-1,1-1h46c0.6,0,1,0.4,1,1v0C62,4.6,61.6,5,61,5z"/>
	<path class="st0" d="M7,15L7,15c0-0.6,0.4-1,1-1l10,0c0.6,0,1,0.4,1,1v0c0,0.6-0.4,1-1,1L8,16C7.4,16,7,15.6,7,15z"/>
	<path class="st0" d="M7,23L7,23c0-0.6,0.4-1,1-1l10,0c0.6,0,1,0.4,1,1v0c0,0.6-0.4,1-1,1L8,24C7.4,24,7,23.6,7,23z"/>
	<path class="st0" d="M7,31L7,31c0-0.6,0.4-1,1-1l10,0c0.6,0,1,0.4,1,1v0c0,0.6-0.4,1-1,1H8C7.4,32,7,31.6,7,31z"/>
	<path class="st1" d="M56,14H26c-0.6,0-1,0.4-1,1v4c0,0.6,0.4,1,1,1h30c0.6,0,1-0.4,1-1v-4C57,14.4,56.6,14,56,14z M56,19H26v-4h30
		V19z"/>
	<path class="st1" d="M56,22H26c-0.6,0-1,0.4-1,1v4c0,0.6,0.4,1,1,1h30c0.6,0,1-0.4,1-1v-4C57,22.4,56.6,22,56,22z M56,27H26v-4h30
		V27z"/>
	<g>
		<path class="st3" d="M54,53H40c-1.7,0-3-1.3-3-3v0c0-1.7,1.3-3,3-3h14c1.7,0,3,1.3,3,3v0C57,51.7,55.7,53,54,53z"/>
		<path class="st7" d="M54,52H40c-1.7,0-3-1.3-3-3v0c0-1.7,1.3-3,3-3h14c1.7,0,3,1.3,3,3v0C57,50.7,55.7,52,54,52z"/>
		<circle class="st8" cx="47" cy="49" r="1"/>
		<circle class="st8" cx="51" cy="49" r="1"/>
		<circle class="st8" cx="43" cy="49" r="1"/>
	</g>
	<rect x="26" y="15" class="st3" width="30" height="4"/>
	<rect x="26" y="23" class="st3" width="30" height="4"/>
	<path class="st1" d="M56,30H26c-0.6,0-1,0.4-1,1v10c0,0.6,0.4,1,1,1h30c0.6,0,1-0.4,1-1V31C57,30.4,56.6,30,56,30z M56,41H26V31h30
		V41z"/>
	<rect x="26" y="31" class="st3" width="30" height="10"/>
</g>
</svg>
