<?xml version="1.0" encoding="utf-8"?>
<!-- Generator: Adobe Illustrator 21.0.0, SVG Export Plug-In . SVG Version: 6.00 Build 0)  -->
<svg version="1.1" id="Layer_1" xmlns="http://www.w3.org/2000/svg" xmlns:xlink="http://www.w3.org/1999/xlink" x="0px" y="0px"
	 viewBox="0 0 64 60" style="enable-background:new 0 0 64 60;" xml:space="preserve">
<style type="text/css">
	.st0{fill:#CAD1D8;}
	.st1{fill:#9BA7AF;}
	.st2{fill:#FFFFFF;}
	.st3{fill:#E2E5E7;}
	.st4{fill:#595A66;}
	.st5{fill:#ABE1FA;}
	.st6{fill:#6F707E;}
	.st7{fill:#3BB54A;}
	.st8{fill:#0E9347;}
	.st9{fill:#517CBE;}
	.st10{fill:#65CCEF;}
	.st11{fill:#EE2C39;}
	.st12{fill:#CC202C;}
	.st13{fill:#F16351;}
	.st14{fill:#DDDFE1;}
	.st15{fill:#89C763;}
	.st16{fill:#3689C9;}
	.st17{fill:#1B6FAB;}
	.st18{fill:#4C9FD7;}
	.st19{fill:#FDBA4D;}
	.st20{fill:#F19F36;}
	.st21{fill:#F19F35;}
	.st22{fill:#FFFFFF;stroke:#595A66;stroke-width:2;stroke-miterlimit:10;}
	.st23{fill:#1A70AC;}
	.st24{fill:#35363E;}
</style>
<g>
	<path class="st0" d="M0,57V3c0-1.7,1.3-3,3-3h58c1.7,0,3,1.3,3,3v54c0,1.7-1.3,3-3,3H3C1.3,60,0,58.7,0,57z"/>
	<circle class="st1" cx="3" cy="4" r="1"/>
	<circle class="st1" cx="7" cy="4" r="1"/>
	<circle class="st1" cx="11" cy="4" r="1"/>
	<path class="st2" d="M3,8h58c0.6,0,1,0.4,1,1v48c0,0.6-0.4,1-1,1H3c-0.6,0-1-0.4-1-1V9C2,8.4,2.4,8,3,8z"/>
	<path class="st3" d="M61,5H15c-0.6,0-1-0.4-1-1v0c0-0.6,0.4-1,1-1h46c0.6,0,1,0.4,1,1v0C62,4.6,61.6,5,61,5z"/>
	<path class="st3" d="M57,24H20V14h37c0.6,0,1,0.4,1,1v8C58,23.6,57.6,24,57,24z"/>
	<path class="st4" d="M53,20H26c-0.6,0-1-0.4-1-1v0c0-0.6,0.4-1,1-1h27c0.6,0,1,0.4,1,1v0C54,19.6,53.6,20,53,20z"/>
	<circle class="st22" cx="28" cy="19" r="2"/>
	<g>
		<g>
			<g>
				<path class="st16" d="M7,23.5c-0.3,0-0.5-0.2-0.5-0.5v-8c0-0.3,0.2-0.5,0.5-0.5h12.5v9H7z"/>
			</g>
			<path class="st23" d="M7,14c-0.6,0-1,0.4-1,1v8c0,0.6,0.4,1,1,1h13V14H7z M19,23H7v-8h12V23z"/>
		</g>
	</g>
	<g>
		<path class="st23" d="M14.7,19.6l-3-1.5c-0.2-0.1-0.3-0.1-0.5,0c-0.1,0.1-0.2,0.3-0.2,0.4v3c0,0.2,0.1,0.3,0.2,0.4
			c0.1,0,0.2,0.1,0.3,0.1c0.1,0,0.2,0,0.2-0.1l3-1.5c0.2-0.1,0.3-0.3,0.3-0.4S14.9,19.6,14.7,19.6z"/>
		<path class="st2" d="M14.7,18.6l-3-1.5c-0.2-0.1-0.3-0.1-0.5,0c-0.1,0.1-0.2,0.3-0.2,0.4v3c0,0.2,0.1,0.3,0.2,0.4
			c0.1,0,0.2,0.1,0.3,0.1c0.1,0,0.2,0,0.2-0.1l3-1.5c0.2-0.1,0.3-0.3,0.3-0.4S14.9,18.6,14.7,18.6z"/>
	</g>
	<g>
		<path class="st0" d="M37,50H8c-0.6,0-1-0.4-1-1v0c0-0.6,0.4-1,1-1h29c0.6,0,1,0.4,1,1v0C38,49.6,37.6,50,37,50z"/>
		<path class="st0" d="M31,46H8c-0.6,0-1-0.4-1-1l0,0c0-0.6,0.4-1,1-1h23c0.6,0,1,0.4,1,1l0,0C32,45.6,31.6,46,31,46z"/>
		<path class="st0" d="M40,49L40,49c0-0.6,0.4-1,1-1h12c0.6,0,1,0.4,1,1l0,0c0,0.6-0.4,1-1,1H41C40.4,50,40,49.6,40,49z"/>
		<path class="st0" d="M34,45L34,45c0-0.6,0.4-1,1-1h19c0.6,0,1,0.4,1,1l0,0c0,0.6-0.4,1-1,1H35C34.4,46,34,45.6,34,45z"/>
		<path class="st0" d="M31,30H8c-0.6,0-1-0.4-1-1v0c0-0.6,0.4-1,1-1h23c0.6,0,1,0.4,1,1v0C32,29.6,31.6,30,31,30z"/>
		<path class="st0" d="M34,29L34,29c0-0.6,0.4-1,1-1l19,0c0.6,0,1,0.4,1,1v0c0,0.6-0.4,1-1,1l-19,0C34.4,30,34,29.6,34,29z"/>
		<path class="st0" d="M7,53L7,53c0-0.6,0.4-1,1-1h15c0.6,0,1,0.4,1,1l0,0c0,0.6-0.4,1-1,1H8C7.4,54,7,53.6,7,53z"/>
		<path class="st0" d="M47,41L47,41c0-0.6,0.4-1,1-1h7c0.6,0,1,0.4,1,1v0c0,0.6-0.4,1-1,1h-7C47.4,42,47,41.6,47,41z"/>
		<path class="st0" d="M27,38H8c-0.6,0-1-0.4-1-1l0,0c0-0.6,0.4-1,1-1h19c0.6,0,1,0.4,1,1l0,0C28,37.6,27.6,38,27,38z"/>
		<path class="st0" d="M30,37L30,37c0-0.6,0.4-1,1-1h19c0.6,0,1,0.4,1,1v0c0,0.6-0.4,1-1,1H31C30.4,38,30,37.6,30,37z"/>
		<path class="st0" d="M7,41L7,41c0-0.6,0.4-1,1-1h26c0.6,0,1,0.4,1,1v0c0,0.6-0.4,1-1,1H8C7.4,42,7,41.6,7,41z"/>
		<path class="st0" d="M37,41L37,41c0-0.6,0.4-1,1-1h6c0.6,0,1,0.4,1,1v0c0,0.6-0.4,1-1,1h-6C37.4,42,37,41.6,37,41z"/>
		<path class="st0" d="M47,34H8c-0.6,0-1-0.4-1-1l0,0c0-0.6,0.4-1,1-1h39c0.6,0,1,0.4,1,1l0,0C48,33.6,47.6,34,47,34z"/>
		<path class="st0" d="M50,33L50,33c0-0.6,0.4-1,1-1h3c0.6,0,1,0.4,1,1l0,0c0,0.6-0.4,1-1,1h-3C50.4,34,50,33.6,50,33z"/>
	</g>
</g>
</svg>
