<?xml version="1.0" encoding="utf-8"?>
<!-- Generator: Adobe Illustrator 21.0.0, SVG Export Plug-In . SVG Version: 6.00 Build 0)  -->
<svg version="1.1" xmlns="http://www.w3.org/2000/svg" xmlns:xlink="http://www.w3.org/1999/xlink" x="0px" y="0px"
	 viewBox="0 0 64 60" style="enable-background:new 0 0 64 60;" xml:space="preserve">
<style type="text/css">
	.st0{fill:#CAD1D8;}
	.st1{fill:#FFFFFF;}
	.st2{fill:#595A66;}
	.st3{fill:#9BA7AF;}
	.st4{fill:#E2E5E7;}
	.st5{fill:#ABE1FA;}
	.st6{fill:#FDBA4D;}
	.st7{fill:#F19F35;}
	.st8{fill:#3BB54A;}
	.st9{fill:#0E9347;}
	.st10{fill:#E6E7E8;}
	.st11{fill:#BCBEC0;}
	.st12{fill:#D1D3D4;}
	.st13{fill:#A7A9AC;}
	.st14{fill:#DCDDDE;}
	.st15{fill:#B1B3B6;}
	.st16{fill:#C7C8CA;}
	.st17{fill:#9D9FA2;}
	.st18{fill:#3689C9;}
	.st19{fill:#EE2C39;}
	.st20{fill:#FFFFFF;stroke:#595A66;stroke-width:2;stroke-miterlimit:10;}
	.st21{fill:#F19F36;}
	.st22{fill:#D4D5D6;}
	.st23{fill:#35363E;}
	.st24{fill:#CC202C;}
	.st25{fill:#1A70AC;}
	.st26{fill:#BD6428;}
	.st27{fill:#A35723;}
	.st28{fill:#A35623;}
	.st29{fill:#DDDFE1;}
	.st30{fill:#1B6FAB;}
	.st31{fill:#165D91;}
	.st32{fill:#699DC4;}
	.st33{fill:#6F707E;}
	.st34{fill:#4C9FD7;}
	.st35{fill:#748B9E;}
	.st36{fill:#78B6E4;}
</style>
<g id="Layer_62">
</g>
<g id="Layer_60">
</g>
<g id="Layer_59">
</g>
<g id="Layer_58">
</g>
<g id="Layer_57">
</g>
<g id="Layer_56">
</g>
<g id="Layer_55">
</g>
<g id="Layer_54">
</g>
<g id="Layer_53">
</g>
<g id="Layer_52">
</g>
<g id="Layer_51">
</g>
<g id="Layer_50">
</g>
<g id="Layer_49">
</g>
<g id="Layer_48">
</g>
<g id="Layer_47">
</g>
<g id="Layer_46">
</g>
<g id="Layer_45">
</g>
<g id="Layer_44">
</g>
<g id="Layer_43">
</g>
<g id="Layer_42">
</g>
<g id="Layer_41">
</g>
<g id="Layer_40">
</g>
<g id="Layer_39">
</g>
<g id="Layer_38">
</g>
<g id="Layer_37">
</g>
<g id="Layer_36">
</g>
<g id="Layer_35">
</g>
<g id="Layer_34">
</g>
<g id="Layer_33">
</g>
<g id="Layer_32">
</g>
<g id="Layer_31">
</g>
<g id="Layer_30">
</g>
<g id="Layer_29">
</g>
<g id="Layer_28">
</g>
<g id="Layer_27">
</g>
<g id="Layer_26">
</g>
<g id="Layer_25">
</g>
<g id="Layer_24">
</g>
<g id="Layer_23">
</g>
<g id="Layer_22">
</g>
<g id="Layer_21">
</g>
<g id="Layer_20">
</g>
<g id="Layer_19">
</g>
<g id="Layer_18">
</g>
<g id="Layer_17">
</g>
<g id="Layer_16">
</g>
<g id="Layer_15">
</g>
<g id="Layer_14">
</g>
<g id="Layer_13">
</g>
<g id="Layer_12">
</g>
<g id="Layer_11">
</g>
<g id="Layer_10">
</g>
<g id="Layer_9">
</g>
<g id="Layer_8">
</g>
<g id="Layer_7">
</g>
<g id="Layer_6">
</g>
<g id="Layer_5">
	<g>
		<path class="st0" d="M0,57V3c0-1.7,1.3-3,3-3h58c1.7,0,3,1.3,3,3v54c0,1.7-1.3,3-3,3H3C1.3,60,0,58.7,0,57z"/>
		<circle class="st3" cx="3" cy="4" r="1"/>
		<circle class="st3" cx="7" cy="4" r="1"/>
		<circle class="st3" cx="11" cy="4" r="1"/>
		<path class="st1" d="M3,8h58c0.6,0,1,0.4,1,1v48c0,0.6-0.4,1-1,1H3c-0.6,0-1-0.4-1-1V9C2,8.4,2.4,8,3,8z"/>
		<path class="st4" d="M61,5H15c-0.6,0-1-0.4-1-1v0c0-0.6,0.4-1,1-1h46c0.6,0,1,0.4,1,1v0C62,4.6,61.6,5,61,5z"/>
		<path class="st6" d="M19,39H8c-0.6,0-1-0.4-1-1v-8c0-0.6,0.4-1,1-1h11c0.6,0,1,0.4,1,1v8C20,38.6,19.6,39,19,39z"/>
		<path class="st5" d="M45,39H23c-0.6,0-1-0.4-1-1v-8c0-0.6,0.4-1,1-1h22c0.6,0,1,0.4,1,1v8C46,38.6,45.6,39,45,39z"/>
		<path class="st6" d="M14,45H8c-0.6,0-1-0.4-1-1v-2c0-0.6,0.4-1,1-1h6c0.6,0,1,0.4,1,1v2C15,44.6,14.6,45,14,45z"/>
		<path class="st8" d="M56,45H43c-0.6,0-1-0.4-1-1v-2c0-0.6,0.4-1,1-1h13c0.6,0,1,0.4,1,1v2C57,44.6,56.6,45,56,45z"/>
		<path class="st8" d="M39,45H18c-0.6,0-1-0.4-1-1v-2c0-0.6,0.4-1,1-1h21c0.6,0,1,0.4,1,1v2C40,44.6,39.6,45,39,45z"/>
		<path class="st8" d="M50,11h6c0.6,0,1,0.4,1,1v2c0,0.6-0.4,1-1,1h-6c-0.6,0-1-0.4-1-1v-2C49,11.4,49.4,11,50,11z"/>
		<path class="st6" d="M8,11h13c0.6,0,1,0.4,1,1v2c0,0.6-0.4,1-1,1H8c-0.6,0-1-0.4-1-1v-2C7,11.4,7.4,11,8,11z"/>
		<path class="st5" d="M25,11h21c0.6,0,1,0.4,1,1v2c0,0.6-0.4,1-1,1H25c-0.6,0-1-0.4-1-1v-2C24,11.4,24.4,11,25,11z"/>
		<path class="st8" d="M56,39h-7c-0.6,0-1-0.4-1-1v-8c0-0.6,0.4-1,1-1h7c0.6,0,1,0.4,1,1v8C57,38.6,56.6,39,56,39z"/>
		<path class="st8" d="M15,27H8c-0.6,0-1-0.4-1-1v-8c0-0.6,0.4-1,1-1h7c0.6,0,1,0.4,1,1v8C16,26.6,15.6,27,15,27z"/>
		<path class="st8" d="M33,27H19c-0.6,0-1-0.4-1-1v-8c0-0.6,0.4-1,1-1h14c0.6,0,1,0.4,1,1v8C34,26.6,33.6,27,33,27z"/>
		<path class="st5" d="M56,27H37c-0.6,0-1-0.4-1-1v-8c0-0.6,0.4-1,1-1h19c0.6,0,1,0.4,1,1v8C57,26.6,56.6,27,56,27z"/>
		<g>
			<path class="st19" d="M17,21c-2.2,0-4,1.8-4,4c0,2.7,2.8,7.1,3.2,7.6c0.2,0.3,0.5,0.4,0.8,0.4s0.6-0.2,0.8-0.4
				c0.3-0.5,3.2-4.8,3.2-7.6C21,22.8,19.2,21,17,21z"/>
			<path class="st24" d="M17.8,32.6c0.3-0.5,3.2-4.8,3.2-7.6c0,0,0,0,0-0.1c0-2.6-4-2.5-4,0.1V33C17.3,33,17.6,32.8,17.8,32.6z"/>
			<circle class="st1" cx="17" cy="25" r="1"/>
		</g>
		<path class="st0" d="M45.1,50H8c-0.6,0-1-0.4-1-1v0c0-0.6,0.4-1,1-1h37.1c0.6,0,1,0.4,1,1v0C46.1,49.6,45.7,50,45.1,50z"/>
		<path class="st0" d="M27.1,53L27.1,53c0-0.6,0.4-1,1-1h3c0.6,0,1,0.4,1,1l0,0c0,0.6-0.4,1-1,1h-3C27.6,54,27.1,53.6,27.1,53z"/>
		<path class="st0" d="M7,53L7,53c0-0.6,0.4-1,1-1h16.1c0.6,0,1,0.4,1,1l0,0c0,0.6-0.4,1-1,1H8C7.4,54,7,53.6,7,53z"/>
		<path class="st36" d="M43,32H26c-0.6,0-1-0.4-1-1v-1h19v1C44,31.6,43.6,32,43,32z"/>
		<path class="st2" d="M43,31H26c-0.6,0-1-0.4-1-1v-3l-2-2l2-2v-3c0-0.6,0.4-1,1-1h17c0.6,0,1,0.4,1,1v10C44,30.6,43.6,31,43,31z"/>
		<path class="st4" d="M28,23L28,23c0-0.6,0.4-1,1-1h11c0.6,0,1,0.4,1,1v0c0,0.6-0.4,1-1,1l-11,0C28.4,24,28,23.6,28,23z"/>
		<path class="st4" d="M28,27L28,27c0-0.6,0.4-1,1-1l5,0c0.6,0,1,0.4,1,1v0c0,0.6-0.4,1-1,1l-5,0C28.4,28,28,27.6,28,27z"/>
		<circle class="st4" cx="38" cy="27" r="1"/>
	</g>
</g>
<g id="Layer_4">
</g>
<g id="Layer_3">
</g>
<g id="Layer_2">
</g>
</svg>
