<?xml version="1.0" encoding="utf-8"?>
<!-- Generator: Adobe Illustrator 21.0.0, SVG Export Plug-In . SVG Version: 6.00 Build 0)  -->
<svg version="1.1" id="Layer_1" xmlns="http://www.w3.org/2000/svg" xmlns:xlink="http://www.w3.org/1999/xlink" x="0px" y="0px"
	 viewBox="0 0 64 60" style="enable-background:new 0 0 64 60;" xml:space="preserve">
<style type="text/css">
	.st0{fill:#CAD1D8;}
	.st1{fill:#9BA7AF;}
	.st2{fill:#FFFFFF;}
	.st3{fill:#E2E5E7;}
	.st4{fill:#595A66;}
	.st5{fill:#ABE1FA;}
	.st6{fill:#6F707E;}
	.st7{fill:#3BB54A;}
	.st8{fill:#0E9347;}
	.st9{fill:#517CBE;}
	.st10{fill:#65CCEF;}
	.st11{fill:#EE2C39;}
	.st12{fill:#CC202C;}
	.st13{fill:#F16351;}
	.st14{fill:#DDDFE1;}
	.st15{fill:#89C763;}
	.st16{fill:#3689C9;}
	.st17{fill:#1B6FAB;}
	.st18{fill:#4C9FD7;}
	.st19{fill:#FDBA4D;}
	.st20{fill:#F19F36;}
	.st21{fill:#F19F35;}
	.st22{fill:#FFFFFF;stroke:#595A66;stroke-width:2;stroke-miterlimit:10;}
	.st23{fill:#1A70AC;}
	.st24{fill:#35363E;}
</style>
<g>
	<path class="st0" d="M0,57V3c0-1.7,1.3-3,3-3h58c1.7,0,3,1.3,3,3v54c0,1.7-1.3,3-3,3H3C1.3,60,0,58.7,0,57z"/>
	<path class="st2" d="M3,8h58c0.6,0,1,0.4,1,1v48c0,0.6-0.4,1-1,1H3c-0.6,0-1-0.4-1-1V9C2,8.4,2.4,8,3,8z"/>
	<path class="st5" d="M53,44H11c-1.1,0-2-0.9-2-2V14c0-1.1,0.9-2,2-2h42c1.1,0,2,0.9,2,2v28C55,43.1,54.1,44,53,44z"/>
	<circle class="st21" cx="18" cy="20" r="4"/>
	<path class="st4" d="M18.9,29.7L9,39.5V42c0,1.1,0.9,2,2,2h23.4L21.9,29.7C21.1,28.8,19.7,28.8,18.9,29.7z"/>
	<path class="st4" d="M55,42v-3.4L41.8,25.4c-0.8-0.8-2-0.8-2.8,0L20.4,44H53C54.1,44,55,43.1,55,42z"/>
	<path class="st24" d="M55,42v-3.4L50.4,34c-0.6-0.6-1.4-0.6-2,0c-0.6,0.6-0.6,1.4,0,2l1.2,1.2c1.8,1.8,2.8,4.3,2.8,6.8H53
		C54.1,44,55,43.1,55,42z"/>
	<path class="st24" d="M32.8,37.6c-1.2-1.4-3.2-1.7-4.8-0.9l6.4,7.3h4L32.8,37.6z"/>
	<path class="st6" d="M35.7,32.5L35.7,32.5c0.4,0.4,1,0.4,1.4,0l2.8-2.8c0.4-0.4,0.4-1,0-1.4v0c-0.4-0.4-1-0.4-1.4,0l-2.8,2.8
		C35.3,31.5,35.3,32.1,35.7,32.5z"/>
	<path class="st6" d="M15.9,36.7L15.9,36.7c0.4,0.4,1,0.4,1.4,0l2.8-2.8c0.4-0.4,0.4-1,0-1.4l0,0c-0.4-0.4-1-0.4-1.4,0l-2.8,2.8
		C15.5,35.7,15.5,36.3,15.9,36.7z"/>
	<circle class="st1" cx="3" cy="4" r="1"/>
	<circle class="st1" cx="7" cy="4" r="1"/>
	<circle class="st1" cx="11" cy="4" r="1"/>
	<path class="st3" d="M61,5H15c-0.6,0-1-0.4-1-1v0c0-0.6,0.4-1,1-1h46c0.6,0,1,0.4,1,1v0C62,4.6,61.6,5,61,5z"/>
	<path class="st0" d="M47,49H19c-0.6,0-1-0.4-1-1l0,0c0-0.6,0.4-1,1-1h28c0.6,0,1,0.4,1,1l0,0C48,48.6,47.6,49,47,49z"/>
	<path class="st0" d="M36,53H19c-0.6,0-1-0.4-1-1l0,0c0-0.6,0.4-1,1-1h17c0.6,0,1,0.4,1,1l0,0C37,52.6,36.6,53,36,53z"/>
	<circle class="st0" cx="12" cy="50" r="3"/>
	<g>
		<path class="st1" d="M58,33c-0.2,0-0.4-0.1-0.6-0.2c-0.5-0.3-0.6-0.9-0.3-1.4l1.6-2.4l-1.6-2.4c-0.3-0.5-0.2-1.1,0.3-1.4
			c0.5-0.3,1.1-0.2,1.4,0.3l2,3c0.2,0.3,0.2,0.8,0,1.1l-2,3C58.6,32.8,58.3,33,58,33z"/>
	</g>
	<g>
		<path class="st1" d="M7,25c0.2,0,0.4,0.1,0.6,0.2c0.5,0.3,0.6,0.9,0.3,1.4L6.2,29l1.6,2.4c0.3,0.5,0.2,1.1-0.3,1.4
			c-0.5,0.3-1.1,0.2-1.4-0.3l-2-3c-0.2-0.3-0.2-0.8,0-1.1l2-3C6.4,25.2,6.7,25,7,25z"/>
	</g>
</g>
</svg>
