<?xml version="1.0" encoding="utf-8"?>
<!-- Generator: Adobe Illustrator 21.0.0, SVG Export Plug-In . SVG Version: 6.00 Build 0)  -->
<svg version="1.1" id="Layer_1" xmlns="http://www.w3.org/2000/svg" xmlns:xlink="http://www.w3.org/1999/xlink" x="0px" y="0px"
	 viewBox="0 0 64 60" style="enable-background:new 0 0 64 60;" xml:space="preserve">
<style type="text/css">
	.st0{fill:#CAD1D8;}
	.st1{fill:#9BA7AF;}
	.st2{fill:#FFFFFF;}
	.st3{fill:#E2E5E7;}
	.st4{fill:#595A66;}
	.st5{fill:#ABE1FA;}
	.st6{fill:#6F707E;}
	.st7{fill:#3BB54A;}
	.st8{fill:#0E9347;}
	.st9{fill:#517CBE;}
	.st10{fill:#65CCEF;}
	.st11{fill:#EE2C39;}
	.st12{fill:#CC202C;}
	.st13{fill:#F16351;}
	.st14{fill:#DDDFE1;}
	.st15{fill:#89C763;}
	.st16{fill:#3689C9;}
	.st17{fill:#1B6FAB;}
	.st18{fill:#4C9FD7;}
	.st19{fill:#FDBA4D;}
	.st20{fill:#F19F36;}
	.st21{fill:#F19F35;}
	.st22{fill:#FFFFFF;stroke:#595A66;stroke-width:2;stroke-miterlimit:10;}
	.st23{fill:#1A70AC;}
	.st24{fill:#35363E;}
</style>
<g>
	<path class="st0" d="M0,57V3c0-1.7,1.3-3,3-3h58c1.7,0,3,1.3,3,3v54c0,1.7-1.3,3-3,3H3C1.3,60,0,58.7,0,57z"/>
	<circle class="st1" cx="3" cy="4" r="1"/>
	<circle class="st1" cx="7" cy="4" r="1"/>
	<circle class="st1" cx="11" cy="4" r="1"/>
	<path class="st2" d="M3,8h58c0.6,0,1,0.4,1,1v48c0,0.6-0.4,1-1,1H3c-0.6,0-1-0.4-1-1V9C2,8.4,2.4,8,3,8z"/>
	<path class="st3" d="M61,5H15c-0.6,0-1-0.4-1-1v0c0-0.6,0.4-1,1-1h46c0.6,0,1,0.4,1,1v0C62,4.6,61.6,5,61,5z"/>
	<path class="st0" d="M46,14L46,14c0-0.6,0.4-1,1-1l10,0c0.6,0,1,0.4,1,1v0c0,0.6-0.4,1-1,1l-10,0C46.4,15,46,14.6,46,14z"/>
	<path class="st0" d="M46,18L46,18c0-0.6,0.4-1,1-1l8,0c0.6,0,1,0.4,1,1v0c0,0.6-0.4,1-1,1l-8,0C46.4,19,46,18.6,46,18z"/>
	<path class="st0" d="M46,26L46,26c0-0.6,0.4-1,1-1l10,0c0.6,0,1,0.4,1,1v0c0,0.6-0.4,1-1,1l-10,0C46.4,27,46,26.6,46,26z"/>
	<path class="st0" d="M46,22L46,22c0-0.6,0.4-1,1-1l10,0c0.6,0,1,0.4,1,1v0c0,0.6-0.4,1-1,1l-10,0C46.4,23,46,22.6,46,22z"/>
	<path class="st0" d="M46,30L46,30c0-0.6,0.4-1,1-1l8,0c0.6,0,1,0.4,1,1v0c0,0.6-0.4,1-1,1l-8,0C46.4,31,46,30.6,46,30z"/>
	<path class="st4" d="M5.5,14L5.5,14c0-0.6,0.4-1,1-1l15,0c0.6,0,1,0.4,1,1v0c0,0.6-0.4,1-1,1l-15,0C5.9,15,5.5,14.6,5.5,14z"/>
	<path class="st3" d="M23,53H9c-1.7,0-3-1.3-3-3v0c0-1.7,1.3-3,3-3h14c1.7,0,3,1.3,3,3v0C26,51.7,24.7,53,23,53z"/>
	<path class="st7" d="M23,52H9c-1.7,0-3-1.3-3-3v0c0-1.7,1.3-3,3-3h14c1.7,0,3,1.3,3,3v0C26,50.7,24.7,52,23,52z"/>
	<circle class="st8" cx="16" cy="49" r="1"/>
	<circle class="st8" cx="20" cy="49" r="1"/>
	<circle class="st8" cx="12" cy="49" r="1"/>
	<path class="st0" d="M41,18H7c-0.6,0-1,0.4-1,1v4c0,0.6,0.4,1,1,1h34c0.6,0,1-0.4,1-1v-4C42,18.4,41.6,18,41,18z M41,23H7v-4h34V23
		z"/>
	<rect x="7" y="19" class="st3" width="34" height="4"/>
	<path class="st0" d="M41,27H7c-0.6,0-1,0.4-1,1v4c0,0.6,0.4,1,1,1h34c0.6,0,1-0.4,1-1v-4C42,27.4,41.6,27,41,27z M41,32H7v-4h34V32
		z"/>
	<rect x="7" y="28" class="st3" width="34" height="4"/>
	<path class="st0" d="M41,36H7c-0.6,0-1,0.4-1,1v4c0,0.6,0.4,1,1,1h34c0.6,0,1-0.4,1-1v-4C42,36.4,41.6,36,41,36z M41,41H7v-4h34V41
		z"/>
	<rect x="7" y="37" class="st3" width="34" height="4"/>
</g>
</svg>
