<?xml version="1.0" encoding="utf-8"?>
<!-- Generator: Adobe Illustrator 21.0.0, SVG Export Plug-In . SVG Version: 6.00 Build 0)  -->
<svg version="1.1" xmlns="http://www.w3.org/2000/svg" xmlns:xlink="http://www.w3.org/1999/xlink" x="0px" y="0px"
	 viewBox="0 0 64 60" style="enable-background:new 0 0 64 60;" xml:space="preserve">
<style type="text/css">
	.st0{fill:#CAD1D8;}
	.st1{fill:#FFFFFF;}
	.st2{fill:#595A66;}
	.st3{fill:#9BA7AF;}
	.st4{fill:#E2E5E7;}
	.st5{fill:#ABE1FA;}
	.st6{fill:#FDBA4D;}
	.st7{fill:#F19F35;}
	.st8{fill:#3BB54A;}
	.st9{fill:#0E9347;}
	.st10{fill:#E6E7E8;}
	.st11{fill:#BCBEC0;}
	.st12{fill:#D1D3D4;}
	.st13{fill:#A7A9AC;}
	.st14{fill:#DCDDDE;}
	.st15{fill:#B1B3B6;}
	.st16{fill:#C7C8CA;}
	.st17{fill:#9D9FA2;}
	.st18{fill:#3689C9;}
	.st19{fill:#EE2C39;}
	.st20{fill:#FFFFFF;stroke:#595A66;stroke-width:2;stroke-miterlimit:10;}
	.st21{fill:#F19F36;}
	.st22{fill:#D4D5D6;}
	.st23{fill:#35363E;}
	.st24{fill:#CC202C;}
	.st25{fill:#1A70AC;}
	.st26{fill:#BD6428;}
	.st27{fill:#A35723;}
	.st28{fill:#A35623;}
	.st29{fill:#DDDFE1;}
	.st30{fill:#1B6FAB;}
	.st31{fill:#165D91;}
	.st32{fill:#699DC4;}
	.st33{fill:#6F707E;}
	.st34{fill:#4C9FD7;}
	.st35{fill:#748B9E;}
	.st36{fill:#78B6E4;}
</style>
<g id="Layer_62">
</g>
<g id="Layer_60">
</g>
<g id="Layer_59">
</g>
<g id="Layer_58">
</g>
<g id="Layer_57">
</g>
<g id="Layer_56">
</g>
<g id="Layer_55">
</g>
<g id="Layer_54">
</g>
<g id="Layer_53">
</g>
<g id="Layer_52">
</g>
<g id="Layer_51">
</g>
<g id="Layer_50">
</g>
<g id="Layer_49">
</g>
<g id="Layer_48">
</g>
<g id="Layer_47">
</g>
<g id="Layer_46">
</g>
<g id="Layer_45">
</g>
<g id="Layer_44">
</g>
<g id="Layer_43">
</g>
<g id="Layer_42">
</g>
<g id="Layer_41">
</g>
<g id="Layer_40">
</g>
<g id="Layer_39">
	<g>
		<path class="st0" d="M0,57V3c0-1.7,1.3-3,3-3h58c1.7,0,3,1.3,3,3v54c0,1.7-1.3,3-3,3H3C1.3,60,0,58.7,0,57z"/>
		<circle class="st3" cx="3" cy="4" r="1"/>
		<circle class="st3" cx="7" cy="4" r="1"/>
		<circle class="st3" cx="11" cy="4" r="1"/>
		<path class="st1" d="M3,8h58c0.6,0,1,0.4,1,1v48c0,0.6-0.4,1-1,1H3c-0.6,0-1-0.4-1-1V9C2,8.4,2.4,8,3,8z"/>
		<path class="st4" d="M61,5H15c-0.6,0-1-0.4-1-1v0c0-0.6,0.4-1,1-1h46c0.6,0,1,0.4,1,1v0C62,4.6,61.6,5,61,5z"/>
		<path class="st2" d="M45,16H19c-0.6,0-1-0.4-1-1v0c0-0.6,0.4-1,1-1h26c0.6,0,1,0.4,1,1v0C46,15.6,45.6,16,45,16z"/>
		<path class="st2" d="M40,20H24c-0.6,0-1-0.4-1-1v0c0-0.6,0.4-1,1-1h16c0.6,0,1,0.4,1,1v0C41,19.6,40.6,20,40,20z"/>
		<g>
			<path class="st0" d="M47,49H8c-0.6,0-1-0.4-1-1v0c0-0.6,0.4-1,1-1h39c0.6,0,1,0.4,1,1v0C48,48.6,47.6,49,47,49z"/>
			<path class="st0" d="M37,31H8c-0.6,0-1-0.4-1-1v0c0-0.6,0.4-1,1-1h29c0.6,0,1,0.4,1,1v0C38,30.6,37.6,31,37,31z"/>
			<path class="st0" d="M31,27H8c-0.6,0-1-0.4-1-1v0c0-0.6,0.4-1,1-1h23c0.6,0,1,0.4,1,1v0C32,26.6,31.6,27,31,27z"/>
			<path class="st0" d="M47,44L47,44c0-0.6,0.4-1,1-1l7,0c0.6,0,1,0.4,1,1v0c0,0.6-0.4,1-1,1l-7,0C47.4,45,47,44.6,47,44z"/>
			<path class="st0" d="M40,30L40,30c0-0.6,0.4-1,1-1h12c0.6,0,1,0.4,1,1v0c0,0.6-0.4,1-1,1H41C40.4,31,40,30.6,40,30z"/>
			<path class="st0" d="M34,26L34,26c0-0.6,0.4-1,1-1l19,0c0.6,0,1,0.4,1,1v0c0,0.6-0.4,1-1,1l-19,0C34.4,27,34,26.6,34,26z"/>
			<path class="st0" d="M31,39H8c-0.6,0-1-0.4-1-1l0,0c0-0.6,0.4-1,1-1h23c0.6,0,1,0.4,1,1l0,0C32,38.6,31.6,39,31,39z"/>
			<path class="st0" d="M34,38L34,38c0-0.6,0.4-1,1-1h15c0.6,0,1,0.4,1,1v0c0,0.6-0.4,1-1,1H35C34.4,39,34,38.6,34,38z"/>
			<path class="st0" d="M7,34L7,34c0-0.6,0.4-1,1-1h20c0.6,0,1,0.4,1,1l0,0c0,0.6-0.4,1-1,1H8C7.4,35,7,34.6,7,34z"/>
			<path class="st0" d="M31,34L31,34c0-0.6,0.4-1,1-1h8c0.6,0,1,0.4,1,1l0,0c0,0.6-0.4,1-1,1h-8C31.4,35,31,34.6,31,34z"/>
			<path class="st0" d="M7,44L7,44c0-0.6,0.4-1,1-1l26,0c0.6,0,1,0.4,1,1v0c0,0.6-0.4,1-1,1L8,45C7.4,45,7,44.6,7,44z"/>
			<path class="st0" d="M37,44L37,44c0-0.6,0.4-1,1-1l6,0c0.6,0,1,0.4,1,1v0c0,0.6-0.4,1-1,1l-6,0C37.4,45,37,44.6,37,44z"/>
			<path class="st0" d="M29,52L29,52c0-0.6,0.4-1,1-1l3,0c0.6,0,1,0.4,1,1v0c0,0.6-0.4,1-1,1l-3,0C29.4,53,29,52.6,29,52z"/>
			<path class="st0" d="M50,48L50,48c0-0.6,0.4-1,1-1h3c0.6,0,1,0.4,1,1v0c0,0.6-0.4,1-1,1h-3C50.4,49,50,48.6,50,48z"/>
			<path class="st0" d="M7,52L7,52c0-0.6,0.4-1,1-1l18,0c0.6,0,1,0.4,1,1v0c0,0.6-0.4,1-1,1L8,53C7.4,53,7,52.6,7,52z"/>
			<path class="st0" d="M43,34L43,34c0-0.6,0.4-1,1-1h12c0.6,0,1,0.4,1,1l0,0c0,0.6-0.4,1-1,1H44C43.4,35,43,34.6,43,34z"/>
		</g>
	</g>
</g>
<g id="Layer_38">
</g>
<g id="Layer_37">
</g>
<g id="Layer_36">
</g>
<g id="Layer_35">
</g>
<g id="Layer_34">
</g>
<g id="Layer_33">
</g>
<g id="Layer_32">
</g>
<g id="Layer_31">
</g>
<g id="Layer_30">
</g>
<g id="Layer_29">
</g>
<g id="Layer_28">
</g>
<g id="Layer_27">
</g>
<g id="Layer_26">
</g>
<g id="Layer_25">
</g>
<g id="Layer_24">
</g>
<g id="Layer_23">
</g>
<g id="Layer_22">
</g>
<g id="Layer_21">
</g>
<g id="Layer_20">
</g>
<g id="Layer_19">
</g>
<g id="Layer_18">
</g>
<g id="Layer_17">
</g>
<g id="Layer_16">
</g>
<g id="Layer_15">
</g>
<g id="Layer_14">
</g>
<g id="Layer_13">
</g>
<g id="Layer_12">
</g>
<g id="Layer_11">
</g>
<g id="Layer_10">
</g>
<g id="Layer_9">
</g>
<g id="Layer_8">
</g>
<g id="Layer_7">
</g>
<g id="Layer_6">
</g>
<g id="Layer_5">
</g>
<g id="Layer_4">
</g>
<g id="Layer_3">
</g>
<g id="Layer_2">
</g>
</svg>
