<?xml version="1.0" encoding="utf-8"?>
<!-- Generator: Adobe Illustrator 21.0.0, SVG Export Plug-In . SVG Version: 6.00 Build 0)  -->
<svg version="1.1" xmlns="http://www.w3.org/2000/svg" xmlns:xlink="http://www.w3.org/1999/xlink" x="0px" y="0px"
	 viewBox="0 0 64 60" style="enable-background:new 0 0 64 60;" xml:space="preserve">
<style type="text/css">
	.st0{fill:#CAD1D8;}
	.st1{fill:#FFFFFF;}
	.st2{fill:#595A66;}
	.st3{fill:#9BA7AF;}
	.st4{fill:#E2E5E7;}
	.st5{fill:#ABE1FA;}
	.st6{fill:#FDBA4D;}
	.st7{fill:#F19F35;}
	.st8{fill:#3BB54A;}
	.st9{fill:#0E9347;}
	.st10{fill:#E6E7E8;}
	.st11{fill:#BCBEC0;}
	.st12{fill:#D1D3D4;}
	.st13{fill:#A7A9AC;}
	.st14{fill:#DCDDDE;}
	.st15{fill:#B1B3B6;}
	.st16{fill:#C7C8CA;}
	.st17{fill:#9D9FA2;}
	.st18{fill:#3689C9;}
	.st19{fill:#EE2C39;}
	.st20{fill:#FFFFFF;stroke:#595A66;stroke-width:2;stroke-miterlimit:10;}
	.st21{fill:#F19F36;}
	.st22{fill:#D4D5D6;}
	.st23{fill:#35363E;}
	.st24{fill:#CC202C;}
	.st25{fill:#1A70AC;}
	.st26{fill:#BD6428;}
	.st27{fill:#A35723;}
	.st28{fill:#A35623;}
	.st29{fill:#DDDFE1;}
	.st30{fill:#1B6FAB;}
	.st31{fill:#165D91;}
	.st32{fill:#699DC4;}
	.st33{fill:#6F707E;}
	.st34{fill:#4C9FD7;}
	.st35{fill:#748B9E;}
	.st36{fill:#78B6E4;}
</style>
<g id="Layer_62">
</g>
<g id="Layer_60">
</g>
<g id="Layer_59">
</g>
<g id="Layer_58">
</g>
<g id="Layer_57">
</g>
<g id="Layer_56">
</g>
<g id="Layer_55">
</g>
<g id="Layer_54">
</g>
<g id="Layer_53">
</g>
<g id="Layer_52">
</g>
<g id="Layer_51">
</g>
<g id="Layer_50">
	<g>
		<path class="st0" d="M0,57V3c0-1.7,1.3-3,3-3h58c1.7,0,3,1.3,3,3v54c0,1.7-1.3,3-3,3H3C1.3,60,0,58.7,0,57z"/>
		<circle class="st3" cx="3" cy="4" r="1"/>
		<circle class="st3" cx="7" cy="4" r="1"/>
		<circle class="st3" cx="11" cy="4" r="1"/>
		<path class="st1" d="M3,8h58c0.6,0,1,0.4,1,1v48c0,0.6-0.4,1-1,1H3c-0.6,0-1-0.4-1-1V9C2,8.4,2.4,8,3,8z"/>
		<path class="st4" d="M61,5H15c-0.6,0-1-0.4-1-1v0c0-0.6,0.4-1,1-1h46c0.6,0,1,0.4,1,1v0C62,4.6,61.6,5,61,5z"/>
		<g>
			<path class="st6" d="M7,23c0,0.5,0.5,1,1,1h12c0.5,0,1-0.5,1-1v-7H7V23z"/>
			<path class="st21" d="M20,14h-7l-2-2H8c-0.5,0-1,0.5-1,1v3h14v-1C21,14.5,20.5,14,20,14z"/>
		</g>
		<g>
			<path class="st6" d="M25,23c0,0.5,0.5,1,1,1h12c0.5,0,1-0.5,1-1v-7H25V23z"/>
			<path class="st21" d="M38,14h-7l-2-2h-3c-0.5,0-1,0.5-1,1v3h14v-1C39,14.5,38.5,14,38,14z"/>
		</g>
		<g>
			<path class="st6" d="M43,23c0,0.5,0.5,1,1,1h12c0.5,0,1-0.5,1-1v-7H43V23z"/>
			<path class="st21" d="M56,14h-7l-2-2h-3c-0.5,0-1,0.5-1,1v3h14v-1C57,14.5,56.5,14,56,14z"/>
		</g>
		<g>
			<path class="st6" d="M7,53c0,0.5,0.5,1,1,1h12c0.5,0,1-0.5,1-1v-7H7V53z"/>
			<path class="st21" d="M20,44h-7l-2-2H8c-0.5,0-1,0.5-1,1v3h14v-1C21,44.5,20.5,44,20,44z"/>
		</g>
		<g>
			<path class="st6" d="M25,53c0,0.5,0.5,1,1,1h12c0.5,0,1-0.5,1-1v-7H25V53z"/>
			<path class="st21" d="M38,44h-7l-2-2h-3c-0.5,0-1,0.5-1,1v3h14v-1C39,44.5,38.5,44,38,44z"/>
		</g>
		<g>
			<path class="st6" d="M7,38c0,0.5,0.5,1,1,1h12c0.5,0,1-0.5,1-1v-7H7V38z"/>
			<path class="st21" d="M20,29h-7l-2-2H8c-0.5,0-1,0.5-1,1v3h14v-1C21,29.5,20.5,29,20,29z"/>
		</g>
		<g>
			<path class="st6" d="M25,38c0,0.5,0.5,1,1,1h12c0.5,0,1-0.5,1-1v-7H25V38z"/>
			<path class="st21" d="M38,29h-7l-2-2h-3c-0.5,0-1,0.5-1,1v3h14v-1C39,29.5,38.5,29,38,29z"/>
		</g>
		<g>
			<path class="st6" d="M43,38c0,0.5,0.5,1,1,1h12c0.5,0,1-0.5,1-1v-7H43V38z"/>
			<path class="st21" d="M56,29h-7l-2-2h-3c-0.5,0-1,0.5-1,1v3h14v-1C57,29.5,56.5,29,56,29z"/>
		</g>
		<circle class="st4" cx="50" cy="48" r="5"/>
		<path class="st3" d="M52,47h-1v-1c0-0.6-0.4-1-1-1s-1,0.4-1,1v1h-1c-0.6,0-1,0.4-1,1s0.4,1,1,1h1v1c0,0.6,0.4,1,1,1s1-0.4,1-1v-1
			h1c0.6,0,1-0.4,1-1S52.6,47,52,47z"/>
	</g>
</g>
<g id="Layer_49">
</g>
<g id="Layer_48">
</g>
<g id="Layer_47">
</g>
<g id="Layer_46">
</g>
<g id="Layer_45">
</g>
<g id="Layer_44">
</g>
<g id="Layer_43">
</g>
<g id="Layer_42">
</g>
<g id="Layer_41">
</g>
<g id="Layer_40">
</g>
<g id="Layer_39">
</g>
<g id="Layer_38">
</g>
<g id="Layer_37">
</g>
<g id="Layer_36">
</g>
<g id="Layer_35">
</g>
<g id="Layer_34">
</g>
<g id="Layer_33">
</g>
<g id="Layer_32">
</g>
<g id="Layer_31">
</g>
<g id="Layer_30">
</g>
<g id="Layer_29">
</g>
<g id="Layer_28">
</g>
<g id="Layer_27">
</g>
<g id="Layer_26">
</g>
<g id="Layer_25">
</g>
<g id="Layer_24">
</g>
<g id="Layer_23">
</g>
<g id="Layer_22">
</g>
<g id="Layer_21">
</g>
<g id="Layer_20">
</g>
<g id="Layer_19">
</g>
<g id="Layer_18">
</g>
<g id="Layer_17">
</g>
<g id="Layer_16">
</g>
<g id="Layer_15">
</g>
<g id="Layer_14">
</g>
<g id="Layer_13">
</g>
<g id="Layer_12">
</g>
<g id="Layer_11">
</g>
<g id="Layer_10">
</g>
<g id="Layer_9">
</g>
<g id="Layer_8">
</g>
<g id="Layer_7">
</g>
<g id="Layer_6">
</g>
<g id="Layer_5">
</g>
<g id="Layer_4">
</g>
<g id="Layer_3">
</g>
<g id="Layer_2">
</g>
</svg>
