<?xml version="1.0" encoding="utf-8"?>
<!-- Generator: Adobe Illustrator 21.0.0, SVG Export Plug-In . SVG Version: 6.00 Build 0)  -->
<svg version="1.1" xmlns="http://www.w3.org/2000/svg" xmlns:xlink="http://www.w3.org/1999/xlink" x="0px" y="0px"
	 viewBox="0 0 64 60" style="enable-background:new 0 0 64 60;" xml:space="preserve">
<style type="text/css">
	.st0{fill:#CAD1D8;}
	.st1{fill:#FFFFFF;}
	.st2{fill:#595A66;}
	.st3{fill:#9BA7AF;}
	.st4{fill:#E2E5E7;}
	.st5{fill:#ABE1FA;}
	.st6{fill:#FDBA4D;}
	.st7{fill:#F19F35;}
	.st8{fill:#3BB54A;}
	.st9{fill:#0E9347;}
	.st10{fill:#E6E7E8;}
	.st11{fill:#BCBEC0;}
	.st12{fill:#D1D3D4;}
	.st13{fill:#A7A9AC;}
	.st14{fill:#DCDDDE;}
	.st15{fill:#B1B3B6;}
	.st16{fill:#C7C8CA;}
	.st17{fill:#9D9FA2;}
	.st18{fill:#3689C9;}
	.st19{fill:#EE2C39;}
	.st20{fill:#FFFFFF;stroke:#595A66;stroke-width:2;stroke-miterlimit:10;}
	.st21{fill:#F19F36;}
	.st22{fill:#D4D5D6;}
	.st23{fill:#35363E;}
	.st24{fill:#CC202C;}
	.st25{fill:#1A70AC;}
	.st26{fill:#BD6428;}
	.st27{fill:#A35723;}
	.st28{fill:#A35623;}
	.st29{fill:#DDDFE1;}
	.st30{fill:#1B6FAB;}
	.st31{fill:#165D91;}
	.st32{fill:#699DC4;}
	.st33{fill:#6F707E;}
	.st34{fill:#4C9FD7;}
	.st35{fill:#748B9E;}
	.st36{fill:#78B6E4;}
</style>
<g id="Layer_62">
</g>
<g id="Layer_60">
</g>
<g id="Layer_59">
</g>
<g id="Layer_58">
</g>
<g id="Layer_57">
</g>
<g id="Layer_56">
</g>
<g id="Layer_55">
</g>
<g id="Layer_54">
</g>
<g id="Layer_53">
</g>
<g id="Layer_52">
</g>
<g id="Layer_51">
</g>
<g id="Layer_50">
</g>
<g id="Layer_49">
</g>
<g id="Layer_48">
</g>
<g id="Layer_47">
</g>
<g id="Layer_46">
</g>
<g id="Layer_45">
</g>
<g id="Layer_44">
</g>
<g id="Layer_43">
</g>
<g id="Layer_42">
</g>
<g id="Layer_41">
</g>
<g id="Layer_40">
</g>
<g id="Layer_39">
</g>
<g id="Layer_38">
	<g>
		<path class="st0" d="M0,57V3c0-1.7,1.3-3,3-3h58c1.7,0,3,1.3,3,3v54c0,1.7-1.3,3-3,3H3C1.3,60,0,58.7,0,57z"/>
		<circle class="st3" cx="3" cy="4" r="1"/>
		<circle class="st3" cx="7" cy="4" r="1"/>
		<circle class="st3" cx="11" cy="4" r="1"/>
		<path class="st1" d="M3,8h58c0.6,0,1,0.4,1,1v48c0,0.6-0.4,1-1,1H3c-0.6,0-1-0.4-1-1V9C2,8.4,2.4,8,3,8z"/>
		<path class="st4" d="M61,5H15c-0.6,0-1-0.4-1-1v0c0-0.6,0.4-1,1-1h46c0.6,0,1,0.4,1,1v0C62,4.6,61.6,5,61,5z"/>
		<g>
			<path class="st0" d="M47,50H19c-0.6,0-1-0.4-1-1l0,0c0-0.6,0.4-1,1-1h28c0.6,0,1,0.4,1,1l0,0C48,49.6,47.6,50,47,50z"/>
			<path class="st0" d="M37,34H8c-0.6,0-1-0.4-1-1l0,0c0-0.6,0.4-1,1-1h29c0.6,0,1,0.4,1,1l0,0C38,33.6,37.6,34,37,34z"/>
			<path class="st0" d="M31,30H8c-0.6,0-1-0.4-1-1v0c0-0.6,0.4-1,1-1h23c0.6,0,1,0.4,1,1v0C32,29.6,31.6,30,31,30z"/>
			<path class="st0" d="M47,45L47,45c0-0.6,0.4-1,1-1h7c0.6,0,1,0.4,1,1v0c0,0.6-0.4,1-1,1h-7C47.4,46,47,45.6,47,45z"/>
			<path class="st0" d="M40,33L40,33c0-0.6,0.4-1,1-1h12c0.6,0,1,0.4,1,1l0,0c0,0.6-0.4,1-1,1H41C40.4,34,40,33.6,40,33z"/>
			<path class="st0" d="M34,29L34,29c0-0.6,0.4-1,1-1l19,0c0.6,0,1,0.4,1,1v0c0,0.6-0.4,1-1,1l-19,0C34.4,30,34,29.6,34,29z"/>
			<path class="st0" d="M31,14H8c-0.6,0-1-0.4-1-1v0c0-0.6,0.4-1,1-1h23c0.6,0,1,0.4,1,1v0C32,13.6,31.6,14,31,14z"/>
			<path class="st0" d="M34,13L34,13c0-0.6,0.4-1,1-1l19,0c0.6,0,1,0.4,1,1v0c0,0.6-0.4,1-1,1l-19,0C34.4,14,34,13.6,34,13z"/>
			<path class="st0" d="M31,42H8c-0.6,0-1-0.4-1-1l0,0c0-0.6,0.4-1,1-1h23c0.6,0,1,0.4,1,1l0,0C32,41.6,31.6,42,31,42z"/>
			<path class="st0" d="M34,41L34,41c0-0.6,0.4-1,1-1h15c0.6,0,1,0.4,1,1v0c0,0.6-0.4,1-1,1H35C34.4,42,34,41.6,34,41z"/>
			<path class="st0" d="M7,37L7,37c0-0.6,0.4-1,1-1h15c0.6,0,1,0.4,1,1l0,0c0,0.6-0.4,1-1,1H8C7.4,38,7,37.6,7,37z"/>
			<path class="st0" d="M26,37L26,37c0-0.6,0.4-1,1-1h13c0.6,0,1,0.4,1,1l0,0c0,0.6-0.4,1-1,1H27C26.4,38,26,37.6,26,37z"/>
			<path class="st0" d="M7,45L7,45c0-0.6,0.4-1,1-1h26c0.6,0,1,0.4,1,1v0c0,0.6-0.4,1-1,1H8C7.4,46,7,45.6,7,45z"/>
			<path class="st0" d="M37,45L37,45c0-0.6,0.4-1,1-1h6c0.6,0,1,0.4,1,1v0c0,0.6-0.4,1-1,1h-6C37.4,46,37,45.6,37,45z"/>
			<path class="st0" d="M47,25L47,25c0-0.6,0.4-1,1-1h7c0.6,0,1,0.4,1,1v0c0,0.6-0.4,1-1,1h-7C47.4,26,47,25.6,47,25z"/>
			<path class="st0" d="M27,22H8c-0.6,0-1-0.4-1-1v0c0-0.6,0.4-1,1-1h19c0.6,0,1,0.4,1,1v0C28,21.6,27.6,22,27,22z"/>
			<path class="st0" d="M30,21L30,21c0-0.6,0.4-1,1-1h19c0.6,0,1,0.4,1,1v0c0,0.6-0.4,1-1,1H31C30.4,22,30,21.6,30,21z"/>
			<path class="st0" d="M7,25L7,25c0-0.6,0.4-1,1-1l26,0c0.6,0,1,0.4,1,1v0c0,0.6-0.4,1-1,1L8,26C7.4,26,7,25.6,7,25z"/>
			<path class="st0" d="M37,25L37,25c0-0.6,0.4-1,1-1h6c0.6,0,1,0.4,1,1v0c0,0.6-0.4,1-1,1h-6C37.4,26,37,25.6,37,25z"/>
			<path class="st0" d="M29,53L29,53c0-0.6,0.4-1,1-1h3c0.6,0,1,0.4,1,1v0c0,0.6-0.4,1-1,1h-3C29.4,54,29,53.6,29,53z"/>
			<path class="st0" d="M7,49L7,49c0-0.6,0.4-1,1-1h7c0.6,0,1,0.4,1,1l0,0c0,0.6-0.4,1-1,1H8C7.4,50,7,49.6,7,49z"/>
			<path class="st0" d="M50,49L50,49c0-0.6,0.4-1,1-1h3c0.6,0,1,0.4,1,1l0,0c0,0.6-0.4,1-1,1h-3C50.4,50,50,49.6,50,49z"/>
			<path class="st0" d="M47,18H8c-0.6,0-1-0.4-1-1v0c0-0.6,0.4-1,1-1h39c0.6,0,1,0.4,1,1v0C48,17.6,47.6,18,47,18z"/>
			<path class="st0" d="M50,17L50,17c0-0.6,0.4-1,1-1l3,0c0.6,0,1,0.4,1,1v0c0,0.6-0.4,1-1,1l-3,0C50.4,18,50,17.6,50,17z"/>
			<path class="st0" d="M7,53L7,53c0-0.6,0.4-1,1-1h18c0.6,0,1,0.4,1,1v0c0,0.6-0.4,1-1,1H8C7.4,54,7,53.6,7,53z"/>
			<path class="st0" d="M43,37L43,37c0-0.6,0.4-1,1-1h12c0.6,0,1,0.4,1,1l0,0c0,0.6-0.4,1-1,1H44C43.4,38,43,37.6,43,37z"/>
		</g>
	</g>
</g>
<g id="Layer_37">
</g>
<g id="Layer_36">
</g>
<g id="Layer_35">
</g>
<g id="Layer_34">
</g>
<g id="Layer_33">
</g>
<g id="Layer_32">
</g>
<g id="Layer_31">
</g>
<g id="Layer_30">
</g>
<g id="Layer_29">
</g>
<g id="Layer_28">
</g>
<g id="Layer_27">
</g>
<g id="Layer_26">
</g>
<g id="Layer_25">
</g>
<g id="Layer_24">
</g>
<g id="Layer_23">
</g>
<g id="Layer_22">
</g>
<g id="Layer_21">
</g>
<g id="Layer_20">
</g>
<g id="Layer_19">
</g>
<g id="Layer_18">
</g>
<g id="Layer_17">
</g>
<g id="Layer_16">
</g>
<g id="Layer_15">
</g>
<g id="Layer_14">
</g>
<g id="Layer_13">
</g>
<g id="Layer_12">
</g>
<g id="Layer_11">
</g>
<g id="Layer_10">
</g>
<g id="Layer_9">
</g>
<g id="Layer_8">
</g>
<g id="Layer_7">
</g>
<g id="Layer_6">
</g>
<g id="Layer_5">
</g>
<g id="Layer_4">
</g>
<g id="Layer_3">
</g>
<g id="Layer_2">
</g>
</svg>
