<?xml version="1.0" encoding="utf-8"?>
<!-- Generator: Adobe Illustrator 21.0.0, SVG Export Plug-In . SVG Version: 6.00 Build 0)  -->
<svg version="1.1" id="Layer_1" xmlns="http://www.w3.org/2000/svg" xmlns:xlink="http://www.w3.org/1999/xlink" x="0px" y="0px"
	 viewBox="0 0 64 60" style="enable-background:new 0 0 64 60;" xml:space="preserve">
<style type="text/css">
	.st0{fill:#CAD1D8;}
	.st1{fill:#9BA7AF;}
	.st2{fill:#FFFFFF;}
	.st3{fill:#E2E5E7;}
	.st4{fill:#595A66;}
	.st5{fill:#ABE1FA;}
	.st6{fill:#6F707E;}
	.st7{fill:#3BB54A;}
	.st8{fill:#0E9347;}
	.st9{fill:#517CBE;}
	.st10{fill:#65CCEF;}
	.st11{fill:#EE2C39;}
	.st12{fill:#CC202C;}
	.st13{fill:#F16351;}
	.st14{fill:#DDDFE1;}
	.st15{fill:#89C763;}
	.st16{fill:#3689C9;}
	.st17{fill:#1B6FAB;}
	.st18{fill:#4C9FD7;}
	.st19{fill:#FDBA4D;}
	.st20{fill:#F19F36;}
	.st21{fill:#F19F35;}
	.st22{fill:#FFFFFF;stroke:#595A66;stroke-width:2;stroke-miterlimit:10;}
	.st23{fill:#1A70AC;}
	.st24{fill:#35363E;}
</style>
<g>
	<g>
		<path class="st0" d="M0,57V3c0-1.7,1.3-3,3-3h58c1.7,0,3,1.3,3,3v54c0,1.7-1.3,3-3,3H3C1.3,60,0,58.7,0,57z"/>
	</g>
	<g>
		<circle class="st1" cx="3" cy="4" r="1"/>
	</g>
	<g>
		<circle class="st1" cx="7" cy="4" r="1"/>
	</g>
	<g>
		<circle class="st1" cx="11" cy="4" r="1"/>
	</g>
	<g>
		<path class="st2" d="M3,8h58c0.6,0,1,0.4,1,1v48c0,0.6-0.4,1-1,1H3c-0.6,0-1-0.4-1-1V9C2,8.4,2.4,8,3,8z"/>
	</g>
	<g>
		<path class="st3" d="M61,5H15c-0.6,0-1-0.4-1-1v0c0-0.6,0.4-1,1-1h46c0.6,0,1,0.4,1,1v0C62,4.6,61.6,5,61,5z"/>
	</g>
	<g>
		<path class="st0" d="M23,44H6c-0.6,0-1-0.4-1-1v0c0-0.6,0.4-1,1-1h17c0.6,0,1,0.4,1,1v0C24,43.6,23.6,44,23,44z"/>
	</g>
	<g>
		<path class="st0" d="M23,36H6c-0.6,0-1-0.4-1-1v0c0-0.6,0.4-1,1-1h17c0.6,0,1,0.4,1,1v0C24,35.6,23.6,36,23,36z"/>
	</g>
	<g>
		<path class="st0" d="M20,40H6c-0.6,0-1-0.4-1-1v0c0-0.6,0.4-1,1-1h14c0.6,0,1,0.4,1,1v0C21,39.6,20.6,40,20,40z"/>
	</g>
	<g>
		<path class="st0" d="M19,48H6c-0.6,0-1-0.4-1-1v0c0-0.6,0.4-1,1-1h13c0.6,0,1,0.4,1,1v0C20,47.6,19.6,48,19,48z"/>
	</g>
	<g>
		<path class="st0" d="M50,44H36c-0.6,0-1-0.4-1-1v0c0-0.6,0.4-1,1-1h14c0.6,0,1,0.4,1,1l0,0C51,43.6,50.6,44,50,44z"/>
	</g>
	<g>
		<path class="st0" d="M56,36H36c-0.6,0-1-0.4-1-1v0c0-0.6,0.4-1,1-1h20c0.6,0,1,0.4,1,1l0,0C57,35.6,56.6,36,56,36z"/>
	</g>
	<g>
		<path class="st0" d="M52,40H36c-0.6,0-1-0.4-1-1v0c0-0.6,0.4-1,1-1h16c0.6,0,1,0.4,1,1l0,0C53,39.6,52.6,40,52,40z"/>
	</g>
	<g>
		<path class="st0" d="M52,48H36c-0.6,0-1-0.4-1-1v0c0-0.6,0.4-1,1-1h16c0.6,0,1,0.4,1,1l0,0C53,47.6,52.6,48,52,48z"/>
	</g>
	<g>
		<path class="st0" d="M13,52H6c-0.6,0-1-0.4-1-1v0c0-0.6,0.4-1,1-1h7c0.6,0,1,0.4,1,1v0C14,51.6,13.6,52,13,52z"/>
	</g>
	<g>
		<path class="st0" d="M43,52h-7c-0.6,0-1-0.4-1-1l0,0c0-0.6,0.4-1,1-1h7c0.6,0,1,0.4,1,1l0,0C44,51.6,43.6,52,43,52z"/>
	</g>
	<g>
		<g>
			<path class="st11" d="M36,30.5c-0.3,0-0.5-0.2-0.5-0.5V14c0-0.3,0.2-0.5,0.5-0.5h22c0.3,0,0.5,0.2,0.5,0.5v16
				c0,0.3-0.2,0.5-0.5,0.5H36z"/>
		</g>
		<path class="st12" d="M58,13H36c-0.6,0-1,0.4-1,1v16c0,0.6,0.4,1,1,1h22c0.6,0,1-0.4,1-1V14C59,13.4,58.6,13,58,13z M58,30H36V14
			h22V30z"/>
	</g>
	<g>
		<path class="st12" d="M50.6,22.3l-4.5-2.3c-0.2-0.1-0.5-0.1-0.7,0c-0.2,0.1-0.4,0.4-0.4,0.6v4.5c0,0.3,0.1,0.5,0.4,0.6
			c0.1,0.1,0.3,0.1,0.4,0.1c0.1,0,0.2,0,0.3-0.1l4.5-2.3c0.3-0.1,0.4-0.4,0.4-0.7S50.8,22.5,50.6,22.3z"/>
	</g>
	<g>
		<path class="st2" d="M50.6,21.3l-4.5-2.3c-0.2-0.1-0.5-0.1-0.7,0c-0.2,0.1-0.4,0.4-0.4,0.6v4.5c0,0.3,0.1,0.5,0.4,0.6
			c0.1,0.1,0.3,0.1,0.4,0.1c0.1,0,0.2,0,0.3-0.1l4.5-2.3c0.3-0.1,0.4-0.4,0.4-0.7S50.8,21.5,50.6,21.3z"/>
	</g>
	<g>
		<g>
			<path class="st11" d="M6,30.5c-0.3,0-0.5-0.2-0.5-0.5V14c0-0.3,0.2-0.5,0.5-0.5h22c0.3,0,0.5,0.2,0.5,0.5v16
				c0,0.3-0.2,0.5-0.5,0.5H6z"/>
		</g>
		<path class="st12" d="M28,13H6c-0.6,0-1,0.4-1,1v16c0,0.6,0.4,1,1,1h22c0.6,0,1-0.4,1-1V14C29,13.4,28.6,13,28,13z M28,30H6V14h22
			V30z"/>
	</g>
	<g>
		<path class="st12" d="M20.6,22.3l-4.5-2.3c-0.2-0.1-0.5-0.1-0.7,0c-0.2,0.1-0.4,0.4-0.4,0.6v4.5c0,0.3,0.1,0.5,0.4,0.6
			c0.1,0.1,0.3,0.1,0.4,0.1c0.1,0,0.2,0,0.3-0.1l4.5-2.3c0.3-0.1,0.4-0.4,0.4-0.7S20.8,22.5,20.6,22.3z"/>
	</g>
	<g>
		<path class="st2" d="M20.6,21.3l-4.5-2.3c-0.2-0.1-0.5-0.1-0.7,0c-0.2,0.1-0.4,0.4-0.4,0.6v4.5c0,0.3,0.1,0.5,0.4,0.6
			c0.1,0.1,0.3,0.1,0.4,0.1c0.1,0,0.2,0,0.3-0.1l4.5-2.3c0.3-0.1,0.4-0.4,0.4-0.7S20.8,21.5,20.6,21.3z"/>
	</g>
</g>
</svg>
