<?xml version="1.0" encoding="utf-8"?>
<!-- Generator: Adobe Illustrator 21.0.0, SVG Export Plug-In . SVG Version: 6.00 Build 0)  -->
<svg version="1.1" id="Layer_1" xmlns="http://www.w3.org/2000/svg" xmlns:xlink="http://www.w3.org/1999/xlink" x="0px" y="0px"
	 viewBox="0 0 64 60" style="enable-background:new 0 0 64 60;" xml:space="preserve">
<style type="text/css">
	.st0{fill:#CAD1D8;}
	.st1{fill:#9BA7AF;}
	.st2{fill:#FFFFFF;}
	.st3{fill:#E2E5E7;}
	.st4{fill:#595A66;}
	.st5{fill:#ABE1FA;}
	.st6{fill:#6F707E;}
	.st7{fill:#3BB54A;}
	.st8{fill:#0E9347;}
	.st9{fill:#517CBE;}
	.st10{fill:#65CCEF;}
	.st11{fill:#EE2C39;}
	.st12{fill:#CC202C;}
	.st13{fill:#F16351;}
	.st14{fill:#DDDFE1;}
	.st15{fill:#89C763;}
	.st16{fill:#3689C9;}
	.st17{fill:#1B6FAB;}
	.st18{fill:#4C9FD7;}
	.st19{fill:#FDBA4D;}
	.st20{fill:#F19F36;}
	.st21{fill:#F19F35;}
	.st22{fill:#FFFFFF;stroke:#595A66;stroke-width:2;stroke-miterlimit:10;}
	.st23{fill:#1A70AC;}
	.st24{fill:#35363E;}
</style>
<g>
	<path class="st0" d="M0,57V3c0-1.7,1.3-3,3-3h58c1.7,0,3,1.3,3,3v54c0,1.7-1.3,3-3,3H3C1.3,60,0,58.7,0,57z"/>
	<path class="st2" d="M3,8h58c0.6,0,1,0.4,1,1v48c0,0.6-0.4,1-1,1H3c-0.6,0-1-0.4-1-1V9C2,8.4,2.4,8,3,8z"/>
	<circle class="st1" cx="3" cy="4" r="1"/>
	<circle class="st1" cx="7" cy="4" r="1"/>
	<circle class="st1" cx="11" cy="4" r="1"/>
	<path class="st4" d="M6,12L6,12c0-0.6,0.4-1,1-1l5,0c0.6,0,1,0.4,1,1v0c0,0.6-0.4,1-1,1l-5,0C6.4,13,6,12.6,6,12z"/>
	<path class="st4" d="M52,12L52,12c0-0.6,0.4-1,1-1l4,0c0.6,0,1,0.4,1,1v0c0,0.6-0.4,1-1,1l-4,0C52.4,13,52,12.6,52,12z"/>
	<path class="st4" d="M44,12L44,12c0-0.6,0.4-1,1-1l4,0c0.6,0,1,0.4,1,1v0c0,0.6-0.4,1-1,1l-4,0C44.4,13,44,12.6,44,12z"/>
	<path class="st4" d="M36,12L36,12c0-0.6,0.4-1,1-1l4,0c0.6,0,1,0.4,1,1v0c0,0.6-0.4,1-1,1l-4,0C36.4,13,36,12.6,36,12z"/>
	<path class="st3" d="M61,5H15c-0.6,0-1-0.4-1-1v0c0-0.6,0.4-1,1-1h46c0.6,0,1,0.4,1,1v0C62,4.6,61.6,5,61,5z"/>
	<path class="st0" d="M53,25H37c-0.6,0-1-0.4-1-1v0c0-0.6,0.4-1,1-1h16c0.6,0,1,0.4,1,1v0C54,24.6,53.6,25,53,25z"/>
	<path class="st0" d="M51,29H37c-0.6,0-1-0.4-1-1v0c0-0.6,0.4-1,1-1h14c0.6,0,1,0.4,1,1v0C52,28.6,51.6,29,51,29z"/>
	<path class="st0" d="M48,33H37c-0.6,0-1-0.4-1-1v0c0-0.6,0.4-1,1-1h11c0.6,0,1,0.4,1,1v0C49,32.6,48.6,33,48,33z"/>
	<g>
		<path class="st5" d="M29,37H7c-0.6,0-1-0.4-1-1V20c0-0.6,0.4-1,1-1h22c0.6,0,1,0.4,1,1v16C30,36.6,29.6,37,29,37z"/>
		<circle class="st21" cx="11" cy="23" r="2"/>
		<path class="st4" d="M30,35l-7.3-7.3c-0.4-0.4-1-0.4-1.4,0L12,37h17c0.6,0,1-0.4,1-1V35z"/>
		<path class="st24" d="M26,32L26,32c-0.3,0.3-0.3,0.7,0,1l0.6,0.6c0.9,0.9,1.4,2.1,1.4,3.4v0h1c0.6,0,1-0.4,1-1v-1l-3-3
			C26.7,31.7,26.3,31.7,26,32z"/>
		<path class="st4" d="M7,37h12l-6.2-7.1c-0.4-0.5-1.1-0.5-1.5,0L6,35v1C6,36.6,6.4,37,7,37z"/>
		<path class="st24" d="M18.2,33.8c-0.6-0.7-1.6-0.9-2.4-0.5L19,37h2L18.2,33.8z"/>
		<path class="st6" d="M19.1,31.3L19.1,31.3c0.2,0.2,0.5,0.2,0.7,0l1.4-1.4c0.2-0.2,0.2-0.5,0-0.7l0,0c-0.2-0.2-0.5-0.2-0.7,0
			l-1.4,1.4C19,30.8,19,31.1,19.1,31.3z"/>
		<path class="st6" d="M9.7,32.9L9.7,32.9c0.2,0.2,0.5,0.2,0.7,0l1.4-1.4c0.2-0.2,0.2-0.5,0-0.7h0c-0.2-0.2-0.5-0.2-0.7,0l-1.4,1.4
			C9.5,32.3,9.5,32.7,9.7,32.9z"/>
	</g>
	<path class="st3" d="M39,50H25c-1.7,0-3-1.3-3-3v0c0-1.7,1.3-3,3-3h14c1.7,0,3,1.3,3,3v0C42,48.7,40.7,50,39,50z"/>
	<path class="st7" d="M39,49H25c-1.7,0-3-1.3-3-3v0c0-1.7,1.3-3,3-3h14c1.7,0,3,1.3,3,3v0C42,47.7,40.7,49,39,49z"/>
	<circle class="st8" cx="32" cy="46" r="1"/>
	<circle class="st8" cx="36" cy="46" r="1"/>
	<circle class="st8" cx="28" cy="46" r="1"/>
</g>
</svg>
