<?xml version="1.0" encoding="utf-8"?>
<!-- Generator: Adobe Illustrator 21.0.0, SVG Export Plug-In . SVG Version: 6.00 Build 0)  -->
<svg version="1.1" xmlns="http://www.w3.org/2000/svg" xmlns:xlink="http://www.w3.org/1999/xlink" x="0px" y="0px"
	 viewBox="0 0 64 60" style="enable-background:new 0 0 64 60;" xml:space="preserve">
<style type="text/css">
	.st0{fill:#CAD1D8;}
	.st1{fill:#FFFFFF;}
	.st2{fill:#595A66;}
	.st3{fill:#9BA7AF;}
	.st4{fill:#E2E5E7;}
	.st5{fill:#ABE1FA;}
	.st6{fill:#FDBA4D;}
	.st7{fill:#F19F35;}
	.st8{fill:#3BB54A;}
	.st9{fill:#0E9347;}
	.st10{fill:#E6E7E8;}
	.st11{fill:#BCBEC0;}
	.st12{fill:#D1D3D4;}
	.st13{fill:#A7A9AC;}
	.st14{fill:#DCDDDE;}
	.st15{fill:#B1B3B6;}
	.st16{fill:#C7C8CA;}
	.st17{fill:#9D9FA2;}
	.st18{fill:#3689C9;}
	.st19{fill:#EE2C39;}
	.st20{fill:#FFFFFF;stroke:#595A66;stroke-width:2;stroke-miterlimit:10;}
	.st21{fill:#F19F36;}
	.st22{fill:#D4D5D6;}
	.st23{fill:#35363E;}
	.st24{fill:#CC202C;}
	.st25{fill:#1A70AC;}
	.st26{fill:#BD6428;}
	.st27{fill:#A35723;}
	.st28{fill:#A35623;}
	.st29{fill:#DDDFE1;}
	.st30{fill:#1B6FAB;}
	.st31{fill:#165D91;}
	.st32{fill:#699DC4;}
	.st33{fill:#6F707E;}
	.st34{fill:#4C9FD7;}
	.st35{fill:#748B9E;}
	.st36{fill:#78B6E4;}
</style>
<g id="Layer_62">
</g>
<g id="Layer_60">
</g>
<g id="Layer_59">
</g>
<g id="Layer_58">
</g>
<g id="Layer_57">
</g>
<g id="Layer_56">
</g>
<g id="Layer_55">
</g>
<g id="Layer_54">
</g>
<g id="Layer_53">
</g>
<g id="Layer_52">
</g>
<g id="Layer_51">
</g>
<g id="Layer_50">
</g>
<g id="Layer_49">
</g>
<g id="Layer_48">
</g>
<g id="Layer_47">
</g>
<g id="Layer_46">
</g>
<g id="Layer_45">
</g>
<g id="Layer_44">
</g>
<g id="Layer_43">
</g>
<g id="Layer_42">
</g>
<g id="Layer_41">
</g>
<g id="Layer_40">
</g>
<g id="Layer_39">
</g>
<g id="Layer_38">
</g>
<g id="Layer_37">
</g>
<g id="Layer_36">
</g>
<g id="Layer_35">
</g>
<g id="Layer_34">
</g>
<g id="Layer_33">
</g>
<g id="Layer_32">
</g>
<g id="Layer_31">
</g>
<g id="Layer_30">
</g>
<g id="Layer_29">
</g>
<g id="Layer_28">
</g>
<g id="Layer_27">
</g>
<g id="Layer_26">
</g>
<g id="Layer_25">
</g>
<g id="Layer_24">
</g>
<g id="Layer_23">
</g>
<g id="Layer_22">
</g>
<g id="Layer_21">
</g>
<g id="Layer_20">
</g>
<g id="Layer_19">
</g>
<g id="Layer_18">
</g>
<g id="Layer_17">
</g>
<g id="Layer_16">
</g>
<g id="Layer_15">
</g>
<g id="Layer_14">
</g>
<g id="Layer_13">
</g>
<g id="Layer_12">
</g>
<g id="Layer_11">
</g>
<g id="Layer_10">
</g>
<g id="Layer_9">
</g>
<g id="Layer_8">
</g>
<g id="Layer_7">
</g>
<g id="Layer_6">
</g>
<g id="Layer_5">
</g>
<g id="Layer_4">
</g>
<g id="Layer_3">
</g>
<g id="Layer_2">
	<g>
		<path class="st0" d="M0,57V3c0-1.7,1.3-3,3-3h58c1.7,0,3,1.3,3,3v54c0,1.7-1.3,3-3,3H3C1.3,60,0,58.7,0,57z"/>
		<circle class="st3" cx="3" cy="4" r="1"/>
		<circle class="st3" cx="7" cy="4" r="1"/>
		<circle class="st3" cx="11" cy="4" r="1"/>
		<path class="st1" d="M3,8h58c0.6,0,1,0.4,1,1v48c0,0.6-0.4,1-1,1H3c-0.6,0-1-0.4-1-1V9C2,8.4,2.4,8,3,8z"/>
		<path class="st4" d="M61,5H15c-0.6,0-1-0.4-1-1v0c0-0.6,0.4-1,1-1h46c0.6,0,1,0.4,1,1v0C62,4.6,61.6,5,61,5z"/>
		<path class="st0" d="M57,16H39c-0.6,0-1,0.4-1,1v4c0,0.6,0.4,1,1,1h18c0.6,0,1-0.4,1-1v-4C58,16.4,57.6,16,57,16z M57,21H39v-4h18
			V21z"/>
		<path class="st0" d="M57,25H39c-0.6,0-1,0.4-1,1v4c0,0.6,0.4,1,1,1h18c0.6,0,1-0.4,1-1v-4C58,25.4,57.6,25,57,25z M57,30H39v-4h18
			V30z"/>
		<path class="st0" d="M57,34H39c-0.6,0-1,0.4-1,1v4c0,0.6,0.4,1,1,1h18c0.6,0,1-0.4,1-1v-4C58,34.4,57.6,34,57,34z M57,39H39v-4h18
			V39z"/>
		<rect x="39" y="17" class="st4" width="18" height="4"/>
		<rect x="39" y="26" class="st4" width="18" height="4"/>
		<rect x="39" y="35" class="st4" width="18" height="4"/>
		<path class="st5" d="M17,46h16c0.6,0,1,0.4,1,1v4c0,0.6-0.4,1-1,1H17c-0.6,0-1-0.4-1-1v-4C16,46.4,16.4,46,17,46z"/>
		<path class="st8" d="M33,32h-4c-0.6,0-1-0.4-1-1v-8c0-0.6,0.4-1,1-1h4c0.6,0,1,0.4,1,1v8C34,31.6,33.6,32,33,32z"/>
		<path class="st5" d="M25,32h-7c-0.6,0-1-0.4-1-1v-8c0-0.6,0.4-1,1-1h7c0.6,0,1,0.4,1,1v8C26,31.6,25.6,32,25,32z"/>
		<path class="st6" d="M18,44H7c-0.6,0-1-0.4-1-1v-8c0-0.6,0.4-1,1-1h11c0.6,0,1,0.4,1,1v8C19,43.6,18.6,44,18,44z"/>
		<path class="st8" d="M33,44H22c-0.6,0-1-0.4-1-1v-8c0-0.6,0.4-1,1-1h11c0.6,0,1,0.4,1,1v8C34,43.6,33.6,44,33,44z"/>
		<path class="st6" d="M13,52H7c-0.6,0-1-0.4-1-1v-4c0-0.6,0.4-1,1-1h6c0.6,0,1,0.4,1,1v4C14,51.6,13.6,52,13,52z"/>
		<path class="st6" d="M7,14h13c0.6,0,1,0.4,1,1v4c0,0.6-0.4,1-1,1H7c-0.6,0-1-0.4-1-1v-4C6,14.4,6.4,14,7,14z"/>
		<path class="st5" d="M24,14h9c0.6,0,1,0.4,1,1v4c0,0.6-0.4,1-1,1h-9c-0.6,0-1-0.4-1-1v-4C23,14.4,23.4,14,24,14z"/>
		<path class="st8" d="M14,32H7c-0.6,0-1-0.4-1-1v-8c0-0.6,0.4-1,1-1h7c0.6,0,1,0.4,1,1v8C15,31.6,14.6,32,14,32z"/>
		<g>
			<path class="st4" d="M51,50h-6c-1.1,0-2-0.9-2-2v0c0-1.1,0.9-2,2-2h6c1.1,0,2,0.9,2,2v0C53,49.1,52.1,50,51,50z"/>
			<path class="st8" d="M51,49h-6c-1.1,0-2-0.9-2-2v0c0-1.1,0.9-2,2-2h6c1.1,0,2,0.9,2,2v0C53,48.1,52.1,49,51,49z"/>
			<circle class="st9" cx="48" cy="47" r="1"/>
		</g>
		<g>
			<path class="st19" d="M27,26c-2.2,0-4,1.8-4,4c0,2.7,2.8,7.1,3.2,7.6c0.2,0.3,0.5,0.4,0.8,0.4s0.6-0.2,0.8-0.4
				c0.3-0.5,3.2-4.8,3.2-7.6C31,27.8,29.2,26,27,26z"/>
			<path class="st24" d="M27.8,37.6c0.3-0.5,3.2-4.8,3.2-7.6c0,0,0,0,0-0.1c0-2.6-4-2.5-4,0.1V38C27.3,38,27.6,37.8,27.8,37.6z"/>
			<circle class="st1" cx="27" cy="30" r="1"/>
		</g>
	</g>
</g>
</svg>
