<?xml version="1.0" encoding="utf-8"?>
<!-- Generator: Adobe Illustrator 21.0.0, SVG Export Plug-In . SVG Version: 6.00 Build 0)  -->
<svg version="1.1" id="Layer_1" xmlns="http://www.w3.org/2000/svg" xmlns:xlink="http://www.w3.org/1999/xlink" x="0px" y="0px"
	 viewBox="0 0 64 60" style="enable-background:new 0 0 64 60;" xml:space="preserve">
<style type="text/css">
	.st0{fill:#CAD1D8;}
	.st1{fill:#9BA7AF;}
	.st2{fill:#FFFFFF;}
	.st3{fill:#E2E5E7;}
	.st4{fill:#595A66;}
	.st5{fill:#ABE1FA;}
	.st6{fill:#6F707E;}
	.st7{fill:#3BB54A;}
	.st8{fill:#0E9347;}
	.st9{fill:#517CBE;}
	.st10{fill:#65CCEF;}
	.st11{fill:#EE2C39;}
	.st12{fill:#CC202C;}
	.st13{fill:#F16351;}
	.st14{fill:#DDDFE1;}
	.st15{fill:#89C763;}
	.st16{fill:#3689C9;}
	.st17{fill:#1B6FAB;}
	.st18{fill:#4C9FD7;}
	.st19{fill:#FDBA4D;}
	.st20{fill:#F19F36;}
	.st21{fill:#F19F35;}
	.st22{fill:#FFFFFF;stroke:#595A66;stroke-width:2;stroke-miterlimit:10;}
	.st23{fill:#1A70AC;}
	.st24{fill:#35363E;}
</style>
<g>
	<path class="st0" d="M0,57V3c0-1.7,1.3-3,3-3h58c1.7,0,3,1.3,3,3v54c0,1.7-1.3,3-3,3H3C1.3,60,0,58.7,0,57z"/>
	<circle class="st1" cx="3" cy="4" r="1"/>
	<circle class="st1" cx="7" cy="4" r="1"/>
	<circle class="st1" cx="11" cy="4" r="1"/>
	<path class="st2" d="M3,8h58c0.6,0,1,0.4,1,1v48c0,0.6-0.4,1-1,1H3c-0.6,0-1-0.4-1-1V9C2,8.4,2.4,8,3,8z"/>
	<path class="st3" d="M61,5H15c-0.6,0-1-0.4-1-1v0c0-0.6,0.4-1,1-1h46c0.6,0,1,0.4,1,1v0C62,4.6,61.6,5,61,5z"/>
	<circle class="st5" cx="15" cy="17" r="5"/>
	<path class="st17" d="M18.7,20.3c0-0.4-0.3-0.7-0.8-1l-1.3-0.8c-0.1-0.1-0.3-0.2-0.5-0.2v-0.6c0.4-0.3,0.6-0.8,0.6-1.4
		c0-1-0.8-1.9-1.9-1.9s-1.9,0.8-1.9,1.9c0,0.6,0.2,1,0.6,1.4v0.6c-0.2,0-0.3,0.1-0.5,0.2L12,19.3c-0.5,0.3-0.7,0.6-0.8,1
		c0.9,1,2.2,1.7,3.7,1.7S17.8,21.3,18.7,20.3z"/>
	<circle class="st5" cx="32" cy="17" r="5"/>
	<path class="st17" d="M35.7,20.3c0-0.4-0.3-0.7-0.8-1l-1.3-0.8c-0.1-0.1-0.3-0.2-0.5-0.2v-0.6c0.4-0.3,0.6-0.8,0.6-1.4
		c0-1-0.8-1.9-1.9-1.9s-1.9,0.8-1.9,1.9c0,0.6,0.2,1,0.6,1.4v0.6c-0.2,0-0.3,0.1-0.5,0.2L29,19.3c-0.5,0.3-0.7,0.6-0.8,1
		c0.9,1,2.2,1.7,3.7,1.7S34.8,21.3,35.7,20.3z"/>
	<circle class="st5" cx="49" cy="17" r="5"/>
	<path class="st17" d="M52.7,20.3c0-0.4-0.3-0.7-0.8-1l-1.3-0.8c-0.1-0.1-0.3-0.2-0.5-0.2v-0.6c0.4-0.3,0.6-0.8,0.6-1.4
		c0-1-0.8-1.9-1.9-1.9s-1.9,0.8-1.9,1.9c0,0.6,0.2,1,0.6,1.4v0.6c-0.2,0-0.3,0.1-0.5,0.2L46,19.3c-0.5,0.3-0.7,0.6-0.8,1
		c0.9,1,2.2,1.7,3.7,1.7S51.8,21.3,52.7,20.3z"/>
	<path class="st0" d="M21,26H9c-0.6,0-1-0.4-1-1v0c0-0.6,0.4-1,1-1h12c0.6,0,1,0.4,1,1v0C22,25.6,21.6,26,21,26z"/>
	<path class="st0" d="M18,30h-6c-0.6,0-1-0.4-1-1v0c0-0.6,0.4-1,1-1h6c0.6,0,1,0.4,1,1v0C19,29.6,18.6,30,18,30z"/>
	<path class="st0" d="M38,26H26c-0.6,0-1-0.4-1-1v0c0-0.6,0.4-1,1-1h12c0.6,0,1,0.4,1,1v0C39,25.6,38.6,26,38,26z"/>
	<path class="st0" d="M35,30h-6c-0.6,0-1-0.4-1-1v0c0-0.6,0.4-1,1-1h6c0.6,0,1,0.4,1,1v0C36,29.6,35.6,30,35,30z"/>
	<path class="st0" d="M55,26H43c-0.6,0-1-0.4-1-1v0c0-0.6,0.4-1,1-1h12c0.6,0,1,0.4,1,1v0C56,25.6,55.6,26,55,26z"/>
	<path class="st0" d="M52,30h-6c-0.6,0-1-0.4-1-1v0c0-0.6,0.4-1,1-1h6c0.6,0,1,0.4,1,1v0C53,29.6,52.6,30,52,30z"/>
	<circle class="st5" cx="15" cy="41" r="5"/>
	<path class="st17" d="M18.7,44.3c0-0.4-0.3-0.7-0.8-1l-1.3-0.8c-0.1-0.1-0.3-0.2-0.5-0.2v-0.6c0.4-0.3,0.6-0.8,0.6-1.4
		c0-1-0.8-1.9-1.9-1.9s-1.9,0.8-1.9,1.9c0,0.6,0.2,1,0.6,1.4v0.6c-0.2,0-0.3,0.1-0.5,0.2L12,43.3c-0.5,0.3-0.7,0.6-0.8,1
		c0.9,1,2.2,1.7,3.7,1.7S17.8,45.3,18.7,44.3z"/>
	<circle class="st5" cx="32" cy="41" r="5"/>
	<path class="st17" d="M35.7,44.3c0-0.4-0.3-0.7-0.8-1l-1.3-0.8c-0.1-0.1-0.3-0.2-0.5-0.2v-0.6c0.4-0.3,0.6-0.8,0.6-1.4
		c0-1-0.8-1.9-1.9-1.9s-1.9,0.8-1.9,1.9c0,0.6,0.2,1,0.6,1.4v0.6c-0.2,0-0.3,0.1-0.5,0.2L29,43.3c-0.5,0.3-0.7,0.6-0.8,1
		c0.9,1,2.2,1.7,3.7,1.7S34.8,45.3,35.7,44.3z"/>
	<circle class="st5" cx="49" cy="41" r="5"/>
	<path class="st17" d="M52.7,44.3c0-0.4-0.3-0.7-0.8-1l-1.3-0.8c-0.1-0.1-0.3-0.2-0.5-0.2v-0.6c0.4-0.3,0.6-0.8,0.6-1.4
		c0-1-0.8-1.9-1.9-1.9s-1.9,0.8-1.9,1.9c0,0.6,0.2,1,0.6,1.4v0.6c-0.2,0-0.3,0.1-0.5,0.2L46,43.3c-0.5,0.3-0.7,0.6-0.8,1
		c0.9,1,2.2,1.7,3.7,1.7S51.8,45.3,52.7,44.3z"/>
	<path class="st0" d="M21,50H9c-0.6,0-1-0.4-1-1l0,0c0-0.6,0.4-1,1-1h12c0.6,0,1,0.4,1,1l0,0C22,49.6,21.6,50,21,50z"/>
	<path class="st0" d="M18,54h-6c-0.6,0-1-0.4-1-1l0,0c0-0.6,0.4-1,1-1h6c0.6,0,1,0.4,1,1l0,0C19,53.6,18.6,54,18,54z"/>
	<path class="st0" d="M38,50H26c-0.6,0-1-0.4-1-1l0,0c0-0.6,0.4-1,1-1h12c0.6,0,1,0.4,1,1l0,0C39,49.6,38.6,50,38,50z"/>
	<path class="st0" d="M35,54h-6c-0.6,0-1-0.4-1-1l0,0c0-0.6,0.4-1,1-1h6c0.6,0,1,0.4,1,1l0,0C36,53.6,35.6,54,35,54z"/>
	<path class="st0" d="M55,50H43c-0.6,0-1-0.4-1-1l0,0c0-0.6,0.4-1,1-1h12c0.6,0,1,0.4,1,1l0,0C56,49.6,55.6,50,55,50z"/>
	<path class="st0" d="M52,54h-6c-0.6,0-1-0.4-1-1l0,0c0-0.6,0.4-1,1-1h6c0.6,0,1,0.4,1,1l0,0C53,53.6,52.6,54,52,54z"/>
</g>
</svg>
