<?xml version="1.0" encoding="utf-8"?>
<!-- Generator: Adobe Illustrator 21.0.0, SVG Export Plug-In . SVG Version: 6.00 Build 0)  -->
<svg version="1.1" xmlns="http://www.w3.org/2000/svg" xmlns:xlink="http://www.w3.org/1999/xlink" x="0px" y="0px"
	 viewBox="0 0 64 60" style="enable-background:new 0 0 64 60;" xml:space="preserve">
<style type="text/css">
	.st0{fill:#CAD1D8;}
	.st1{fill:#FFFFFF;}
	.st2{fill:#595A66;}
	.st3{fill:#9BA7AF;}
	.st4{fill:#E2E5E7;}
	.st5{fill:#ABE1FA;}
	.st6{fill:#FDBA4D;}
	.st7{fill:#F19F35;}
	.st8{fill:#3BB54A;}
	.st9{fill:#0E9347;}
	.st10{fill:#E6E7E8;}
	.st11{fill:#BCBEC0;}
	.st12{fill:#D1D3D4;}
	.st13{fill:#A7A9AC;}
	.st14{fill:#DCDDDE;}
	.st15{fill:#B1B3B6;}
	.st16{fill:#C7C8CA;}
	.st17{fill:#9D9FA2;}
	.st18{fill:#3689C9;}
	.st19{fill:#EE2C39;}
	.st20{fill:#FFFFFF;stroke:#595A66;stroke-width:2;stroke-miterlimit:10;}
	.st21{fill:#F19F36;}
	.st22{fill:#D4D5D6;}
	.st23{fill:#35363E;}
	.st24{fill:#CC202C;}
	.st25{fill:#1A70AC;}
	.st26{fill:#BD6428;}
	.st27{fill:#A35723;}
	.st28{fill:#A35623;}
	.st29{fill:#DDDFE1;}
	.st30{fill:#1B6FAB;}
	.st31{fill:#165D91;}
	.st32{fill:#699DC4;}
	.st33{fill:#6F707E;}
	.st34{fill:#4C9FD7;}
	.st35{fill:#748B9E;}
	.st36{fill:#78B6E4;}
</style>
<g id="Layer_62">
</g>
<g id="Layer_60">
</g>
<g id="Layer_59">
</g>
<g id="Layer_58">
</g>
<g id="Layer_57">
</g>
<g id="Layer_56">
</g>
<g id="Layer_55">
</g>
<g id="Layer_54">
</g>
<g id="Layer_53">
</g>
<g id="Layer_52">
</g>
<g id="Layer_51">
</g>
<g id="Layer_50">
</g>
<g id="Layer_49">
</g>
<g id="Layer_48">
</g>
<g id="Layer_47">
</g>
<g id="Layer_46">
</g>
<g id="Layer_45">
</g>
<g id="Layer_44">
</g>
<g id="Layer_43">
</g>
<g id="Layer_42">
</g>
<g id="Layer_41">
</g>
<g id="Layer_40">
</g>
<g id="Layer_39">
</g>
<g id="Layer_38">
</g>
<g id="Layer_37">
</g>
<g id="Layer_36">
</g>
<g id="Layer_35">
</g>
<g id="Layer_34">
</g>
<g id="Layer_33">
</g>
<g id="Layer_32">
</g>
<g id="Layer_31">
</g>
<g id="Layer_30">
</g>
<g id="Layer_29">
	<g>
		<path class="st0" d="M0,57V3c0-1.7,1.3-3,3-3h58c1.7,0,3,1.3,3,3v54c0,1.7-1.3,3-3,3H3C1.3,60,0,58.7,0,57z"/>
		<circle class="st3" cx="3" cy="4" r="1"/>
		<circle class="st3" cx="7" cy="4" r="1"/>
		<circle class="st3" cx="11" cy="4" r="1"/>
		<path class="st1" d="M3,8h58c0.6,0,1,0.4,1,1v48c0,0.6-0.4,1-1,1H3c-0.6,0-1-0.4-1-1V9C2,8.4,2.4,8,3,8z"/>
		<path class="st4" d="M61,5H15c-0.6,0-1-0.4-1-1v0c0-0.6,0.4-1,1-1h46c0.6,0,1,0.4,1,1v0C62,4.6,61.6,5,61,5z"/>
		<path class="st4" d="M8,51V33c0-1.1,0.9-2,2-2h44c1.1,0,2,0.9,2,2v18c0,1.1-0.9,2-2,2H10C8.9,53,8,52.1,8,51z"/>
		<path class="st4" d="M15,13c-3.9,0-7,3.1-7,7s3.1,7,7,7c3.9,0,7-3.1,7-7S18.9,13,15,13z M15,26c-3.3,0-6-2.7-6-6s2.7-6,6-6
			s6,2.7,6,6S18.3,26,15,26z"/>
		<path class="st4" d="M32,13c-3.9,0-7,3.1-7,7s3.1,7,7,7c3.9,0,7-3.1,7-7S35.9,13,32,13z M32,26c-3.3,0-6-2.7-6-6s2.7-6,6-6
			s6,2.7,6,6S35.3,26,32,26z"/>
		<path class="st4" d="M49,13c-3.9,0-7,3.1-7,7s3.1,7,7,7c3.9,0,7-3.1,7-7S52.9,13,49,13z M49,26c-3.3,0-6-2.7-6-6s2.7-6,6-6
			s6,2.7,6,6S52.3,26,49,26z"/>
		<path class="st0" d="M52,38H12c-0.6,0-1-0.4-1-1v-2c0-0.6,0.4-1,1-1h40c0.6,0,1,0.4,1,1v2C53,37.6,52.6,38,52,38z"/>
		<path class="st3" d="M25,38H12c-0.6,0-1-0.4-1-1v-2c0-0.6,0.4-1,1-1h13c0.6,0,1,0.4,1,1v2C26,37.6,25.6,38,25,38z"/>
		<path class="st0" d="M52,44H12c-0.6,0-1-0.4-1-1v-2c0-0.6,0.4-1,1-1h40c0.6,0,1,0.4,1,1v2C53,43.6,52.6,44,52,44z"/>
		<path class="st3" d="M45,44H12c-0.6,0-1-0.4-1-1v-2c0-0.6,0.4-1,1-1h33c0.6,0,1,0.4,1,1v2C46,43.6,45.6,44,45,44z"/>
		<path class="st0" d="M52,50H12c-0.6,0-1-0.4-1-1v-2c0-0.6,0.4-1,1-1h40c0.6,0,1,0.4,1,1v2C53,49.6,52.6,50,52,50z"/>
		<path class="st3" d="M35,50H12c-0.6,0-1-0.4-1-1v-2c0-0.6,0.4-1,1-1h23c0.6,0,1,0.4,1,1v2C36,49.6,35.6,50,35,50z"/>
		<path class="st19" d="M15,14v-1c-3.9,0-7,3.1-7,7h1C9,16.7,11.7,14,15,14z"/>
		<path class="st8" d="M26,20c0-3.3,2.7-6,6-6v-1c-3.9,0-7,3.1-7,7s3.1,7,7,7v-1C28.7,26,26,23.3,26,20z"/>
		<path class="st25" d="M49,26c-3.3,0-6-2.7-6-6s2.7-6,6-6v-1c-3.9,0-7,3.1-7,7s3.1,7,7,7c3.9,0,7-3.1,7-7h-1C55,23.3,52.3,26,49,26
			z"/>
		<path class="st0" d="M18,20h-6c-0.6,0-1-0.4-1-1v0c0-0.6,0.4-1,1-1h6c0.6,0,1,0.4,1,1v0C19,19.6,18.6,20,18,20z"/>
		<circle class="st19" cx="15" cy="22" r="1"/>
		<path class="st0" d="M35,20h-6c-0.6,0-1-0.4-1-1v0c0-0.6,0.4-1,1-1h6c0.6,0,1,0.4,1,1v0C36,19.6,35.6,20,35,20z"/>
		<circle class="st8" cx="32" cy="22" r="1"/>
		<path class="st0" d="M52,20h-6c-0.6,0-1-0.4-1-1v0c0-0.6,0.4-1,1-1h6c0.6,0,1,0.4,1,1v0C53,19.6,52.6,20,52,20z"/>
		<circle class="st25" cx="49" cy="22" r="1"/>
	</g>
</g>
<g id="Layer_28">
</g>
<g id="Layer_27">
</g>
<g id="Layer_26">
</g>
<g id="Layer_25">
</g>
<g id="Layer_24">
</g>
<g id="Layer_23">
</g>
<g id="Layer_22">
</g>
<g id="Layer_21">
</g>
<g id="Layer_20">
</g>
<g id="Layer_19">
</g>
<g id="Layer_18">
</g>
<g id="Layer_17">
</g>
<g id="Layer_16">
</g>
<g id="Layer_15">
</g>
<g id="Layer_14">
</g>
<g id="Layer_13">
</g>
<g id="Layer_12">
</g>
<g id="Layer_11">
</g>
<g id="Layer_10">
</g>
<g id="Layer_9">
</g>
<g id="Layer_8">
</g>
<g id="Layer_7">
</g>
<g id="Layer_6">
</g>
<g id="Layer_5">
</g>
<g id="Layer_4">
</g>
<g id="Layer_3">
</g>
<g id="Layer_2">
</g>
</svg>
