<?xml version="1.0" encoding="utf-8"?>
<!-- Generator: Adobe Illustrator 21.0.0, SVG Export Plug-In . SVG Version: 6.00 Build 0)  -->
<svg version="1.1" xmlns="http://www.w3.org/2000/svg" xmlns:xlink="http://www.w3.org/1999/xlink" x="0px" y="0px"
	 viewBox="0 0 64 60" style="enable-background:new 0 0 64 60;" xml:space="preserve">
<style type="text/css">
	.st0{fill:#CAD1D8;}
	.st1{fill:#FFFFFF;}
	.st2{fill:#595A66;}
	.st3{fill:#9BA7AF;}
	.st4{fill:#E2E5E7;}
	.st5{fill:#ABE1FA;}
	.st6{fill:#FDBA4D;}
	.st7{fill:#F19F35;}
	.st8{fill:#3BB54A;}
	.st9{fill:#0E9347;}
	.st10{fill:#E6E7E8;}
	.st11{fill:#BCBEC0;}
	.st12{fill:#D1D3D4;}
	.st13{fill:#A7A9AC;}
	.st14{fill:#DCDDDE;}
	.st15{fill:#B1B3B6;}
	.st16{fill:#C7C8CA;}
	.st17{fill:#9D9FA2;}
	.st18{fill:#3689C9;}
	.st19{fill:#EE2C39;}
	.st20{fill:#FFFFFF;stroke:#595A66;stroke-width:2;stroke-miterlimit:10;}
	.st21{fill:#F19F36;}
	.st22{fill:#D4D5D6;}
	.st23{fill:#35363E;}
	.st24{fill:#CC202C;}
	.st25{fill:#1A70AC;}
	.st26{fill:#BD6428;}
	.st27{fill:#A35723;}
	.st28{fill:#A35623;}
	.st29{fill:#DDDFE1;}
	.st30{fill:#1B6FAB;}
	.st31{fill:#165D91;}
	.st32{fill:#699DC4;}
	.st33{fill:#6F707E;}
	.st34{fill:#4C9FD7;}
	.st35{fill:#748B9E;}
	.st36{fill:#78B6E4;}
</style>
<g id="Layer_62">
</g>
<g id="Layer_60">
</g>
<g id="Layer_59">
</g>
<g id="Layer_58">
</g>
<g id="Layer_57">
</g>
<g id="Layer_56">
</g>
<g id="Layer_55">
</g>
<g id="Layer_54">
</g>
<g id="Layer_53">
</g>
<g id="Layer_52">
</g>
<g id="Layer_51">
</g>
<g id="Layer_50">
</g>
<g id="Layer_49">
</g>
<g id="Layer_48">
</g>
<g id="Layer_47">
</g>
<g id="Layer_46">
</g>
<g id="Layer_45">
</g>
<g id="Layer_44">
</g>
<g id="Layer_43">
</g>
<g id="Layer_42">
</g>
<g id="Layer_41">
</g>
<g id="Layer_40">
</g>
<g id="Layer_39">
</g>
<g id="Layer_38">
</g>
<g id="Layer_37">
</g>
<g id="Layer_36">
</g>
<g id="Layer_35">
</g>
<g id="Layer_34">
</g>
<g id="Layer_33">
</g>
<g id="Layer_32">
</g>
<g id="Layer_31">
</g>
<g id="Layer_30">
</g>
<g id="Layer_29">
</g>
<g id="Layer_28">
</g>
<g id="Layer_27">
</g>
<g id="Layer_26">
</g>
<g id="Layer_25">
</g>
<g id="Layer_24">
</g>
<g id="Layer_23">
</g>
<g id="Layer_22">
</g>
<g id="Layer_21">
</g>
<g id="Layer_20">
</g>
<g id="Layer_19">
</g>
<g id="Layer_18">
</g>
<g id="Layer_17">
</g>
<g id="Layer_16">
</g>
<g id="Layer_15">
</g>
<g id="Layer_14">
</g>
<g id="Layer_13">
	<g>
		<path class="st0" d="M0,57V3c0-1.7,1.3-3,3-3h58c1.7,0,3,1.3,3,3v54c0,1.7-1.3,3-3,3H3C1.3,60,0,58.7,0,57z"/>
		<circle class="st3" cx="3" cy="4" r="1"/>
		<circle class="st3" cx="7" cy="4" r="1"/>
		<circle class="st3" cx="11" cy="4" r="1"/>
		<path class="st23" d="M61,58H3c-0.6,0-1-0.4-1-1V9c0-0.6,0.4-1,1-1h58c0.6,0,1,0.4,1,1v48C62,57.6,61.6,58,61,58z"/>
		<path class="st4" d="M61,5H15c-0.6,0-1-0.4-1-1v0c0-0.6,0.4-1,1-1h46c0.6,0,1,0.4,1,1v0C62,4.6,61.6,5,61,5z"/>
		<g>
			<path class="st0" d="M16,14l-8,0c-0.6,0-1-0.4-1-1v0c0-0.6,0.4-1,1-1l8,0c0.6,0,1,0.4,1,1v0C17,13.6,16.6,14,16,14z"/>
			<path class="st0" d="M22,18H12c-0.6,0-1-0.4-1-1v0c0-0.6,0.4-1,1-1l10,0c0.6,0,1,0.4,1,1v0C23,17.6,22.6,18,22,18z"/>
			<path class="st0" d="M44,18H34c-0.6,0-1-0.4-1-1v0c0-0.6,0.4-1,1-1l10,0c0.6,0,1,0.4,1,1v0C45,17.6,44.6,18,44,18z"/>
			<path class="st19" d="M32,26H22c-0.6,0-1-0.4-1-1v0c0-0.6,0.4-1,1-1h10c0.6,0,1,0.4,1,1v0C33,25.6,32.6,26,32,26z"/>
			<path class="st8" d="M30,18h-4c-0.6,0-1-0.4-1-1v0c0-0.6,0.4-1,1-1h4c0.6,0,1,0.4,1,1v0C31,17.6,30.6,18,30,18z"/>
			<path class="st0" d="M25,22H12c-0.6,0-1-0.4-1-1v0c0-0.6,0.4-1,1-1h13c0.6,0,1,0.4,1,1v0C26,21.6,25.6,22,25,22z"/>
			<path class="st6" d="M18,26l-6,0c-0.6,0-1-0.4-1-1v0c0-0.6,0.4-1,1-1l6,0c0.6,0,1,0.4,1,1v0C19,25.6,18.6,26,18,26z"/>
			<path class="st0" d="M49,22h-6c-0.6,0-1-0.4-1-1v0c0-0.6,0.4-1,1-1h6c0.6,0,1,0.4,1,1v0C50,21.6,49.6,22,49,22z"/>
			<path class="st0" d="M38,42h-6c-0.6,0-1-0.4-1-1l0,0c0-0.6,0.4-1,1-1h6c0.6,0,1,0.4,1,1l0,0C39,41.6,38.6,42,38,42z"/>
			<path class="st19" d="M31,46h-6c-0.6,0-1-0.4-1-1l0,0c0-0.6,0.4-1,1-1h6c0.6,0,1,0.4,1,1l0,0C32,45.6,31.6,46,31,46z"/>
			<path class="st19" d="M41,46h-6c-0.6,0-1-0.4-1-1l0,0c0-0.6,0.4-1,1-1h6c0.6,0,1,0.4,1,1l0,0C42,45.6,41.6,46,41,46z"/>
			<path class="st8" d="M33,38h-4c-0.6,0-1-0.4-1-1l0,0c0-0.6,0.4-1,1-1h4c0.6,0,1,0.4,1,1l0,0C34,37.6,33.6,38,33,38z"/>
			<path class="st18" d="M56,50h-4c-0.6,0-1-0.4-1-1l0,0c0-0.6,0.4-1,1-1h4c0.6,0,1,0.4,1,1l0,0C57,49.6,56.6,50,56,50z"/>
			<path class="st18" d="M34,30h-8c-0.6,0-1-0.4-1-1v0c0-0.6,0.4-1,1-1h8c0.6,0,1,0.4,1,1v0C35,29.6,34.6,30,34,30z"/>
			<path class="st0" d="M39,22H29c-0.6,0-1-0.4-1-1v0c0-0.6,0.4-1,1-1h10c0.6,0,1,0.4,1,1v0C40,21.6,39.6,22,39,22z"/>
			<path class="st0" d="M22,30l-10,0c-0.6,0-1-0.4-1-1v0c0-0.6,0.4-1,1-1l10,0c0.6,0,1,0.4,1,1v0C23,29.6,22.6,30,22,30z"/>
			<path class="st0" d="M16,34H8c-0.6,0-1-0.4-1-1l0,0c0-0.6,0.4-1,1-1h8c0.6,0,1,0.4,1,1v0C17,33.6,16.6,34,16,34z"/>
			<path class="st0" d="M25,38H12c-0.6,0-1-0.4-1-1l0,0c0-0.6,0.4-1,1-1h13c0.6,0,1,0.4,1,1l0,0C26,37.6,25.6,38,25,38z"/>
			<path class="st6" d="M28,42H12c-0.6,0-1-0.4-1-1v0c0-0.6,0.4-1,1-1h16c0.6,0,1,0.4,1,1l0,0C29,41.6,28.6,42,28,42z"/>
			<path class="st6" d="M43,38h-6c-0.6,0-1-0.4-1-1l0,0c0-0.6,0.4-1,1-1h6c0.6,0,1,0.4,1,1l0,0C44,37.6,43.6,38,43,38z"/>
			<path class="st0" d="M21,46h-9c-0.6,0-1-0.4-1-1l0,0c0-0.6,0.4-1,1-1h9c0.6,0,1,0.4,1,1l0,0C22,45.6,21.6,46,21,46z"/>
			<path class="st0" d="M28,50H12c-0.6,0-1-0.4-1-1l0,0c0-0.6,0.4-1,1-1h16c0.6,0,1,0.4,1,1l0,0C29,49.6,28.6,50,28,50z"/>
			<path class="st0" d="M48,50H32c-0.6,0-1-0.4-1-1l0,0c0-0.6,0.4-1,1-1h16c0.6,0,1,0.4,1,1l0,0C49,49.6,48.6,50,48,50z"/>
			<path class="st0" d="M7,53L7,53c0-0.6,0.4-1,1-1h8c0.6,0,1,0.4,1,1l0,0c0,0.6-0.4,1-1,1H8C7.4,54,7,53.6,7,53z"/>
			<circle class="st0" cx="47" cy="37" r="1"/>
			<circle class="st0" cx="36" cy="25" r="1"/>
		</g>
	</g>
</g>
<g id="Layer_12">
</g>
<g id="Layer_11">
</g>
<g id="Layer_10">
</g>
<g id="Layer_9">
</g>
<g id="Layer_8">
</g>
<g id="Layer_7">
</g>
<g id="Layer_6">
</g>
<g id="Layer_5">
</g>
<g id="Layer_4">
</g>
<g id="Layer_3">
</g>
<g id="Layer_2">
</g>
</svg>
