<?xml version="1.0" encoding="utf-8"?>
<!-- Generator: Adobe Illustrator 21.0.0, SVG Export Plug-In . SVG Version: 6.00 Build 0)  -->
<svg version="1.1" xmlns="http://www.w3.org/2000/svg" xmlns:xlink="http://www.w3.org/1999/xlink" x="0px" y="0px"
	 viewBox="0 0 64 60" style="enable-background:new 0 0 64 60;" xml:space="preserve">
<style type="text/css">
	.st0{fill:#CAD1D8;}
	.st1{fill:#FFFFFF;}
	.st2{fill:#595A66;}
	.st3{fill:#9BA7AF;}
	.st4{fill:#E2E5E7;}
	.st5{fill:#ABE1FA;}
	.st6{fill:#FDBA4D;}
	.st7{fill:#F19F35;}
	.st8{fill:#3BB54A;}
	.st9{fill:#0E9347;}
	.st10{fill:#E6E7E8;}
	.st11{fill:#BCBEC0;}
	.st12{fill:#D1D3D4;}
	.st13{fill:#A7A9AC;}
	.st14{fill:#DCDDDE;}
	.st15{fill:#B1B3B6;}
	.st16{fill:#C7C8CA;}
	.st17{fill:#9D9FA2;}
	.st18{fill:#3689C9;}
	.st19{fill:#EE2C39;}
	.st20{fill:#FFFFFF;stroke:#595A66;stroke-width:2;stroke-miterlimit:10;}
	.st21{fill:#F19F36;}
	.st22{fill:#D4D5D6;}
	.st23{fill:#35363E;}
	.st24{fill:#CC202C;}
	.st25{fill:#1A70AC;}
	.st26{fill:#BD6428;}
	.st27{fill:#A35723;}
	.st28{fill:#A35623;}
	.st29{fill:#DDDFE1;}
	.st30{fill:#1B6FAB;}
	.st31{fill:#165D91;}
	.st32{fill:#699DC4;}
	.st33{fill:#6F707E;}
	.st34{fill:#4C9FD7;}
	.st35{fill:#748B9E;}
	.st36{fill:#78B6E4;}
</style>
<g id="Layer_62">
</g>
<g id="Layer_60">
</g>
<g id="Layer_59">
</g>
<g id="Layer_58">
</g>
<g id="Layer_57">
</g>
<g id="Layer_56">
</g>
<g id="Layer_55">
</g>
<g id="Layer_54">
</g>
<g id="Layer_53">
</g>
<g id="Layer_52">
</g>
<g id="Layer_51">
</g>
<g id="Layer_50">
</g>
<g id="Layer_49">
</g>
<g id="Layer_48">
</g>
<g id="Layer_47">
</g>
<g id="Layer_46">
</g>
<g id="Layer_45">
</g>
<g id="Layer_44">
</g>
<g id="Layer_43">
</g>
<g id="Layer_42">
</g>
<g id="Layer_41">
</g>
<g id="Layer_40">
</g>
<g id="Layer_39">
</g>
<g id="Layer_38">
</g>
<g id="Layer_37">
</g>
<g id="Layer_36">
</g>
<g id="Layer_35">
</g>
<g id="Layer_34">
</g>
<g id="Layer_33">
</g>
<g id="Layer_32">
</g>
<g id="Layer_31">
</g>
<g id="Layer_30">
</g>
<g id="Layer_29">
</g>
<g id="Layer_28">
</g>
<g id="Layer_27">
</g>
<g id="Layer_26">
</g>
<g id="Layer_25">
</g>
<g id="Layer_24">
</g>
<g id="Layer_23">
</g>
<g id="Layer_22">
</g>
<g id="Layer_21">
</g>
<g id="Layer_20">
</g>
<g id="Layer_19">
</g>
<g id="Layer_18">
</g>
<g id="Layer_17">
</g>
<g id="Layer_16">
</g>
<g id="Layer_15">
</g>
<g id="Layer_14">
</g>
<g id="Layer_13">
</g>
<g id="Layer_12">
</g>
<g id="Layer_11">
</g>
<g id="Layer_10">
</g>
<g id="Layer_9">
</g>
<g id="Layer_8">
</g>
<g id="Layer_7">
</g>
<g id="Layer_6">
</g>
<g id="Layer_5">
</g>
<g id="Layer_4">
</g>
<g id="Layer_3">
	<g>
		<path class="st0" d="M0,57V3c0-1.7,1.3-3,3-3h58c1.7,0,3,1.3,3,3v54c0,1.7-1.3,3-3,3H3C1.3,60,0,58.7,0,57z"/>
		<circle class="st3" cx="3" cy="4" r="1"/>
		<circle class="st3" cx="7" cy="4" r="1"/>
		<circle class="st3" cx="11" cy="4" r="1"/>
		<path class="st1" d="M3,8h58c0.6,0,1,0.4,1,1v48c0,0.6-0.4,1-1,1H3c-0.6,0-1-0.4-1-1V9C2,8.4,2.4,8,3,8z"/>
		<path class="st4" d="M61,5H15c-0.6,0-1-0.4-1-1v0c0-0.6,0.4-1,1-1h46c0.6,0,1,0.4,1,1v0C62,4.6,61.6,5,61,5z"/>
		<path class="st6" d="M19,32H8c-0.6,0-1-0.4-1-1v-7c0-0.6,0.4-1,1-1h11c0.6,0,1,0.4,1,1v7C20,31.6,19.6,32,19,32z"/>
		<path class="st5" d="M42,32H23c-0.6,0-1-0.4-1-1v-7c0-0.6,0.4-1,1-1h19c0.6,0,1,0.4,1,1v7C43,31.6,42.6,32,42,32z"/>
		<path class="st8" d="M56,32H46c-0.6,0-1-0.4-1-1v-7c0-0.6,0.4-1,1-1h10c0.6,0,1,0.4,1,1v7C57,31.6,56.6,32,56,32z"/>
		<path class="st8" d="M15,21H8c-0.6,0-1-0.4-1-1v-7c0-0.6,0.4-1,1-1h7c0.6,0,1,0.4,1,1v7C16,20.6,15.6,21,15,21z"/>
		<path class="st8" d="M33,21H19c-0.6,0-1-0.4-1-1v-7c0-0.6,0.4-1,1-1h14c0.6,0,1,0.4,1,1v7C34,20.6,33.6,21,33,21z"/>
		<path class="st5" d="M56,21H37c-0.6,0-1-0.4-1-1v-7c0-0.6,0.4-1,1-1h19c0.6,0,1,0.4,1,1v7C57,20.6,56.6,21,56,21z"/>
		<g>
			<path class="st19" d="M51,16c-2.2,0-4,1.8-4,4c0,2.7,2.8,7.1,3.2,7.6c0.2,0.3,0.5,0.4,0.8,0.4s0.6-0.2,0.8-0.4
				c0.3-0.5,3.2-4.8,3.2-7.6C55,17.8,53.2,16,51,16z"/>
			<path class="st24" d="M51.8,27.6c0.3-0.5,3.2-4.8,3.2-7.6c0,0,0,0,0-0.1c0-2.6-4-2.5-4,0.1V28C51.3,28,51.6,27.8,51.8,27.6z"/>
			<circle class="st1" cx="51" cy="20" r="1"/>
		</g>
		<path class="st0" d="M31,48H8c-0.6,0-1-0.4-1-1v0c0-0.6,0.4-1,1-1h23c0.6,0,1,0.4,1,1v0C32,47.6,31.6,48,31,48z"/>
		<path class="st0" d="M32,52H8c-0.6,0-1-0.4-1-1v0c0-0.6,0.4-1,1-1h24c0.6,0,1,0.4,1,1v0C33,51.6,32.6,52,32,52z"/>
		<path class="st0" d="M36,44H8c-0.6,0-1-0.4-1-1v0c0-0.6,0.4-1,1-1h28c0.6,0,1,0.4,1,1v0C37,43.6,36.6,44,36,44z"/>
		<path class="st2" d="M7,38L7,38c0-0.6,0.4-1,1-1h10c0.6,0,1,0.4,1,1l0,0c0,0.6-0.4,1-1,1H8C7.4,39,7,38.6,7,38z"/>
		<path class="st0" d="M51,48h-7c-0.6,0-1-0.4-1-1v0c0-0.6,0.4-1,1-1h7c0.6,0,1,0.4,1,1v0C52,47.6,51.6,48,51,48z"/>
		<path class="st0" d="M53,52h-9c-0.6,0-1-0.4-1-1v0c0-0.6,0.4-1,1-1h9c0.6,0,1,0.4,1,1v0C54,51.6,53.6,52,53,52z"/>
		<path class="st0" d="M56,44H44c-0.6,0-1-0.4-1-1v0c0-0.6,0.4-1,1-1h12c0.6,0,1,0.4,1,1v0C57,43.6,56.6,44,56,44z"/>
		<path class="st2" d="M43,38L43,38c0-0.6,0.4-1,1-1h8c0.6,0,1,0.4,1,1l0,0c0,0.6-0.4,1-1,1h-8C43.4,39,43,38.6,43,38z"/>
	</g>
</g>
<g id="Layer_2">
</g>
</svg>
