<?xml version="1.0" encoding="utf-8"?>
<!-- Generator: Adobe Illustrator 21.0.0, SVG Export Plug-In . SVG Version: 6.00 Build 0)  -->
<svg version="1.1" xmlns="http://www.w3.org/2000/svg" xmlns:xlink="http://www.w3.org/1999/xlink" x="0px" y="0px"
	 viewBox="0 0 64 60" style="enable-background:new 0 0 64 60;" xml:space="preserve">
<style type="text/css">
	.st0{fill:#CAD1D8;}
	.st1{fill:#FFFFFF;}
	.st2{fill:#595A66;}
	.st3{fill:#9BA7AF;}
	.st4{fill:#E2E5E7;}
	.st5{fill:#ABE1FA;}
	.st6{fill:#FDBA4D;}
	.st7{fill:#F19F35;}
	.st8{fill:#3BB54A;}
	.st9{fill:#0E9347;}
	.st10{fill:#E6E7E8;}
	.st11{fill:#BCBEC0;}
	.st12{fill:#D1D3D4;}
	.st13{fill:#A7A9AC;}
	.st14{fill:#DCDDDE;}
	.st15{fill:#B1B3B6;}
	.st16{fill:#C7C8CA;}
	.st17{fill:#9D9FA2;}
	.st18{fill:#3689C9;}
	.st19{fill:#EE2C39;}
	.st20{fill:#FFFFFF;stroke:#595A66;stroke-width:2;stroke-miterlimit:10;}
	.st21{fill:#F19F36;}
	.st22{fill:#D4D5D6;}
	.st23{fill:#35363E;}
	.st24{fill:#CC202C;}
	.st25{fill:#1A70AC;}
	.st26{fill:#BD6428;}
	.st27{fill:#A35723;}
	.st28{fill:#A35623;}
	.st29{fill:#DDDFE1;}
	.st30{fill:#1B6FAB;}
	.st31{fill:#165D91;}
	.st32{fill:#699DC4;}
	.st33{fill:#6F707E;}
	.st34{fill:#4C9FD7;}
	.st35{fill:#748B9E;}
	.st36{fill:#78B6E4;}
</style>
<g id="Layer_62">
</g>
<g id="Layer_60">
</g>
<g id="Layer_59">
</g>
<g id="Layer_58">
</g>
<g id="Layer_57">
</g>
<g id="Layer_56">
</g>
<g id="Layer_55">
</g>
<g id="Layer_54">
</g>
<g id="Layer_53">
	<g>
		<path class="st0" d="M0,57V3c0-1.7,1.3-3,3-3h58c1.7,0,3,1.3,3,3v54c0,1.7-1.3,3-3,3H3C1.3,60,0,58.7,0,57z"/>
		<circle class="st3" cx="3" cy="4" r="1"/>
		<circle class="st3" cx="7" cy="4" r="1"/>
		<circle class="st3" cx="11" cy="4" r="1"/>
		<path class="st1" d="M3,8h58c0.6,0,1,0.4,1,1v48c0,0.6-0.4,1-1,1H3c-0.6,0-1-0.4-1-1V9C2,8.4,2.4,8,3,8z"/>
		<path class="st4" d="M61,5H15c-0.6,0-1-0.4-1-1v0c0-0.6,0.4-1,1-1h46c0.6,0,1,0.4,1,1v0C62,4.6,61.6,5,61,5z"/>
		<path class="st2" d="M21,13L21,13c0-0.6,0.4-1,1-1h4c0.6,0,1,0.4,1,1v0c0,0.6-0.4,1-1,1h-4C21.4,14,21,13.6,21,13z"/>
		<path class="st2" d="M13,13L13,13c0-0.6,0.4-1,1-1h4c0.6,0,1,0.4,1,1v0c0,0.6-0.4,1-1,1h-4C13.4,14,13,13.6,13,13z"/>
		<path class="st3" d="M5,19L5,19c0-0.6,0.4-1,1-1h4c0.6,0,1,0.4,1,1v0c0,0.6-0.4,1-1,1H6C5.4,20,5,19.6,5,19z"/>
		<path class="st3" d="M5,23L5,23c0-0.6,0.4-1,1-1h4c0.6,0,1,0.4,1,1v0c0,0.6-0.4,1-1,1H6C5.4,24,5,23.6,5,23z"/>
		<path class="st3" d="M5,27L5,27c0-0.6,0.4-1,1-1h4c0.6,0,1,0.4,1,1v0c0,0.6-0.4,1-1,1H6C5.4,28,5,27.6,5,27z"/>
		<path class="st3" d="M5,31L5,31c0-0.6,0.4-1,1-1h4c0.6,0,1,0.4,1,1v0c0,0.6-0.4,1-1,1H6C5.4,32,5,31.6,5,31z"/>
		<path class="st3" d="M5,35L5,35c0-0.6,0.4-1,1-1h4c0.6,0,1,0.4,1,1l0,0c0,0.6-0.4,1-1,1H6C5.4,36,5,35.6,5,35z"/>
		<path class="st3" d="M5,39L5,39c0-0.6,0.4-1,1-1h4c0.6,0,1,0.4,1,1l0,0c0,0.6-0.4,1-1,1H6C5.4,40,5,39.6,5,39z"/>
		<path class="st3" d="M5,43L5,43c0-0.6,0.4-1,1-1h4c0.6,0,1,0.4,1,1l0,0c0,0.6-0.4,1-1,1H6C5.4,44,5,43.6,5,43z"/>
		<path class="st3" d="M5,51L5,51c0-0.6,0.4-1,1-1h4c0.6,0,1,0.4,1,1l0,0c0,0.6-0.4,1-1,1H6C5.4,52,5,51.6,5,51z"/>
		<path class="st3" d="M5,47L5,47c0-0.6,0.4-1,1-1h4c0.6,0,1,0.4,1,1l0,0c0,0.6-0.4,1-1,1H6C5.4,48,5,47.6,5,47z"/>
		<path class="st2" d="M29,13L29,13c0-0.6,0.4-1,1-1h4c0.6,0,1,0.4,1,1v0c0,0.6-0.4,1-1,1h-4C29.4,14,29,13.6,29,13z"/>
		<path class="st2" d="M37,13L37,13c0-0.6,0.4-1,1-1h4c0.6,0,1,0.4,1,1v0c0,0.6-0.4,1-1,1h-4C37.4,14,37,13.6,37,13z"/>
		<path class="st2" d="M45,13L45,13c0-0.6,0.4-1,1-1h4c0.6,0,1,0.4,1,1v0c0,0.6-0.4,1-1,1h-4C45.4,14,45,13.6,45,13z"/>
		<path class="st2" d="M53,13L53,13c0-0.6,0.4-1,1-1h4c0.6,0,1,0.4,1,1v0c0,0.6-0.4,1-1,1h-4C53.4,14,53,13.6,53,13z"/>
		<path class="st4" d="M13,53V17c0-0.6,0.4-1,1-1h44c0.6,0,1,0.4,1,1l0,36c0,0.6-0.4,1-1,1H14C13.4,54,13,53.6,13,53z"/>
		<path class="st0" d="M25,20H13v-2h12c0.6,0,1,0.4,1,1v0C26,19.6,25.6,20,25,20z"/>
		<path class="st0" d="M47,24H26c-0.6,0-1-0.4-1-1v0c0-0.6,0.4-1,1-1h21c0.6,0,1,0.4,1,1v0C48,23.6,47.6,24,47,24z"/>
		<path class="st18" d="M39,28H18c-0.6,0-1-0.4-1-1v0c0-0.6,0.4-1,1-1h21c0.6,0,1,0.4,1,1v0C40,27.6,39.6,28,39,28z"/>
		<path class="st0" d="M25,36h-7c-0.6,0-1-0.4-1-1l0,0c0-0.6,0.4-1,1-1h7c0.6,0,1,0.4,1,1l0,0C26,35.6,25.6,36,25,36z"/>
		<path class="st0" d="M50,20H38c-0.6,0-1-0.4-1-1v0c0-0.6,0.4-1,1-1h12c0.6,0,1,0.4,1,1v0C51,19.6,50.6,20,50,20z"/>
		<path class="st0" d="M55,36H35c-0.6,0-1-0.4-1-1l0,0c0-0.6,0.4-1,1-1h20c0.6,0,1,0.4,1,1l0,0C56,35.6,55.6,36,55,36z"/>
		<path class="st0" d="M59,40H46c-0.6,0-1-0.4-1-1l0,0c0-0.6,0.4-1,1-1h13V40z"/>
		<path class="st0" d="M38,52H18c-0.6,0-1-0.4-1-1l0,0c0-0.6,0.4-1,1-1h20c0.6,0,1,0.4,1,1l0,0C39,51.6,38.6,52,38,52z"/>
		<path class="st0" d="M59,48H26c-0.6,0-1-0.4-1-1l0,0c0-0.6,0.4-1,1-1h33V48z"/>
		<path class="st18" d="M36,40H24c-0.6,0-1-0.4-1-1l0,0c0-0.6,0.4-1,1-1h12c0.6,0,1,0.4,1,1l0,0C37,39.6,36.6,40,36,40z"/>
	</g>
</g>
<g id="Layer_52">
</g>
<g id="Layer_51">
</g>
<g id="Layer_50">
</g>
<g id="Layer_49">
</g>
<g id="Layer_48">
</g>
<g id="Layer_47">
</g>
<g id="Layer_46">
</g>
<g id="Layer_45">
</g>
<g id="Layer_44">
</g>
<g id="Layer_43">
</g>
<g id="Layer_42">
</g>
<g id="Layer_41">
</g>
<g id="Layer_40">
</g>
<g id="Layer_39">
</g>
<g id="Layer_38">
</g>
<g id="Layer_37">
</g>
<g id="Layer_36">
</g>
<g id="Layer_35">
</g>
<g id="Layer_34">
</g>
<g id="Layer_33">
</g>
<g id="Layer_32">
</g>
<g id="Layer_31">
</g>
<g id="Layer_30">
</g>
<g id="Layer_29">
</g>
<g id="Layer_28">
</g>
<g id="Layer_27">
</g>
<g id="Layer_26">
</g>
<g id="Layer_25">
</g>
<g id="Layer_24">
</g>
<g id="Layer_23">
</g>
<g id="Layer_22">
</g>
<g id="Layer_21">
</g>
<g id="Layer_20">
</g>
<g id="Layer_19">
</g>
<g id="Layer_18">
</g>
<g id="Layer_17">
</g>
<g id="Layer_16">
</g>
<g id="Layer_15">
</g>
<g id="Layer_14">
</g>
<g id="Layer_13">
</g>
<g id="Layer_12">
</g>
<g id="Layer_11">
</g>
<g id="Layer_10">
</g>
<g id="Layer_9">
</g>
<g id="Layer_8">
</g>
<g id="Layer_7">
</g>
<g id="Layer_6">
</g>
<g id="Layer_5">
</g>
<g id="Layer_4">
</g>
<g id="Layer_3">
</g>
<g id="Layer_2">
</g>
</svg>
