<?xml version="1.0" encoding="utf-8"?>
<!-- Generator: Adobe Illustrator 21.0.0, SVG Export Plug-In . SVG Version: 6.00 Build 0)  -->
<svg version="1.1" xmlns="http://www.w3.org/2000/svg" xmlns:xlink="http://www.w3.org/1999/xlink" x="0px" y="0px"
	 viewBox="0 0 64 60" style="enable-background:new 0 0 64 60;" xml:space="preserve">
<style type="text/css">
	.st0{fill:#CAD1D8;}
	.st1{fill:#FFFFFF;}
	.st2{fill:#595A66;}
	.st3{fill:#9BA7AF;}
	.st4{fill:#E2E5E7;}
	.st5{fill:#ABE1FA;}
	.st6{fill:#FDBA4D;}
	.st7{fill:#F19F35;}
	.st8{fill:#3BB54A;}
	.st9{fill:#0E9347;}
	.st10{fill:#E6E7E8;}
	.st11{fill:#BCBEC0;}
	.st12{fill:#D1D3D4;}
	.st13{fill:#A7A9AC;}
	.st14{fill:#DCDDDE;}
	.st15{fill:#B1B3B6;}
	.st16{fill:#C7C8CA;}
	.st17{fill:#9D9FA2;}
	.st18{fill:#3689C9;}
	.st19{fill:#EE2C39;}
	.st20{fill:#FFFFFF;stroke:#595A66;stroke-width:2;stroke-miterlimit:10;}
	.st21{fill:#F19F36;}
	.st22{fill:#D4D5D6;}
	.st23{fill:#35363E;}
	.st24{fill:#CC202C;}
	.st25{fill:#1A70AC;}
	.st26{fill:#BD6428;}
	.st27{fill:#A35723;}
	.st28{fill:#A35623;}
	.st29{fill:#DDDFE1;}
	.st30{fill:#1B6FAB;}
	.st31{fill:#165D91;}
	.st32{fill:#699DC4;}
	.st33{fill:#6F707E;}
	.st34{fill:#4C9FD7;}
	.st35{fill:#748B9E;}
	.st36{fill:#78B6E4;}
</style>
<g id="Layer_62">
</g>
<g id="Layer_60">
</g>
<g id="Layer_59">
</g>
<g id="Layer_58">
</g>
<g id="Layer_57">
</g>
<g id="Layer_56">
</g>
<g id="Layer_55">
</g>
<g id="Layer_54">
</g>
<g id="Layer_53">
</g>
<g id="Layer_52">
</g>
<g id="Layer_51">
</g>
<g id="Layer_50">
</g>
<g id="Layer_49">
</g>
<g id="Layer_48">
</g>
<g id="Layer_47">
</g>
<g id="Layer_46">
</g>
<g id="Layer_45">
</g>
<g id="Layer_44">
</g>
<g id="Layer_43">
</g>
<g id="Layer_42">
</g>
<g id="Layer_41">
</g>
<g id="Layer_40">
</g>
<g id="Layer_39">
</g>
<g id="Layer_38">
</g>
<g id="Layer_37">
</g>
<g id="Layer_36">
</g>
<g id="Layer_35">
</g>
<g id="Layer_34">
</g>
<g id="Layer_33">
</g>
<g id="Layer_32">
</g>
<g id="Layer_31">
</g>
<g id="Layer_30">
</g>
<g id="Layer_29">
</g>
<g id="Layer_28">
</g>
<g id="Layer_27">
</g>
<g id="Layer_26">
</g>
<g id="Layer_25">
</g>
<g id="Layer_24">
	<g>
		<path class="st0" d="M0,57V3c0-1.7,1.3-3,3-3h58c1.7,0,3,1.3,3,3v54c0,1.7-1.3,3-3,3H3C1.3,60,0,58.7,0,57z"/>
		<path class="st1" d="M3,8h58c0.6,0,1,0.4,1,1v48c0,0.6-0.4,1-1,1H3c-0.6,0-1-0.4-1-1V9C2,8.4,2.4,8,3,8z"/>
		<circle class="st3" cx="3" cy="4" r="1"/>
		<circle class="st3" cx="7" cy="4" r="1"/>
		<circle class="st3" cx="11" cy="4" r="1"/>
		<path class="st4" d="M61,5H15c-0.6,0-1-0.4-1-1v0c0-0.6,0.4-1,1-1h46c0.6,0,1,0.4,1,1v0C62,4.6,61.6,5,61,5z"/>
		<path class="st0" d="M19,28H7c-0.6,0-1-0.4-1-1v0c0-0.6,0.4-1,1-1h12c0.6,0,1,0.4,1,1v0C20,27.6,19.6,28,19,28z"/>
		<path class="st0" d="M16,32l-9,0c-0.6,0-1-0.4-1-1v0c0-0.6,0.4-1,1-1h9c0.6,0,1,0.4,1,1v0C17,31.6,16.6,32,16,32z"/>
		<g>
			<g>
				<g>
					<path class="st26" d="M7,23.5c-0.3,0-0.5-0.2-0.5-0.5V11c0-0.3,0.2-0.5,0.5-0.5h22c0.3,0,0.5,0.2,0.5,0.5v12
						c0,0.3-0.2,0.5-0.5,0.5H7z"/>
				</g>
				<path class="st27" d="M29,10H7c-0.6,0-1,0.4-1,1v12c0,0.6,0.4,1,1,1h22c0.6,0,1-0.4,1-1V11C30,10.4,29.6,10,29,10z M29,23H7V11
					h22V23z"/>
			</g>
		</g>
		<g>
			<path class="st4" d="M28,32h-4c-1.1,0-2-0.9-2-2v0c0-1.1,0.9-2,2-2h4c1.1,0,2,0.9,2,2v0C30,31.1,29.1,32,28,32z"/>
			<path class="st8" d="M28,31h-4c-1.1,0-2-0.9-2-2v0c0-1.1,0.9-2,2-2h4c1.1,0,2,0.9,2,2v0C30,30.1,29.1,31,28,31z"/>
			<circle class="st9" cx="26" cy="29" r="1"/>
		</g>
		<g>
			<g>
				<circle class="st28" cx="16" cy="22" r="1"/>
			</g>
			<g>
				<circle class="st28" cx="20" cy="22" r="1"/>
			</g>
			<path class="st28" d="M23,13h-2c-0.6,0-1,0.4-1,1v1h-5c-0.5,0-1,0.5-1,1l0,3c0,0.5,0.5,1,1,1h6c0.5,0,1-0.5,1-1v-4h1
				c0.6,0,1-0.4,1-1S23.6,13,23,13z"/>
		</g>
		<g>
			<g>
				<circle class="st1" cx="16" cy="21" r="1"/>
			</g>
			<g>
				<circle class="st1" cx="20" cy="21" r="1"/>
			</g>
			<path class="st1" d="M23,12h-2c-0.6,0-1,0.4-1,1v1h-5c-0.5,0-1,0.5-1,1l0,3c0,0.5,0.5,1,1,1h6c0.5,0,1-0.5,1-1v-4h1
				c0.6,0,1-0.4,1-1S23.6,12,23,12z"/>
		</g>
		<path class="st0" d="M47,28H35c-0.6,0-1-0.4-1-1v0c0-0.6,0.4-1,1-1h12c0.6,0,1,0.4,1,1v0C48,27.6,47.6,28,47,28z"/>
		<path class="st0" d="M44,32l-9,0c-0.6,0-1-0.4-1-1v0c0-0.6,0.4-1,1-1h9c0.6,0,1,0.4,1,1v0C45,31.6,44.6,32,44,32z"/>
		<g>
			<g>
				<g>
					<path class="st26" d="M35,23.5c-0.3,0-0.5-0.2-0.5-0.5V11c0-0.3,0.2-0.5,0.5-0.5h22c0.3,0,0.5,0.2,0.5,0.5v12
						c0,0.3-0.2,0.5-0.5,0.5H35z"/>
				</g>
				<path class="st27" d="M57,10H35c-0.6,0-1,0.4-1,1v12c0,0.6,0.4,1,1,1h22c0.6,0,1-0.4,1-1V11C58,10.4,57.6,10,57,10z M57,23H35
					V11h22V23z"/>
			</g>
		</g>
		<g>
			<path class="st4" d="M56,32h-4c-1.1,0-2-0.9-2-2v0c0-1.1,0.9-2,2-2h4c1.1,0,2,0.9,2,2v0C58,31.1,57.1,32,56,32z"/>
			<path class="st8" d="M56,31h-4c-1.1,0-2-0.9-2-2v0c0-1.1,0.9-2,2-2h4c1.1,0,2,0.9,2,2v0C58,30.1,57.1,31,56,31z"/>
			<circle class="st9" cx="54" cy="29" r="1"/>
		</g>
		<g>
			<g>
				<circle class="st28" cx="44" cy="22" r="1"/>
			</g>
			<g>
				<circle class="st28" cx="48" cy="22" r="1"/>
			</g>
			<path class="st28" d="M51,13h-2c-0.6,0-1,0.4-1,1v1h-5c-0.5,0-1,0.5-1,1l0,3c0,0.5,0.5,1,1,1h6c0.5,0,1-0.5,1-1v-4h1
				c0.6,0,1-0.4,1-1S51.6,13,51,13z"/>
		</g>
		<g>
			<g>
				<circle class="st1" cx="44" cy="21" r="1"/>
			</g>
			<g>
				<circle class="st1" cx="48" cy="21" r="1"/>
			</g>
			<path class="st1" d="M51,12h-2c-0.6,0-1,0.4-1,1v1h-5c-0.5,0-1,0.5-1,1l0,3c0,0.5,0.5,1,1,1h6c0.5,0,1-0.5,1-1v-4h1
				c0.6,0,1-0.4,1-1S51.6,12,51,12z"/>
		</g>
		<path class="st0" d="M19,52H7c-0.6,0-1-0.4-1-1v0c0-0.6,0.4-1,1-1h12c0.6,0,1,0.4,1,1v0C20,51.6,19.6,52,19,52z"/>
		<path class="st0" d="M16,56H7c-0.6,0-1-0.4-1-1v0c0-0.6,0.4-1,1-1h9c0.6,0,1,0.4,1,1v0C17,55.6,16.6,56,16,56z"/>
		<g>
			<g>
				<g>
					<path class="st26" d="M7,47.5c-0.3,0-0.5-0.2-0.5-0.5V35c0-0.3,0.2-0.5,0.5-0.5h22c0.3,0,0.5,0.2,0.5,0.5v12
						c0,0.3-0.2,0.5-0.5,0.5H7z"/>
				</g>
				<path class="st27" d="M29,34H7c-0.6,0-1,0.4-1,1v12c0,0.6,0.4,1,1,1h22c0.6,0,1-0.4,1-1V35C30,34.4,29.6,34,29,34z M29,47H7V35
					h22V47z"/>
			</g>
		</g>
		<g>
			<path class="st4" d="M28,56h-4c-1.1,0-2-0.9-2-2v0c0-1.1,0.9-2,2-2h4c1.1,0,2,0.9,2,2v0C30,55.1,29.1,56,28,56z"/>
			<path class="st8" d="M28,55h-4c-1.1,0-2-0.9-2-2v0c0-1.1,0.9-2,2-2h4c1.1,0,2,0.9,2,2v0C30,54.1,29.1,55,28,55z"/>
			<circle class="st9" cx="26" cy="53" r="1"/>
		</g>
		<g>
			<g>
				<circle class="st28" cx="16" cy="46" r="1"/>
			</g>
			<g>
				<circle class="st28" cx="20" cy="46" r="1"/>
			</g>
			<path class="st28" d="M23,37h-2c-0.6,0-1,0.4-1,1v1h-5c-0.5,0-1,0.5-1,1l0,3c0,0.5,0.5,1,1,1h6c0.5,0,1-0.5,1-1v-4h1
				c0.6,0,1-0.4,1-1S23.6,37,23,37z"/>
		</g>
		<g>
			<g>
				<circle class="st1" cx="16" cy="45" r="1"/>
			</g>
			<g>
				<circle class="st1" cx="20" cy="45" r="1"/>
			</g>
			<path class="st1" d="M23,36h-2c-0.6,0-1,0.4-1,1v1h-5c-0.5,0-1,0.5-1,1l0,3c0,0.5,0.5,1,1,1h6c0.5,0,1-0.5,1-1v-4h1
				c0.6,0,1-0.4,1-1S23.6,36,23,36z"/>
		</g>
		<path class="st0" d="M47,52H35c-0.6,0-1-0.4-1-1v0c0-0.6,0.4-1,1-1h12c0.6,0,1,0.4,1,1v0C48,51.6,47.6,52,47,52z"/>
		<path class="st0" d="M44,56h-9c-0.6,0-1-0.4-1-1v0c0-0.6,0.4-1,1-1h9c0.6,0,1,0.4,1,1v0C45,55.6,44.6,56,44,56z"/>
		<g>
			<g>
				<g>
					<path class="st26" d="M35,47.5c-0.3,0-0.5-0.2-0.5-0.5V35c0-0.3,0.2-0.5,0.5-0.5h22c0.3,0,0.5,0.2,0.5,0.5v12
						c0,0.3-0.2,0.5-0.5,0.5H35z"/>
				</g>
				<path class="st27" d="M57,34H35c-0.6,0-1,0.4-1,1v12c0,0.6,0.4,1,1,1h22c0.6,0,1-0.4,1-1V35C58,34.4,57.6,34,57,34z M57,47H35
					V35h22V47z"/>
			</g>
		</g>
		<g>
			<path class="st4" d="M56,56h-4c-1.1,0-2-0.9-2-2v0c0-1.1,0.9-2,2-2h4c1.1,0,2,0.9,2,2v0C58,55.1,57.1,56,56,56z"/>
			<path class="st8" d="M56,55h-4c-1.1,0-2-0.9-2-2v0c0-1.1,0.9-2,2-2h4c1.1,0,2,0.9,2,2v0C58,54.1,57.1,55,56,55z"/>
			<circle class="st9" cx="54" cy="53" r="1"/>
		</g>
		<g>
			<g>
				<circle class="st28" cx="44" cy="46" r="1"/>
			</g>
			<g>
				<circle class="st28" cx="48" cy="46" r="1"/>
			</g>
			<path class="st28" d="M51,37h-2c-0.6,0-1,0.4-1,1v1h-5c-0.5,0-1,0.5-1,1l0,3c0,0.5,0.5,1,1,1h6c0.5,0,1-0.5,1-1v-4h1
				c0.6,0,1-0.4,1-1S51.6,37,51,37z"/>
		</g>
		<g>
			<g>
				<circle class="st1" cx="44" cy="45" r="1"/>
			</g>
			<g>
				<circle class="st1" cx="48" cy="45" r="1"/>
			</g>
			<path class="st1" d="M51,36h-2c-0.6,0-1,0.4-1,1v1h-5c-0.5,0-1,0.5-1,1l0,3c0,0.5,0.5,1,1,1h6c0.5,0,1-0.5,1-1v-4h1
				c0.6,0,1-0.4,1-1S51.6,36,51,36z"/>
		</g>
		<g>
			<path class="st29" d="M51,13c-0.6,0-1,0.4-1,1h1c0.6,0,1-0.4,1-1H51z"/>
			<path class="st29" d="M49,16v2h-7c0,0.6,0.4,1,1,1h6c0.6,0,1-0.4,1-1v-2v-1C49.4,15,49,15.4,49,16z"/>
		</g>
		<g>
			<path class="st29" d="M23,13c-0.6,0-1,0.4-1,1h1c0.6,0,1-0.4,1-1H23z"/>
			<path class="st29" d="M21,16v2h-7c0,0.6,0.4,1,1,1h6c0.6,0,1-0.4,1-1v-2v-1C21.4,15,21,15.4,21,16z"/>
		</g>
		<g>
			<path class="st29" d="M51,37c-0.6,0-1,0.4-1,1h1c0.6,0,1-0.4,1-1H51z"/>
			<path class="st29" d="M49,40v2h-7c0,0.6,0.4,1,1,1h6c0.6,0,1-0.4,1-1v-2v-1C49.4,39,49,39.4,49,40z"/>
		</g>
		<g>
			<path class="st29" d="M23,37c-0.6,0-1,0.4-1,1h1c0.6,0,1-0.4,1-1H23z"/>
			<path class="st29" d="M21,40v2h-7c0,0.6,0.4,1,1,1h6c0.6,0,1-0.4,1-1v-2v-1C21.4,39,21,39.4,21,40z"/>
		</g>
	</g>
</g>
<g id="Layer_23">
</g>
<g id="Layer_22">
</g>
<g id="Layer_21">
</g>
<g id="Layer_20">
</g>
<g id="Layer_19">
</g>
<g id="Layer_18">
</g>
<g id="Layer_17">
</g>
<g id="Layer_16">
</g>
<g id="Layer_15">
</g>
<g id="Layer_14">
</g>
<g id="Layer_13">
</g>
<g id="Layer_12">
</g>
<g id="Layer_11">
</g>
<g id="Layer_10">
</g>
<g id="Layer_9">
</g>
<g id="Layer_8">
</g>
<g id="Layer_7">
</g>
<g id="Layer_6">
</g>
<g id="Layer_5">
</g>
<g id="Layer_4">
</g>
<g id="Layer_3">
</g>
<g id="Layer_2">
</g>
</svg>
