<?xml version="1.0" encoding="utf-8"?>
<!-- Generator: Adobe Illustrator 21.0.0, SVG Export Plug-In . SVG Version: 6.00 Build 0)  -->
<svg version="1.1" xmlns="http://www.w3.org/2000/svg" xmlns:xlink="http://www.w3.org/1999/xlink" x="0px" y="0px"
	 viewBox="0 0 64 60" style="enable-background:new 0 0 64 60;" xml:space="preserve">
<style type="text/css">
	.st0{fill:#CAD1D8;}
	.st1{fill:#FFFFFF;}
	.st2{fill:#595A66;}
	.st3{fill:#9BA7AF;}
	.st4{fill:#E2E5E7;}
	.st5{fill:#ABE1FA;}
	.st6{fill:#FDBA4D;}
	.st7{fill:#F19F35;}
	.st8{fill:#3BB54A;}
	.st9{fill:#0E9347;}
	.st10{fill:#E6E7E8;}
	.st11{fill:#BCBEC0;}
	.st12{fill:#D1D3D4;}
	.st13{fill:#A7A9AC;}
	.st14{fill:#DCDDDE;}
	.st15{fill:#B1B3B6;}
	.st16{fill:#C7C8CA;}
	.st17{fill:#9D9FA2;}
	.st18{fill:#3689C9;}
	.st19{fill:#EE2C39;}
	.st20{fill:#FFFFFF;stroke:#595A66;stroke-width:2;stroke-miterlimit:10;}
	.st21{fill:#F19F36;}
	.st22{fill:#D4D5D6;}
	.st23{fill:#35363E;}
	.st24{fill:#CC202C;}
	.st25{fill:#1A70AC;}
	.st26{fill:#BD6428;}
	.st27{fill:#A35723;}
	.st28{fill:#A35623;}
	.st29{fill:#DDDFE1;}
	.st30{fill:#1B6FAB;}
	.st31{fill:#165D91;}
	.st32{fill:#699DC4;}
	.st33{fill:#6F707E;}
	.st34{fill:#4C9FD7;}
	.st35{fill:#748B9E;}
	.st36{fill:#78B6E4;}
</style>
<g id="Layer_62">
</g>
<g id="Layer_60">
</g>
<g id="Layer_59">
</g>
<g id="Layer_58">
</g>
<g id="Layer_57">
</g>
<g id="Layer_56">
</g>
<g id="Layer_55">
</g>
<g id="Layer_54">
</g>
<g id="Layer_53">
</g>
<g id="Layer_52">
</g>
<g id="Layer_51">
</g>
<g id="Layer_50">
</g>
<g id="Layer_49">
</g>
<g id="Layer_48">
</g>
<g id="Layer_47">
</g>
<g id="Layer_46">
</g>
<g id="Layer_45">
</g>
<g id="Layer_44">
</g>
<g id="Layer_43">
</g>
<g id="Layer_42">
</g>
<g id="Layer_41">
</g>
<g id="Layer_40">
</g>
<g id="Layer_39">
</g>
<g id="Layer_38">
</g>
<g id="Layer_37">
</g>
<g id="Layer_36">
</g>
<g id="Layer_35">
</g>
<g id="Layer_34">
</g>
<g id="Layer_33">
</g>
<g id="Layer_32">
</g>
<g id="Layer_31">
</g>
<g id="Layer_30">
</g>
<g id="Layer_29">
</g>
<g id="Layer_28">
</g>
<g id="Layer_27">
</g>
<g id="Layer_26">
</g>
<g id="Layer_25">
</g>
<g id="Layer_24">
</g>
<g id="Layer_23">
</g>
<g id="Layer_22">
</g>
<g id="Layer_21">
</g>
<g id="Layer_20">
</g>
<g id="Layer_19">
</g>
<g id="Layer_18">
</g>
<g id="Layer_17">
</g>
<g id="Layer_16">
</g>
<g id="Layer_15">
</g>
<g id="Layer_14">
</g>
<g id="Layer_13">
</g>
<g id="Layer_12">
</g>
<g id="Layer_11">
</g>
<g id="Layer_10">
</g>
<g id="Layer_9">
</g>
<g id="Layer_8">
</g>
<g id="Layer_7">
	<g>
		<path class="st0" d="M0,57V3c0-1.7,1.3-3,3-3h58c1.7,0,3,1.3,3,3v54c0,1.7-1.3,3-3,3H3C1.3,60,0,58.7,0,57z"/>
		<circle class="st3" cx="3" cy="4" r="1"/>
		<circle class="st3" cx="7" cy="4" r="1"/>
		<circle class="st3" cx="11" cy="4" r="1"/>
		<path class="st3" d="M3,8h58c0.6,0,1,0.4,1,1v48c0,0.6-0.4,1-1,1H3c-0.6,0-1-0.4-1-1V9C2,8.4,2.4,8,3,8z"/>
		<path class="st4" d="M61,5H15c-0.6,0-1-0.4-1-1v0c0-0.6,0.4-1,1-1h46c0.6,0,1,0.4,1,1v0C62,4.6,61.6,5,61,5z"/>
		<path class="st35" d="M18,54h-6c-0.6,0-1-0.4-1-1l0,0c0-0.6,0.4-1,1-1h6c0.6,0,1,0.4,1,1l0,0C19,53.6,18.6,54,18,54z"/>
		<path class="st35" d="M35,54h-6c-0.6,0-1-0.4-1-1l0,0c0-0.6,0.4-1,1-1h6c0.6,0,1,0.4,1,1l0,0C36,53.6,35.6,54,35,54z"/>
		<path class="st35" d="M52,54h-6c-0.6,0-1-0.4-1-1l0,0c0-0.6,0.4-1,1-1h6c0.6,0,1,0.4,1,1l0,0C53,53.6,52.6,54,52,54z"/>
		<path class="st1" d="M12,17h40c0.6,0,1,0.4,1,1v30c0,0.6-0.4,1-1,1H12c-0.6,0-1-0.4-1-1V18C11,17.4,11.4,17,12,17z"/>
		<path class="st18" d="M11,18c0-0.6,0.4-1,1-1h8c0-2.8-2.2-5-5-5s-5,2.2-5,5c0,1.1,0.4,2.1,1,3V18z"/>
		<path class="st18" d="M32,12c-2.8,0-5,2.2-5,5h10C37,14.2,34.8,12,32,12z"/>
		<path class="st18" d="M53,18v2c0.6-0.8,1-1.9,1-3c0-2.8-2.2-5-5-5s-5,2.2-5,5h8C52.6,17,53,17.4,53,18z"/>
		<path class="st35" d="M26,50h12c0.6,0,1-0.4,1-1H25C25,49.6,25.4,50,26,50z"/>
		<path class="st35" d="M55,48h-2c0,0.6-0.4,1-1,1H42c0,0.6,0.4,1,1,1h12c0.6,0,1-0.4,1-1C56,48.4,55.6,48,55,48z"/>
		<path class="st35" d="M55,24h-2v2h2c0.6,0,1-0.4,1-1C56,24.4,55.6,24,55,24z"/>
		<path class="st35" d="M11,24H9c-0.6,0-1,0.4-1,1c0,0.6,0.4,1,1,1h2V24z"/>
		<path class="st35" d="M11,48H9c-0.6,0-1,0.4-1,1c0,0.6,0.4,1,1,1h12c0.6,0,1-0.4,1-1H12C11.4,49,11,48.6,11,48z"/>
		<circle class="st5" cx="32" cy="28" r="5"/>
		<path class="st30" d="M35.7,31.3c0-0.4-0.3-0.7-0.8-1l-1.3-0.8c-0.1-0.1-0.3-0.2-0.5-0.2v-0.6c0.4-0.3,0.6-0.8,0.6-1.4
			c0-1-0.8-1.9-1.9-1.9s-1.9,0.8-1.9,1.9c0,0.6,0.2,1,0.6,1.4v0.6c-0.2,0-0.3,0.1-0.5,0.2L29,30.3c-0.5,0.3-0.7,0.6-0.8,1
			c0.9,1,2.2,1.7,3.7,1.7S34.8,32.3,35.7,31.3z"/>
		<path class="st4" d="M43,43h-6c-1.1,0-2-0.9-2-2v0c0-1.1,0.9-2,2-2h6c1.1,0,2,0.9,2,2v0C45,42.1,44.1,43,43,43z"/>
		<path class="st8" d="M43,42h-6c-1.1,0-2-0.9-2-2v0c0-1.1,0.9-2,2-2h6c1.1,0,2,0.9,2,2v0C45,41.1,44.1,42,43,42z"/>
		<circle class="st9" cx="40" cy="40" r="1"/>
		<path class="st4" d="M27,43h-6c-1.1,0-2-0.9-2-2v0c0-1.1,0.9-2,2-2h6c1.1,0,2,0.9,2,2v0C29,42.1,28.1,43,27,43z"/>
		<path class="st19" d="M27,42h-6c-1.1,0-2-0.9-2-2v0c0-1.1,0.9-2,2-2h6c1.1,0,2,0.9,2,2v0C29,41.1,28.1,42,27,42z"/>
		<circle class="st24" cx="24" cy="40" r="1"/>
		<path class="st18" d="M53,38V44c0.6-0.8,1-1.9,1-3S53.6,38.9,53,38z"/>
		<path class="st18" d="M11,38c-0.6,0.8-1,1.9-1,3s0.4,2.1,1,3V38z"/>
		<path class="st30" d="M50.8,17c0.1-0.2,0.1-0.4,0.1-0.6c0-1-0.8-1.9-1.9-1.9s-1.9,0.8-1.9,1.9c0,0.2,0,0.4,0.1,0.6H50.8z"/>
		<path class="st30" d="M33.8,17c0.1-0.2,0.1-0.4,0.1-0.6c0-1-0.8-1.9-1.9-1.9s-1.9,0.8-1.9,1.9c0,0.2,0,0.4,0.1,0.6H33.8z"/>
		<path class="st30" d="M16.8,17c0.1-0.2,0.1-0.4,0.1-0.6c0-1-0.8-1.9-1.9-1.9s-1.9,0.8-1.9,1.9c0,0.2,0,0.4,0.1,0.6H16.8z"/>
		<path class="st4" d="M49.9,21.5l0.8-0.8c0.4-0.4,0.4-1,0-1.4s-1-0.4-1.4,0l-0.8,0.8l-0.8-0.8c-0.4-0.4-1-0.4-1.4,0s-0.4,1,0,1.4
			l0.8,0.8l-0.8,0.8c-0.4,0.4-0.4,1,0,1.4c0.2,0.2,0.5,0.3,0.7,0.3s0.5-0.1,0.7-0.3l0.8-0.8l0.8,0.8c0.2,0.2,0.5,0.3,0.7,0.3
			s0.5-0.1,0.7-0.3c0.4-0.4,0.4-1,0-1.4L49.9,21.5z"/>
	</g>
</g>
<g id="Layer_6">
</g>
<g id="Layer_5">
</g>
<g id="Layer_4">
</g>
<g id="Layer_3">
</g>
<g id="Layer_2">
</g>
</svg>
