<?xml version="1.0" encoding="utf-8"?>
<!-- Generator: Adobe Illustrator 21.0.0, SVG Export Plug-In . SVG Version: 6.00 Build 0)  -->
<svg version="1.1" id="Layer_1" xmlns="http://www.w3.org/2000/svg" xmlns:xlink="http://www.w3.org/1999/xlink" x="0px" y="0px"
	 viewBox="0 0 64 60" style="enable-background:new 0 0 64 60;" xml:space="preserve">
<style type="text/css">
	.st0{fill:#CAD1D8;}
	.st1{fill:#9BA7AF;}
	.st2{fill:#FFFFFF;}
	.st3{fill:#E2E5E7;}
	.st4{fill:#595A66;}
	.st5{fill:#ABE1FA;}
	.st6{fill:#6F707E;}
	.st7{fill:#3BB54A;}
	.st8{fill:#0E9347;}
	.st9{fill:#517CBE;}
	.st10{fill:#65CCEF;}
	.st11{fill:#EE2C39;}
	.st12{fill:#CC202C;}
	.st13{fill:#F16351;}
	.st14{fill:#DDDFE1;}
	.st15{fill:#89C763;}
	.st16{fill:#3689C9;}
	.st17{fill:#1B6FAB;}
	.st18{fill:#4C9FD7;}
	.st19{fill:#FDBA4D;}
	.st20{fill:#F19F36;}
	.st21{fill:#F19F35;}
	.st22{fill:#FFFFFF;stroke:#595A66;stroke-width:2;stroke-miterlimit:10;}
	.st23{fill:#1A70AC;}
	.st24{fill:#35363E;}
</style>
<g>
	<path class="st0" d="M0,57V3c0-1.7,1.3-3,3-3h58c1.7,0,3,1.3,3,3v54c0,1.7-1.3,3-3,3H3C1.3,60,0,58.7,0,57z"/>
	<circle class="st1" cx="3" cy="4" r="1"/>
	<circle class="st1" cx="7" cy="4" r="1"/>
	<circle class="st1" cx="11" cy="4" r="1"/>
	<path class="st2" d="M3,8h58c0.6,0,1,0.4,1,1v48c0,0.6-0.4,1-1,1H3c-0.6,0-1-0.4-1-1V9C2,8.4,2.4,8,3,8z"/>
	<path class="st3" d="M61,5H15c-0.6,0-1-0.4-1-1v0c0-0.6,0.4-1,1-1h46c0.6,0,1,0.4,1,1v0C62,4.6,61.6,5,61,5z"/>
	<path class="st3" d="M40,17H10c-1.1,0-2-0.9-2-2v0c0-1.1,0.9-2,2-2h30V17z"/>
	<path class="st7" d="M54,18H41v-6h13c1.7,0,3,1.3,3,3v0C57,16.7,55.7,18,54,18z"/>
	<circle class="st8" cx="45" cy="15" r="1"/>
	<circle class="st8" cx="49" cy="15" r="1"/>
	<circle class="st8" cx="53" cy="15" r="1"/>
	<path class="st0" d="M40,12H10c-1.7,0-3,1.3-3,3s1.3,3,3,3h31v-5v-1H40z M40,17H10c-1.1,0-2-0.9-2-2c0-1.1,0.9-2,2-2h30V17z"/>
	<g>
		<path class="st5" d="M39,41H25c-0.6,0-1-0.4-1-1V23c0-0.6,0.4-1,1-1h14c0.6,0,1,0.4,1,1v17C40,40.6,39.6,41,39,41z"/>
		<circle class="st21" cx="29" cy="27" r="1"/>
		<path class="st4" d="M40,40v-2.8l-4.5-4.5c-0.3-0.3-0.9-0.3-1.3,0L25.9,41H39C39.6,41,40,40.6,40,40z"/>
		<path class="st4" d="M25.2,34.6L24,35.8V40c0,0.6,0.4,1,1,1h7.1l-5.6-6.4C26.2,34.2,25.6,34.2,25.2,34.6z"/>
		<path class="st24" d="M31.4,38.1c-0.6-0.6-1.4-0.8-2.2-0.4l2.9,3.3h1.8L31.4,38.1z"/>
		<path class="st6" d="M32.7,35.9L32.7,35.9c0.2,0.2,0.5,0.2,0.7,0l1.4-1.4c0.2-0.2,0.2-0.5,0-0.7v0c-0.2-0.2-0.5-0.2-0.7,0
			l-1.4,1.4C32.5,35.3,32.5,35.7,32.7,35.9z"/>
		<path class="st24" d="M40,37.2l-0.7-0.7c-0.2-0.2-0.6-0.2-0.9,0c-0.2,0.2-0.2,0.6,0,0.9l0.5,0.5c0.5,0.5,0.9,1.1,1.1,1.8V37.2z"/>
		<path class="st6" d="M25.7,35.4c-0.2-0.2-0.5-0.2-0.6,0L24,36.5v0.9c0.2,0.1,0.4,0,0.5-0.1l1.3-1.3C25.9,35.8,25.9,35.6,25.7,35.4
			L25.7,35.4z"/>
	</g>
	<g>
		<path class="st5" d="M22,39H8c-0.6,0-1-0.4-1-1V23c0-0.6,0.4-1,1-1h14c0.6,0,1,0.4,1,1v15C23,38.6,22.6,39,22,39z"/>
		<circle class="st21" cx="12" cy="27" r="1"/>
		<path class="st4" d="M23,38v-2.8l-4.5-4.5c-0.3-0.3-0.9-0.3-1.3,0L8.9,39H22C22.6,39,23,38.6,23,38z"/>
		<path class="st4" d="M8.2,32.6L7,33.8V38c0,0.6,0.4,1,1,1h7.1l-5.6-6.4C9.2,32.2,8.6,32.2,8.2,32.6z"/>
		<path class="st24" d="M14.4,36.1c-0.6-0.6-1.4-0.8-2.2-0.4l2.9,3.3h1.8L14.4,36.1z"/>
		<path class="st6" d="M15.7,33.9L15.7,33.9c0.2,0.2,0.5,0.2,0.7,0l1.4-1.4c0.2-0.2,0.2-0.5,0-0.7h0c-0.2-0.2-0.5-0.2-0.7,0
			l-1.4,1.4C15.5,33.3,15.5,33.7,15.7,33.9z"/>
		<path class="st24" d="M23,35.2l-0.7-0.7c-0.2-0.2-0.6-0.2-0.9,0c-0.2,0.2-0.2,0.6,0,0.9l0.5,0.5c0.5,0.5,0.9,1.1,1.1,1.8V35.2z"/>
		<path class="st6" d="M8.7,33.4c-0.2-0.2-0.5-0.2-0.6,0L7,34.5v0.9c0.2,0.1,0.4,0,0.5-0.1L8.7,34C8.9,33.8,8.9,33.6,8.7,33.4
			L8.7,33.4z"/>
	</g>
	<g>
		<path class="st5" d="M56,36H42c-0.6,0-1-0.4-1-1V23c0-0.6,0.4-1,1-1h14c0.6,0,1,0.4,1,1v12C57,35.6,56.6,36,56,36z"/>
		<circle class="st21" cx="46" cy="25" r="1"/>
		<path class="st4" d="M57,35v-2.8l-4.5-4.5c-0.3-0.3-0.9-0.3-1.3,0L42.9,36H56C56.6,36,57,35.6,57,35z"/>
		<path class="st4" d="M42.2,29.6L41,30.8V35c0,0.6,0.4,1,1,1h7.1l-5.6-6.4C43.2,29.2,42.6,29.2,42.2,29.6z"/>
		<path class="st24" d="M48.4,33.1c-0.6-0.6-1.4-0.8-2.2-0.4l2.9,3.3h1.8L48.4,33.1z"/>
		<path class="st6" d="M49.7,30.9L49.7,30.9c0.2,0.2,0.5,0.2,0.7,0l1.4-1.4c0.2-0.2,0.2-0.5,0-0.7l0,0c-0.2-0.2-0.5-0.2-0.7,0
			l-1.4,1.4C49.5,30.3,49.5,30.7,49.7,30.9z"/>
		<path class="st24" d="M57,32.2l-0.7-0.7c-0.2-0.2-0.6-0.2-0.9,0c-0.2,0.2-0.2,0.6,0,0.9l0.5,0.5c0.5,0.5,0.9,1.1,1.1,1.8V32.2z"/>
		<path class="st6" d="M42.7,30.4c-0.2-0.2-0.5-0.2-0.6,0L41,31.5v0.9c0.2,0.1,0.4,0,0.5-0.1l1.3-1.3C42.9,30.8,42.9,30.6,42.7,30.4
			L42.7,30.4z"/>
	</g>
	<g>
		<path class="st5" d="M39,54H25c-0.6,0-1-0.4-1-1V43c0-0.6,0.4-1,1-1h14c0.6,0,1,0.4,1,1v10C40,53.6,39.6,54,39,54z"/>
		<circle class="st21" cx="29" cy="45" r="1"/>
		<path class="st4" d="M40,53v-2.8l-4.5-4.5c-0.3-0.3-0.9-0.3-1.3,0L25.9,54H39C39.6,54,40,53.6,40,53z"/>
		<path class="st4" d="M25.2,47.6L24,48.8V53c0,0.6,0.4,1,1,1h7.1l-5.6-6.4C26.2,47.2,25.6,47.2,25.2,47.6z"/>
		<path class="st24" d="M31.4,51.1c-0.6-0.6-1.4-0.8-2.2-0.4l2.9,3.3h1.8L31.4,51.1z"/>
		<path class="st6" d="M32.7,48.9L32.7,48.9c0.2,0.2,0.5,0.2,0.7,0l1.4-1.4c0.2-0.2,0.2-0.5,0-0.7v0c-0.2-0.2-0.5-0.2-0.7,0
			l-1.4,1.4C32.5,48.3,32.5,48.7,32.7,48.9z"/>
		<path class="st24" d="M40,50.2l-0.7-0.7c-0.2-0.2-0.6-0.2-0.9,0c-0.2,0.2-0.2,0.6,0,0.9l0.5,0.5c0.5,0.5,0.9,1.1,1.1,1.8V50.2z"/>
		<path class="st6" d="M25.7,48.4c-0.2-0.2-0.5-0.2-0.6,0L24,49.5v0.9c0.2,0.1,0.4,0,0.5-0.1l1.3-1.3C25.9,48.8,25.9,48.6,25.7,48.4
			L25.7,48.4z"/>
	</g>
	<g>
		<path class="st5" d="M22,54H8c-0.6,0-1-0.4-1-1V41c0-0.6,0.4-1,1-1h14c0.6,0,1,0.4,1,1v12C23,53.6,22.6,54,22,54z"/>
		<circle class="st21" cx="12" cy="44" r="1"/>
		<path class="st4" d="M23,53v-2.8l-4.5-4.5c-0.3-0.3-0.9-0.3-1.3,0L8.9,54H22C22.6,54,23,53.6,23,53z"/>
		<path class="st4" d="M8.2,47.6L7,48.8V53c0,0.6,0.4,1,1,1h7.1l-5.6-6.4C9.2,47.2,8.6,47.2,8.2,47.6z"/>
		<path class="st24" d="M14.4,51.1c-0.6-0.6-1.4-0.8-2.2-0.4l2.9,3.3h1.8L14.4,51.1z"/>
		<path class="st6" d="M15.7,48.9L15.7,48.9c0.2,0.2,0.5,0.2,0.7,0l1.4-1.4c0.2-0.2,0.2-0.5,0-0.7l0,0c-0.2-0.2-0.5-0.2-0.7,0
			l-1.4,1.4C15.5,48.3,15.5,48.7,15.7,48.9z"/>
		<path class="st24" d="M23,50.2l-0.7-0.7c-0.2-0.2-0.6-0.2-0.9,0c-0.2,0.2-0.2,0.6,0,0.9l0.5,0.5c0.5,0.5,0.9,1.1,1.1,1.8V50.2z"/>
		<path class="st6" d="M8.7,48.4c-0.2-0.2-0.5-0.2-0.6,0L7,49.5v0.9c0.2,0.1,0.4,0,0.5-0.1L8.7,49C8.9,48.8,8.9,48.6,8.7,48.4
			L8.7,48.4z"/>
	</g>
	<g>
		<path class="st5" d="M56,54H42c-0.6,0-1-0.4-1-1V38c0-0.6,0.4-1,1-1h14c0.6,0,1,0.4,1,1v15C57,53.6,56.6,54,56,54z"/>
		<circle class="st21" cx="46" cy="43" r="1"/>
		<path class="st4" d="M57,53v-2.8l-4.5-4.5c-0.3-0.3-0.9-0.3-1.3,0L42.9,54H56C56.6,54,57,53.6,57,53z"/>
		<path class="st4" d="M42.2,47.6L41,48.8V53c0,0.6,0.4,1,1,1h7.1l-5.6-6.4C43.2,47.2,42.6,47.2,42.2,47.6z"/>
		<path class="st24" d="M48.4,51.1c-0.6-0.6-1.4-0.8-2.2-0.4l2.9,3.3h1.8L48.4,51.1z"/>
		<path class="st6" d="M49.7,48.9L49.7,48.9c0.2,0.2,0.5,0.2,0.7,0l1.4-1.4c0.2-0.2,0.2-0.5,0-0.7v0c-0.2-0.2-0.5-0.2-0.7,0
			l-1.4,1.4C49.5,48.3,49.5,48.7,49.7,48.9z"/>
		<path class="st24" d="M57,50.2l-0.7-0.7c-0.2-0.2-0.6-0.2-0.9,0c-0.2,0.2-0.2,0.6,0,0.9l0.5,0.5c0.5,0.5,0.9,1.1,1.1,1.8V50.2z"/>
		<path class="st6" d="M42.7,48.4c-0.2-0.2-0.5-0.2-0.6,0L41,49.5v0.9c0.2,0.1,0.4,0,0.5-0.1l1.3-1.3C42.9,48.8,42.9,48.6,42.7,48.4
			L42.7,48.4z"/>
	</g>
</g>
</svg>
