<?xml version="1.0" encoding="utf-8"?>
<!-- Generator: Adobe Illustrator 21.0.0, SVG Export Plug-In . SVG Version: 6.00 Build 0)  -->
<svg version="1.1" id="Layer_1" xmlns="http://www.w3.org/2000/svg" xmlns:xlink="http://www.w3.org/1999/xlink" x="0px" y="0px"
	 viewBox="0 0 64 60" style="enable-background:new 0 0 64 60;" xml:space="preserve">
<style type="text/css">
	.st0{fill:#CAD1D8;}
	.st1{fill:#9BA7AF;}
	.st2{fill:#FFFFFF;}
	.st3{fill:#E2E5E7;}
	.st4{fill:#595A66;}
	.st5{fill:#ABE1FA;}
	.st6{fill:#6F707E;}
	.st7{fill:#3BB54A;}
	.st8{fill:#0E9347;}
	.st9{fill:#517CBE;}
	.st10{fill:#65CCEF;}
	.st11{fill:#EE2C39;}
	.st12{fill:#CC202C;}
	.st13{fill:#F16351;}
	.st14{fill:#DDDFE1;}
	.st15{fill:#89C763;}
	.st16{fill:#3689C9;}
	.st17{fill:#1B6FAB;}
	.st18{fill:#4C9FD7;}
	.st19{fill:#FDBA4D;}
	.st20{fill:#F19F36;}
	.st21{fill:#F19F35;}
	.st22{fill:#FFFFFF;stroke:#595A66;stroke-width:2;stroke-miterlimit:10;}
	.st23{fill:#1A70AC;}
	.st24{fill:#35363E;}
</style>
<g>
	<path class="st0" d="M61,0H3C1.3,0,0,1.3,0,3v3v51c0,1.7,1.3,3,3,3h58c1.7,0,3-1.3,3-3V6V3C64,1.3,62.7,0,61,0z"/>
	<circle class="st1" cx="7" cy="4" r="1"/>
	<circle class="st1" cx="11" cy="4" r="1"/>
	<path class="st2" d="M3,8h58c0.6,0,1,0.4,1,1v48c0,0.6-0.4,1-1,1H3c-0.6,0-1-0.4-1-1V9C2,8.4,2.4,8,3,8z"/>
	<path class="st3" d="M61,5H15c-0.6,0-1-0.4-1-1v0c0-0.6,0.4-1,1-1h46c0.6,0,1,0.4,1,1v0C62,4.6,61.6,5,61,5z"/>
	<path class="st0" d="M40,30L9,30c-0.6,0-1-0.4-1-1v0c0-0.6,0.4-1,1-1l31,0c0.6,0,1,0.4,1,1v0C41,29.6,40.6,30,40,30z"/>
	<path class="st0" d="M33,38H9c-0.6,0-1-0.4-1-1v0c0-0.6,0.4-1,1-1h24c0.6,0,1,0.4,1,1v0C34,37.6,33.6,38,33,38z"/>
	<path class="st0" d="M28,34H9c-0.6,0-1-0.4-1-1l0,0c0-0.6,0.4-1,1-1h19c0.6,0,1,0.4,1,1l0,0C29,33.6,28.6,34,28,34z"/>
	<path class="st0" d="M55,15H24c-0.6,0-1-0.4-1-1v0c0-0.6,0.4-1,1-1h31c0.6,0,1,0.4,1,1v0C56,14.6,55.6,15,55,15z"/>
	<path class="st0" d="M48,23H24c-0.6,0-1-0.4-1-1v0c0-0.6,0.4-1,1-1h24c0.6,0,1,0.4,1,1v0C49,22.6,48.6,23,48,23z"/>
	<path class="st0" d="M43,19H24c-0.6,0-1-0.4-1-1v0c0-0.6,0.4-1,1-1h19c0.6,0,1,0.4,1,1v0C44,18.6,43.6,19,43,19z"/>
	<circle class="st1" cx="3" cy="4" r="1"/>
	<circle class="st21" cx="13" cy="18" r="5"/>
	<g>
		<path class="st2" d="M14.6,21c-0.1,0-0.2,0-0.2-0.1L13,20.2l-1.3,0.7c-0.2,0.1-0.4,0.1-0.5,0c-0.2-0.1-0.2-0.3-0.2-0.5l0.3-1.5
			l-1.1-1.1C10,17.6,10,17.4,10,17.3c0.1-0.2,0.2-0.3,0.4-0.3l1.5-0.2l0.7-1.4c0.1-0.2,0.3-0.3,0.4-0.3c0.2,0,0.4,0.1,0.4,0.3
			l0.7,1.4l1.5,0.2c0.2,0,0.3,0.2,0.4,0.3c0.1,0.2,0,0.4-0.1,0.5l-1.1,1.1l0.3,1.5c0,0.2,0,0.4-0.2,0.5C14.8,21,14.7,21,14.6,21z"/>
	</g>
	<path class="st0" d="M55,45H24c-0.6,0-1-0.4-1-1v0c0-0.6,0.4-1,1-1h31c0.6,0,1,0.4,1,1v0C56,44.6,55.6,45,55,45z"/>
	<path class="st0" d="M48,53H24c-0.6,0-1-0.4-1-1l0,0c0-0.6,0.4-1,1-1h24c0.6,0,1,0.4,1,1l0,0C49,52.6,48.6,53,48,53z"/>
	<path class="st0" d="M43,49H24c-0.6,0-1-0.4-1-1v0c0-0.6,0.4-1,1-1h19c0.6,0,1,0.4,1,1v0C44,48.6,43.6,49,43,49z"/>
	<circle class="st21" cx="13" cy="48" r="5"/>
	<g>
		<path class="st2" d="M14.6,51c-0.1,0-0.2,0-0.2-0.1L13,50.2l-1.3,0.7c-0.2,0.1-0.4,0.1-0.5,0c-0.2-0.1-0.2-0.3-0.2-0.5l0.3-1.5
			l-1.1-1.1C10,47.6,10,47.4,10,47.3c0.1-0.2,0.2-0.3,0.4-0.3l1.5-0.2l0.7-1.4c0.1-0.2,0.3-0.3,0.4-0.3c0.2,0,0.4,0.1,0.4,0.3
			l0.7,1.4l1.5,0.2c0.2,0,0.3,0.2,0.4,0.3c0.1,0.2,0,0.4-0.1,0.5l-1.1,1.1l0.3,1.5c0,0.2,0,0.4-0.2,0.5C14.8,51,14.7,51,14.6,51z"/>
	</g>
	<circle class="st21" cx="51" cy="33" r="5"/>
	<g>
		<path class="st2" d="M52.6,36c-0.1,0-0.2,0-0.2-0.1L51,35.2l-1.3,0.7c-0.2,0.1-0.4,0.1-0.5,0c-0.2-0.1-0.2-0.3-0.2-0.5l0.3-1.5
			l-1.1-1.1C48,32.6,48,32.4,48,32.3c0.1-0.2,0.2-0.3,0.4-0.3l1.5-0.2l0.7-1.4c0.1-0.2,0.3-0.3,0.4-0.3c0.2,0,0.4,0.1,0.4,0.3
			l0.7,1.4l1.5,0.2c0.2,0,0.3,0.2,0.4,0.3c0.1,0.2,0,0.4-0.1,0.5l-1.1,1.1l0.3,1.5c0,0.2,0,0.4-0.2,0.5C52.8,36,52.7,36,52.6,36z"/>
	</g>
</g>
</svg>
