<?xml version="1.0" encoding="utf-8"?>
<!-- Generator: Adobe Illustrator 21.0.0, SVG Export Plug-In . SVG Version: 6.00 Build 0)  -->
<svg version="1.1" id="Layer_1" xmlns="http://www.w3.org/2000/svg" xmlns:xlink="http://www.w3.org/1999/xlink" x="0px" y="0px"
	 viewBox="0 0 64 60" style="enable-background:new 0 0 64 60;" xml:space="preserve">
<style type="text/css">
	.st0{fill:#CAD1D8;}
	.st1{fill:#9BA7AF;}
	.st2{fill:#FFFFFF;}
	.st3{fill:#E2E5E7;}
	.st4{fill:#595A66;}
	.st5{fill:#ABE1FA;}
	.st6{fill:#6F707E;}
	.st7{fill:#3BB54A;}
	.st8{fill:#0E9347;}
	.st9{fill:#517CBE;}
	.st10{fill:#65CCEF;}
	.st11{fill:#EE2C39;}
	.st12{fill:#CC202C;}
	.st13{fill:#F16351;}
	.st14{fill:#DDDFE1;}
	.st15{fill:#89C763;}
	.st16{fill:#3689C9;}
	.st17{fill:#1B6FAB;}
	.st18{fill:#4C9FD7;}
	.st19{fill:#FDBA4D;}
	.st20{fill:#F19F36;}
	.st21{fill:#F19F35;}
	.st22{fill:#FFFFFF;stroke:#595A66;stroke-width:2;stroke-miterlimit:10;}
	.st23{fill:#1A70AC;}
	.st24{fill:#35363E;}
</style>
<g>
	<g>
		<path class="st0" d="M0,57V3c0-1.7,1.3-3,3-3h58c1.7,0,3,1.3,3,3v54c0,1.7-1.3,3-3,3H3C1.3,60,0,58.7,0,57z"/>
	</g>
	<g>
		<circle class="st1" cx="3" cy="4" r="1"/>
	</g>
	<g>
		<circle class="st1" cx="7" cy="4" r="1"/>
	</g>
	<g>
		<circle class="st1" cx="11" cy="4" r="1"/>
	</g>
	<g>
		<path class="st2" d="M3,8h58c0.6,0,1,0.4,1,1v48c0,0.6-0.4,1-1,1H3c-0.6,0-1-0.4-1-1V9C2,8.4,2.4,8,3,8z"/>
	</g>
	<g>
		<path class="st3" d="M61,5H15c-0.6,0-1-0.4-1-1v0c0-0.6,0.4-1,1-1h46c0.6,0,1,0.4,1,1v0C62,4.6,61.6,5,61,5z"/>
	</g>
	<g>
		<g>
			<path class="st5" d="M29,31H7c-0.6,0-1-0.4-1-1V14c0-0.6,0.4-1,1-1h22c0.6,0,1,0.4,1,1v16C30,30.6,29.6,31,29,31z"/>
		</g>
		<g>
			<circle class="st21" cx="11" cy="17" r="2"/>
		</g>
		<g>
			<path class="st4" d="M30,29l-7.3-7.3c-0.4-0.4-1-0.4-1.4,0L12,31h17c0.6,0,1-0.4,1-1V29z"/>
		</g>
		<g>
			<path class="st24" d="M26,26L26,26c-0.3,0.3-0.3,0.7,0,1l0.6,0.6c0.9,0.9,1.4,2.1,1.4,3.4v0h1c0.6,0,1-0.4,1-1v-1l-3-3
				C26.7,25.7,26.3,25.7,26,26z"/>
		</g>
		<g>
			<path class="st4" d="M7,31h12l-6.2-7.1c-0.4-0.5-1.1-0.5-1.5,0L6,29v1C6,30.6,6.4,31,7,31z"/>
		</g>
		<g>
			<path class="st24" d="M18.2,27.8c-0.6-0.7-1.6-0.9-2.4-0.5L19,31h2L18.2,27.8z"/>
		</g>
		<g>
			<path class="st6" d="M19.1,25.3L19.1,25.3c0.2,0.2,0.5,0.2,0.7,0l1.4-1.4c0.2-0.2,0.2-0.5,0-0.7l0,0c-0.2-0.2-0.5-0.2-0.7,0
				l-1.4,1.4C19,24.8,19,25.1,19.1,25.3z"/>
		</g>
		<g>
			<path class="st6" d="M9.7,26.9L9.7,26.9c0.2,0.2,0.5,0.2,0.7,0l1.4-1.4c0.2-0.2,0.2-0.5,0-0.7h0c-0.2-0.2-0.5-0.2-0.7,0l-1.4,1.4
				C9.5,26.3,9.5,26.7,9.7,26.9z"/>
		</g>
	</g>
	<g>
		<g>
			<path class="st5" d="M57,31H35c-0.6,0-1-0.4-1-1V14c0-0.6,0.4-1,1-1h22c0.6,0,1,0.4,1,1v16C58,30.6,57.6,31,57,31z"/>
		</g>
		<g>
			<circle class="st21" cx="39" cy="17" r="2"/>
		</g>
		<g>
			<path class="st4" d="M58,29l-7.3-7.3c-0.4-0.4-1-0.4-1.4,0L40,31h17c0.6,0,1-0.4,1-1V29z"/>
		</g>
		<g>
			<path class="st24" d="M54,26L54,26c-0.3,0.3-0.3,0.7,0,1l0.6,0.6c0.9,0.9,1.4,2.1,1.4,3.4v0h1c0.6,0,1-0.4,1-1v-1l-3-3
				C54.7,25.7,54.3,25.7,54,26z"/>
		</g>
		<g>
			<path class="st4" d="M35,31h12l-6.2-7.1c-0.4-0.5-1.1-0.5-1.5,0L34,29v1C34,30.6,34.4,31,35,31z"/>
		</g>
		<g>
			<path class="st24" d="M46.2,27.8c-0.6-0.7-1.6-0.9-2.4-0.5L47,31h2L46.2,27.8z"/>
		</g>
		<g>
			<path class="st6" d="M47.1,25.3L47.1,25.3c0.2,0.2,0.5,0.2,0.7,0l1.4-1.4c0.2-0.2,0.2-0.5,0-0.7h0c-0.2-0.2-0.5-0.2-0.7,0
				l-1.4,1.4C47,24.8,47,25.1,47.1,25.3z"/>
		</g>
		<g>
			<path class="st6" d="M37.7,26.9L37.7,26.9c0.2,0.2,0.5,0.2,0.7,0l1.4-1.4c0.2-0.2,0.2-0.5,0-0.7l0,0c-0.2-0.2-0.5-0.2-0.7,0
				l-1.4,1.4C37.5,26.3,37.5,26.7,37.7,26.9z"/>
		</g>
	</g>
	<g>
		<g>
			<path class="st5" d="M29,53H7c-0.6,0-1-0.4-1-1V36c0-0.6,0.4-1,1-1h22c0.6,0,1,0.4,1,1v16C30,52.6,29.6,53,29,53z"/>
		</g>
		<g>
			<circle class="st21" cx="11" cy="39" r="2"/>
		</g>
		<g>
			<path class="st4" d="M30,51l-7.3-7.3c-0.4-0.4-1-0.4-1.4,0L12,53h17c0.6,0,1-0.4,1-1V51z"/>
		</g>
		<g>
			<path class="st24" d="M26,48L26,48c-0.3,0.3-0.3,0.7,0,1l0.6,0.6c0.9,0.9,1.4,2.1,1.4,3.4v0h1c0.6,0,1-0.4,1-1v-1l-3-3
				C26.7,47.7,26.3,47.7,26,48z"/>
		</g>
		<g>
			<path class="st4" d="M7,53h12l-6.2-7.1c-0.4-0.5-1.1-0.5-1.5,0L6,51v1C6,52.6,6.4,53,7,53z"/>
		</g>
		<g>
			<path class="st24" d="M18.2,49.8c-0.6-0.7-1.6-0.9-2.4-0.5L19,53h2L18.2,49.8z"/>
		</g>
		<g>
			<path class="st6" d="M19.1,47.3L19.1,47.3c0.2,0.2,0.5,0.2,0.7,0l1.4-1.4c0.2-0.2,0.2-0.5,0-0.7l0,0c-0.2-0.2-0.5-0.2-0.7,0
				l-1.4,1.4C19,46.8,19,47.1,19.1,47.3z"/>
		</g>
		<g>
			<path class="st6" d="M9.7,48.9L9.7,48.9c0.2,0.2,0.5,0.2,0.7,0l1.4-1.4c0.2-0.2,0.2-0.5,0-0.7l0,0c-0.2-0.2-0.5-0.2-0.7,0
				l-1.4,1.4C9.5,48.3,9.5,48.7,9.7,48.9z"/>
		</g>
	</g>
	<g>
		<path class="st0" d="M53,52c0-0.6,0.5-1,1-1l0,0c0.5,0,1,0.4,1,1l0,0c0,0.5-0.5,1-1,1l0,0C53.5,53,53,52.5,53,52z M49,52
			c0-0.6,0.4-1,1-1l0,0c0.6,0,1,0.4,1,1l0,0c0,0.5-0.4,1-1,1l0,0C49.4,53,49,52.5,49,52z M45,52c0-0.6,0.5-1,1-1l0,0
			c0.6,0,1,0.4,1,1l0,0c0,0.5-0.4,1-1,1l0,0C45.4,53,45,52.5,45,52z M40.9,52c0-0.6,0.4-1,1-1l0,0c0.5,0,1,0.4,1,1l0,0
			c0,0.5-0.5,1-1,1l0,0C41.4,53,40.9,52.5,40.9,52z M36.9,52c0-0.6,0.5-1,1-1l0,0c0.6,0,1,0.4,1,1l0,0c0,0.5-0.4,1-1,1l0,0
			C37.4,53,36.9,52.5,36.9,52z M57,51.1c-0.6,0-1-0.5-1-1l0,0c0-0.6,0.5-1,1-1l0,0c0.5,0,1,0.5,1,1l0,0C58,50.7,57.5,51.1,57,51.1
			L57,51.1C57,51.1,57,51.1,57,51.1z M34,50C34,50,34,50,34,50L34,50C34,50,34,50,34,50L34,50c0-0.6,0.4-1,1-1l0,0c0.5,0,1,0.4,1,1
			l0,0c0,0,0,0,0,0l0,0l0,0l0,0c0,0.6-0.4,1-1,1l0,0h0l0,0C34.4,51,34,50.6,34,50z M56,46c0-0.5,0.4-1,1-1l0,0c0.5,0,1,0.5,1,1l0,0
			c0,0.5-0.5,1-1,1l0,0C56.4,47,56,46.6,56,46z M34,46c0-0.5,0.4-1,1-1l0,0c0.5,0,1,0.5,1,1l0,0c0,0.6-0.5,1-1,1l0,0
			C34.4,47,34,46.5,34,46z M56,42c0-0.6,0.4-1,1-1l0,0c0.5,0,1,0.4,1,1l0,0c0,0.5-0.5,1-1,1l0,0C56.4,43,56,42.6,56,42z M34,41.9
			c0-0.6,0.4-1,1-1l0,0c0.5,0,1,0.4,1,1l0,0c0,0.5-0.5,1-1,1l0,0C34.4,42.9,34,42.5,34,41.9z M56,38c0-0.5,0.4-1,1-1l0,0
			c0.6,0,1,0.4,1,1l0,0c0,0.6-0.4,1-1,1l0,0l0,0l0,0C56.4,39,56,38.5,56,38z M35,38.9c-0.6,0-1-0.5-1-1l0,0c0-0.5,0.5-1,1-1l0,0
			c0.5,0,1,0.5,1,1l0,0C36,38.5,35.5,38.9,35,38.9L35,38.9C35,38.9,35,38.9,35,38.9z M53.1,36c0-0.6,0.5-1,1-1l0,0c0.6,0,1,0.4,1,1
			l0,0c0,0.5-0.4,1-1,1l0,0C53.5,37,53.1,36.5,53.1,36z M49.1,36c0-0.6,0.5-1,1-1l0,0c0.5,0,1,0.4,1,1l0,0c0,0.5-0.5,1-1,1l0,0
			C49.5,37,49.1,36.5,49.1,36z M45,36c0-0.6,0.4-1,1-1l0,0c0.5,0,1,0.4,1,1l0,0c0,0.5-0.5,1-1,1l0,0C45.5,37,45,36.5,45,36z M41,36
			c0-0.6,0.5-1,1-1l0,0c0.6,0,1,0.4,1,1l0,0c0,0.5-0.4,1-1,1l0,0C41.5,37,41,36.5,41,36z M37,36c0-0.6,0.4-1,1-1l0,0
			c0.5,0,1,0.4,1,1l0,0c0,0.5-0.5,1-1,1l0,0C37.4,37,37,36.5,37,36z"/>
	</g>
	<g>
		<path class="st0" d="M48,45h-4c-0.6,0-1-0.4-1-1s0.4-1,1-1h4c0.6,0,1,0.4,1,1S48.6,45,48,45z"/>
	</g>
	<g>
		<path class="st0" d="M46,47c-0.6,0-1-0.4-1-1v-4c0-0.6,0.4-1,1-1s1,0.4,1,1v4C47,46.6,46.6,47,46,47z"/>
	</g>
</g>
</svg>
