<?xml version="1.0" encoding="utf-8"?>
<!-- Generator: Adobe Illustrator 21.0.0, SVG Export Plug-In . SVG Version: 6.00 Build 0)  -->
<svg version="1.1" id="Layer_1" xmlns="http://www.w3.org/2000/svg" xmlns:xlink="http://www.w3.org/1999/xlink" x="0px" y="0px"
	 viewBox="0 0 64 60" style="enable-background:new 0 0 64 60;" xml:space="preserve">
<style type="text/css">
	.st0{fill:#CAD1D8;}
	.st1{fill:#9BA7AF;}
	.st2{fill:#FFFFFF;}
	.st3{fill:#E2E5E7;}
	.st4{fill:#595A66;}
	.st5{fill:#ABE1FA;}
	.st6{fill:#6F707E;}
	.st7{fill:#3BB54A;}
	.st8{fill:#0E9347;}
	.st9{fill:#517CBE;}
	.st10{fill:#65CCEF;}
	.st11{fill:#EE2C39;}
	.st12{fill:#CC202C;}
	.st13{fill:#F16351;}
	.st14{fill:#DDDFE1;}
	.st15{fill:#89C763;}
	.st16{fill:#3689C9;}
	.st17{fill:#1B6FAB;}
	.st18{fill:#4C9FD7;}
	.st19{fill:#FDBA4D;}
	.st20{fill:#F19F36;}
	.st21{fill:#F19F35;}
	.st22{fill:#FFFFFF;stroke:#595A66;stroke-width:2;stroke-miterlimit:10;}
	.st23{fill:#1A70AC;}
	.st24{fill:#35363E;}
</style>
<g>
	<path class="st0" d="M0,57V3c0-1.7,1.3-3,3-3h58c1.7,0,3,1.3,3,3v54c0,1.7-1.3,3-3,3H3C1.3,60,0,58.7,0,57z"/>
	<path class="st2" d="M3,8h58c0.6,0,1,0.4,1,1v48c0,0.6-0.4,1-1,1H3c-0.6,0-1-0.4-1-1V9C2,8.4,2.4,8,3,8z"/>
	<path class="st5" d="M56,50H8c-1.1,0-2-0.9-2-2V20c0-1.1,0.9-2,2-2h48c1.1,0,2,0.9,2,2v28C58,49.1,57.1,50,56,50z"/>
	<circle class="st21" cx="18" cy="26" r="4"/>
	<path class="st4" d="M58,46L43.4,31.4c-0.8-0.8-2-0.8-2.8,0L22,50h34c1.1,0,2-0.9,2-2V46z"/>
	<path class="st24" d="M50,40L50,40c-0.6,0.6-0.6,1.4,0,2l1.2,1.2C53,45,54,47.4,54,50v0h2c1.1,0,2-0.9,2-2v-2l-6-6
		C51.4,39.4,50.6,39.4,50,40z"/>
	<path class="st4" d="M20.5,35.7L6.6,49.4C7,49.8,7.5,50,8,50h2h26L23.5,35.7C22.7,34.8,21.3,34.8,20.5,35.7z"/>
	<path class="st24" d="M34.4,43.6c-1.2-1.4-3.2-1.7-4.8-0.9L36,50h4L34.4,43.6z"/>
	<path class="st6" d="M37.3,38.5L37.3,38.5c0.4,0.4,1,0.4,1.4,0l2.8-2.8c0.4-0.4,0.4-1,0-1.4l0,0c-0.4-0.4-1-0.4-1.4,0l-2.8,2.8
		C36.9,37.5,36.9,38.1,37.3,38.5z"/>
	<path class="st6" d="M17.5,42.7L17.5,42.7c0.4,0.4,1,0.4,1.4,0l2.8-2.8c0.4-0.4,0.4-1,0-1.4l0,0c-0.4-0.4-1-0.4-1.4,0l-2.8,2.8
		C17.1,41.7,17.1,42.3,17.5,42.7z"/>
	<circle class="st0" cx="32" cy="54" r="1"/>
	<circle class="st0" cx="28" cy="54" r="1"/>
	<circle class="st0" cx="36" cy="54" r="1"/>
	<circle class="st1" cx="3" cy="4" r="1"/>
	<circle class="st1" cx="7" cy="4" r="1"/>
	<circle class="st1" cx="11" cy="4" r="1"/>
	<path class="st4" d="M6,12L6,12c0-0.6,0.4-1,1-1l5,0c0.6,0,1,0.4,1,1v0c0,0.6-0.4,1-1,1l-5,0C6.4,13,6,12.6,6,12z"/>
	<path class="st4" d="M52,12L52,12c0-0.6,0.4-1,1-1l4,0c0.6,0,1,0.4,1,1v0c0,0.6-0.4,1-1,1l-4,0C52.4,13,52,12.6,52,12z"/>
	<path class="st4" d="M44,12L44,12c0-0.6,0.4-1,1-1l4,0c0.6,0,1,0.4,1,1v0c0,0.6-0.4,1-1,1l-4,0C44.4,13,44,12.6,44,12z"/>
	<path class="st4" d="M36,12L36,12c0-0.6,0.4-1,1-1l4,0c0.6,0,1,0.4,1,1v0c0,0.6-0.4,1-1,1l-4,0C36.4,13,36,12.6,36,12z"/>
	<path class="st3" d="M61,5H15c-0.6,0-1-0.4-1-1v0c0-0.6,0.4-1,1-1h46c0.6,0,1,0.4,1,1v0C62,4.6,61.6,5,61,5z"/>
</g>
</svg>
