<?xml version="1.0" standalone="no"?>
<!DOCTYPE svg PUBLIC "-//W3C//DTD SVG 20010904//EN"
 "http://www.w3.org/TR/2001/REC-SVG-20010904/DTD/svg10.dtd">
<svg version="1.0" xmlns="http://www.w3.org/2000/svg"
 width="1920.000000pt" height="1920.000000pt" viewBox="0 0 1920.000000 1920.000000"
 preserveAspectRatio="xMidYMid meet">
<metadata>
Created by potrace 1.11, written by Peter Selinger 2001-2013
</metadata>
<g transform="translate(0.000000,1920.000000) scale(0.100000,-0.100000)"
fill="#000000" stroke="none">
<path d="M9495 18945 c-22 -6 -43 -12 -48 -13 -108 -19 -183 -49 -277 -113
-31 -20 -553 -533 -1193 -1170 -626 -624 -1150 -1139 -1165 -1146 -20 -8 -430
-11 -1634 -11 -884 -1 -1611 -3 -1615 -5 -5 -3 -30 -8 -58 -12 -61 -8 -179
-46 -245 -80 -106 -54 -226 -160 -306 -271 -97 -135 -140 -265 -150 -449 -4
-60 -7 -806 -8 -1657 l-1 -1547 -976 -973 c-537 -535 -1040 -1036 -1119 -1113
-78 -77 -161 -165 -184 -195 -139 -181 -193 -356 -183 -595 7 -176 61 -325
166 -465 27 -36 551 -567 1165 -1180 749 -748 1119 -1125 1126 -1145 6 -19 9
-503 9 -1295 -2 -2072 -3 -1998 43 -2135 27 -79 52 -125 116 -213 105 -145
246 -255 396 -309 149 -54 101 -52 1824 -53 1370 0 1607 -2 1630 -14 15 -8
529 -517 1142 -1131 613 -614 1138 -1134 1165 -1154 165 -123 333 -173 560
-167 107 3 145 9 215 31 87 28 183 75 255 125 22 16 546 535 1165 1155 619
619 1137 1133 1152 1140 23 13 261 15 1645 15 1346 1 1630 3 1688 15 263 53
499 238 610 480 15 33 39 98 53 145 l26 85 3 1180 c2 649 4 1390 6 1647 l2
468 1146 1147 c631 632 1161 1170 1179 1196 57 86 100 194 116 291 3 21 8 48
11 60 17 64 14 195 -7 286 -12 52 -23 105 -26 117 -10 49 -56 151 -97 213 -16
25 -544 560 -1173 1190 -723 724 -1145 1154 -1148 1170 -4 14 -7 752 -9 1640
-2 888 -6 1631 -11 1650 -28 130 -81 253 -154 355 -43 61 -147 164 -208 206
-120 82 -281 134 -454 145 -30 2 -755 4 -1610 5 -1218 0 -1560 3 -1578 13 -13
7 -533 521 -1155 1143 -623 622 -1155 1147 -1183 1166 -107 74 -200 110 -343
133 -107 17 -237 17 -296 -1z"/>
</g>
</svg>
