<?xml version="1.0" encoding="utf-8"?>
<!-- Generator: Adobe Illustrator 21.0.0, SVG Export Plug-In . SVG Version: 6.00 Build 0)  -->
<svg version="1.1" xmlns="http://www.w3.org/2000/svg" xmlns:xlink="http://www.w3.org/1999/xlink" x="0px" y="0px"
	 viewBox="0 0 64 60" style="enable-background:new 0 0 64 60;" xml:space="preserve">
<style type="text/css">
	.st0{fill:#CAD1D8;}
	.st1{fill:#FFFFFF;}
	.st2{fill:#595A66;}
	.st3{fill:#9BA7AF;}
	.st4{fill:#E2E5E7;}
	.st5{fill:#ABE1FA;}
	.st6{fill:#FDBA4D;}
	.st7{fill:#F19F35;}
	.st8{fill:#3BB54A;}
	.st9{fill:#0E9347;}
	.st10{fill:#E6E7E8;}
	.st11{fill:#BCBEC0;}
	.st12{fill:#D1D3D4;}
	.st13{fill:#A7A9AC;}
	.st14{fill:#DCDDDE;}
	.st15{fill:#B1B3B6;}
	.st16{fill:#C7C8CA;}
	.st17{fill:#9D9FA2;}
	.st18{fill:#3689C9;}
	.st19{fill:#EE2C39;}
	.st20{fill:#FFFFFF;stroke:#595A66;stroke-width:2;stroke-miterlimit:10;}
	.st21{fill:#F19F36;}
	.st22{fill:#D4D5D6;}
	.st23{fill:#35363E;}
	.st24{fill:#CC202C;}
	.st25{fill:#1A70AC;}
	.st26{fill:#BD6428;}
	.st27{fill:#A35723;}
	.st28{fill:#A35623;}
	.st29{fill:#DDDFE1;}
	.st30{fill:#1B6FAB;}
	.st31{fill:#165D91;}
	.st32{fill:#699DC4;}
	.st33{fill:#6F707E;}
	.st34{fill:#4C9FD7;}
	.st35{fill:#748B9E;}
	.st36{fill:#78B6E4;}
</style>
<g id="Layer_62">
</g>
<g id="Layer_60">
</g>
<g id="Layer_59">
</g>
<g id="Layer_58">
</g>
<g id="Layer_57">
</g>
<g id="Layer_56">
</g>
<g id="Layer_55">
</g>
<g id="Layer_54">
</g>
<g id="Layer_53">
</g>
<g id="Layer_52">
</g>
<g id="Layer_51">
</g>
<g id="Layer_50">
</g>
<g id="Layer_49">
</g>
<g id="Layer_48">
</g>
<g id="Layer_47">
	<g>
		<path class="st0" d="M0,57V3c0-1.7,1.3-3,3-3h58c1.7,0,3,1.3,3,3v54c0,1.7-1.3,3-3,3H3C1.3,60,0,58.7,0,57z"/>
		<circle class="st3" cx="3" cy="4" r="1"/>
		<circle class="st3" cx="7" cy="4" r="1"/>
		<circle class="st3" cx="11" cy="4" r="1"/>
		<path class="st1" d="M3,8h58c0.6,0,1,0.4,1,1v48c0,0.6-0.4,1-1,1H3c-0.6,0-1-0.4-1-1V9C2,8.4,2.4,8,3,8z"/>
		<path class="st4" d="M61,5H15c-0.6,0-1-0.4-1-1v0c0-0.6,0.4-1,1-1h46c0.6,0,1,0.4,1,1v0C62,4.6,61.6,5,61,5z"/>
		<g>
			<path class="st0" d="M56,14L8,14c-0.6,0-1-0.4-1-1v0c0-0.6,0.4-1,1-1l48,0c0.6,0,1,0.4,1,1v0C57,13.6,56.6,14,56,14z"/>
			<path class="st0" d="M56,18H8c-0.6,0-1-0.4-1-1v0c0-0.6,0.4-1,1-1l48,0c0.6,0,1,0.4,1,1v0C57,17.6,56.6,18,56,18z"/>
			<path class="st0" d="M56,22L8,22c-0.6,0-1-0.4-1-1v0c0-0.6,0.4-1,1-1l48,0c0.6,0,1,0.4,1,1v0C57,21.6,56.6,22,56,22z"/>
			<path class="st0" d="M56,26H8c-0.6,0-1-0.4-1-1v0c0-0.6,0.4-1,1-1h48c0.6,0,1,0.4,1,1v0C57,25.6,56.6,26,56,26z"/>
			<path class="st0" d="M56,30L8,30c-0.6,0-1-0.4-1-1v0c0-0.6,0.4-1,1-1l48,0c0.6,0,1,0.4,1,1v0C57,29.6,56.6,30,56,30z"/>
			<path class="st0" d="M56,34L8,34c-0.6,0-1-0.4-1-1v0c0-0.6,0.4-1,1-1h48c0.6,0,1,0.4,1,1v0C57,33.6,56.6,34,56,34z"/>
			<path class="st0" d="M56,38H8c-0.6,0-1-0.4-1-1v0c0-0.6,0.4-1,1-1h48c0.6,0,1,0.4,1,1l0,0C57,37.6,56.6,38,56,38z"/>
			<path class="st0" d="M56,42L8,42c-0.6,0-1-0.4-1-1v0c0-0.6,0.4-1,1-1l48,0c0.6,0,1,0.4,1,1v0C57,41.6,56.6,42,56,42z"/>
			<path class="st0" d="M56,46H8c-0.6,0-1-0.4-1-1v0c0-0.6,0.4-1,1-1h48c0.6,0,1,0.4,1,1l0,0C57,45.6,56.6,46,56,46z"/>
			<path class="st0" d="M56,50L8,50c-0.6,0-1-0.4-1-1v0c0-0.6,0.4-1,1-1l48,0c0.6,0,1,0.4,1,1v0C57,49.6,56.6,50,56,50z"/>
			<path class="st0" d="M7,53L7,53c0-0.6,0.4-1,1-1h32c0.6,0,1,0.4,1,1l0,0c0,0.6-0.4,1-1,1H8C7.4,54,7,53.6,7,53z"/>
		</g>
		<g>
			<path class="st23" d="M12,58H3c-0.6,0-1-0.4-1-1V9c0-0.6,0.4-1,1-1h9V58z"/>
			<path class="st3" d="M4,31L4,31c0-0.6,0.4-1,1-1l4,0c0.6,0,1,0.4,1,1v0c0,0.6-0.4,1-1,1l-4,0C4.4,32,4,31.6,4,31z"/>
			<circle class="st1" cx="7" cy="28" r="1"/>
			<path class="st3" d="M4,39L4,39c0-0.6,0.4-1,1-1l4,0c0.6,0,1,0.4,1,1l0,0c0,0.6-0.4,1-1,1l-4,0C4.4,40,4,39.6,4,39z"/>
			<circle class="st1" cx="7" cy="36" r="1"/>
			<path class="st3" d="M4,47L4,47c0-0.6,0.4-1,1-1l4,0c0.6,0,1,0.4,1,1l0,0c0,0.6-0.4,1-1,1l-4,0C4.4,48,4,47.6,4,47z"/>
			<circle class="st1" cx="7" cy="44" r="1"/>
			<path class="st3" d="M4,23L4,23c0-0.6,0.4-1,1-1l4,0c0.6,0,1,0.4,1,1v0c0,0.6-0.4,1-1,1l-4,0C4.4,24,4,23.6,4,23z"/>
			<circle class="st1" cx="7" cy="20" r="1"/>
			<rect x="4" y="14" class="st2" width="6" height="1"/>
			<rect x="4" y="10" class="st2" width="6" height="1"/>
			<rect x="4" y="12" class="st2" width="6" height="1"/>
		</g>
	</g>
</g>
<g id="Layer_46">
</g>
<g id="Layer_45">
</g>
<g id="Layer_44">
</g>
<g id="Layer_43">
</g>
<g id="Layer_42">
</g>
<g id="Layer_41">
</g>
<g id="Layer_40">
</g>
<g id="Layer_39">
</g>
<g id="Layer_38">
</g>
<g id="Layer_37">
</g>
<g id="Layer_36">
</g>
<g id="Layer_35">
</g>
<g id="Layer_34">
</g>
<g id="Layer_33">
</g>
<g id="Layer_32">
</g>
<g id="Layer_31">
</g>
<g id="Layer_30">
</g>
<g id="Layer_29">
</g>
<g id="Layer_28">
</g>
<g id="Layer_27">
</g>
<g id="Layer_26">
</g>
<g id="Layer_25">
</g>
<g id="Layer_24">
</g>
<g id="Layer_23">
</g>
<g id="Layer_22">
</g>
<g id="Layer_21">
</g>
<g id="Layer_20">
</g>
<g id="Layer_19">
</g>
<g id="Layer_18">
</g>
<g id="Layer_17">
</g>
<g id="Layer_16">
</g>
<g id="Layer_15">
</g>
<g id="Layer_14">
</g>
<g id="Layer_13">
</g>
<g id="Layer_12">
</g>
<g id="Layer_11">
</g>
<g id="Layer_10">
</g>
<g id="Layer_9">
</g>
<g id="Layer_8">
</g>
<g id="Layer_7">
</g>
<g id="Layer_6">
</g>
<g id="Layer_5">
</g>
<g id="Layer_4">
</g>
<g id="Layer_3">
</g>
<g id="Layer_2">
</g>
</svg>
