<?xml version="1.0" encoding="utf-8"?>
<!-- Generator: Adobe Illustrator 21.0.0, SVG Export Plug-In . SVG Version: 6.00 Build 0)  -->
<svg version="1.1" id="Layer_1" xmlns="http://www.w3.org/2000/svg" xmlns:xlink="http://www.w3.org/1999/xlink" x="0px" y="0px"
	 viewBox="0 0 64 60" style="enable-background:new 0 0 64 60;" xml:space="preserve">
<style type="text/css">
	.st0{fill:#CAD1D8;}
	.st1{fill:#9BA7AF;}
	.st2{fill:#FFFFFF;}
	.st3{fill:#E2E5E7;}
	.st4{fill:#595A66;}
	.st5{fill:#ABE1FA;}
	.st6{fill:#6F707E;}
	.st7{fill:#3BB54A;}
	.st8{fill:#0E9347;}
	.st9{fill:#517CBE;}
	.st10{fill:#65CCEF;}
	.st11{fill:#EE2C39;}
	.st12{fill:#CC202C;}
	.st13{fill:#F16351;}
	.st14{fill:#DDDFE1;}
	.st15{fill:#89C763;}
	.st16{fill:#3689C9;}
	.st17{fill:#1B6FAB;}
	.st18{fill:#4C9FD7;}
	.st19{fill:#FDBA4D;}
	.st20{fill:#F19F36;}
	.st21{fill:#F19F35;}
	.st22{fill:#FFFFFF;stroke:#595A66;stroke-width:2;stroke-miterlimit:10;}
	.st23{fill:#1A70AC;}
	.st24{fill:#35363E;}
</style>
<g>
	<path class="st0" d="M0,57V3c0-1.7,1.3-3,3-3h58c1.7,0,3,1.3,3,3v54c0,1.7-1.3,3-3,3H3C1.3,60,0,58.7,0,57z"/>
	<circle class="st1" cx="3" cy="4" r="1"/>
	<circle class="st1" cx="7" cy="4" r="1"/>
	<circle class="st1" cx="11" cy="4" r="1"/>
	<path class="st2" d="M3,8h58c0.6,0,1,0.4,1,1v48c0,0.6-0.4,1-1,1H3c-0.6,0-1-0.4-1-1V9C2,8.4,2.4,8,3,8z"/>
	<path class="st3" d="M61,5H15c-0.6,0-1-0.4-1-1v0c0-0.6,0.4-1,1-1h46c0.6,0,1,0.4,1,1v0C62,4.6,61.6,5,61,5z"/>
	<circle class="st5" cx="12" cy="19" r="4"/>
	<path class="st17" d="M15,21.6c0-0.3-0.2-0.6-0.6-0.8l-1-0.6c-0.1-0.1-0.2-0.1-0.4-0.2v-0.5c0.3-0.3,0.5-0.7,0.5-1.1
		c0-0.8-0.7-1.5-1.5-1.5s-1.5,0.7-1.5,1.5c0,0.4,0.2,0.8,0.5,1.1v0.5c-0.1,0-0.3,0.1-0.4,0.2l-1,0.6C9.3,21,9.1,21.3,9,21.6
		c0.7,0.8,1.8,1.4,3,1.4S14.3,22.5,15,21.6z"/>
	<path class="st0" d="M8,28L8,28c0-0.6,0.4-1,1-1l7,0c0.6,0,1,0.4,1,1v0c0,0.6-0.4,1-1,1l-7,0C8.4,29,8,28.6,8,28z"/>
	<path class="st0" d="M8,32L8,32c0-0.6,0.4-1,1-1l5,0c0.6,0,1,0.4,1,1v0c0,0.6-0.4,1-1,1H9C8.4,33,8,32.6,8,32z"/>
	<path class="st0" d="M56,15H26c-0.6,0-1,0.4-1,1v4c0,0.6,0.4,1,1,1h30c0.6,0,1-0.4,1-1v-4C57,15.4,56.6,15,56,15z M56,20H26v-4h30
		V20z"/>
	<path class="st0" d="M56,24H26c-0.6,0-1,0.4-1,1v4c0,0.6,0.4,1,1,1h30c0.6,0,1-0.4,1-1v-4C57,24.4,56.6,24,56,24z M56,29H26v-4h30
		V29z"/>
	<path class="st0" d="M38,33H26c-0.6,0-1,0.4-1,1v4c0,0.6,0.4,1,1,1h12c0.6,0,1-0.4,1-1v-4C39,33.4,38.6,33,38,33z M38,38H26v-4h12
		V38z"/>
	<path class="st0" d="M56,33H44c-0.6,0-1,0.4-1,1v4c0,0.6,0.4,1,1,1h12c0.6,0,1-0.4,1-1v-4C57,33.4,56.6,33,56,33z M56,38H44v-4h12
		V38z"/>
	<path class="st3" d="M42,51H28c-1.7,0-3-1.3-3-3v0c0-1.7,1.3-3,3-3h14c1.7,0,3,1.3,3,3v0C45,49.7,43.7,51,42,51z"/>
	<path class="st7" d="M42,50H28c-1.7,0-3-1.3-3-3v0c0-1.7,1.3-3,3-3h14c1.7,0,3,1.3,3,3v0C45,48.7,43.7,50,42,50z"/>
	<circle class="st8" cx="35" cy="47" r="1"/>
	<circle class="st8" cx="39" cy="47" r="1"/>
	<circle class="st8" cx="31" cy="47" r="1"/>
	<rect x="26" y="16" class="st3" width="30" height="4"/>
	<rect x="26" y="25" class="st3" width="30" height="4"/>
	<rect x="26" y="34" class="st3" width="12" height="4"/>
	<rect x="44" y="34" class="st3" width="12" height="4"/>
</g>
</svg>
