<?xml version="1.0" encoding="utf-8"?>
<!-- Generator: Adobe Illustrator 21.0.0, SVG Export Plug-In . SVG Version: 6.00 Build 0)  -->
<svg version="1.1" id="Layer_1" xmlns="http://www.w3.org/2000/svg" xmlns:xlink="http://www.w3.org/1999/xlink" x="0px" y="0px"
	 viewBox="0 0 64 60" style="enable-background:new 0 0 64 60;" xml:space="preserve">
<style type="text/css">
	.st0{fill:#CAD1D8;}
	.st1{fill:#9BA7AF;}
	.st2{fill:#FFFFFF;}
	.st3{fill:#E2E5E7;}
	.st4{fill:#595A66;}
	.st5{fill:#ABE1FA;}
	.st6{fill:#6F707E;}
	.st7{fill:#3BB54A;}
	.st8{fill:#0E9347;}
	.st9{fill:#517CBE;}
	.st10{fill:#65CCEF;}
	.st11{fill:#EE2C39;}
	.st12{fill:#CC202C;}
	.st13{fill:#F16351;}
	.st14{fill:#DDDFE1;}
	.st15{fill:#89C763;}
	.st16{fill:#3689C9;}
	.st17{fill:#1B6FAB;}
	.st18{fill:#4C9FD7;}
	.st19{fill:#FDBA4D;}
	.st20{fill:#F19F36;}
	.st21{fill:#F19F35;}
	.st22{fill:#FFFFFF;stroke:#595A66;stroke-width:2;stroke-miterlimit:10;}
	.st23{fill:#1A70AC;}
	.st24{fill:#35363E;}
</style>
<g>
	<g>
		<path class="st0" d="M61,0H3C1.3,0,0,1.3,0,3v3v51c0,1.7,1.3,3,3,3h58c1.7,0,3-1.3,3-3V6V3C64,1.3,62.7,0,61,0z"/>
	</g>
	<g>
		<circle class="st1" cx="7" cy="4" r="1"/>
	</g>
	<g>
		<circle class="st1" cx="11" cy="4" r="1"/>
	</g>
	<g>
		<path class="st2" d="M3,8h58c0.6,0,1,0.4,1,1v48c0,0.6-0.4,1-1,1H3c-0.6,0-1-0.4-1-1V9C2,8.4,2.4,8,3,8z"/>
	</g>
	<g>
		<path class="st3" d="M61,5H15c-0.6,0-1-0.4-1-1v0c0-0.6,0.4-1,1-1h46c0.6,0,1,0.4,1,1v0C62,4.6,61.6,5,61,5z"/>
	</g>
	<g>
		<circle class="st1" cx="3" cy="4" r="1"/>
	</g>
	<g>
		<path class="st4" d="M45,15H19c-0.6,0-1-0.4-1-1v0c0-0.6,0.4-1,1-1h26c0.6,0,1,0.4,1,1v0C46,14.6,45.6,15,45,15z"/>
	</g>
	<g>
		<path class="st4" d="M40,19H24c-0.6,0-1-0.4-1-1v0c0-0.6,0.4-1,1-1h16c0.6,0,1,0.4,1,1v0C41,18.6,40.6,19,40,19z"/>
	</g>
	<g>
		<path class="st0" d="M55,53C55,53,55,53,55,53L55,53c-0.6,0-1-0.5-1-1l0,0c0-0.5,0.5-1,1-1l0,0c0,0,0,0,0,0l0,0l0,0h0
			c0.5,0,1,0.4,1,1l0,0C56,52.5,55.6,53,55,53L55,53C55,53,55,53,55,53L55,53C55,53,55,53,55,53z M50,52c0-0.5,0.4-1,1-1l0,0
			c0.5,0,1,0.5,1,1l0,0c0,0.5-0.5,1-1,1l0,0C50.4,53,50,52.5,50,52z M46,52c0-0.5,0.4-1,1-1l0,0c0.6,0,1,0.5,1,1l0,0
			c0,0.5-0.4,1-1,1l0,0C46.4,53,46,52.5,46,52z M42,52c0-0.5,0.5-1,1-1l0,0c0.6,0,1,0.5,1,1l0,0c0,0.5-0.4,1-1,1l0,0
			C42.4,53,42,52.5,42,52z M37.9,52c0-0.5,0.5-1,1-1l0,0c0.5,0,1,0.5,1,1l0,0c0,0.5-0.4,1-1,1l0,0C38.4,53,37.9,52.5,37.9,52z
			 M33.9,52c0-0.5,0.4-1,1-1l0,0c0.5,0,1,0.5,1,1l0,0c0,0.5-0.5,1-1,1l0,0C34.4,53,33.9,52.5,33.9,52z M29.9,52c0-0.5,0.4-1,1-1l0,0
			c0.6,0,1,0.5,1,1l0,0c0,0.5-0.4,1-1,1l0,0C30.4,53,29.9,52.5,29.9,52z M25.9,52c0-0.5,0.5-1,1-1l0,0c0.6,0,1,0.5,1,1l0,0
			c0,0.5-0.4,1-1,1l0,0C26.3,53,25.9,52.5,25.9,52z M21.9,52c0-0.5,0.4-1,1-1l0,0c0.5,0,1,0.5,1,1l0,0c0,0.5-0.5,1-1,1l0,0
			C22.3,53,21.9,52.5,21.9,52z M17.9,52c0-0.5,0.4-1,1-1l0,0c0.5,0,1,0.5,1,1l0,0c0,0.5-0.5,1-1,1l0,0C18.3,53,17.9,52.5,17.9,52z
			 M13.9,52c0-0.5,0.4-1,1-1l0,0c0.6,0,1,0.5,1,1l0,0c0,0.5-0.4,1-1,1l0,0C14.3,53,13.9,52.5,13.9,52z M9.8,52c0-0.5,0.5-1,1-1l0,0
			c0.6,0,1,0.5,1,1l0,0c0,0.5-0.4,1-1,1l0,0C10.3,53,9.8,52.5,9.8,52z M6.3,51.4C6.3,51.4,6.3,51.4,6.3,51.4L6.3,51.4
			c-0.3-0.5-0.1-1.1,0.4-1.4l0,0c0.5-0.2,1.1-0.1,1.4,0.4l0,0c0.2,0.5,0.1,1.1-0.4,1.3l0,0c-0.1,0.1-0.3,0.1-0.5,0.1l0,0
			C6.9,51.9,6.5,51.7,6.3,51.4z M56,49.1c0-0.5,0.4-1,1-1l0,0c0.6,0,1,0.5,1,1l0,0c0,0.5-0.5,1-1,1l0,0C56.4,50.1,56,49.7,56,49.1z
			 M6,46.9c0-0.5,0.5-1,1-1l0,0c0.6,0,1,0.5,1,1l0,0c0,0.5-0.5,1-1,1l0,0C6.4,47.9,6,47.5,6,46.9z M56,45.1c0-0.5,0.4-1,1-1l0,0
			c0.6,0,1,0.5,1,1l0,0c0,0.6-0.5,1-1,1l0,0C56.4,46.1,56,45.6,56,45.1z M6,42.9c0-0.5,0.5-1,1-1l0,0c0.6,0,1,0.5,1,1l0,0
			c0,0.5-0.5,1-1,1l0,0C6.4,43.9,6,43.5,6,42.9z M56,41.1c0-0.5,0.4-1,1-1l0,0c0.6,0,1,0.5,1,1l0,0c0,0.5-0.5,1-1,1l0,0
			C56.4,42.1,56,41.6,56,41.1z M6,38.9c0-0.5,0.5-1,1-1l0,0c0.6,0,1,0.5,1,1l0,0c0,0.6-0.5,1-1,1l0,0C6.4,39.9,6,39.5,6,38.9z
			 M56,37.1c0-0.5,0.4-1,1-1l0,0c0.6,0,1,0.5,1,1l0,0c0,0.5-0.5,1-1,1l0,0C56.4,38.1,56,37.6,56,37.1z M6,34.9c0-0.5,0.5-1,1-1l0,0
			c0.6,0,1,0.5,1,1l0,0c0,0.5-0.5,1-1,1l0,0C6.4,35.9,6,35.5,6,34.9z M56,33c0-0.5,0.4-1,1-1l0,0c0.6,0,1,0.5,1,1l0,0
			c0,0.6-0.5,1-1,1l0,0C56.4,34,56,33.6,56,33z M6,30.9c0-0.6,0.5-1,1-1l0,0c0.6,0,1,0.4,1,1l0,0c0,0.6-0.5,1-1,1l0,0
			C6.4,31.9,6,31.4,6,30.9z M56,29c0-0.5,0.4-1,1-1l0,0c0.6,0,1,0.5,1,1l0,0c0,0.6-0.5,1-1,1l0,0C56.4,30,56,29.6,56,29z M6.8,27.8
			c-0.5-0.3-0.6-0.9-0.3-1.4l0,0c0,0,0,0,0,0l0,0c0.3-0.5,0.9-0.6,1.4-0.3l0,0c0.5,0.3,0.6,0.9,0.3,1.4l0,0
			c-0.2,0.3-0.5,0.5-0.9,0.5l0,0C7.1,27.9,6.9,27.9,6.8,27.8z M55.1,27c-0.5-0.1-1-0.5-0.9-1.1l0,0c0-0.6,0.5-1,1.1-0.9l0,0
			c0.5,0,1,0.5,0.9,1.1l0,0C56.1,26.6,55.7,27,55.1,27L55.1,27C55.1,27,55.1,27,55.1,27z M50.1,26c0-0.5,0.5-1,1-1l0,0
			c0.6,0,1,0.5,1,1l0,0c0,0.6-0.4,1-1,1l0,0C50.6,27,50.1,26.6,50.1,26z M46.1,26c0-0.5,0.5-1,1-1l0,0c0.6,0,1,0.5,1,1l0,0
			c0,0.6-0.4,1-1,1l0,0C46.6,27,46.1,26.6,46.1,26z M42.1,26c0-0.5,0.4-1,1-1l0,0c0.5,0,1,0.5,1,1l0,0c0,0.6-0.5,1-1,1l0,0
			C42.6,27,42.1,26.6,42.1,26z M38.1,26c0-0.5,0.5-1,1-1l0,0c0.6,0,1,0.5,1,1l0,0c0,0.6-0.4,1-1,1l0,0C38.5,27,38.1,26.6,38.1,26z
			 M34.1,26c0-0.5,0.5-1,1-1l0,0c0.6,0,1,0.5,1,1l0,0c0,0.6-0.4,1-1,1l0,0C34.5,27,34.1,26.6,34.1,26z M30.1,26c0-0.5,0.5-1,1-1l0,0
			c0.6,0,1,0.5,1,1l0,0c0,0.6-0.4,1-1,1l0,0C30.5,27,30.1,26.6,30.1,26z M26.1,26c0-0.5,0.5-1,1-1l0,0c0.5,0,1,0.5,1,1l0,0
			c0,0.6-0.5,1-1,1l0,0C26.5,27,26.1,26.6,26.1,26z M22,26c0-0.5,0.4-1,1-1l0,0c0.6,0,1,0.5,1,1l0,0c0,0.6-0.5,1-1,1l0,0
			C22.5,27,22,26.6,22,26z M18,26c0-0.5,0.4-1,1-1l0,0c0.5,0,1,0.5,1,1l0,0c0,0.6-0.5,1-1,1l0,0C18.5,27,18,26.6,18,26z M14,26
			c0-0.5,0.4-1,1-1l0,0c0.6,0,1,0.5,1,1l0,0c0,0.6-0.5,1-1,1l0,0C14.5,27,14,26.6,14,26z M10,26c0-0.5,0.5-1,1-1l0,0
			c0.6,0,1,0.5,1,1l0,0c0,0.6-0.4,1-1,1l0,0C10.4,27,10,26.6,10,26z"/>
	</g>
	<g>
		<path class="st0" d="M34,35c-0.3,0-0.5-0.1-0.7-0.3L32,33.4l-1.3,1.3c-0.4,0.4-1,0.4-1.4,0s-0.4-1,0-1.4l2-2c0.4-0.4,1-0.4,1.4,0
			l2,2c0.4,0.4,0.4,1,0,1.4C34.5,34.9,34.3,35,34,35z"/>
	</g>
	<g>
		<path class="st0" d="M32,38c-0.6,0-1-0.4-1-1v-4c0-0.6,0.4-1,1-1s1,0.4,1,1v4C33,37.6,32.6,38,32,38z"/>
	</g>
	<g>
		<g>
			<path class="st3" d="M35,47h-6c-1.1,0-2-0.9-2-2v0c0-1.1,0.9-2,2-2h6c1.1,0,2,0.9,2,2v0C37,46.1,36.1,47,35,47z"/>
		</g>
		<g>
			<path class="st7" d="M35,46h-6c-1.1,0-2-0.9-2-2v0c0-1.1,0.9-2,2-2h6c1.1,0,2,0.9,2,2v0C37,45.1,36.1,46,35,46z"/>
		</g>
		<g>
			<circle class="st8" cx="32" cy="44" r="1"/>
		</g>
	</g>
</g>
</svg>
