<?xml version="1.0" encoding="utf-8"?>
<!-- Generator: Adobe Illustrator 21.0.0, SVG Export Plug-In . SVG Version: 6.00 Build 0)  -->
<svg version="1.1" xmlns="http://www.w3.org/2000/svg" xmlns:xlink="http://www.w3.org/1999/xlink" x="0px" y="0px"
	 viewBox="0 0 64 60" style="enable-background:new 0 0 64 60;" xml:space="preserve">
<style type="text/css">
	.st0{fill:#CAD1D8;}
	.st1{fill:#FFFFFF;}
	.st2{fill:#595A66;}
	.st3{fill:#9BA7AF;}
	.st4{fill:#E2E5E7;}
	.st5{fill:#ABE1FA;}
	.st6{fill:#FDBA4D;}
	.st7{fill:#F19F35;}
	.st8{fill:#3BB54A;}
	.st9{fill:#0E9347;}
	.st10{fill:#E6E7E8;}
	.st11{fill:#BCBEC0;}
	.st12{fill:#D1D3D4;}
	.st13{fill:#A7A9AC;}
	.st14{fill:#DCDDDE;}
	.st15{fill:#B1B3B6;}
	.st16{fill:#C7C8CA;}
	.st17{fill:#9D9FA2;}
	.st18{fill:#3689C9;}
	.st19{fill:#EE2C39;}
	.st20{fill:#FFFFFF;stroke:#595A66;stroke-width:2;stroke-miterlimit:10;}
	.st21{fill:#F19F36;}
	.st22{fill:#D4D5D6;}
	.st23{fill:#35363E;}
	.st24{fill:#CC202C;}
	.st25{fill:#1A70AC;}
	.st26{fill:#BD6428;}
	.st27{fill:#A35723;}
	.st28{fill:#A35623;}
	.st29{fill:#DDDFE1;}
	.st30{fill:#1B6FAB;}
	.st31{fill:#165D91;}
	.st32{fill:#699DC4;}
	.st33{fill:#6F707E;}
	.st34{fill:#4C9FD7;}
	.st35{fill:#748B9E;}
	.st36{fill:#78B6E4;}
</style>
<g id="Layer_62">
</g>
<g id="Layer_60">
</g>
<g id="Layer_59">
</g>
<g id="Layer_58">
</g>
<g id="Layer_57">
</g>
<g id="Layer_56">
</g>
<g id="Layer_55">
</g>
<g id="Layer_54">
</g>
<g id="Layer_53">
</g>
<g id="Layer_52">
</g>
<g id="Layer_51">
</g>
<g id="Layer_50">
</g>
<g id="Layer_49">
</g>
<g id="Layer_48">
</g>
<g id="Layer_47">
</g>
<g id="Layer_46">
</g>
<g id="Layer_45">
</g>
<g id="Layer_44">
</g>
<g id="Layer_43">
</g>
<g id="Layer_42">
</g>
<g id="Layer_41">
</g>
<g id="Layer_40">
</g>
<g id="Layer_39">
</g>
<g id="Layer_38">
</g>
<g id="Layer_37">
</g>
<g id="Layer_36">
</g>
<g id="Layer_35">
</g>
<g id="Layer_34">
</g>
<g id="Layer_33">
</g>
<g id="Layer_32">
</g>
<g id="Layer_31">
</g>
<g id="Layer_30">
</g>
<g id="Layer_29">
</g>
<g id="Layer_28">
</g>
<g id="Layer_27">
</g>
<g id="Layer_26">
</g>
<g id="Layer_25">
</g>
<g id="Layer_24">
</g>
<g id="Layer_23">
</g>
<g id="Layer_22">
</g>
<g id="Layer_21">
</g>
<g id="Layer_20">
</g>
<g id="Layer_19">
</g>
<g id="Layer_18">
</g>
<g id="Layer_17">
</g>
<g id="Layer_16">
</g>
<g id="Layer_15">
</g>
<g id="Layer_14">
</g>
<g id="Layer_13">
</g>
<g id="Layer_12">
</g>
<g id="Layer_11">
</g>
<g id="Layer_10">
</g>
<g id="Layer_9">
</g>
<g id="Layer_8">
</g>
<g id="Layer_7">
</g>
<g id="Layer_6">
	<g>
		<path class="st0" d="M0,57V3c0-1.7,1.3-3,3-3h58c1.7,0,3,1.3,3,3v54c0,1.7-1.3,3-3,3H3C1.3,60,0,58.7,0,57z"/>
		<circle class="st3" cx="3" cy="4" r="1"/>
		<circle class="st3" cx="7" cy="4" r="1"/>
		<circle class="st3" cx="11" cy="4" r="1"/>
		<path class="st1" d="M3,8h58c0.6,0,1,0.4,1,1v48c0,0.6-0.4,1-1,1H3c-0.6,0-1-0.4-1-1V9C2,8.4,2.4,8,3,8z"/>
		<path class="st4" d="M61,5H15c-0.6,0-1-0.4-1-1v0c0-0.6,0.4-1,1-1h46c0.6,0,1,0.4,1,1v0C62,4.6,61.6,5,61,5z"/>
		<path class="st6" d="M18,44H7c-0.6,0-1-0.4-1-1v-8c0-0.6,0.4-1,1-1h11c0.6,0,1,0.4,1,1v8C19,43.6,18.6,44,18,44z"/>
		<path class="st6" d="M38,44H22c-0.6,0-1-0.4-1-1v-8c0-0.6,0.4-1,1-1h16c0.6,0,1,0.4,1,1v8C39,43.6,38.6,44,38,44z"/>
		<path class="st6" d="M13,54H7c-0.6,0-1-0.4-1-1v-6c0-0.6,0.4-1,1-1h6c0.6,0,1,0.4,1,1v6C14,53.6,13.6,54,13,54z"/>
		<path class="st8" d="M47,54H36c-0.6,0-1-0.4-1-1v-6c0-0.6,0.4-1,1-1h11c0.6,0,1,0.4,1,1v6C48,53.6,47.6,54,47,54z"/>
		<path class="st8" d="M32,54H17c-0.6,0-1-0.4-1-1v-6c0-0.6,0.4-1,1-1h15c0.6,0,1,0.4,1,1v6C33,53.6,32.6,54,32,54z"/>
		<path class="st5" d="M33,12h14c0.6,0,1,0.4,1,1v6c0,0.6-0.4,1-1,1H33c-0.6,0-1-0.4-1-1v-6C32,12.4,32.4,12,33,12z"/>
		<path class="st6" d="M7,12h13c0.6,0,1,0.4,1,1v6c0,0.6-0.4,1-1,1H7c-0.6,0-1-0.4-1-1v-6C6,12.4,6.4,12,7,12z"/>
		<path class="st6" d="M24,12h5c0.6,0,1,0.4,1,1v6c0,0.6-0.4,1-1,1h-5c-0.6,0-1-0.4-1-1v-6C23,12.4,23.4,12,24,12z"/>
		<path class="st8" d="M47,44h-5c-0.6,0-1-0.4-1-1v-8c0-0.6,0.4-1,1-1h5c0.6,0,1,0.4,1,1v8C48,43.6,47.6,44,47,44z"/>
		<path class="st8" d="M14,32H7c-0.6,0-1-0.4-1-1v-8c0-0.6,0.4-1,1-1h7c0.6,0,1,0.4,1,1v8C15,31.6,14.6,32,14,32z"/>
		<path class="st8" d="M32,32H18c-0.6,0-1-0.4-1-1v-8c0-0.6,0.4-1,1-1h14c0.6,0,1,0.4,1,1v8C33,31.6,32.6,32,32,32z"/>
		<path class="st6" d="M47,32H36c-0.6,0-1-0.4-1-1v-8c0-0.6,0.4-1,1-1h11c0.6,0,1,0.4,1,1v8C48,31.6,47.6,32,47,32z"/>
		<g>
			<path class="st23" d="M36,46H22c-1.7,0-3-1.3-3-3v-8c0-0.6-0.4-1-1-1c-1.7,0-3-1.3-3-3V21h2v10c0,0.6,0.4,1,1,1c1.7,0,3,1.3,3,3
				v8c0,0.6,0.4,1,1,1h14V46z"/>
		</g>
		<g>
			<path class="st19" d="M16,10c-2.2,0-4,1.8-4,4c0,2.7,2.8,7.1,3.2,7.6c0.2,0.3,0.5,0.4,0.8,0.4s0.6-0.2,0.8-0.4
				c0.3-0.5,3.2-4.8,3.2-7.6C20,11.8,18.2,10,16,10z"/>
			<path class="st24" d="M16.8,21.6c0.3-0.5,3.2-4.8,3.2-7.6c0,0,0,0,0-0.1c0-2.6-4-2.5-4,0.1V22C16.3,22,16.6,21.8,16.8,21.6z"/>
			<circle class="st1" cx="16" cy="14" r="1"/>
		</g>
		<g>
			<path class="st19" d="M36,34c-2.2,0-4,1.8-4,4c0,2.7,2.8,7.1,3.2,7.6c0.2,0.3,0.5,0.4,0.8,0.4s0.6-0.2,0.8-0.4
				c0.3-0.5,3.2-4.8,3.2-7.6C40,35.8,38.2,34,36,34z"/>
			<path class="st24" d="M36.8,45.6c0.3-0.5,3.2-4.8,3.2-7.6c0,0,0,0,0-0.1c0-2.6-4-2.5-4,0.1V46C36.3,46,36.6,45.8,36.8,45.6z"/>
			<circle class="st1" cx="36" cy="38" r="1"/>
		</g>
		<path class="st3" d="M53,17L53,17c0-0.6,0.4-1,1-1l4,0c0.6,0,1,0.4,1,1v0c0,0.6-0.4,1-1,1h-4C53.4,18,53,17.6,53,17z"/>
		<path class="st0" d="M50,23L50,23c0-0.6,0.4-1,1-1h6c0.6,0,1,0.4,1,1v0c0,0.6-0.4,1-1,1h-6C50.4,24,50,23.6,50,23z"/>
		<path class="st0" d="M50,39L50,39c0-0.6,0.4-1,1-1h6c0.6,0,1,0.4,1,1l0,0c0,0.6-0.4,1-1,1h-6C50.4,40,50,39.6,50,39z"/>
		<path class="st0" d="M50,27L50,27c0-0.6,0.4-1,1-1h7c0.6,0,1,0.4,1,1v0c0,0.6-0.4,1-1,1h-7C50.4,28,50,27.6,50,27z"/>
		<path class="st0" d="M50,35L50,35c0-0.6,0.4-1,1-1h7c0.6,0,1,0.4,1,1v0c0,0.6-0.4,1-1,1h-7C50.4,36,50,35.6,50,35z"/>
		<path class="st0" d="M50,31L50,31c0-0.6,0.4-1,1-1h5c0.6,0,1,0.4,1,1v0c0,0.6-0.4,1-1,1h-5C50.4,32,50,31.6,50,31z"/>
		<circle class="st23" cx="51" cy="17" r="1"/>
		<path class="st3" d="M53,13L53,13c0-0.6,0.4-1,1-1l4,0c0.6,0,1,0.4,1,1v0c0,0.6-0.4,1-1,1l-4,0C53.4,14,53,13.6,53,13z"/>
		<circle class="st23" cx="51" cy="13" r="1"/>
	</g>
</g>
<g id="Layer_5">
</g>
<g id="Layer_4">
</g>
<g id="Layer_3">
</g>
<g id="Layer_2">
</g>
</svg>
