<?xml version="1.0" encoding="utf-8"?>
<!-- Generator: Adobe Illustrator 21.0.0, SVG Export Plug-In . SVG Version: 6.00 Build 0)  -->
<svg version="1.1" xmlns="http://www.w3.org/2000/svg" xmlns:xlink="http://www.w3.org/1999/xlink" x="0px" y="0px"
	 viewBox="0 0 64 60" style="enable-background:new 0 0 64 60;" xml:space="preserve">
<style type="text/css">
	.st0{fill:#CAD1D8;}
	.st1{fill:#FFFFFF;}
	.st2{fill:#595A66;}
	.st3{fill:#9BA7AF;}
	.st4{fill:#E2E5E7;}
	.st5{fill:#ABE1FA;}
	.st6{fill:#FDBA4D;}
	.st7{fill:#F19F35;}
	.st8{fill:#3BB54A;}
	.st9{fill:#0E9347;}
	.st10{fill:#E6E7E8;}
	.st11{fill:#BCBEC0;}
	.st12{fill:#D1D3D4;}
	.st13{fill:#A7A9AC;}
	.st14{fill:#DCDDDE;}
	.st15{fill:#B1B3B6;}
	.st16{fill:#C7C8CA;}
	.st17{fill:#9D9FA2;}
	.st18{fill:#3689C9;}
	.st19{fill:#EE2C39;}
	.st20{fill:#FFFFFF;stroke:#595A66;stroke-width:2;stroke-miterlimit:10;}
	.st21{fill:#F19F36;}
	.st22{fill:#D4D5D6;}
	.st23{fill:#35363E;}
	.st24{fill:#CC202C;}
	.st25{fill:#1A70AC;}
	.st26{fill:#BD6428;}
	.st27{fill:#A35723;}
	.st28{fill:#A35623;}
	.st29{fill:#DDDFE1;}
	.st30{fill:#1B6FAB;}
	.st31{fill:#165D91;}
	.st32{fill:#699DC4;}
	.st33{fill:#6F707E;}
	.st34{fill:#4C9FD7;}
	.st35{fill:#748B9E;}
	.st36{fill:#78B6E4;}
</style>
<g id="Layer_62">
</g>
<g id="Layer_60">
</g>
<g id="Layer_59">
</g>
<g id="Layer_58">
</g>
<g id="Layer_57">
</g>
<g id="Layer_56">
</g>
<g id="Layer_55">
</g>
<g id="Layer_54">
</g>
<g id="Layer_53">
</g>
<g id="Layer_52">
</g>
<g id="Layer_51">
</g>
<g id="Layer_50">
</g>
<g id="Layer_49">
</g>
<g id="Layer_48">
</g>
<g id="Layer_47">
</g>
<g id="Layer_46">
</g>
<g id="Layer_45">
</g>
<g id="Layer_44">
</g>
<g id="Layer_43">
</g>
<g id="Layer_42">
</g>
<g id="Layer_41">
</g>
<g id="Layer_40">
</g>
<g id="Layer_39">
</g>
<g id="Layer_38">
</g>
<g id="Layer_37">
</g>
<g id="Layer_36">
</g>
<g id="Layer_35">
</g>
<g id="Layer_34">
</g>
<g id="Layer_33">
</g>
<g id="Layer_32">
</g>
<g id="Layer_31">
</g>
<g id="Layer_30">
</g>
<g id="Layer_29">
</g>
<g id="Layer_28">
</g>
<g id="Layer_27">
</g>
<g id="Layer_26">
</g>
<g id="Layer_25">
</g>
<g id="Layer_24">
</g>
<g id="Layer_23">
</g>
<g id="Layer_22">
</g>
<g id="Layer_21">
</g>
<g id="Layer_20">
</g>
<g id="Layer_19">
</g>
<g id="Layer_18">
</g>
<g id="Layer_17">
</g>
<g id="Layer_16">
</g>
<g id="Layer_15">
</g>
<g id="Layer_14">
</g>
<g id="Layer_13">
</g>
<g id="Layer_12">
	<g>
		<path class="st0" d="M0,57V3c0-1.7,1.3-3,3-3h58c1.7,0,3,1.3,3,3v54c0,1.7-1.3,3-3,3H3C1.3,60,0,58.7,0,57z"/>
		<path class="st3" d="M3,8h58c0.6,0,1,0.4,1,1v48c0,0.6-0.4,1-1,1H3c-0.6,0-1-0.4-1-1V9C2,8.4,2.4,8,3,8z"/>
		<path class="st18" d="M11,49c-1.1,0-2-0.9-2-2V36H7.1c-0.6,0-1,0.4-1,1v16c0,0.6,0.4,1,1,1h14c0.6,0,1-0.4,1-1v-4H11z"/>
		<path class="st18" d="M24,49v4c0,0.6,0.4,1,1,1h14c0.6,0,1-0.4,1-1v-4H24z"/>
		<path class="st18" d="M57,32h-2v15c0,1.1-0.9,2-2,2H42v4c0,0.6,0.4,1,1,1h14c0.6,0,1-0.4,1-1V33C58,32.4,57.6,32,57,32z"/>
		<path class="st18" d="M40,17v-4c0-0.6-0.4-1-1-1H25c-0.6,0-1,0.4-1,1v4H40z"/>
		<path class="st18" d="M9,19c0-1.1,0.9-2,2-2h11v-4c0-0.6-0.4-1-1-1H7c-0.6,0-1,0.4-1,1v20c0,0.6,0.4,1,1,1h2V19z"/>
		<path class="st18" d="M57,12H43c-0.6,0-1,0.4-1,1v4h11c1.1,0,2,0.9,2,2v11h2c0.6,0,1-0.4,1-1V13C58,12.4,57.6,12,57,12z"/>
		<circle class="st3" cx="3" cy="4" r="1"/>
		<circle class="st3" cx="7" cy="4" r="1"/>
		<circle class="st3" cx="11" cy="4" r="1"/>
		<path class="st4" d="M61,5H15c-0.6,0-1-0.4-1-1v0c0-0.6,0.4-1,1-1h46c0.6,0,1,0.4,1,1v0C62,4.6,61.6,5,61,5z"/>
		<path class="st30" d="M7.3,47.6l-1.2,1.2V53c0,0.6,0.4,1,1,1h7.1l-5.6-6.4C8.3,47.2,7.6,47.2,7.3,47.6z"/>
		<path class="st31" d="M13.5,51.1c-0.6-0.6-1.4-0.8-2.2-0.4l2.9,3.3H16L13.5,51.1z"/>
		<path class="st18" d="M7.8,48.4c-0.2-0.2-0.5-0.2-0.6,0l-1.1,1.1v0.9c0.2,0.1,0.4,0,0.5-0.1L7.8,49C8,48.8,8,48.6,7.8,48.4
			L7.8,48.4z"/>
		<path class="st5" d="M53,49H11c-1.1,0-2-0.9-2-2V19c0-1.1,0.9-2,2-2h42c1.1,0,2,0.9,2,2v28C55,48.1,54.1,49,53,49z"/>
		<path class="st30" d="M30.9,49l-5,5H39c0.6,0,1-0.4,1-1v-2.8L38.8,49H30.9z"/>
		<path class="st30" d="M24,49v4c0,0.6,0.4,1,1,1h7.1l-4.4-5H24z"/>
		<path class="st30" d="M9,29.1L6,32v1c0,0.6,0.4,1,1,1h2V29.1z"/>
		<path class="st30" d="M9.7,17.5C10,17.2,10.5,17,11,17h1.7c0.2-0.3,0.3-0.6,0.3-1c0-1.1-0.9-2-2-2s-2,0.9-2,2
			C9,16.6,9.3,17.1,9.7,17.5z"/>
		<path class="st30" d="M30.7,17c-0.3-0.6-1-1-1.7-1s-1.4,0.4-1.7,1H30.7z"/>
		<path class="st32" d="M54.4,16c-0.6,0-1.2,0.4-1.4,0.9c-0.2-0.2-0.5-0.3-0.8-0.3c-0.4,0-0.7,0.2-0.9,0.4H53c1.1,0,1.9,0.8,2,1.9
			c0.6-0.2,1-0.8,1-1.4C55.9,16.7,55.2,16,54.4,16z"/>
		<path class="st30" d="M48.7,17c0.2-0.3,0.3-0.6,0.3-1c0-1.1-0.9-2-2-2s-2,0.9-2,2c0,0.4,0.1,0.7,0.3,1H48.7z"/>
		<path class="st30" d="M55,23.2V30h2c0.6,0,1-0.4,1-1v-2.8L55,23.2z"/>
		<circle class="st7" cx="18" cy="25" r="4"/>
		<path class="st2" d="M18.9,34.7L9,44.5V47c0,1.1,0.9,2,2,2h23.4L21.9,34.7C21.1,33.8,19.7,33.8,18.9,34.7z"/>
		<path class="st2" d="M55,47v-3.4L41.8,30.4c-0.8-0.8-2-0.8-2.8,0L20.4,49H53C54.1,49,55,48.1,55,47z"/>
		<path class="st23" d="M55,47v-3.4L50.4,39c-0.6-0.6-1.4-0.6-2,0c-0.6,0.6-0.6,1.4,0,2l1.2,1.2c1.8,1.8,2.8,4.3,2.8,6.8H53
			C54.1,49,55,48.1,55,47z"/>
		<path class="st23" d="M32.8,42.6c-1.2-1.4-3.2-1.7-4.8-0.9l6.4,7.3h4L32.8,42.6z"/>
		<path class="st33" d="M35.7,37.5L35.7,37.5c0.4,0.4,1,0.4,1.4,0l2.8-2.8c0.4-0.4,0.4-1,0-1.4l0,0c-0.4-0.4-1-0.4-1.4,0l-2.8,2.8
			C35.3,36.5,35.3,37.1,35.7,37.5z"/>
		<path class="st33" d="M15.9,41.7L15.9,41.7c0.4,0.4,1,0.4,1.4,0l2.8-2.8c0.4-0.4,0.4-1,0-1.4l0,0c-0.4-0.4-1-0.4-1.4,0l-2.8,2.8
			C15.5,40.7,15.5,41.3,15.9,41.7z"/>
		<path class="st34" d="M51.9,21.5l0.8-0.8c0.4-0.4,0.4-1,0-1.4s-1-0.4-1.4,0l-0.8,0.8l-0.8-0.8c-0.4-0.4-1-0.4-1.4,0s-0.4,1,0,1.4
			l0.8,0.8l-0.8,0.8c-0.4,0.4-0.4,1,0,1.4c0.2,0.2,0.5,0.3,0.7,0.3s0.5-0.1,0.7-0.3l0.8-0.8l0.8,0.8c0.2,0.2,0.5,0.3,0.7,0.3
			s0.5-0.1,0.7-0.3c0.4-0.4,0.4-1,0-1.4L51.9,21.5z"/>
		<path class="st31" d="M58,26.2l-0.7-0.7c-0.2-0.2-0.6-0.2-0.9,0c-0.2,0.2-0.2,0.6,0,0.9l0.5,0.5c0.5,0.5,0.9,1.1,1.1,1.8V26.2z"/>
		<path class="st30" d="M55.7,44.7c-0.2-0.2-0.5-0.3-0.7-0.3V47c0,1.1-0.9,2-2,2h-2.4H50h-4.9L42,52v1c0,0.6,0.4,1,1,1h2h10h2
			c0.6,0,1-0.4,1-1v-6L55.7,44.7z"/>
		<path class="st18" d="M55.3,45.7c-0.1-0.1-0.2-0.1-0.3-0.1v1.1l0.3-0.3C55.5,46.2,55.5,45.9,55.3,45.7z"/>
		<path class="st18" d="M46.3,49l-0.6,0.6c-0.2,0.2-0.2,0.5,0,0.7s0.5,0.2,0.7,0l1.3-1.3H46.3z"/>
		<path class="st31" d="M52.7,49.2c-0.1-0.1-0.2-0.1-0.3-0.2h-1.9l4.5,5h2L52.7,49.2z"/>
		<path class="st31" d="M31.4,51.1c-0.6-0.6-1.4-0.8-2.2-0.4l2.9,3.3h1.8L31.4,51.1z"/>
		<path class="st31" d="M40,50.2l-0.7-0.7c-0.2-0.2-0.6-0.2-0.9,0c-0.2,0.2-0.2,0.6,0,0.9l0.5,0.5c0.5,0.5,0.9,1.1,1.1,1.8V50.2z"/>
		<path class="st18" d="M24.5,49L24,49.5v0.9c0.2,0.1,0.4,0,0.5-0.1l1.3-1.3c0,0,0,0,0,0H24.5z"/>
		<path class="st30" d="M12.9,49l-5,5h13.1c0.6,0,1-0.4,1-1v-2.8L20.8,49H12.9z"/>
		<path class="st31" d="M22.1,50.2l-0.7-0.7c-0.2-0.2-0.6-0.2-0.9,0c-0.2,0.2-0.2,0.6,0,0.9l0.5,0.5c0.5,0.5,0.9,1.1,1.1,1.8V50.2z"
			/>
		<path class="st1" d="M32.5,24c-1,0-1.9,0.6-2.3,1.4C29.9,25.2,29.5,25,29,25c-1.1,0-2,0.9-2,2c0,1.1,0.9,2,2,2h3.5
			c1.4,0,2.5-1.1,2.5-2.5C35,25.1,33.9,24,32.5,24z"/>
	</g>
</g>
<g id="Layer_11">
</g>
<g id="Layer_10">
</g>
<g id="Layer_9">
</g>
<g id="Layer_8">
</g>
<g id="Layer_7">
</g>
<g id="Layer_6">
</g>
<g id="Layer_5">
</g>
<g id="Layer_4">
</g>
<g id="Layer_3">
</g>
<g id="Layer_2">
</g>
</svg>
