<?xml version="1.0" encoding="utf-8"?>
<!-- Generator: Adobe Illustrator 21.0.0, SVG Export Plug-In . SVG Version: 6.00 Build 0)  -->
<svg version="1.1" id="Layer_1" xmlns="http://www.w3.org/2000/svg" xmlns:xlink="http://www.w3.org/1999/xlink" x="0px" y="0px"
	 viewBox="0 0 64 60" style="enable-background:new 0 0 64 60;" xml:space="preserve">
<style type="text/css">
	.st0{fill:#CAD1D8;}
	.st1{fill:#9BA7AF;}
	.st2{fill:#FFFFFF;}
	.st3{fill:#E2E5E7;}
	.st4{fill:#595A66;}
	.st5{fill:#ABE1FA;}
	.st6{fill:#6F707E;}
	.st7{fill:#3BB54A;}
	.st8{fill:#0E9347;}
	.st9{fill:#517CBE;}
	.st10{fill:#65CCEF;}
	.st11{fill:#EE2C39;}
	.st12{fill:#CC202C;}
	.st13{fill:#F16351;}
	.st14{fill:#DDDFE1;}
	.st15{fill:#89C763;}
	.st16{fill:#3689C9;}
	.st17{fill:#1B6FAB;}
	.st18{fill:#4C9FD7;}
	.st19{fill:#FDBA4D;}
	.st20{fill:#F19F36;}
	.st21{fill:#F19F35;}
	.st22{fill:#FFFFFF;stroke:#595A66;stroke-width:2;stroke-miterlimit:10;}
	.st23{fill:#1A70AC;}
	.st24{fill:#35363E;}
</style>
<g>
	<path class="st0" d="M0,57V3c0-1.7,1.3-3,3-3h58c1.7,0,3,1.3,3,3v54c0,1.7-1.3,3-3,3H3C1.3,60,0,58.7,0,57z"/>
	<circle class="st1" cx="3" cy="4" r="1"/>
	<circle class="st1" cx="7" cy="4" r="1"/>
	<circle class="st1" cx="11" cy="4" r="1"/>
	<path class="st2" d="M3,8h58c0.6,0,1,0.4,1,1v48c0,0.6-0.4,1-1,1H3c-0.6,0-1-0.4-1-1V9C2,8.4,2.4,8,3,8z"/>
	<path class="st3" d="M61,5H15c-0.6,0-1-0.4-1-1v0c0-0.6,0.4-1,1-1h46c0.6,0,1,0.4,1,1v0C62,4.6,61.6,5,61,5z"/>
	<path class="st3" d="M57,24H20V14h37c0.6,0,1,0.4,1,1v8C58,23.6,57.6,24,57,24z"/>
	<path class="st4" d="M53,20H26c-0.6,0-1-0.4-1-1v0c0-0.6,0.4-1,1-1h27c0.6,0,1,0.4,1,1v0C54,19.6,53.6,20,53,20z"/>
	<circle class="st22" cx="40" cy="19" r="2"/>
	<g>
		<g>
			<g>
				<path class="st16" d="M7,23.5c-0.3,0-0.5-0.2-0.5-0.5v-8c0-0.3,0.2-0.5,0.5-0.5h12.5v9H7z"/>
			</g>
			<path class="st23" d="M7,14c-0.6,0-1,0.4-1,1v8c0,0.6,0.4,1,1,1h13V14H7z M19,23H7v-8h12V23z"/>
		</g>
	</g>
	<path class="st3" d="M57,38H20V28h37c0.6,0,1,0.4,1,1v8C58,37.6,57.6,38,57,38z"/>
	<path class="st4" d="M53,34H26c-0.6,0-1-0.4-1-1l0,0c0-0.6,0.4-1,1-1h27c0.6,0,1,0.4,1,1l0,0C54,33.6,53.6,34,53,34z"/>
	<g>
		<g>
			<g>
				<path class="st16" d="M7,37.5c-0.3,0-0.5-0.2-0.5-0.5v-8c0-0.3,0.2-0.5,0.5-0.5h12.5v9H7z"/>
			</g>
			<path class="st23" d="M7,28c-0.6,0-1,0.4-1,1v8c0,0.6,0.4,1,1,1h13V28H7z M19,37H7v-8h12V37z"/>
		</g>
		<g>
			<path class="st23" d="M14.7,33.6l-3-1.5c-0.2-0.1-0.3-0.1-0.5,0c-0.1,0.1-0.2,0.3-0.2,0.4v3c0,0.2,0.1,0.3,0.2,0.4
				c0.1,0,0.2,0.1,0.3,0.1c0.1,0,0.2,0,0.2-0.1l3-1.5c0.2-0.1,0.3-0.3,0.3-0.4S14.9,33.6,14.7,33.6z"/>
		</g>
		<g>
			<path class="st2" d="M14.7,32.6l-3-1.5c-0.2-0.1-0.3-0.1-0.5,0c-0.1,0.1-0.2,0.3-0.2,0.4v3c0,0.2,0.1,0.3,0.2,0.4
				c0.1,0,0.2,0.1,0.3,0.1c0.1,0,0.2,0,0.2-0.1l3-1.5c0.2-0.1,0.3-0.3,0.3-0.4S14.9,32.6,14.7,32.6z"/>
		</g>
	</g>
	<path class="st3" d="M57,52H20V42h37c0.6,0,1,0.4,1,1v8C58,51.6,57.6,52,57,52z"/>
	<path class="st4" d="M53,48H26c-0.6,0-1-0.4-1-1l0,0c0-0.6,0.4-1,1-1h27c0.6,0,1,0.4,1,1l0,0C54,47.6,53.6,48,53,48z"/>
	<g>
		<g>
			<g>
				<path class="st16" d="M7,51.5c-0.3,0-0.5-0.2-0.5-0.5v-8c0-0.3,0.2-0.5,0.5-0.5h12.5v9H7z"/>
			</g>
			<path class="st23" d="M7,42c-0.6,0-1,0.4-1,1v8c0,0.6,0.4,1,1,1h13V42H7z M19,51H7v-8h12V51z"/>
		</g>
		<g>
			<path class="st23" d="M14.7,47.6l-3-1.5c-0.2-0.1-0.3-0.1-0.5,0c-0.1,0.1-0.2,0.3-0.2,0.4v3c0,0.2,0.1,0.3,0.2,0.4
				c0.1,0,0.2,0.1,0.3,0.1c0.1,0,0.2,0,0.2-0.1l3-1.5c0.2-0.1,0.3-0.3,0.3-0.4S14.9,47.6,14.7,47.6z"/>
		</g>
		<g>
			<path class="st2" d="M14.7,46.6l-3-1.5c-0.2-0.1-0.3-0.1-0.5,0c-0.1,0.1-0.2,0.3-0.2,0.4v3c0,0.2,0.1,0.3,0.2,0.4
				c0.1,0,0.2,0.1,0.3,0.1c0.1,0,0.2,0,0.2-0.1l3-1.5c0.2-0.1,0.3-0.3,0.3-0.4S14.9,46.6,14.7,46.6z"/>
		</g>
	</g>
	<path class="st2" d="M11.5,21L11.5,21c-0.3,0-0.5-0.2-0.5-0.5v-3c0-0.3,0.2-0.5,0.5-0.5h0c0.3,0,0.5,0.2,0.5,0.5v3
		C12,20.8,11.8,21,11.5,21z"/>
	<path class="st2" d="M14.5,21L14.5,21c-0.3,0-0.5-0.2-0.5-0.5v-3c0-0.3,0.2-0.5,0.5-0.5h0c0.3,0,0.5,0.2,0.5,0.5v3
		C15,20.8,14.8,21,14.5,21z"/>
</g>
</svg>
