<?xml version="1.0" encoding="utf-8"?>
<!-- Generator: Adobe Illustrator 21.0.0, SVG Export Plug-In . SVG Version: 6.00 Build 0)  -->
<svg version="1.1" id="Layer_1" xmlns="http://www.w3.org/2000/svg" xmlns:xlink="http://www.w3.org/1999/xlink" x="0px" y="0px"
	 viewBox="0 0 64 60" style="enable-background:new 0 0 64 60;" xml:space="preserve">
<style type="text/css">
	.st0{fill:#CAD1D8;}
	.st1{fill:#9BA7AF;}
	.st2{fill:#FFFFFF;}
	.st3{fill:#E2E5E7;}
	.st4{fill:#595A66;}
	.st5{fill:#ABE1FA;}
	.st6{fill:#6F707E;}
	.st7{fill:#3BB54A;}
	.st8{fill:#0E9347;}
	.st9{fill:#517CBE;}
	.st10{fill:#65CCEF;}
	.st11{fill:#EE2C39;}
	.st12{fill:#CC202C;}
	.st13{fill:#F16351;}
	.st14{fill:#DDDFE1;}
	.st15{fill:#89C763;}
	.st16{fill:#3689C9;}
	.st17{fill:#1B6FAB;}
	.st18{fill:#4C9FD7;}
	.st19{fill:#FDBA4D;}
	.st20{fill:#F19F36;}
	.st21{fill:#F19F35;}
	.st22{fill:#FFFFFF;stroke:#595A66;stroke-width:2;stroke-miterlimit:10;}
	.st23{fill:#1A70AC;}
	.st24{fill:#35363E;}
</style>
<g>
	<path class="st0" d="M0,57V3c0-1.7,1.3-3,3-3h58c1.7,0,3,1.3,3,3v54c0,1.7-1.3,3-3,3H3C1.3,60,0,58.7,0,57z"/>
	<circle class="st1" cx="3" cy="4" r="1"/>
	<circle class="st1" cx="7" cy="4" r="1"/>
	<circle class="st1" cx="11" cy="4" r="1"/>
	<path class="st2" d="M3,8h58c0.6,0,1,0.4,1,1v48c0,0.6-0.4,1-1,1H3c-0.6,0-1-0.4-1-1V9C2,8.4,2.4,8,3,8z"/>
	<path class="st3" d="M61,5H15c-0.6,0-1-0.4-1-1v0c0-0.6,0.4-1,1-1h46c0.6,0,1,0.4,1,1v0C62,4.6,61.6,5,61,5z"/>
	<path class="st0" d="M48,28H16c-0.6,0-1,0.4-1,1v4c0,0.6,0.4,1,1,1h32c0.6,0,1-0.4,1-1v-4C49,28.4,48.6,28,48,28z M48,33H16v-4h32
		V33z"/>
	<path class="st0" d="M48,36H16c-0.6,0-1,0.4-1,1v4c0,0.6,0.4,1,1,1h32c0.6,0,1-0.4,1-1v-4C49,36.4,48.6,36,48,36z M48,41H16v-4h32
		V41z"/>
	<rect x="16" y="29" class="st3" width="32" height="4"/>
	<path class="st0" d="M48,20H16c-0.6,0-1,0.4-1,1v4c0,0.6,0.4,1,1,1h32c0.6,0,1-0.4,1-1v-4C49,20.4,48.6,20,48,20z M48,25H16v-4h32
		V25z"/>
	<rect x="16" y="21" class="st3" width="32" height="4"/>
	<rect x="16" y="37" class="st3" width="32" height="4"/>
	<path class="st3" d="M40,52H26c-1.7,0-3-1.3-3-3v0c0-1.7,1.3-3,3-3h14c1.7,0,3,1.3,3,3v0C43,50.7,41.7,52,40,52z"/>
	<path class="st7" d="M40,51H26c-1.7,0-3-1.3-3-3v0c0-1.7,1.3-3,3-3h14c1.7,0,3,1.3,3,3v0C43,49.7,41.7,51,40,51z"/>
	<circle class="st8" cx="33" cy="48" r="1"/>
	<circle class="st8" cx="37" cy="48" r="1"/>
	<circle class="st8" cx="29" cy="48" r="1"/>
	<path class="st4" d="M26,15L26,15c0-0.6,0.4-1,1-1l10,0c0.6,0,1,0.4,1,1v0c0,0.6-0.4,1-1,1l-10,0C26.4,16,26,15.6,26,15z"/>
</g>
</svg>
