<?xml version="1.0" encoding="utf-8"?>
<!-- Generator: Adobe Illustrator 21.0.0, SVG Export Plug-In . SVG Version: 6.00 Build 0)  -->
<svg version="1.1" id="Layer_1" xmlns="http://www.w3.org/2000/svg" xmlns:xlink="http://www.w3.org/1999/xlink" x="0px" y="0px"
	 viewBox="0 0 64 60" style="enable-background:new 0 0 64 60;" xml:space="preserve">
<style type="text/css">
	.st0{fill:#CAD1D8;}
	.st1{fill:#9BA7AF;}
	.st2{fill:#FFFFFF;}
	.st3{fill:#E2E5E7;}
	.st4{fill:#595A66;}
	.st5{fill:#ABE1FA;}
	.st6{fill:#6F707E;}
	.st7{fill:#3BB54A;}
	.st8{fill:#0E9347;}
	.st9{fill:#517CBE;}
	.st10{fill:#65CCEF;}
	.st11{fill:#EE2C39;}
	.st12{fill:#CC202C;}
	.st13{fill:#F16351;}
	.st14{fill:#DDDFE1;}
	.st15{fill:#89C763;}
	.st16{fill:#3689C9;}
	.st17{fill:#1B6FAB;}
	.st18{fill:#4C9FD7;}
	.st19{fill:#FDBA4D;}
	.st20{fill:#F19F36;}
	.st21{fill:#F19F35;}
	.st22{fill:#FFFFFF;stroke:#595A66;stroke-width:2;stroke-miterlimit:10;}
	.st23{fill:#1A70AC;}
	.st24{fill:#35363E;}
</style>
<g>
	<g>
		<path class="st0" d="M0,57V3c0-1.7,1.3-3,3-3h58c1.7,0,3,1.3,3,3v54c0,1.7-1.3,3-3,3H3C1.3,60,0,58.7,0,57z"/>
	</g>
	<g>
		<circle class="st1" cx="3" cy="4" r="1"/>
	</g>
	<g>
		<circle class="st1" cx="7" cy="4" r="1"/>
	</g>
	<g>
		<circle class="st1" cx="11" cy="4" r="1"/>
	</g>
	<g>
		<path class="st2" d="M3,8h58c0.6,0,1,0.4,1,1v48c0,0.6-0.4,1-1,1H3c-0.6,0-1-0.4-1-1V9C2,8.4,2.4,8,3,8z"/>
	</g>
	<g>
		<path class="st3" d="M61,5H15c-0.6,0-1-0.4-1-1v0c0-0.6,0.4-1,1-1h46c0.6,0,1,0.4,1,1v0C62,4.6,61.6,5,61,5z"/>
	</g>
	<g>
		<g>
			<path class="st11" d="M35,52.5c-0.3,0-0.5-0.2-0.5-0.5V36c0-0.3,0.2-0.5,0.5-0.5h22c0.3,0,0.5,0.2,0.5,0.5v16
				c0,0.3-0.2,0.5-0.5,0.5H35z"/>
		</g>
		<path class="st12" d="M57,35H35c-0.6,0-1,0.4-1,1v16c0,0.6,0.4,1,1,1h22c0.6,0,1-0.4,1-1V36C58,35.4,57.6,35,57,35z M57,52H35V36
			h22V52z"/>
	</g>
	<g>
		<path class="st12" d="M49.6,44.3l-4.5-2.3c-0.2-0.1-0.5-0.1-0.7,0c-0.2,0.1-0.4,0.4-0.4,0.6v4.5c0,0.3,0.1,0.5,0.4,0.6
			c0.1,0.1,0.3,0.1,0.4,0.1c0.1,0,0.2,0,0.3-0.1l4.5-2.3c0.3-0.1,0.4-0.4,0.4-0.7S49.8,44.5,49.6,44.3z"/>
	</g>
	<g>
		<path class="st2" d="M49.6,43.3l-4.5-2.3c-0.2-0.1-0.5-0.1-0.7,0c-0.2,0.1-0.4,0.4-0.4,0.6v4.5c0,0.3,0.1,0.5,0.4,0.6
			c0.1,0.1,0.3,0.1,0.4,0.1c0.1,0,0.2,0,0.3-0.1l4.5-2.3c0.3-0.1,0.4-0.4,0.4-0.7S49.8,43.5,49.6,43.3z"/>
	</g>
	<g>
		<g>
			<path class="st11" d="M35,30.5c-0.3,0-0.5-0.2-0.5-0.5V14c0-0.3,0.2-0.5,0.5-0.5h22c0.3,0,0.5,0.2,0.5,0.5v16
				c0,0.3-0.2,0.5-0.5,0.5H35z"/>
		</g>
		<path class="st12" d="M57,13H35c-0.6,0-1,0.4-1,1v16c0,0.6,0.4,1,1,1h22c0.6,0,1-0.4,1-1V14C58,13.4,57.6,13,57,13z M57,30H35V14
			h22V30z"/>
	</g>
	<g>
		<path class="st12" d="M49.6,22.3l-4.5-2.3c-0.2-0.1-0.5-0.1-0.7,0c-0.2,0.1-0.4,0.4-0.4,0.6v4.5c0,0.3,0.1,0.5,0.4,0.6
			c0.1,0.1,0.3,0.1,0.4,0.1c0.1,0,0.2,0,0.3-0.1l4.5-2.3c0.3-0.1,0.4-0.4,0.4-0.7S49.8,22.5,49.6,22.3z"/>
	</g>
	<g>
		<path class="st2" d="M49.6,21.3l-4.5-2.3c-0.2-0.1-0.5-0.1-0.7,0c-0.2,0.1-0.4,0.4-0.4,0.6v4.5c0,0.3,0.1,0.5,0.4,0.6
			c0.1,0.1,0.3,0.1,0.4,0.1c0.1,0,0.2,0,0.3-0.1l4.5-2.3c0.3-0.1,0.4-0.4,0.4-0.7S49.8,21.5,49.6,21.3z"/>
	</g>
	<g>
		<g>
			<path class="st11" d="M7,30.5c-0.3,0-0.5-0.2-0.5-0.5V14c0-0.3,0.2-0.5,0.5-0.5h22c0.3,0,0.5,0.2,0.5,0.5v16
				c0,0.3-0.2,0.5-0.5,0.5H7z"/>
		</g>
		<path class="st12" d="M29,13H7c-0.6,0-1,0.4-1,1v16c0,0.6,0.4,1,1,1h22c0.6,0,1-0.4,1-1V14C30,13.4,29.6,13,29,13z M29,30H7V14h22
			V30z"/>
	</g>
	<g>
		<path class="st12" d="M21.6,22.3l-4.5-2.3c-0.2-0.1-0.5-0.1-0.7,0c-0.2,0.1-0.4,0.4-0.4,0.6v4.5c0,0.3,0.1,0.5,0.4,0.6
			c0.1,0.1,0.3,0.1,0.4,0.1c0.1,0,0.2,0,0.3-0.1l4.5-2.3c0.3-0.1,0.4-0.4,0.4-0.7S21.8,22.5,21.6,22.3z"/>
	</g>
	<g>
		<path class="st2" d="M21.6,21.3l-4.5-2.3c-0.2-0.1-0.5-0.1-0.7,0c-0.2,0.1-0.4,0.4-0.4,0.6v4.5c0,0.3,0.1,0.5,0.4,0.6
			c0.1,0.1,0.3,0.1,0.4,0.1c0.1,0,0.2,0,0.3-0.1l4.5-2.3c0.3-0.1,0.4-0.4,0.4-0.7S21.8,21.5,21.6,21.3z"/>
	</g>
	<g>
		<g>
			<path class="st11" d="M7,52.5c-0.3,0-0.5-0.2-0.5-0.5V36c0-0.3,0.2-0.5,0.5-0.5h22c0.3,0,0.5,0.2,0.5,0.5v16
				c0,0.3-0.2,0.5-0.5,0.5H7z"/>
		</g>
		<path class="st12" d="M29,35H7c-0.6,0-1,0.4-1,1v16c0,0.6,0.4,1,1,1h22c0.6,0,1-0.4,1-1V36C30,35.4,29.6,35,29,35z M29,52H7V36h22
			V52z"/>
	</g>
	<g>
		<path class="st12" d="M21.6,44.3l-4.5-2.3c-0.2-0.1-0.5-0.1-0.7,0c-0.2,0.1-0.4,0.4-0.4,0.6v4.5c0,0.3,0.1,0.5,0.4,0.6
			c0.1,0.1,0.3,0.1,0.4,0.1c0.1,0,0.2,0,0.3-0.1l4.5-2.3c0.3-0.1,0.4-0.4,0.4-0.7S21.8,44.5,21.6,44.3z"/>
	</g>
	<g>
		<path class="st2" d="M21.6,43.3l-4.5-2.3c-0.2-0.1-0.5-0.1-0.7,0c-0.2,0.1-0.4,0.4-0.4,0.6v4.5c0,0.3,0.1,0.5,0.4,0.6
			c0.1,0.1,0.3,0.1,0.4,0.1c0.1,0,0.2,0,0.3-0.1l4.5-2.3c0.3-0.1,0.4-0.4,0.4-0.7S21.8,43.5,21.6,43.3z"/>
	</g>
</g>
</svg>
