<?xml version="1.0" encoding="utf-8"?>
<!-- Generator: Adobe Illustrator 21.0.0, SVG Export Plug-In . SVG Version: 6.00 Build 0)  -->
<svg version="1.1" id="Layer_1" xmlns="http://www.w3.org/2000/svg" xmlns:xlink="http://www.w3.org/1999/xlink" x="0px" y="0px"
	 viewBox="0 0 64 60" style="enable-background:new 0 0 64 60;" xml:space="preserve">
<style type="text/css">
	.st0{fill:#CAD1D8;}
	.st1{fill:#9BA7AF;}
	.st2{fill:#FFFFFF;}
	.st3{fill:#E2E5E7;}
	.st4{fill:#595A66;}
	.st5{fill:#ABE1FA;}
	.st6{fill:#6F707E;}
	.st7{fill:#3BB54A;}
	.st8{fill:#0E9347;}
	.st9{fill:#517CBE;}
	.st10{fill:#65CCEF;}
	.st11{fill:#EE2C39;}
	.st12{fill:#CC202C;}
	.st13{fill:#F16351;}
	.st14{fill:#DDDFE1;}
	.st15{fill:#89C763;}
	.st16{fill:#3689C9;}
	.st17{fill:#1B6FAB;}
	.st18{fill:#4C9FD7;}
	.st19{fill:#FDBA4D;}
	.st20{fill:#F19F36;}
	.st21{fill:#F19F35;}
	.st22{fill:#FFFFFF;stroke:#595A66;stroke-width:2;stroke-miterlimit:10;}
	.st23{fill:#1A70AC;}
	.st24{fill:#35363E;}
</style>
<g>
	<path class="st0" d="M0,57V3c0-1.7,1.3-3,3-3h58c1.7,0,3,1.3,3,3v54c0,1.7-1.3,3-3,3H3C1.3,60,0,58.7,0,57z"/>
	<circle class="st1" cx="3" cy="4" r="1"/>
	<circle class="st1" cx="7" cy="4" r="1"/>
	<circle class="st1" cx="11" cy="4" r="1"/>
	<path class="st2" d="M3,8h58c0.6,0,1,0.4,1,1v48c0,0.6-0.4,1-1,1H3c-0.6,0-1-0.4-1-1V9C2,8.4,2.4,8,3,8z"/>
	<path class="st3" d="M61,5H15c-0.6,0-1-0.4-1-1v0c0-0.6,0.4-1,1-1h46c0.6,0,1,0.4,1,1v0C62,4.6,61.6,5,61,5z"/>
	<g>
		<path class="st5" d="M58,26H6c-0.6,0-1-0.4-1-1V15c0-0.6,0.4-1,1-1h52c0.6,0,1,0.4,1,1v10C59,25.6,58.6,26,58,26z"/>
		<circle class="st19" cx="32" cy="17" r="1"/>
		<path class="st4" d="M59,25v-2.8l-4.5-4.5c-0.3-0.3-0.9-0.3-1.3,0L44.9,26H58C58.6,26,59,25.6,59,25z"/>
		<path class="st4" d="M44.2,19.6L38,26h13.1l-5.6-6.4C45.2,19.2,44.6,19.2,44.2,19.6z"/>
		<path class="st24" d="M50.4,23.1c-0.6-0.6-1.4-0.8-2.2-0.4l2.9,3.3h1.8L50.4,23.1z"/>
		<path class="st4" d="M37.3,19.6L31.1,26h13.1l-5.6-6.4C38.3,19.2,37.6,19.2,37.3,19.6z"/>
		<path class="st24" d="M43.5,23.1c-0.6-0.6-1.4-0.8-2.2-0.4l2.9,3.3H46L43.5,23.1z"/>
		<path class="st6" d="M51.7,20.9L51.7,20.9c0.2,0.2,0.5,0.2,0.7,0l1.4-1.4c0.2-0.2,0.2-0.5,0-0.7l0,0c-0.2-0.2-0.5-0.2-0.7,0
			l-1.4,1.4C51.5,20.3,51.5,20.7,51.7,20.9z"/>
		<path class="st6" d="M35.9,23.3L35.9,23.3c0.2,0.2,0.5,0.2,0.7,0l1.4-1.4c0.2-0.2,0.2-0.5,0-0.7l0,0c-0.2-0.2-0.5-0.2-0.7,0
			l-1.4,1.4C35.7,22.8,35.7,23.1,35.9,23.3z"/>
		<path class="st24" d="M59,22.2l-0.7-0.7c-0.2-0.2-0.6-0.2-0.9,0c-0.2,0.2-0.2,0.6,0,0.9l0.5,0.5c0.5,0.5,0.9,1.1,1.1,1.8V22.2z"/>
	</g>
	<path class="st0" d="M26,49H6c-0.6,0-1-0.4-1-1l0,0c0-0.6,0.4-1,1-1h20c0.6,0,1,0.4,1,1l0,0C27,48.6,26.6,49,26,49z"/>
	<path class="st0" d="M55,45H36c-0.6,0-1-0.4-1-1l0,0c0-0.6,0.4-1,1-1h19c0.6,0,1,0.4,1,1l0,0C56,44.6,55.6,45,55,45z"/>
	<path class="st0" d="M58,37H36c-0.6,0-1-0.4-1-1l0,0c0-0.6,0.4-1,1-1h22c0.6,0,1,0.4,1,1l0,0C59,36.6,58.6,37,58,37z"/>
	<path class="st0" d="M51,41H36c-0.6,0-1-0.4-1-1l0,0c0-0.6,0.4-1,1-1h15c0.6,0,1,0.4,1,1l0,0C52,40.6,51.6,41,51,41z"/>
	<path class="st0" d="M51,33H36c-0.6,0-1-0.4-1-1v0c0-0.6,0.4-1,1-1h15c0.6,0,1,0.4,1,1v0C52,32.6,51.6,33,51,33z"/>
	<path class="st0" d="M54,49H36c-0.6,0-1-0.4-1-1l0,0c0-0.6,0.4-1,1-1h18c0.6,0,1,0.4,1,1l0,0C55,48.6,54.6,49,54,49z"/>
	<path class="st0" d="M17,53H6c-0.6,0-1-0.4-1-1v0c0-0.6,0.4-1,1-1h11c0.6,0,1,0.4,1,1v0C18,52.6,17.6,53,17,53z"/>
	<path class="st0" d="M43,53h-7c-0.6,0-1-0.4-1-1l0,0c0-0.6,0.4-1,1-1h7c0.6,0,1,0.4,1,1l0,0C44,52.6,43.6,53,43,53z"/>
	<path class="st4" d="M8,18L8,18c0-0.6,0.4-1,1-1h13c0.6,0,1,0.4,1,1v0c0,0.6-0.4,1-1,1H9C8.4,19,8,18.6,8,18z"/>
	<path class="st4" d="M8,22L8,22c0-0.6,0.4-1,1-1h7c0.6,0,1,0.4,1,1v0c0,0.6-0.4,1-1,1H9C8.4,23,8,22.6,8,22z"/>
	<g>
		<g>
			<g>
				<path class="st11" d="M6,42.5c-0.3,0-0.5-0.2-0.5-0.5V32c0-0.3,0.2-0.5,0.5-0.5h18c0.3,0,0.5,0.2,0.5,0.5v10
					c0,0.3-0.2,0.5-0.5,0.5H6z"/>
			</g>
			<path class="st12" d="M24,31H6c-0.6,0-1,0.4-1,1v10c0,0.6,0.4,1,1,1h18c0.6,0,1-0.4,1-1V32C25,31.4,24.6,31,24,31z M24,42H6V32
				h18V42z"/>
		</g>
		<g>
			<path class="st12" d="M16.7,37.6l-3-1.5c-0.2-0.1-0.3-0.1-0.5,0c-0.1,0.1-0.2,0.3-0.2,0.4v3c0,0.2,0.1,0.3,0.2,0.4
				c0.1,0,0.2,0.1,0.3,0.1c0.1,0,0.2,0,0.2-0.1l3-1.5c0.2-0.1,0.3-0.3,0.3-0.4S16.9,37.6,16.7,37.6z"/>
		</g>
		<g>
			<path class="st2" d="M16.7,36.6l-3-1.5c-0.2-0.1-0.3-0.1-0.5,0c-0.1,0.1-0.2,0.3-0.2,0.4v3c0,0.2,0.1,0.3,0.2,0.4
				c0.1,0,0.2,0.1,0.3,0.1c0.1,0,0.2,0,0.2-0.1l3-1.5c0.2-0.1,0.3-0.3,0.3-0.4S16.9,36.6,16.7,36.6z"/>
		</g>
	</g>
</g>
</svg>
