<?xml version="1.0" encoding="utf-8"?>
<!-- Generator: Adobe Illustrator 21.0.0, SVG Export Plug-In . SVG Version: 6.00 Build 0)  -->
<svg version="1.1" id="Layer_1" xmlns="http://www.w3.org/2000/svg" xmlns:xlink="http://www.w3.org/1999/xlink" x="0px" y="0px"
	 viewBox="0 0 64 60" style="enable-background:new 0 0 64 60;" xml:space="preserve">
<style type="text/css">
	.st0{fill:#CAD1D8;}
	.st1{fill:#9BA7AF;}
	.st2{fill:#FFFFFF;}
	.st3{fill:#E2E5E7;}
	.st4{fill:#595A66;}
	.st5{fill:#ABE1FA;}
	.st6{fill:#6F707E;}
	.st7{fill:#3BB54A;}
	.st8{fill:#0E9347;}
	.st9{fill:#517CBE;}
	.st10{fill:#65CCEF;}
	.st11{fill:#EE2C39;}
	.st12{fill:#CC202C;}
	.st13{fill:#F16351;}
	.st14{fill:#DDDFE1;}
	.st15{fill:#89C763;}
	.st16{fill:#3689C9;}
	.st17{fill:#1B6FAB;}
	.st18{fill:#4C9FD7;}
	.st19{fill:#FDBA4D;}
	.st20{fill:#F19F36;}
	.st21{fill:#F19F35;}
	.st22{fill:#FFFFFF;stroke:#595A66;stroke-width:2;stroke-miterlimit:10;}
	.st23{fill:#1A70AC;}
	.st24{fill:#35363E;}
</style>
<g>
	<path class="st0" d="M0,57V3c0-1.7,1.3-3,3-3h58c1.7,0,3,1.3,3,3v54c0,1.7-1.3,3-3,3H3C1.3,60,0,58.7,0,57z"/>
	<circle class="st1" cx="3" cy="4" r="1"/>
	<circle class="st1" cx="7" cy="4" r="1"/>
	<circle class="st1" cx="11" cy="4" r="1"/>
	<path class="st2" d="M3,8h58c0.6,0,1,0.4,1,1v48c0,0.6-0.4,1-1,1H3c-0.6,0-1-0.4-1-1V9C2,8.4,2.4,8,3,8z"/>
	<path class="st3" d="M61,5H15c-0.6,0-1-0.4-1-1v0c0-0.6,0.4-1,1-1h46c0.6,0,1,0.4,1,1v0C62,4.6,61.6,5,61,5z"/>
	<circle class="st21" cx="13" cy="19" r="5"/>
	<circle class="st21" cx="32" cy="19" r="5"/>
	<circle class="st21" cx="51" cy="19" r="5"/>
	<path class="st0" d="M19,37H7c-0.6,0-1-0.4-1-1l0,0c0-0.6,0.4-1,1-1h12c0.6,0,1,0.4,1,1l0,0C20,36.6,19.6,37,19,37z"/>
	<path class="st0" d="M16,33h-6c-0.6,0-1-0.4-1-1v0c0-0.6,0.4-1,1-1h6c0.6,0,1,0.4,1,1v0C17,32.6,16.6,33,16,33z"/>
	<path class="st0" d="M38,33H26c-0.6,0-1-0.4-1-1v0c0-0.6,0.4-1,1-1h12c0.6,0,1,0.4,1,1v0C39,32.6,38.6,33,38,33z"/>
	<path class="st0" d="M37,37H27c-0.6,0-1-0.4-1-1l0,0c0-0.6,0.4-1,1-1h10c0.6,0,1,0.4,1,1l0,0C38,36.6,37.6,37,37,37z"/>
	<path class="st0" d="M18,41H8c-0.6,0-1-0.4-1-1l0,0c0-0.6,0.4-1,1-1h10c0.6,0,1,0.4,1,1l0,0C19,40.6,18.6,41,18,41z"/>
	<path class="st0" d="M57,33H45c-0.6,0-1-0.4-1-1v0c0-0.6,0.4-1,1-1h12c0.6,0,1,0.4,1,1v0C58,32.6,57.6,33,57,33z"/>
	<path class="st0" d="M57,41H45c-0.6,0-1-0.4-1-1l0,0c0-0.6,0.4-1,1-1h12c0.6,0,1,0.4,1,1l0,0C58,40.6,57.6,41,57,41z"/>
	<path class="st0" d="M54,37h-6c-0.6,0-1-0.4-1-1l0,0c0-0.6,0.4-1,1-1h6c0.6,0,1,0.4,1,1l0,0C55,36.6,54.6,37,54,37z"/>
	<path class="st0" d="M35,41h-6c-0.6,0-1-0.4-1-1l0,0c0-0.6,0.4-1,1-1h6c0.6,0,1,0.4,1,1l0,0C36,40.6,35.6,41,35,41z"/>
	<g>
		<path class="st2" d="M33.6,22c-0.1,0-0.2,0-0.2-0.1L32,21.2l-1.3,0.7c-0.2,0.1-0.4,0.1-0.5,0c-0.2-0.1-0.2-0.3-0.2-0.5l0.3-1.5
			l-1.1-1.1C29,18.6,29,18.4,29,18.3c0.1-0.2,0.2-0.3,0.4-0.3l1.5-0.2l0.7-1.4c0.1-0.2,0.3-0.3,0.4-0.3c0.2,0,0.4,0.1,0.4,0.3
			l0.7,1.4l1.5,0.2c0.2,0,0.3,0.2,0.4,0.3c0.1,0.2,0,0.4-0.1,0.5l-1.1,1.1l0.3,1.5c0,0.2,0,0.4-0.2,0.5C33.8,22,33.7,22,33.6,22z"/>
	</g>
	<g>
		<path class="st2" d="M52.6,22c-0.1,0-0.2,0-0.2-0.1L51,21.2l-1.3,0.7c-0.2,0.1-0.4,0.1-0.5,0c-0.2-0.1-0.2-0.3-0.2-0.5l0.3-1.5
			l-1.1-1.1C48,18.6,48,18.4,48,18.3c0.1-0.2,0.2-0.3,0.4-0.3l1.5-0.2l0.7-1.4c0.1-0.2,0.3-0.3,0.4-0.3c0.2,0,0.4,0.1,0.4,0.3
			l0.7,1.4l1.5,0.2c0.2,0,0.3,0.2,0.4,0.3c0.1,0.2,0,0.4-0.1,0.5l-1.1,1.1l0.3,1.5c0,0.2,0,0.4-0.2,0.5C52.8,22,52.7,22,52.6,22z"/>
	</g>
	<g>
		<path class="st2" d="M14.6,22c-0.1,0-0.2,0-0.2-0.1L13,21.2l-1.3,0.7c-0.2,0.1-0.4,0.1-0.5,0c-0.2-0.1-0.2-0.3-0.2-0.5l0.3-1.5
			l-1.1-1.1C10,18.6,10,18.4,10,18.3c0.1-0.2,0.2-0.3,0.4-0.3l1.5-0.2l0.7-1.4c0.1-0.2,0.3-0.3,0.4-0.3c0.2,0,0.4,0.1,0.4,0.3
			l0.7,1.4l1.5,0.2c0.2,0,0.3,0.2,0.4,0.3c0.1,0.2,0,0.4-0.1,0.5l-1.1,1.1l0.3,1.5c0,0.2,0,0.4-0.2,0.5C14.8,22,14.7,22,14.6,22z"/>
	</g>
	<path class="st3" d="M39,54H25c-1.7,0-3-1.3-3-3v0c0-1.7,1.3-3,3-3h14c1.7,0,3,1.3,3,3v0C42,52.7,40.7,54,39,54z"/>
	<path class="st7" d="M39,53H25c-1.7,0-3-1.3-3-3v0c0-1.7,1.3-3,3-3h14c1.7,0,3,1.3,3,3v0C42,51.7,40.7,53,39,53z"/>
	<circle class="st8" cx="32" cy="50" r="1"/>
	<circle class="st8" cx="36" cy="50" r="1"/>
	<circle class="st8" cx="28" cy="50" r="1"/>
	<path class="st4" d="M9,27L9,27c0-0.6,0.4-1,1-1h6c0.6,0,1,0.4,1,1v0c0,0.6-0.4,1-1,1h-6C9.4,28,9,27.6,9,27z"/>
	<path class="st4" d="M28,27L28,27c0-0.6,0.4-1,1-1h6c0.6,0,1,0.4,1,1v0c0,0.6-0.4,1-1,1h-6C28.4,28,28,27.6,28,27z"/>
	<path class="st4" d="M47,27L47,27c0-0.6,0.4-1,1-1h6c0.6,0,1,0.4,1,1v0c0,0.6-0.4,1-1,1h-6C47.4,28,47,27.6,47,27z"/>
</g>
</svg>
