<?xml version="1.0" encoding="utf-8"?>
<!-- Generator: Adobe Illustrator 21.0.0, SVG Export Plug-In . SVG Version: 6.00 Build 0)  -->
<svg version="1.1" id="Layer_1" xmlns="http://www.w3.org/2000/svg" xmlns:xlink="http://www.w3.org/1999/xlink" x="0px" y="0px"
	 viewBox="0 0 64 60" style="enable-background:new 0 0 64 60;" xml:space="preserve">
<style type="text/css">
	.st0{fill:#CAD1D8;}
	.st1{fill:#9BA7AF;}
	.st2{fill:#FFFFFF;}
	.st3{fill:#E2E5E7;}
	.st4{fill:#595A66;}
	.st5{fill:#ABE1FA;}
	.st6{fill:#6F707E;}
	.st7{fill:#3BB54A;}
	.st8{fill:#0E9347;}
	.st9{fill:#517CBE;}
	.st10{fill:#65CCEF;}
	.st11{fill:#EE2C39;}
	.st12{fill:#CC202C;}
	.st13{fill:#F16351;}
	.st14{fill:#DDDFE1;}
	.st15{fill:#89C763;}
	.st16{fill:#3689C9;}
	.st17{fill:#1B6FAB;}
	.st18{fill:#4C9FD7;}
	.st19{fill:#FDBA4D;}
	.st20{fill:#F19F36;}
	.st21{fill:#F19F35;}
	.st22{fill:#FFFFFF;stroke:#595A66;stroke-width:2;stroke-miterlimit:10;}
	.st23{fill:#1A70AC;}
	.st24{fill:#35363E;}
</style>
<g>
	<path class="st0" d="M0,57V3c0-1.7,1.3-3,3-3h58c1.7,0,3,1.3,3,3v54c0,1.7-1.3,3-3,3H3C1.3,60,0,58.7,0,57z"/>
	<circle class="st1" cx="3" cy="4" r="1"/>
	<circle class="st1" cx="7" cy="4" r="1"/>
	<circle class="st1" cx="11" cy="4" r="1"/>
	<path class="st2" d="M3,8h58c0.6,0,1,0.4,1,1v48c0,0.6-0.4,1-1,1H3c-0.6,0-1-0.4-1-1V9C2,8.4,2.4,8,3,8z"/>
	<path class="st3" d="M61,5H15c-0.6,0-1-0.4-1-1v0c0-0.6,0.4-1,1-1h46c0.6,0,1,0.4,1,1v0C62,4.6,61.6,5,61,5z"/>
	<path class="st0" d="M55,43h-8c-0.6,0-1-0.4-1-1v0c0-0.6,0.4-1,1-1h8c0.6,0,1,0.4,1,1v0C56,42.6,55.6,43,55,43z"/>
	<path class="st0" d="M56,35H46c-0.6,0-1-0.4-1-1v0c0-0.6,0.4-1,1-1h10c0.6,0,1,0.4,1,1l0,0C57,34.6,56.6,35,56,35z"/>
	<path class="st0" d="M54,39h-6c-0.6,0-1-0.4-1-1v0c0-0.6,0.4-1,1-1h6c0.6,0,1,0.4,1,1l0,0C55,38.6,54.6,39,54,39z"/>
	<g>
		<path class="st3" d="M54,51h-6c-1.1,0-2-0.9-2-2v0c0-1.1,0.9-2,2-2h6c1.1,0,2,0.9,2,2v0C56,50.1,55.1,51,54,51z"/>
		<path class="st7" d="M54,50h-6c-1.1,0-2-0.9-2-2v0c0-1.1,0.9-2,2-2h6c1.1,0,2,0.9,2,2v0C56,49.1,55.1,50,54,50z"/>
		<circle class="st8" cx="51" cy="48" r="1"/>
	</g>
	<g>
		<g>
			<g>
				<g>
					<path class="st19" d="M46,29.5c-0.3,0-0.5-0.2-0.5-0.5V19c0-0.3,0.2-0.5,0.5-0.5h10c0.3,0,0.5,0.2,0.5,0.5v10
						c0,0.3-0.2,0.5-0.5,0.5H46z"/>
				</g>
				<path class="st20" d="M56,18H46c-0.6,0-1,0.4-1,1v10c0,0.6,0.4,1,1,1h10c0.6,0,1-0.4,1-1V19C57,18.4,56.6,18,56,18z M56,29H46
					V19h10V29z"/>
			</g>
		</g>
	</g>
	<g>
		<path class="st2" d="M52.6,27c-0.1,0-0.2,0-0.2-0.1L51,26.2l-1.3,0.7c-0.2,0.1-0.4,0.1-0.5,0c-0.2-0.1-0.2-0.3-0.2-0.5l0.3-1.5
			l-1.1-1.1C48,23.6,48,23.4,48,23.3c0.1-0.2,0.2-0.3,0.4-0.3l1.5-0.2l0.7-1.4c0.1-0.2,0.3-0.3,0.4-0.3c0.2,0,0.4,0.1,0.4,0.3
			l0.7,1.4l1.5,0.2c0.2,0,0.3,0.2,0.4,0.3c0.1,0.2,0,0.4-0.1,0.5l-1.1,1.1l0.3,1.5c0,0.2,0,0.4-0.2,0.5C52.8,27,52.7,27,52.6,27z"/>
	</g>
	<path class="st0" d="M17,43H9c-0.6,0-1-0.4-1-1v0c0-0.6,0.4-1,1-1h8c0.6,0,1,0.4,1,1v0C18,42.6,17.6,43,17,43z"/>
	<path class="st0" d="M18,35L8,35c-0.6,0-1-0.4-1-1v0c0-0.6,0.4-1,1-1l10,0c0.6,0,1,0.4,1,1v0C19,34.6,18.6,35,18,35z"/>
	<path class="st0" d="M16,39l-6,0c-0.6,0-1-0.4-1-1v0c0-0.6,0.4-1,1-1l6,0c0.6,0,1,0.4,1,1v0C17,38.6,16.6,39,16,39z"/>
	<g>
		<path class="st3" d="M16,51h-6c-1.1,0-2-0.9-2-2v0c0-1.1,0.9-2,2-2h6c1.1,0,2,0.9,2,2v0C18,50.1,17.1,51,16,51z"/>
		<path class="st7" d="M16,50h-6c-1.1,0-2-0.9-2-2v0c0-1.1,0.9-2,2-2h6c1.1,0,2,0.9,2,2v0C18,49.1,17.1,50,16,50z"/>
		<circle class="st8" cx="13" cy="48" r="1"/>
	</g>
	<g>
		<g>
			<g>
				<g>
					<path class="st19" d="M8,29.5c-0.3,0-0.5-0.2-0.5-0.5V19c0-0.3,0.2-0.5,0.5-0.5h10c0.3,0,0.5,0.2,0.5,0.5v10
						c0,0.3-0.2,0.5-0.5,0.5H8z"/>
				</g>
				<path class="st20" d="M18,18H8c-0.6,0-1,0.4-1,1v10c0,0.6,0.4,1,1,1h10c0.6,0,1-0.4,1-1V19C19,18.4,18.6,18,18,18z M18,29H8V19
					h10V29z"/>
			</g>
		</g>
	</g>
	<g>
		<path class="st2" d="M14.6,27c-0.1,0-0.2,0-0.2-0.1L13,26.2l-1.3,0.7c-0.2,0.1-0.4,0.1-0.5,0c-0.2-0.1-0.2-0.3-0.2-0.5l0.3-1.5
			l-1.1-1.1C10,23.6,10,23.4,10,23.3c0.1-0.2,0.2-0.3,0.4-0.3l1.5-0.2l0.7-1.4c0.1-0.2,0.3-0.3,0.4-0.3c0.2,0,0.4,0.1,0.4,0.3
			l0.7,1.4l1.5,0.2c0.2,0,0.3,0.2,0.4,0.3c0.1,0.2,0,0.4-0.1,0.5l-1.1,1.1l0.3,1.5c0,0.2,0,0.4-0.2,0.5C14.8,27,14.7,27,14.6,27z"/>
	</g>
	<path class="st3" d="M40,55H24c-1.1,0-2-0.9-2-2V14c0-1.1,0.9-2,2-2h16c1.1,0,2,0.9,2,2v39C42,54.1,41.1,55,40,55z"/>
	<path class="st1" d="M36,43h-8c-0.6,0-1-0.4-1-1l0,0c0-0.6,0.4-1,1-1h8c0.6,0,1,0.4,1,1l0,0C37,42.6,36.6,43,36,43z"/>
	<path class="st1" d="M37,35H27c-0.6,0-1-0.4-1-1l0,0c0-0.6,0.4-1,1-1h10c0.6,0,1,0.4,1,1v0C38,34.6,37.6,35,37,35z"/>
	<path class="st1" d="M35,39h-6c-0.6,0-1-0.4-1-1l0,0c0-0.6,0.4-1,1-1h6c0.6,0,1,0.4,1,1l0,0C36,38.6,35.6,39,35,39z"/>
	<g>
		<path class="st0" d="M35,52h-6c-1.1,0-2-0.9-2-2v0c0-1.1,0.9-2,2-2h6c1.1,0,2,0.9,2,2v0C37,51.1,36.1,52,35,52z"/>
		<path class="st7" d="M35,51h-6c-1.1,0-2-0.9-2-2v0c0-1.1,0.9-2,2-2h6c1.1,0,2,0.9,2,2v0C37,50.1,36.1,51,35,51z"/>
		<circle class="st8" cx="32" cy="49" r="1"/>
	</g>
	<g>
		<g>
			<g>
				<g>
					<path class="st19" d="M27,27.5c-0.3,0-0.5-0.2-0.5-0.5V17c0-0.3,0.2-0.5,0.5-0.5h10c0.3,0,0.5,0.2,0.5,0.5v10
						c0,0.3-0.2,0.5-0.5,0.5H27z"/>
				</g>
				<path class="st20" d="M37,16H27c-0.6,0-1,0.4-1,1v10c0,0.6,0.4,1,1,1h10c0.6,0,1-0.4,1-1V17C38,16.4,37.6,16,37,16z M37,27H27
					V17h10V27z"/>
			</g>
		</g>
	</g>
	<g>
		<path class="st2" d="M33.6,25c-0.1,0-0.2,0-0.2-0.1L32,24.2l-1.3,0.7c-0.2,0.1-0.4,0.1-0.5,0c-0.2-0.1-0.2-0.3-0.2-0.5l0.3-1.5
			l-1.1-1.1C29,21.6,29,21.4,29,21.3c0.1-0.2,0.2-0.3,0.4-0.3l1.5-0.2l0.7-1.4c0.1-0.2,0.3-0.3,0.4-0.3c0.2,0,0.4,0.1,0.4,0.3
			l0.7,1.4l1.5,0.2c0.2,0,0.3,0.2,0.4,0.3c0.1,0.2,0,0.4-0.1,0.5l-1.1,1.1l0.3,1.5c0,0.2,0,0.4-0.2,0.5C33.8,25,33.7,25,33.6,25z"/>
	</g>
</g>
</svg>
