<?xml version="1.0" encoding="utf-8"?>
<!-- Generator: Adobe Illustrator 21.0.0, SVG Export Plug-In . SVG Version: 6.00 Build 0)  -->
<svg version="1.1" xmlns="http://www.w3.org/2000/svg" xmlns:xlink="http://www.w3.org/1999/xlink" x="0px" y="0px"
	 viewBox="0 0 64 60" style="enable-background:new 0 0 64 60;" xml:space="preserve">
<style type="text/css">
	.st0{fill:#CAD1D8;}
	.st1{fill:#FFFFFF;}
	.st2{fill:#595A66;}
	.st3{fill:#9BA7AF;}
	.st4{fill:#E2E5E7;}
	.st5{fill:#ABE1FA;}
	.st6{fill:#FDBA4D;}
	.st7{fill:#F19F35;}
	.st8{fill:#3BB54A;}
	.st9{fill:#0E9347;}
	.st10{fill:#E6E7E8;}
	.st11{fill:#BCBEC0;}
	.st12{fill:#D1D3D4;}
	.st13{fill:#A7A9AC;}
	.st14{fill:#DCDDDE;}
	.st15{fill:#B1B3B6;}
	.st16{fill:#C7C8CA;}
	.st17{fill:#9D9FA2;}
	.st18{fill:#3689C9;}
	.st19{fill:#EE2C39;}
	.st20{fill:#FFFFFF;stroke:#595A66;stroke-width:2;stroke-miterlimit:10;}
	.st21{fill:#F19F36;}
	.st22{fill:#D4D5D6;}
	.st23{fill:#35363E;}
	.st24{fill:#CC202C;}
	.st25{fill:#1A70AC;}
	.st26{fill:#BD6428;}
	.st27{fill:#A35723;}
	.st28{fill:#A35623;}
	.st29{fill:#DDDFE1;}
	.st30{fill:#1B6FAB;}
	.st31{fill:#165D91;}
	.st32{fill:#699DC4;}
	.st33{fill:#6F707E;}
	.st34{fill:#4C9FD7;}
	.st35{fill:#748B9E;}
	.st36{fill:#78B6E4;}
</style>
<g id="Layer_62">
</g>
<g id="Layer_60">
</g>
<g id="Layer_59">
</g>
<g id="Layer_58">
</g>
<g id="Layer_57">
</g>
<g id="Layer_56">
</g>
<g id="Layer_55">
</g>
<g id="Layer_54">
</g>
<g id="Layer_53">
</g>
<g id="Layer_52">
</g>
<g id="Layer_51">
</g>
<g id="Layer_50">
</g>
<g id="Layer_49">
</g>
<g id="Layer_48">
</g>
<g id="Layer_47">
</g>
<g id="Layer_46">
</g>
<g id="Layer_45">
</g>
<g id="Layer_44">
</g>
<g id="Layer_43">
</g>
<g id="Layer_42">
</g>
<g id="Layer_41">
</g>
<g id="Layer_40">
</g>
<g id="Layer_39">
</g>
<g id="Layer_38">
</g>
<g id="Layer_37">
</g>
<g id="Layer_36">
</g>
<g id="Layer_35">
</g>
<g id="Layer_34">
</g>
<g id="Layer_33">
</g>
<g id="Layer_32">
</g>
<g id="Layer_31">
</g>
<g id="Layer_30">
</g>
<g id="Layer_29">
</g>
<g id="Layer_28">
</g>
<g id="Layer_27">
</g>
<g id="Layer_26">
</g>
<g id="Layer_25">
</g>
<g id="Layer_24">
</g>
<g id="Layer_23">
</g>
<g id="Layer_22">
</g>
<g id="Layer_21">
	<g>
		<path class="st0" d="M0,57V3c0-1.7,1.3-3,3-3h58c1.7,0,3,1.3,3,3v54c0,1.7-1.3,3-3,3H3C1.3,60,0,58.7,0,57z"/>
		<circle class="st3" cx="3" cy="4" r="1"/>
		<circle class="st3" cx="7" cy="4" r="1"/>
		<circle class="st3" cx="11" cy="4" r="1"/>
		<path class="st1" d="M3,8h58c0.6,0,1,0.4,1,1v48c0,0.6-0.4,1-1,1H3c-0.6,0-1-0.4-1-1V9C2,8.4,2.4,8,3,8z"/>
		<path class="st4" d="M61,5H15c-0.6,0-1-0.4-1-1v0c0-0.6,0.4-1,1-1h46c0.6,0,1,0.4,1,1v0C62,4.6,61.6,5,61,5z"/>
		<path class="st0" d="M55,34H36c-0.6,0-1-0.4-1-1l0,0c0-0.6,0.4-1,1-1h19c0.6,0,1,0.4,1,1l0,0C56,33.6,55.6,34,55,34z"/>
		<path class="st0" d="M58,26H36c-0.6,0-1-0.4-1-1v0c0-0.6,0.4-1,1-1h22c0.6,0,1,0.4,1,1v0C59,25.6,58.6,26,58,26z"/>
		<path class="st0" d="M51,30H36c-0.6,0-1-0.4-1-1v0c0-0.6,0.4-1,1-1h15c0.6,0,1,0.4,1,1v0C52,29.6,51.6,30,51,30z"/>
		<path class="st0" d="M46,42H36c-0.6,0-1-0.4-1-1l0,0c0-0.6,0.4-1,1-1h10c0.6,0,1,0.4,1,1l0,0C47,41.6,46.6,42,46,42z"/>
		<path class="st0" d="M51,22H36c-0.6,0-1-0.4-1-1v0c0-0.6,0.4-1,1-1h15c0.6,0,1,0.4,1,1v0C52,21.6,51.6,22,51,22z"/>
		<path class="st0" d="M54,38H36c-0.6,0-1-0.4-1-1l0,0c0-0.6,0.4-1,1-1h18c0.6,0,1,0.4,1,1l0,0C55,37.6,54.6,38,54,38z"/>
		<path class="st2" d="M35,15L35,15c0-0.6,0.4-1,1-1l15,0c0.6,0,1,0.4,1,1v0c0,0.6-0.4,1-1,1l-15,0C35.4,16,35,15.6,35,15z"/>
		<g>
			<g>
				<g>
					<path class="st26" d="M7,33.5c-0.3,0-0.5-0.2-0.5-0.5V15c0-0.3,0.2-0.5,0.5-0.5h22c0.3,0,0.5,0.2,0.5,0.5v18
						c0,0.3-0.2,0.5-0.5,0.5H7z"/>
				</g>
				<path class="st27" d="M29,14H7c-0.6,0-1,0.4-1,1v18c0,0.6,0.4,1,1,1h22c0.6,0,1-0.4,1-1V15C30,14.4,29.6,14,29,14z M29,33H7V15
					h22V33z"/>
			</g>
		</g>
		<g>
			<g>
				<g>
					<path class="st26" d="M7,41.5c-0.3,0-0.5-0.2-0.5-0.5v-4c0-0.3,0.2-0.5,0.5-0.5h4c0.3,0,0.5,0.2,0.5,0.5v4
						c0,0.3-0.2,0.5-0.5,0.5H7z"/>
				</g>
				<path class="st27" d="M11,36H7c-0.6,0-1,0.4-1,1v4c0,0.6,0.4,1,1,1h4c0.6,0,1-0.4,1-1v-4C12,36.4,11.6,36,11,36z M11,41H7v-4h4
					V41z"/>
			</g>
		</g>
		<g>
			<g>
				<g>
					<path class="st26" d="M16,41.5c-0.3,0-0.5-0.2-0.5-0.5v-4c0-0.3,0.2-0.5,0.5-0.5h4c0.3,0,0.5,0.2,0.5,0.5v4
						c0,0.3-0.2,0.5-0.5,0.5H16z"/>
				</g>
				<path class="st27" d="M20,36h-4c-0.6,0-1,0.4-1,1v4c0,0.6,0.4,1,1,1h4c0.6,0,1-0.4,1-1v-4C21,36.4,20.6,36,20,36z M20,41h-4v-4
					h4V41z"/>
			</g>
		</g>
		<g>
			<g>
				<g>
					<path class="st26" d="M25,41.5c-0.3,0-0.5-0.2-0.5-0.5v-4c0-0.3,0.2-0.5,0.5-0.5h4c0.3,0,0.5,0.2,0.5,0.5v4
						c0,0.3-0.2,0.5-0.5,0.5H25z"/>
				</g>
				<path class="st27" d="M29,36h-4c-0.6,0-1,0.4-1,1v4c0,0.6,0.4,1,1,1h4c0.6,0,1-0.4,1-1v-4C30,36.4,29.6,36,29,36z M29,41h-4v-4
					h4V41z"/>
			</g>
		</g>
		<g>
			<g>
				<circle class="st27" cx="16" cy="29" r="1"/>
			</g>
			<g>
				<circle class="st27" cx="20" cy="29" r="1"/>
			</g>
			<path class="st27" d="M23,20h-2c-0.6,0-1,0.4-1,1v1h-5c-0.5,0-1,0.5-1,1l0,3c0,0.5,0.5,1,1,1h6c0.5,0,1-0.5,1-1v-4h1
				c0.6,0,1-0.4,1-1S23.6,20,23,20z"/>
		</g>
		<g>
			<g>
				<circle class="st1" cx="16" cy="28" r="1"/>
			</g>
			<g>
				<circle class="st1" cx="20" cy="28" r="1"/>
			</g>
			<path class="st1" d="M23,19h-2c-0.6,0-1,0.4-1,1v1h-5c-0.5,0-1,0.5-1,1l0,3c0,0.5,0.5,1,1,1h6c0.5,0,1-0.5,1-1v-4h1
				c0.6,0,1-0.4,1-1S23.6,19,23,19z"/>
			<g>
				<path class="st29" d="M23,20c-0.6,0-1,0.4-1,1h1c0.6,0,1-0.4,1-1H23z"/>
				<path class="st29" d="M21,23v2h-7c0,0.6,0.4,1,1,1h6c0.6,0,1-0.4,1-1v-2v-1C21.4,22,21,22.4,21,23z"/>
			</g>
		</g>
		<path class="st4" d="M52,54H38c-1.7,0-3-1.3-3-3v0c0-1.7,1.3-3,3-3h14c1.7,0,3,1.3,3,3v0C55,52.7,53.7,54,52,54z"/>
		<path class="st8" d="M52,53H38c-1.7,0-3-1.3-3-3v0c0-1.7,1.3-3,3-3h14c1.7,0,3,1.3,3,3v0C55,51.7,53.7,53,52,53z"/>
		<circle class="st9" cx="45" cy="50" r="1"/>
		<circle class="st9" cx="49" cy="50" r="1"/>
		<circle class="st9" cx="41" cy="50" r="1"/>
		<circle class="st1" cx="18" cy="39" r="1"/>
		<circle class="st1" cx="9" cy="39" r="1"/>
		<circle class="st1" cx="27" cy="39" r="1"/>
	</g>
</g>
<g id="Layer_20">
</g>
<g id="Layer_19">
</g>
<g id="Layer_18">
</g>
<g id="Layer_17">
</g>
<g id="Layer_16">
</g>
<g id="Layer_15">
</g>
<g id="Layer_14">
</g>
<g id="Layer_13">
</g>
<g id="Layer_12">
</g>
<g id="Layer_11">
</g>
<g id="Layer_10">
</g>
<g id="Layer_9">
</g>
<g id="Layer_8">
</g>
<g id="Layer_7">
</g>
<g id="Layer_6">
</g>
<g id="Layer_5">
</g>
<g id="Layer_4">
</g>
<g id="Layer_3">
</g>
<g id="Layer_2">
</g>
</svg>
