<?xml version="1.0" encoding="utf-8"?>
<!-- Generator: Adobe Illustrator 21.0.0, SVG Export Plug-In . SVG Version: 6.00 Build 0)  -->
<svg version="1.1" xmlns="http://www.w3.org/2000/svg" xmlns:xlink="http://www.w3.org/1999/xlink" x="0px" y="0px"
	 viewBox="0 0 64 60" style="enable-background:new 0 0 64 60;" xml:space="preserve">
<style type="text/css">
	.st0{fill:#CAD1D8;}
	.st1{fill:#FFFFFF;}
	.st2{fill:#595A66;}
	.st3{fill:#9BA7AF;}
	.st4{fill:#E2E5E7;}
	.st5{fill:#ABE1FA;}
	.st6{fill:#FDBA4D;}
	.st7{fill:#F19F35;}
	.st8{fill:#3BB54A;}
	.st9{fill:#0E9347;}
	.st10{fill:#E6E7E8;}
	.st11{fill:#BCBEC0;}
	.st12{fill:#D1D3D4;}
	.st13{fill:#A7A9AC;}
	.st14{fill:#DCDDDE;}
	.st15{fill:#B1B3B6;}
	.st16{fill:#C7C8CA;}
	.st17{fill:#9D9FA2;}
	.st18{fill:#3689C9;}
	.st19{fill:#EE2C39;}
	.st20{fill:#FFFFFF;stroke:#595A66;stroke-width:2;stroke-miterlimit:10;}
	.st21{fill:#F19F36;}
	.st22{fill:#D4D5D6;}
	.st23{fill:#35363E;}
	.st24{fill:#CC202C;}
	.st25{fill:#1A70AC;}
	.st26{fill:#BD6428;}
	.st27{fill:#A35723;}
	.st28{fill:#A35623;}
	.st29{fill:#DDDFE1;}
	.st30{fill:#1B6FAB;}
	.st31{fill:#165D91;}
	.st32{fill:#699DC4;}
	.st33{fill:#6F707E;}
	.st34{fill:#4C9FD7;}
	.st35{fill:#748B9E;}
	.st36{fill:#78B6E4;}
</style>
<g id="Layer_62">
</g>
<g id="Layer_60">
</g>
<g id="Layer_59">
</g>
<g id="Layer_58">
</g>
<g id="Layer_57">
</g>
<g id="Layer_56">
</g>
<g id="Layer_55">
</g>
<g id="Layer_54">
</g>
<g id="Layer_53">
</g>
<g id="Layer_52">
</g>
<g id="Layer_51">
</g>
<g id="Layer_50">
</g>
<g id="Layer_49">
</g>
<g id="Layer_48">
</g>
<g id="Layer_47">
</g>
<g id="Layer_46">
</g>
<g id="Layer_45">
</g>
<g id="Layer_44">
</g>
<g id="Layer_43">
</g>
<g id="Layer_42">
</g>
<g id="Layer_41">
	<g>
		<path class="st0" d="M0,57V3c0-1.7,1.3-3,3-3h58c1.7,0,3,1.3,3,3v54c0,1.7-1.3,3-3,3H3C1.3,60,0,58.7,0,57z"/>
		<circle class="st3" cx="3" cy="4" r="1"/>
		<circle class="st3" cx="7" cy="4" r="1"/>
		<circle class="st3" cx="11" cy="4" r="1"/>
		<path class="st1" d="M3,8h58c0.6,0,1,0.4,1,1v48c0,0.6-0.4,1-1,1H3c-0.6,0-1-0.4-1-1V9C2,8.4,2.4,8,3,8z"/>
		<path class="st4" d="M61,5H15c-0.6,0-1-0.4-1-1v0c0-0.6,0.4-1,1-1h46c0.6,0,1,0.4,1,1v0C62,4.6,61.6,5,61,5z"/>
		<path class="st0" d="M39,21H7c-0.6,0-1-0.4-1-1v0c0-0.6,0.4-1,1-1h32c0.6,0,1,0.4,1,1v0C40,20.6,39.6,21,39,21z"/>
		<path class="st0" d="M39,41H7c-0.6,0-1-0.4-1-1l0,0c0-0.6,0.4-1,1-1h32c0.6,0,1,0.4,1,1l0,0C40,40.6,39.6,41,39,41z"/>
		<path class="st0" d="M34,49H7c-0.6,0-1-0.4-1-1l0,0c0-0.6,0.4-1,1-1h27c0.6,0,1,0.4,1,1l0,0C35,48.6,34.6,49,34,49z"/>
		<path class="st0" d="M29,29H7c-0.6,0-1-0.4-1-1v0c0-0.6,0.4-1,1-1h22c0.6,0,1,0.4,1,1v0C30,28.6,29.6,29,29,29z"/>
		<path class="st0" d="M24,25H7c-0.6,0-1-0.4-1-1v0c0-0.6,0.4-1,1-1h17c0.6,0,1,0.4,1,1v0C25,24.6,24.6,25,24,25z"/>
		<path class="st2" d="M6,14L6,14c0-0.6,0.4-1,1-1l12,0c0.6,0,1,0.4,1,1v0c0,0.6-0.4,1-1,1L7,15C6.4,15,6,14.6,6,14z"/>
		<path class="st2" d="M22,14L22,14c0-0.6,0.4-1,1-1l6,0c0.6,0,1,0.4,1,1v0c0,0.6-0.4,1-1,1l-6,0C22.4,15,22,14.6,22,14z"/>
		<path class="st0" d="M34,44L34,44c0-0.6,0.4-1,1-1h3c0.6,0,1,0.4,1,1v0c0,0.6-0.4,1-1,1h-3C34.4,45,34,44.6,34,44z"/>
		<path class="st0" d="M32,28L32,28c0-0.6,0.4-1,1-1l3,0c0.6,0,1,0.4,1,1v0c0,0.6-0.4,1-1,1l-3,0C32.4,29,32,28.6,32,28z"/>
		<path class="st0" d="M27,24L27,24c0-0.6,0.4-1,1-1h8c0.6,0,1,0.4,1,1v0c0,0.6-0.4,1-1,1h-8C27.4,25,27,24.6,27,24z"/>
		<path class="st0" d="M18,37H7c-0.6,0-1-0.4-1-1l0,0c0-0.6,0.4-1,1-1h11c0.6,0,1,0.4,1,1l0,0C19,36.6,18.6,37,18,37z"/>
		<path class="st0" d="M21,36L21,36c0-0.6,0.4-1,1-1h15c0.6,0,1,0.4,1,1l0,0c0,0.6-0.4,1-1,1H22C21.4,37,21,36.6,21,36z"/>
		<path class="st0" d="M6,32L6,32c0-0.6,0.4-1,1-1l8,0c0.6,0,1,0.4,1,1v0c0,0.6-0.4,1-1,1H7C6.4,33,6,32.6,6,32z"/>
		<path class="st0" d="M18,32L18,32c0-0.6,0.4-1,1-1l8,0c0.6,0,1,0.4,1,1v0c0,0.6-0.4,1-1,1h-8C18.4,33,18,32.6,18,32z"/>
		<path class="st0" d="M6,44L6,44c0-0.6,0.4-1,1-1h14c0.6,0,1,0.4,1,1v0c0,0.6-0.4,1-1,1H7C6.4,45,6,44.6,6,44z"/>
		<path class="st0" d="M24,44L24,44c0-0.6,0.4-1,1-1h6c0.6,0,1,0.4,1,1v0c0,0.6-0.4,1-1,1h-6C24.4,45,24,44.6,24,44z"/>
		<path class="st0" d="M16,52L16,52c0-0.6,0.4-1,1-1h3c0.6,0,1,0.4,1,1v0c0,0.6-0.4,1-1,1h-3C16.4,53,16,52.6,16,52z"/>
		<path class="st0" d="M6,52L6,52c0-0.6,0.4-1,1-1h6c0.6,0,1,0.4,1,1v0c0,0.6-0.4,1-1,1H7C6.4,53,6,52.6,6,52z"/>
		<path class="st0" d="M30,32L30,32c0-0.6,0.4-1,1-1l8,0c0.6,0,1,0.4,1,1v0c0,0.6-0.4,1-1,1h-8C30.4,33,30,32.6,30,32z"/>
		<path class="st0" d="M46,14L46,14c0-0.6,0.4-1,1-1l10,0c0.6,0,1,0.4,1,1v0c0,0.6-0.4,1-1,1l-10,0C46.4,15,46,14.6,46,14z"/>
		<path class="st0" d="M46,18L46,18c0-0.6,0.4-1,1-1l8,0c0.6,0,1,0.4,1,1v0c0,0.6-0.4,1-1,1l-8,0C46.4,19,46,18.6,46,18z"/>
		<path class="st0" d="M46,26L46,26c0-0.6,0.4-1,1-1l10,0c0.6,0,1,0.4,1,1v0c0,0.6-0.4,1-1,1l-10,0C46.4,27,46,26.6,46,26z"/>
		<path class="st0" d="M46,22L46,22c0-0.6,0.4-1,1-1l10,0c0.6,0,1,0.4,1,1v0c0,0.6-0.4,1-1,1l-10,0C46.4,23,46,22.6,46,22z"/>
		<path class="st0" d="M46,30L46,30c0-0.6,0.4-1,1-1l8,0c0.6,0,1,0.4,1,1v0c0,0.6-0.4,1-1,1l-8,0C46.4,31,46,30.6,46,30z"/>
	</g>
</g>
<g id="Layer_40">
</g>
<g id="Layer_39">
</g>
<g id="Layer_38">
</g>
<g id="Layer_37">
</g>
<g id="Layer_36">
</g>
<g id="Layer_35">
</g>
<g id="Layer_34">
</g>
<g id="Layer_33">
</g>
<g id="Layer_32">
</g>
<g id="Layer_31">
</g>
<g id="Layer_30">
</g>
<g id="Layer_29">
</g>
<g id="Layer_28">
</g>
<g id="Layer_27">
</g>
<g id="Layer_26">
</g>
<g id="Layer_25">
</g>
<g id="Layer_24">
</g>
<g id="Layer_23">
</g>
<g id="Layer_22">
</g>
<g id="Layer_21">
</g>
<g id="Layer_20">
</g>
<g id="Layer_19">
</g>
<g id="Layer_18">
</g>
<g id="Layer_17">
</g>
<g id="Layer_16">
</g>
<g id="Layer_15">
</g>
<g id="Layer_14">
</g>
<g id="Layer_13">
</g>
<g id="Layer_12">
</g>
<g id="Layer_11">
</g>
<g id="Layer_10">
</g>
<g id="Layer_9">
</g>
<g id="Layer_8">
</g>
<g id="Layer_7">
</g>
<g id="Layer_6">
</g>
<g id="Layer_5">
</g>
<g id="Layer_4">
</g>
<g id="Layer_3">
</g>
<g id="Layer_2">
</g>
</svg>
