<?xml version="1.0" encoding="utf-8"?>
<!-- Generator: Adobe Illustrator 21.0.0, SVG Export Plug-In . SVG Version: 6.00 Build 0)  -->
<svg version="1.1" id="Layer_1" xmlns="http://www.w3.org/2000/svg" xmlns:xlink="http://www.w3.org/1999/xlink" x="0px" y="0px"
	 viewBox="0 0 64 60" style="enable-background:new 0 0 64 60;" xml:space="preserve">
<style type="text/css">
	.st0{fill:#CAD1D8;}
	.st1{fill:#9BA7AF;}
	.st2{fill:#FFFFFF;}
	.st3{fill:#E2E5E7;}
	.st4{fill:#595A66;}
	.st5{fill:#ABE1FA;}
	.st6{fill:#6F707E;}
	.st7{fill:#3BB54A;}
	.st8{fill:#0E9347;}
	.st9{fill:#517CBE;}
	.st10{fill:#65CCEF;}
	.st11{fill:#EE2C39;}
	.st12{fill:#CC202C;}
	.st13{fill:#F16351;}
	.st14{fill:#DDDFE1;}
	.st15{fill:#89C763;}
	.st16{fill:#3689C9;}
	.st17{fill:#1B6FAB;}
	.st18{fill:#4C9FD7;}
	.st19{fill:#FDBA4D;}
	.st20{fill:#F19F36;}
	.st21{fill:#F19F35;}
	.st22{fill:#FFFFFF;stroke:#595A66;stroke-width:2;stroke-miterlimit:10;}
	.st23{fill:#1A70AC;}
	.st24{fill:#35363E;}
</style>
<g>
	<g>
		<path class="st0" d="M0,57V3c0-1.7,1.3-3,3-3h58c1.7,0,3,1.3,3,3v54c0,1.7-1.3,3-3,3H3C1.3,60,0,58.7,0,57z"/>
	</g>
	<g>
		<path class="st2" d="M3,8h58c0.6,0,1,0.4,1,1v48c0,0.6-0.4,1-1,1H3c-0.6,0-1-0.4-1-1V9C2,8.4,2.4,8,3,8z"/>
	</g>
	<g>
		<circle class="st1" cx="3" cy="4" r="1"/>
	</g>
	<g>
		<circle class="st1" cx="7" cy="4" r="1"/>
	</g>
	<g>
		<circle class="st1" cx="11" cy="4" r="1"/>
	</g>
	<g>
		<path class="st3" d="M61,5H15c-0.6,0-1-0.4-1-1v0c0-0.6,0.4-1,1-1h46c0.6,0,1,0.4,1,1v0C62,4.6,61.6,5,61,5z"/>
	</g>
	<g>
		<g>
			<path class="st11" d="M5.5,42.5V15c0-0.8,0.7-1.5,1.5-1.5h34c0.8,0,1.5,0.7,1.5,1.5v27.5H5.5z"/>
		</g>
		<path class="st12" d="M41,13H7c-1.1,0-2,0.9-2,2v28h38V15C43,13.9,42.1,13,41,13z M42,42H6V15c0-0.6,0.4-1,1-1h34c0.6,0,1,0.4,1,1
			V42z"/>
	</g>
	<g>
		<path class="st12" d="M29.3,27.9l-7.5-3.8c-0.4-0.2-0.8-0.2-1.2,0.1c-0.4,0.2-0.6,0.6-0.6,1.1v7.5c0,0.4,0.2,0.8,0.6,1.1
			c0.2,0.1,0.4,0.2,0.7,0.2c0.2,0,0.4,0,0.6-0.1l7.5-3.8c0.4-0.2,0.7-0.6,0.7-1.1S29.7,28.1,29.3,27.9z"/>
	</g>
	<g>
		<path class="st2" d="M29.3,26.9l-7.5-3.8c-0.4-0.2-0.8-0.2-1.2,0.1c-0.4,0.2-0.6,0.6-0.6,1.1v7.5c0,0.4,0.2,0.8,0.6,1.1
			c0.2,0.1,0.4,0.2,0.7,0.2c0.2,0,0.4,0,0.6-0.1l7.5-3.8c0.4-0.2,0.7-0.6,0.7-1.1S29.7,27.1,29.3,26.9z"/>
	</g>
	<g>
		<path class="st14" d="M29.3,28.1l-7.5,3.8C21.6,32,21.4,32,21.2,32c-0.2,0-0.5-0.1-0.7-0.2c-0.4-0.2-0.6-0.6-0.6-1.1v1
			c0,0.4,0.2,0.8,0.6,1.1c0.2,0.1,0.4,0.2,0.7,0.2c0.2,0,0.4,0,0.6-0.1l7.5-3.8c0.4-0.2,0.7-0.6,0.7-1.1c0-0.2,0-0.3-0.1-0.5
			C29.8,27.8,29.6,28,29.3,28.1z"/>
	</g>
	<g>
		<path class="st3" d="M41,53H7c-1.1,0-2-0.9-2-2v-8h38v8C43,52.1,42.1,53,41,53z"/>
	</g>
	<g>
		<path class="st4" d="M38,49H10c-0.6,0-1-0.4-1-1l0,0c0-0.6,0.4-1,1-1h28c0.6,0,1,0.4,1,1l0,0C39,48.6,38.6,49,38,49z"/>
	</g>
	<g>
		<circle class="st2" cx="22" cy="48" r="2"/>
		<path class="st4" d="M22,51c-1.7,0-3-1.3-3-3s1.3-3,3-3s3,1.3,3,3S23.7,51,22,51z M22,47c-0.6,0-1,0.4-1,1s0.4,1,1,1s1-0.4,1-1
			S22.6,47,22,47z"/>
	</g>
	<g>
		<g>
			<g>
				<path class="st11" d="M46,22.5c-0.3,0-0.5-0.2-0.5-0.5v-8c0-0.3,0.2-0.5,0.5-0.5h12c0.3,0,0.5,0.2,0.5,0.5v8
					c0,0.3-0.2,0.5-0.5,0.5H46z"/>
			</g>
			<path class="st12" d="M58,13H46c-0.6,0-1,0.4-1,1v8c0,0.6,0.4,1,1,1h12c0.6,0,1-0.4,1-1v-8C59,13.4,58.6,13,58,13z M58,22H46v-8
				h12V22z"/>
		</g>
		<g>
			<path class="st12" d="M53.7,18.6l-3-1.5c-0.2-0.1-0.3-0.1-0.5,0c-0.1,0.1-0.2,0.3-0.2,0.4v3c0,0.2,0.1,0.3,0.2,0.4
				c0.1,0,0.2,0.1,0.3,0.1c0.1,0,0.2,0,0.2-0.1l3-1.5c0.2-0.1,0.3-0.3,0.3-0.4S53.9,18.6,53.7,18.6z"/>
		</g>
		<g>
			<path class="st2" d="M53.7,17.6l-3-1.5c-0.2-0.1-0.3-0.1-0.5,0c-0.1,0.1-0.2,0.3-0.2,0.4v3c0,0.2,0.1,0.3,0.2,0.4
				c0.1,0,0.2,0.1,0.3,0.1c0.1,0,0.2,0,0.2-0.1l3-1.5c0.2-0.1,0.3-0.3,0.3-0.4S53.9,17.6,53.7,17.6z"/>
		</g>
	</g>
	<g>
		<g>
			<g>
				<path class="st11" d="M46,34.5c-0.3,0-0.5-0.2-0.5-0.5v-8c0-0.3,0.2-0.5,0.5-0.5h12c0.3,0,0.5,0.2,0.5,0.5v8
					c0,0.3-0.2,0.5-0.5,0.5H46z"/>
			</g>
			<path class="st12" d="M58,25H46c-0.6,0-1,0.4-1,1v8c0,0.6,0.4,1,1,1h12c0.6,0,1-0.4,1-1v-8C59,25.4,58.6,25,58,25z M58,34H46v-8
				h12V34z"/>
		</g>
		<g>
			<path class="st12" d="M53.7,30.6l-3-1.5c-0.2-0.1-0.3-0.1-0.5,0c-0.1,0.1-0.2,0.3-0.2,0.4v3c0,0.2,0.1,0.3,0.2,0.4
				c0.1,0,0.2,0.1,0.3,0.1c0.1,0,0.2,0,0.2-0.1l3-1.5c0.2-0.1,0.3-0.3,0.3-0.4S53.9,30.6,53.7,30.6z"/>
		</g>
		<g>
			<path class="st2" d="M53.7,29.6l-3-1.5c-0.2-0.1-0.3-0.1-0.5,0c-0.1,0.1-0.2,0.3-0.2,0.4v3c0,0.2,0.1,0.3,0.2,0.4
				c0.1,0,0.2,0.1,0.3,0.1c0.1,0,0.2,0,0.2-0.1l3-1.5c0.2-0.1,0.3-0.3,0.3-0.4S53.9,29.6,53.7,29.6z"/>
		</g>
	</g>
	<g>
		<g>
			<g>
				<path class="st11" d="M46,46.5c-0.3,0-0.5-0.2-0.5-0.5v-8c0-0.3,0.2-0.5,0.5-0.5h12c0.3,0,0.5,0.2,0.5,0.5v8
					c0,0.3-0.2,0.5-0.5,0.5H46z"/>
			</g>
			<path class="st12" d="M58,37H46c-0.6,0-1,0.4-1,1v8c0,0.6,0.4,1,1,1h12c0.6,0,1-0.4,1-1v-8C59,37.4,58.6,37,58,37z M58,46H46v-8
				h12V46z"/>
		</g>
		<g>
			<path class="st12" d="M53.7,42.6l-3-1.5c-0.2-0.1-0.3-0.1-0.5,0c-0.1,0.1-0.2,0.3-0.2,0.4v3c0,0.2,0.1,0.3,0.2,0.4
				c0.1,0,0.2,0.1,0.3,0.1c0.1,0,0.2,0,0.2-0.1l3-1.5c0.2-0.1,0.3-0.3,0.3-0.4S53.9,42.6,53.7,42.6z"/>
		</g>
		<g>
			<path class="st2" d="M53.7,41.6l-3-1.5c-0.2-0.1-0.3-0.1-0.5,0c-0.1,0.1-0.2,0.3-0.2,0.4v3c0,0.2,0.1,0.3,0.2,0.4
				c0.1,0,0.2,0.1,0.3,0.1c0.1,0,0.2,0,0.2-0.1l3-1.5c0.2-0.1,0.3-0.3,0.3-0.4S53.9,41.6,53.7,41.6z"/>
		</g>
	</g>
</g>
</svg>
