<?xml version="1.0" encoding="utf-8"?>
<!-- Generator: Adobe Illustrator 21.0.0, SVG Export Plug-In . SVG Version: 6.00 Build 0)  -->
<svg version="1.1" xmlns="http://www.w3.org/2000/svg" xmlns:xlink="http://www.w3.org/1999/xlink" x="0px" y="0px"
	 viewBox="0 0 64 60" style="enable-background:new 0 0 64 60;" xml:space="preserve">
<style type="text/css">
	.st0{fill:#CAD1D8;}
	.st1{fill:#FFFFFF;}
	.st2{fill:#595A66;}
	.st3{fill:#9BA7AF;}
	.st4{fill:#E2E5E7;}
	.st5{fill:#ABE1FA;}
	.st6{fill:#FDBA4D;}
	.st7{fill:#F19F35;}
	.st8{fill:#3BB54A;}
	.st9{fill:#0E9347;}
	.st10{fill:#E6E7E8;}
	.st11{fill:#BCBEC0;}
	.st12{fill:#D1D3D4;}
	.st13{fill:#A7A9AC;}
	.st14{fill:#DCDDDE;}
	.st15{fill:#B1B3B6;}
	.st16{fill:#C7C8CA;}
	.st17{fill:#9D9FA2;}
	.st18{fill:#3689C9;}
	.st19{fill:#EE2C39;}
	.st20{fill:#FFFFFF;stroke:#595A66;stroke-width:2;stroke-miterlimit:10;}
	.st21{fill:#F19F36;}
	.st22{fill:#D4D5D6;}
	.st23{fill:#35363E;}
	.st24{fill:#CC202C;}
	.st25{fill:#1A70AC;}
	.st26{fill:#BD6428;}
	.st27{fill:#A35723;}
	.st28{fill:#A35623;}
	.st29{fill:#DDDFE1;}
	.st30{fill:#1B6FAB;}
	.st31{fill:#165D91;}
	.st32{fill:#699DC4;}
	.st33{fill:#6F707E;}
	.st34{fill:#4C9FD7;}
	.st35{fill:#748B9E;}
	.st36{fill:#78B6E4;}
</style>
<g id="Layer_62">
</g>
<g id="Layer_60">
</g>
<g id="Layer_59">
</g>
<g id="Layer_58">
</g>
<g id="Layer_57">
</g>
<g id="Layer_56">
</g>
<g id="Layer_55">
</g>
<g id="Layer_54">
</g>
<g id="Layer_53">
</g>
<g id="Layer_52">
</g>
<g id="Layer_51">
</g>
<g id="Layer_50">
</g>
<g id="Layer_49">
</g>
<g id="Layer_48">
</g>
<g id="Layer_47">
</g>
<g id="Layer_46">
</g>
<g id="Layer_45">
	<g>
		<path class="st0" d="M0,57V3c0-1.7,1.3-3,3-3h58c1.7,0,3,1.3,3,3v54c0,1.7-1.3,3-3,3H3C1.3,60,0,58.7,0,57z"/>
		<circle class="st3" cx="3" cy="4" r="1"/>
		<circle class="st3" cx="7" cy="4" r="1"/>
		<circle class="st3" cx="11" cy="4" r="1"/>
		<path class="st1" d="M3,8h58c0.6,0,1,0.4,1,1v48c0,0.6-0.4,1-1,1H3c-0.6,0-1-0.4-1-1V9C2,8.4,2.4,8,3,8z"/>
		<path class="st4" d="M61,5H15c-0.6,0-1-0.4-1-1v0c0-0.6,0.4-1,1-1h46c0.6,0,1,0.4,1,1v0C62,4.6,61.6,5,61,5z"/>
		<path class="st23" d="M22,58H3c-0.6,0-1-0.4-1-1V9c0-0.6,0.4-1,1-1h19V58z"/>
		<path class="st0" d="M4,13L4,13c0-0.6,0.4-1,1-1h6c0.6,0,1,0.4,1,1v0c0,0.6-0.4,1-1,1H5C4.4,14,4,13.6,4,13z"/>
		<path class="st0" d="M4,37L4,37c0-0.6,0.4-1,1-1h4c0.6,0,1,0.4,1,1v0c0,0.6-0.4,1-1,1H5C4.4,38,4,37.6,4,37z"/>
		<path class="st0" d="M4,49L4,49c0-0.6,0.4-1,1-1h4c0.6,0,1,0.4,1,1v0c0,0.6-0.4,1-1,1H5C4.4,50,4,49.6,4,49z"/>
		<path class="st6" d="M7,21L7,21c0-0.6,0.4-1,1-1h4c0.6,0,1,0.4,1,1v0c0,0.6-0.4,1-1,1H8C7.4,22,7,21.6,7,21z"/>
		<path class="st19" d="M15,21L15,21c0-0.6,0.4-1,1-1h3c0.6,0,1,0.4,1,1v0c0,0.6-0.4,1-1,1h-3C15.4,22,15,21.6,15,21z"/>
		<path class="st8" d="M6,45L6,45c0-0.6,0.4-1,1-1l7,0c0.6,0,1,0.4,1,1v0c0,0.6-0.4,1-1,1l-7,0C6.4,46,6,45.6,6,45z"/>
		<path class="st0" d="M7,17L7,17c0-0.6,0.4-1,1-1h7c0.6,0,1,0.4,1,1v0c0,0.6-0.4,1-1,1H8C7.4,18,7,17.6,7,17z"/>
		<path class="st0" d="M7,33L7,33c0-0.6,0.4-1,1-1h7c0.6,0,1,0.4,1,1v0c0,0.6-0.4,1-1,1H8C7.4,34,7,33.6,7,33z"/>
		<path class="st0" d="M4,25L4,25c0-0.6,0.4-1,1-1h3c0.6,0,1,0.4,1,1v0c0,0.6-0.4,1-1,1H5C4.4,26,4,25.6,4,25z"/>
		<path class="st0" d="M6,41L6,41c0-0.6,0.4-1,1-1h4c0.6,0,1,0.4,1,1v0c0,0.6-0.4,1-1,1H7C6.4,42,6,41.6,6,41z"/>
		<path class="st6" d="M14,41L14,41c0-0.6,0.4-1,1-1h4c0.6,0,1,0.4,1,1v0c0,0.6-0.4,1-1,1h-4C14.4,42,14,41.6,14,41z"/>
		<path class="st0" d="M7,29L7,29c0-0.6,0.4-1,1-1h8c0.6,0,1,0.4,1,1v0c0,0.6-0.4,1-1,1H8C7.4,30,7,29.6,7,29z"/>
		<path class="st0" d="M7,53L7,53c0-0.6,0.4-1,1-1h10c0.6,0,1,0.4,1,1l0,0c0,0.6-0.4,1-1,1H8C7.4,54,7,53.6,7,53z"/>
		<path class="st4" d="M57,18H27c-0.6,0-1-0.4-1-1v-4c0-0.6,0.4-1,1-1h30c0.6,0,1,0.4,1,1v4C58,17.6,57.6,18,57,18z"/>
		<path class="st4" d="M39,31H27c-0.6,0-1-0.4-1-1v-8c0-0.6,0.4-1,1-1h12c0.6,0,1,0.4,1,1v8C40,30.6,39.6,31,39,31z"/>
		<path class="st4" d="M34,53h-7c-0.6,0-1-0.4-1-1v-4c0-0.6,0.4-1,1-1h7c0.6,0,1,0.4,1,1v4C35,52.6,34.6,53,34,53z"/>
		<path class="st4" d="M57,53h-7c-0.6,0-1-0.4-1-1v-4c0-0.6,0.4-1,1-1h7c0.6,0,1,0.4,1,1v4C58,52.6,57.6,53,57,53z"/>
		<path class="st4" d="M45,53h-6c-0.6,0-1-0.4-1-1v-4c0-0.6,0.4-1,1-1h6c0.6,0,1,0.4,1,1v4C46,52.6,45.6,53,45,53z"/>
		<path class="st4" d="M49,44H27c-0.6,0-1-0.4-1-1v-8c0-0.6,0.4-1,1-1h22c0.6,0,1,0.4,1,1v8C50,43.6,49.6,44,49,44z"/>
		<path class="st4" d="M57,31H45c-0.6,0-1-0.4-1-1v-8c0-0.6,0.4-1,1-1h12c0.6,0,1,0.4,1,1v8C58,30.6,57.6,31,57,31z"/>
		<path class="st4" d="M57,44h-3c-0.6,0-1-0.4-1-1v-8c0-0.6,0.4-1,1-1h3c0.6,0,1,0.4,1,1v8C58,43.6,57.6,44,57,44z"/>
	</g>
</g>
<g id="Layer_44">
</g>
<g id="Layer_43">
</g>
<g id="Layer_42">
</g>
<g id="Layer_41">
</g>
<g id="Layer_40">
</g>
<g id="Layer_39">
</g>
<g id="Layer_38">
</g>
<g id="Layer_37">
</g>
<g id="Layer_36">
</g>
<g id="Layer_35">
</g>
<g id="Layer_34">
</g>
<g id="Layer_33">
</g>
<g id="Layer_32">
</g>
<g id="Layer_31">
</g>
<g id="Layer_30">
</g>
<g id="Layer_29">
</g>
<g id="Layer_28">
</g>
<g id="Layer_27">
</g>
<g id="Layer_26">
</g>
<g id="Layer_25">
</g>
<g id="Layer_24">
</g>
<g id="Layer_23">
</g>
<g id="Layer_22">
</g>
<g id="Layer_21">
</g>
<g id="Layer_20">
</g>
<g id="Layer_19">
</g>
<g id="Layer_18">
</g>
<g id="Layer_17">
</g>
<g id="Layer_16">
</g>
<g id="Layer_15">
</g>
<g id="Layer_14">
</g>
<g id="Layer_13">
</g>
<g id="Layer_12">
</g>
<g id="Layer_11">
</g>
<g id="Layer_10">
</g>
<g id="Layer_9">
</g>
<g id="Layer_8">
</g>
<g id="Layer_7">
</g>
<g id="Layer_6">
</g>
<g id="Layer_5">
</g>
<g id="Layer_4">
</g>
<g id="Layer_3">
</g>
<g id="Layer_2">
</g>
</svg>
