<?xml version="1.0" encoding="utf-8"?>
<!-- Generator: Adobe Illustrator 21.0.0, SVG Export Plug-In . SVG Version: 6.00 Build 0)  -->
<svg version="1.1" id="Layer_1" xmlns="http://www.w3.org/2000/svg" xmlns:xlink="http://www.w3.org/1999/xlink" x="0px" y="0px"
	 viewBox="0 0 64 60" style="enable-background:new 0 0 64 60;" xml:space="preserve">
<style type="text/css">
	.st0{fill:#CAD1D8;}
	.st1{fill:#9BA7AF;}
	.st2{fill:#FFFFFF;}
	.st3{fill:#E2E5E7;}
	.st4{fill:#595A66;}
	.st5{fill:#ABE1FA;}
	.st6{fill:#6F707E;}
	.st7{fill:#3BB54A;}
	.st8{fill:#0E9347;}
	.st9{fill:#517CBE;}
	.st10{fill:#65CCEF;}
	.st11{fill:#EE2C39;}
	.st12{fill:#CC202C;}
	.st13{fill:#F16351;}
	.st14{fill:#DDDFE1;}
	.st15{fill:#89C763;}
	.st16{fill:#3689C9;}
	.st17{fill:#1B6FAB;}
	.st18{fill:#4C9FD7;}
	.st19{fill:#FDBA4D;}
	.st20{fill:#F19F36;}
	.st21{fill:#F19F35;}
	.st22{fill:#FFFFFF;stroke:#595A66;stroke-width:2;stroke-miterlimit:10;}
	.st23{fill:#1A70AC;}
	.st24{fill:#35363E;}
</style>
<g>
	<path class="st0" d="M0,57V3c0-1.7,1.3-3,3-3h58c1.7,0,3,1.3,3,3v54c0,1.7-1.3,3-3,3H3C1.3,60,0,58.7,0,57z"/>
	<circle class="st1" cx="3" cy="4" r="1"/>
	<circle class="st1" cx="7" cy="4" r="1"/>
	<circle class="st1" cx="11" cy="4" r="1"/>
	<path class="st2" d="M3,8h58c0.6,0,1,0.4,1,1v48c0,0.6-0.4,1-1,1H3c-0.6,0-1-0.4-1-1V9C2,8.4,2.4,8,3,8z"/>
	<path class="st3" d="M61,5H15c-0.6,0-1-0.4-1-1v0c0-0.6,0.4-1,1-1h46c0.6,0,1,0.4,1,1v0C62,4.6,61.6,5,61,5z"/>
	<circle class="st5" cx="12" cy="19" r="4"/>
	<path class="st17" d="M15,21.6c0-0.3-0.2-0.6-0.6-0.8l-1-0.6c-0.1-0.1-0.2-0.1-0.4-0.2v-0.5c0.3-0.3,0.5-0.7,0.5-1.1
		c0-0.8-0.7-1.5-1.5-1.5s-1.5,0.7-1.5,1.5c0,0.4,0.2,0.8,0.5,1.1v0.5c-0.1,0-0.3,0.1-0.4,0.2l-1,0.6C9.3,21,9.1,21.3,9,21.6
		c0.7,0.8,1.8,1.4,3,1.4S14.3,22.5,15,21.6z"/>
	<path class="st0" d="M54,33H24c-0.6,0-1-0.4-1-1v0c0-0.6,0.4-1,1-1h30c0.6,0,1,0.4,1,1v0C55,32.6,54.6,33,54,33z"/>
	<path class="st0" d="M48,41H24c-0.6,0-1-0.4-1-1v0c0-0.6,0.4-1,1-1h24c0.6,0,1,0.4,1,1v0C49,40.6,48.6,41,48,41z"/>
	<path class="st0" d="M43,37H24c-0.6,0-1-0.4-1-1l0,0c0-0.6,0.4-1,1-1h19c0.6,0,1,0.4,1,1l0,0C44,36.6,43.6,37,43,37z"/>
	<path class="st0" d="M54,17H24c-0.6,0-1-0.4-1-1v0c0-0.6,0.4-1,1-1h30c0.6,0,1,0.4,1,1v0C55,16.6,54.6,17,54,17z"/>
	<path class="st0" d="M48,25H24c-0.6,0-1-0.4-1-1v0c0-0.6,0.4-1,1-1h24c0.6,0,1,0.4,1,1v0C49,24.6,48.6,25,48,25z"/>
	<path class="st0" d="M43,21H24c-0.6,0-1-0.4-1-1v0c0-0.6,0.4-1,1-1h19c0.6,0,1,0.4,1,1v0C44,20.6,43.6,21,43,21z"/>
	<path class="st0" d="M48,48H24c-0.6,0-1-0.4-1-1v0c0-0.6,0.4-1,1-1h24c0.6,0,1,0.4,1,1v0C49,47.6,48.6,48,48,48z"/>
	<path class="st0" d="M43,52H24c-0.6,0-1-0.4-1-1l0,0c0-0.6,0.4-1,1-1h19c0.6,0,1,0.4,1,1l0,0C44,51.6,43.6,52,43,52z"/>
	<path class="st0" d="M8,28L8,28c0-0.6,0.4-1,1-1l7,0c0.6,0,1,0.4,1,1v0c0,0.6-0.4,1-1,1l-7,0C8.4,29,8,28.6,8,28z"/>
	<path class="st0" d="M8,32L8,32c0-0.6,0.4-1,1-1l5,0c0.6,0,1,0.4,1,1v0c0,0.6-0.4,1-1,1H9C8.4,33,8,32.6,8,32z"/>
	<path class="st0" d="M8,40L8,40c0-0.6,0.4-1,1-1h7c0.6,0,1,0.4,1,1l0,0c0,0.6-0.4,1-1,1H9C8.4,41,8,40.6,8,40z"/>
	<path class="st0" d="M8,44L8,44c0-0.6,0.4-1,1-1h5c0.6,0,1,0.4,1,1l0,0c0,0.6-0.4,1-1,1H9C8.4,45,8,44.6,8,44z"/>
</g>
</svg>
