<?xml version="1.0" encoding="utf-8"?>
<!-- Generator: Adobe Illustrator 21.0.0, SVG Export Plug-In . SVG Version: 6.00 Build 0)  -->
<svg version="1.1" xmlns="http://www.w3.org/2000/svg" xmlns:xlink="http://www.w3.org/1999/xlink" x="0px" y="0px"
	 viewBox="0 0 64 60" style="enable-background:new 0 0 64 60;" xml:space="preserve">
<style type="text/css">
	.st0{fill:#CAD1D8;}
	.st1{fill:#FFFFFF;}
	.st2{fill:#595A66;}
	.st3{fill:#9BA7AF;}
	.st4{fill:#E2E5E7;}
	.st5{fill:#ABE1FA;}
	.st6{fill:#FDBA4D;}
	.st7{fill:#F19F35;}
	.st8{fill:#3BB54A;}
	.st9{fill:#0E9347;}
	.st10{fill:#E6E7E8;}
	.st11{fill:#BCBEC0;}
	.st12{fill:#D1D3D4;}
	.st13{fill:#A7A9AC;}
	.st14{fill:#DCDDDE;}
	.st15{fill:#B1B3B6;}
	.st16{fill:#C7C8CA;}
	.st17{fill:#9D9FA2;}
	.st18{fill:#3689C9;}
	.st19{fill:#EE2C39;}
	.st20{fill:#FFFFFF;stroke:#595A66;stroke-width:2;stroke-miterlimit:10;}
	.st21{fill:#F19F36;}
	.st22{fill:#D4D5D6;}
	.st23{fill:#35363E;}
	.st24{fill:#CC202C;}
	.st25{fill:#1A70AC;}
	.st26{fill:#BD6428;}
	.st27{fill:#A35723;}
	.st28{fill:#A35623;}
	.st29{fill:#DDDFE1;}
	.st30{fill:#1B6FAB;}
	.st31{fill:#165D91;}
	.st32{fill:#699DC4;}
	.st33{fill:#6F707E;}
	.st34{fill:#4C9FD7;}
	.st35{fill:#748B9E;}
	.st36{fill:#78B6E4;}
</style>
<g id="Layer_62">
</g>
<g id="Layer_60">
</g>
<g id="Layer_59">
</g>
<g id="Layer_58">
</g>
<g id="Layer_57">
</g>
<g id="Layer_56">
</g>
<g id="Layer_55">
</g>
<g id="Layer_54">
</g>
<g id="Layer_53">
</g>
<g id="Layer_52">
</g>
<g id="Layer_51">
</g>
<g id="Layer_50">
</g>
<g id="Layer_49">
</g>
<g id="Layer_48">
</g>
<g id="Layer_47">
</g>
<g id="Layer_46">
</g>
<g id="Layer_45">
</g>
<g id="Layer_44">
</g>
<g id="Layer_43">
</g>
<g id="Layer_42">
</g>
<g id="Layer_41">
</g>
<g id="Layer_40">
</g>
<g id="Layer_39">
</g>
<g id="Layer_38">
</g>
<g id="Layer_37">
</g>
<g id="Layer_36">
</g>
<g id="Layer_35">
</g>
<g id="Layer_34">
</g>
<g id="Layer_33">
</g>
<g id="Layer_32">
</g>
<g id="Layer_31">
</g>
<g id="Layer_30">
</g>
<g id="Layer_29">
</g>
<g id="Layer_28">
</g>
<g id="Layer_27">
</g>
<g id="Layer_26">
</g>
<g id="Layer_25">
</g>
<g id="Layer_24">
</g>
<g id="Layer_23">
</g>
<g id="Layer_22">
</g>
<g id="Layer_21">
</g>
<g id="Layer_20">
</g>
<g id="Layer_19">
</g>
<g id="Layer_18">
	<g>
		<path class="st0" d="M0,57V3c0-1.7,1.3-3,3-3h58c1.7,0,3,1.3,3,3v54c0,1.7-1.3,3-3,3H3C1.3,60,0,58.7,0,57z"/>
		<circle class="st3" cx="3" cy="4" r="1"/>
		<circle class="st3" cx="7" cy="4" r="1"/>
		<circle class="st3" cx="11" cy="4" r="1"/>
		<path class="st1" d="M3,8h58c0.6,0,1,0.4,1,1v48c0,0.6-0.4,1-1,1H3c-0.6,0-1-0.4-1-1V9C2,8.4,2.4,8,3,8z"/>
		<path class="st4" d="M61,5H15c-0.6,0-1-0.4-1-1v0c0-0.6,0.4-1,1-1h46c0.6,0,1,0.4,1,1v0C62,4.6,61.6,5,61,5z"/>
		<path class="st4" d="M6,52V18h52l0,34c0,1.1-0.9,2-2,2H8C6.9,54,6,53.1,6,52z"/>
		<rect x="6" y="19" class="st1" width="52" height="1"/>
		<rect x="6" y="33" class="st1" width="52" height="1"/>
		<rect x="6" y="26" class="st1" width="52" height="1"/>
		<rect x="6" y="40" class="st1" width="52" height="1"/>
		<rect x="6" y="47" class="st1" width="52" height="1"/>
		<path class="st2" d="M9,30L9,30c0-0.6,0.4-1,1-1h5c0.6,0,1,0.4,1,1v0c0,0.6-0.4,1-1,1h-5C9.4,31,9,30.6,9,30z"/>
		<path class="st2" d="M9,51L9,51c0-0.6,0.4-1,1-1l5,0c0.6,0,1,0.4,1,1v0c0,0.6-0.4,1-1,1l-5,0C9.4,52,9,51.6,9,51z"/>
		<path class="st2" d="M9,23L9,23c0-0.6,0.4-1,1-1h7c0.6,0,1,0.4,1,1v0c0,0.6-0.4,1-1,1h-7C9.4,24,9,23.6,9,23z"/>
		<path class="st2" d="M9,44L9,44c0-0.6,0.4-1,1-1h6c0.6,0,1,0.4,1,1l0,0c0,0.6-0.4,1-1,1h-6C9.4,45,9,44.6,9,44z"/>
		<path class="st2" d="M9,37L9,37c0-0.6,0.4-1,1-1l8,0c0.6,0,1,0.4,1,1v0c0,0.6-0.4,1-1,1l-8,0C9.4,38,9,37.6,9,37z"/>
		<path class="st3" d="M40,24H24c-0.6,0-1-0.4-1-1v0c0-0.6,0.4-1,1-1h16c0.6,0,1,0.4,1,1v0C41,23.6,40.6,24,40,24z"/>
		<path class="st3" d="M52,24l-4,0c-0.6,0-1-0.4-1-1v0c0-0.6,0.4-1,1-1l4,0c0.6,0,1,0.4,1,1v0C53,23.6,52.6,24,52,24z"/>
		<path class="st3" d="M52,31h-4c-0.6,0-1-0.4-1-1v0c0-0.6,0.4-1,1-1l4,0c0.6,0,1,0.4,1,1v0C53,30.6,52.6,31,52,31z"/>
		<path class="st3" d="M52,38h-4c-0.6,0-1-0.4-1-1l0,0c0-0.6,0.4-1,1-1h4c0.6,0,1,0.4,1,1l0,0C53,37.6,52.6,38,52,38z"/>
		<path class="st3" d="M52,45h-4c-0.6,0-1-0.4-1-1l0,0c0-0.6,0.4-1,1-1h4c0.6,0,1,0.4,1,1l0,0C53,44.6,52.6,45,52,45z"/>
		<path class="st3" d="M52,52h-4c-0.6,0-1-0.4-1-1l0,0c0-0.6,0.4-1,1-1h4c0.6,0,1,0.4,1,1l0,0C53,51.6,52.6,52,52,52z"/>
		<path class="st3" d="M40,45H24c-0.6,0-1-0.4-1-1l0,0c0-0.6,0.4-1,1-1h16c0.6,0,1,0.4,1,1l0,0C41,44.6,40.6,45,40,45z"/>
		<path class="st3" d="M37,38H24c-0.6,0-1-0.4-1-1l0,0c0-0.6,0.4-1,1-1h13c0.6,0,1,0.4,1,1l0,0C38,37.6,37.6,38,37,38z"/>
		<path class="st3" d="M42,31H24c-0.6,0-1-0.4-1-1v0c0-0.6,0.4-1,1-1h18c0.6,0,1,0.4,1,1v0C43,30.6,42.6,31,42,31z"/>
		<path class="st3" d="M42,52H24c-0.6,0-1-0.4-1-1l0,0c0-0.6,0.4-1,1-1h18c0.6,0,1,0.4,1,1l0,0C43,51.6,42.6,52,42,52z"/>
		<path class="st18" d="M22,17v-3c0-1.1-0.9-2-2-2H8c-1.1,0-2,0.9-2,2v5h52v-2H22z"/>
		<path class="st5" d="M40,17H24v-3c0-1.1,0.9-2,2-2h12c1.1,0,2,0.9,2,2V17z"/>
		<path class="st5" d="M58,17H42v-3c0-1.1,0.9-2,2-2h12c1.1,0,2,0.9,2,2V17z"/>
		<circle class="st18" cx="32" cy="15" r="1"/>
		<circle class="st18" cx="50" cy="15" r="1"/>
		<circle class="st1" cx="14" cy="15" r="1"/>
	</g>
</g>
<g id="Layer_17">
</g>
<g id="Layer_16">
</g>
<g id="Layer_15">
</g>
<g id="Layer_14">
</g>
<g id="Layer_13">
</g>
<g id="Layer_12">
</g>
<g id="Layer_11">
</g>
<g id="Layer_10">
</g>
<g id="Layer_9">
</g>
<g id="Layer_8">
</g>
<g id="Layer_7">
</g>
<g id="Layer_6">
</g>
<g id="Layer_5">
</g>
<g id="Layer_4">
</g>
<g id="Layer_3">
</g>
<g id="Layer_2">
</g>
</svg>
