<?xml version="1.0" encoding="utf-8"?>
<!-- Generator: Adobe Illustrator 21.0.0, SVG Export Plug-In . SVG Version: 6.00 Build 0)  -->
<svg version="1.1" id="Layer_1" xmlns="http://www.w3.org/2000/svg" xmlns:xlink="http://www.w3.org/1999/xlink" x="0px" y="0px"
	 viewBox="0 0 64 60" style="enable-background:new 0 0 64 60;" xml:space="preserve">
<style type="text/css">
	.st0{fill:#CAD1D8;}
	.st1{fill:#9BA7AF;}
	.st2{fill:#FFFFFF;}
	.st3{fill:#E2E5E7;}
	.st4{fill:#595A66;}
	.st5{fill:#ABE1FA;}
	.st6{fill:#6F707E;}
	.st7{fill:#3BB54A;}
	.st8{fill:#0E9347;}
	.st9{fill:#517CBE;}
	.st10{fill:#65CCEF;}
	.st11{fill:#EE2C39;}
	.st12{fill:#CC202C;}
	.st13{fill:#F16351;}
	.st14{fill:#DDDFE1;}
	.st15{fill:#89C763;}
	.st16{fill:#3689C9;}
	.st17{fill:#1B6FAB;}
	.st18{fill:#4C9FD7;}
	.st19{fill:#FDBA4D;}
	.st20{fill:#F19F36;}
	.st21{fill:#F19F35;}
	.st22{fill:#FFFFFF;stroke:#595A66;stroke-width:2;stroke-miterlimit:10;}
	.st23{fill:#1A70AC;}
	.st24{fill:#35363E;}
</style>
<g>
	<path class="st0" d="M0,57V3c0-1.7,1.3-3,3-3h58c1.7,0,3,1.3,3,3v54c0,1.7-1.3,3-3,3H3C1.3,60,0,58.7,0,57z"/>
	<circle class="st1" cx="3" cy="4" r="1"/>
	<circle class="st1" cx="7" cy="4" r="1"/>
	<circle class="st1" cx="11" cy="4" r="1"/>
	<path class="st2" d="M3,8h58c0.6,0,1,0.4,1,1v48c0,0.6-0.4,1-1,1H3c-0.6,0-1-0.4-1-1V9C2,8.4,2.4,8,3,8z"/>
	<path class="st3" d="M61,5H15c-0.6,0-1-0.4-1-1v0c0-0.6,0.4-1,1-1h46c0.6,0,1,0.4,1,1v0C62,4.6,61.6,5,61,5z"/>
	<g>
		<path class="st5" d="M29,35H7c-0.6,0-1-0.4-1-1V18c0-0.6,0.4-1,1-1h22c0.6,0,1,0.4,1,1v16C30,34.6,29.6,35,29,35z"/>
		<circle class="st21" cx="11" cy="21" r="2"/>
		<path class="st4" d="M30,33l-7.3-7.3c-0.4-0.4-1-0.4-1.4,0L12,35h17c0.6,0,1-0.4,1-1V33z"/>
		<path class="st24" d="M26,30L26,30c-0.3,0.3-0.3,0.7,0,1l0.6,0.6c0.9,0.9,1.4,2.1,1.4,3.4v0h1c0.6,0,1-0.4,1-1v-1l-3-3
			C26.7,29.7,26.3,29.7,26,30z"/>
		<path class="st4" d="M7,35h12l-6.2-7.1c-0.4-0.5-1.1-0.5-1.5,0L6,33v1C6,34.6,6.4,35,7,35z"/>
		<path class="st24" d="M18.2,31.8c-0.6-0.7-1.6-0.9-2.4-0.5L19,35h2L18.2,31.8z"/>
		<path class="st6" d="M19.1,29.3L19.1,29.3c0.2,0.2,0.5,0.2,0.7,0l1.4-1.4c0.2-0.2,0.2-0.5,0-0.7l0,0c-0.2-0.2-0.5-0.2-0.7,0
			l-1.4,1.4C19,28.8,19,29.1,19.1,29.3z"/>
		<path class="st6" d="M9.7,30.9L9.7,30.9c0.2,0.2,0.5,0.2,0.7,0l1.4-1.4c0.2-0.2,0.2-0.5,0-0.7h0c-0.2-0.2-0.5-0.2-0.7,0l-1.4,1.4
			C9.5,30.3,9.5,30.7,9.7,30.9z"/>
	</g>
	<path class="st0" d="M27,47H7c-0.6,0-1-0.4-1-1v0c0-0.6,0.4-1,1-1h20c0.6,0,1,0.4,1,1l0,0C28,46.6,27.6,47,27,47z"/>
	<path class="st0" d="M24,43H7c-0.6,0-1-0.4-1-1v0c0-0.6,0.4-1,1-1h17c0.6,0,1,0.4,1,1l0,0C25,42.6,24.6,43,24,43z"/>
	<path class="st0" d="M23,51H7c-0.6,0-1-0.4-1-1v0c0-0.6,0.4-1,1-1h16c0.6,0,1,0.4,1,1l0,0C24,50.6,23.6,51,23,51z"/>
	<path class="st0" d="M51,47H37c-0.6,0-1-0.4-1-1v0c0-0.6,0.4-1,1-1h14c0.6,0,1,0.4,1,1v0C52,46.6,51.5,47,51,47z"/>
	<path class="st0" d="M57,39H37c-0.6,0-1-0.4-1-1v0c0-0.6,0.4-1,1-1h20c0.6,0,1,0.4,1,1v0C58,38.6,57.6,39,57,39z"/>
	<path class="st0" d="M53,43H37c-0.6,0-1-0.4-1-1v0c0-0.6,0.4-1,1-1h16c0.6,0,1,0.4,1,1v0C54,42.6,53.5,43,53,43z"/>
	<path class="st0" d="M53,51H37c-0.6,0-1-0.4-1-1v0c0-0.6,0.4-1,1-1h16c0.6,0,1,0.4,1,1v0C54,50.6,53.5,51,53,51z"/>
	<path class="st0" d="M51,31H37c-0.6,0-1-0.4-1-1v0c0-0.6,0.4-1,1-1h14c0.6,0,1,0.4,1,1v0C52,30.6,51.5,31,51,31z"/>
	<path class="st0" d="M57,23H37c-0.6,0-1-0.4-1-1v0c0-0.6,0.4-1,1-1h20c0.6,0,1,0.4,1,1v0C58,22.6,57.6,23,57,23z"/>
	<path class="st0" d="M57,19H37c-0.6,0-1-0.4-1-1v0c0-0.6,0.4-1,1-1h20c0.6,0,1,0.4,1,1v0C58,18.6,57.6,19,57,19z"/>
	<path class="st0" d="M53,27H37c-0.6,0-1-0.4-1-1v0c0-0.6,0.4-1,1-1h16c0.6,0,1,0.4,1,1v0C54,26.6,53.5,27,53,27z"/>
	<path class="st0" d="M53,35H37c-0.6,0-1-0.4-1-1v0c0-0.6,0.4-1,1-1h16c0.6,0,1,0.4,1,1v0C54,34.6,53.5,35,53,35z"/>
	<path class="st0" d="M27,55H7c-0.6,0-1-0.4-1-1l0,0c0-0.6,0.4-1,1-1h20c0.6,0,1,0.4,1,1v0C28,54.6,27.6,55,27,55z"/>
	<path class="st0" d="M44,55h-7c-0.6,0-1-0.4-1-1l0,0c0-0.6,0.4-1,1-1h7c0.6,0,1,0.4,1,1l0,0C45,54.6,44.6,55,44,55z"/>
	<path class="st4" d="M6,13L6,13c0-0.6,0.4-1,1-1l10,0c0.6,0,1,0.4,1,1v0c0,0.6-0.4,1-1,1L7,14C6.4,14,6,13.6,6,13z"/>
	<path class="st4" d="M20,13L20,13c0-0.6,0.4-1,1-1l5,0c0.6,0,1,0.4,1,1v0c0,0.6-0.4,1-1,1l-5,0C20.4,14,20,13.6,20,13z"/>
</g>
</svg>
