<?xml version="1.0" encoding="utf-8"?>
<!-- Generator: Adobe Illustrator 21.0.0, SVG Export Plug-In . SVG Version: 6.00 Build 0)  -->
<svg version="1.1" id="Layer_1" xmlns="http://www.w3.org/2000/svg" xmlns:xlink="http://www.w3.org/1999/xlink" x="0px" y="0px"
	 viewBox="0 0 64 60" style="enable-background:new 0 0 64 60;" xml:space="preserve">
<style type="text/css">
	.st0{fill:#CAD1D8;}
	.st1{fill:#9BA7AF;}
	.st2{fill:#FFFFFF;}
	.st3{fill:#E2E5E7;}
	.st4{fill:#595A66;}
	.st5{fill:#ABE1FA;}
	.st6{fill:#6F707E;}
	.st7{fill:#3BB54A;}
	.st8{fill:#0E9347;}
	.st9{fill:#517CBE;}
	.st10{fill:#65CCEF;}
	.st11{fill:#EE2C39;}
	.st12{fill:#CC202C;}
	.st13{fill:#F16351;}
	.st14{fill:#DDDFE1;}
	.st15{fill:#89C763;}
	.st16{fill:#3689C9;}
	.st17{fill:#1B6FAB;}
	.st18{fill:#4C9FD7;}
	.st19{fill:#FDBA4D;}
	.st20{fill:#F19F36;}
	.st21{fill:#F19F35;}
	.st22{fill:#FFFFFF;stroke:#595A66;stroke-width:2;stroke-miterlimit:10;}
	.st23{fill:#1A70AC;}
	.st24{fill:#35363E;}
</style>
<g>
	<path class="st0" d="M0,57V3c0-1.7,1.3-3,3-3h58c1.7,0,3,1.3,3,3v54c0,1.7-1.3,3-3,3H3C1.3,60,0,58.7,0,57z"/>
	<circle class="st1" cx="3" cy="4" r="1"/>
	<circle class="st1" cx="7" cy="4" r="1"/>
	<circle class="st1" cx="11" cy="4" r="1"/>
	<path class="st2" d="M3,8h58c0.6,0,1,0.4,1,1v48c0,0.6-0.4,1-1,1H3c-0.6,0-1-0.4-1-1V9C2,8.4,2.4,8,3,8z"/>
	<path class="st3" d="M61,5H15c-0.6,0-1-0.4-1-1v0c0-0.6,0.4-1,1-1h46c0.6,0,1,0.4,1,1v0C62,4.6,61.6,5,61,5z"/>
	<circle class="st5" cx="14" cy="19" r="4"/>
	<path class="st17" d="M17,21.6c0-0.3-0.2-0.6-0.6-0.8l-1-0.6c-0.1-0.1-0.2-0.1-0.4-0.2v-0.5c0.3-0.3,0.5-0.7,0.5-1.1
		c0-0.8-0.7-1.5-1.5-1.5s-1.5,0.7-1.5,1.5c0,0.4,0.2,0.8,0.5,1.1v0.5c-0.1,0-0.3,0.1-0.4,0.2l-1,0.6c-0.4,0.2-0.6,0.5-0.6,0.8
		c0.7,0.8,1.8,1.4,3,1.4S16.3,22.5,17,21.6z"/>
	<path class="st0" d="M54,21H24c-0.6,0-1-0.4-1-1v0c0-0.6,0.4-1,1-1h30c0.6,0,1,0.4,1,1v0C55,20.6,54.6,21,54,21z"/>
	<path class="st0" d="M48,29H24c-0.6,0-1-0.4-1-1v0c0-0.6,0.4-1,1-1h24c0.6,0,1,0.4,1,1v0C49,28.6,48.6,29,48,29z"/>
	<path class="st0" d="M43,25H24c-0.6,0-1-0.4-1-1v0c0-0.6,0.4-1,1-1h19c0.6,0,1,0.4,1,1v0C44,24.6,43.6,25,43,25z"/>
	<circle class="st7" cx="24" cy="16" r="1"/>
	<path class="st4" d="M27,16L27,16c0-0.6,0.4-1,1-1l7,0c0.6,0,1,0.4,1,1v0c0,0.6-0.4,1-1,1l-7,0C27.4,17,27,16.6,27,16z"/>
	<circle class="st5" cx="14" cy="40" r="4"/>
	<path class="st17" d="M17,42.6c0-0.3-0.2-0.6-0.6-0.8l-1-0.6c-0.1-0.1-0.2-0.1-0.4-0.2v-0.5c0.3-0.3,0.5-0.7,0.5-1.1
		c0-0.8-0.7-1.5-1.5-1.5s-1.5,0.7-1.5,1.5c0,0.4,0.2,0.8,0.5,1.1v0.5c-0.1,0-0.3,0.1-0.4,0.2l-1,0.6c-0.4,0.2-0.6,0.5-0.6,0.8
		c0.7,0.8,1.8,1.4,3,1.4S16.3,43.5,17,42.6z"/>
	<path class="st0" d="M54,42H24c-0.6,0-1-0.4-1-1v0c0-0.6,0.4-1,1-1h30c0.6,0,1,0.4,1,1v0C55,41.6,54.6,42,54,42z"/>
	<path class="st0" d="M48,50H24c-0.6,0-1-0.4-1-1l0,0c0-0.6,0.4-1,1-1h24c0.6,0,1,0.4,1,1l0,0C49,49.6,48.6,50,48,50z"/>
	<path class="st0" d="M43,46H24c-0.6,0-1-0.4-1-1v0c0-0.6,0.4-1,1-1h19c0.6,0,1,0.4,1,1v0C44,45.6,43.6,46,43,46z"/>
	<circle class="st7" cx="24" cy="37" r="1"/>
	<path class="st4" d="M27,37L27,37c0-0.6,0.4-1,1-1h7c0.6,0,1,0.4,1,1v0c0,0.6-0.4,1-1,1h-7C27.4,38,27,37.6,27,37z"/>
</g>
</svg>
