<?xml version="1.0" encoding="utf-8"?>
<!-- Generator: Adobe Illustrator 21.0.0, SVG Export Plug-In . SVG Version: 6.00 Build 0)  -->
<svg version="1.1" id="Layer_1" xmlns="http://www.w3.org/2000/svg" xmlns:xlink="http://www.w3.org/1999/xlink" x="0px" y="0px"
	 viewBox="0 0 64 60" style="enable-background:new 0 0 64 60;" xml:space="preserve">
<style type="text/css">
	.st0{fill:#CAD1D8;}
	.st1{fill:#9BA7AF;}
	.st2{fill:#FFFFFF;}
	.st3{fill:#E2E5E7;}
	.st4{fill:#595A66;}
	.st5{fill:#ABE1FA;}
	.st6{fill:#6F707E;}
	.st7{fill:#3BB54A;}
	.st8{fill:#0E9347;}
	.st9{fill:#517CBE;}
	.st10{fill:#65CCEF;}
	.st11{fill:#EE2C39;}
	.st12{fill:#CC202C;}
	.st13{fill:#F16351;}
	.st14{fill:#DDDFE1;}
	.st15{fill:#89C763;}
	.st16{fill:#3689C9;}
	.st17{fill:#1B6FAB;}
	.st18{fill:#4C9FD7;}
	.st19{fill:#FDBA4D;}
	.st20{fill:#F19F36;}
	.st21{fill:#F19F35;}
	.st22{fill:#FFFFFF;stroke:#595A66;stroke-width:2;stroke-miterlimit:10;}
	.st23{fill:#1A70AC;}
	.st24{fill:#35363E;}
</style>
<g>
	<path class="st0" d="M0,57V3c0-1.7,1.3-3,3-3h58c1.7,0,3,1.3,3,3v54c0,1.7-1.3,3-3,3H3C1.3,60,0,58.7,0,57z"/>
	<circle class="st1" cx="3" cy="4" r="1"/>
	<circle class="st1" cx="7" cy="4" r="1"/>
	<circle class="st1" cx="11" cy="4" r="1"/>
	<path class="st2" d="M3,8h58c0.6,0,1,0.4,1,1v48c0,0.6-0.4,1-1,1H3c-0.6,0-1-0.4-1-1V9C2,8.4,2.4,8,3,8z"/>
	<path class="st3" d="M61,5H15c-0.6,0-1-0.4-1-1v0c0-0.6,0.4-1,1-1h46c0.6,0,1,0.4,1,1v0C62,4.6,61.6,5,61,5z"/>
	<path class="st3" d="M5,51V25c0-1.1,0.9-2,2-2h50c1.1,0,2,0.9,2,2v26c0,1.1-0.9,2-2,2H7C5.9,53,5,52.1,5,51z"/>
	<path class="st1" d="M35,30H8c-0.6,0-1,0.4-1,1v4c0,0.6,0.4,1,1,1h27c0.6,0,1-0.4,1-1v-4C36,30.4,35.6,30,35,30z M35,35H8v-4h27V35
		z"/>
	<rect x="8" y="31" class="st2" width="27" height="4"/>
	<path class="st0" d="M54,37l-12,0c-1.7,0-3-1.3-3-3v0c0-1.7,1.3-3,3-3l12,0c1.7,0,3,1.3,3,3v0C57,35.7,55.7,37,54,37z"/>
	<path class="st7" d="M54,36l-12,0c-1.7,0-3-1.3-3-3v0c0-1.7,1.3-3,3-3l12,0c1.7,0,3,1.3,3,3v0C57,34.7,55.7,36,54,36z"/>
	<circle class="st8" cx="48" cy="33" r="1"/>
	<circle class="st8" cx="52" cy="33" r="1"/>
	<circle class="st8" cx="44" cy="33" r="1"/>
	<path class="st0" d="M45,15H19c-0.6,0-1-0.4-1-1v0c0-0.6,0.4-1,1-1h26c0.6,0,1,0.4,1,1v0C46,14.6,45.6,15,45,15z"/>
	<path class="st0" d="M40,19H24c-0.6,0-1-0.4-1-1v0c0-0.6,0.4-1,1-1h16c0.6,0,1,0.4,1,1v0C41,18.6,40.6,19,40,19z"/>
	<path class="st4" d="M45,44H19c-0.6,0-1-0.4-1-1l0,0c0-0.6,0.4-1,1-1h26c0.6,0,1,0.4,1,1l0,0C46,43.6,45.6,44,45,44z"/>
	<path class="st4" d="M40,48H24c-0.6,0-1-0.4-1-1l0,0c0-0.6,0.4-1,1-1h16c0.6,0,1,0.4,1,1l0,0C41,47.6,40.6,48,40,48z"/>
</g>
</svg>
