<?xml version="1.0" encoding="utf-8"?>
<!-- Generator: Adobe Illustrator 21.0.0, SVG Export Plug-In . SVG Version: 6.00 Build 0)  -->
<svg version="1.1" xmlns="http://www.w3.org/2000/svg" xmlns:xlink="http://www.w3.org/1999/xlink" x="0px" y="0px"
	 viewBox="0 0 64 60" style="enable-background:new 0 0 64 60;" xml:space="preserve">
<style type="text/css">
	.st0{fill:#CAD1D8;}
	.st1{fill:#FFFFFF;}
	.st2{fill:#595A66;}
	.st3{fill:#9BA7AF;}
	.st4{fill:#E2E5E7;}
	.st5{fill:#ABE1FA;}
	.st6{fill:#FDBA4D;}
	.st7{fill:#F19F35;}
	.st8{fill:#3BB54A;}
	.st9{fill:#0E9347;}
	.st10{fill:#E6E7E8;}
	.st11{fill:#BCBEC0;}
	.st12{fill:#D1D3D4;}
	.st13{fill:#A7A9AC;}
	.st14{fill:#DCDDDE;}
	.st15{fill:#B1B3B6;}
	.st16{fill:#C7C8CA;}
	.st17{fill:#9D9FA2;}
	.st18{fill:#3689C9;}
	.st19{fill:#EE2C39;}
	.st20{fill:#FFFFFF;stroke:#595A66;stroke-width:2;stroke-miterlimit:10;}
	.st21{fill:#F19F36;}
	.st22{fill:#D4D5D6;}
	.st23{fill:#35363E;}
	.st24{fill:#CC202C;}
	.st25{fill:#1A70AC;}
	.st26{fill:#BD6428;}
	.st27{fill:#A35723;}
	.st28{fill:#A35623;}
	.st29{fill:#DDDFE1;}
	.st30{fill:#1B6FAB;}
	.st31{fill:#165D91;}
	.st32{fill:#699DC4;}
	.st33{fill:#6F707E;}
	.st34{fill:#4C9FD7;}
	.st35{fill:#748B9E;}
	.st36{fill:#78B6E4;}
</style>
<g id="Layer_62">
</g>
<g id="Layer_60">
</g>
<g id="Layer_59">
</g>
<g id="Layer_58">
</g>
<g id="Layer_57">
</g>
<g id="Layer_56">
</g>
<g id="Layer_55">
</g>
<g id="Layer_54">
</g>
<g id="Layer_53">
</g>
<g id="Layer_52">
	<g>
		<g>
			<path class="st0" d="M0,57V3c0-1.7,1.3-3,3-3h58c1.7,0,3,1.3,3,3v54c0,1.7-1.3,3-3,3H3C1.3,60,0,58.7,0,57z"/>
		</g>
		<g>
			<circle class="st3" cx="3" cy="4" r="1"/>
		</g>
		<g>
			<circle class="st3" cx="7" cy="4" r="1"/>
		</g>
		<g>
			<circle class="st3" cx="11" cy="4" r="1"/>
		</g>
		<g>
			<path class="st1" d="M3,8h58c0.6,0,1,0.4,1,1v48c0,0.6-0.4,1-1,1H3c-0.6,0-1-0.4-1-1V9C2,8.4,2.4,8,3,8z"/>
		</g>
		<g>
			<path class="st4" d="M61,5H15c-0.6,0-1-0.4-1-1v0c0-0.6,0.4-1,1-1h46c0.6,0,1,0.4,1,1v0C62,4.6,61.6,5,61,5z"/>
		</g>
		<g>
			<path class="st0" d="M39,29H17c-0.6,0-1-0.4-1-1v0c0-0.6,0.4-1,1-1h22c0.6,0,1,0.4,1,1v0C40,28.6,39.6,29,39,29z"/>
		</g>
		<g>
			<path class="st0" d="M34,33H17c-0.6,0-1-0.4-1-1v0c0-0.6,0.4-1,1-1h17c0.6,0,1,0.4,1,1v0C35,32.6,34.6,33,34,33z"/>
		</g>
		<g>
			<path class="st0" d="M39,39H17c-0.6,0-1-0.4-1-1l0,0c0-0.6,0.4-1,1-1h22c0.6,0,1,0.4,1,1l0,0C40,38.6,39.6,39,39,39z"/>
		</g>
		<g>
			<path class="st0" d="M34,43H17c-0.6,0-1-0.4-1-1l0,0c0-0.6,0.4-1,1-1h17c0.6,0,1,0.4,1,1l0,0C35,42.6,34.6,43,34,43z"/>
		</g>
		<g>
			<path class="st0" d="M39,19H17c-0.6,0-1-0.4-1-1v0c0-0.6,0.4-1,1-1h22c0.6,0,1,0.4,1,1v0C40,18.6,39.6,19,39,19z"/>
		</g>
		<g>
			<path class="st0" d="M34,23H17c-0.6,0-1-0.4-1-1v0c0-0.6,0.4-1,1-1h17c0.6,0,1,0.4,1,1v0C35,22.6,34.6,23,34,23z"/>
		</g>
		<g>
			<path class="st0" d="M39,49H17c-0.6,0-1-0.4-1-1l0,0c0-0.6,0.4-1,1-1h22c0.6,0,1,0.4,1,1l0,0C40,48.6,39.6,49,39,49z"/>
		</g>
		<g>
			<path class="st0" d="M34,53H17c-0.6,0-1-0.4-1-1l0,0c0-0.6,0.4-1,1-1h17c0.6,0,1,0.4,1,1l0,0C35,52.6,34.6,53,34,53z"/>
		</g>
		<g>
			<path class="st2" d="M8,13L8,13c0-0.6,0.4-1,1-1h10c0.6,0,1,0.4,1,1v0c0,0.6-0.4,1-1,1H9C8.4,14,8,13.6,8,13z"/>
		</g>
		<g>
			<path class="st2" d="M22,13L22,13c0-0.6,0.4-1,1-1h5c0.6,0,1,0.4,1,1v0c0,0.6-0.4,1-1,1h-5C22.4,14,22,13.6,22,13z"/>
		</g>
		<g>
			<path class="st4" d="M8,53v-4c0-1.1,0.9-2,2-2h44c1.1,0,2,0.9,2,2l0,4c0,1.1-0.9,2-2,2H10C8.9,55,8,54.1,8,53z"/>
		</g>
		<g>
			<path class="st0" d="M13,17H9c-0.6,0-1,0.4-1,1v4c0,0.6,0.4,1,1,1h4c0.6,0,1-0.4,1-1v-4C14,17.4,13.6,17,13,17z M13,22H9v-4h4V22
				z"/>
		</g>
		<g>
			<path class="st0" d="M13,27H9c-0.6,0-1,0.4-1,1v4c0,0.6,0.4,1,1,1h4c0.6,0,1-0.4,1-1v-4C14,27.4,13.6,27,13,27z"/>
		</g>
		<g>
			<path class="st0" d="M13,37H9c-0.6,0-1,0.4-1,1v4c0,0.6,0.4,1,1,1h4c0.6,0,1-0.4,1-1v-4C14,37.4,13.6,37,13,37z M13,42H9v-4h4V42
				z"/>
		</g>
		<g>
			<path class="st8" d="M11,32c-0.3,0-0.5-0.1-0.7-0.3l-1-1c-0.4-0.4-0.4-1,0-1.4s1-0.4,1.4,0l0.3,0.3l2.3-2.3c0.4-0.4,1-0.4,1.4,0
				s0.4,1,0,1.4l-3,3C11.5,31.9,11.3,32,11,32z"/>
		</g>
		<g>
			<path class="st3" d="M53,50h-1v-1c0-0.6-0.4-1-1-1s-1,0.4-1,1v1h-1c-0.6,0-1,0.4-1,1s0.4,1,1,1h1v1c0,0.6,0.4,1,1,1s1-0.4,1-1v-1
				h1c0.6,0,1-0.4,1-1S53.6,50,53,50z"/>
		</g>
	</g>
</g>
<g id="Layer_51">
</g>
<g id="Layer_50">
</g>
<g id="Layer_49">
</g>
<g id="Layer_48">
</g>
<g id="Layer_47">
</g>
<g id="Layer_46">
</g>
<g id="Layer_45">
</g>
<g id="Layer_44">
</g>
<g id="Layer_43">
</g>
<g id="Layer_42">
</g>
<g id="Layer_41">
</g>
<g id="Layer_40">
</g>
<g id="Layer_39">
</g>
<g id="Layer_38">
</g>
<g id="Layer_37">
</g>
<g id="Layer_36">
</g>
<g id="Layer_35">
</g>
<g id="Layer_34">
</g>
<g id="Layer_33">
</g>
<g id="Layer_32">
</g>
<g id="Layer_31">
</g>
<g id="Layer_30">
</g>
<g id="Layer_29">
</g>
<g id="Layer_28">
</g>
<g id="Layer_27">
</g>
<g id="Layer_26">
</g>
<g id="Layer_25">
</g>
<g id="Layer_24">
</g>
<g id="Layer_23">
</g>
<g id="Layer_22">
</g>
<g id="Layer_21">
</g>
<g id="Layer_20">
</g>
<g id="Layer_19">
</g>
<g id="Layer_18">
</g>
<g id="Layer_17">
</g>
<g id="Layer_16">
</g>
<g id="Layer_15">
</g>
<g id="Layer_14">
</g>
<g id="Layer_13">
</g>
<g id="Layer_12">
</g>
<g id="Layer_11">
</g>
<g id="Layer_10">
</g>
<g id="Layer_9">
</g>
<g id="Layer_8">
</g>
<g id="Layer_7">
</g>
<g id="Layer_6">
</g>
<g id="Layer_5">
</g>
<g id="Layer_4">
</g>
<g id="Layer_3">
</g>
<g id="Layer_2">
</g>
</svg>
