<?xml version="1.0" encoding="utf-8"?>
<!-- Generator: Adobe Illustrator 21.0.0, SVG Export Plug-In . SVG Version: 6.00 Build 0)  -->
<svg version="1.1" id="Layer_1" xmlns="http://www.w3.org/2000/svg" xmlns:xlink="http://www.w3.org/1999/xlink" x="0px" y="0px"
	 viewBox="0 0 64 60" style="enable-background:new 0 0 64 60;" xml:space="preserve">
<style type="text/css">
	.st0{fill:#CAD1D8;}
	.st1{fill:#9BA7AF;}
	.st2{fill:#FFFFFF;}
	.st3{fill:#E2E5E7;}
	.st4{fill:#595A66;}
	.st5{fill:#ABE1FA;}
	.st6{fill:#6F707E;}
	.st7{fill:#3BB54A;}
	.st8{fill:#0E9347;}
	.st9{fill:#517CBE;}
	.st10{fill:#65CCEF;}
	.st11{fill:#EE2C39;}
	.st12{fill:#CC202C;}
	.st13{fill:#F16351;}
	.st14{fill:#DDDFE1;}
	.st15{fill:#89C763;}
	.st16{fill:#3689C9;}
	.st17{fill:#1B6FAB;}
	.st18{fill:#4C9FD7;}
	.st19{fill:#FDBA4D;}
	.st20{fill:#F19F36;}
	.st21{fill:#F19F35;}
	.st22{fill:#FFFFFF;stroke:#595A66;stroke-width:2;stroke-miterlimit:10;}
	.st23{fill:#1A70AC;}
	.st24{fill:#35363E;}
</style>
<g>
	<path class="st0" d="M0,57V3c0-1.7,1.3-3,3-3h58c1.7,0,3,1.3,3,3v54c0,1.7-1.3,3-3,3H3C1.3,60,0,58.7,0,57z"/>
	<circle class="st1" cx="3" cy="4" r="1"/>
	<circle class="st1" cx="7" cy="4" r="1"/>
	<circle class="st1" cx="11" cy="4" r="1"/>
	<path class="st2" d="M3,8h58c0.6,0,1,0.4,1,1v48c0,0.6-0.4,1-1,1H3c-0.6,0-1-0.4-1-1V9C2,8.4,2.4,8,3,8z"/>
	<path class="st3" d="M61,5H15c-0.6,0-1-0.4-1-1v0c0-0.6,0.4-1,1-1h46c0.6,0,1,0.4,1,1v0C62,4.6,61.6,5,61,5z"/>
	<path class="st5" d="M39,36H25c-0.6,0-1-0.4-1-1V13c0-0.6,0.4-1,1-1h14c0.6,0,1,0.4,1,1v22C40,35.6,39.6,36,39,36z"/>
	<circle class="st19" cx="29" cy="18" r="2"/>
	<path class="st4" d="M25,36h12l-6.2-7.1c-0.4-0.5-1.1-0.5-1.5,0L24,34v1C24,35.6,24.4,36,25,36z"/>
	<path class="st4" d="M40,29l-2.3-2.3c-0.4-0.4-1-0.4-1.4,0L27,36h12c0.6,0,1-0.4,1-1V29z"/>
	<path class="st24" d="M34.7,31.2c-0.6-0.7-1.6-0.9-2.4-0.5L37,36h2L34.7,31.2z"/>
	<path class="st2" d="M36.4,20c-0.6,0-1.2,0.4-1.4,0.9c-0.2-0.2-0.5-0.3-0.8-0.3c-0.7,0-1.2,0.5-1.2,1.2c0,0.7,0.6,1.2,1.2,1.2h2.2
		c0.9,0,1.6-0.7,1.6-1.5C38,20.7,37.3,20,36.4,20z"/>
	<path class="st6" d="M27.7,32.3L27.7,32.3c0.2,0.2,0.5,0.2,0.7,0l1.4-1.4c0.2-0.2,0.2-0.5,0-0.7l0,0c-0.2-0.2-0.5-0.2-0.7,0
		l-1.4,1.4C27.5,31.8,27.5,32.1,27.7,32.3z"/>
	<path class="st6" d="M35.1,29.9L35.1,29.9c0.2,0.2,0.5,0.2,0.7,0l1.4-1.4c0.2-0.2,0.2-0.5,0-0.7h0c-0.2-0.2-0.5-0.2-0.7,0l-1.4,1.4
		C35,29.3,35,29.7,35.1,29.9z"/>
	<path class="st5" d="M21,34H7c-0.6,0-1-0.4-1-1V13c0-0.6,0.4-1,1-1h14c0.6,0,1,0.4,1,1v20C22,33.6,21.6,34,21,34z"/>
	<circle class="st19" cx="11" cy="16" r="2"/>
	<path class="st4" d="M7,34h12l-6.2-7.1c-0.4-0.5-1.1-0.5-1.5,0L6,32v1C6,33.6,6.4,34,7,34z"/>
	<path class="st4" d="M22,27l-2.3-2.3c-0.4-0.4-1-0.4-1.4,0L9,34h12c0.6,0,1-0.4,1-1V27z"/>
	<path class="st24" d="M16.7,29.2c-0.6-0.7-1.6-0.9-2.4-0.5L19,34h2L16.7,29.2z"/>
	<path class="st2" d="M18.4,17c-0.6,0-1.2,0.4-1.4,0.9c-0.2-0.2-0.5-0.3-0.8-0.3c-0.7,0-1.2,0.5-1.2,1.2c0,0.7,0.6,1.2,1.2,1.2h2.2
		c0.9,0,1.6-0.7,1.6-1.5C20,17.7,19.3,17,18.4,17z"/>
	<path class="st6" d="M9.7,30.3L9.7,30.3c0.2,0.2,0.5,0.2,0.7,0l1.4-1.4c0.2-0.2,0.2-0.5,0-0.7h0c-0.2-0.2-0.5-0.2-0.7,0l-1.4,1.4
		C9.5,29.8,9.5,30.1,9.7,30.3z"/>
	<path class="st6" d="M17.1,27.9L17.1,27.9c0.2,0.2,0.5,0.2,0.7,0l1.4-1.4c0.2-0.2,0.2-0.5,0-0.7l0,0c-0.2-0.2-0.5-0.2-0.7,0
		l-1.4,1.4C17,27.3,17,27.7,17.1,27.9z"/>
	<path class="st5" d="M57,54H43c-0.6,0-1-0.4-1-1V33c0-0.6,0.4-1,1-1h14c0.6,0,1,0.4,1,1v20C58,53.6,57.6,54,57,54z"/>
	<circle class="st19" cx="47" cy="36" r="2"/>
	<path class="st4" d="M43,54h12l-6.2-7.1c-0.4-0.5-1.1-0.5-1.5,0L42,52v1C42,53.6,42.4,54,43,54z"/>
	<path class="st4" d="M58,47l-2.3-2.3c-0.4-0.4-1-0.4-1.4,0L45,54h12c0.6,0,1-0.4,1-1V47z"/>
	<path class="st24" d="M52.7,49.2c-0.6-0.7-1.6-0.9-2.4-0.5L55,54h2L52.7,49.2z"/>
	<path class="st2" d="M53.4,38c-0.6,0-1.2,0.4-1.4,0.9c-0.2-0.2-0.5-0.3-0.8-0.3c-0.7,0-1.2,0.5-1.2,1.2c0,0.7,0.6,1.2,1.2,1.2h2.2
		c0.9,0,1.6-0.7,1.6-1.5C55,38.7,54.3,38,53.4,38z"/>
	<path class="st6" d="M45.7,50.3L45.7,50.3c0.2,0.2,0.5,0.2,0.7,0l1.4-1.4c0.2-0.2,0.2-0.5,0-0.7l0,0c-0.2-0.2-0.5-0.2-0.7,0
		l-1.4,1.4C45.5,49.8,45.5,50.1,45.7,50.3z"/>
	<path class="st6" d="M53.1,47.9L53.1,47.9c0.2,0.2,0.5,0.2,0.7,0l1.4-1.4c0.2-0.2,0.2-0.5,0-0.7l0,0c-0.2-0.2-0.5-0.2-0.7,0
		l-1.4,1.4C53,47.3,53,47.7,53.1,47.9z"/>
	<g>
		<path class="st5" d="M39,54H25c-0.6,0-1-0.4-1-1V39c0-0.6,0.4-1,1-1h14c0.6,0,1,0.4,1,1v14C40,53.6,39.6,54,39,54z"/>
		<path class="st4" d="M40,53v-2.8l-4.5-4.5c-0.3-0.3-0.9-0.3-1.3,0L25.9,54H39C39.6,54,40,53.6,40,53z"/>
		<path class="st4" d="M25.2,47.6L24,48.8V53c0,0.6,0.4,1,1,1h7.1l-5.6-6.4C26.2,47.2,25.6,47.2,25.2,47.6z"/>
		<path class="st24" d="M31.4,51.1c-0.6-0.6-1.4-0.8-2.2-0.4l2.9,3.3h1.8L31.4,51.1z"/>
		<path class="st6" d="M32.7,48.9L32.7,48.9c0.2,0.2,0.5,0.2,0.7,0l1.4-1.4c0.2-0.2,0.2-0.5,0-0.7v0c-0.2-0.2-0.5-0.2-0.7,0
			l-1.4,1.4C32.5,48.3,32.5,48.7,32.7,48.9z"/>
		<path class="st24" d="M40,50.2l-0.7-0.7c-0.2-0.2-0.6-0.2-0.9,0c-0.2,0.2-0.2,0.6,0,0.9l0.5,0.5c0.5,0.5,0.9,1.1,1.1,1.8V50.2z"/>
		<path class="st6" d="M25.7,48.4c-0.2-0.2-0.5-0.2-0.6,0L24,49.5v0.9c0.2,0.1,0.4,0,0.5-0.1l1.3-1.3C25.9,48.8,25.9,48.6,25.7,48.4
			L25.7,48.4z"/>
	</g>
	<g>
		<path class="st5" d="M21.1,54h-14c-0.6,0-1-0.4-1-1V37c0-0.6,0.4-1,1-1h14c0.6,0,1,0.4,1,1v16C22.1,53.6,21.6,54,21.1,54z"/>
		<path class="st4" d="M22.1,53v-2.8l-4.5-4.5c-0.3-0.3-0.9-0.3-1.3,0L7.9,54h13.1C21.6,54,22.1,53.6,22.1,53z"/>
		<path class="st4" d="M7.3,47.6l-1.2,1.2V53c0,0.6,0.4,1,1,1h7.1l-5.6-6.4C8.3,47.2,7.6,47.2,7.3,47.6z"/>
		<path class="st24" d="M13.5,51.1c-0.6-0.6-1.4-0.8-2.2-0.4l2.9,3.3H16L13.5,51.1z"/>
		<path class="st6" d="M14.8,48.9L14.8,48.9c0.2,0.2,0.5,0.2,0.7,0l1.4-1.4c0.2-0.2,0.2-0.5,0-0.7v0c-0.2-0.2-0.5-0.2-0.7,0
			l-1.4,1.4C14.6,48.3,14.6,48.7,14.8,48.9z"/>
		<path class="st24" d="M22.1,50.2l-0.7-0.7c-0.2-0.2-0.6-0.2-0.9,0c-0.2,0.2-0.2,0.6,0,0.9l0.5,0.5c0.5,0.5,0.9,1.1,1.1,1.8V50.2z"
			/>
		<path class="st6" d="M7.8,48.4c-0.2-0.2-0.5-0.2-0.6,0l-1.1,1.1v0.9c0.2,0.1,0.4,0,0.5-0.1L7.8,49C8,48.8,8,48.6,7.8,48.4
			L7.8,48.4z"/>
	</g>
	<circle class="st19" cx="11" cy="40" r="2"/>
	<path class="st2" d="M18.4,40c-0.6,0-1.2,0.4-1.4,0.9c-0.2-0.2-0.5-0.3-0.8-0.3c-0.7,0-1.2,0.5-1.2,1.2c0,0.7,0.6,1.2,1.2,1.2h2.2
		c0.9,0,1.6-0.7,1.6-1.5C20,40.7,19.3,40,18.4,40z"/>
	<circle class="st19" cx="28" cy="42" r="2"/>
	<path class="st2" d="M36.4,40c-0.6,0-1.2,0.4-1.4,0.9c-0.2-0.2-0.5-0.3-0.8-0.3c-0.7,0-1.2,0.5-1.2,1.2c0,0.7,0.6,1.2,1.2,1.2h2.2
		c0.9,0,1.6-0.7,1.6-1.5C38,40.7,37.3,40,36.4,40z"/>
	<g>
		<path class="st5" d="M57,30H43c-0.6,0-1-0.4-1-1V13c0-0.6,0.4-1,1-1h14c0.6,0,1,0.4,1,1v16C58,29.6,57.6,30,57,30z"/>
		<path class="st4" d="M58,29v-2.8l-4.5-4.5c-0.3-0.3-0.9-0.3-1.3,0L43.9,30H57C57.6,30,58,29.6,58,29z"/>
		<path class="st4" d="M43.2,23.6L42,24.8V29c0,0.6,0.4,1,1,1h7.1l-5.6-6.4C44.2,23.2,43.6,23.2,43.2,23.6z"/>
		<path class="st24" d="M49.4,27.1c-0.6-0.6-1.4-0.8-2.2-0.4l2.9,3.3h1.8L49.4,27.1z"/>
		<path class="st6" d="M50.7,24.9L50.7,24.9c0.2,0.2,0.5,0.2,0.7,0l1.4-1.4c0.2-0.2,0.2-0.5,0-0.7l0,0c-0.2-0.2-0.5-0.2-0.7,0
			l-1.4,1.4C50.5,24.3,50.5,24.7,50.7,24.9z"/>
		<path class="st24" d="M58,26.2l-0.7-0.7c-0.2-0.2-0.6-0.2-0.9,0c-0.2,0.2-0.2,0.6,0,0.9l0.5,0.5c0.5,0.5,0.9,1.1,1.1,1.8V26.2z"/>
		<path class="st6" d="M43.7,24.4c-0.2-0.2-0.5-0.2-0.6,0L42,25.5v0.9c0.2,0.1,0.4,0,0.5-0.1l1.3-1.3C43.9,24.8,43.9,24.6,43.7,24.4
			L43.7,24.4z"/>
	</g>
	<circle class="st19" cx="46.9" cy="16" r="2"/>
	<path class="st2" d="M54.4,16c-0.6,0-1.2,0.4-1.4,0.9c-0.2-0.2-0.5-0.3-0.8-0.3c-0.7,0-1.2,0.5-1.2,1.2c0,0.7,0.6,1.2,1.2,1.2h2.2
		c0.9,0,1.6-0.7,1.6-1.5C55.9,16.7,55.2,16,54.4,16z"/>
</g>
</svg>
