<?xml version="1.0" encoding="utf-8"?>
<!-- Generator: Adobe Illustrator 25.1.0, SVG Export Plug-In . SVG Version: 6.00 Build 0)  -->
<svg version="1.1" id="Layer_2" xmlns="http://www.w3.org/2000/svg" xmlns:xlink="http://www.w3.org/1999/xlink" x="0px" y="0px"
	 viewBox="0 0 46 46" style="enable-background:new 0 0 46 46;" xml:space="preserve">
<style type="text/css">
	.st0{fill-rule:evenodd;clip-rule:evenodd;fill:#FFFFFF;}
	.st1{fill-rule:evenodd;clip-rule:evenodd;fill:#4285F4;}
	.st2{fill-rule:evenodd;clip-rule:evenodd;fill:#34A853;}
	.st3{fill-rule:evenodd;clip-rule:evenodd;fill:#FBBC05;}
	.st4{fill-rule:evenodd;clip-rule:evenodd;fill:#EA4335;}
</style>
<g>
	<path class="st0" d="M6.9,4h32.1C40.7,4,42,5.3,42,6.9v32.1c0,1.6-1.3,2.9-2.9,2.9H6.9C5.3,42,4,40.7,4,39.1V6.9C4,5.3,5.3,4,6.9,4
		z"/>
	<path class="st1" d="M31.6,23.2c0-0.6-0.1-1.3-0.2-1.8H23v3.5h4.8C27.6,26,27,26.9,26,27.6v2.3H29C30.7,28.3,31.6,25.9,31.6,23.2z"
		/>
	<path class="st2" d="M23,32c2.4,0,4.5-0.8,6-2.2L26,27.6c-0.8,0.5-1.8,0.9-3,0.9c-2.3,0-4.3-1.6-5-3.7h-3V27C16.4,30,19.5,32,23,32
		z"/>
	<path class="st3" d="M18,24.7c-0.2-0.5-0.3-1.1-0.3-1.7s0.1-1.2,0.3-1.7V19h-3c-0.6,1.2-1,2.6-1,4s0.3,2.8,1,4L18,24.7z"/>
	<path class="st4" d="M23,17.6c1.3,0,2.5,0.5,3.4,1.3l2.6-2.6c-1.6-1.5-3.6-2.3-6-2.3c-3.5,0-6.6,2-8,5l3,2.3
		C18.7,19.2,20.7,17.6,23,17.6z"/>
</g>
</svg>
