<?xml version="1.0" encoding="utf-8"?>
<!-- Generator: Adobe Illustrator 24.3.0, SVG Export Plug-In . SVG Version: 6.00 Build 0)  -->
<svg version="1.1" id="Capa_1" xmlns="http://www.w3.org/2000/svg" xmlns:xlink="http://www.w3.org/1999/xlink" x="0px" y="0px"
	 viewBox="0 0 512 512" style="enable-background:new 0 0 512 512;" xml:space="preserve">
<style type="text/css">
	.st0{display:none;}
	.st1{display:inline;}
	.st2{fill:#FFCE00;}
	.st3{display:inline;fill:#2CC47F;}
	.st4{display:inline;fill:#079E59;}
	.st5{display:inline;fill:#1DD882;}
	.st6{fill:#333940;}
	.st7{fill:#555A66;}
	.st8{display:inline;fill:#FFCE00;}
	.st9{display:inline;fill:#FDBA12;}
</style>
<g>
	<g class="st0">
		<g class="st1">
			<g>
				<g>
					<g>
						<path class="st2" d="M79.4,441.3C30.5,394.7,0,328.9,0,256C0,114.6,114.6,0,256,0s256,114.6,256,256
							c0,72.9-30.5,138.7-79.4,185.3H79.4z"/>
					</g>
				</g>
			</g>
		</g>
	</g>
	<path d="M324.8,103.9v337.4h107.8c41.4-39.5,69.6-92.7,77.3-152.4L324.8,103.9z"/>
	<g class="st0">
		<path class="st3" d="M154.1,265.9c-48.2,24.3-81.2,74.2-81.2,131.9c0,15.2,2.3,29.8,6.5,43.6c21.6,20.6,46.9,37.5,74.7,49.6
			l13.3-112.5L154.1,265.9z"/>
		<path class="st4" d="M357.9,265.9l-9.9,116.2l9.9,108.8c27.8-12.1,53.1-29,74.7-49.6c4.2-13.8,6.5-28.4,6.5-43.6
			C439.2,340.1,406.1,290.2,357.9,265.9L357.9,265.9z"/>
	</g>
	<g class="st0">
		<path class="st5" d="M256,77.1c-56.3,0-101.9,45.6-101.9,101.9v311.9C185.3,504.5,219.8,512,256,512s70.7-7.5,101.9-21.1V179
			C357.9,122.7,312.3,77.1,256,77.1z"/>
	</g>
	<g class="st0">
		<path class="st3" d="M357.9,179c0-56.3-45.6-101.9-101.9-101.9V512c36.2,0,70.7-7.5,101.9-21.1V179z"/>
	</g>
	<g class="st0">
		<g class="st1">
			<ellipse class="st6" cx="310.3" cy="169.8" rx="17.3" ry="17.3"/>
		</g>
		<g class="st1">
			<ellipse class="st7" cx="201.7" cy="169.6" rx="17.3" ry="17.3"/>
		</g>
	</g>
	<g class="st0">
		<path class="st8" d="M282.7,208.5L256,253.1l-26.7-44.6v-54.7c0-14.7,12-26.7,26.7-26.7c14.7,0,26.7,12,26.7,26.7L282.7,208.5z"/>
	</g>
	<g class="st0">
		<path class="st9" d="M282.7,153.8c0-14.7-11.9-26.7-26.7-26.7v126l26.7-44.6V153.8z"/>
	</g>
</g>
</svg>
