<?xml version="1.0" encoding="utf-8"?>
<!-- Generator: Adobe Illustrator 24.3.0, SVG Export Plug-In . SVG Version: 6.00 Build 0)  -->
<svg version="1.1" id="Capa_1" xmlns="http://www.w3.org/2000/svg" xmlns:xlink="http://www.w3.org/1999/xlink" x="0px" y="0px"
	 viewBox="0 0 512 512" style="enable-background:new 0 0 512 512;" xml:space="preserve">
<style type="text/css">
	.st0{display:none;fill:#A3D4FF;}
	.st1{display:none;fill:#A65D4E;}
	.st2{display:none;fill:#784132;}
	.st3{display:none;}
	.st4{display:inline;fill:#C38778;}
	.st5{display:inline;fill:#A65D4E;}
	.st6{display:inline;}
	.st7{fill:#A65D4E;}
	.st8{fill:#784132;}
	.st9{fill:#414952;}
	.st10{fill:#23272B;}
	.st11{display:inline;fill:#784132;}
	.st12{display:inline;fill:#414952;}
	.st13{display:inline;fill:#23272B;}
</style>
<g>
	<path class="st0" d="M422.9,450.2C477.4,403.2,512,333.6,512,256C512,114.6,397.4,0,256,0S0,114.6,0,256
		c0,77.6,34.6,147.2,89.1,194.2H422.9z"/>
	<path d="M512,256c0-11.1-0.7-22.1-2.1-32.9L415,128.2l-311.5,55.3l60,60l195.8,40.4l63.5,166.3C477.4,403.2,512,333.6,512,256
		L512,256z"/>
	<path class="st1" d="M152.7,455.6c0-57.1,46.3-103.3,103.3-103.3s103.3,46.3,103.3,103.3v34.7c23.2-10.3,44.6-23.8,63.6-40.2
		l-37.1-207.1H126.2L89.1,450.1c19,16.3,40.4,29.9,63.6,40.2V455.6z"/>
	<path class="st2" d="M359.3,456.6v33.7c23.2-10.3,44.6-23.8,63.6-40.2l-37.1-207.1H256v110.2C313.1,353.3,359.3,399.5,359.3,456.6
		L359.3,456.6z"/>
	<g class="st3">
		<path class="st4" d="M256,351.3c-57.1,0-103.3,46.3-103.3,103.3v35.7c31.6,14,66.6,21.7,103.3,21.7s71.7-7.8,103.3-21.7v-35.7
			C359.3,397.5,313.1,351.3,256,351.3z"/>
	</g>
	<g class="st3">
		<path class="st5" d="M256,351.3V512c36.8,0,71.7-7.8,103.3-21.7v-35.7C359.3,397.5,313.1,351.3,256,351.3L256,351.3z"/>
	</g>
	<g class="st3">
		<g class="st6">
			<g>
				<path class="st7" d="M143.9,122.7c16.8,11.1,46.1,50.2,35,67c-11.1,16.8-58.5,5-75.3-6.1c-16.8-11.1-21.4-33.8-10.3-50.6
					S127.1,111.5,143.9,122.7z"/>
			</g>
		</g>
		<g class="st6">
			<g>
				<path class="st8" d="M368.1,122.7c-16.8,11.1-46.1,50.2-35,67s58.5,5,75.3-6.1c16.8-11.1,21.4-33.8,10.3-50.6
					S384.9,111.5,368.1,122.7L368.1,122.7z"/>
			</g>
		</g>
	</g>
	<g class="st3">
		<path class="st4" d="M399.3,229.8c0,71-64.2,97.1-143.3,97.1s-143.3-26.1-143.3-97.1S176.8,77,256,77S399.3,158.8,399.3,229.8
			L399.3,229.8z"/>
	</g>
	<g class="st3">
		<path class="st5" d="M256,77v249.9c79.2,0,143.3-26.1,143.3-97.1C399.3,158.8,335.2,77,256,77L256,77z"/>
	</g>
	<g class="st3">
		<g class="st6">
			<g>
				<circle class="st9" cx="187.5" cy="166.9" r="15"/>
			</g>
		</g>
		<g class="st6">
			<g>
				<circle class="st10" cx="324.5" cy="166.9" r="15"/>
			</g>
		</g>
	</g>
	<g class="st3">
		<path class="st5" d="M250.2,169.6h11.5c23.3,0,41.3,17.5,38.3,37.3l-5.8,37.5c-2.5,16.4-18.9,28.7-38.3,28.7s-35.8-12.3-38.3-28.7
			l-5.8-37.5C208.9,187.1,226.9,169.6,250.2,169.6L250.2,169.6z"/>
	</g>
	<g class="st3">
		<path class="st11" d="M261.8,169.6H256v103.5c19.4,0,35.8-12.3,38.3-28.7l5.8-37.5C303.1,187.1,285.1,169.6,261.8,169.6
			L261.8,169.6z"/>
	</g>
	<g class="st3">
		<path class="st12" d="M282.4,210.2c0,11.8-11.8,21.3-26.4,21.3s-26.4-9.5-26.4-21.3s11.8-12.7,26.4-12.7S282.4,198.5,282.4,210.2z
			"/>
	</g>
	<g class="st3">
		<path class="st13" d="M256,197.5v34c14.6,0,26.4-9.5,26.4-21.3S270.6,197.5,256,197.5z"/>
	</g>
</g>
</svg>
