<?xml version="1.0" encoding="utf-8"?>
<!-- Generator: Adobe Illustrator 24.3.0, SVG Export Plug-In . SVG Version: 6.00 Build 0)  -->
<svg version="1.1" id="Capa_1" xmlns="http://www.w3.org/2000/svg" xmlns:xlink="http://www.w3.org/1999/xlink" x="0px" y="0px"
	 viewBox="0 0 512 512" style="enable-background:new 0 0 512 512;" xml:space="preserve">
<style type="text/css">
	.st0{display:none;}
	.st1{display:inline;}
	.st2{fill:#FF6C52;}
	.st3{display:inline;fill:#FDBA12;}
	.st4{display:inline;fill:#FFA300;}
	.st5{display:none;fill:#FFCE00;}
	.st6{display:none;fill:#FDBA12;}
	.st7{display:inline;fill:#FFE89C;}
	.st8{display:inline;fill:#FAD17F;}
	.st9{fill:#FFFFFF;}
	.st10{fill:#414952;}
	.st11{fill:#E9EDF5;}
	.st12{fill:#23272B;}
	.st13{display:inline;fill:#7E8596;}
	.st14{display:inline;fill:#636978;}
	.st15{display:inline;fill:#FFFFFF;}
	.st16{display:inline;fill:#E9EDF5;}
	.st17{display:inline;fill:#FFCE00;}
</style>
<g>
	<g class="st0">
		<g class="st1">
			<g>
				<g>
					<g>
						<g>
							<circle class="st2" cx="256" cy="256" r="256"/>
						</g>
					</g>
				</g>
			</g>
		</g>
	</g>
	<path d="M512,256c0-10.6-0.6-21.1-1.9-31.3l-89.4-89.4L58.5,318.1L252.4,512c1.2,0,2.4,0,3.6,0C397.4,512,512,397.4,512,256
		L512,256z"/>
	<g class="st0">
		<path class="st3" d="M104.2,222.7l-57.9-17l12.1,112.4l69.3-37.1L104.2,222.7z"/>
	</g>
	<g class="st0">
		<path class="st4" d="M407.8,222.7l57.9-17l-12.1,112.4l-69.3-37.1L407.8,222.7z"/>
	</g>
	<path class="st5" d="M256,189.1c73.8,0,137.9,41.8,169.9,103c2.5-11.6,3.8-23.7,3.8-36.1c0-95.9-77.8-173.7-173.7-173.7
		S82.3,160.1,82.3,256c0,12.4,1.3,24.4,3.8,36.1C118.1,230.9,182.2,189.1,256,189.1z"/>
	<path class="st6" d="M425.9,292.1c2.5-11.6,3.8-23.7,3.8-36.1c0-95.9-77.8-173.7-173.7-173.7v106.7
		C329.8,189.1,393.9,230.9,425.9,292.1z"/>
	<g class="st0">
		<path class="st7" d="M256,188.1c-74,0-138.1,41.9-170.1,103.3c16.3,78.9,86.3,138.3,170.1,138.3s153.7-59.3,170.1-138.3
			C394.1,230,330,188.1,256,188.1z"/>
	</g>
	<g class="st0">
		<path class="st8" d="M256,188.1v241.6c83.8,0,153.7-59.3,170.1-138.3C394.1,230,330,188.1,256,188.1L256,188.1z"/>
	</g>
	<g class="st0">
		<g class="st1">
			<circle class="st9" cx="120" cy="162.4" r="39.5"/>
		</g>
		<g class="st1">
			<circle class="st10" cx="111.3" cy="162.4" r="15"/>
		</g>
		<g class="st1">
			<circle class="st11" cx="392" cy="162.4" r="39.5"/>
		</g>
		<g class="st1">
			<circle class="st12" cx="400.7" cy="162.4" r="15"/>
		</g>
	</g>
	<g class="st0">
		
			<ellipse transform="matrix(0.3161 -0.9487 0.9487 0.3161 -1.3188 369.9535)" class="st13" cx="255.9" cy="185.9" rx="42.2" ry="42.2"/>
		<path class="st14" d="M256,143.7v84.4c23.3,0,42.2-18.9,42.2-42.2S279.3,143.7,256,143.7L256,143.7z"/>
		<path class="st15" d="M256,243.1c-31.5,0-57.2-25.7-57.2-57.2s25.7-57.2,57.2-57.2s57.2,25.7,57.2,57.2S287.5,243.1,256,243.1
			L256,243.1z M256,158.7c-15,0-27.2,12.2-27.2,27.2s12.2,27.2,27.2,27.2s27.2-12.2,27.2-27.2S271,158.7,256,158.7L256,158.7z"/>
		<path class="st16" d="M256,128.7v30c15,0,27.2,12.2,27.2,27.2S271,213.1,256,213.1v30c31.5,0,57.2-25.7,57.2-57.2
			S287.5,128.7,256,128.7L256,128.7z"/>
	</g>
	<g class="st0">
		<ellipse class="st17" cx="127.8" cy="306.7" rx="19.8" ry="19.8"/>
	</g>
	<g class="st0">
		
			<ellipse transform="matrix(0.23 -0.9732 0.9732 0.23 -221.2289 438.6591)" class="st17" cx="166.6" cy="359.1" rx="14.9" ry="14.9"/>
	</g>
	<g class="st0">
		
			<ellipse transform="matrix(0.23 -0.9732 0.9732 0.23 -152.5861 431.547)" class="st17" cx="196.4" cy="312.2" rx="16.1" ry="16.1"/>
	</g>
	<g class="st0">
		<circle class="st17" cx="256" cy="334.2" r="16.1"/>
	</g>
	<g class="st0">
		<path class="st3" d="M256,318.1v32.2c8.9,0,16.1-7.2,16.1-16.1S264.9,318.1,256,318.1z"/>
	</g>
	<g class="st0">
		<circle class="st17" cx="166.7" cy="250" r="15.5"/>
	</g>
	<g class="st0">
		<circle class="st17" cx="229.6" cy="379" r="12.8"/>
	</g>
	<g class="st0">
		
			<ellipse transform="matrix(0.9238 -0.3829 0.3829 0.9238 -88.4333 109.0526)" class="st17" cx="229.7" cy="276.7" rx="11.2" ry="11.2"/>
	</g>
	<g class="st0">
		<ellipse class="st3" cx="384.1" cy="306.8" rx="19.8" ry="19.8"/>
	</g>
	<g class="st0">
		<ellipse transform="matrix(0.9732 -0.23 0.23 0.9732 -73.2851 89.0687)" class="st3" cx="345.3" cy="358.8" rx="14.9" ry="14.9"/>
	</g>
	<g class="st0">
		<ellipse class="st3" cx="315.5" cy="311.9" rx="16.1" ry="16.1"/>
	</g>
	<g class="st0">
		<circle class="st3" cx="345.3" cy="250" r="15.5"/>
	</g>
	<g class="st0">
		<circle class="st3" cx="282.4" cy="379" r="12.8"/>
	</g>
	<g class="st0">
		<ellipse class="st3" cx="282.5" cy="276.8" rx="11.2" ry="11.2"/>
	</g>
</g>
</svg>
