<?xml version="1.0" encoding="utf-8"?>
<!-- Generator: Adobe Illustrator 24.3.0, SVG Export Plug-In . SVG Version: 6.00 Build 0)  -->
<svg version="1.1" id="Capa_1" xmlns="http://www.w3.org/2000/svg" xmlns:xlink="http://www.w3.org/1999/xlink" x="0px" y="0px"
	 viewBox="0 0 512 512" style="enable-background:new 0 0 512 512;" xml:space="preserve">
<style type="text/css">
	.st0{display:none;fill:#FFCE00;}
	.st1{display:none;}
	.st2{display:inline;fill:#A65D4E;}
	.st3{display:inline;fill:#784132;}
	.st4{display:inline;fill:#FFFFFF;}
	.st5{display:inline;fill:#E9EDF5;}
	.st6{display:inline;}
	.st7{fill:#7E8596;}
	.st8{fill:#636978;}
	.st9{fill:#414952;}
	.st10{fill:#23272B;}
	.st11{display:inline;fill:#414952;}
	.st12{display:inline;fill:#23272B;}
	.st13{display:inline;fill:#C38778;}
</style>
<g>
	<path class="st0" d="M415.4,456.3C474.3,409.4,512,337.1,512,256C512,114.6,397.4,0,256,0S0,114.6,0,256
		c0,81.1,37.7,153.4,96.6,200.3H415.4z"/>
	<path d="M415.4,456.3C474.3,409.4,512,337.1,512,256c0-1.9,0-3.8-0.1-5.7L357.8,95.9L415.4,456.3z"/>
	<g class="st1">
		<path class="st2" d="M359.3,490.3c20.2-8.9,39-20.4,56.1-34l-29.3-298.5c-5.3-53.7-50.4-94.6-104.3-94.6h-51.7
			c-53.9,0-99.1,40.9-104.3,94.6L96.6,456.3c17.1,13.6,35.9,25.1,56.1,34H359.3z"/>
	</g>
	<g class="st1">
		<path class="st3" d="M415.4,456.3l-29.3-298.5c-5.3-53.7-50.4-94.6-104.3-94.6H256v427h103.3C379.5,481.4,398.4,469.9,415.4,456.3
			L415.4,456.3z"/>
	</g>
	<g class="st1">
		<path class="st4" d="M348.4,191.5C337.8,212,316.5,226,291.9,226h-73.6c-24.6,0-45.9-14-56.5-34.4v-58.2
			c10.6-20.4,31.9-34.4,56.5-34.4h73.6c24.6,0,45.9,14,56.5,34.4V191.5z"/>
	</g>
	<g class="st1">
		<path class="st5" d="M348.4,133.3c-10.6-20.4-31.9-34.4-56.5-34.4H256V226h35.9c24.6,0,45.9-14,56.5-34.4V133.3z"/>
	</g>
	<g class="st1">
		<g class="st6">
			<path class="st7" d="M203.4,133.3h-41.6c-4.5,8.7-7.1,18.6-7.1,29.1c0,10.5,2.5,20.4,7.1,29.1h41.6c16.1,0,29.1-13,29.1-29.1
				S219.5,133.3,203.4,133.3L203.4,133.3z"/>
		</g>
		<g class="st6">
			<path class="st8" d="M279.5,162.4c0,16.1,13,29.1,29.1,29.1h39.8c4.5-8.7,7-18.6,7-29.1c0-10.5-2.5-20.4-7-29.1h-39.8
				C292.5,133.3,279.5,146.3,279.5,162.4z"/>
		</g>
	</g>
	<g class="st1">
		<g class="st6">
			<ellipse class="st9" cx="203.2" cy="162.4" rx="12.7" ry="12.7"/>
		</g>
		<g class="st6">
			<ellipse class="st10" cx="308.7" cy="162.3" rx="12.7" ry="12.7"/>
		</g>
	</g>
	<g class="st1">
		<path class="st11" d="M278.9,182.2c0,10.2-10.3,18.5-22.9,18.5s-22.9-8.3-22.9-18.5s10.3-11,22.9-11S278.9,172,278.9,182.2z"/>
	</g>
	<g class="st1">
		<path class="st12" d="M256,171.1v29.5c12.7,0,22.9-8.3,22.9-18.5C278.9,172,268.7,171.1,256,171.1z"/>
	</g>
	<g class="st1">
		<path class="st13" d="M256,351.3c-57.1,0-103.3,46.3-103.3,103.3v35.7c31.6,14,66.6,21.7,103.3,21.7s71.7-7.8,103.3-21.7v-35.7
			C359.3,397.5,313.1,351.3,256,351.3z"/>
	</g>
	<g class="st1">
		<path class="st2" d="M256,351.3V512c36.8,0,71.7-7.8,103.3-21.7v-35.7C359.3,397.5,313.1,351.3,256,351.3L256,351.3z"/>
	</g>
</g>
</svg>
