<svg id="Capa_1" enable-background="new 0 0 512 512" height="512" viewBox="0 0 512 512" width="512" xmlns="http://www.w3.org/2000/svg"><g><path d="m415.417 456.317c58.86-46.903 96.583-119.205 96.583-200.317 0-141.385-114.615-256-256-256s-256 114.615-256 256c0 81.112 37.723 153.414 96.583 200.317z" fill="#ffce00"/><path d="m415.417 456.317c58.86-46.903 96.583-119.205 96.583-200.317 0-1.919-.021-3.833-.063-5.742l-154.107-154.371z" fill="#ffa300"/><g><path d="m359.337 490.287c20.209-8.927 39.046-20.391 56.106-33.99l-29.29-298.451c-5.267-53.67-50.396-94.587-104.324-94.587h-51.657c-53.928 0-99.057 40.917-104.324 94.587l-29.29 298.451c17.06 13.599 35.897 25.063 56.106 33.99z" fill="#a65d4e"/></g><g><path d="m415.443 456.297-29.29-298.451c-5.267-53.67-50.396-94.587-104.324-94.587h-25.829v427.028h103.337c20.209-8.927 39.046-20.392 56.106-33.99z" fill="#784132"/></g><g><path d="m348.392 191.54c-10.56 20.446-31.895 34.424-56.494 34.424h-73.599c-24.599 0-45.933-13.978-56.494-34.424v-58.24c10.56-20.446 31.895-34.424 56.494-34.424h73.599c24.599 0 45.933 13.978 56.494 34.424z" fill="#fff"/></g><g><path d="m348.392 133.301c-10.56-20.447-31.895-34.425-56.494-34.425h-35.898v127.088h35.898c24.599 0 45.934-13.978 56.494-34.425z" fill="#e9edf5"/></g><g><g><path d="m203.39 133.3h-41.585c-4.506 8.723-7.05 18.624-7.05 29.12 0 10.495 2.545 20.396 7.05 29.12h41.585c16.083 0 29.12-13.038 29.12-29.12 0-16.082-13.037-29.12-29.12-29.12z" fill="#7e8596"/></g><g><path d="m279.49 162.42c0 16.082 13.037 29.12 29.12 29.12h39.782c4.506-8.724 7.05-18.624 7.05-29.12 0-10.495-2.545-20.396-7.05-29.12h-39.782c-16.083 0-29.12 13.038-29.12 29.12z" fill="#636978"/></g></g><g><g><ellipse cx="203.222" cy="162.333" fill="#414952" rx="12.706" ry="12.706" transform="matrix(.23 -.973 .973 .23 -1.459 322.822)"/></g><g><ellipse cx="308.778" cy="162.333" fill="#23272b" rx="12.706" ry="12.706" transform="matrix(.707 -.707 .707 .707 -24.348 265.885)"/></g></g><g><path d="m278.922 182.175c0 10.213-10.263 18.492-22.922 18.492s-22.922-8.279-22.922-18.492 10.263-11.037 22.922-11.037 22.922.824 22.922 11.037z" fill="#414952"/></g><g><path d="m256 171.138v29.53c12.66 0 22.922-8.279 22.922-18.492 0-10.214-10.262-11.038-22.922-11.038z" fill="#23272b"/></g><g><path d="m256 351.273c-57.072 0-103.337 46.266-103.337 103.337v35.676c31.605 13.961 66.565 21.714 103.337 21.714s71.733-7.753 103.337-21.713v-35.676c0-57.072-46.265-103.338-103.337-103.338z" fill="#c38778"/></g><g><path d="m256 351.273v160.727c36.772 0 71.732-7.753 103.337-21.713v-35.677c0-57.071-46.265-103.337-103.337-103.337z" fill="#a65d4e"/></g></g></svg>