<svg id="Capa_1" enable-background="new 0 0 512 512" height="512" viewBox="0 0 512 512" width="512" xmlns="http://www.w3.org/2000/svg"><g><g><g><g><g><g><g><path d="m72.973 434.99c-45.145-46.158-72.973-109.324-72.973-178.99 0-141.385 114.615-256 256-256s256 114.615 256 256c0 69.666-27.827 132.832-72.973 178.989z" fill="#a3d4ff"/></g></g></g></g></g></g><path d="m439.028 434.988c45.145-46.158 72.972-109.323 72.972-178.988 0-18.62-1.988-36.776-5.763-54.267l-67.49-67.49-28.582 5.424-36.309-36.309-296.856 99.535 254.526 254.527z" fill="#65b1fc"/><path d="m374.924 243.598c-36.744-12.669-76.882-19.642-118.924-19.642s-82.18 6.973-118.924 19.642c-53.316 18.383-85.167 73.025-75.286 128.549l11.184 62.842c26.016 26.599 57.786 47.544 93.292 60.836v-49.114c0-49.559 40.175-89.734 89.734-89.734s89.734 40.176 89.734 89.734v49.114c35.507-13.292 67.276-34.237 93.292-60.836l11.184-62.842c9.881-55.524-21.97-110.166-75.286-128.549z" fill="#636978"/><path d="m374.924 243.598c-36.744-12.669-76.882-19.642-118.924-19.642-.005 0-.009 0-.014 0v133.02h.014c49.559 0 89.734 40.176 89.734 89.734v49.114c35.507-13.292 67.276-34.237 93.292-60.836l11.184-62.842c9.881-55.523-21.97-110.165-75.286-128.548z" fill="#414952"/><g><path d="m256 355.976c-49.559 0-89.734 40.175-89.734 89.734v50.121c27.924 10.453 58.161 16.169 89.734 16.169s61.81-5.716 89.734-16.168v-50.121c0-49.559-40.175-89.735-89.734-89.735z" fill="#414952"/></g><g><path d="m256 355.976c-.005 0-.009 0-.014 0v156.024h.014c31.573 0 61.81-5.716 89.734-16.168v-50.122c0-49.558-40.175-89.734-89.734-89.734z" fill="#23272b"/></g><g><g><circle cx="106.738" cy="166.835" fill="#555a66" r="46.738"/></g><g><circle cx="405.262" cy="166.835" fill="#333940" r="46.738"/></g></g><g><g><circle cx="106.738" cy="166.835" fill="#636978" r="24.13"/></g><g><circle cx="405.262" cy="166.835" fill="#414952" r="23.919"/></g></g><g><path d="m419.233 224.605c0 85.591-73.082 117.093-163.233 117.093s-163.233-31.502-163.233-117.093 73.082-184.249 163.233-184.249 163.233 98.658 163.233 184.249z" fill="#414952"/></g><g><path d="m256.012 40.362c-.005 0-.009 0-.014 0v301.341h.014c90.151 0 163.233-31.502 163.233-117.093 0-85.59-73.082-184.248-163.233-184.248z" fill="#23272b"/></g><g><path d="m301.704 111.814c-20.863 0-38.675 13.063-45.704 31.456-7.029-18.393-24.841-31.456-45.704-31.456-27.013 0-48.911 21.898-48.911 48.911v25.808c0 21.072 13.326 39.032 32.01 45.912v64.511h62.605 62.605v-64.511c18.684-6.88 32.01-24.84 32.01-45.912v-25.808c0-27.012-21.898-48.911-48.911-48.911z" fill="#7e8596"/></g><g fill="#636978"><path d="m256 143.27c-.001-.003-.002-.006 0 0z"/><path d="m301.704 111.814c-20.863 0-38.675 13.063-45.704 31.456.001.003.002.006 0 0l-.014 153.687h.014 62.605v-64.511c18.684-6.88 32.01-24.84 32.01-45.912v-25.808c0-27.013-21.898-48.912-48.911-48.912z"/></g><g><g><circle cx="210.742" cy="160.052" fill="#414952" r="17.347"/></g><g><circle cx="301.258" cy="160.052" fill="#23272b" r="17.347"/></g></g><g><g><circle cx="240.405" cy="256" fill="#414952" r="9.53"/></g><g><circle cx="271.595" cy="256" fill="#23272b" r="9.53"/></g></g></g></svg>