<?xml version="1.0" encoding="utf-8"?>
<!-- Generator: Adobe Illustrator 24.3.0, SVG Export Plug-In . SVG Version: 6.00 Build 0)  -->
<svg version="1.1" id="Capa_1" xmlns="http://www.w3.org/2000/svg" xmlns:xlink="http://www.w3.org/1999/xlink" x="0px" y="0px"
	 viewBox="0 0 512 512" style="enable-background:new 0 0 512 512;" xml:space="preserve">
<style type="text/css">
	.st0{display:none;}
	.st1{display:inline;}
	.st2{fill:#A3D4FF;}
	.st3{opacity:0.33;}
	.st4{fill:#636978;}
	.st5{fill:#414952;}
	.st6{fill:#23272B;}
	.st7{fill:#555A66;}
	.st8{fill:#333940;}
	.st9{fill:#7E8596;}
</style>
<g>
	<g class="st0">
		<g class="st1">
			<g>
				<g>
					<g>
						<g>
							<path class="st2" d="M73,435C27.8,388.8,0,325.7,0,256C0,114.6,114.6,0,256,0s256,114.6,256,256c0,69.7-27.8,132.8-73,179
								L73,435z"/>
						</g>
					</g>
				</g>
			</g>
		</g>
	</g>
	<path class="st3" d="M439,435c45.1-46.2,73-109.3,73-179c0-18.6-2-36.8-5.8-54.3l-67.5-67.5l-28.6,5.4l-36.3-36.3L77,202.9
		l254.5,254.5L439,435z"/>
	<path class="st4" d="M374.9,243.6C338.2,230.9,298,224,256,224s-82.2,7-118.9,19.6c-53.3,18.4-85.2,73-75.3,128.5L73,435
		c26,26.6,57.8,47.5,93.3,60.8v-49.1c0-49.6,40.2-89.7,89.7-89.7s89.7,40.2,89.7,89.7v49.1c35.5-13.3,67.3-34.2,93.3-60.8l11.2-62.8
		C460.1,316.6,428.2,262,374.9,243.6L374.9,243.6z"/>
	<path class="st5" d="M374.9,243.6C338.2,230.9,298,224,256,224c0,0,0,0,0,0v133h0c49.6,0,89.7,40.2,89.7,89.7v49.1
		c35.5-13.3,67.3-34.2,93.3-60.8l11.2-62.8C460.1,316.6,428.2,262,374.9,243.6L374.9,243.6z"/>
	<g>
		<path class="st5" d="M256,356c-49.6,0-89.7,40.2-89.7,89.7v50.1c27.9,10.5,58.2,16.2,89.7,16.2s61.8-5.7,89.7-16.2v-50.1
			C345.7,396.2,305.6,356,256,356z"/>
	</g>
	<g>
		<path class="st6" d="M256,356C256,356,256,356,256,356l0,156h0c31.6,0,61.8-5.7,89.7-16.2v-50.1C345.7,396.2,305.6,356,256,356
			L256,356z"/>
	</g>
	<g>
		<g>
			<circle class="st7" cx="106.7" cy="166.8" r="46.7"/>
		</g>
		<g>
			<circle class="st8" cx="405.3" cy="166.8" r="46.7"/>
		</g>
	</g>
	<g>
		<g>
			<circle class="st4" cx="106.7" cy="166.8" r="24.1"/>
		</g>
		<g>
			<circle class="st5" cx="405.3" cy="166.8" r="23.9"/>
		</g>
	</g>
	<g>
		<path class="st5" d="M419.2,224.6c0,85.6-73.1,117.1-163.2,117.1S92.8,310.2,92.8,224.6S165.8,40.4,256,40.4
			S419.2,139,419.2,224.6z"/>
	</g>
	<g>
		<path class="st6" d="M256,40.4C256,40.4,256,40.4,256,40.4l0,301.3h0c90.2,0,163.2-31.5,163.2-117.1
			C419.2,139,346.2,40.4,256,40.4z"/>
	</g>
	<g>
		<path class="st9" d="M301.7,111.8c-20.9,0-38.7,13.1-45.7,31.5c-7-18.4-24.8-31.5-45.7-31.5c-27,0-48.9,21.9-48.9,48.9v25.8
			c0,21.1,13.3,39,32,45.9V297H256h62.6v-64.5c18.7-6.9,32-24.8,32-45.9v-25.8C350.6,133.7,328.7,111.8,301.7,111.8z"/>
	</g>
	<g>
		<path class="st4" d="M256,143.3C256,143.3,256,143.3,256,143.3z"/>
		<path class="st4" d="M301.7,111.8c-20.9,0-38.7,13.1-45.7,31.5c0,0,0,0,0,0l0,153.7h0h62.6v-64.5c18.7-6.9,32-24.8,32-45.9v-25.8
			C350.6,133.7,328.7,111.8,301.7,111.8z"/>
	</g>
	<g>
		<g>
			<circle class="st5" cx="210.7" cy="160.1" r="17.3"/>
		</g>
		<g>
			<circle class="st6" cx="301.3" cy="160.1" r="17.3"/>
		</g>
	</g>
	<g>
		<g>
			<circle class="st5" cx="240.4" cy="256" r="9.5"/>
		</g>
		<g>
			<circle class="st6" cx="271.6" cy="256" r="9.5"/>
		</g>
	</g>
</g>
</svg>
