<svg id="Capa_1" enable-background="new 0 0 512 512" height="512" viewBox="0 0 512 512" width="512" xmlns="http://www.w3.org/2000/svg"><g><path d="m366.334 487.06c86.153-41.213 145.666-129.184 145.666-231.06 0-141.385-114.615-256-256-256s-256 114.615-256 256c0 101.876 59.513 189.847 145.666 231.06z" fill="#1dd882"/><path d="m501.086 181.817-73.146-73.147-16.04 26.427-91.259-91.259-212.52 144.562 83.31 83.31 135.2 13.952 39.704 201.399c86.152-41.214 145.665-129.185 145.665-231.061 0-25.797-3.816-50.702-10.914-74.183z" fill="#0caa5f"/><g fill="#dce1eb"><path d="m342.802 270.71h-173.604l-11.637 106.499h196.878z"/><path d="m360.456 432.268h-208.912l-3.773 34.533h216.458z"/></g><g fill="#bec3d2"><path d="m360.456 432.268h-104.456v34.533h108.229z"/><path d="m342.802 270.71h-86.802v106.499h98.439z"/></g><g><path d="m145.561 487.019c33.437 16.013 70.891 24.981 110.439 24.981s77.002-8.968 110.439-24.981l-2.295-21.001h-216.288z" fill="#555a66"/></g><g><path d="m364.144 466.017h-108.144v45.983c39.548 0 77.002-8.968 110.439-24.981z" fill="#333940"/></g><g><path d="m151.513 432.553h208.974l-6.121-56.012h-196.733z" fill="#555a66"/></g><g><path d="m354.366 376.541h-98.366v56.012h104.487z" fill="#333940"/></g><g><ellipse cx="126.598" cy="151.208" fill="#555a66" rx="40.717" ry="60.157" transform="matrix(.707 -.707 .707 .707 -69.84 133.806)"/></g><g><ellipse cx="385.402" cy="151.208" fill="#333940" rx="60.157" ry="40.717" transform="matrix(.707 -.707 .707 .707 5.962 316.809)"/></g><path d="m334.449 316.069-.434-24.326 46.62-13.549c5.509-18.549 8.773-37.71 9.346-56.387l-59.375-5.213-3.976-31.276 59.241-6.165c-14.866-59.343-67.375-82.123-129.871-82.123s-115.005 22.78-129.871 82.123l54.551 4.862v33.448l-58.661 4.344c.573 18.677 3.837 37.839 9.346 56.387l49.315 3.993 3.905 33.013-35.985 5.647c4.578 8.769 9.663 17.136 15.198 24.939 22.414-14.667 55.406-23.939 92.202-23.939 36.795 0 69.788 9.272 92.202 23.939 5.535-7.803 10.62-16.17 15.198-24.939z" fill="#f2f6fc"/><path d="m324.893 313.462 1.738-27.801 54.004-7.468c5.509-18.549 8.773-37.71 9.346-56.387l-62.047-5.213 2.673-31.69 55.265-5.751c-14.867-59.342-67.376-82.122-129.872-82.122v224.817c36.795 0 69.788 9.272 92.202 23.939 5.535-7.803 10.62-16.17 15.198-24.939z" fill="#dce1eb"/><g><path d="m256 320.847c-37.061 0-70.27 9.404-92.691 24.255 24.079 34.25 56.732 57.869 92.691 57.869s68.612-23.619 92.691-57.869c-22.421-14.852-55.63-24.255-92.691-24.255z" fill="#afb4c8"/></g><g><path d="m256 320.847v82.123c35.959 0 68.612-23.619 92.691-57.869-22.421-14.851-55.63-24.254-92.691-24.254z" fill="#7e8596"/></g><g><g><circle cx="181.394" cy="250" fill="#555a66" r="17.267"/></g><g><circle cx="330.606" cy="250" fill="#333940" r="17.267"/></g></g><g><g><ellipse cx="229.984" cy="355.725" fill="#555a66" rx="12.501" ry="12.501" transform="matrix(.707 -.707 .707 .707 -184.175 266.812)"/></g><g><ellipse cx="282.016" cy="355.725" fill="#333940" rx="12.501" ry="12.501" transform="matrix(.23 -.973 .973 .23 -128.987 548.468)"/></g></g><g><path d="m298.727 141.01h-85.454l-32.593-97.171h139.962z" fill="#555a66"/></g><g><path d="m320.642 43.839h-64.642v97.171h42.727z" fill="#333940"/></g><g><g><path d="m121.918 215.91c0 1.959.031 3.925.091 5.897h70.79v-42.653h-66.67c-2.749 10.972-4.211 23.195-4.211 36.756z" fill="#555a66"/></g><g><path d="m319.201 221.806h70.79c.06-1.971.091-3.938.091-5.897 0-13.56-1.462-25.783-4.211-36.756h-66.671v42.653z" fill="#333940"/></g></g><g><g><path d="m148.591 320.847h44.208v-42.653h-61.445c4.394 14.797 10.215 29.202 17.237 42.653z" fill="#555a66"/></g><g><path d="m380.647 278.194h-61.445v42.653h44.208c7.021-13.451 12.843-27.856 17.237-42.653z" fill="#333940"/></g></g></g></svg>