<?xml version="1.0" encoding="utf-8"?>
<!-- Generator: Adobe Illustrator 24.3.0, SVG Export Plug-In . SVG Version: 6.00 Build 0)  -->
<svg version="1.1" id="Capa_1" xmlns="http://www.w3.org/2000/svg" xmlns:xlink="http://www.w3.org/1999/xlink" x="0px" y="0px"
	 viewBox="0 0 512 512" style="enable-background:new 0 0 512 512;" xml:space="preserve">
<style type="text/css">
	.st0{display:none;fill:#1DD882;}
	.st1{opacity:0.33;}
	.st2{fill:#DCE1EB;}
	.st3{fill:#BEC3D2;}
	.st4{fill:#555A66;}
	.st5{fill:#333940;}
	.st6{fill:#F2F6FC;}
	.st7{fill:#AFB4C8;}
	.st8{fill:#7E8596;}
</style>
<g>
	<path class="st0" d="M366.3,487.1C452.5,445.8,512,357.9,512,256C512,114.6,397.4,0,256,0S0,114.6,0,256
		c0,101.9,59.5,189.8,145.7,231.1H366.3z"/>
	<path class="st1" d="M501.1,181.8l-73.1-73.1l-16,26.4l-91.3-91.3L108.1,188.4l83.3,83.3l135.2,14l39.7,201.4
		C452.5,445.8,512,357.9,512,256C512,230.2,508.2,205.3,501.1,181.8L501.1,181.8z"/>
	<g>
		<path class="st2" d="M342.8,270.7H169.2l-11.6,106.5h196.9L342.8,270.7z"/>
		<path class="st2" d="M360.5,432.3H151.5l-3.8,34.5h216.5L360.5,432.3z"/>
	</g>
	<g>
		<path class="st3" d="M360.5,432.3H256v34.5h108.2L360.5,432.3z"/>
		<path class="st3" d="M342.8,270.7H256v106.5h98.4L342.8,270.7z"/>
	</g>
	<g>
		<path class="st4" d="M145.6,487c33.4,16,70.9,25,110.4,25s77-9,110.4-25l-2.3-21H147.9L145.6,487z"/>
	</g>
	<g>
		<path class="st5" d="M364.1,466H256v46c39.5,0,77-9,110.4-25L364.1,466z"/>
	</g>
	<g>
		<path class="st4" d="M151.5,432.6h209l-6.1-56H157.6L151.5,432.6z"/>
	</g>
	<g>
		<path class="st5" d="M354.4,376.5H256v56h104.5L354.4,376.5z"/>
	</g>
	<g>
		
			<ellipse transform="matrix(0.7071 -0.7071 0.7071 0.7071 -69.8471 133.7847)" class="st4" cx="126.6" cy="151.2" rx="40.7" ry="60.1"/>
	</g>
	<g>
		
			<ellipse transform="matrix(0.7071 -0.7071 0.7071 0.7071 5.9266 316.7756)" class="st5" cx="385.3" cy="151.2" rx="60.1" ry="40.7"/>
	</g>
	<path class="st6" d="M334.4,316.1l-0.4-24.3l46.6-13.5c5.5-18.5,8.8-37.7,9.3-56.4l-59.4-5.2l-4-31.3l59.2-6.2
		C371,119.8,318.5,97,256,97s-115,22.8-129.9,82.1l54.6,4.9v33.4l-58.7,4.3c0.6,18.7,3.8,37.8,9.3,56.4l49.3,4l3.9,33l-36,5.6
		c4.6,8.8,9.7,17.1,15.2,24.9c22.4-14.7,55.4-23.9,92.2-23.9c36.8,0,69.8,9.3,92.2,23.9c5.5-7.8,10.6-16.2,15.2-24.9L334.4,316.1z"
		/>
	<path class="st2" d="M324.9,313.5l1.7-27.8l54-7.5c5.5-18.5,8.8-37.7,9.3-56.4l-62-5.2l2.7-31.7l55.3-5.8
		C371,119.8,318.5,97,256,97v224.8c36.8,0,69.8,9.3,92.2,23.9c5.5-7.8,10.6-16.2,15.2-24.9L324.9,313.5z"/>
	<g>
		<path class="st7" d="M256,320.8c-37.1,0-70.3,9.4-92.7,24.3C187.4,379.4,220,403,256,403s68.6-23.6,92.7-57.9
			C326.3,330.2,293.1,320.8,256,320.8z"/>
	</g>
	<g>
		<path class="st8" d="M256,320.8V403c36,0,68.6-23.6,92.7-57.9C326.3,330.2,293.1,320.8,256,320.8z"/>
	</g>
	<g>
		<g>
			<circle class="st4" cx="181.4" cy="250" r="17.3"/>
		</g>
		<g>
			<circle class="st5" cx="330.6" cy="250" r="17.3"/>
		</g>
	</g>
	<g>
		<g>
			<ellipse class="st4" cx="229.9" cy="355.7" rx="12.5" ry="12.5"/>
		</g>
		<g>
			<ellipse class="st5" cx="282" cy="355.9" rx="12.5" ry="12.5"/>
		</g>
	</g>
	<g>
		<path class="st4" d="M298.7,141h-85.5l-32.6-97.2h140L298.7,141z"/>
	</g>
	<g>
		<path class="st5" d="M320.6,43.8H256V141h42.7L320.6,43.8z"/>
	</g>
	<g>
		<g>
			<path class="st4" d="M121.9,215.9c0,2,0,3.9,0.1,5.9h70.8v-42.7h-66.7C123.4,190.1,121.9,202.3,121.9,215.9L121.9,215.9z"/>
		</g>
		<g>
			<path class="st5" d="M319.2,221.8H390c0.1-2,0.1-3.9,0.1-5.9c0-13.6-1.5-25.8-4.2-36.8h-66.7L319.2,221.8L319.2,221.8z"/>
		</g>
	</g>
	<g>
		<g>
			<path class="st4" d="M148.6,320.8h44.2v-42.7h-61.4C135.7,293,141.6,307.4,148.6,320.8z"/>
		</g>
		<g>
			<path class="st5" d="M380.6,278.2h-61.4v42.7h44.2C370.4,307.4,376.3,293,380.6,278.2L380.6,278.2z"/>
		</g>
	</g>
</g>
</svg>
