<svg id="Capa_1" enable-background="new 0 0 512 512" height="512" viewBox="0 0 512 512" width="512" xmlns="http://www.w3.org/2000/svg"><g><path d="m403.943 464.944c65.385-46.38 108.057-122.678 108.057-208.944 0-141.385-114.615-256-256-256s-256 114.615-256 256c0 86.266 42.672 162.564 108.057 208.944z" fill="#a3d4ff"/><g fill="#65b1fc"><path d="m141.557 297.086-90.258 36.111 69.234 69.234z"/><path d="m499.498 176.752-92.387-92.387-94.614 173.17-146.231-146.231-51.048 80.311 82.047 82.047.201 1.055-34.229 13.694 176.793 23.767 63.913 152.766c65.385-46.38 108.057-122.678 108.057-208.944 0-27.66-4.387-54.295-12.502-79.248z"/></g><g><path d="m214.004 336.17-53.253-113.87-137.661-39.609s62.726 73.309 28.21 150.507c0 0 85.892 35.811 67.247 123.447l55.467 16.856z" fill="#414952"/></g><g><path d="m297.996 336.17 53.253-113.87 137.661-39.61s-62.726 73.309-28.21 150.507c0 0-85.892 35.811-67.247 123.447l-55.467 16.856z" fill="#23272b"/></g><path d="m166.266 446.711c0-49.559 40.175-89.734 89.734-89.734s89.734 40.176 89.734 89.734v49.11c20.891-7.821 40.492-18.284 58.385-30.998l-35.407-177.412h-225.424l-35.407 177.412c17.892 12.714 37.493 23.177 58.385 30.998z" fill="#707789"/><path d="m345.734 446.711v49.11c20.891-7.821 40.492-18.284 58.385-30.998l-35.407-177.412h-112.712v69.565c49.559 0 89.734 40.176 89.734 89.735z" fill="#555a66"/><g><path d="m256 355.976c-49.559 0-89.734 40.175-89.734 89.734v50.121c27.924 10.453 58.162 16.169 89.734 16.169s61.81-5.716 89.734-16.168v-50.121c0-49.559-40.175-89.735-89.734-89.735z" fill="#555a66"/></g><g><path d="m256 355.976v156.024c31.573 0 61.81-5.716 89.734-16.168v-50.122c0-49.558-40.175-89.734-89.734-89.734z" fill="#333940"/></g><g><g><ellipse cx="377.986" cy="145.001" fill="#23272b" rx="67.267" ry="45.53" transform="matrix(.433 -.901 .901 .433 83.623 422.937)"/></g><g><ellipse cx="377.982" cy="144.997" fill="#ff432e" rx="33.043" ry="22.368" transform="matrix(.433 -.902 .902 .433 83.659 422.969)"/></g><g><ellipse cx="134.014" cy="145.001" fill="#414952" rx="45.53" ry="67.267" transform="matrix(.901 -.433 .433 .901 -49.569 72.321)"/></g><g><ellipse cx="134.018" cy="144.997" fill="#ff6c52" rx="22.368" ry="33.043" transform="matrix(.902 -.433 .433 .902 -49.558 72.299)"/></g></g><g><path d="m381.059 263.757c0 61.913-55.991 84.701-125.059 84.701s-125.059-22.787-125.059-84.701c0-61.913 55.991-133.279 125.059-133.279s125.059 71.365 125.059 133.279z" fill="#555a66"/></g><g><path d="m256 130.478v217.98c69.068 0 125.059-22.787 125.059-84.701s-55.991-133.279-125.059-133.279z" fill="#333940"/></g><g><g><circle cx="184.93" cy="220.988" fill="#333940" r="16.448"/></g><g><circle cx="327.07" cy="220.988" fill="#0e1011" r="16.448"/></g></g><g><path d="m261.951 288.919h-11.903c-17.448 0-29.205-17.848-22.317-33.879l1.248-2.904c3.833-8.92 12.609-14.7 22.317-14.7h9.407c9.708 0 18.484 5.781 22.317 14.7l1.248 2.904c6.888 16.031-4.869 33.879-22.317 33.879z" fill="#ff6c52"/></g><g><path d="m284.268 255.041-1.248-2.904c-3.833-8.92-12.609-14.7-22.317-14.7h-4.703v51.483h5.951c17.448-.001 29.205-17.849 22.317-33.879z" fill="#ff432e"/></g><g><g><ellipse cx="244.133" cy="263.623" fill="#333940" rx="7.623" ry="7.623" transform="matrix(.23 -.973 .973 .23 -68.528 440.656)"/></g><g><ellipse cx="267.867" cy="263.623" fill="#333940" rx="7.623" ry="7.623" transform="matrix(.707 -.707 .707 .707 -107.953 266.624)"/></g></g></g></svg>