<?xml version="1.0" encoding="utf-8"?>
<!-- Generator: Adobe Illustrator 24.3.0, SVG Export Plug-In . SVG Version: 6.00 Build 0)  -->
<svg version="1.1" id="Capa_1" xmlns="http://www.w3.org/2000/svg" xmlns:xlink="http://www.w3.org/1999/xlink" x="0px" y="0px"
	 viewBox="0 0 512 512" style="enable-background:new 0 0 512 512;" xml:space="preserve">
<style type="text/css">
	.st0{display:none;}
	.st1{display:inline;}
	.st2{fill:#FF6C55;}
	.st3{clip-path:url(#SVGID_2_);}
	.st4{opacity:0.33;}
	.st5{fill:#42434D;}
	.st6{fill:#555A66;}
	.st7{fill:#333940;}
	.st8{fill:#707789;}
	.st9{fill:#414952;}
	.st10{fill:#23272B;}
</style>
<g>
	<g class="st0">
		<g class="st1">
			<g>
				<g>
					<g>
						<g>
							<circle class="st2" cx="256" cy="256" r="256"/>
						</g>
					</g>
				</g>
			</g>
		</g>
	</g>
	<g>
		<defs>
			<circle id="SVGID_1_" cx="256" cy="256" r="256"/>
		</defs>
		<clipPath id="SVGID_2_">
			<use xlink:href="#SVGID_1_"  style="overflow:visible;"/>
		</clipPath>
		<g class="st3">
			<polygon class="st4" points="684.1,379.9 506.3,202 432,232.1 355.6,155.7 280.3,217.6 259.7,242.5 87.7,70.5 69.9,155.7 
				70.5,158.2 16.7,214 101.9,299.3 110.9,339.4 92.5,358.7 313.1,579.4 411.1,579.4 498.8,667.2 			"/>
			<path class="st5" d="M395.1,128.1c-1.1-2-1.4-4.4-0.9-6.6c13.2-53,55.3-88.2,105.9-96.4c7.7-1.2,13.3,7.3,8.9,13.8
				c-29.6,44.6-23.5,99.4,12.6,137.9c3.6,3.9,3.1,10.1-1.2,13.3c-44.9,33.4-67.9,88.6-59.8,144.2c0.7,5.1-2.9,9.8-8,10.3
				c-74,7.2-135.1,53.7-163.5,120.3c-2.9,6.9-12.6,7.4-16.2,0.8c-34.6-63.6-99.8-104.1-174.2-104.2c-5.2,0-9.2-4.4-9-9.5
				C92.7,295.8,64.5,243,16.7,214c-4.6-2.8-5.7-8.9-2.4-13.1c32.2-41.7,33.2-96.8-0.5-138.4c-4.9-6.1-0.2-15.1,7.6-14.6
				c51.2,3.3,96.4,34.5,114.5,85.9c0.8,2.2,0.7,4.6-0.3,6.7c-13,28.7-11.1,63.1,9.5,90.8c22.7,29.7,70.3,14.7,72.7-22.6l1.2-19.3
				c0.5-7.5,9.3-11.2,14.9-6.2c19.7,17.4,49.5,16,67.5-3.2c5.1-5.5,14.3-2.6,15.4,4.8l3,19.1c5.9,36.9,55.4,48.4,75.7,13.7
				C411.5,190.3,411.2,156.1,395.1,128.1L395.1,128.1z"/>
			<g>
				<path class="st6" d="M251,187l-73.2-22.8c0,0,1.9,58.1,49.7,81.3L251,187z"/>
			</g>
			<g>
				<path class="st7" d="M284.9,185.4l70.7-29.6c0,0,3.6,58.1-41.8,85.6L284.9,185.4z"/>
			</g>
			<g>
				<path class="st6" d="M326.8,366.1l-26.2,90.5c-5.5,19.1-32.1,20.4-39.4,1.9l-34.6-87.6c-9.3-23.4-13.3-48.5-11.7-73.6l3.1-51.3
					l105.6-5l8,50.7C335.4,316.5,333.7,341.9,326.8,366.1L326.8,366.1z"/>
			</g>
			<g>
				<path class="st7" d="M331.5,291.7l-8-50.7l-53,2.5l10.8,228.2c8.3-0.3,16.4-5.4,19.2-15l26.2-90.5
					C333.7,341.9,335.4,316.5,331.5,291.7L331.5,291.7z"/>
			</g>
			<g>
				<circle class="st8" cx="270" cy="228.3" r="61.7"/>
			</g>
			<g>
				<path class="st6" d="M267,166.6c-0.1,0-0.1,0-0.2,0l5.9,123.3c0.1,0,0.1,0,0.2,0c34.1-1.6,60.4-30.5,58.7-64.6
					C330,191.3,301.1,165,267,166.6L267,166.6z"/>
			</g>
			<g>
				<g>
					<circle class="st9" cx="242.1" cy="223.3" r="11.1"/>
				</g>
				<g>
					
						<ellipse transform="matrix(0.9989 -4.745684e-02 4.745684e-02 0.9989 -10.1391 14.3547)" class="st10" cx="297.2" cy="220.7" rx="11.1" ry="11.1"/>
				</g>
			</g>
		</g>
	</g>
</g>
<path d="M573.4,551.7"/>
</svg>
