<svg id="Capa_1" enable-background="new 0 0 512 512" height="512" viewBox="0 0 512 512" width="512" xmlns="http://www.w3.org/2000/svg"><g><g><g><g><g><g><path d="m93.468 453.796c-57.072-46.952-93.468-118.124-93.468-197.796 0-141.385 114.615-256 256-256s256 114.615 256 256c0 79.672-36.396 150.844-93.468 197.796z" fill="#a3d4ff"/></g></g></g></g></g><path d="m202.617 453.796h215.914c57.073-46.952 93.469-118.124 93.469-197.796 0-19.953-2.283-39.373-6.601-58.013l-104.756-104.756z" fill="#65b1fc"/><g><path d="m352.027 493.38c24.234-9.813 46.624-23.229 66.505-39.585l-39.537-136.916h-245.99l-39.537 136.917c19.887 16.361 42.284 29.78 66.527 39.594z" fill="#a65d4e"/></g><g><path d="m418.532 453.795-39.537-136.916h-122.995v176.506l96.027-.005c24.234-9.813 46.624-23.229 66.505-39.585z" fill="#784132"/></g><g><path d="m390.627 158.628 10.015-65.397-90.497 12.659c-17.008-5.249-35.215-8.098-54.146-8.098s-37.138 2.848-54.146 8.098l-90.497-12.659 10.015 65.397c-22.212 26.425-35.436 59.562-35.436 95.544 0 86.366 76.14 120.217 170.063 120.217s170.063-33.851 170.063-120.217c.002-35.982-13.222-69.119-35.434-95.544z" fill="#c38778"/></g><g><path d="m390.627 158.628 10.015-65.397-90.497 12.659c-17.008-5.249-35.215-8.098-54.146-8.098-.005 0 .005 0 0 0v276.597c93.923 0 170.063-33.851 170.063-120.217.001-35.982-13.223-69.119-35.435-95.544z" fill="#a65d4e"/></g><g><path d="m294.413 268.811-38.413 74.302-38.413-74.302z" fill="#ffce00"/></g><g><path d="m294.412 268.811h-38.412v74.275.027z" fill="#fdba12"/></g><g><path d="m316.56 178.759c-26.104 0-48.819 14.487-60.56 35.855-11.741-21.369-34.456-35.855-60.56-35.855-38.141 0-69.06 30.919-69.06 69.06s30.919 69.06 69.06 69.06c26.104 0 48.819-14.487 60.56-35.855 11.741 21.368 34.456 35.855 60.56 35.855 38.141 0 69.06-30.919 69.06-69.06s-30.919-69.06-69.06-69.06z" fill="#fff"/></g><g><path d="m316.56 178.759c-26.104 0-48.818 14.487-60.56 35.855-.005-.008.005-.016 0-.025v66.459c.005-.008-.005-.016 0-.025 11.742 21.369 34.456 35.855 60.56 35.855 38.141 0 69.06-30.919 69.06-69.06s-30.919-69.059-69.06-69.059z" fill="#e9edf5"/></g><g><circle cx="193.212" cy="250" fill="#414952" r="33.964"/></g><g><circle cx="317.339" cy="250" fill="#23272b" r="33.964"/></g><g><path d="m256 387.491c-53.034 0-96.027 42.993-96.027 96.027v9.863c29.653 12.007 62.068 18.619 96.027 18.619s66.374-6.612 96.027-18.62v-9.863c0-53.033-42.993-96.026-96.027-96.026z" fill="#915041"/></g><g><path d="m256 387.491c-.005 0 .005 0 0 0v124.509c33.959 0 66.374-6.612 96.027-18.62v-9.863c0-53.033-42.993-96.026-96.027-96.026z" fill="#61362b"/></g></g></svg>