<?xml version="1.0" encoding="utf-8"?>
<!-- Generator: Adobe Illustrator 24.3.0, SVG Export Plug-In . SVG Version: 6.00 Build 0)  -->
<svg version="1.1" id="Capa_1" xmlns="http://www.w3.org/2000/svg" xmlns:xlink="http://www.w3.org/1999/xlink" x="0px" y="0px"
	 viewBox="0 0 512 512" style="enable-background:new 0 0 512 512;" xml:space="preserve">
<style type="text/css">
	.st0{display:none;}
	.st1{display:inline;}
	.st2{fill:#A3D4FF;}
	.st3{opacity:0.33;}
	.st4{fill:#A65D4E;}
	.st5{fill:#784132;}
	.st6{fill:#C38778;}
	.st7{fill:#FFCE00;}
	.st8{fill:#FDBA12;}
	.st9{fill:#FFFFFF;}
	.st10{fill:#E9EDF5;}
	.st11{fill:#414952;}
	.st12{fill:#23272B;}
	.st13{fill:#915041;}
	.st14{fill:#61362B;}
</style>
<g>
	<g class="st0">
		<g class="st1">
			<g>
				<g>
					<g>
						<path class="st2" d="M93.5,453.8C36.4,406.8,0,335.7,0,256C0,114.6,114.6,0,256,0s256,114.6,256,256
							c0,79.7-36.4,150.8-93.5,197.8H93.5z"/>
					</g>
				</g>
			</g>
		</g>
	</g>
	<path class="st3" d="M202.6,453.8h215.9c57.1-47,93.5-118.1,93.5-197.8c0-20-2.3-39.4-6.6-58L400.6,93.2L202.6,453.8z"/>
	<g>
		<path class="st4" d="M352,493.4c24.2-9.8,46.6-23.2,66.5-39.6L379,316.9H133L93.5,453.8c19.9,16.4,42.3,29.8,66.5,39.6L352,493.4z
			"/>
	</g>
	<g>
		<path class="st5" d="M418.5,453.8L379,316.9H256v176.5l96,0C376.3,483.6,398.7,470.2,418.5,453.8L418.5,453.8z"/>
	</g>
	<g>
		<path class="st6" d="M390.6,158.6l10-65.4l-90.5,12.7c-17-5.2-35.2-8.1-54.1-8.1s-37.1,2.8-54.1,8.1l-90.5-12.7l10,65.4
			c-22.2,26.4-35.4,59.6-35.4,95.5c0,86.4,76.1,120.2,170.1,120.2s170.1-33.9,170.1-120.2C426.1,218.2,412.8,185.1,390.6,158.6
			L390.6,158.6z"/>
	</g>
	<g>
		<path class="st4" d="M390.6,158.6l10-65.4l-90.5,12.7c-17-5.2-35.2-8.1-54.1-8.1c0,0,0,0,0,0v276.6c93.9,0,170.1-33.9,170.1-120.2
			C426.1,218.2,412.8,185.1,390.6,158.6L390.6,158.6z"/>
	</g>
	<g>
		<path class="st7" d="M294.4,268.8L256,343.1l-38.4-74.3H294.4z"/>
	</g>
	<g>
		<path class="st8" d="M294.4,268.8H256v74.3v0L294.4,268.8z"/>
	</g>
	<g>
		<path class="st9" d="M316.6,178.8c-26.1,0-48.8,14.5-60.6,35.9c-11.7-21.4-34.5-35.9-60.6-35.9c-38.1,0-69.1,30.9-69.1,69.1
			s30.9,69.1,69.1,69.1c26.1,0,48.8-14.5,60.6-35.9c11.7,21.4,34.5,35.9,60.6,35.9c38.1,0,69.1-30.9,69.1-69.1
			S354.7,178.8,316.6,178.8z"/>
	</g>
	<g>
		<path class="st10" d="M316.6,178.8c-26.1,0-48.8,14.5-60.6,35.9c0,0,0,0,0,0V281c0,0,0,0,0,0c11.7,21.4,34.5,35.9,60.6,35.9
			c38.1,0,69.1-30.9,69.1-69.1S354.7,178.8,316.6,178.8L316.6,178.8z"/>
	</g>
	<g>
		<circle class="st11" cx="193.2" cy="250" r="34"/>
	</g>
	<g>
		<circle class="st12" cx="317.3" cy="250" r="34"/>
	</g>
	<g>
		<path class="st13" d="M256,387.5c-53,0-96,43-96,96v9.9c29.7,12,62.1,18.6,96,18.6s66.4-6.6,96-18.6v-9.9
			C352,430.5,309,387.5,256,387.5z"/>
	</g>
	<g>
		<path class="st14" d="M256,387.5C256,387.5,256,387.5,256,387.5V512c34,0,66.4-6.6,96-18.6v-9.9C352,430.5,309,387.5,256,387.5z"
			/>
	</g>
</g>
</svg>
