<?xml version="1.0" encoding="utf-8"?>
<!-- Generator: Adobe Illustrator 24.3.0, SVG Export Plug-In . SVG Version: 6.00 Build 0)  -->
<svg version="1.1" id="Capa_1" xmlns="http://www.w3.org/2000/svg" xmlns:xlink="http://www.w3.org/1999/xlink" x="0px" y="0px"
	 viewBox="0 0 512 512" style="enable-background:new 0 0 512 512;" xml:space="preserve">
<style type="text/css">
	.st0{display:none;}
	.st1{display:inline;}
	.st2{fill:#FFCE00;}
	.st3{opacity:0.33;}
	.st4{fill:#F92814;}
	.st5{fill:#FF432E;}
	.st6{fill:#FF6C52;}
	.st7{fill:#FF583E;}
	.st8{fill:#FFFFFF;}
	.st9{fill:#E9EDF5;}
</style>
<g>
	<g class="st0">
		<g class="st1">
			<g>
				<g>
					<g>
						<g>
							<path class="st2" d="M102.2,460.7C40.1,414,0,339.7,0,256C0,114.6,114.6,0,256,0s256,114.6,256,256
								c0,83.7-40.1,158-102.2,204.7L102.2,460.7z"/>
						</g>
					</g>
				</g>
			</g>
		</g>
	</g>
	<path class="st3" d="M409.8,460.7C471.9,414,512,339.7,512,256c0-30.5-5.3-59.7-15.1-86.8l-99.8-99.8l-28,147.9l55.2,55.2l2.7,20.1
		l-82.4-82.4l-31.9,30.5L174.2,102.2l-11.7,14.9l-47.7-47.7L69,266.5l207,207L409.8,460.7z"/>
	<g>
		<path class="st4" d="M351.5,378.3l-27.6-29l93.8-89.1l-35.3-70l35.7-18l48.7,96.6L351.5,378.3z"/>
	</g>
	<g>
		<path class="st5" d="M160.5,378.3L45.1,268.7l48.7-96.6l35.7,18l-35.3,70l93.8,89.1L160.5,378.3z"/>
	</g>
	<g>
		<path class="st5" d="M122,122.8l52.3-20.5l-17.4,95.2L122,122.8z"/>
	</g>
	<g>
		<path class="st6" d="M103.3,220.7l-17.7-9.6c-20.2-10.9-27.7-36.1-16.8-56.3l46.2-85.5l42,128l-4.7,8.7
			C142.7,223.7,120.8,230.2,103.3,220.7z"/>
	</g>
	<g>
		<path class="st6" d="M358.7,490.6c18.2-8,35.4-18.1,51.1-29.9l16-55.2c13.5-46.7-21.5-93.3-70.1-93.3H156.3
			c-48.6,0-83.7,46.6-70.1,93.3l16,55.2c15.7,11.8,32.9,21.9,51.1,29.9H358.7z"/>
	</g>
	<g>
		<path class="st7" d="M358.7,490.6c18.2-8,35.4-18.1,51.1-29.9l16-55.2c13.5-46.7-21.5-93.3-70.1-93.3H256v180.7L358.7,490.6z"/>
	</g>
	<g>
		<path class="st5" d="M177.8,257.2h40v77h-40V257.2z"/>
	</g>
	<g>
		<ellipse transform="matrix(0.23 -0.9732 0.9732 0.23 -79.3459 375.7852)" class="st6" cx="197.8" cy="238" rx="41.2" ry="41.2"/>
	</g>
	<g>
		<circle class="st8" cx="197.8" cy="237.9" r="18.7"/>
	</g>
	<g>
		<path class="st4" d="M390,122.8l-52.3-20.5l17.4,95.2L390,122.8z"/>
	</g>
	<g>
		<path class="st5" d="M408.7,220.7l17.7-9.6c20.2-10.9,27.7-36.1,16.8-56.3l-46.2-85.5l-42,128l4.7,8.7
			C369.3,223.7,391.2,230.2,408.7,220.7L408.7,220.7z"/>
	</g>
	<g>
		<path class="st4" d="M294.2,257.2h40v77h-40V257.2z"/>
	</g>
	<g>
		<ellipse transform="matrix(0.9732 -0.23 0.23 0.9732 -46.2768 78.6472)" class="st5" cx="314.2" cy="237.8" rx="41.2" ry="41.2"/>
	</g>
	<g>
		<circle class="st9" cx="314.2" cy="237.9" r="18.7"/>
	</g>
	<g>
		<path class="st5" d="M256,512c36.5,0,71.2-7.6,102.7-21.4C352.8,439,309.1,399,256,399s-96.8,40-102.7,91.6
			C184.8,504.4,219.5,512,256,512L256,512z"/>
	</g>
	<g>
		<path class="st4" d="M256,399v113c36.5,0,71.2-7.6,102.7-21.4C352.8,439,309.1,399,256,399L256,399z"/>
	</g>
</g>
</svg>
