<svg id="Capa_1" enable-background="new 0 0 512 512" height="512" viewBox="0 0 512 512" width="512" xmlns="http://www.w3.org/2000/svg"><g><g><g><g><g><g><g><path d="m102.213 460.678c-62.073-46.713-102.213-121.008-102.213-204.678 0-141.385 114.615-256 256-256s256 114.615 256 256c0 83.668-40.138 157.962-102.209 204.675z" fill="#ffce00"/></g></g></g></g></g></g><path d="m409.786 460.678c62.074-46.713 102.214-121.008 102.214-204.678 0-30.463-5.321-59.683-15.084-86.781l-99.809-99.809-27.953 147.856 55.188 55.187 2.692 20.074-82.41-82.41-31.938 30.547-138.449-138.448-11.664 14.874-47.68-47.68-45.89 197.042 207.048 207.048z" fill="#ffa300"/><g><path d="m351.541 378.327-27.555-28.995 93.759-89.105-35.349-70.036 35.708-18.024 48.747 96.575z" fill="#f92814"/></g><g><path d="m160.459 378.327-115.31-109.585 48.747-96.575 35.709 18.024-35.35 70.036 93.759 89.105z" fill="#ff432e"/></g><g><path d="m121.97 122.76 52.267-20.544-17.376 95.237z" fill="#ff432e"/></g><g><path d="m103.286 220.739-17.747-9.583c-20.176-10.894-27.7-36.081-16.806-56.257l46.161-85.489 41.968 128.043-4.687 8.681c-9.469 17.533-31.357 24.072-48.889 14.605z" fill="#ff6c52"/></g><g><path d="m358.675 490.578c18.248-7.998 35.383-18.064 51.111-29.899l15.989-55.177c13.531-46.696-21.503-93.323-70.119-93.323h-199.312c-48.616 0-83.65 46.628-70.119 93.323l15.989 55.177c15.728 11.836 32.863 21.901 51.111 29.899z" fill="#ff6c52"/></g><g><path d="m358.674 490.579c18.248-7.999 35.385-18.064 51.113-29.9l15.989-55.177c13.531-46.696-21.503-93.323-70.119-93.323h-99.657v180.686z" fill="#ff583e"/></g><g><path d="m177.823 257.199h40v76.951h-40z" fill="#ff432e"/></g><g><ellipse cx="197.823" cy="237.929" fill="#ff6c52" rx="41.238" ry="41.238" transform="matrix(.23 -.973 .973 .23 -79.192 375.795)"/></g><g><circle cx="197.823" cy="237.929" fill="#fff" r="18.744"/></g><g><path d="m390.03 122.76-52.267-20.544 17.376 95.237z" fill="#f92814"/></g><g><path d="m408.714 220.739 17.747-9.583c20.176-10.894 27.7-36.081 16.806-56.257l-46.16-85.489-41.968 128.043 4.687 8.681c9.468 17.533 31.355 24.072 48.888 14.605z" fill="#ff432e"/></g><g><path d="m294.177 257.199h40v76.951h-40z" fill="#f92814"/></g><g><ellipse cx="314.177" cy="237.929" fill="#ff432e" rx="41.238" ry="41.238" transform="matrix(.973 -.23 .23 .973 -46.26 78.548)"/></g><g><circle cx="314.177" cy="237.929" fill="#e9edf5" r="18.744"/></g><g><path d="m256 512c36.515 0 71.245-7.645 102.675-21.422-5.836-51.535-49.579-91.58-102.675-91.58s-96.839 40.045-102.675 91.58c31.43 13.777 66.16 21.422 102.675 21.422z" fill="#ff432e"/></g><g><path d="m256 398.998v113.002c36.515 0 71.245-7.645 102.675-21.422-5.836-51.536-49.579-91.58-102.675-91.58z" fill="#f92814"/></g></g></svg>