<svg id="Capa_1" enable-background="new 0 0 512.001 512.001" height="512" viewBox="0 0 512.001 512.001" width="512" xmlns="http://www.w3.org/2000/svg"><g><g><path d="m419.32 453.137c56.616-46.957 92.68-117.833 92.68-197.136 0-139.802-112.062-253.429-251.259-255.957-143.208-2.601-260.084 111.531-260.738 254.762-.364 79.786 35.777 151.139 92.678 198.332h326.639z" fill="#ff6c52"/></g><g><path d="m419.32 453.137c56.616-46.957 92.68-117.833 92.68-197.136 0-17.931-1.851-35.428-5.359-52.319l-97.51-97.51-35.428 59.389c-.338 1.815-.775 3.596-1.31 5.333.704-.031 1.412-.047 2.124-.047l-106.069 166.605z" fill="#f92814"/></g><g><ellipse cx="140.753" cy="144.056" fill="#fff" rx="36.263" ry="53.576" transform="matrix(.707 -.707 .707 .707 -60.637 141.721)"/></g><g><ellipse cx="371.247" cy="144.056" fill="#e9edf5" rx="53.576" ry="36.263" transform="matrix(.707 -.707 .707 .707 6.873 304.704)"/></g><g><path d="m422.488 218.818c0-26.494-21.477-47.971-47.971-47.971-.712 0-1.419.017-2.124.047 1.38-4.475 2.124-9.229 2.124-14.156 0-26.494-21.477-47.971-47.971-47.971-9.386 0-18.142 2.696-25.536 7.355-6.763-18.296-24.363-31.34-45.01-31.34s-38.247 13.044-45.009 31.341c-7.395-4.659-16.151-7.355-25.536-7.355-26.494 0-47.971 21.477-47.971 47.971 0 4.928.743 9.681 2.124 14.156-.704-.031-1.412-.047-2.124-.047-26.494 0-47.971 21.477-47.971 47.971 0 18.018 9.934 33.717 24.625 41.916-14.69 8.199-24.625 23.898-24.625 41.917s9.934 33.717 24.625 41.917c-14.69 8.199-24.625 23.898-24.625 41.917 0 18.018 9.934 33.717 24.625 41.917-9.756 5.445-17.415 14.199-21.459 24.743 44.321 36.757 101.24 58.855 163.321 58.855s119-22.098 163.322-58.857c-4.044-10.544-11.702-19.297-21.459-24.743 14.69-8.2 24.625-23.898 24.625-41.917s-9.935-33.717-24.625-41.917c14.69-8.2 24.625-23.898 24.625-41.917s-9.935-33.717-24.625-41.917c14.691-8.198 24.625-23.896 24.625-41.915z" fill="#e9edf5"/></g><g><path d="m422.488 302.651c0-18.019-9.935-33.717-24.625-41.917 14.69-8.2 24.625-23.898 24.625-41.916 0-26.494-21.477-47.971-47.971-47.971-.712 0-1.419.017-2.124.047 1.38-4.475 2.124-9.229 2.124-14.156 0-26.494-21.477-47.971-47.971-47.971-9.386 0-18.142 2.696-25.536 7.355-6.763-18.296-24.363-31.34-45.01-31.34v427.219c62.081 0 119-22.098 163.322-58.857-4.044-10.544-11.702-19.297-21.459-24.743 14.69-8.2 24.625-23.898 24.625-41.917s-9.935-33.717-24.625-41.917c14.691-8.199 24.625-23.897 24.625-41.916z" fill="#cdd2e1"/></g><g><path d="m328.864 161.083c-6.417 6.817-15.523 11.073-25.624 11.073-5.787 0-11.248-1.397-16.064-3.873-5.883 11.212-17.636 18.859-31.176 18.859s-25.293-7.648-31.176-18.859c-4.816 2.475-10.276 3.873-16.064 3.873-10.101 0-19.207-4.256-25.624-11.073-19.179 11.385-31.073 29.465-31.073 56.035 0 52.555 46.534 113.133 103.936 113.133s103.936-60.579 103.936-113.133c.001-26.57-11.893-44.651-31.071-56.035z" fill="#fff"/></g><g><path d="m328.864 161.083c-6.417 6.817-15.523 11.073-25.624 11.073-5.787 0-11.248-1.397-16.064-3.873-5.883 11.211-17.636 18.859-31.176 18.859v143.109c57.402 0 103.936-60.579 103.936-113.133 0-26.57-11.894-44.651-31.072-56.035z" fill="#e9edf5"/></g><g><g><g><ellipse cx="198.088" cy="223.136" fill="#414952" rx="12.132" ry="12.132" transform="matrix(.231 -.973 .973 .231 -64.765 364.335)"/></g></g><g><g><ellipse cx="313.913" cy="223.136" fill="#23272b" rx="12.132" ry="12.132" transform="matrix(.973 -.231 .231 .973 -43.047 78.531)"/></g></g></g><g><path d="m241 251.976h30v46.415h-30z" fill="#9196aa"/></g><g><path d="m256 251.976h15v46.415h-15z" fill="#707789"/></g><g><path d="m277.403 248.496c0 9.536-9.582 17.266-21.402 17.266s-21.402-7.73-21.402-17.266 9.582-10.306 21.402-10.306c11.819 0 21.402.77 21.402 10.306z" fill="#707789"/></g><g><path d="m256 238.19v27.572c11.82 0 21.402-7.73 21.402-17.266.001-9.536-9.582-10.306-21.402-10.306z" fill="#555a66"/></g></g></svg>