<?xml version="1.0" encoding="utf-8"?>
<!-- Generator: Adobe Illustrator 24.3.0, SVG Export Plug-In . SVG Version: 6.00 Build 0)  -->
<svg version="1.1" id="Capa_1" xmlns="http://www.w3.org/2000/svg" xmlns:xlink="http://www.w3.org/1999/xlink" x="0px" y="0px"
	 viewBox="0 0 512 512" style="enable-background:new 0 0 512 512;" xml:space="preserve">
<style type="text/css">
	.st0{display:none;}
	.st1{display:inline;fill:#FF6C52;}
	.st2{opacity:0.33;}
	.st3{fill:#FFFFFF;}
	.st4{fill:#E9EDF5;}
	.st5{fill:#CDD2E1;}
	.st6{fill:#414952;}
	.st7{fill:#23272B;}
	.st8{fill:#9196AA;}
	.st9{fill:#707789;}
	.st10{fill:#555A66;}
</style>
<g>
	<g class="st0">
		<path class="st1" d="M419.3,453.1c56.6-47,92.7-117.8,92.7-197.1C512,116.2,399.9,2.6,260.7,0C117.5-2.6,0.7,111.6,0,254.8
			c-0.4,79.8,35.8,151.1,92.7,198.3L419.3,453.1L419.3,453.1z"/>
	</g>
	<g class="st2">
		<path d="M419.3,453.1c56.6-47,92.7-117.8,92.7-197.1c0-17.9-1.9-35.4-5.4-52.3l-97.5-97.5l-35.4,59.4c-0.3,1.8-0.8,3.6-1.3,5.3
			c0.7,0,1.4,0,2.1,0L268.4,337.5L419.3,453.1z"/>
	</g>
	<g>
		
			<ellipse transform="matrix(0.7071 -0.7071 0.7071 0.7071 -60.6463 141.6992)" class="st3" cx="140.7" cy="144.1" rx="36.3" ry="53.6"/>
	</g>
	<g>
		
			<ellipse transform="matrix(0.7071 -0.7071 0.7071 0.7071 6.8398 304.6726)" class="st4" cx="371.2" cy="144.1" rx="53.6" ry="36.3"/>
	</g>
	<g>
		<path class="st4" d="M422.5,218.8c0-26.5-21.5-48-48-48c-0.7,0-1.4,0-2.1,0c1.4-4.5,2.1-9.2,2.1-14.2c0-26.5-21.5-48-48-48
			c-9.4,0-18.1,2.7-25.5,7.4c-6.8-18.3-24.4-31.3-45-31.3s-38.2,13-45,31.3c-7.4-4.7-16.2-7.4-25.5-7.4c-26.5,0-48,21.5-48,48
			c0,4.9,0.7,9.7,2.1,14.2c-0.7,0-1.4,0-2.1,0c-26.5,0-48,21.5-48,48c0,18,9.9,33.7,24.6,41.9c-14.7,8.2-24.6,23.9-24.6,41.9
			s9.9,33.7,24.6,41.9c-14.7,8.2-24.6,23.9-24.6,41.9c0,18,9.9,33.7,24.6,41.9c-9.8,5.4-17.4,14.2-21.5,24.7
			C137,489.9,193.9,512,256,512s119-22.1,163.3-58.9c-4-10.5-11.7-19.3-21.5-24.7c14.7-8.2,24.6-23.9,24.6-41.9s-9.9-33.7-24.6-41.9
			c14.7-8.2,24.6-23.9,24.6-41.9s-9.9-33.7-24.6-41.9C412.6,252.5,422.5,236.8,422.5,218.8L422.5,218.8z"/>
	</g>
	<g>
		<path class="st5" d="M422.5,302.7c0-18-9.9-33.7-24.6-41.9c14.7-8.2,24.6-23.9,24.6-41.9c0-26.5-21.5-48-48-48c-0.7,0-1.4,0-2.1,0
			c1.4-4.5,2.1-9.2,2.1-14.2c0-26.5-21.5-48-48-48c-9.4,0-18.1,2.7-25.5,7.4c-6.8-18.3-24.4-31.3-45-31.3V512
			c62.1,0,119-22.1,163.3-58.9c-4-10.5-11.7-19.3-21.5-24.7c14.7-8.2,24.6-23.9,24.6-41.9s-9.9-33.7-24.6-41.9
			C412.6,336.4,422.5,320.7,422.5,302.7L422.5,302.7z"/>
	</g>
	<g>
		<path class="st3" d="M328.9,161.1c-6.4,6.8-15.5,11.1-25.6,11.1c-5.8,0-11.2-1.4-16.1-3.9c-5.9,11.2-17.6,18.9-31.2,18.9
			s-25.3-7.6-31.2-18.9c-4.8,2.5-10.3,3.9-16.1,3.9c-10.1,0-19.2-4.3-25.6-11.1c-19.2,11.4-31.1,29.5-31.1,56
			c0,52.6,46.5,113.1,103.9,113.1s103.9-60.6,103.9-113.1C359.9,190.5,348,172.5,328.9,161.1L328.9,161.1z"/>
	</g>
	<g>
		<path class="st4" d="M328.9,161.1c-6.4,6.8-15.5,11.1-25.6,11.1c-5.8,0-11.2-1.4-16.1-3.9c-5.9,11.2-17.6,18.9-31.2,18.9v143.1
			c57.4,0,103.9-60.6,103.9-113.1C359.9,190.5,348,172.5,328.9,161.1L328.9,161.1z"/>
	</g>
	<g>
		<g>
			<g>
				<ellipse class="st6" cx="198.1" cy="223.1" rx="12.1" ry="12.1"/>
			</g>
		</g>
		<g>
			<g>
				
					<ellipse transform="matrix(0.973 -0.231 0.231 0.973 -43.0504 78.5499)" class="st7" cx="313.9" cy="223.1" rx="12.1" ry="12.1"/>
			</g>
		</g>
	</g>
	<g>
		<path class="st8" d="M241,252h30v46.4h-30V252z"/>
	</g>
	<g>
		<path class="st9" d="M256,252h15v46.4h-15V252z"/>
	</g>
	<g>
		<path class="st9" d="M277.4,248.5c0,9.5-9.6,17.3-21.4,17.3s-21.4-7.7-21.4-17.3s9.6-10.3,21.4-10.3
			C267.8,238.2,277.4,239,277.4,248.5L277.4,248.5z"/>
	</g>
	<g>
		<path class="st10" d="M256,238.2v27.6c11.8,0,21.4-7.7,21.4-17.3C277.4,239,267.8,238.2,256,238.2L256,238.2z"/>
	</g>
</g>
</svg>
