<svg id="Capa_1" enable-background="new 0 0 512 512" height="512" viewBox="0 0 512 512" width="512" xmlns="http://www.w3.org/2000/svg"><g><path d="m403.983 464.917c65.363-46.383 108.017-122.668 108.017-208.917 0-141.385-114.615-256-256-256s-256 114.615-256 256c0 86.249 42.518 162.44 107.881 208.823z" fill="#ffce00"/><path d="m494.264 162.188-73.372-73.372-86.722 140.699-12.318 47.352 82.131 188.05c65.363-46.383 108.017-122.668 108.017-208.917 0-33.116-6.289-64.762-17.736-93.812z" fill="#ffa300"/><g><path d="m180.333 129.87-89.226-41.054 30.267 147.162z" fill="#b46e5a"/></g><g><path d="m331.667 129.87 89.226-41.054-30.267 147.162z" fill="#915041"/></g><path d="m166.266 489.345c0-49.559 40.175-89.734 89.734-89.734s89.734 40.176 89.734 89.734v6.476c20.891-7.821 40.492-18.284 58.385-30.998l-35.407-236.309h-225.424l-35.407 236.309c17.892 12.714 37.493 23.177 58.385 30.998z" fill="#a65d4e"/><path d="m345.734 489.345v6.476c20.891-7.821 40.492-18.284 58.385-30.998l-35.407-236.309h-112.698v171.096c49.553.009 89.72 40.181 89.72 89.735z" fill="#784132"/><g><path d="m256 512c31.573 0 61.81-5.716 89.734-16.169v-7.486c0-49.559-40.175-89.734-89.734-89.734s-89.734 40.176-89.734 89.734v7.486c27.924 10.453 58.162 16.169 89.734 16.169z" fill="#b46e5a"/></g><g><path d="m345.734 488.345c0-49.554-40.168-89.727-89.72-89.734v113.389c31.567-.002 61.8-5.718 89.72-16.169z" fill="#915041"/></g><g><path d="m112.652 196.764c0-61.206 64.179-83.733 143.348-83.733s143.348 22.527 143.348 83.733-64.179 131.756-143.348 131.756-143.348-70.551-143.348-131.756z" fill="#c38778"/></g><g><path d="m399.348 196.763c0-61.202-64.172-83.73-143.334-83.733v215.49c79.163-.009 143.334-70.554 143.334-131.757z" fill="#a65d4e"/></g><g><path d="m207.07 297.285c0-30.178 21.907-41.285 48.93-41.285s48.93 11.107 48.93 41.285-21.907 64.963-48.93 64.963c-27.023.001-48.93-34.785-48.93-64.963z" fill="#b46e5a"/></g><g><path d="m304.93 297.285c0-30.173-21.899-41.281-48.916-41.285v106.248c27.017-.012 48.916-34.79 48.916-64.963z" fill="#915041"/></g><g><g><ellipse cx="181.394" cy="235.978" fill="#555a66" rx="17.267" ry="17.267" transform="matrix(.924 -.383 .383 .924 -76.497 87.379)"/></g><g><ellipse cx="330.606" cy="235.978" fill="#333940" rx="17.267" ry="17.267" transform="matrix(.924 -.383 .383 .924 -65.139 144.48)"/></g></g><g><path d="m282.379 360.357c0 11.753-11.81 21.281-26.379 21.281s-26.379-9.528-26.379-21.281 11.81-12.702 26.379-12.702 26.379.949 26.379 12.702z" fill="#414952"/></g><g><path d="m282.379 360.357c0-11.75-11.802-12.701-26.365-12.702v33.982c14.562-.005 26.365-9.53 26.365-21.28z" fill="#23272b"/></g><g><path d="m256 113.031c-20.387 0-39.78 1.304-57.339 4.757v58.913l30.96-14.304 26.379 64.66 26.379-64.66 30.96 14.304v-58.636c-17.559-3.453-36.952-5.034-57.339-5.034z" fill="#b46e5a"/></g><g><path d="m256.014 113.031v113.992l26.365-64.626 30.96 14.304v-58.933c-17.555-3.453-36.943-4.737-57.325-4.737z" fill="#915041"/></g></g></svg>