<?xml version="1.0" encoding="utf-8"?>
<!-- Generator: Adobe Illustrator 24.3.0, SVG Export Plug-In . SVG Version: 6.00 Build 0)  -->
<svg version="1.1" id="Capa_1" xmlns="http://www.w3.org/2000/svg" xmlns:xlink="http://www.w3.org/1999/xlink" x="0px" y="0px"
	 viewBox="0 0 512 512" style="enable-background:new 0 0 512 512;" xml:space="preserve">
<style type="text/css">
	.st0{fill:#FFCE00;}
	.st1{fill:#FFA300;}
	.st2{fill:#B46E5A;}
	.st3{fill:#915041;}
	.st4{fill:#A65D4E;}
	.st5{fill:#784132;}
	.st6{fill:#C38778;}
	.st7{fill:#555A66;}
	.st8{fill:#333940;}
	.st9{fill:#414952;}
	.st10{fill:#23272B;}
</style>
<g>
	<path class="st0" d="M404,464.9c65.4-46.4,108-122.7,108-208.9C512,114.6,397.4,0,256,0S0,114.6,0,256
		c0,86.2,42.5,162.4,107.9,208.8L404,464.9z"/>
	<path class="st1" d="M494.3,162.2l-73.4-73.4l-86.7,140.7l-12.3,47.4l82.1,188c65.4-46.4,108-122.7,108-208.9
		C512,222.9,505.7,191.2,494.3,162.2L494.3,162.2z"/>
	<g>
		<path class="st2" d="M180.3,129.9L91.1,88.8L121.4,236L180.3,129.9z"/>
	</g>
	<g>
		<path class="st3" d="M331.7,129.9l89.2-41.1L390.6,236L331.7,129.9z"/>
	</g>
	<path class="st4" d="M166.3,489.3c0-49.6,40.2-89.7,89.7-89.7s89.7,40.2,89.7,89.7v6.5c20.9-7.8,40.5-18.3,58.4-31l-35.4-236.3
		H143.3l-35.4,236.3c17.9,12.7,37.5,23.2,58.4,31V489.3z"/>
	<path class="st5" d="M345.7,489.3v6.5c20.9-7.8,40.5-18.3,58.4-31l-35.4-236.3H256v171.1C305.6,399.6,345.7,439.8,345.7,489.3
		L345.7,489.3z"/>
	<g>
		<path class="st2" d="M256,512c31.6,0,61.8-5.7,89.7-16.2v-7.5c0-49.6-40.2-89.7-89.7-89.7s-89.7,40.2-89.7,89.7v7.5
			C194.2,506.3,224.4,512,256,512z"/>
	</g>
	<g>
		<path class="st3" d="M345.7,488.3c0-49.6-40.2-89.7-89.7-89.7V512c31.6,0,61.8-5.7,89.7-16.2V488.3z"/>
	</g>
	<g>
		<path class="st6" d="M112.7,196.8c0-61.2,64.2-83.7,143.3-83.7s143.3,22.5,143.3,83.7S335.2,328.5,256,328.5
			S112.7,258,112.7,196.8L112.7,196.8z"/>
	</g>
	<g>
		<path class="st4" d="M399.3,196.8c0-61.2-64.2-83.7-143.3-83.7v215.5C335.2,328.5,399.3,258,399.3,196.8L399.3,196.8z"/>
	</g>
	<g>
		<path class="st2" d="M207.1,297.3c0-30.2,21.9-41.3,48.9-41.3s48.9,11.1,48.9,41.3s-21.9,65-48.9,65
			C229,362.2,207.1,327.5,207.1,297.3L207.1,297.3z"/>
	</g>
	<g>
		<path class="st3" d="M304.9,297.3c0-30.2-21.9-41.3-48.9-41.3v106.2C283,362.2,304.9,327.5,304.9,297.3L304.9,297.3z"/>
	</g>
	<g>
		<g>
			<ellipse class="st7" cx="181.5" cy="235.9" rx="17.3" ry="17.3"/>
		</g>
		<g>
			<ellipse class="st8" cx="330.7" cy="235.9" rx="17.3" ry="17.3"/>
		</g>
	</g>
	<g>
		<path class="st9" d="M282.4,360.4c0,11.8-11.8,21.3-26.4,21.3s-26.4-9.5-26.4-21.3s11.8-12.7,26.4-12.7S282.4,348.6,282.4,360.4z"
			/>
	</g>
	<g>
		<path class="st10" d="M282.4,360.4c0-11.8-11.8-12.7-26.4-12.7v34C270.6,381.6,282.4,372.1,282.4,360.4z"/>
	</g>
	<g>
		<path class="st2" d="M256,113c-20.4,0-39.8,1.3-57.3,4.8v58.9l31-14.3l26.4,64.7l26.4-64.7l31,14.3v-58.6
			C295.8,114.6,276.4,113,256,113L256,113z"/>
	</g>
	<g>
		<path class="st3" d="M256,113v114l26.4-64.6l31,14.3v-58.9C295.8,114.3,276.4,113,256,113L256,113z"/>
	</g>
</g>
</svg>
