<?xml version="1.0" encoding="utf-8"?>
<!-- Generator: Adobe Illustrator 24.3.0, SVG Export Plug-In . SVG Version: 6.00 Build 0)  -->
<svg version="1.1" id="Capa_1" xmlns="http://www.w3.org/2000/svg" xmlns:xlink="http://www.w3.org/1999/xlink" x="0px" y="0px"
	 viewBox="0 0 512 512" style="enable-background:new 0 0 512 512;" xml:space="preserve">
<style type="text/css">
	.st0{display:none;fill:#FF6C52;}
	.st1{opacity:0.33;}
	.st2{fill:#FDBA12;}
	.st3{fill:#FFA300;}
	.st4{fill:#FE8205;}
	.st5{fill:#A65D4E;}
	.st6{fill:#784132;}
	.st7{fill:#FFE89C;}
	.st8{fill:#FAD17F;}
	.st9{fill:#FFCE00;}
	.st10{fill:#555A66;}
	.st11{fill:#333940;}
	.st12{fill:#414952;}
	.st13{fill:#23272B;}
</style>
<g>
	<path class="st0" d="M404,464.9c65.4-46.4,108-122.7,108-208.9C512,114.6,397.4,0,256,0S0,114.6,0,256c0,86.2,42.7,162.5,108,208.9
		H404z"/>
	<path class="st1" d="M511.9,251.1L375.7,114.9l-30,162l58.2,188c65.4-46.4,108-122.6,108-208.9C512,254.4,512,252.8,511.9,251.1
		L511.9,251.1z"/>
	<g>
		<path class="st2" d="M107.9,464.8C149.7,494.5,200.8,512,256,512s106.3-17.5,148.1-47.2l-35.4-236.3H143.3L107.9,464.8z"/>
	</g>
	<g>
		<path class="st3" d="M404.1,464.8l-35.4-236.3H256V512h0C311.2,512,362.3,494.5,404.1,464.8z"/>
	</g>
	<g>
		<path class="st3" d="M256,512c31.6,0,61.8-5.7,89.7-16.2v-7.5c0-49.6-40.2-89.7-89.7-89.7s-89.7,40.2-89.7,89.7v7.5
			C194.2,506.3,224.4,512,256,512z"/>
	</g>
	<g>
		<path class="st4" d="M256,398.6C256,398.6,256,398.6,256,398.6l0,113.4h0c31.6,0,61.8-5.7,89.7-16.2v-7.5
			C345.7,438.8,305.6,398.6,256,398.6z"/>
	</g>
	<g>
		<path class="st5" d="M424.1,232.9c0,92.8-75.2,198.4-168.1,198.4S87.9,325.7,87.9,232.9S163.2,64.8,256,64.8
			S424.1,140.1,424.1,232.9z"/>
	</g>
	<g>
		<path class="st6" d="M256,64.8C256,64.8,256,64.8,256,64.8l0,366.5h0c92.8,0,168.1-105.6,168.1-198.4S348.8,64.8,256,64.8
			L256,64.8z"/>
	</g>
	<g>
		<g>
			<ellipse class="st7" cx="162.7" cy="162.5" rx="38.5" ry="38.5"/>
		</g>
		<g>
			<ellipse class="st8" cx="349.3" cy="162.4" rx="38.5" ry="38.5"/>
		</g>
	</g>
	<g>
		<path class="st9" d="M141.9,210.2c0-61.9,51.1-84.6,114.1-84.6s114.1,22.8,114.1,84.6c0,61.9-51.1,133.2-114.1,133.2
			S141.9,272.1,141.9,210.2L141.9,210.2z"/>
	</g>
	<g>
		<path class="st2" d="M256,125.6C256,125.6,256,125.6,256,125.6l0,217.8h0c63,0,114.1-71.3,114.1-133.2
			C370.1,148.4,319,125.6,256,125.6L256,125.6z"/>
	</g>
	<g>
		<g>
			<ellipse class="st10" cx="189.6" cy="222.6" rx="9.5" ry="9.5"/>
		</g>
		<g>
			
				<ellipse transform="matrix(0.7071 -0.7071 0.7071 0.7071 -62.9478 293.1009)" class="st11" cx="322.3" cy="222.5" rx="9.5" ry="9.5"/>
		</g>
	</g>
	<g>
		<path class="st7" d="M280.2,239c-9.5,0-39,0-48.5,0c-18.7,0-33.9,15.2-33.9,33.9s15.2,33.9,33.9,33.9c9.5,0,18.1-3.9,24.2-10.2
			c6.2,6.3,14.8,10.2,24.2,10.2c18.7,0,33.9-15.2,33.9-33.9S299,239,280.2,239L280.2,239z"/>
	</g>
	<g>
		<path class="st8" d="M280.2,239c-4.7,0-14.5,0-24.2,0v57.7c0,0,0,0,0,0c6.2,6.3,14.8,10.2,24.2,10.2c18.7,0,33.9-15.2,33.9-33.9
			C314.1,254.2,299,239,280.2,239L280.2,239z"/>
	</g>
	<g>
		<path class="st12" d="M241,256.3h30v33.2h-30V256.3z"/>
	</g>
	<g>
		<path class="st13" d="M256,256.3h15v33.2h-15V256.3z"/>
	</g>
	<g>
		<path class="st12" d="M282.4,247.2c0,11.8-11.8,21.3-26.4,21.3s-26.4-9.5-26.4-21.3s11.8-12.7,26.4-12.7S282.4,235.4,282.4,247.2z
			"/>
	</g>
	<g>
		<path class="st13" d="M256,234.5C256,234.5,256,234.5,256,234.5l0,34h0c14.6,0,26.4-9.5,26.4-21.3S270.6,234.5,256,234.5z"/>
	</g>
</g>
</svg>
