<svg id="Capa_1" enable-background="new 0 0 512 512" height="512" viewBox="0 0 512 512" width="512" xmlns="http://www.w3.org/2000/svg"><g><path d="m403.983 464.917c65.363-46.383 108.017-122.668 108.017-208.917 0-141.385-114.615-256-256-256s-256 114.615-256 256c0 86.249 42.654 162.534 108.017 208.917z" fill="#ff6c52"/><path d="m511.938 251.145-136.25-136.25-29.954 161.971 58.245 188.029c65.361-46.381 108.021-122.649 108.021-208.895 0-1.623-.031-3.239-.062-4.855z" fill="#ff432e"/><g><path d="m107.881 464.823c41.809 29.709 92.924 47.177 148.119 47.177s106.31-17.468 148.119-47.177l-35.407-236.309h-225.424z" fill="#fdba12"/></g><g><path d="m404.119 464.823-35.407-236.309h-112.726v283.486h.014c55.195 0 106.31-17.468 148.119-47.177z" fill="#ffa300"/></g><g><path d="m256 512c31.573 0 61.81-5.716 89.734-16.169v-7.486c0-49.559-40.175-89.734-89.734-89.734s-89.734 40.176-89.734 89.734v7.486c27.924 10.453 58.162 16.169 89.734 16.169z" fill="#ffa300"/></g><g><path d="m256 398.611c-.005 0-.009 0-.014 0v113.389h.014c31.573 0 61.81-5.716 89.734-16.169v-7.486c0-49.559-40.175-89.734-89.734-89.734z" fill="#fe8205"/></g><g><path d="m424.076 232.889c0 92.826-75.25 198.387-168.076 198.387s-168.076-105.561-168.076-198.387 75.25-168.076 168.076-168.076 168.076 75.251 168.076 168.076z" fill="#a65d4e"/></g><g><path d="m256 64.813c-.005 0-.009 0-.014 0v366.463h.014c92.826 0 168.076-105.562 168.076-198.387s-75.25-168.076-168.076-168.076z" fill="#784132"/></g><g><g><ellipse cx="162.654" cy="162.397" fill="#ffe89c" rx="38.505" ry="38.505" transform="matrix(.23 -.973 .973 .23 -32.769 283.389)"/></g><g><ellipse cx="349.346" cy="162.397" fill="#fad17f" rx="38.505" ry="38.505" transform="matrix(.707 -.707 .707 .707 -12.511 294.59)"/></g></g><g><path d="m141.911 210.209c0-61.854 51.079-84.619 114.089-84.619s114.089 22.766 114.089 84.619c0 61.854-51.079 133.151-114.089 133.151s-114.089-71.297-114.089-133.151z" fill="#ffce00"/></g><g><path d="m256 125.59c-.005 0-.009 0-.014 0v217.77h.014c63.01 0 114.089-71.297 114.089-133.151 0-61.853-51.079-84.619-114.089-84.619z" fill="#fdba12"/></g><g><g><ellipse cx="189.611" cy="222.525" fill="#555a66" rx="9.49" ry="9.49" transform="matrix(.23 -.973 .973 .23 -70.525 355.938)"/></g><g><ellipse cx="322.389" cy="222.525" fill="#333940" rx="9.49" ry="9.49" transform="matrix(.707 -.707 .707 .707 -62.924 293.139)"/></g></g><g><path d="m280.228 238.994c-9.491 0-38.965 0-48.456 0-18.733 0-33.919 15.186-33.919 33.919s15.186 33.919 33.919 33.919c9.491 0 18.058-3.885 24.214-10.168 6.156 6.283 14.751 10.168 24.242 10.168 18.733 0 33.919-15.186 33.919-33.919s-15.186-33.919-33.919-33.919z" fill="#ffe89c"/></g><g><path d="m280.228 238.994c-4.748 0-14.496 0-24.242 0v57.67c.005-.005-.005.005 0 0 6.156 6.283 14.751 10.167 24.242 10.167 18.733 0 33.919-15.186 33.919-33.919 0-18.732-15.186-33.918-33.919-33.918z" fill="#fad17f"/></g><g><path d="m241 256.302h30v33.223h-30z" fill="#414952"/></g><g><path d="m255.986 256.302h15.014v33.223h-15.014z" fill="#23272b"/></g><g><path d="m282.379 247.177c0 11.753-11.81 21.281-26.379 21.281s-26.379-9.528-26.379-21.281 11.81-12.702 26.379-12.702 26.379.949 26.379 12.702z" fill="#414952"/></g><g><path d="m256 234.475c-.005 0-.009 0-.014 0v33.983h.014c14.569 0 26.379-9.528 26.379-21.281s-11.81-12.702-26.379-12.702z" fill="#23272b"/></g></g></svg>