<svg id="Capa_1" enable-background="new 0 0 512 512" height="512" viewBox="0 0 512 512" width="512" xmlns="http://www.w3.org/2000/svg"><g><path d="m349.355 494.438c95.216-37.308 162.645-129.996 162.645-238.438 0-141.385-114.615-256-256-256s-256 114.615-256 256c0 108.442 67.429 201.13 162.645 238.438z" fill="#c38778"/><g fill="#a65d4e"><path d="m498.182 172.852-111.949-111.949-23.515 9.373-90.982 79.563-62.004-62.004-83.965-26.932 74.031 74.031-84.687 53.105 92.273 92.273-16.233 16.299 104.671 23.764 53.532 174.056c95.215-37.308 162.646-129.99 162.646-238.431 0-29.108-4.868-57.076-13.818-83.148z"/><path d="m181.537 306.265-25.923 26.028 21.183 21.184z"/></g><g><path d="m227.081 123.952s-10.411-72.823-101.314-63.05c0 0 53.748 31.276 56.355 102.298z" fill="#fff"/></g><g><path d="m284.919 123.952s10.411-72.823 101.314-63.05c0 0-53.748 31.276-56.355 102.298z" fill="#e9edf5"/></g><g><ellipse cx="140.753" cy="162.397" fill="#ffa300" rx="36.263" ry="53.576" transform="matrix(.707 -.707 .707 .707 -73.606 147.092)"/></g><g><ellipse cx="371.247" cy="162.397" fill="#fe8205" rx="53.576" ry="36.263" transform="matrix(.707 -.707 .707 .707 -6.096 310.076)"/></g><g><path d="m162.548 494.407c28.951 11.357 60.473 17.593 93.452 17.593s64.501-6.236 93.452-17.593l-19.958-198.796h-146.988z" fill="#fdba12"/></g><g><path d="m329.494 295.611h-73.494v216.389c32.979 0 64.501-6.236 93.452-17.593z" fill="#ffa300"/></g><g><path d="m390.03 259.771c0 72.187-60.007 98.756-134.03 98.756s-134.03-26.569-134.03-98.756 60.007-155.395 134.03-155.395 134.03 83.208 134.03 155.395z" fill="#ffce00"/></g><g><path d="m256 104.375v254.151c74.023 0 134.03-26.569 134.03-98.756s-60.007-155.395-134.03-155.395z" fill="#fdba12"/></g><g><g><ellipse cx="182.257" cy="204.934" fill="#555a66" rx="14.078" ry="14.078" transform="matrix(.16 -.987 .987 .16 -49.226 352.011)"/></g><g><ellipse cx="329.743" cy="204.934" fill="#333940" rx="14.078" ry="14.078" transform="matrix(.16 -.987 .987 .16 74.636 497.593)"/></g></g><g><circle cx="256" cy="282.283" fill="#ffe89c" r="65.162"/></g><g><path d="m256 217.121v130.324c35.988 0 65.162-29.174 65.162-65.162s-29.174-65.162-65.162-65.162z" fill="#fad17f"/></g><g><path d="m289.958 233.472c0 15.13-15.204 27.396-33.958 27.396s-33.958-12.266-33.958-27.396 15.204-16.352 33.958-16.352 33.958 1.222 33.958 16.352z" fill="#414952"/></g><g><path d="m256 217.121v43.747c18.755 0 33.958-12.265 33.958-27.396 0-15.13-15.203-16.351-33.958-16.351z" fill="#23272b"/></g></g></svg>