<?xml version="1.0" encoding="utf-8"?>
<!-- Generator: Adobe Illustrator 24.3.0, SVG Export Plug-In . SVG Version: 6.00 Build 0)  -->
<svg version="1.1" id="Capa_1" xmlns="http://www.w3.org/2000/svg" xmlns:xlink="http://www.w3.org/1999/xlink" x="0px" y="0px"
	 viewBox="0 0 512 512" style="enable-background:new 0 0 512 512;" xml:space="preserve">
<style type="text/css">
	.st0{display:none;fill:#1DD882;}
	.st1{display:none;}
	.st2{display:inline;fill:#E9EDF5;}
	.st3{display:inline;fill:#CDD2E1;}
	.st4{display:inline;fill:#AFB4C8;}
	.st5{display:none;fill:#E9EDF5;}
	.st6{display:none;fill:#CDD2E1;}
	.st7{display:inline;fill:#FFFFFF;}
	.st8{display:inline;fill:#414952;}
	.st9{display:inline;fill:#23272B;}
	.st10{display:inline;}
	.st11{fill:#555A66;}
	.st12{fill:#333940;}
</style>
<g>
	<path class="st0" d="M369.3,485.6C453.9,443.8,512,356.7,512,256C512,114.6,397.4,0,256,0S0,114.6,0,256
		c0,100.7,58.1,187.8,142.7,229.6H369.3z"/>
	<path d="M504.4,193.8L367.3,56.6l-2.2-2.1l-37.4,146.3L183.1,56.1l-1.7-1.6l-30.9,284.6l12.3,12.3l23.8-7.4l113.8,13.7l68.8,127.9
		C453.9,443.8,512,356.7,512,256C512,234.5,509.3,213.7,504.4,193.8L504.4,193.8z"/>
	<g class="st1">
		<path class="st2" d="M204.6,137c0,59.7-18.1,127-40.4,127s-40.4-67.3-40.4-127s18.1-89.3,40.4-89.3S204.6,77.3,204.6,137
			L204.6,137z"/>
	</g>
	<g class="st1">
		<path class="st3" d="M186.6,145.7c-0.4,33-10.7,70.1-23.1,70s-21.9-37.4-21.6-70.4s10.5-49.3,22.9-49.1
			C177.1,96.2,187,112.7,186.6,145.7L186.6,145.7z"/>
	</g>
	<g class="st1">
		<path class="st3" d="M307.4,137c0,59.7,18.1,127,40.4,127s40.4-67.3,40.4-127s-18.1-89.3-40.4-89.3
			C325.5,47.7,307.4,77.3,307.4,137L307.4,137z"/>
	</g>
	<g class="st1">
		<path class="st4" d="M325.4,145.7c0.4,33,10.7,70.1,23.1,70s21.9-37.4,21.6-70.4s-10.5-49.3-22.9-49.1
			C334.9,96.2,325,112.7,325.4,145.7L325.4,145.7z"/>
	</g>
	<path class="st5" d="M184.3,463.5c0-39.6,32.1-71.7,71.7-71.7s71.7,32.1,71.7,71.7v38.3c14.5-4.2,28.5-9.7,41.8-16.3l-23.4-156.2
		H165.9l-23.4,156.2c13.3,6.6,27.3,12,41.8,16.3L184.3,463.5z"/>
	<path class="st6" d="M256,391.8c39.6,0,71.7,32.1,71.7,71.7v38.3c14.5-4.2,28.5-9.7,41.8-16.3l-23.4-156.2H256L256,391.8
		C256,391.8,256,391.8,256,391.8L256,391.8z"/>
	<g class="st1">
		<path class="st7" d="M381.5,287.2c0,61-56.2,83.5-125.5,83.5s-125.5-22.5-125.5-83.5S186.7,155.8,256,155.8
			S381.5,226.1,381.5,287.2z"/>
	</g>
	<g class="st1">
		<path class="st2" d="M256,155.8C256,155.8,256,155.8,256,155.8l0,214.9h0c69.3,0,125.5-22.5,125.5-83.5S325.3,155.8,256,155.8
			L256,155.8z"/>
	</g>
	<g class="st1">
		<path class="st2" d="M277.9,292.1c-8.6,0-35.3,0-43.8,0c-16.9,0-30.7,13.7-30.7,30.7s13.7,30.7,30.7,30.7c8.6,0,16.3-3.5,21.9-9.2
			c5.6,5.7,13.3,9.2,21.9,9.2c17,0,30.7-13.7,30.7-30.7C308.6,305.8,294.9,292.1,277.9,292.1z"/>
	</g>
	<g class="st1">
		<path class="st3" d="M277.9,292.1c-4.3,0-13.1,0-21.9,0v52.2c0,0,0,0,0,0c5.6,5.7,13.3,9.2,21.9,9.2c17,0,30.7-13.7,30.7-30.7
			S294.9,292.1,277.9,292.1z"/>
	</g>
	<g class="st1">
		<path class="st8" d="M282.4,299.2c0,11.8-11.8,21.3-26.4,21.3s-26.4-9.5-26.4-21.3s11.8-12.7,26.4-12.7S282.4,287.4,282.4,299.2z"
			/>
	</g>
	<g class="st1">
		<path class="st9" d="M256,286.5C256,286.5,256,286.5,256,286.5l0,34h0c14.6,0,26.4-9.5,26.4-21.3S270.6,286.5,256,286.5z"/>
	</g>
	<g class="st1">
		<g class="st10">
			<ellipse class="st11" cx="181.3" cy="256.6" rx="17.3" ry="17.3"/>
		</g>
		<g class="st10">
			<ellipse class="st12" cx="330.4" cy="256.6" rx="17.3" ry="17.3"/>
		</g>
	</g>
	<g class="st1">
		<path class="st7" d="M256,390.8c-39.6,0-71.7,32.1-71.7,71.7v39.3c22.8,6.6,46.8,10.2,71.7,10.2s49-3.6,71.7-10.2v-39.3
			C327.7,422.9,295.6,390.8,256,390.8z"/>
	</g>
	<g class="st1">
		<path class="st2" d="M256,390.8C256,390.8,256,390.8,256,390.8l0,121.2h0c24.9,0,49-3.6,71.7-10.2v-39.3
			C327.7,422.9,295.6,390.8,256,390.8L256,390.8z"/>
	</g>
</g>
</svg>
