<svg id="Capa_1" enable-background="new 0 0 512 512" height="512" viewBox="0 0 512 512" width="512" xmlns="http://www.w3.org/2000/svg"><g><path d="m403.949 464.94c65.382-46.381 108.051-122.676 108.051-208.94 0-141.385-114.615-256-256-256s-256 114.615-256 256c0 86.264 42.669 162.559 108.051 208.94z" fill="#ffce00"/><g><path d="m502.753 187.573-61.488-61.488-352.73 92.365 56.1 56.1 43.03-12.55 142.394-4.342 73.889 207.279c65.381-46.381 108.052-122.674 108.052-208.937 0-23.699-3.22-46.646-9.247-68.427z" fill="#ffa300"/></g><g><g><path d="m348.9 143.885c7.854-7.854 16.878-13.82 26.511-17.908l41.208 20.114 25.423 44.199c-4.093 10.251-10.277 19.861-18.576 28.16-24.972 24.971-61.772 30.905-92.365 17.8-13.106-30.592-7.173-67.393 17.799-92.365z" fill="#db0404"/></g><g><path d="m441.265 126.086c8.749 20.425 9 43.614.777 64.205l-66.631-64.313c20.995-8.91 44.883-8.876 65.854.108z" fill="#414952"/></g><g><path d="m369.029 164.017c3.613-3.613 7.765-6.358 12.196-8.238 9.659-4.098 20.648-4.083 30.295.05 4.025 9.396 4.14 20.064.357 29.537-1.883 4.716-4.728 9.137-8.546 12.955-11.488 11.488-28.418 14.217-42.491 8.189-6.028-14.075-3.298-31.005 8.189-42.493z" fill="#23272b"/></g><g><path d="m163.1 143.885c-7.854-7.854-16.878-13.82-26.511-17.908l-41.208 20.114-25.423 44.199c4.093 10.251 10.277 19.861 18.576 28.16 24.972 24.971 61.772 30.905 92.365 17.8 13.106-30.592 7.173-67.393-17.799-92.365z" fill="#ff432e"/></g><g><path d="m70.735 126.086c-8.749 20.425-9 43.614-.777 64.205l66.631-64.313c-20.995-8.91-44.883-8.876-65.854.108z" fill="#636978"/></g><g><path d="m142.971 164.017c-3.613-3.613-7.765-6.358-12.196-8.238-9.659-4.098-20.648-4.083-30.295.05-4.025 9.396-4.14 20.064-.357 29.537 1.883 4.716 4.728 9.137 8.546 12.955 11.488 11.488 28.418 14.217 42.491 8.189 6.028-14.075 3.298-31.005-8.189-42.493z" fill="#414952"/></g></g><path d="m166.266 489.345c0-49.559 40.175-89.734 89.734-89.734s89.734 40.176 89.734 89.734v6.476c20.891-7.821 40.492-18.284 58.385-30.998l-45.407-236.309h-205.424l-45.407 236.309c17.892 12.714 37.493 23.177 58.384 30.998v-6.476z" fill="#ff432e"/><path d="m345.734 489.345v6.476c20.891-7.821 40.492-18.284 58.385-30.998l-45.407-236.309h-102.712v171.096c49.559.001 89.734 40.176 89.734 89.735z" fill="#db0404"/><g><path d="m256 512c31.572 0 61.81-5.716 89.734-16.169v-7.486c0-49.559-40.175-89.734-89.734-89.734s-89.734 40.176-89.734 89.734v7.486c27.924 10.453 58.161 16.169 89.734 16.169z" fill="#ff6c52"/></g><g><path d="m256 398.611v113.389c31.572 0 61.81-5.716 89.734-16.169v-7.486c0-49.559-40.175-89.734-89.734-89.734z" fill="#ff432e"/></g><path d="m256 123.085c-85.294 0-154.439 69.431-154.439 133.489 0 32.09 17.354 56.586 45.396 73.046 11.617-47.026 56.026-90.705 109.043-90.705s97.426 43.679 109.043 90.705c28.042-16.459 45.396-40.956 45.396-73.046 0-64.058-69.145-133.489-154.439-133.489z" fill="#ff6c52"/><path d="m256 123.085v115.83c53.018 0 97.426 43.679 109.043 90.705 28.042-16.459 45.396-40.956 45.396-73.046 0-64.058-69.145-133.489-154.439-133.489z" fill="#ff432e"/><g><path d="m256 354.437c42.676 0 81.309-8.463 109.261-24.944-11.279-47.358-55.915-91.579-109.261-91.579s-97.982 44.221-109.261 91.579c27.952 16.481 66.585 24.944 109.261 24.944z" fill="#ffe89c"/></g><g><path d="m256 237.914v116.523c42.676 0 81.309-8.463 109.261-24.944-11.279-47.358-55.915-91.579-109.261-91.579z" fill="#fad17f"/></g><g><ellipse cx="184.184" cy="214.021" fill="#414952" rx="17.919" ry="17.919" transform="matrix(.707 -.707 .707 .707 -97.39 192.923)"/></g><g><ellipse cx="327.816" cy="214.021" fill="#23272b" rx="17.919" ry="17.919" transform="matrix(.789 -.615 .615 .789 -62.298 246.872)"/></g><g><path d="m284.799 235.707c0 12.832-12.894 23.234-28.799 23.234s-28.799-10.402-28.799-23.234 12.894-13.867 28.799-13.867 28.799 1.036 28.799 13.867z" fill="#414952"/></g><g><path d="m256 221.84v37.101c15.905 0 28.799-10.402 28.799-23.234 0-12.831-12.894-13.867-28.799-13.867z" fill="#23272b"/></g><g><path d="m241 243.017h30v59.945h-30z" fill="#414952"/></g><g><path d="m256 243.017h15v59.945h-15z" fill="#23272b"/></g></g></svg>