<?xml version="1.0" encoding="utf-8"?>
<!-- Generator: Adobe Illustrator 24.3.0, SVG Export Plug-In . SVG Version: 6.00 Build 0)  -->
<svg version="1.1" id="Capa_1" xmlns="http://www.w3.org/2000/svg" xmlns:xlink="http://www.w3.org/1999/xlink" x="0px" y="0px"
	 viewBox="0 0 512 512" style="enable-background:new 0 0 512 512;" xml:space="preserve">
<style type="text/css">
	.st0{display:none;fill:#FFCE00;}
	.st1{display:none;}
	.st2{display:inline;}
	.st3{fill:#DB0404;}
	.st4{fill:#414952;}
	.st5{fill:#23272B;}
	.st6{fill:#FF432E;}
	.st7{fill:#636978;}
	.st8{display:none;fill:#FF432E;}
	.st9{display:none;fill:#DB0404;}
	.st10{display:inline;fill:#FF6C52;}
	.st11{display:inline;fill:#FF432E;}
	.st12{display:none;fill:#FF6C52;}
	.st13{display:inline;fill:#FFE89C;}
	.st14{display:inline;fill:#FAD17F;}
	.st15{display:inline;fill:#414952;}
	.st16{display:inline;fill:#23272B;}
</style>
<g>
	<path class="st0" d="M403.9,464.9C469.3,418.6,512,342.3,512,256C512,114.6,397.4,0,256,0S0,114.6,0,256
		c0,86.3,42.7,162.6,108.1,208.9H403.9z"/>
	<g>
		<path d="M502.8,187.6l-61.5-61.5L88.5,218.4l56.1,56.1l43-12.5l142.4-4.3l73.9,207.3C469.3,418.6,512,342.3,512,256
			C512,232.3,508.8,209.4,502.8,187.6L502.8,187.6z"/>
	</g>
	<g class="st1">
		<g class="st2">
			<path class="st3" d="M348.9,143.9c7.9-7.9,16.9-13.8,26.5-17.9l41.2,20.1l25.4,44.2c-4.1,10.3-10.3,19.9-18.6,28.2
				c-25,25-61.8,30.9-92.4,17.8C318,205.7,323.9,168.9,348.9,143.9L348.9,143.9z"/>
		</g>
		<g class="st2">
			<path class="st4" d="M441.3,126.1c8.7,20.4,9,43.6,0.8,64.2L375.4,126C396.4,117.1,420.3,117.1,441.3,126.1z"/>
		</g>
		<g class="st2">
			<path class="st5" d="M369,164c3.6-3.6,7.8-6.4,12.2-8.2c9.7-4.1,20.6-4.1,30.3,0.1c4,9.4,4.1,20.1,0.4,29.5
				c-1.9,4.7-4.7,9.1-8.5,13c-11.5,11.5-28.4,14.2-42.5,8.2C354.8,192.4,357.5,175.5,369,164L369,164z"/>
		</g>
		<g class="st2">
			<path class="st6" d="M163.1,143.9c-7.9-7.9-16.9-13.8-26.5-17.9l-41.2,20.1L70,190.3c4.1,10.3,10.3,19.9,18.6,28.2
				c25,25,61.8,30.9,92.4,17.8C194,205.7,188.1,168.9,163.1,143.9L163.1,143.9z"/>
		</g>
		<g class="st2">
			<path class="st7" d="M70.7,126.1c-8.7,20.4-9,43.6-0.8,64.2l66.6-64.3C115.6,117.1,91.7,117.1,70.7,126.1z"/>
		</g>
		<g class="st2">
			<path class="st4" d="M143,164c-3.6-3.6-7.8-6.4-12.2-8.2c-9.7-4.1-20.6-4.1-30.3,0.1c-4,9.4-4.1,20.1-0.4,29.5
				c1.9,4.7,4.7,9.1,8.5,13c11.5,11.5,28.4,14.2,42.5,8.2C157.2,192.4,154.5,175.5,143,164z"/>
		</g>
	</g>
	<path class="st8" d="M166.3,489.3c0-49.6,40.2-89.7,89.7-89.7s89.7,40.2,89.7,89.7v6.5c20.9-7.8,40.5-18.3,58.4-31l-45.4-236.3
		H153.3l-45.4,236.3c17.9,12.7,37.5,23.2,58.4,31L166.3,489.3L166.3,489.3z"/>
	<path class="st9" d="M345.7,489.3v6.5c20.9-7.8,40.5-18.3,58.4-31l-45.4-236.3H256v171.1C305.6,399.6,345.7,439.8,345.7,489.3
		L345.7,489.3z"/>
	<g class="st1">
		<path class="st10" d="M256,512c31.6,0,61.8-5.7,89.7-16.2v-7.5c0-49.6-40.2-89.7-89.7-89.7s-89.7,40.2-89.7,89.7v7.5
			C194.2,506.3,224.4,512,256,512z"/>
	</g>
	<g class="st1">
		<path class="st11" d="M256,398.6V512c31.6,0,61.8-5.7,89.7-16.2v-7.5C345.7,438.8,305.6,398.6,256,398.6z"/>
	</g>
	<path class="st12" d="M256,123.1c-85.3,0-154.4,69.4-154.4,133.5c0,32.1,17.4,56.6,45.4,73c11.6-47,56-90.7,109-90.7
		s97.4,43.7,109,90.7c28-16.5,45.4-41,45.4-73C410.4,192.5,341.3,123.1,256,123.1z"/>
	<path class="st8" d="M256,123.1v115.8c53,0,97.4,43.7,109,90.7c28-16.5,45.4-41,45.4-73C410.4,192.5,341.3,123.1,256,123.1z"/>
	<g class="st1">
		<path class="st13" d="M256,354.4c42.7,0,81.3-8.5,109.3-24.9c-11.3-47.4-55.9-91.6-109.3-91.6s-98,44.2-109.3,91.6
			C174.7,346,213.3,354.4,256,354.4L256,354.4z"/>
	</g>
	<g class="st1">
		<path class="st14" d="M256,237.9v116.5c42.7,0,81.3-8.5,109.3-24.9C354,282.1,309.3,237.9,256,237.9L256,237.9z"/>
	</g>
	<g class="st1">
		<ellipse class="st15" cx="184.1" cy="214" rx="17.9" ry="17.9"/>
	</g>
	<g class="st1">
		<ellipse class="st16" cx="328" cy="214.1" rx="17.9" ry="17.9"/>
	</g>
	<g class="st1">
		<path class="st15" d="M284.8,235.7c0,12.8-12.9,23.2-28.8,23.2s-28.8-10.4-28.8-23.2s12.9-13.9,28.8-13.9S284.8,222.9,284.8,235.7
			L284.8,235.7z"/>
	</g>
	<g class="st1">
		<path class="st16" d="M256,221.8v37.1c15.9,0,28.8-10.4,28.8-23.2C284.8,222.9,271.9,221.8,256,221.8L256,221.8z"/>
	</g>
	<g class="st1">
		<path class="st15" d="M241,243h30V303h-30V243z"/>
	</g>
	<g class="st1">
		<path class="st16" d="M256,243h15V303h-15V243z"/>
	</g>
</g>
</svg>
