<?xml version="1.0" encoding="utf-8"?>
<!-- Generator: Adobe Illustrator 24.3.0, SVG Export Plug-In . SVG Version: 6.00 Build 0)  -->
<svg version="1.1" id="Capa_1" xmlns="http://www.w3.org/2000/svg" xmlns:xlink="http://www.w3.org/1999/xlink" x="0px" y="0px"
	 viewBox="0 0 512 512" style="enable-background:new 0 0 512 512;" xml:space="preserve">
<style type="text/css">
	.st0{display:none;fill:#C38778;}
	.st1{display:none;}
	.st2{display:inline;fill:#E9EDF5;}
	.st3{display:inline;fill:#CDD2E1;}
	.st4{display:inline;fill:#AFB4C8;}
	.st5{display:none;fill:#E9EDF5;}
	.st6{display:none;fill:#CDD2E1;}
	.st7{display:inline;fill:#FFFFFF;}
	.st8{display:inline;}
	.st9{fill:#414952;}
	.st10{fill:#23272B;}
	.st11{display:inline;fill:#FF6C52;}
	.st12{display:inline;fill:#FF432E;}
</style>
<g>
	<path class="st0" d="M369,484.7c84.4-41.7,142.5-128.7,142.5-229.2C511.5,114.4,397.1,0,256,0S0.5,114.4,0.5,255.5
		C0.5,356.1,58.6,443,143,484.7L369,484.7z"/>
	<path d="M509.6,223.8L400.7,114.9L295,198.8l-78.6-78.6L114.1,220.5l77.9,77.9l-41.5,40.7l12.5,12.5L190,345l118,16.5L369,484.7
		c84.4-41.7,142.5-128.7,142.5-229.2C511.5,244.8,510.8,234.2,509.6,223.8L509.6,223.8z"/>
	<g class="st1">
		<ellipse class="st2" cx="161.4" cy="166.5" rx="71.8" ry="71.8"/>
	</g>
	<g class="st1">
		<ellipse class="st3" cx="161.5" cy="166.4" rx="35.3" ry="35.3"/>
	</g>
	<g class="st1">
		<ellipse class="st3" cx="350.5" cy="166.3" rx="71.8" ry="71.8"/>
	</g>
	<g class="st1">
		
			<ellipse transform="matrix(0.3829 -0.9238 0.9238 0.3829 62.658 426.692)" class="st4" cx="350.7" cy="166.4" rx="35.3" ry="35.3"/>
	</g>
	<path class="st5" d="M184.4,463.6c0-39.5,32-71.6,71.6-71.6s71.6,32,71.6,71.6v38.2c14.5-4.2,28.4-9.7,41.7-16.2l-23.4-155.9H166.1
		l-23.4,155.9c13.3,6.6,27.2,12,41.7,16.2L184.4,463.6z"/>
	<path class="st6" d="M327.6,463.6v38.2c14.5-4.2,28.4-9.7,41.7-16.2l-23.4-155.9H256v62.4C295.5,392.1,327.6,424.1,327.6,463.6
		L327.6,463.6z"/>
	<g class="st1">
		<path class="st7" d="M381.3,287.6c0,60.9-56.1,83.3-125.3,83.3s-125.3-22.4-125.3-83.3S186.8,156.5,256,156.5
			S381.3,226.7,381.3,287.6L381.3,287.6z"/>
	</g>
	<g class="st1">
		<path class="st2" d="M256,156.5V371c69.2,0,125.3-22.4,125.3-83.3S325.2,156.5,256,156.5L256,156.5z"/>
	</g>
	<g class="st1">
		<path class="st7" d="M256,391.1c-39.5,0-71.6,32-71.6,71.6v39.2c22.7,6.6,46.7,10.2,71.6,10.2s48.9-3.5,71.6-10.2v-39.2
			C327.6,423.1,295.5,391.1,256,391.1L256,391.1z"/>
	</g>
	<g class="st1">
		<path class="st2" d="M256,391.1V512c24.8,0,48.9-3.5,71.6-10.2v-39.2C327.6,423.1,295.5,391.1,256,391.1L256,391.1z"/>
	</g>
	<g class="st1">
		<g class="st8">
			<circle class="st9" cx="184.3" cy="241.9" r="17.9"/>
		</g>
		<g class="st8">
			<circle class="st10" cx="327.7" cy="241.9" r="17.9"/>
		</g>
	</g>
	<g class="st1">
		<ellipse class="st11" cx="255.9" cy="269.8" rx="28" ry="28"/>
	</g>
	<g class="st1">
		<path class="st12" d="M256,241.9v55.9c15.4,0,28-12.5,28-28S271.4,241.9,256,241.9L256,241.9z"/>
	</g>
</g>
</svg>
