<svg id="Capa_1" enable-background="new 0 0 513 513" height="512" viewBox="0 0 513 513" width="512" xmlns="http://www.w3.org/2000/svg"><g><path d="m369.682 485.665c84.611-41.778 142.818-128.917 142.818-229.665 0-141.385-114.615-256-256-256s-256 114.615-256 256c0 100.748 58.207 187.887 142.818 229.665z" fill="#c38778"/><path d="m510.549 224.241-109.109-109.108-105.854 84.042-78.722-78.722-102.553 100.478 78.026 78.026-41.606 40.826 12.562 12.562 27.113-6.678 118.262 16.501 61.014 123.503c84.613-41.778 142.818-128.922 142.818-229.671 0-10.754-.663-21.353-1.951-31.759z" fill="#a65d4e"/><g><ellipse cx="161.737" cy="166.761" fill="#e9edf5" rx="72" ry="72" transform="matrix(.23 -.973 .973 .23 -37.723 285.858)"/></g><g><ellipse cx="161.737" cy="166.761" fill="#cdd2e1" rx="35.386" ry="35.386" transform="matrix(.924 -.383 .383 .924 -51.505 74.588)"/></g><g><ellipse cx="351.263" cy="166.761" fill="#cdd2e1" rx="72" ry="72" transform="matrix(.973 -.23 .23 .973 -28.917 85.165)"/></g><g><ellipse cx="351.263" cy="166.761" fill="#afb4c8" rx="35.386" ry="35.386" transform="matrix(.383 -.924 .924 .383 62.773 427.469)"/></g><path d="m184.799 464.544c0-39.599 32.102-71.701 71.701-71.701s71.701 32.102 71.701 71.701v38.26c14.491-4.22 28.458-9.67 41.763-16.259l-23.403-156.192h-180.122l-23.403 156.192c13.305 6.589 27.272 12.039 41.763 16.259z" fill="#e9edf5"/><path d="m328.201 464.544v38.26c14.491-4.22 28.458-9.67 41.763-16.259l-23.403-156.192h-90.061v62.491c39.599-.001 71.701 32.101 71.701 71.7z" fill="#cdd2e1"/><g><path d="m382.041 288.176c0 61.042-56.207 83.508-125.541 83.508s-125.541-22.466-125.541-83.508 56.207-131.402 125.541-131.402 125.541 70.361 125.541 131.402z" fill="#fff"/></g><g><path d="m256.5 156.774v214.91c69.334 0 125.541-22.467 125.541-83.508s-56.207-131.402-125.541-131.402z" fill="#e9edf5"/></g><g><path d="m256.5 391.843c-39.599 0-71.701 32.102-71.701 71.701v39.279c22.751 6.625 46.811 10.177 71.701 10.177s48.95-3.552 71.701-10.177v-39.279c0-39.599-32.102-71.701-71.701-71.701z" fill="#fff"/></g><g><path d="m256.5 391.843v121.157c24.89 0 48.95-3.552 71.701-10.177v-39.279c0-39.599-32.102-71.701-71.701-71.701z" fill="#e9edf5"/></g><g><g><circle cx="184.684" cy="242.365" fill="#414952" r="17.919"/></g><g><circle cx="328.316" cy="242.365" fill="#23272b" r="17.919"/></g></g><g><ellipse cx="256.5" cy="270.383" fill="#ff6c52" rx="28.018" ry="28.018" transform="matrix(.16 -.987 .987 .16 -51.478 480.26)"/></g><g><path d="m256.5 242.365v56.036c15.474 0 28.018-12.544 28.018-28.018s-12.544-28.018-28.018-28.018z" fill="#ff432e"/></g></g></svg>