<?xml version="1.0" encoding="utf-8"?>
<!-- Generator: Adobe Illustrator 24.3.0, SVG Export Plug-In . SVG Version: 6.00 Build 0)  -->
<svg version="1.1" id="Capa_1" xmlns="http://www.w3.org/2000/svg" xmlns:xlink="http://www.w3.org/1999/xlink" x="0px" y="0px"
	 viewBox="0 0 512 512" style="enable-background:new 0 0 512 512;" xml:space="preserve">
<style type="text/css">
	.st0{display:none;}
	.st1{display:inline;}
	.st2{fill:#FFCE00;}
	.st3{display:none;opacity:0.33;}
	.st4{fill:#C38778;}
	.st5{fill:#A65D4E;}
	.st6{fill:#1DD882;}
	.st7{fill:#2CC47F;}
	.st8{fill:#414952;}
	.st9{fill:#23272B;}
	.st10{fill:#915041;}
	.st11{fill:#24BA72;}
	.st12{fill:#079E59;}
</style>
<g>
	<g class="st0">
		<g class="st1">
			<g>
				<g>
					<g>
						<g>
							<path class="st2" d="M16.1,345.7C5.7,317.8,0,287.5,0,256C0,114.6,114.6,0,256,0s256,114.6,256,256
								c0,31.5-5.7,61.8-16.1,89.7H16.1z"/>
						</g>
					</g>
				</g>
			</g>
		</g>
	</g>
	<path class="st3" d="M495.9,345.7c9.2-24.6,14.7-51.1,15.9-78.6L312.4,67l-7.7-7L357,404.5L495.9,345.7z"/>
	<g>
		<path class="st4" d="M256,512c99.1,0,185-56.3,227.5-138.6C457.3,275,365.4,202.3,256,202.3S54.7,275,28.5,373.4
			C71,455.7,156.9,512,256,512L256,512z"/>
	</g>
	<g>
		<path class="st5" d="M256,202.3V512c99.1,0,185-56.3,227.5-138.6C457.3,275,365.4,202.3,256,202.3L256,202.3z"/>
	</g>
	<g>
		<path class="st6" d="M334.2,304.9H177.8V121.2c0-43.2,35-78.2,78.2-78.2s78.2,35,78.2,78.2V304.9z"/>
	</g>
	<g>
		<path class="st7" d="M334.2,121.2c0-43.2-35-78.2-78.2-78.2v261.9h78.2V121.2z"/>
	</g>
	<path class="st7" d="M460.7,409.8c14.6-19.4,26.5-41,35.2-64.1c-9.9-31.8-39.6-55-74.7-55c-11.9,0-23.2,2.7-33.3,7.4
		C415.8,323.9,441,360.2,460.7,409.8L460.7,409.8z"/>
	<path class="st6" d="M127.2,299.7c-10.9-5.7-23.3-9-36.4-9c-35.1,0-64.8,23.1-74.7,55c8.7,23.3,20.7,44.9,35.4,64.4
		C69.3,363.7,96.4,326.8,127.2,299.7L127.2,299.7z"/>
	<g>
		<g>
			<circle class="st8" cx="216.8" cy="109.6" r="14.8"/>
		</g>
		<g>
			<circle class="st9" cx="295.2" cy="109.6" r="14.8"/>
		</g>
	</g>
	<g>
		<path class="st5" d="M460.9,409.4C412.2,286.1,329.1,244.1,256,244.1c-71.1,0-163.5,57.4-204.7,165.6C98,471.8,172.3,512,256,512
			C339.8,512,414.2,471.7,460.9,409.4L460.9,409.4z"/>
	</g>
	<g>
		<path class="st10" d="M256,244.1V512c83.8,0,158.2-40.3,204.9-102.6C412.2,286.1,329.1,244.1,256,244.1L256,244.1z"/>
	</g>
	<g>
		<path class="st11" d="M210.8,137.4c-12.2,0-23.4,4.5-32,12.1c8.6,7.5,19.8,12.1,32,12.1h90.4c12.2,0,23.4-4.5,32-12.1
			c-8.6-7.5-19.8-12.1-32-12.1H210.8z"/>
	</g>
	<g>
		<path class="st12" d="M333.2,149.5c-8.6-7.5-19.8-12.1-32-12.1H256v24.1h45.2C313.4,161.5,324.6,157,333.2,149.5L333.2,149.5z"/>
	</g>
</g>
</svg>
