<svg id="Capa_1" enable-background="new 0 0 512 512" height="512" viewBox="0 0 512 512" width="512" xmlns="http://www.w3.org/2000/svg"><g><g><g><g><g><g><g><path d="m16.143 345.667c-10.437-27.906-16.143-58.12-16.143-89.667 0-141.385 114.615-256 256-256s256 114.615 256 256c0 31.547-5.706 61.761-16.143 89.667z" fill="#ffce00"/></g></g></g></g></g></g><path d="m495.857 345.665c9.21-24.627 14.736-51.051 15.908-78.603l-199.368-200.05-7.695-7.012 52.318 344.49z" fill="#ffa300"/><g><path d="m256 512c99.062 0 184.982-56.267 227.545-138.584-26.239-98.436-118.168-171.124-227.545-171.124s-201.306 72.688-227.545 171.124c42.563 82.317 128.483 138.584 227.545 138.584z" fill="#c38778"/></g><g><path d="m256 202.292v309.708c99.062 0 184.982-56.267 227.545-138.584-26.239-98.436-118.168-171.124-227.545-171.124z" fill="#a65d4e"/></g><g><path d="m334.19 304.917h-156.38v-183.746c0-43.183 35.007-78.19 78.19-78.19 43.183 0 78.19 35.007 78.19 78.19z" fill="#1dd882"/></g><g><path d="m334.19 121.17c0-43.183-35.007-78.19-78.19-78.19v261.936h78.19z" fill="#2cc47f"/></g><path d="m460.662 409.771c14.609-19.413 26.538-40.957 35.195-64.104-9.894-31.839-39.587-54.958-74.681-54.958-11.896 0-23.165 2.669-33.259 7.421 27.871 25.757 53.08 62.116 72.745 111.641z" fill="#2cc47f"/><path d="m127.231 299.704c-10.875-5.734-23.258-8.995-36.407-8.995-35.094 0-64.787 23.12-74.681 54.958 8.698 23.257 20.699 44.896 35.403 64.381 17.775-46.301 44.9-83.248 75.685-110.344z" fill="#1dd882"/><g><g><circle cx="216.776" cy="109.595" fill="#414952" r="14.834"/></g><g><circle cx="295.224" cy="109.595" fill="#23272b" r="14.834"/></g></g><g><path d="m460.934 409.446c-48.742-123.375-131.816-165.359-204.934-165.359-71.107 0-163.453 57.37-204.721 165.643 46.711 62.106 121.026 102.27 204.721 102.27 83.823 0 158.236-40.287 204.934-102.554z" fill="#a65d4e"/></g><g><path d="m256 244.087v267.913c83.823 0 158.236-40.287 204.934-102.554-48.742-123.375-131.816-165.359-204.934-165.359z" fill="#915041"/></g><g><path d="m210.811 137.397c-12.216 0-23.398 4.54-32.028 12.063 8.63 7.523 19.812 12.063 32.028 12.063h90.378c12.216 0 23.398-4.54 32.028-12.063-8.63-7.524-19.812-12.063-32.028-12.063z" fill="#24ba72"/></g><g><path d="m333.217 149.46c-8.63-7.523-19.812-12.063-32.028-12.063h-45.189v24.126h45.189c12.216 0 23.398-4.54 32.028-12.063z" fill="#079e59"/></g></g></svg>