<?xml version="1.0" encoding="utf-8"?>
<!-- Generator: Adobe Illustrator 24.3.0, SVG Export Plug-In . SVG Version: 6.00 Build 0)  -->
<svg version="1.1" id="Capa_1" xmlns="http://www.w3.org/2000/svg" xmlns:xlink="http://www.w3.org/1999/xlink" x="0px" y="0px"
	 viewBox="0 0 512 512" style="enable-background:new 0 0 512 512;" xml:space="preserve">
<style type="text/css">
	.st0{display:none;}
	.st1{display:inline;}
	.st2{fill:#1DD882;}
	.st3{display:inline;fill:#FFFFFF;}
	.st4{display:inline;fill:#E9EDF5;}
	.st5{display:inline;fill:#FF6C52;}
	.st6{display:inline;fill:#FF432E;}
	.st7{fill:#FF432E;}
	.st8{fill:#FF6C52;}
	.st9{fill:#414952;}
	.st10{fill:#23272B;}
	.st11{display:inline;fill:#FFCE00;}
	.st12{display:inline;fill:#FDBA12;}
	.st13{display:inline;fill:#CDD2E1;}
</style>
<g>
	<g class="st0">
		<g class="st1">
			<g>
				<g>
					<g>
						<g>
							<path class="st2" d="M379.2,480.5C458.4,436.9,512,352.7,512,256C512,114.6,397.4,0,256,0S0,114.6,0,256
								c0,96.7,53.6,180.8,132.7,224.4L379.2,480.5z"/>
						</g>
					</g>
				</g>
			</g>
		</g>
	</g>
	<path d="M281.1,58.3L192,480.4l187.2,0c70.5-38.8,120.7-109.8,130.9-193.2L281.1,58.3z"/>
	<g class="st0">
		<path class="st3" d="M256,512c44.7,0,86.8-11.5,123.4-31.6l-31.8-270.1c-5.5-46.4-44.8-81.4-91.6-81.4s-86.1,35-91.6,81.4
			l-31.8,270.1C169.2,500.5,211.3,512,256,512z"/>
	</g>
	<g class="st0">
		<path class="st4" d="M347.6,210.2c-5.5-46.4-44.8-81.4-91.6-81.4V512c44.8,0,86.8-11.5,123.4-31.6L347.6,210.2z"/>
	</g>
	<g class="st0">
		<path class="st5" d="M291.7,83.6c0,19.7-16,67.9-35.7,67.9s-35.7-48.2-35.7-67.9s16-35.7,35.7-35.7S291.7,63.9,291.7,83.6z"/>
	</g>
	<g class="st0">
		<path class="st6" d="M291.7,83.6c0-19.7-15.9-35.7-35.6-35.7v103.6C275.7,151.5,291.7,103.3,291.7,83.6z"/>
	</g>
	<g class="st0">
		<g class="st1">
			<path class="st7" d="M264.5,305c-5.4-10.2-10.4-39.4-0.3-44.8c10.2-5.4,31.6,15.1,37,25.2c5.4,10.2,1.6,22.8-8.6,28.2
				S270,315.2,264.5,305L264.5,305z"/>
		</g>
		<g class="st1">
			<path class="st8" d="M247.5,305c5.4-10.2,10.4-39.4,0.3-44.8c-10.2-5.4-31.6,15.1-37,25.2c-5.4,10.2-1.6,22.8,8.6,28.2
				S242,315.2,247.5,305L247.5,305z"/>
		</g>
	</g>
	<g class="st0">
		<g class="st1">
			<ellipse class="st9" cx="204.8" cy="231.5" rx="16.4" ry="16.4"/>
		</g>
		<g class="st1">
			<ellipse class="st10" cx="307.1" cy="231.4" rx="16.5" ry="16.5"/>
		</g>
	</g>
	<g class="st0">
		<path class="st11" d="M283.5,245.1L256,298.3l-27.5-53.2H283.5z"/>
	</g>
	<g class="st0">
		<path class="st12" d="M256,245.1l0,53.2l27.5-53.2H256z"/>
	</g>
	<g class="st0">
		<path class="st4" d="M221.3,379.3c0,16.6-13.4,30-30,30s-30-13.4-30-30H221.3z"/>
	</g>
	<g class="st0">
		<path class="st13" d="M323.6,349.3c0,16.6-13.4,30-30,30s-30-13.4-30-30H323.6z"/>
	</g>
	<g class="st0">
		<path class="st4" d="M211.5,446.4c0,16.6-13.4,30-30,30s-30-13.4-30-30H211.5z"/>
	</g>
	<g class="st0">
		<path class="st13" d="M350.6,405c0,16.6-13.4,30-30,30s-30-13.4-30-30H350.6z"/>
	</g>
	<g class="st0">
		<path class="st4" d="M286,473.5c0,16.6-13.4,30-30,30s-30-13.4-30-30H286z"/>
	</g>
	<g class="st0">
		<path class="st13" d="M286,473.5H256v30C272.6,503.4,286,490,286,473.5z"/>
	</g>
</g>
</svg>
