<svg id="Capa_1" enable-background="new 0 0 512 512" height="512" viewBox="0 0 512 512" width="512" xmlns="http://www.w3.org/2000/svg"><g><g><g><g><g><g><g><path d="m379.216 480.451c79.149-43.542 132.784-127.733 132.784-224.451 0-141.385-114.615-256-256-256s-256 114.615-256 256c0 96.671 53.583 180.827 132.67 224.388z" fill="#1dd882"/></g></g></g></g></g></g><path d="m281.1 58.276-89.123 422.128 187.239.048c70.483-38.775 120.733-109.784 130.892-193.168z" fill="#0caa5f"/><g><path d="m256 512c44.724 0 86.769-11.469 123.355-31.626l-31.799-270.147c-5.465-46.425-44.811-81.411-91.556-81.411-46.745 0-86.091 34.986-91.556 81.411l-31.799 270.147c36.586 20.157 78.631 31.626 123.355 31.626z" fill="#fff"/></g><g><path d="m347.556 210.227c-5.463-46.411-44.787-81.389-91.556-81.41v383.183c44.75-.007 86.781-11.475 123.355-31.625z" fill="#e9edf5"/></g><g><path d="m291.674 83.62c0 19.702-15.972 67.928-35.674 67.928s-35.674-48.225-35.674-67.928 15.972-35.674 35.674-35.674 35.674 15.972 35.674 35.674z" fill="#ff6c52"/></g><g><path d="m291.674 83.62c0-19.688-15.949-35.65-35.632-35.673v103.599c19.683-.069 35.632-48.237 35.632-67.926z" fill="#ff432e"/></g><g><g><path d="m264.546 305.002c-5.409-10.158-10.415-39.405-.258-44.814 10.158-5.409 31.632 15.068 37.041 25.226 5.409 10.157 1.56 22.777-8.597 28.186s-22.776 1.56-28.186-8.598z" fill="#ff432e"/></g><g><path d="m247.454 305.002c5.409-10.158 10.415-39.405.258-44.814-10.158-5.409-31.632 15.068-37.041 25.226-5.409 10.157-1.56 22.777 8.597 28.186s22.776 1.56 28.186-8.598z" fill="#ff6c52"/></g></g><g><g><ellipse cx="204.851" cy="231.53" fill="#414952" rx="16.452" ry="16.452" transform="matrix(.707 -.707 .707 .707 -103.717 212.665)"/></g><g><ellipse cx="307.149" cy="231.53" fill="#23272b" rx="16.452" ry="16.452" transform="matrix(.255 -.967 .967 .255 4.892 469.411)"/></g></g><g><path d="m283.521 245.109-27.521 53.235-27.521-53.235z" fill="#ffce00"/></g><g><path d="m256.042 245.109-.042 53.235 27.521-53.235z" fill="#fdba12"/></g><g><path d="m221.303 379.276c0 16.554-13.419 29.973-29.973 29.973s-29.973-13.419-29.973-29.973z" fill="#e9edf5"/></g><g><path d="m323.602 349.303c0 16.553-13.419 29.973-29.973 29.973s-29.973-13.419-29.973-29.973z" fill="#cdd2e1"/></g><g><path d="m211.529 446.389c0 16.553-13.419 29.973-29.973 29.973s-29.973-13.419-29.973-29.973z" fill="#e9edf5"/></g><g><path d="m350.642 405.027c0 16.553-13.419 29.973-29.973 29.973s-29.973-13.419-29.973-29.973z" fill="#cdd2e1"/></g><g><path d="m285.973 473.5c0 16.553-13.419 29.973-29.973 29.973s-29.973-13.419-29.973-29.973z" fill="#e9edf5"/></g><g><path d="m285.973 473.5h-29.931v29.972c16.534-.023 29.931-13.433 29.931-29.972z" fill="#cdd2e1"/></g></g></svg>