<svg id="Capa_1" enable-background="new 0 0 512 512" height="512" viewBox="0 0 512 512" width="512" xmlns="http://www.w3.org/2000/svg"><g><path d="m422.762 450.225c54.631-46.949 89.238-116.542 89.238-194.225 0-141.385-114.615-256-256-256s-256 114.615-256 256c0 77.683 34.607 147.276 89.238 194.225z" fill="#a3d4ff"/><path d="m501.086 181.817-73.146-73.147-330.134 71.329 64.052 64.052 197.479 35.399 63.427 170.78c54.631-46.948 89.236-116.546 89.236-194.23 0-25.797-3.816-50.702-10.914-74.183z" fill="#65b1fc"/><g><ellipse cx="126.598" cy="151.208" fill="#ff583e" rx="40.717" ry="60.157" transform="matrix(.707 -.707 .707 .707 -69.84 133.806)"/></g><g><ellipse cx="385.402" cy="151.208" fill="#f92814" rx="60.157" ry="40.717" transform="matrix(.707 -.707 .707 .707 5.962 316.809)"/></g><path d="m152.663 455.611c0-57.072 46.266-103.337 103.337-103.337s103.337 46.266 103.337 103.337v34.659c23.205-10.251 44.608-23.835 63.583-40.167l-37.122-207.052h-259.596l-37.122 207.052c18.975 16.332 40.377 29.916 63.583 40.167z" fill="#ff583e"/><path d="m359.337 455.611v34.659c23.205-10.251 44.608-23.835 63.583-40.167l-37.122-207.052h-129.798v109.222c57.072 0 103.337 46.266 103.337 103.338z" fill="#f92814"/><g><path d="m256 351.273c-57.072 0-103.337 46.266-103.337 103.337v35.676c31.605 13.961 66.565 21.714 103.337 21.714s71.733-7.753 103.337-21.713v-35.676c0-57.072-46.265-103.338-103.337-103.338z" fill="#ff8870"/></g><g><path d="m256 351.273v160.727c36.772 0 71.732-7.753 103.337-21.713v-35.677c0-57.071-46.265-103.337-103.337-103.337z" fill="#ff583e"/></g><g><path d="m399.348 229.77c0 70.967-64.179 97.087-143.348 97.087s-143.348-26.12-143.348-97.087 64.179-152.77 143.348-152.77 143.348 81.802 143.348 152.77z" fill="#ff8870"/></g><g><path d="m256 77v249.857c79.169 0 143.348-26.12 143.348-97.087 0-70.968-64.179-152.77-143.348-152.77z" fill="#ff583e"/></g><g><g><g><circle cx="187.471" cy="166.894" fill="#414952" r="14.953"/></g></g><g><g><circle cx="324.529" cy="166.894" fill="#23272b" r="14.953"/></g></g></g><g><ellipse cx="256" cy="233.846" fill="#ff432e" rx="51.999" ry="51.999" transform="matrix(.16 -.987 .987 .16 -15.833 449.082)"/></g><g><path d="m256 181.847v103.999c28.718 0 51.999-23.281 51.999-52s-23.281-51.999-51.999-51.999z" fill="#db0404"/></g><g><g><circle cx="231.566" cy="233.477" fill="#414952" r="16.523"/></g><g><circle cx="280.434" cy="233.477" fill="#23272b" r="16.523"/></g></g></g></svg>