<?xml version="1.0" encoding="utf-8"?>
<!-- Generator: Adobe Illustrator 24.3.0, SVG Export Plug-In . SVG Version: 6.00 Build 0)  -->
<svg version="1.1" id="Capa_1" xmlns="http://www.w3.org/2000/svg" xmlns:xlink="http://www.w3.org/1999/xlink" x="0px" y="0px"
	 viewBox="0 0 512 512" style="enable-background:new 0 0 512 512;" xml:space="preserve">
<style type="text/css">
	.st0{display:none;fill:#A3D4FF;}
	.st1{display:none;}
	.st2{display:inline;fill:#FF583E;}
	.st3{display:inline;fill:#F92814;}
	.st4{display:none;fill:#FF583E;}
	.st5{display:none;fill:#F92814;}
	.st6{display:inline;fill:#FF8870;}
	.st7{display:inline;}
	.st8{fill:#414952;}
	.st9{fill:#23272B;}
	.st10{display:inline;fill:#FF432E;}
	.st11{display:inline;fill:#DB0404;}
</style>
<g>
	<path class="st0" d="M422.8,450.2C477.4,403.3,512,333.7,512,256C512,114.6,397.4,0,256,0S0,114.6,0,256
		c0,77.7,34.6,147.3,89.2,194.2H422.8z"/>
	<path d="M501.1,181.8l-73.1-73.1L97.8,180l64.1,64.1l197.5,35.4l63.4,170.8C477.4,403.3,512,333.7,512,256
		C512,230.2,508.2,205.3,501.1,181.8L501.1,181.8z"/>
	<g class="st1">
		
			<ellipse transform="matrix(0.7071 -0.7071 0.7071 0.7071 -69.8471 133.7847)" class="st2" cx="126.6" cy="151.2" rx="40.7" ry="60.1"/>
	</g>
	<g class="st1">
		
			<ellipse transform="matrix(0.7071 -0.7071 0.7071 0.7071 5.9266 316.7756)" class="st3" cx="385.3" cy="151.2" rx="60.1" ry="40.7"/>
	</g>
	<path class="st4" d="M152.7,455.6c0-57.1,46.3-103.3,103.3-103.3s103.3,46.3,103.3,103.3v34.7c23.2-10.3,44.6-23.8,63.6-40.2
		l-37.1-207.1H126.2L89.1,450.1c19,16.3,40.4,29.9,63.6,40.2V455.6z"/>
	<path class="st5" d="M359.3,455.6v34.7c23.2-10.3,44.6-23.8,63.6-40.2l-37.1-207.1H256v109.2C313.1,352.3,359.3,398.5,359.3,455.6
		L359.3,455.6z"/>
	<g class="st1">
		<path class="st6" d="M256,351.3c-57.1,0-103.3,46.3-103.3,103.3v35.7c31.6,14,66.6,21.7,103.3,21.7s71.7-7.8,103.3-21.7v-35.7
			C359.3,397.5,313.1,351.3,256,351.3z"/>
	</g>
	<g class="st1">
		<path class="st2" d="M256,351.3V512c36.8,0,71.7-7.8,103.3-21.7v-35.7C359.3,397.5,313.1,351.3,256,351.3L256,351.3z"/>
	</g>
	<g class="st1">
		<path class="st6" d="M399.3,229.8c0,71-64.2,97.1-143.3,97.1s-143.3-26.1-143.3-97.1S176.8,77,256,77S399.3,158.8,399.3,229.8
			L399.3,229.8z"/>
	</g>
	<g class="st1">
		<path class="st2" d="M256,77v249.9c79.2,0,143.3-26.1,143.3-97.1C399.3,158.8,335.2,77,256,77L256,77z"/>
	</g>
	<g class="st1">
		<g class="st7">
			<g>
				<circle class="st8" cx="187.5" cy="166.9" r="15"/>
			</g>
		</g>
		<g class="st7">
			<g>
				<circle class="st9" cx="324.5" cy="166.9" r="15"/>
			</g>
		</g>
	</g>
	<g class="st1">
		<ellipse class="st10" cx="255.9" cy="233.8" rx="52" ry="52"/>
	</g>
	<g class="st1">
		<path class="st11" d="M256,181.8v104c28.7,0,52-23.3,52-52S284.7,181.8,256,181.8L256,181.8z"/>
	</g>
	<g class="st1">
		<g class="st7">
			<circle class="st8" cx="231.6" cy="233.5" r="16.5"/>
		</g>
		<g class="st7">
			<circle class="st9" cx="280.4" cy="233.5" r="16.5"/>
		</g>
	</g>
</g>
</svg>
