<?xml version="1.0" encoding="utf-8"?>
<!-- Generator: Adobe Illustrator 24.3.0, SVG Export Plug-In . SVG Version: 6.00 Build 0)  -->
<svg version="1.1" id="Capa_1" xmlns="http://www.w3.org/2000/svg" xmlns:xlink="http://www.w3.org/1999/xlink" x="0px" y="0px"
	 viewBox="0 0 512 512" style="enable-background:new 0 0 512 512;" xml:space="preserve">
<style type="text/css">
	.st0{display:none;fill:#A3D4FF;}
	.st1{display:none;opacity:0.33;}
	.st2{fill:#C38778;}
	.st3{fill:#FFE89C;}
	.st4{fill:#A65D4E;}
	.st5{fill:#FAD17F;}
	.st6{fill:#FFCE00;}
	.st7{fill:#FDBA12;}
	.st8{fill:#FFA300;}
	.st9{fill:#555A66;}
	.st10{fill:#333940;}
	.st11{fill:#414952;}
	.st12{fill:#23272B;}
</style>
<g>
	<path class="st0" d="M489.6,360.8C504,328.8,512,293.4,512,256C512,114.6,397.4,0,256,0S0,114.6,0,256c0,37.4,8,72.8,22.4,104.8
		H489.6z"/>
	<path class="st1" d="M489.9,360.2C504.1,328.3,512,293.1,512,256c0-21.5-2.6-42.4-7.6-62.3L378.5,67.8l-16,21.4l-62-62l84.2,376.7
		L489.9,360.2z"/>
	<path class="st2" d="M495.2,289.9l-41.8-32.5l20.1-49l-47.2-23.8l9.3-52.2l-51.5-11.8l-5.6-52.7L326,73.4l-25.6-46.2L256,55.5
		l-44.5-28.3L186,73.4l-52.5-5.6l-5.6,52.7l-51.5,11.9l9.3,52.2l-47.2,23.8l20.1,49l-41.8,32.5l28.6,44.6l-23.4,25.7
		c18.8,42.2,48.7,78.3,85.9,104.8l35.3-235.4h225.4L404,464.9c37.3-26.4,67.1-62.6,85.9-104.8l-23.4-25.7L495.2,289.9z"/>
	<path class="st3" d="M166.3,489.3c0-49.6,40.2-89.7,89.7-89.7s89.7,40.2,89.7,89.7v6.5c20.9-7.8,40.5-18.3,58.4-31l-35.4-236.3
		H143.3l-35.4,236.3c17.9,12.7,37.5,23.2,58.4,31V489.3z"/>
	<path class="st4" d="M256,229.5h112.7L404,464.9c37.3-26.4,67.1-62.6,85.9-104.8l-23.4-25.7l28.6-44.6l-41.8-32.5l20.1-49
		l-47.2-23.8l9.3-52.2l-51.5-11.8l-5.6-52.7L326,73.4l-25.6-46.2L256,55.5L256,229.5z"/>
	<path class="st5" d="M256,399.6c49.6,0,89.7,40.2,89.7,89.7v6.5c20.9-7.8,40.5-18.3,58.4-31l-35.4-236.3H256L256,399.6
		C256,399.6,256,399.6,256,399.6L256,399.6z"/>
	<g>
		<path class="st6" d="M256,512c31.6,0,61.8-5.7,89.7-16.2v-7.5c0-49.6-40.2-89.7-89.7-89.7s-89.7,40.2-89.7,89.7v7.5
			C194.2,506.3,224.4,512,256,512z"/>
	</g>
	<g>
		<path class="st7" d="M256,398.6C256,398.6,256,398.6,256,398.6l0,113.4h0c31.6,0,61.8-5.7,89.7-16.2v-7.5
			C345.7,438.8,305.6,398.6,256,398.6z"/>
	</g>
	<g>
		<path class="st6" d="M123.9,213.8c0-56.4,59.2-77.2,132.1-77.2s132.1,20.8,132.1,77.2c0,56.4-59.2,121.4-132.1,121.4
			S123.9,270.3,123.9,213.8z"/>
	</g>
	<g>
		<path class="st7" d="M256,136.7C256,136.7,256,136.7,256,136.7l0,198.6h0c73,0,132.1-65,132.1-121.4
			C388.1,157.4,329,136.7,256,136.7L256,136.7z"/>
	</g>
	<g>
		<path class="st7" d="M207.1,286.8c0-22.5,21.9-30.8,48.9-30.8s48.9,8.3,48.9,30.8S283,335.3,256,335.3S207.1,309.3,207.1,286.8z"
			/>
	</g>
	<g>
		<path class="st8" d="M256,256C256,256,256,256,256,256l0,79.3h0c27,0,48.9-26,48.9-48.5S283,256,256,256z"/>
	</g>
	<g>
		<g>
			<ellipse class="st9" cx="181.6" cy="236" rx="17.3" ry="17.3"/>
		</g>
		<g>
			<ellipse class="st10" cx="330.8" cy="236" rx="17.3" ry="17.3"/>
		</g>
	</g>
	<g>
		<path class="st11" d="M282.4,331c0,11.8-11.8,21.3-26.4,21.3s-26.4-9.5-26.4-21.3s11.8-12.7,26.4-12.7S282.4,319.3,282.4,331z"/>
	</g>
	<g>
		<path class="st12" d="M256,318.3C256,318.3,256,318.3,256,318.3l0,34h0c14.6,0,26.4-9.5,26.4-21.3
			C282.4,319.3,270.6,318.3,256,318.3z"/>
	</g>
</g>
</svg>
