<svg id="Capa_1" enable-background="new 0 0 512 512" height="512" viewBox="0 0 512 512" width="512" xmlns="http://www.w3.org/2000/svg"><g><path d="m419.559 452.934c56.478-46.959 92.441-117.744 92.441-196.934 0-141.385-114.615-256-256-256s-256 114.615-256 256c0 79.19 35.963 149.975 92.441 196.934z" fill="#c38778"/><path d="m419.559 452.943c56.481-46.958 92.441-117.75 92.441-196.943 0-8.831-.447-17.557-1.32-26.157l-136.223-136.222.056 1.061z" fill="#a65d4e"/><g><path d="m256 42.842c-90.332 0-163.56 73.228-163.56 163.559v246.544c44.356 36.878 101.368 59.055 163.56 59.055s119.204-22.177 163.559-59.054v-246.545c0-90.331-73.227-163.559-163.559-163.559z" fill="#dce1eb"/></g><g><path d="m419.559 206.401c0-90.317-73.205-163.536-163.559-163.583v469.157c62.218.014 119.214-22.161 163.559-59.03z" fill="#bec3d2"/></g><g><g><ellipse cx="181.394" cy="171.196" fill="#555a66" rx="17.267" ry="17.267" transform="matrix(.926 -.379 .379 .926 -51.32 81.441)"/></g><g><ellipse cx="330.606" cy="171.196" fill="#333940" rx="17.267" ry="17.267" transform="matrix(.787 -.618 .618 .787 -35.145 240.726)"/></g></g><g><g><path d="m211.544 403.16-47.909-50.875v-84.638h47.909z" fill="#fff"/></g><g><path d="m300.456 403.16 47.909-49.523v-84.638l-47.909-1.352z" fill="#e9edf5"/></g></g><g><path d="m297.903 202.665c-16.415 0-67.391 0-83.807 0-32.399 0-58.664 26.265-58.664 58.664s26.264 58.664 58.664 58.664c16.415 0 31.256-6.742 41.903-17.609 10.647 10.867 25.488 17.609 41.903 17.609 32.399 0 58.664-26.265 58.664-58.664.001-32.399-26.263-58.664-58.663-58.664z" fill="#f2f6fc"/></g><g><path d="m297.903 202.665c-8.201 0-25.027 0-41.861 0l-.042 99.719c10.645 10.842 25.509 17.609 41.903 17.609 32.399 0 58.664-26.265 58.664-58.664s-26.264-58.664-58.664-58.664z" fill="#dce1eb"/></g><g><path d="m306.423 216.286c0 22.466-22.575 40.678-50.423 40.678s-50.423-18.212-50.423-40.678 22.575-24.279 50.423-24.279 50.423 1.813 50.423 24.279z" fill="#414952"/></g><g><path d="m306.423 216.287c0-22.455-22.552-24.278-50.38-24.279v64.957c27.827-.02 50.38-18.224 50.38-40.678z" fill="#23272b"/></g></g></svg>