<?xml version="1.0" encoding="utf-8"?>
<!-- Generator: Adobe Illustrator 24.3.0, SVG Export Plug-In . SVG Version: 6.00 Build 0)  -->
<svg version="1.1" id="Capa_1" xmlns="http://www.w3.org/2000/svg" xmlns:xlink="http://www.w3.org/1999/xlink" x="0px" y="0px"
	 viewBox="0 0 512 512" style="enable-background:new 0 0 512 512;" xml:space="preserve">
<style type="text/css">
	.st0{display:none;fill:#A3D4FF;}
	.st1{display:none;}
	.st2{display:inline;fill:#333940;}
	.st3{display:inline;fill:#555A66;}
	.st4{display:inline;fill:#707789;}
	.st5{display:none;fill:#707789;}
	.st6{display:none;fill:#555A66;}
	.st7{display:inline;fill:#101214;}
	.st8{display:inline;}
	.st9{fill:#555A66;}
	.st10{fill:#333940;}
	.st11{display:inline;fill:#414952;}
	.st12{display:inline;fill:#23272B;}
</style>
<g>
	<path class="st0" d="M394.2,471.5C465.1,426,512,346.5,512,256C512,114.6,397.4,0,256,0S0,114.6,0,256c0,90.5,46.9,170,117.8,215.5
		H394.2z"/>
	<g>
		<path d="M503.4,189.9L388,74.5l-86.6,194c-0.1,0.5,0.3,1,0.9,1c0.4,0,0.8,0.3,0.9,0.8l91,201.2C465.1,426,512,346.5,512,256
			C512,233.1,509,211,503.4,189.9L503.4,189.9z"/>
	</g>
	<g class="st1">
		
			<ellipse transform="matrix(0.477 -0.8789 0.8789 0.477 75.9363 382.6722)" class="st2" cx="359.5" cy="127.5" rx="60.2" ry="40.7"/>
	</g>
	<g class="st1">
		
			<ellipse transform="matrix(0.8789 -0.477 0.477 0.8789 -42.2347 88.2459)" class="st3" cx="152.7" cy="127.3" rx="40.7" ry="60.2"/>
	</g>
	<g class="st1">
		<path class="st3" d="M117.7,471.5C157.6,497.1,205,512,256,512s98.4-14.9,138.3-40.5l-26.8-228.4H144.5L117.7,471.5z"/>
	</g>
	<g class="st1">
		<path class="st2" d="M367.5,243.1H256V512c51,0,98.4-14.9,138.3-40.5L367.5,243.1z"/>
	</g>
	<g class="st1">
		<path class="st4" d="M256,351.3c-57.1,0-103.3,46.3-103.3,103.3v35.7c31.6,14,66.6,21.7,103.3,21.7s71.7-7.8,103.3-21.7v-35.7
			C359.3,397.5,313.1,351.3,256,351.3z"/>
	</g>
	<path class="st5" d="M256,91.3c-57.4,0-106.9,43-129.8,93.7l46.2-16.2c17.3-6.1,36.4,0.5,46.3,15.9c7.6,11.8,8.4,26.7,2,39.2
		l-51.8,102.4c24.1,10.3,54.3,14.8,87.1,14.8c1.3,0,2.6,0,4,0V91.4C258.6,91.4,257.3,91.3,256,91.3L256,91.3z"/>
	<g class="st1">
		<path class="st3" d="M256,351.3V512c36.8,0,71.7-7.8,103.3-21.7v-35.7C359.3,397.5,313.1,351.3,256,351.3L256,351.3z"/>
	</g>
	<path class="st6" d="M291.3,224c-6.3-12.5-5.6-27.5,2-39.2c9.9-15.4,29.1-22,46.3-15.9l46.2,16.2c-22.9-50.7-72.4-93.7-129.8-93.7
		v249.9c32.8,0,63-4.5,87.1-14.8L291.3,224z"/>
	<g class="st1">
		<path class="st2" d="M173.3,167.8l-46.8,16.4c-8.9,19.5-13.9,40.1-13.9,59.8c0,41.8,22.2,68,56.6,82.5L221.7,223
			c6.3-12.5,5.6-27.5-2-39.2C209.8,168.4,190.6,161.8,173.3,167.8L173.3,167.8z"/>
	</g>
	<g class="st1">
		<path class="st7" d="M338.7,167.8l46.8,16.4c8.9,19.5,13.9,40.1,13.9,59.8c0,41.8-22.2,68-56.6,82.5L290.3,223
			c-6.3-12.5-5.6-27.5,2-39.2C302.2,168.4,321.4,161.8,338.7,167.8z"/>
	</g>
	<g class="st1">
		<path class="st2" d="M271,92.3c-4.9-0.6-9.9-1-15-1s-10.1,0.3-15,1V243h30V92.3z"/>
	</g>
	<g class="st1">
		<path class="st7" d="M271,92.3c-4.9-0.6-9.9-1-15-1V243h15V92.3z"/>
	</g>
	<g class="st1">
		<g class="st8">
			<g>
				<circle class="st9" cx="180.5" cy="202.8" r="16.5"/>
			</g>
		</g>
		<g class="st8">
			<g>
				<circle class="st10" cx="331.5" cy="202.8" r="16.5"/>
			</g>
		</g>
	</g>
	<g class="st1">
		<path class="st11" d="M284.2,238.4c0,12.6-12.6,22.7-28.2,22.7s-28.2-10.2-28.2-22.7s12.6-13.6,28.2-13.6S284.2,225.9,284.2,238.4
			L284.2,238.4z"/>
	</g>
	<g class="st1">
		<path class="st12" d="M256,224.9v36.3c15.6,0,28.2-10.2,28.2-22.7C284.2,225.9,271.6,224.9,256,224.9L256,224.9z"/>
	</g>
</g>
</svg>
