<svg id="Capa_1" enable-background="new 0 0 512 512" height="512" viewBox="0 0 512 512" width="512" xmlns="http://www.w3.org/2000/svg"><g><path d="m394.204 471.523c70.855-45.53 117.796-125.044 117.796-215.523 0-141.385-114.615-256-256-256s-256 114.615-256 256c0 90.479 46.941 169.993 117.796 215.523z" fill="#a3d4ff"/><g><path d="m503.386 189.904-115.384-115.383-86.564 193.988c-.069.523.338.987.866.987.443 0 .816.332.867.771l91.031 201.247c70.854-45.53 117.798-125.036 117.798-215.514 0-22.855-2.995-45.011-8.614-66.096z" fill="#65b1fc"/></g><g><ellipse cx="359.337" cy="127.409" fill="#333940" rx="60.157" ry="40.717" transform="matrix(.477 -.879 .879 .477 76.096 382.617)"/></g><g><ellipse cx="152.663" cy="127.409" fill="#555a66" rx="40.717" ry="60.157" transform="matrix(.879 -.477 .477 .879 -42.265 88.14)"/></g><g><path d="m117.686 471.456c39.888 25.659 87.362 40.544 138.314 40.544s98.427-14.885 138.314-40.544l-26.845-228.404h-222.938z" fill="#555a66"/></g><g><path d="m367.469 243.051h-111.469v268.949c50.952 0 98.427-14.885 138.314-40.544z" fill="#333940"/></g><g><path d="m256 351.273c-57.072 0-103.337 46.266-103.337 103.337v35.676c31.605 13.961 66.565 21.714 103.337 21.714s71.733-7.753 103.337-21.713v-35.676c0-57.072-46.265-103.338-103.337-103.338z" fill="#707789"/></g><path d="m256 91.335c-57.399 0-106.918 43-129.812 93.694l46.153-16.187c17.268-6.056 36.435.527 46.338 15.915 7.591 11.796 8.365 26.73 2.033 39.248l-51.819 102.438c24.143 10.275 54.341 14.75 87.107 14.75 1.322 0 2.639-.008 3.952-.023v-249.764c-1.313-.045-2.63-.071-3.952-.071z" fill="#707789"/><g><path d="m256 351.273v160.727c36.772 0 71.732-7.753 103.337-21.713v-35.677c0-57.071-46.265-103.337-103.337-103.337z" fill="#555a66"/></g><path d="m291.288 224.004c-6.332-12.517-5.558-27.452 2.033-39.248 9.903-15.388 29.07-21.971 46.338-15.915l46.153 16.187c-22.894-50.694-72.413-93.693-129.812-93.693v249.857c32.766 0 62.964-4.474 87.107-14.75z" fill="#555a66"/><g><path d="m173.341 167.842-46.802 16.415c-8.903 19.454-13.888 40.072-13.888 59.848 0 41.761 22.224 67.992 56.648 82.51l52.412-103.611c6.332-12.517 5.558-27.452-2.033-39.248-9.902-15.388-29.069-21.97-46.337-15.914z" fill="#333940"/></g><g><path d="m338.659 167.842 46.802 16.415c8.903 19.454 13.888 40.072 13.888 59.848 0 41.761-22.224 67.992-56.648 82.51l-52.412-103.611c-6.332-12.517-5.558-27.452 2.033-39.248 9.902-15.388 29.069-21.97 46.337-15.914z" fill="#101214"/></g><g><path d="m271 92.316c-4.93-.646-9.934-.981-15-.981s-10.07.336-15 .981v150.71h30z" fill="#333940"/></g><g><path d="m271 92.316c-4.93-.646-9.934-.982-15-.982v151.692h15z" fill="#101214"/></g><g><g><g><circle cx="180.548" cy="202.798" fill="#555a66" r="16.463"/></g></g><g><g><circle cx="331.452" cy="202.798" fill="#333940" r="16.463"/></g></g></g><g><path d="m284.195 238.442c0 12.562-12.623 22.746-28.195 22.746s-28.195-10.184-28.195-22.746 12.623-13.576 28.195-13.576 28.195 1.013 28.195 13.576z" fill="#414952"/></g><g><path d="m256 224.865v36.323c15.572 0 28.195-10.184 28.195-22.746 0-12.563-12.623-13.577-28.195-13.577z" fill="#23272b"/></g></g></svg>