<?xml version="1.0" encoding="utf-8"?>
<!-- Generator: Adobe Illustrator 24.3.0, SVG Export Plug-In . SVG Version: 6.00 Build 0)  -->
<svg version="1.1" id="Capa_1" xmlns="http://www.w3.org/2000/svg" xmlns:xlink="http://www.w3.org/1999/xlink" x="0px" y="0px"
	 viewBox="0 0 512 512" style="enable-background:new 0 0 512 512;" xml:space="preserve">
<style type="text/css">
	.st0{display:none;fill:#FFCE00;}
	.st1{display:none;opacity:0.33;}
	.st2{fill:#2CC47F;}
	.st3{fill:#06B26B;}
	.st4{fill:#1DD882;}
	.st5{fill:#414952;}
	.st6{fill:#23272B;}
	.st7{fill:#555A66;}
	.st8{fill:#333940;}
</style>
<g>
	<path class="st0" d="M428.2,445.5C479.7,398.6,512,331.1,512,256C512,114.6,397.4,0,256,0S0,114.6,0,256
		c0,75.1,32.3,142.6,83.8,189.5H428.2z"/>
	<path class="st1" d="M510.2,225.9L404.6,120.2l-79.8,118.7L206.2,120.2L99.8,191.2l51.1,52.9l184.7,43.5l92.6,158
		C479.7,398.6,512,331.1,512,256C512,245.8,511.4,235.8,510.2,225.9L510.2,225.9z"/>
	<g>
		<path class="st2" d="M83.7,445.4C129.2,486.8,189.7,512,256,512s126.8-25.2,172.3-66.6l-28-202.3H111.7L83.7,445.4z"/>
	</g>
	<g>
		<path class="st3" d="M400.3,243.1H256V512c66.3,0,126.8-25.2,172.3-66.6L400.3,243.1z"/>
	</g>
	<g>
		<ellipse class="st4" cx="256" cy="269.4" rx="196" ry="124.5"/>
	</g>
	<g>
		<path class="st2" d="M256,144.9v249c108.2,0,196-55.7,196-124.5S364.2,144.9,256,144.9z"/>
	</g>
	<g>
		<g>
			<circle class="st4" cx="156.8" cy="161.4" r="64.3"/>
		</g>
		<g>
			<circle class="st5" cx="156.8" cy="161.4" r="32.3"/>
		</g>
		<g>
			<circle class="st2" cx="355.2" cy="161.4" r="64.3"/>
		</g>
		<g>
			<circle class="st6" cx="355.2" cy="161.4" r="32.3"/>
		</g>
	</g>
	<g>
		<g>
			
				<ellipse transform="matrix(0.23 -0.9732 0.9732 0.23 -118.5565 440.5293)" class="st7" cx="219.1" cy="295.2" rx="14.4" ry="14.4"/>
		</g>
		<g>
			<ellipse class="st8" cx="292.8" cy="295.1" rx="14.4" ry="14.4"/>
		</g>
	</g>
</g>
</svg>
