<svg id="Capa_1" enable-background="new 0 0 512 512" height="512" viewBox="0 0 512 512" width="512" xmlns="http://www.w3.org/2000/svg"><g><path d="m428.158 445.468c51.507-46.828 83.842-114.372 83.842-189.468 0-141.385-114.615-256-256-256s-256 114.615-256 256c0 75.096 32.335 142.64 83.842 189.468z" fill="#ffce00"/><path d="m510.249 225.901-105.651-105.652-79.752 118.655-118.655-118.655-106.397 70.927 51.089 52.875 184.714 43.453 92.561 157.956c51.504-46.828 83.842-114.365 83.842-189.46 0-10.183-.595-20.227-1.751-30.099z" fill="#ffa300"/><g><path d="m83.719 445.357c45.48 41.402 105.933 66.643 172.281 66.643s126.802-25.241 172.281-66.643l-28.023-202.306h-288.516z" fill="#2cc47f"/></g><g><path d="m400.258 243.051h-144.258v268.949c66.348 0 126.802-25.241 172.281-66.643z" fill="#06b26b"/></g><g><ellipse cx="256" cy="269.388" fill="#1dd882" rx="196" ry="124.508"/></g><g><path d="m256 144.88v249.016c108.248 0 196-55.744 196-124.508s-87.752-124.508-196-124.508z" fill="#2cc47f"/></g><g><g><circle cx="156.797" cy="161.406" fill="#1dd882" r="64.295"/></g><g><circle cx="156.797" cy="161.406" fill="#414952" r="32.305"/></g><g><circle cx="355.203" cy="161.406" fill="#2cc47f" r="64.295"/></g><g><circle cx="355.203" cy="161.406" fill="#23272b" r="32.305"/></g></g><g><g><ellipse cx="219.143" cy="295.061" fill="#555a66" rx="14.399" ry="14.399" transform="matrix(.23 -.973 .973 .23 -118.374 440.551)"/></g><g><ellipse cx="292.857" cy="295.061" fill="#333940" rx="14.399" ry="14.399" transform="matrix(.707 -.707 .707 .707 -122.864 293.503)"/></g></g></g></svg>