<?xml version="1.0" encoding="utf-8"?>
<!-- Generator: Adobe Illustrator 24.3.0, SVG Export Plug-In . SVG Version: 6.00 Build 0)  -->
<svg version="1.1" id="Capa_1" xmlns="http://www.w3.org/2000/svg" xmlns:xlink="http://www.w3.org/1999/xlink" x="0px" y="0px"
	 viewBox="0 0 512 512" style="enable-background:new 0 0 512 512;" xml:space="preserve">
<style type="text/css">
	.st0{display:none;fill:#FF6C52;}
	.st1{display:none;}
	.st2{display:inline;fill:#1DD882;}
	.st3{display:inline;fill:#2CC47F;}
	.st4{display:inline;}
	.st5{fill:#555A66;}
	.st6{fill:#333940;}
	.st7{fill:#FFCE00;}
	.st8{fill:#414952;}
	.st9{fill:#FDBA12;}
	.st10{fill:#23272B;}
	.st11{display:inline;fill:#06B26B;}
</style>
<g>
	<path class="st0" d="M380.4,479.8C458.9,436,512,352.2,512,256C512,114.6,397.4,0,256,0S0,114.6,0,256c0,96.2,53.1,180,131.6,223.8
		H380.4z"/>
	<path d="M512,251.9L391.2,131.2l-14.5,27.3L267.6,49.3L131.5,350.8l12.5,12.5l35.6,14.3l121.2,4.8l79.7,97.4
		C458.9,436,512,352.2,512,256C512,254.6,512,253.3,512,251.9L512,251.9z"/>
	<g class="st1">
		<path class="st2" d="M316.6,151h-16l-33-101.6h-23.1l-33,101.6h-16c-52.9,0-95.8,42.9-95.8,95.8v32.6c0,52.9,42.9,95.8,95.8,95.8
			h121.2c52.9,0,95.8-42.9,95.8-95.8v-32.6C412.4,193.9,369.5,151,316.6,151L316.6,151z"/>
	</g>
	<g class="st1">
		<path class="st3" d="M316.6,151h-16l-33-101.6H256v325.9h60.6c52.9,0,95.8-42.9,95.8-95.8v-32.6C412.4,193.9,369.5,151,316.6,151
			L316.6,151z"/>
	</g>
	<g class="st1">
		<path class="st2" d="M131.5,479.7C168.3,500.3,210.8,512,256,512s87.7-11.7,124.5-32.3l-14-131.9H145.5L131.5,479.7z"/>
	</g>
	<g class="st1">
		<path class="st3" d="M366.5,347.8H256V512c45.2,0,87.7-11.7,124.5-32.3L366.5,347.8z"/>
	</g>
	<g class="st1">
		<g class="st4">
			
				<ellipse transform="matrix(0.7071 -0.7071 0.7071 0.7071 -126.3119 233.8205)" class="st5" cx="219.1" cy="269.4" rx="14.4" ry="14.4"/>
		</g>
		<g class="st4">
			<ellipse class="st6" cx="292.9" cy="269.5" rx="14.4" ry="14.4"/>
		</g>
	</g>
	<g class="st1">
		<g class="st4">
			<circle class="st7" cx="172.3" cy="175.2" r="67.8"/>
		</g>
		<g class="st4">
			<ellipse class="st8" cx="172.3" cy="175.2" rx="14.5" ry="44.1"/>
		</g>
		<g class="st4">
			<circle class="st9" cx="339.7" cy="175.2" r="67.8"/>
		</g>
		<g class="st4">
			<ellipse class="st10" cx="339.7" cy="175.2" rx="14.5" ry="44.1"/>
		</g>
	</g>
	<g class="st1">
		<path class="st3" d="M108.8,320.4c15.4,32.4,48.4,54.9,86.7,54.9h121.2c38.3,0,71.3-22.4,86.7-54.9H108.8z"/>
	</g>
	<g class="st1">
		<path class="st11" d="M256,320.4v54.9h60.6c38.3,0,71.3-22.4,86.7-54.9H256z"/>
	</g>
</g>
</svg>
