<svg id="Capa_1" enable-background="new 0 0 512 512" height="512" viewBox="0 0 512 512" width="512" xmlns="http://www.w3.org/2000/svg"><g><path d="m380.443 479.75c78.471-43.737 131.557-127.537 131.557-223.75 0-141.385-114.615-256-256-256s-256 114.615-256 256c0 96.213 53.086 180.013 131.557 223.75z" fill="#ff6c52"/><path d="m511.968 251.944-120.76-120.76-14.525 27.283-109.117-109.117-136.112 301.438 12.468 12.468 35.593 14.27 121.194 4.783 79.735 97.444c78.471-43.736 131.556-127.54 131.556-223.753 0-1.354-.011-2.706-.032-4.056z" fill="#f92814"/><g><path d="m316.583 150.997h-15.976l-33.041-101.647h-23.132l-33.041 101.647h-15.976c-52.928 0-95.834 42.906-95.834 95.833v32.598c0 52.927 42.906 95.833 95.834 95.833h121.166c52.928 0 95.833-42.906 95.833-95.833v-32.598c0-52.927-42.906-95.833-95.833-95.833z" fill="#1dd882"/></g><g><path d="m316.583 150.997h-15.976l-33.041-101.647h-11.566v325.911h60.583c52.927 0 95.833-42.906 95.833-95.833v-32.598c0-52.927-42.906-95.833-95.833-95.833z" fill="#2cc47f"/></g><g><path d="m131.454 479.714c36.864 20.566 79.336 32.286 124.546 32.286s87.682-11.72 124.546-32.286l-13.999-131.879h-221.094z" fill="#1dd882"/></g><g><path d="m366.547 347.835h-110.547v164.165c45.21 0 87.682-11.72 124.546-32.286z" fill="#2cc47f"/></g><g><g><ellipse cx="219.143" cy="269.388" fill="#555a66" rx="14.399" ry="14.399" transform="matrix(.707 -.707 .707 .707 -126.301 233.859)"/></g><g><ellipse cx="292.857" cy="269.388" fill="#333940" rx="14.399" ry="14.399" transform="matrix(.23 -.973 .973 .23 -36.61 492.518)"/></g></g><g><g><circle cx="172.342" cy="175.239" fill="#ffce00" r="67.813"/></g><g><ellipse cx="172.342" cy="175.239" fill="#414952" rx="14.493" ry="44.055"/></g><g><circle cx="339.658" cy="175.239" fill="#fdba12" r="67.813"/></g><g><ellipse cx="339.658" cy="175.239" fill="#23272b" rx="14.493" ry="44.055"/></g></g><g><path d="m108.763 320.409c15.362 32.426 48.389 54.853 86.654 54.853h121.166c38.265 0 71.292-22.427 86.654-54.853z" fill="#2cc47f"/></g><g><path d="m256 320.409v54.853h60.583c38.265 0 71.292-22.427 86.654-54.853z" fill="#06b26b"/></g></g></svg>