<svg id="Capa_1" enable-background="new 0 0 512 512" height="512" viewBox="0 0 512 512" width="512" xmlns="http://www.w3.org/2000/svg"><g><path d="m372.361 484.085c82.891-42.373 139.639-128.601 139.639-228.085 0-141.385-114.615-256-256-256s-256 114.615-256 256c0 99.484 56.748 185.712 139.639 228.085z" fill="#ffce00"/><path d="m510.516 228.273-153.204-153.606-33.93 105.061-133.129-133.13-2.698 227.742 101.43 39.732 83.376 170.012c82.891-42.372 139.639-128.6 139.639-228.084 0-9.369-.503-18.619-1.484-27.727z" fill="#ffa300"/><g><path d="m139.525 484.029c34.939 17.883 74.529 27.971 116.475 27.971s81.536-10.088 116.475-27.971l-25.484-210.689h-181.982z" fill="#a65d4e"/></g><g><path d="m372.475 484.029-25.484-210.689h-91.005v238.66h.014c41.946 0 81.536-10.088 116.475-27.971z" fill="#784132"/></g><g><path d="m199.721 122.649-9.468-76.051s-65.468 40.446-59.725 76.051 40.641 53.982 40.641 53.982z" fill="#b46e5a"/></g><g><path d="m312.279 122.649 9.468-76.051s65.468 40.446 59.725 76.051-40.641 53.982-40.641 53.982z" fill="#915041"/></g><g><path d="m372.475 227.867c0 68.968-52.148 94.352-116.475 94.352s-116.475-25.384-116.475-94.352 52.148-148.466 116.475-148.466c64.328 0 116.475 79.498 116.475 148.466z" fill="#c38778"/></g><g><path d="m256 79.401c-.005 0-.01 0-.014 0v242.817h.014c64.327 0 116.475-25.384 116.475-94.352s-52.147-148.465-116.475-148.465z" fill="#b46e5a"/></g><g><path d="m256 322.219c5.083 0 10.089-.159 15-.484v-40.66l26.016-26.015-21.213-21.213-19.817 19.798-19.789-19.798-21.213 21.213 26.016 26.015v40.659c4.911.326 9.917.485 15 .485z" fill="#555a66"/></g><g><path d="m275.803 233.846-19.817 19.798v68.575h.014c5.083 0 10.089-.159 15-.484v-40.66l26.016-26.015z" fill="#333940"/></g><g><g><ellipse cx="190.027" cy="174.308" fill="#555a66" rx="17.267" ry="17.267" transform="matrix(.232 -.973 .973 .232 -23.532 318.829)"/></g><g><ellipse cx="321.973" cy="174.308" fill="#333940" rx="17.267" ry="17.267" transform="matrix(.707 -.707 .707 .707 -28.951 278.723)"/></g></g><g><path d="m190.017 503.415c21.051 5.6 43.168 8.585 65.983 8.585s44.932-2.985 65.983-8.585v-82.809h-131.966z" fill="#b46e5a"/></g><g><path d="m255.986 420.606v91.394h.014c22.815 0 44.932-2.985 65.983-8.584v-82.809h-65.997z" fill="#915041"/></g></g></svg>