<?xml version="1.0" encoding="utf-8"?>
<!-- Generator: Adobe Illustrator 24.3.0, SVG Export Plug-In . SVG Version: 6.00 Build 0)  -->
<svg version="1.1" id="Capa_1" xmlns="http://www.w3.org/2000/svg" xmlns:xlink="http://www.w3.org/1999/xlink" x="0px" y="0px"
	 viewBox="0 0 512 512" style="enable-background:new 0 0 512 512;" xml:space="preserve">
<style type="text/css">
	.st0{display:none;fill:#FFCE00;}
	.st1{opacity:0.33;}
	.st2{fill:#A65D4E;}
	.st3{fill:#784132;}
	.st4{fill:#B46E5A;}
	.st5{fill:#915041;}
	.st6{fill:#C38778;}
	.st7{fill:#555A66;}
	.st8{fill:#333940;}
</style>
<g>
	<path class="st0" d="M372.4,484.1C455.3,441.7,512,355.5,512,256C512,114.6,397.4,0,256,0S0,114.6,0,256
		c0,99.5,56.7,185.7,139.6,228.1H372.4z"/>
	<path class="st1" d="M510.5,228.3L357.3,74.7l-33.9,105.1L190.3,46.6l-2.7,227.7L289,314.1l83.4,170C455.3,441.7,512,355.5,512,256
		C512,246.6,511.5,237.4,510.5,228.3L510.5,228.3z"/>
	<g>
		<path class="st2" d="M139.5,484c34.9,17.9,74.5,28,116.5,28s81.5-10.1,116.5-28L347,273.3H165L139.5,484z"/>
	</g>
	<g>
		<path class="st3" d="M372.5,484L347,273.3h-91V512h0C297.9,512,337.5,501.9,372.5,484z"/>
	</g>
	<g>
		<path class="st4" d="M199.7,122.6l-9.5-76.1c0,0-65.5,40.4-59.7,76.1s40.6,54,40.6,54L199.7,122.6z"/>
	</g>
	<g>
		<path class="st5" d="M312.3,122.6l9.5-76.1c0,0,65.5,40.4,59.7,76.1s-40.6,54-40.6,54L312.3,122.6z"/>
	</g>
	<g>
		<path class="st6" d="M372.5,227.9c0,69-52.1,94.4-116.5,94.4s-116.5-25.4-116.5-94.4S191.7,79.4,256,79.4
			C320.3,79.4,372.5,158.9,372.5,227.9z"/>
	</g>
	<g>
		<path class="st4" d="M256,79.4C256,79.4,256,79.4,256,79.4l0,242.8h0c64.3,0,116.5-25.4,116.5-94.4S320.3,79.4,256,79.4L256,79.4z
			"/>
	</g>
	<g>
		<path class="st7" d="M256,322.2c5.1,0,10.1-0.2,15-0.5v-40.7l26-26l-21.2-21.2L256,253.6l-19.8-19.8L215,255.1l26,26v40.7
			C245.9,322.1,250.9,322.2,256,322.2L256,322.2z"/>
	</g>
	<g>
		<path class="st8" d="M275.8,233.8L256,253.6v68.6h0c5.1,0,10.1-0.2,15-0.5v-40.7l26-26L275.8,233.8z"/>
	</g>
	<g>
		<g>
			<ellipse class="st7" cx="190.2" cy="174.4" rx="17.3" ry="17.3"/>
		</g>
		<g>
			<ellipse class="st8" cx="321.9" cy="174.3" rx="17.3" ry="17.3"/>
		</g>
	</g>
	<g>
		<path class="st4" d="M190,503.4c21.1,5.6,43.2,8.6,66,8.6s44.9-3,66-8.6v-82.8H190V503.4z"/>
	</g>
	<g>
		<path class="st5" d="M256,420.6V512h0c22.8,0,44.9-3,66-8.6v-82.8L256,420.6L256,420.6z"/>
	</g>
</g>
</svg>
