<svg id="Capa_1" enable-background="new 0 0 512 512" height="512" viewBox="0 0 512 512" width="512" xmlns="http://www.w3.org/2000/svg"><g><path d="m394.204 471.523c70.855-45.53 117.796-125.044 117.796-215.523 0-141.385-114.615-256-256-256s-256 114.615-256 256c0 90.479 46.941 169.993 117.796 215.523z" fill="#a3d4ff"/><path d="m504.76 195.297-77.769-77.769-324.183 67.796 58.727 58.727 169.917 35.433 62.752 192.04c70.856-45.53 117.796-125.045 117.796-215.524 0-20.915-2.508-41.244-7.24-60.703z" fill="#65b1fc"/><g><ellipse cx="380.81" cy="156.079" fill="#555a66" rx="60.157" ry="40.717" transform="matrix(.768 -.641 .641 .768 -11.549 280.301)"/></g><g><ellipse cx="131.19" cy="156.079" fill="#707789" rx="40.717" ry="60.157" transform="matrix(.641 -.768 .768 .641 -72.7 156.768)"/></g><g><path d="m117.686 471.456c39.887 25.659 87.362 40.544 138.314 40.544s98.427-14.885 138.314-40.544l-26.845-228.404h-222.938z" fill="#707789"/></g><g><path d="m367.469 243.051h-111.469v268.949c50.952 0 98.427-14.885 138.314-40.544z" fill="#555a66"/></g><g><path d="m120.421 222.515c0-97.155 60.701-132.913 135.58-132.913s135.58 35.758 135.58 132.913c0 143.702-60.701 209.142-135.58 209.142s-135.58-65.44-135.58-209.142z" fill="#7e8596"/></g><g><path d="m256.001 89.603-.001 342.054h.001c74.879 0 135.58-65.44 135.58-209.142 0-97.155-60.702-132.912-135.58-132.912z" fill="#636978"/></g><g><g><g><circle cx="180.548" cy="250" fill="#555a66" r="16.463"/></g></g><g><g><circle cx="331.452" cy="250" fill="#333940" r="16.463"/></g></g></g><g><g><ellipse cx="227.055" cy="377.526" fill="#555a66" rx="11.308" ry="11.308" transform="matrix(.253 -.967 .967 .253 -195.675 501.537)"/></g><g><ellipse cx="284.945" cy="377.526" fill="#333940" rx="11.308" ry="11.308" transform="matrix(.451 -.893 .893 .451 -180.507 461.634)"/></g></g><g><path d="m256 343.735c-27.247 0-47.259-25.576-40.707-52.023l40.707-164.303 40.707 164.303c6.552 26.447-13.46 52.023-40.707 52.023z" fill="#e9edf5"/></g><g><path d="m296.707 291.712-40.707-164.303v216.326c27.247 0 47.259-25.576 40.707-52.023z" fill="#cdd2e1"/></g></g></svg>