<svg id="Capa_1" enable-background="new 0 0 512 512" height="512" viewBox="0 0 512 512" width="512" xmlns="http://www.w3.org/2000/svg"><g><path d="m379.243 480.421c79.131-43.548 132.757-127.717 132.757-224.421 0-141.385-114.615-256-256-256s-256 114.615-256 256c0 96.704 53.626 180.873 132.757 224.421z" fill="#ff6c52"/><path d="m379.245 480.434c71.536-39.366 122.224-111.938 131.297-196.952l-191.198-191.198-3.344 9.656-43.56-43.56 18.323 78.251z" fill="#f92814"/><g><path d="m319.923 132.344c-10.902 11.222-56.099 39.543-67.322 28.641-11.222-10.902 15.781-56.9 26.683-68.122s28.837-11.481 40.059-.579c11.223 10.902 11.483 28.837.58 40.06z" fill="#bec3d2"/></g><g><path d="m284.329 81.443c0 15.646-12.683 67.453-28.329 67.453s-28.329-51.808-28.329-67.453 12.683-28.329 28.329-28.329 28.329 12.683 28.329 28.329z" fill="#e9edf5"/></g><g><path d="m256 53.114v95.783c15.646 0 28.329-51.808 28.329-67.454s-12.683-28.329-28.329-28.329z" fill="#cdd2e1"/></g><g><path d="m256 512c44.724 0 86.769-11.469 123.355-31.626l-31.799-270.147c-5.465-46.425-44.811-81.411-91.556-81.411-46.745 0-86.091 34.986-91.556 81.411l-31.799 270.147c36.586 20.157 78.631 31.626 123.355 31.626z" fill="#fff"/></g><g><path d="m347.556 210.228c-5.465-46.425-44.811-81.411-91.556-81.411v383.183c44.724 0 86.769-11.469 123.355-31.626z" fill="#e9edf5"/></g><g><g><circle cx="206.847" cy="210.959" fill="#414952" r="12.954"/></g><g><circle cx="305.153" cy="210.959" fill="#23272b" r="12.954"/></g></g><g><path d="m221.303 379.276c0 16.554-13.419 29.973-29.973 29.973-16.553 0-29.973-13.419-29.973-29.973z" fill="#e9edf5"/></g><g><path d="m211.529 446.389c0 16.553-13.419 29.973-29.973 29.973s-29.973-13.419-29.973-29.973z" fill="#e9edf5"/></g><g><path d="m350.642 405.633c0 16.553-13.419 29.973-29.973 29.973s-29.973-13.419-29.973-29.973z" fill="#cdd2e1"/></g><g><path d="m285.973 473.5c0 16.553-13.419 29.973-29.973 29.973s-29.973-13.419-29.973-29.973z" fill="#e9edf5"/></g><g><path d="m256 474.106v29.973c16.553 0 29.973-13.419 29.973-29.973z" fill="#cdd2e1"/></g><g><path d="m287.567 299.16h-63.134c-10.867 0-19.676-8.809-19.676-19.676 0-10.867 8.809-19.676 19.676-19.676h63.134c10.867 0 19.676 8.809 19.676 19.676 0 10.867-8.809 19.676-19.676 19.676z" fill="#ffb600"/></g><g><path d="m287.567 259.808h-31.567v39.353h31.567c10.867 0 19.676-8.81 19.676-19.676 0-10.868-8.809-19.677-19.676-19.677z" fill="#ff9500"/></g><g><path d="m305.73 233.748h-29.165v-.343c0-11.358-9.207-20.565-20.565-20.565s-20.565 9.208-20.565 20.565v.343h-29.165c-13.222 0-23.941 10.719-23.941 23.941 0 13.223 10.719 23.941 23.941 23.941h99.46c13.222 0 23.941-10.719 23.941-23.941 0-13.222-10.719-23.941-23.941-23.941z" fill="#ffce00"/></g><g><path d="m305.73 233.748h-29.165v-.343c0-11.357-9.207-20.565-20.565-20.565v68.791h49.73c13.222 0 23.941-10.719 23.941-23.941 0-13.223-10.719-23.942-23.941-23.942z" fill="#fdba12"/></g></g></svg>