<?xml version="1.0" encoding="utf-8"?>
<!-- Generator: Adobe Illustrator 24.3.0, SVG Export Plug-In . SVG Version: 6.00 Build 0)  -->
<svg version="1.1" id="Capa_1" xmlns="http://www.w3.org/2000/svg" xmlns:xlink="http://www.w3.org/1999/xlink" x="0px" y="0px"
	 viewBox="0 0 512 512" style="enable-background:new 0 0 512 512;" xml:space="preserve">
<style type="text/css">
	.st0{display:none;fill:#FF6C52;}
	.st1{display:none;}
	.st2{fill:#BEC3D2;}
	.st3{fill:#E9EDF5;}
	.st4{fill:#CDD2E1;}
	.st5{fill:#FFFFFF;}
	.st6{fill:#414952;}
	.st7{fill:#23272B;}
	.st8{fill:#FFB600;}
	.st9{fill:#FF9500;}
	.st10{fill:#FFCE00;}
	.st11{fill:#FDBA12;}
</style>
<g>
	<path class="st0" d="M379.2,480.4C458.4,436.9,512,352.7,512,256C512,114.6,397.4,0,256,0S0,114.6,0,256
		c0,96.7,53.6,180.9,132.8,224.4H379.2z"/>
	<path class="st1" d="M379.2,480.4c71.5-39.4,122.2-111.9,131.3-197L319.3,92.3l-3.3,9.7l-43.6-43.6l18.3,78.3L379.2,480.4z"/>
	<g>
		<path class="st2" d="M319.9,132.3c-10.9,11.2-56.1,39.5-67.3,28.6c-11.2-10.9,15.8-56.9,26.7-68.1s28.8-11.5,40.1-0.6
			C330.6,103.2,330.8,121.1,319.9,132.3z"/>
	</g>
	<g>
		<path class="st3" d="M284.3,81.4c0,15.6-12.7,67.5-28.3,67.5s-28.3-51.8-28.3-67.5s12.7-28.3,28.3-28.3S284.3,65.8,284.3,81.4z"/>
	</g>
	<g>
		<path class="st4" d="M256,53.1v95.8c15.6,0,28.3-51.8,28.3-67.5S271.6,53.1,256,53.1z"/>
	</g>
	<g>
		<path class="st5" d="M256,512c44.7,0,86.8-11.5,123.4-31.6l-31.8-270.1c-5.5-46.4-44.8-81.4-91.6-81.4s-86.1,35-91.6,81.4
			l-31.8,270.1C169.2,500.5,211.3,512,256,512z"/>
	</g>
	<g>
		<path class="st3" d="M347.6,210.2c-5.5-46.4-44.8-81.4-91.6-81.4V512c44.7,0,86.8-11.5,123.4-31.6L347.6,210.2z"/>
	</g>
	<g>
		<g>
			<circle class="st6" cx="206.8" cy="211" r="13"/>
		</g>
		<g>
			<circle class="st7" cx="305.2" cy="211" r="13"/>
		</g>
	</g>
	<g>
		<path class="st3" d="M221.3,379.3c0,16.6-13.4,30-30,30c-16.6,0-30-13.4-30-30H221.3z"/>
	</g>
	<g>
		<path class="st3" d="M211.5,446.4c0,16.6-13.4,30-30,30s-30-13.4-30-30H211.5z"/>
	</g>
	<g>
		<path class="st4" d="M350.6,405.6c0,16.6-13.4,30-30,30s-30-13.4-30-30H350.6z"/>
	</g>
	<g>
		<path class="st3" d="M286,473.5c0,16.6-13.4,30-30,30s-30-13.4-30-30H286z"/>
	</g>
	<g>
		<path class="st4" d="M256,474.1v30c16.6,0,30-13.4,30-30H256z"/>
	</g>
	<g>
		<path class="st8" d="M287.6,299.2h-63.1c-10.9,0-19.7-8.8-19.7-19.7s8.8-19.7,19.7-19.7h63.1c10.9,0,19.7,8.8,19.7,19.7
			S298.4,299.2,287.6,299.2z"/>
	</g>
	<g>
		<path class="st9" d="M287.6,259.8H256v39.4h31.6c10.9,0,19.7-8.8,19.7-19.7C307.2,268.6,298.4,259.8,287.6,259.8z"/>
	</g>
	<g>
		<path class="st10" d="M305.7,233.7h-29.2v-0.3c0-11.4-9.2-20.6-20.6-20.6s-20.6,9.2-20.6,20.6v0.3h-29.2
			c-13.2,0-23.9,10.7-23.9,23.9c0,13.2,10.7,23.9,23.9,23.9h99.5c13.2,0,23.9-10.7,23.9-23.9C329.7,244.5,319,233.7,305.7,233.7
			L305.7,233.7z"/>
	</g>
	<g>
		<path class="st11" d="M305.7,233.7h-29.2v-0.3c0-11.4-9.2-20.6-20.6-20.6v68.8h49.7c13.2,0,23.9-10.7,23.9-23.9
			C329.7,244.5,319,233.7,305.7,233.7L305.7,233.7z"/>
	</g>
</g>
</svg>
