<?xml version="1.0" encoding="utf-8"?>
<!-- Generator: Adobe Illustrator 24.3.0, SVG Export Plug-In . SVG Version: 6.00 Build 0)  -->
<svg version="1.1" id="Capa_1" xmlns="http://www.w3.org/2000/svg" xmlns:xlink="http://www.w3.org/1999/xlink" x="0px" y="0px"
	 viewBox="0 0 512 512" style="enable-background:new 0 0 512 512;" xml:space="preserve">
<style type="text/css">
	.st0{display:none;fill:#B70BFF;}
	.st1{opacity:0.33;}
	.st2{fill:#A3D4FF;}
	.st3{fill:#BFE1FF;}
	.st4{fill:#65B1FC;}
	.st5{fill:#87C7FF;}
	.st6{fill:#4A98F7;}
	.st7{fill:#414952;}
	.st8{fill:#23272B;}
	.st9{fill:#E9EDF5;}
	.st10{fill:#FFFFFF;}
</style>
<g>
	<path class="st0" d="M414.1,457.4C473.7,410.5,512,337.7,512,256C512,114.6,397.4,0,256,0S0,114.6,0,256
		c0,81.7,38.3,154.5,97.9,201.4H414.1z"/>
	<path class="st1" d="M510,223.9L383.2,97.1l-77.8,146.5l-8.6,58.1l117.3,155.8C473.7,410.5,512,337.7,512,256
		C512,245.1,511.3,234.4,510,223.9z"/>
	<g>
		<ellipse class="st2" cx="158.5" cy="125" rx="40.8" ry="40.8"/>
	</g>
	<g>
		<path class="st3" d="M135.6,103.8c-4.6,0-9.1,0.8-13.3,2.2c-3,5.7-4.7,12.1-4.7,19c0,22.5,18.2,40.8,40.8,40.8
			c4.6,0,9.1-0.8,13.3-2.2c3-5.7,4.7-12.1,4.7-19C176.4,122.1,158.2,103.8,135.6,103.8z"/>
	</g>
	<g>
		
			<ellipse transform="matrix(0.3829 -0.9238 0.9238 0.3829 102.7489 403.8802)" class="st4" cx="353.7" cy="125" rx="40.8" ry="40.8"/>
	</g>
	<g>
		<path class="st5" d="M376.4,103.8c4.6,0,9.1,0.8,13.3,2.2c3,5.7,4.7,12.1,4.7,19c0,22.5-18.2,40.8-40.8,40.8
			c-4.6,0-9.1-0.8-13.3-2.2c-3-5.7-4.7-12.1-4.7-19C335.6,122.1,353.8,103.8,376.4,103.8z"/>
	</g>
	<g>
		<path class="st5" d="M97.8,457.3C141.4,491.6,196.3,512,256,512s114.6-20.4,158.2-54.7l-25.2-214.8H123.1L97.8,457.3z"/>
	</g>
	<g>
		<path class="st6" d="M388.9,242.5H256V512c59.7,0,114.6-20.4,158.2-54.7L388.9,242.5z"/>
	</g>
	<g>
		<ellipse class="st5" cx="256" cy="202.5" rx="125.5" ry="125.5"/>
	</g>
	<g>
		<path class="st6" d="M256,77v251c69.3,0,125.5-56.2,125.5-125.5S325.3,77,256,77z"/>
	</g>
	<g>
		<ellipse class="st2" cx="256" cy="284.2" rx="166.2" ry="100.8"/>
	</g>
	<g>
		<path class="st4" d="M256,183.4V385c91.8,0,166.2-45.1,166.2-100.8S347.8,183.4,256,183.4L256,183.4z"/>
	</g>
	<g>
		<path class="st3" d="M262,299.4c-58,0-109.1,18-138.8,45.4C153.5,369.2,201.7,385,256,385c58,0,109.1-18,138.8-45.4
			C364.5,315.2,316.3,299.4,262,299.4z"/>
	</g>
	<g>
		<path class="st5" d="M262,299.4c-2,0-4,0-6,0.1V385c58,0,109.1-18,138.8-45.4C364.5,315.2,316.3,299.4,262,299.4z"/>
	</g>
	<g>
		<g>
			<ellipse class="st2" cx="176.8" cy="206.3" rx="36.7" ry="36.7"/>
		</g>
		<g>
			
				<ellipse transform="matrix(0.7071 -0.7071 0.7071 0.7071 -94.0935 185.4339)" class="st7" cx="176.8" cy="206.3" rx="16.4" ry="16.4"/>
		</g>
		<g>
			<ellipse class="st4" cx="335.2" cy="206.4" rx="36.7" ry="36.7"/>
		</g>
		<g>
			<ellipse class="st8" cx="335.2" cy="206.4" rx="16.4" ry="16.4"/>
		</g>
	</g>
	<g>
		<g>
			<ellipse class="st7" cx="215.2" cy="136.2" rx="11.2" ry="11.2"/>
		</g>
		<g>
			
				<ellipse transform="matrix(0.16 -0.9871 0.9871 0.16 114.7556 407.2862)" class="st8" cx="296.7" cy="136.2" rx="11.2" ry="11.2"/>
		</g>
	</g>
	<g>
		<path class="st9" d="M356.5,317.3c-14.7-6.2-31.2-11-48.9-14v50.2h48.9V317.3z"/>
	</g>
	<g>
		<path class="st10" d="M155.5,322.8v30.7h48.9v-47.9C186.4,309.7,169.9,315.5,155.5,322.8z"/>
	</g>
</g>
</svg>
