<svg id="Capa_1" enable-background="new 0 0 512 512" height="512" viewBox="0 0 512 512" width="512" xmlns="http://www.w3.org/2000/svg"><g><path d="m414.065 457.387c59.633-46.87 97.935-119.656 97.935-201.387 0-141.385-114.615-256-256-256s-256 114.615-256 256c0 81.731 38.302 154.517 97.935 201.387z" fill="#c38778"/><path d="m510.004 223.882-126.807-126.807-77.842 146.458-8.598 58.09 117.308 155.765c59.633-46.871 97.935-119.657 97.935-201.388 0-10.878-.679-21.597-1.996-32.118z" fill="#a65d4e"/><g><ellipse cx="158.447" cy="125.035" fill="#a3d4ff" rx="40.761" ry="40.761" transform="matrix(.924 -.383 .383 .924 -35.788 70.153)"/></g><g><path d="m135.642 103.821c-4.643 0-9.105.777-13.262 2.207-2.997 5.675-4.693 12.143-4.693 19.007 0 22.512 18.249 40.761 40.761 40.761 4.643 0 9.105-.777 13.262-2.206 2.997-5.675 4.694-12.143 4.694-19.007-.001-22.512-18.25-40.762-40.762-40.762z" fill="#bfe1ff"/></g><g><ellipse cx="353.552" cy="125.035" fill="#65b1fc" rx="40.761" ry="40.761" transform="matrix(.383 -.924 .924 .383 102.737 403.826)"/></g><g><path d="m376.358 103.821c4.643 0 9.104.777 13.262 2.207 2.997 5.675 4.693 12.143 4.693 19.007 0 22.512-18.249 40.761-40.761 40.761-4.643 0-9.104-.777-13.262-2.206-2.997-5.675-4.694-12.143-4.694-19.007.001-22.512 18.25-40.762 40.762-40.762z" fill="#87c7ff"/></g><g><path d="m97.827 457.303c43.542 34.259 98.471 54.697 158.173 54.697s114.631-20.438 158.173-54.697l-25.243-214.77h-265.86z" fill="#87c7ff"/></g><g><path d="m388.93 242.533h-132.93v269.467c59.702 0 114.631-20.438 158.173-54.697z" fill="#4a98f7"/></g><g><ellipse cx="256" cy="202.513" fill="#87c7ff" rx="125.513" ry="125.513" transform="matrix(.707 -.707 .707 .707 -68.218 240.334)"/></g><g><path d="m256 77v251.026c69.319 0 125.513-56.194 125.513-125.513s-56.194-125.513-125.513-125.513z" fill="#4a98f7"/></g><g><ellipse cx="256" cy="284.232" fill="#a3d4ff" rx="166.154" ry="100.802"/></g><g><path d="m256 183.43v201.604c91.764 0 166.154-45.131 166.154-100.802s-74.39-100.802-166.154-100.802z" fill="#65b1fc"/></g><g><path d="m262 299.412c-58.027 0-109.106 18.046-138.821 45.392 30.32 24.432 78.529 40.23 132.821 40.23 58.027 0 109.106-18.046 138.821-45.393-30.32-24.431-78.529-40.229-132.821-40.229z" fill="#bfe1ff"/></g><g><path d="m262 299.412c-2.009 0-4.008.026-6 .069v85.553c58.027 0 109.106-18.046 138.821-45.393-30.32-24.431-78.529-40.229-132.821-40.229z" fill="#87c7ff"/></g><g><g><ellipse cx="176.833" cy="206.301" fill="#a3d4ff" rx="36.75" ry="36.75" transform="matrix(.707 -.707 .707 .707 -94.084 185.464)"/></g><g><ellipse cx="176.833" cy="206.301" fill="#414952" rx="16.376" ry="16.376" transform="matrix(.707 -.707 .707 .707 -94.084 185.464)"/></g><g><ellipse cx="335.167" cy="206.301" fill="#65b1fc" rx="36.75" ry="36.75" transform="matrix(.23 -.973 .973 .23 57.379 485.104)"/></g><g><ellipse cx="335.167" cy="206.301" fill="#23272b" rx="16.376" ry="16.376" transform="matrix(.23 -.973 .973 .23 57.379 485.104)"/></g></g><g><g><ellipse cx="215.243" cy="136.213" fill="#414952" rx="11.178" ry="11.178" transform="matrix(.16 -.987 .987 .16 46.311 326.858)"/></g><g><ellipse cx="296.757" cy="136.213" fill="#23272b" rx="11.178" ry="11.178" transform="matrix(.16 -.987 .987 .16 114.768 407.32)"/></g></g><g><path d="m356.498 317.292c-14.736-6.192-31.201-10.976-48.869-14.031v50.232h48.869z" fill="#e9edf5"/></g><g><path d="m155.502 322.839v30.654h48.869v-47.852c-17.956 4.028-34.45 9.885-48.869 17.198z" fill="#fff"/></g></g></svg>