<?xml version="1.0" encoding="utf-8"?>
<!-- Generator: Adobe Illustrator 25.2.0, SVG Export Plug-In . SVG Version: 6.00 Build 0)  -->
<svg version="1.1" id="Capa_1" xmlns="http://www.w3.org/2000/svg" xmlns:xlink="http://www.w3.org/1999/xlink" x="0px" y="0px"
	 viewBox="0 0 512 512" style="enable-background:new 0 0 512 512;" xml:space="preserve">
<style type="text/css">
	.st0{display:none;}
	.st1{display:inline;}
	.st2{fill:#C38778;}
	.st3{opacity:0.33;fill:#231F20;}
	.st4{fill:#DCE1EB;}
	.st5{fill:#BEC3D2;}
	.st6{fill:#E9EDF5;}
	.st7{fill:#CDD2E1;}
	.st8{fill:#707789;}
	.st9{fill:#555A66;}
	.st10{fill:#333940;}
	.st11{fill:#F2F6FC;}
</style>
<g>
	<g class="st0">
		<g class="st1">
			<g>
				<g>
					<g>
						<g>
							<g>
								<path class="st2" d="M107.9,464.8C42.6,418.4,0,342.2,0,256C0,114.6,114.6,0,256,0s256,114.6,256,256
									c0,86.2-42.6,162.4-107.9,208.8H107.9z"/>
							</g>
						</g>
					</g>
				</g>
			</g>
		</g>
	</g>
	<path class="st3" d="M88.8,266.2l198.6,198.6h116.7C469.4,418.4,512,342.2,512,256c0-9.2-0.5-18.2-1.4-27.2l-72.1-72.1l-1.1,2.6
		l-38-38L88.8,266.2z"/>
	<g>
		<path class="st4" d="M345.7,495.8c20.9-7.8,40.5-18.3,58.4-31l-35.4-177.4H143.3l-35.4,177.4c17.9,12.7,37.5,23.2,58.4,31
			L345.7,495.8z"/>
	</g>
	<g>
		<path class="st5" d="M404.1,464.8l-35.4-177.4H256v208.4h89.7C366.6,488,386.2,477.5,404.1,464.8z"/>
	</g>
	<g>
		<g>
			<path class="st4" d="M182,149.5c0-22.3-18.1-40.4-40.4-40.4c-20.1,0-36.8,14.7-39.9,33.9c-21.3,1.1-38.2,18.8-38.2,40.3
				c0,11.4,4.7,21.7,12.4,29.1c-3.4,5.9-5.3,12.7-5.3,20c0,22.3,18.1,40.4,40.4,40.4s40.4-18.1,40.4-40.4c0-11.4-4.7-21.7-12.4-29.1
				c2.3-4.1,4-8.7,4.8-13.5C165.1,188.7,182,171.1,182,149.5L182,149.5z"/>
		</g>
		<g>
			<path class="st5" d="M330,149.5c0-22.3,18.1-40.4,40.4-40.4c20.1,0,36.8,14.7,39.9,33.9c21.3,1.1,38.2,18.8,38.2,40.3
				c0,11.4-4.7,21.7-12.4,29.1c3.4,5.9,5.3,12.7,5.3,20c0,22.3-18.1,40.4-40.4,40.4s-40.4-18.1-40.4-40.4c0-11.4,4.7-21.7,12.4-29.1
				c-2.3-4.1-4-8.7-4.8-13.5C346.9,188.7,330,171.1,330,149.5L330,149.5z"/>
		</g>
	</g>
	<g>
		<path class="st6" d="M399.3,230.1c0,64.8-64.2,88.6-143.3,88.6s-143.3-23.8-143.3-88.6c0-64.8,64.2-139.4,143.3-139.4
			S399.3,165.3,399.3,230.1z"/>
	</g>
	<g>
		<path class="st7" d="M256,90.6v228.1c79.2,0,143.3-23.8,143.3-88.6S335.2,90.6,256,90.6L256,90.6z"/>
	</g>
	<g>
		<path class="st8" d="M290.5,205.8c0,27.1-15.5,34.3-34.5,34.3s-34.5-7.2-34.5-34.3s15.5-63.9,34.5-63.9S290.5,178.7,290.5,205.8z"
			/>
	</g>
	<g>
		<path class="st9" d="M256,141.9V240c19.1,0,34.5-7.2,34.5-34.3S275.1,141.9,256,141.9L256,141.9z"/>
	</g>
	<g>
		<g>
			<circle class="st9" cx="181.4" cy="177.6" r="17.3"/>
		</g>
		<g>
			<circle class="st10" cx="330.6" cy="177.6" r="17.3"/>
		</g>
	</g>
	<g>
		<path class="st11" d="M256,356c-49.6,0-89.7,40.2-89.7,89.7v50.1c27.9,10.5,58.2,16.2,89.7,16.2s61.8-5.7,89.7-16.2v-50.1
			C345.7,396.2,305.6,356,256,356z"/>
	</g>
	<g>
		<path class="st4" d="M256,356v156c31.6,0,61.8-5.7,89.7-16.2v-50.1C345.7,396.2,305.6,356,256,356L256,356z"/>
	</g>
</g>
</svg>
