<svg id="Capa_1" enable-background="new 0 0 512 512" height="512" viewBox="0 0 512 512" width="512" xmlns="http://www.w3.org/2000/svg"><g><g><g><g><g><g><g><g><path d="m107.881 464.824c-65.287-46.392-107.881-122.634-107.881-208.824 0-141.385 114.615-256 256-256s256 114.615 256 256c0 86.19-42.594 162.432-107.881 208.824z" fill="#c38778"/></g></g></g></g></g></g></g><path d="m88.829 266.23 198.594 198.594h116.696c65.287-46.392 107.881-122.634 107.881-208.824 0-9.177-.483-18.242-1.425-27.17l-72.067-72.067-1.142 2.564-38.018-38.018z" fill="#a65d4e"/><g><path d="m345.734 495.832c20.893-7.821 40.491-18.293 58.384-31.008l-35.407-177.412h-225.423l-35.407 177.412c17.893 12.715 37.492 23.188 58.384 31.008z" fill="#dce1eb"/></g><g><path d="m404.119 464.823-35.407-177.412h-112.712v208.42h89.734c20.893-7.82 40.491-18.293 58.385-31.008z" fill="#bec3d2"/></g><g><g><path d="m181.986 149.496c0-22.311-18.087-40.398-40.398-40.398-20.113 0-36.793 14.699-39.884 33.94-21.299 1.131-38.222 18.759-38.222 40.34 0 11.422 4.741 21.737 12.362 29.085-3.359 5.892-5.278 12.711-5.278 19.978 0 22.311 18.087 40.398 40.398 40.398s40.398-18.087 40.398-40.398c0-11.422-4.741-21.737-12.362-29.085 2.343-4.11 3.985-8.671 4.764-13.52 21.3-1.131 38.222-18.759 38.222-40.34z" fill="#dce1eb"/></g><g><path d="m330.014 149.496c0-22.311 18.087-40.398 40.398-40.398 20.113 0 36.793 14.699 39.884 33.94 21.299 1.131 38.222 18.759 38.222 40.34 0 11.422-4.741 21.737-12.362 29.085 3.359 5.892 5.278 12.711 5.278 19.978 0 22.311-18.087 40.398-40.398 40.398s-40.398-18.087-40.398-40.398c0-11.422 4.741-21.737 12.362-29.085-2.343-4.11-3.985-8.671-4.764-13.52-21.3-1.131-38.222-18.759-38.222-40.34z" fill="#bec3d2"/></g></g><g><path d="m399.348 230.064c0 64.775-64.179 88.615-143.348 88.615s-143.348-23.841-143.348-88.615c0-64.775 64.179-139.439 143.348-139.439s143.348 74.664 143.348 139.439z" fill="#e9edf5"/></g><g><path d="m256 90.625v228.054c79.169 0 143.348-23.841 143.348-88.615s-64.179-139.439-143.348-139.439z" fill="#cdd2e1"/></g><g><path d="m290.534 205.761c0 27.097-15.461 34.271-34.534 34.271s-34.534-7.174-34.534-34.271 15.461-63.855 34.534-63.855 34.534 36.758 34.534 63.855z" fill="#707789"/></g><g><path d="m256 141.906v98.126c19.073 0 34.534-7.174 34.534-34.271s-15.461-63.855-34.534-63.855z" fill="#555a66"/></g><g><g><circle cx="181.394" cy="177.611" fill="#555a66" r="17.267"/></g><g><circle cx="330.606" cy="177.611" fill="#333940" r="17.267"/></g></g><g><path d="m256 355.976c-49.559 0-89.734 40.175-89.734 89.734v50.121c27.924 10.453 58.162 16.169 89.734 16.169s61.81-5.716 89.734-16.168v-50.121c0-49.559-40.175-89.735-89.734-89.735z" fill="#f2f6fc"/></g><g><path d="m256 355.976v156.024c31.573 0 61.81-5.716 89.734-16.169v-50.121c0-49.558-40.175-89.734-89.734-89.734z" fill="#dce1eb"/></g></g></svg>