<?xml version="1.0" encoding="utf-8"?>
<!-- Generator: Adobe Illustrator 25.2.0, SVG Export Plug-In . SVG Version: 6.00 Build 0)  -->
<svg version="1.1" id="Capa_1" xmlns="http://www.w3.org/2000/svg" xmlns:xlink="http://www.w3.org/1999/xlink" x="0px" y="0px"
	 viewBox="0 0 512 512" style="enable-background:new 0 0 512 512;" xml:space="preserve">
<style type="text/css">
	.st0{display:none;fill:#FFCE00;}
	.st1{opacity:0.33;fill:#231F20;}
	.st2{fill:#A65D4E;}
	.st3{fill:#784132;}
	.st4{fill:#B46E5A;}
	.st5{fill:#915041;}
	.st6{fill:#C38778;}
	.st7{fill:#555A66;}
	.st8{fill:#333940;}
	.st9{fill:#D79B8C;}
</style>
<g>
	<path class="st0" d="M342.4,497c98.9-35.5,169.6-130,169.6-241C512,114.6,397.4,0,256,0S0,114.6,0,256c0,111,70.7,205.6,169.6,241
		H342.4z"/>
	<path class="st1" d="M511.6,242.4l-160-160l-42.9,117.2L189,79.9l-19.6,210.7l15.2,15.2l56.3,7l41.1,6.3l60.3,178
		c98.9-35.5,169.6-130,169.6-241C512,251.4,511.9,246.9,511.6,242.4L511.6,242.4z"/>
	<g>
		<path class="st2" d="M169.5,497c27,9.7,56.1,15,86.5,15s59.5-5.3,86.5-15l-17.6-223.2H187.1L169.5,497z"/>
	</g>
	<g>
		<path class="st3" d="M324.9,273.8H256V512c30.3,0,59.5-5.3,86.5-15L324.9,273.8z"/>
	</g>
	<g>
		<path class="st4" d="M200.3,134.5l-5.4-43.1c-1.9-15-19.7-21.8-31.1-11.9c-17,14.8-35.2,35.6-32,55c5.7,35.2,40.2,53.4,40.2,53.4
			L200.3,134.5z"/>
	</g>
	<g>
		<path class="st5" d="M311.7,134.5l5.4-43.1c1.9-15,19.7-21.8,31.1-11.9c17,14.8,35.2,35.6,32,55c-5.7,35.2-40.2,53.4-40.2,53.4
			L311.7,134.5z"/>
	</g>
	<g>
		<path class="st6" d="M363.8,231.7c0,63.8-48.3,87.3-107.8,87.3s-107.8-23.5-107.8-87.3S196.5,94.3,256,94.3
			S363.8,167.8,363.8,231.7L363.8,231.7z"/>
	</g>
	<g>
		<path class="st2" d="M363.8,231.7c0-63.8-48.2-137.4-107.8-137.4V319C315.6,319,363.8,295.5,363.8,231.7L363.8,231.7z"/>
	</g>
	<g>
		<g>
			<circle class="st7" cx="194.9" cy="198.1" r="16"/>
		</g>
		<g>
			<circle class="st8" cx="317.1" cy="198.1" r="16"/>
		</g>
	</g>
	<g>
		<path class="st9" d="M307,279.7c0.7-3.4,1.1-6.9,1.1-10.5v-26.4c0-21.9-13.5-40.6-32.5-48.3v-1.9c0-10.8-8.8-19.5-19.5-19.5
			s-19.5,8.8-19.5,19.5v1.9c-19.1,7.7-32.5,26.4-32.5,48.3v26.4c0,3.6,0.4,7.1,1.1,10.5c-5.6,6.2-9.1,14.5-9.1,23.6
			c0,19.4,15.7,35.1,35.1,35.1c9.8,0,18.7-4,25.1-10.5c6.4,6.5,15.2,10.5,25.1,10.5c19.4,0,35.1-15.7,35.1-35.1
			C316.1,294.2,312.7,285.9,307,279.7L307,279.7z"/>
	</g>
	<g>
		<path class="st4" d="M307,279.7c0.7-3.4,1.1-6.9,1.1-10.5v-26.4c0-21.9-13.5-40.6-32.5-48.3v-1.9c0-10.8-8.7-19.5-19.5-19.5v154.8
			c6.4,6.5,15.2,10.5,25,10.5c19.4,0,35.1-15.7,35.1-35.1C316.1,294.2,312.7,285.9,307,279.7L307,279.7z"/>
	</g>
	<g>
		<path class="st7" d="M225.7,223.2h60.6v30h-60.6L225.7,223.2z"/>
	</g>
	<g>
		<path class="st8" d="M256,223.2h30.3v30H256V223.2z"/>
	</g>
	<g>
		<path class="st7" d="M241,243.7h30v69.1h-30V243.7z"/>
	</g>
	<g>
		<path class="st8" d="M256,243.7h15v69.1h-15V243.7z"/>
	</g>
</g>
</svg>
