<svg id="Capa_1" enable-background="new 0 0 512 512" height="512" viewBox="0 0 512 512" width="512" xmlns="http://www.w3.org/2000/svg"><g><path d="m342.432 497.025c98.852-35.453 169.568-129.974 169.568-241.025 0-141.385-114.615-256-256-256s-256 114.615-256 256c0 111.05 70.716 205.572 169.568 241.025z" fill="#ffce00"/><path d="m511.646 242.427-159.973-159.973-42.866 117.182-119.765-119.765-19.553 210.66 15.199 15.199 56.312 7.04 41.139 6.259 60.294 178.003c98.852-35.454 169.567-129.981 169.567-241.032 0-4.553-.119-9.078-.354-13.573z" fill="#ffa300"/><g><path d="m169.49 497.014c27.022 9.7 56.149 14.986 86.51 14.986s59.488-5.285 86.51-14.986l-17.645-223.23h-137.73z" fill="#a65d4e"/></g><g><path d="m324.865 273.783h-68.823v238.217c30.346-.005 59.458-5.289 86.468-14.986z" fill="#784132"/></g><g><path d="m200.295 134.496-5.366-43.105c-1.864-14.975-19.704-21.822-31.078-11.905-16.999 14.822-35.167 35.64-32.043 55.01 5.684 35.242 40.227 53.432 40.227 53.432z" fill="#b46e5a"/></g><g><path d="m311.705 134.496 5.366-43.105c1.864-14.975 19.704-21.822 31.078-11.905 16.999 14.822 35.167 35.64 32.043 55.01-5.684 35.242-40.227 53.432-40.227 53.432z" fill="#915041"/></g><g><path d="m363.816 231.69c0 63.841-48.271 87.338-107.816 87.338s-107.816-23.497-107.816-87.338 48.271-137.429 107.816-137.429 107.816 73.588 107.816 137.429z" fill="#c38778"/></g><g><path d="m363.816 231.69c0-63.826-48.248-137.393-107.774-137.428v224.766c59.526-.011 107.774-23.512 107.774-87.338z" fill="#a65d4e"/></g><g><g><circle cx="194.932" cy="198.096" fill="#555a66" r="15.983"/></g><g><circle cx="317.068" cy="198.096" fill="#333940" r="15.983"/></g></g><g><path d="m307.041 279.703c.691-3.385 1.055-6.89 1.055-10.48v-26.445c0-21.859-13.462-40.573-32.548-48.304v-1.921c0-10.795-8.751-19.547-19.547-19.547s-19.547 8.752-19.547 19.547v1.921c-19.086 7.731-32.548 26.445-32.548 48.304v26.445c0 3.59.363 7.095 1.055 10.48-5.648 6.226-9.089 14.491-9.089 23.559 0 19.372 15.704 35.076 35.076 35.076 9.815 0 18.688-4.031 25.054-10.528 6.366 6.497 15.24 10.528 25.054 10.528 19.372 0 35.076-15.704 35.076-35.076-.002-9.069-3.443-17.333-9.091-23.559z" fill="#d79b8c"/></g><g><path d="m307.041 279.703c.691-3.385 1.055-6.89 1.055-10.48v-26.445c0-21.859-13.462-40.573-32.548-48.304v-1.921c0-10.781-8.729-19.522-19.505-19.545v154.842c6.363 6.473 15.219 10.487 25.012 10.487 19.372 0 35.076-15.704 35.076-35.076-.001-9.068-3.442-17.332-9.09-23.558z" fill="#b46e5a"/></g><g><path d="m225.701 223.163h60.598v30h-60.598z" fill="#555a66"/></g><g><path d="m256.042 223.163h30.257v30h-30.257z" fill="#333940"/></g><g><path d="m241 243.702h30v69.068h-30z" fill="#555a66"/></g><g><path d="m256.042 243.702h14.958v69.068h-14.958z" fill="#333940"/></g></g></svg>