<?xml version="1.0" encoding="utf-8"?>
<!-- Generator: Adobe Illustrator 24.3.0, SVG Export Plug-In . SVG Version: 6.00 Build 0)  -->
<svg version="1.1" id="Capa_1" xmlns="http://www.w3.org/2000/svg" xmlns:xlink="http://www.w3.org/1999/xlink" x="0px" y="0px"
	 viewBox="0 0 512 512" style="enable-background:new 0 0 512 512;" xml:space="preserve">
<style type="text/css">
	.st0{display:none;fill:#A3D4FF;}
	.st1{opacity:0.33;}
	.st2{fill:#A65D4E;}
	.st3{fill:#784132;}
	.st4{fill:#C38778;}
	.st5{fill:#B46E5A;}
	.st6{fill:#FFFFFF;}
	.st7{fill:#E9EDF5;}
	.st8{fill:#555A66;}
	.st9{fill:#333940;}
</style>
<g>
	<path class="st0" d="M422.5,450.4c54.8-47,89.5-116.6,89.5-194.4C512,114.6,397.4,0,256,0S0,114.6,0,256
		c0,77.8,34.7,147.5,89.5,194.4H422.5z"/>
	<g class="st1">
		<path d="M400.1,467.6c-1.1,0.7-2.2,1.5-3.3,2.2C397.9,469.1,399,468.4,400.1,467.6z"/>
		<path d="M392,472.9L392,472.9c1.3-0.8,2.6-1.6,3.9-2.5C394.6,471.3,393.3,472.1,392,472.9z"/>
		<path d="M405.3,464c-1.3,1-2.7,1.9-4.1,2.9C402.6,465.9,403.9,465,405.3,464z"/>
		<path d="M422.1,450.8c-1,0.9-2,1.7-3.1,2.6C420.1,452.5,421.1,451.6,422.1,450.8z"/>
		<path d="M422.7,450.3c54.7-47,89.3-116.6,89.3-194.3c0-6.3-0.2-12.6-0.7-18.8L403.2,129.1l-48.8,9.9L422.7,450.3z"/>
		<path d="M418.2,454c-1.3,1-2.6,2.1-3.8,3.1C415.7,456.1,416.9,455.1,418.2,454z"/>
		<path d="M413.5,457.8c-1.1,0.8-2.1,1.6-3.2,2.5C411.4,459.4,412.5,458.6,413.5,457.8z"/>
		<path d="M409.3,461.1c-1.3,1-2.5,1.9-3.8,2.8C406.7,462.9,408,462,409.3,461.1z"/>
	</g>
	<g>
		<g>
			<circle class="st2" cx="140.8" cy="159.5" r="44.1"/>
		</g>
		<g>
			<circle class="st3" cx="371.2" cy="159.5" r="44.1"/>
		</g>
	</g>
	<g>
		<path class="st4" d="M256,512c63.7,0,121.9-23.2,166.7-61.7l-20.2-215.6C395.4,159.1,332,101.2,256,101.2
			c-76,0-139.4,57.8-146.5,133.4L89.3,450.3C134.1,488.8,192.3,512,256,512L256,512z"/>
	</g>
	<g>
		<path class="st5" d="M422.7,450.3l-20.2-215.6C395.4,159.1,332,101.2,256,101.2c0,0,0,0,0,0V512h0
			C319.7,512,377.9,488.8,422.7,450.3z"/>
	</g>
	<g>
		<path class="st6" d="M282.6,366.6h-53.3l-6-73h65.3L282.6,366.6z"/>
	</g>
	<g>
		<path class="st7" d="M288.6,293.6H256v73h26.7L288.6,293.6z"/>
	</g>
	<g>
		<g>
			<ellipse class="st8" cx="178.4" cy="208.1" rx="14.8" ry="14.8"/>
		</g>
		<g>
			<ellipse class="st9" cx="333.3" cy="208.1" rx="14.8" ry="14.8"/>
		</g>
	</g>
	<g>
		<ellipse class="st8" cx="256" cy="233.4" rx="41" ry="29.8"/>
	</g>
	<g>
		<path class="st9" d="M256,203.6C256,203.6,256,203.6,256,203.6l0,59.6h0c22.6,0,41-13.3,41-29.8S278.6,203.6,256,203.6L256,203.6z
			"/>
	</g>
	<g>
		<path class="st8" d="M230.3,314.4c-22.4,0-40.7-18.2-40.7-40.7h30c0,5.9,4.8,10.7,10.7,10.7s10.7-4.8,10.7-10.7v-61.5h30v61.5
			C271,296.2,252.8,314.4,230.3,314.4L230.3,314.4z"/>
	</g>
	<g>
		<path class="st8" d="M281.7,314.4c-22.4,0-40.7-18.2-40.7-40.7v-61.5h30v61.5c0,5.9,4.8,10.7,10.7,10.7s10.7-4.8,10.7-10.7h30
			C322.3,296.2,304.1,314.4,281.7,314.4z"/>
	</g>
	<path class="st9" d="M292.3,273.7c0,5.9-4.8,10.7-10.7,10.7s-10.7-4.8-10.7-10.7v-61.5h-15v93c0,0,0,0,0,0c7,5.7,15.9,9.1,25.7,9.1
		c22.4,0,40.7-18.2,40.7-40.7L292.3,273.7L292.3,273.7z"/>
</g>
</svg>
