<svg id="Capa_1" enable-background="new 0 0 512 512" height="512" viewBox="0 0 512 512" width="512" xmlns="http://www.w3.org/2000/svg"><g><path d="m422.528 450.424c54.765-46.951 89.472-116.631 89.472-194.424 0-141.385-114.615-256-256-256s-256 114.615-256 256c0 77.793 34.707 147.472 89.472 194.424z" fill="#a3d4ff"/><g fill="#65b1fc"><path d="m400.085 467.623c-1.083.738-2.172 1.469-3.266 2.191 1.095-.722 2.184-1.453 3.266-2.191z"/><path d="m391.974 472.936.004.004c1.292-.812 2.574-1.638 3.85-2.471-1.276.834-2.561 1.656-3.854 2.467z"/><path d="m405.263 464.005c-1.344.966-2.7 1.916-4.063 2.855 1.363-.94 2.719-1.889 4.063-2.855z"/><path d="m422.115 450.783c-1.014.866-2.035 1.724-3.063 2.574 1.028-.85 2.049-1.708 3.063-2.574z"/><path d="m422.702 450.281c54.666-46.95 89.298-116.569 89.298-194.281 0-6.308-.228-12.563-.677-18.757l-108.135-108.136-48.814 9.863z"/><path d="m418.222 454.046c-1.273 1.043-2.555 2.075-3.848 3.095 1.293-1.02 2.576-2.052 3.848-3.095z"/><path d="m413.548 457.784c-1.055.825-2.116 1.641-3.184 2.45 1.068-.809 2.13-1.626 3.184-2.45z"/><path d="m409.27 461.059c-1.268.95-2.543 1.891-3.83 2.817 1.286-.926 2.561-1.868 3.83-2.817z"/></g><g><g><circle cx="140.813" cy="159.482" fill="#a65d4e" r="44.133"/></g><g><circle cx="371.187" cy="159.482" fill="#784132" r="44.133"/></g></g><g><path d="m256 512c63.671 0 121.913-23.244 166.703-61.71l-20.184-215.601c-7.081-75.629-70.559-133.443-146.519-133.443-75.959 0-139.438 57.813-146.518 133.442l-20.185 215.602c44.79 38.465 103.032 61.71 166.703 61.71z" fill="#c38778"/></g><g><path d="m422.703 450.29-20.184-215.601c-7.081-75.629-70.56-133.443-146.519-133.443-.005 0-.009 0-.014 0v410.754h.014c63.671 0 121.913-23.244 166.703-61.71z" fill="#b46e5a"/></g><g><path d="m282.649 366.569h-53.298l-6-72.978h65.298z" fill="#fff"/></g><g><path d="m288.649 293.591h-32.663v72.978h26.663z" fill="#e9edf5"/></g><g><g><ellipse cx="178.534" cy="208.117" fill="#555a66" rx="14.767" ry="14.767" transform="matrix(.159 -.987 .987 .159 -55.388 351.183)"/></g><g><ellipse cx="333.466" cy="208.117" fill="#333940" rx="14.767" ry="14.767" transform="matrix(.159 -.987 .987 .159 74.841 504.133)"/></g></g><g><ellipse cx="256" cy="233.425" fill="#555a66" rx="40.964" ry="29.81"/></g><g><path d="m256 203.615c-.005 0-.009 0-.014 0v59.62h.014c22.624 0 40.964-13.346 40.964-29.81s-18.34-29.81-40.964-29.81z" fill="#333940"/></g><g><path d="m230.346 314.399c-22.417 0-40.655-18.237-40.655-40.654h30c0 5.875 4.779 10.654 10.654 10.654s10.655-4.779 10.655-10.654v-61.507h30v61.507c0 22.417-18.237 40.654-40.654 40.654z" fill="#555a66"/></g><g><path d="m281.655 314.399c-22.417 0-40.655-18.237-40.655-40.654v-61.507h30v61.507c0 5.875 4.779 10.654 10.654 10.654s10.655-4.779 10.655-10.654h30c0 22.417-18.237 40.654-40.654 40.654z" fill="#555a66"/></g><path d="m292.309 273.745c0 5.875-4.78 10.654-10.655 10.654s-10.654-4.779-10.654-10.654v-61.507h-15.014v93.033c.005-.004.01-.007.014-.011 7.002 5.711 15.935 9.14 25.655 9.14 22.417 0 40.654-18.237 40.654-40.654h-30z" fill="#333940"/></g></svg>