<?xml version="1.0" encoding="utf-8"?>
<!-- Generator: Adobe Illustrator 24.3.0, SVG Export Plug-In . SVG Version: 6.00 Build 0)  -->
<svg version="1.1" id="Capa_1" xmlns="http://www.w3.org/2000/svg" xmlns:xlink="http://www.w3.org/1999/xlink" x="0px" y="0px"
	 viewBox="0 0 512 512" style="enable-background:new 0 0 512 512;" xml:space="preserve">
<style type="text/css">
	.st0{display:none;fill:#FF6C52;}
	.st1{opacity:0.33;}
	.st2{fill:#DCE1EB;}
	.st3{fill:#BEC3D2;}
	.st4{fill:#FFFFFF;}
	.st5{fill:#E9EDF5;}
	.st6{fill:#9196AA;}
	.st7{fill:#414952;}
	.st8{fill:#23272B;}
	.st9{fill:#555A66;}
	.st10{fill:#333940;}
</style>
<g>
	<path class="st0" d="M391,473.5c72.6-45.2,121-125.7,121-217.5C512,114.6,397.4,0,256,0S0,114.6,0,256c0,91.8,48.4,172.4,121,217.5
		H391z"/>
	<path class="st1" d="M391,473.5c72.6-45.2,121-125.7,121-217.6c0-16.1-1.5-31.8-4.3-47.1l-79.2-79.2l-106.7,89.7L189.6,87.2
		l-84.4,149.3L303.6,435L391,473.5z"/>
	<path class="st2" d="M152.7,455.6c0-57.1,46.3-103.3,103.3-103.3s103.3,46.3,103.3,103.3v34.7c11-4.9,21.6-10.5,31.8-16.8
		l-23.7-201.2H144.5l-23.7,201.2c10.1,6.3,20.8,11.9,31.8,16.8L152.7,455.6L152.7,455.6z"/>
	<g>
		<path class="st3" d="M359.3,490.3c11-4.9,21.6-10.5,31.8-16.8l-23.7-201.2H256v79L359.3,490.3z"/>
	</g>
	<g>
		<path class="st4" d="M256,351.3c-57.1,0-103.3,46.3-103.3,103.3v35.7c31.6,14,66.6,21.7,103.3,21.7s71.7-7.8,103.3-21.7v-35.7
			C359.3,397.5,313.1,351.3,256,351.3z"/>
	</g>
	<g>
		<path class="st5" d="M256,351.3V512c36.8,0,71.7-7.8,103.3-21.7v-35.7C359.3,397.5,313.1,351.3,256,351.3L256,351.3z"/>
	</g>
	<path class="st4" d="M256,91.3c-26.2,0-50.7,2.9-71.8,9.2c26.5,13.8,44.6,41.4,44.6,73.3c0,45.6-37,82.6-82.6,82.6
		c-5.6,0-11.2-0.6-16.5-1.6c24.2,47.4,71.7,86.3,126.3,86.3c79.2,0,143.3-81.8,143.3-152.8S335.2,91.3,256,91.3z"/>
	<g>
		<path class="st5" d="M256,91.3v249.9c79.2,0,143.3-81.8,143.3-152.8S335.2,91.3,256,91.3z"/>
	</g>
	<g>
		<path class="st3" d="M112.7,188.4c0,21.9,6.1,44.9,17,66.2c5.7,1.2,11.6,1.9,17.6,1.9c45.6,0,82.6-37,82.6-82.6
			c0-32.1-18.3-59.8-45-73.5C141.7,113.2,112.7,140.7,112.7,188.4z"/>
	</g>
	<g>
		<path class="st3" d="M256,341.2c27,0,52.3-9.5,73.9-24.9c-7.1-34.3-37.5-60.1-73.9-60.1c-36.4,0-66.8,25.8-73.9,60.1
			C203.7,331.7,229,341.2,256,341.2z"/>
	</g>
	<g>
		<path class="st6" d="M329.9,316.3c-7.1-34.3-37.5-60.1-73.9-60.1v85C283,341.2,308.3,331.7,329.9,316.3z"/>
	</g>
	<g>
		<path class="st7" d="M284.2,263.6c0,12.6-12.6,22.7-28.2,22.7s-28.2-10.2-28.2-22.7S240.4,250,256,250S284.2,251,284.2,263.6z"/>
	</g>
	<g>
		<path class="st8" d="M256,250v36.3c15.6,0,28.2-10.2,28.2-22.7S271.6,250,256,250L256,250z"/>
	</g>
	<g>
		<g>
			<path class="st2" d="M101.6,229.2l-18-99.5l106-42.5l-60.6,145C123.5,245.4,104.1,243.3,101.6,229.2z"/>
		</g>
		<g>
			<path class="st3" d="M410.4,229.2l18-99.5l-106-42.5l60.6,145C388.5,245.4,407.9,243.3,410.4,229.2z"/>
		</g>
	</g>
	<g>
		<g>
			<g>
				<circle class="st9" cx="180.5" cy="202.8" r="16.5"/>
			</g>
		</g>
		<g>
			<g>
				<circle class="st10" cx="331.5" cy="202.8" r="16.5"/>
			</g>
		</g>
	</g>
</g>
</svg>
