<svg id="Capa_1" enable-background="new 0 0 512 512" height="512" viewBox="0 0 512 512" width="512" xmlns="http://www.w3.org/2000/svg"><g><path d="m391.009 473.525c72.631-45.175 120.991-125.696 120.991-217.525 0-141.385-114.615-256-256-256s-256 114.615-256 256c0 91.829 48.36 172.35 120.991 217.525z" fill="#ff6c52"/><path d="m391.003 473.55c72.64-45.173 120.997-125.714 120.997-217.55 0-16.092-1.485-31.836-4.325-47.105l-79.208-79.208-106.743 89.682-132.162-132.163-84.384 149.336 198.458 198.458z" fill="#f92814"/><path d="m152.663 455.61c0-57.071 46.266-103.337 103.337-103.337s103.337 46.266 103.337 103.337v34.668c11.024-4.869 21.643-10.487 31.784-16.802l-23.653-201.242h-222.937l-23.653 201.242c10.141 6.314 20.76 11.933 31.784 16.802v-34.668z" fill="#dce1eb"/><g><path d="m359.337 490.278c11.024-4.869 21.643-10.487 31.784-16.802l-23.653-201.242h-111.468v79.039z" fill="#bec3d2"/></g><g><path d="m256 351.273c-57.072 0-103.337 46.266-103.337 103.337v35.676c31.604 13.961 66.565 21.714 103.337 21.714s71.733-7.753 103.337-21.713v-35.676c0-57.072-46.265-103.338-103.337-103.338z" fill="#fff"/></g><g><path d="m256 351.273v160.727c36.772 0 71.732-7.753 103.337-21.713v-35.677c0-57.071-46.265-103.337-103.337-103.337z" fill="#e9edf5"/></g><path d="m256 91.335c-26.167 0-50.695 2.854-71.811 9.237 26.494 13.75 44.595 41.432 44.595 73.344 0 45.607-36.972 82.58-82.58 82.58-5.644 0-11.155-.566-16.481-1.645 24.204 47.431 71.675 86.342 126.277 86.342 79.169 0 143.348-81.803 143.348-152.771s-64.179-97.087-143.348-97.087z" fill="#fff"/><g><path d="m256 91.335v249.858c79.169 0 143.348-81.803 143.348-152.771s-64.179-97.087-143.348-97.087z" fill="#e9edf5"/></g><g><path d="m112.652 188.423c0 21.941 6.135 44.918 16.951 66.193 5.672 1.231 11.56 1.88 17.601 1.88 45.608 0 82.58-36.973 82.58-82.58 0-32.059-18.268-59.85-44.962-73.534-43.12 12.849-72.17 40.295-72.17 88.041z" fill="#bec3d2"/></g><g><path d="m256 341.193c27.029 0 52.31-9.536 73.887-24.919-7.095-34.306-37.48-60.092-73.887-60.092-36.408 0-66.793 25.787-73.887 60.092 21.577 15.383 46.858 24.919 73.887 24.919z" fill="#bec3d2"/></g><g><path d="m329.887 316.274c-7.095-34.306-37.48-60.092-73.887-60.092v85.011c27.029 0 52.31-9.536 73.887-24.919z" fill="#9196aa"/></g><g><path d="m284.195 263.576c0 12.562-12.623 22.746-28.195 22.746s-28.195-10.184-28.195-22.746 12.623-13.576 28.195-13.576 28.195 1.014 28.195 13.576z" fill="#414952"/></g><g><path d="m256 250v36.322c15.572 0 28.195-10.184 28.195-22.746s-12.623-13.576-28.195-13.576z" fill="#23272b"/></g><g><g><path d="m101.561 229.212-18.028-99.525 106.029-42.481-60.562 144.987c-5.526 13.229-24.884 11.125-27.439-2.981z" fill="#dce1eb"/></g><g><path d="m410.439 229.212 18.028-99.525-106.029-42.481 60.562 144.987c5.526 13.229 24.884 11.125 27.439-2.981z" fill="#bec3d2"/></g></g><g><g><g><circle cx="180.548" cy="202.798" fill="#555a66" r="16.463"/></g></g><g><g><circle cx="331.452" cy="202.798" fill="#333940" r="16.463"/></g></g></g></g></svg>