<svg id="Capa_1" enable-background="new 0 0 512 512" height="512" viewBox="0 0 512 512" width="512" xmlns="http://www.w3.org/2000/svg"><g><g><g><g><g><g><g><path d="m9.146 324.111c-5.962-21.672-9.146-44.494-9.146-68.059 0-141.385 114.615-256 256-256s256 114.615 256 256c0 23.565-3.184 46.387-9.146 68.059z" fill="#1dd882"/></g></g></g></g></g></g><path d="m502.854 324.111c3.69-13.415 6.316-27.27 7.782-41.47l-231.345-231.346-16.275 121.957z" fill="#0caa5f"/><g><path d="m432.623 441.261c33.091-31.552 57.752-71.783 70.232-117.15-29.806-108.35-129.036-187.942-246.855-187.942s-217.049 79.592-246.854 187.942c12.481 45.371 37.136 85.597 70.232 117.15z" fill="#fff"/></g><g><path d="m432.623 441.261c33.092-31.552 57.751-71.782 70.232-117.15-29.806-108.35-129.036-187.942-246.855-187.942-.024 0-.047.001-.07.001v346.242z" fill="#e9edf5"/></g><g><path d="m256 511.948c68.482 0 130.684-26.89 176.623-70.688 4.247-13.771 6.534-28.402 6.534-43.567 0-81.54-66.101-147.642-147.642-147.642h-71.03c-81.54 0-147.642 66.101-147.642 147.642 0 15.165 2.287 29.796 6.534 43.567 45.939 43.798 108.141 70.688 176.623 70.688z" fill="#555a66"/></g><g><path d="m291.515 250.052h-35.585v261.895c.024 0 .047.001.07.001 68.482 0 130.684-26.89 176.623-70.688 4.247-13.771 6.534-28.402 6.534-43.567-.001-81.539-66.102-147.641-147.642-147.641z" fill="#333940"/></g><g><path d="m256 78.814c-45.883 0-83.078 37.195-83.078 83.077v254.204c25.458 11.062 53.552 17.195 83.078 17.195s57.62-6.133 83.078-17.194v-254.204c0-45.883-37.195-83.078-83.078-83.078z" fill="#ff6c52"/></g><g><path d="m256 78.814c-.024 0-.047.002-.07.002v354.473c.024 0 .047.001.07.001 29.526 0 57.62-6.133 83.078-17.194v-254.204c0-45.883-37.195-83.078-83.078-83.078z" fill="#ff432e"/></g><g><g><ellipse cx="310.299" cy="169.59" fill="#333940" rx="17.267" ry="17.267" transform="matrix(.23 -.973 .973 .23 73.954 432.624)"/></g><g><ellipse cx="201.701" cy="169.59" fill="#555a66" rx="17.267" ry="17.267" transform="matrix(.707 -.707 .707 .707 -60.841 192.296)"/></g></g><g><g><path d="m277.513 304.53c-8.91 0-16.133-7.223-16.133-16.133v-82.582h17.709l14.304 79.733c1.775 9.893-5.829 18.982-15.88 18.982z" fill="#db0404"/></g><g><path d="m234.486 304.53c8.91 0 16.133-7.223 16.133-16.133v-82.582h-17.709l-14.304 79.733c-1.774 9.893 5.83 18.982 15.88 18.982z" fill="#ff432e"/></g></g><g><path d="m282.704 208.448-26.774 44.613-26.634-44.613v-54.663c0-14.748 11.956-26.704 26.704-26.704 14.748 0 26.704 11.956 26.704 26.704z" fill="#ffce00"/></g><g><path d="m256 127.081c-.024 0-.047.002-.07.002v125.979l26.774-44.613v-54.663c0-14.749-11.956-26.705-26.704-26.705z" fill="#fdba12"/></g><g><path d="m275.118 113.4h-38.235l-10.025-34.002c-5.738-19.464 8.85-38.975 29.143-38.975 20.292 0 34.881 19.511 29.143 38.975z" fill="#ff432e"/></g><g><path d="m256 40.423c-.024 0-.047.002-.07.002v72.975h19.188l10.025-34.002c5.738-19.465-8.851-38.975-29.143-38.975z" fill="#db0404"/></g></g></svg>