<?xml version="1.0" encoding="utf-8"?>
<!-- Generator: Adobe Illustrator 24.3.0, SVG Export Plug-In . SVG Version: 6.00 Build 0)  -->
<svg version="1.1" id="Capa_1" xmlns="http://www.w3.org/2000/svg" xmlns:xlink="http://www.w3.org/1999/xlink" x="0px" y="0px"
	 viewBox="0 0 512 512" style="enable-background:new 0 0 512 512;" xml:space="preserve">
<style type="text/css">
	.st0{display:none;}
	.st1{display:inline;}
	.st2{fill:#1DD882;}
	.st3{opacity:0.33;}
	.st4{fill:#FFFFFF;}
	.st5{fill:#E9EDF5;}
	.st6{fill:#555A66;}
	.st7{fill:#333940;}
	.st8{fill:#FF6C52;}
	.st9{fill:#FF432E;}
	.st10{fill:#DB0404;}
	.st11{fill:#FFCE00;}
	.st12{fill:#FDBA12;}
</style>
<g>
	<g class="st0">
		<g class="st1">
			<g>
				<g>
					<g>
						<g>
							<path class="st2" d="M9.1,324.1c-6-21.7-9.1-44.5-9.1-68.1c0-141.4,114.6-256,256-256s256,114.6,256,256
								c0,23.6-3.2,46.4-9.1,68.1H9.1z"/>
						</g>
					</g>
				</g>
			</g>
		</g>
	</g>
	<path class="st3" d="M502.9,324.1c3.7-13.4,6.3-27.3,7.8-41.5L279.3,51.3l-16.3,122L502.9,324.1z"/>
	<g>
		<path class="st4" d="M432.6,441.3c33.1-31.6,57.8-71.8,70.2-117.1C473,215.8,373.8,136.2,256,136.2S39,215.8,9.1,324.1
			c12.5,45.4,37.1,85.6,70.2,117.1H432.6z"/>
	</g>
	<g>
		<path class="st5" d="M432.6,441.3c33.1-31.6,57.8-71.8,70.2-117.1C473,215.8,373.8,136.2,256,136.2c0,0,0,0-0.1,0v346.2
			L432.6,441.3z"/>
	</g>
	<g>
		<path class="st6" d="M256,511.9c68.5,0,130.7-26.9,176.6-70.7c4.2-13.8,6.5-28.4,6.5-43.6c0-81.5-66.1-147.6-147.6-147.6h-71
			c-81.5,0-147.6,66.1-147.6,147.6c0,15.2,2.3,29.8,6.5,43.6C125.3,485.1,187.5,511.9,256,511.9L256,511.9z"/>
	</g>
	<g>
		<path class="st7" d="M291.5,250.1h-35.6v261.9c0,0,0,0,0.1,0c68.5,0,130.7-26.9,176.6-70.7c4.2-13.8,6.5-28.4,6.5-43.6
			C439.2,316.2,373.1,250.1,291.5,250.1L291.5,250.1z"/>
	</g>
	<g>
		<path class="st8" d="M256,78.8c-45.9,0-83.1,37.2-83.1,83.1v254.2c25.5,11.1,53.6,17.2,83.1,17.2s57.6-6.1,83.1-17.2V161.9
			C339.1,116,301.9,78.8,256,78.8z"/>
	</g>
	<g>
		<path class="st9" d="M256,78.8C256,78.8,256,78.8,256,78.8l-0.1,354.5c0,0,0,0,0.1,0c29.5,0,57.6-6.1,83.1-17.2V161.9
			C339.1,116,301.9,78.8,256,78.8z"/>
	</g>
	<g>
		<g>
			<ellipse class="st7" cx="310.3" cy="169.7" rx="17.3" ry="17.3"/>
		</g>
		<g>
			<ellipse class="st6" cx="201.7" cy="169.6" rx="17.3" ry="17.3"/>
		</g>
	</g>
	<g>
		<g>
			<path class="st10" d="M277.5,304.5c-8.9,0-16.1-7.2-16.1-16.1v-82.6h17.7l14.3,79.7C295.2,295.4,287.6,304.5,277.5,304.5
				L277.5,304.5z"/>
		</g>
		<g>
			<path class="st9" d="M234.5,304.5c8.9,0,16.1-7.2,16.1-16.1v-82.6h-17.7l-14.3,79.7C216.8,295.4,224.4,304.5,234.5,304.5z"/>
		</g>
	</g>
	<g>
		<path class="st11" d="M282.7,208.4l-26.8,44.6l-26.6-44.6v-54.7c0-14.7,12-26.7,26.7-26.7c14.7,0,26.7,12,26.7,26.7V208.4z"/>
	</g>
	<g>
		<path class="st12" d="M256,127.1C256,127.1,256,127.1,256,127.1l-0.1,126l26.8-44.6v-54.7C282.7,139,270.7,127.1,256,127.1
			L256,127.1z"/>
	</g>
	<g>
		<path class="st9" d="M275.1,113.4h-38.2l-10-34c-5.7-19.5,8.9-39,29.1-39c20.3,0,34.9,19.5,29.1,39L275.1,113.4z"/>
	</g>
	<g>
		<path class="st10" d="M256,40.4C256,40.4,256,40.4,256,40.4l-0.1,73h19.2l10-34C290.9,59.9,276.3,40.4,256,40.4L256,40.4z"/>
	</g>
</g>
</svg>
