<?xml version="1.0" encoding="utf-8"?>
<!-- Generator: Adobe Illustrator 24.3.0, SVG Export Plug-In . SVG Version: 6.00 Build 0)  -->
<svg version="1.1" id="Capa_1" xmlns="http://www.w3.org/2000/svg" xmlns:xlink="http://www.w3.org/1999/xlink" x="0px" y="0px"
	 viewBox="0 0 512 512" style="enable-background:new 0 0 512 512;" xml:space="preserve">
<style type="text/css">
	.st0{display:none;}
	.st1{display:inline;}
	.st2{fill:#1DD882;}
	.st3{opacity:0.33;}
	.st4{fill:#FDBA12;}
	.st5{fill:#784132;}
	.st6{fill:#915041;}
	.st7{fill:#FFCE00;}
	.st8{fill:#A65D4E;}
	.st9{fill:#B46E5A;}
	.st10{fill:#C38778;}
	.st11{fill:#555A66;}
	.st12{fill:#333940;}
	.st13{fill:#FF6C52;}
	.st14{fill:#FF432E;}
</style>
<g>
	<g class="st0">
		<g class="st1">
			<g>
				<g>
					<g>
						<g>
							<path class="st2" d="M150.8,489.4C61.9,449.3,0,359.9,0,256C0,114.6,114.6,0,256,0s256,114.6,256,256
								c0,103.9-61.9,193.4-150.9,233.5L150.8,489.4z"/>
						</g>
					</g>
				</g>
			</g>
		</g>
	</g>
	<path class="st3" d="M361.2,489.4C450.1,449.3,512,359.9,512,256c0-40.3-9.3-78.4-25.9-112.2L419.4,77l-20.5,46.8l-31.3-31.3
		l-15.2,50.1l-37.9-37.9l-13.3,76.2l-76.2-76.2l-3.8,34.3l-46.5-46.5l-4.4,29L125.8,77l-25.4,149.6l87.8,87.8L158.8,348l128.1,128.1
		L361.2,489.4z"/>
	<g>
		<path class="st4" d="M324.6,212.9l50.5-15.1c26.3-7.9,44.3-32,44.3-59.4V77h-33.2v42.5c0,5.1-4.2,9.3-9.3,9.3
			c-5.1,0-9.3-4.2-9.3-9.3V92.4h-30.3v28.8c0,6.3-5.1,11.4-11.4,11.4s-11.4-5.1-11.4-11.4v-16.6h-27.5v90.6L324.6,212.9z"/>
	</g>
	<g>
		
			<ellipse transform="matrix(0.9397 -0.3419 0.3419 0.9397 -48.0099 142.8389)" class="st5" cx="381.2" cy="207.6" rx="49" ry="33.2"/>
	</g>
	<g>
		<path class="st6" d="M402.3,199.9c-0.3,9.6-6.4,18.6-16,22.1c-9.6,3.5-20,0.6-26.4-6.6c0.3-9.6,6.4-18.6,16-22.1
			C385.5,189.7,395.8,192.7,402.3,199.9z"/>
	</g>
	<g>
		<path class="st7" d="M187.4,212.9l-50.5-15.1c-26.3-7.9-44.3-32-44.3-59.4V77h33.2v42.5c0,5.1,4.2,9.3,9.3,9.3s9.3-4.2,9.3-9.3
			V92.4h30.3v28.8c0,6.3,5.1,11.4,11.4,11.4s11.4-5.1,11.4-11.4v-16.6h27.5v90.6L187.4,212.9z"/>
	</g>
	<g>
		
			<ellipse transform="matrix(0.3419 -0.9397 0.9397 0.3419 -108.836 259.7003)" class="st8" cx="131" cy="207.6" rx="33.2" ry="49"/>
	</g>
	<g>
		<path class="st9" d="M109.7,199.9c0.3,9.6,6.4,18.6,16,22.1c9.6,3.5,20,0.6,26.4-6.6c-0.3-9.6-6.4-18.6-16-22.1
			C126.6,189.7,116.2,192.7,109.7,199.9z"/>
	</g>
	<g>
		<path class="st8" d="M321.7,503.5c13.7-3.6,26.9-8.3,39.6-14.1l-22.7-151.7h-165l-22.7,151.7c12.7,5.7,25.9,10.4,39.6,14.1H321.7z
			"/>
	</g>
	<g>
		<path class="st5" d="M321.7,503.5c13.7-3.6,26.9-8.3,39.6-14.1l-22.7-151.7H256v167L321.7,503.5z"/>
	</g>
	<g>
		<path class="st9" d="M256,398c-36.3,0-65.7,29.4-65.7,65.7v39.8c21,5.5,43,8.5,65.7,8.5s44.7-3,65.7-8.5v-39.8
			C321.7,427.5,292.3,398,256,398L256,398z"/>
	</g>
	<g>
		<path class="st6" d="M256,398v114c22.7,0,44.7-3,65.7-8.5v-39.8C321.7,427.5,292.3,398,256,398z"/>
	</g>
	<g>
		<path class="st10" d="M374.8,290.6c0,64.3-53.2,87.9-118.8,87.9c-65.6,0-118.8-23.6-118.8-87.9S190.4,152.3,256,152.3
			C321.6,152.3,374.8,226.3,374.8,290.6L374.8,290.6z"/>
	</g>
	<g>
		<path class="st9" d="M256,152.3v226.2h0c65.6,0,118.8-23.6,118.8-87.9S321.6,152.3,256,152.3L256,152.3z"/>
	</g>
	<g>
		<g>
			<circle class="st11" cx="204.3" cy="224.5" r="13.5"/>
		</g>
		<g>
			<circle class="st12" cx="307.7" cy="224.5" r="13.5"/>
		</g>
	</g>
	<g>
		<path class="st11" d="M241,269.9h30V339h-30V269.9z"/>
	</g>
	<g>
		<path class="st12" d="M256,269.9h15V339h-15V269.9z"/>
	</g>
	<g>
		<ellipse class="st13" cx="256" cy="260.5" rx="34.4" ry="28.3"/>
	</g>
	<g>
		<path class="st14" d="M256,232.2v56.7c19,0,34.4-12.7,34.4-28.3S275,232.2,256,232.2L256,232.2z"/>
	</g>
</g>
</svg>
