<?xml version="1.0" encoding="utf-8"?>
<!-- Generator: Adobe Illustrator 24.3.0, SVG Export Plug-In . SVG Version: 6.00 Build 0)  -->
<svg version="1.1" id="Capa_1" xmlns="http://www.w3.org/2000/svg" xmlns:xlink="http://www.w3.org/1999/xlink" x="0px" y="0px"
	 viewBox="0 0 512 512" style="enable-background:new 0 0 512 512;" xml:space="preserve">
<style type="text/css">
	.st0{display:none;}
	.st1{display:inline;}
	.st2{fill:#A3D4FF;}
	.st3{opacity:0.33;}
	.st4{fill:#CDD2E1;}
	.st5{fill:#555A66;}
	.st6{fill:#333940;}
	.st7{fill:#636978;}
	.st8{fill:#E9EDF5;}
	.st9{fill:#7E8596;}
	.st10{fill:#F2F6FC;}
	.st11{fill:#DCE1EB;}
	.st12{fill:#AFB4C8;}
</style>
<g>
	<g class="st0">
		<g class="st1">
			<g>
				<g>
					<g>
						<g>
							<path class="st2" d="M129.5,478.6C52.1,434.5,0,351.4,0,256C0,114.6,114.6,0,256,0s256,114.6,256,256
								c0,95.4-52.1,178.5-129.5,222.6L129.5,478.6z"/>
						</g>
					</g>
				</g>
			</g>
		</g>
	</g>
	<path class="st3" d="M382.5,478.6C459.9,434.5,512,351.4,512,256c0-19.3-2.1-38.1-6.2-56.1L351,45.1l26.5,76.2l-60.2,80.2L161,45.1
		L112.4,158l32.9,32.9L91.9,227l235.6,235.6L382.5,478.6z"/>
	<g>
		<path class="st4" d="M351,172.2l40-10.4c19.6-5.1,27.7-28.5,15.4-44.6L351,45.1l3.2,73.6L249,145.9L351,172.2z"/>
	</g>
	<g>
		<path class="st5" d="M129.5,478.6C166.8,499.9,210,512,256,512s89.2-12.1,126.5-33.4l-19-180.7h-215L129.5,478.6z"/>
	</g>
	<g>
		<path class="st6" d="M363.5,297.9H256V512c46,0,89.2-12.1,126.5-33.4L363.5,297.9z"/>
	</g>
	<g>
		
			<ellipse transform="matrix(0.8271 -0.5621 0.5621 0.8271 -45.9055 258.0429)" class="st7" cx="396.5" cy="203.6" rx="48.4" ry="32.8"/>
	</g>
	<g>
		<path class="st8" d="M161,172.2l-40-10.4c-19.6-5.1-27.7-28.5-15.4-44.6L161,45.1l-3.2,73.6L263,145.9L161,172.2z"/>
	</g>
	<g>
		
			<ellipse transform="matrix(0.5621 -0.8271 0.8271 0.5621 -118.1231 184.7862)" class="st9" cx="115.4" cy="203.9" rx="32.8" ry="48.4"/>
	</g>
	<g>
		<path class="st10" d="M121.9,240c0-86.9,60-118.9,134.1-118.9s134.1,32,134.1,118.9s-60,187.1-134.1,187.1S121.9,326.9,121.9,240
			L121.9,240z"/>
	</g>
	<g>
		<path class="st11" d="M256,121.1v305.9c74.1,0,134.1-100.2,134.1-187.1C390.1,153.1,330.1,121.1,256,121.1L256,121.1z"/>
	</g>
	<g>
		<g>
			<circle class="st5" cx="181.4" cy="274.1" r="17.3"/>
		</g>
		<g>
			<circle class="st6" cx="330.6" cy="274.1" r="17.3"/>
		</g>
	</g>
	<g>
		<path class="st12" d="M302.8,444.2h-86.2c-29,0-52.5-23.5-52.5-52.5c0-29,23.5-52.5,52.5-52.5h86.2c29,0,52.5,23.5,52.5,52.5
			S331.8,444.2,302.8,444.2z"/>
	</g>
	<g>
		<path class="st9" d="M302.8,339.3H256v104.9h46.8c29,0,52.5-23.5,52.5-52.5S331.8,339.3,302.8,339.3z"/>
	</g>
	<g>
		<g>
			<ellipse class="st5" cx="218.2" cy="391.8" rx="19.9" ry="19.9"/>
		</g>
		<g>
			<ellipse class="st6" cx="301.1" cy="392" rx="19.9" ry="19.9"/>
		</g>
	</g>
	<g>
		<path class="st12" d="M121.9,240c0,21.3,3.6,43.4,10.2,64.7c10.2-19.8,19.8-50.1,32.1-81c23.7-59.6,55.5-29.4,91.9-51.5
			c25.9-15.8,11.4-39,0.9-51c-0.3,0-0.6,0-0.9,0C181.9,121.1,121.9,153.1,121.9,240L121.9,240z"/>
	</g>
	<g>
		<path class="st9" d="M256.9,121.2c-0.3,0-0.6,0-0.9,0v51C281.9,156.4,267.4,133.2,256.9,121.2z"/>
	</g>
</g>
</svg>
