<svg id="Capa_1" enable-background="new 0 0 512 512" height="512" viewBox="0 0 512 512" width="512" xmlns="http://www.w3.org/2000/svg"><g><g><g><g><g><g><g><path d="m129.457 478.589c-77.321-44.053-129.457-127.232-129.457-222.589 0-141.385 114.615-256 256-256s256 114.615 256 256c0 95.356-52.136 178.536-129.457 222.588z" fill="#a3d4ff"/></g></g></g></g></g></g><path d="m382.543 478.588c77.321-44.052 129.457-127.232 129.457-222.588 0-19.278-2.131-38.059-6.17-56.119l-154.783-154.783 26.529 76.188-60.248 80.186-156.375-156.374-48.58 112.887 32.877 32.877-53.35 36.089 235.633 235.633z" fill="#65b1fc"/><g><path d="m351 172.182 39.996-10.354c19.605-5.075 27.677-28.508 15.357-44.58l-55.307-72.15 3.215 73.58-105.257 27.248z" fill="#cdd2e1"/></g><g><path d="m129.458 478.588c37.323 21.264 80.514 33.412 126.542 33.412s89.22-12.147 126.543-33.412l-19.04-180.686h-215.005z" fill="#555a66"/></g><g><path d="m363.502 297.902h-107.502v214.098c46.028 0 89.219-12.147 126.542-33.412z" fill="#333940"/></g><g><ellipse cx="396.531" cy="203.832" fill="#636978" rx="48.438" ry="32.773" transform="matrix(.827 -.562 .562 .827 -46.029 257.915)"/></g><g><path d="m160.999 172.182-39.996-10.354c-19.605-5.075-27.677-28.508-15.357-44.58l55.307-72.15-3.215 73.58 105.257 27.248z" fill="#e9edf5"/></g><g><ellipse cx="115.469" cy="203.832" fill="#7e8596" rx="32.773" ry="48.438" transform="matrix(.562 -.827 .827 .562 -118.029 184.877)"/></g><g><path d="m121.918 240.029c0-86.897 60.031-118.88 134.083-118.88s134.083 31.983 134.083 118.88-60.031 187.061-134.083 187.061-134.083-100.165-134.083-187.061z" fill="#f2f6fc"/></g><g><path d="m256 121.149v305.94c74.052 0 134.083-100.164 134.083-187.061 0-86.896-60.031-118.879-134.083-118.879z" fill="#dce1eb"/></g><g><g><circle cx="181.394" cy="274.119" fill="#555a66" r="17.267"/></g><g><circle cx="330.606" cy="274.119" fill="#333940" r="17.267"/></g></g><g><path d="m302.806 444.231h-86.227c-28.969 0-52.452-23.484-52.452-52.452 0-28.969 23.484-52.452 52.452-52.452h86.227c28.969 0 52.452 23.484 52.452 52.452 0 28.968-23.484 52.452-52.452 52.452z" fill="#afb4c8"/></g><g><path d="m302.806 339.326h-46.806v104.905h46.806c28.969 0 52.452-23.483 52.452-52.452 0-28.969-23.484-52.453-52.452-52.453z" fill="#7e8596"/></g><g><g><ellipse cx="218.271" cy="391.779" fill="#555a66" rx="19.904" ry="19.904" transform="matrix(.707 -.707 .707 .707 -213.099 269.091)"/></g><g><ellipse cx="301.113" cy="391.779" fill="#333940" rx="19.904" ry="19.904" transform="matrix(.23 -.973 .973 .23 -149.367 594.825)"/></g></g><g><path d="m121.918 240.029c0 21.312 3.611 43.423 10.155 64.658 10.152-19.778 19.777-50.123 32.055-80.983 23.707-59.587 55.46-29.354 91.873-51.521 25.928-15.784 11.385-38.982.86-51.032-.286-.001-.573-.001-.86-.001-74.053-.001-134.083 31.982-134.083 118.879z" fill="#afb4c8"/></g><g><path d="m256.86 121.15c-.286-.001-.573-.001-.86-.001v51.033c25.928-15.784 11.385-38.981.86-51.032z" fill="#7e8596"/></g></g></svg>