<svg id="Capa_1" enable-background="new 0 0 512 512" height="512" viewBox="0 0 512 512" width="512" xmlns="http://www.w3.org/2000/svg"><g><g><g><g><g><g><g><path d="m84.579 446.137c-51.935-46.853-84.579-114.683-84.579-190.137 0-141.385 114.615-256 256-256s256 114.615 256 256c0 75.454-32.644 143.284-84.579 190.137z" fill="#c38778"/></g></g></g></g></g></g><path d="m427.421 446.136c51.935-46.853 84.579-114.682 84.579-190.136 0-16.397-1.542-32.435-4.488-47.975l-89.101-89.249-2.38-2.233-339.031 216.459 141.902 141.903z" fill="#a65d4e"/><g><path d="m84.579 446.136c45.381 40.94 105.49 65.864 171.421 65.864s126.04-24.924 171.421-65.864l-23.754-152.565h-295.334z" fill="#bec3d2"/></g><g><path d="m403.667 293.571h-147.667v218.429c65.931 0 126.04-24.924 171.421-65.864z" fill="#9196aa"/></g><g><path d="m229.62 333.002h-152.62v-174.285c0-31.135 25.24-56.375 56.375-56.375h96.244v230.66z" fill="#e9edf5"/></g><g><path d="m282.38 333.002h152.62v-174.285c0-31.135-25.24-56.375-56.376-56.375h-96.244z" fill="#cdd2e1"/></g><g><g><path d="m324.588 228.749s-2.606 86.009 78.926 127.553c0 0-86.744 17.098-118.689-85.884z" fill="#e9edf5"/></g><g><path d="m187.412 228.749s2.606 86.009-78.926 127.553c0 0 86.745 17.098 118.689-85.884z" fill="#fff"/></g></g><g><path d="m368.489 142.505c0-35.136-28.484-63.62-63.62-63.62-7.715 0-15.109 1.373-21.952 3.889-17.328 6.371-36.505 6.37-53.834 0-6.842-2.516-14.237-3.889-21.952-3.889-35.136 0-63.62 28.484-63.62 63.62v71.695c0 15.98 9.408 30.463 24.009 36.958l11.727 5.217c19.708 8.768 33.696 26.847 37.235 48.125l14.333 140.574h50.37l14.333-140.574c3.539-21.278 17.527-39.357 37.235-48.125l11.727-5.217c14.601-6.495 24.009-20.978 24.009-36.958z" fill="#cdd2e1"/></g><g><path d="m304.869 78.885c-7.715 0-15.109 1.374-21.952 3.889-8.664 3.185-17.791 4.778-26.917 4.778v357.522h25.185l14.333-140.574c3.539-21.278 17.526-39.357 37.235-48.125l11.727-5.217c14.601-6.495 24.009-20.978 24.009-36.958v-71.695c0-35.136-28.484-63.62-63.62-63.62z" fill="#afb4c8"/></g><g><g><circle cx="196.785" cy="168.803" fill="#555a66" r="14.767"/></g><g><circle cx="315.215" cy="168.803" fill="#333940" r="14.767"/></g></g><g><path d="m211.98 208.55h88.039v30.021h-88.039z" fill="#bec3d2"/></g><g><path d="m256 208.55h44.019v30.021h-44.019z" fill="#9196aa"/></g><g><path d="m233.275 263.55h45.45v30.021h-45.45z" fill="#bec3d2"/></g><g><path d="m256 263.55h22.725v30.021h-22.725z" fill="#9196aa"/></g><g><path d="m233.275 318.55h45.45v30.021h-45.45z" fill="#bec3d2"/></g><g><path d="m256 318.55h22.725v30.021h-22.725z" fill="#9196aa"/></g></g></svg>