<?xml version="1.0" encoding="utf-8"?>
<!-- Generator: Adobe Illustrator 24.3.0, SVG Export Plug-In . SVG Version: 6.00 Build 0)  -->
<svg version="1.1" id="Capa_1" xmlns="http://www.w3.org/2000/svg" xmlns:xlink="http://www.w3.org/1999/xlink" x="0px" y="0px"
	 viewBox="0 0 512 512" style="enable-background:new 0 0 512 512;" xml:space="preserve">
<style type="text/css">
	.st0{display:none;}
	.st1{display:inline;}
	.st2{fill:#C38778;}
	.st3{opacity:0.33;}
	.st4{fill:#BEC3D2;}
	.st5{fill:#9196AA;}
	.st6{fill:#E9EDF5;}
	.st7{fill:#CDD2E1;}
	.st8{fill:#FFFFFF;}
	.st9{fill:#AFB4C8;}
	.st10{fill:#555A66;}
	.st11{fill:#333940;}
</style>
<g>
	<g class="st0">
		<g class="st1">
			<g>
				<g>
					<g>
						<g>
							<path class="st2" d="M84.6,446.1C32.6,399.3,0,331.5,0,256C0,114.6,114.6,0,256,0s256,114.6,256,256
								c0,75.5-32.6,143.3-84.6,190.1H84.6z"/>
						</g>
					</g>
				</g>
			</g>
		</g>
	</g>
	<path class="st3" d="M427.4,446.1C479.4,399.3,512,331.5,512,256c0-16.4-1.5-32.4-4.5-48l-89.1-89.2l-2.4-2.2L77,333l141.9,141.9
		L427.4,446.1z"/>
	<g>
		<path class="st4" d="M84.6,446.1C130,487.1,190.1,512,256,512s126-24.9,171.4-65.9l-23.8-152.6H108.3L84.6,446.1z"/>
	</g>
	<g>
		<path class="st5" d="M403.7,293.6H256V512c65.9,0,126-24.9,171.4-65.9L403.7,293.6z"/>
	</g>
	<g>
		<path class="st6" d="M229.6,333H77V158.7c0-31.1,25.2-56.4,56.4-56.4h96.2L229.6,333L229.6,333z"/>
	</g>
	<g>
		<path class="st7" d="M282.4,333H435V158.7c0-31.1-25.2-56.4-56.4-56.4h-96.2V333z"/>
	</g>
	<g>
		<g>
			<path class="st6" d="M324.6,228.7c0,0-2.6,86,78.9,127.6c0,0-86.7,17.1-118.7-85.9L324.6,228.7z"/>
		</g>
		<g>
			<path class="st8" d="M187.4,228.7c0,0,2.6,86-78.9,127.6c0,0,86.7,17.1,118.7-85.9L187.4,228.7z"/>
		</g>
	</g>
	<g>
		<path class="st7" d="M368.5,142.5c0-35.1-28.5-63.6-63.6-63.6c-7.7,0-15.1,1.4-22,3.9c-17.3,6.4-36.5,6.4-53.8,0
			c-6.8-2.5-14.2-3.9-22-3.9c-35.1,0-63.6,28.5-63.6,63.6v71.7c0,16,9.4,30.5,24,37l11.7,5.2c19.7,8.8,33.7,26.8,37.2,48.1
			l14.3,140.6h50.4l14.3-140.6c3.5-21.3,17.5-39.4,37.2-48.1l11.7-5.2c14.6-6.5,24-21,24-37L368.5,142.5z"/>
	</g>
	<g>
		<path class="st9" d="M304.9,78.9c-7.7,0-15.1,1.4-22,3.9c-8.7,3.2-17.8,4.8-26.9,4.8v357.5h25.2l14.3-140.6
			c3.5-21.3,17.5-39.4,37.2-48.1l11.7-5.2c14.6-6.5,24-21,24-37v-71.7C368.5,107.4,340,78.9,304.9,78.9z"/>
	</g>
	<g>
		<g>
			<circle class="st10" cx="196.8" cy="168.8" r="14.8"/>
		</g>
		<g>
			<circle class="st11" cx="315.2" cy="168.8" r="14.8"/>
		</g>
	</g>
	<g>
		<path class="st4" d="M212,208.6h88v30h-88L212,208.6z"/>
	</g>
	<g>
		<path class="st5" d="M256,208.6h44v30h-44V208.6z"/>
	</g>
	<g>
		<path class="st4" d="M233.3,263.5h45.5v30h-45.4L233.3,263.5z"/>
	</g>
	<g>
		<path class="st5" d="M256,263.5h22.7v30H256V263.5z"/>
	</g>
	<g>
		<path class="st4" d="M233.3,318.5h45.5v30h-45.4L233.3,318.5z"/>
	</g>
	<g>
		<path class="st5" d="M256,318.5h22.7v30H256V318.5z"/>
	</g>
</g>
</svg>
