<?xml version="1.0" encoding="utf-8"?>
<!-- Generator: Adobe Illustrator 24.3.0, SVG Export Plug-In . SVG Version: 6.00 Build 0)  -->
<svg version="1.1" id="Capa_1" xmlns="http://www.w3.org/2000/svg" xmlns:xlink="http://www.w3.org/1999/xlink" x="0px" y="0px"
	 viewBox="0 0 512 512" style="enable-background:new 0 0 512 512;" xml:space="preserve">
<style type="text/css">
	.st0{display:none;}
	.st1{display:inline;}
	.st2{fill:#C38778;}
	.st3{opacity:0.33;}
	.st4{fill:#FFCE00;}
	.st5{fill:#FDBA12;}
	.st6{fill:#333940;}
	.st7{fill:#555A66;}
	.st8{fill:#FFAA00;}
	.st9{fill:#FF9500;}
	.st10{fill:#FFFFFF;}
	.st11{fill:#E9EDF5;}
</style>
<g>
	<g class="st0">
		<g class="st1">
			<g>
				<g>
					<g>
						<g>
							<path class="st2" d="M83.4,445C32.1,398.2,0,330.9,0,256C0,114.6,114.6,0,256,0s256,114.6,256,256
								c0,74.9-32.1,142.2-83.4,189L83.4,445z"/>
						</g>
					</g>
				</g>
			</g>
		</g>
	</g>
	<path class="st3" d="M428.6,445c46.6-42.6,77.4-102.1,82.6-168.8L335.8,100.8l39,357L428.6,445z"/>
	<g>
		<path class="st4" d="M368.2,166.4c-6.5-56.3-55.6-97.9-112.2-97.9s-105.8,41.7-112.2,97.9c-6.7,57.9-21.9,232.1-21.9,232.1h268.2
			C390.1,398.5,374.9,224.3,368.2,166.4z"/>
	</g>
	<g>
		<path class="st5" d="M368.2,166.4c-6.5-56.3-55.6-97.9-112.2-97.9v330h134.1C390.1,398.5,374.9,224.3,368.2,166.4L368.2,166.4z"/>
	</g>
	<g>
		<g>
			<circle class="st6" cx="310.3" cy="168.8" r="17.3"/>
		</g>
		<g>
			<circle class="st7" cx="201.7" cy="168.8" r="17.3"/>
		</g>
	</g>
	<g>
		<path class="st8" d="M282.7,191.9L256,236.6l-26.7-44.7v-4.7c0-14.7,12-26.7,26.7-26.7c14.7,0,26.7,12,26.7,26.7V191.9z"/>
	</g>
	<g>
		<path class="st9" d="M256,160.6v76l26.7-44.7v-4.7C282.7,172.5,270.7,160.6,256,160.6z"/>
	</g>
	<g>
		<path class="st10" d="M256,512c66.5,0,127.1-25.4,172.6-67c9.4-22.3,14.5-46.8,14.5-72.5V333l-62.4,40.1L318.4,333L256,373.1
			L193.6,333l-62.4,40.1L68.8,333v39.6c0,25.7,5.2,50.2,14.5,72.5C128.9,486.6,189.5,512,256,512L256,512z"/>
	</g>
	<g>
		<path class="st11" d="M380.8,373.1L318.4,333L256,373.1V512c66.5,0,127.1-25.4,172.6-67c9.4-22.3,14.5-46.8,14.5-72.5V333
			L380.8,373.1z"/>
	</g>
</g>
</svg>
