<svg id="Capa_1" enable-background="new 0 0 512 512" height="512" viewBox="0 0 512 512" width="512" xmlns="http://www.w3.org/2000/svg"><g><g><g><g><g><g><g><path d="m83.375 445.044c-51.235-46.812-83.375-114.175-83.375-189.044 0-141.385 114.615-256 256-256s256 114.615 256 256c0 74.869-32.14 142.232-83.375 189.043z" fill="#c38778"/></g></g></g></g></g></g><path d="m428.626 445.042c46.577-42.557 77.373-102.098 82.587-168.822l-175.407-175.407 39.031 357.022z" fill="#a65d4e"/><g><path d="m368.247 166.39c-6.497-56.259-55.614-97.93-112.247-97.93-56.633 0-105.75 41.671-112.247 97.93-6.686 57.896-21.86 232.097-21.86 232.097h268.214c0-.001-15.175-174.201-21.86-232.097z" fill="#ffce00"/></g><g><path d="m368.247 166.39c-6.497-56.26-55.614-97.931-112.247-97.931v330.027h134.107s-15.175-174.2-21.86-232.096z" fill="#fdba12"/></g><g><g><circle cx="310.298" cy="168.803" fill="#333940" r="17.267"/></g><g><circle cx="201.701" cy="168.803" fill="#555a66" r="17.267"/></g></g><g><path d="m282.704 191.915-26.704 44.652-26.704-44.652v-4.66c0-14.748 11.956-26.704 26.704-26.704 14.748 0 26.704 11.956 26.704 26.704z" fill="#fa0"/></g><g><path d="m256 160.55v76.017l26.704-44.652v-4.66c0-14.749-11.956-26.705-26.704-26.705z" fill="#ff9500"/></g><g><path d="m256 512c66.516 0 127.106-25.368 172.625-66.956 9.366-22.287 14.542-46.768 14.542-72.458v-39.584l-62.389 40.072-62.389-40.072-62.389 40.072-62.389-40.072-62.389 40.072-62.389-40.072v39.584c0 25.69 5.177 50.171 14.543 72.458 45.518 41.588 106.108 66.956 172.624 66.956z" fill="#fff"/></g><g><path d="m380.778 373.074-62.389-40.072-62.389 40.072v138.926c66.516 0 127.106-25.368 172.625-66.956 9.366-22.287 14.542-46.768 14.542-72.458v-39.584z" fill="#e9edf5"/></g></g></svg>