<svg id="Capa_1" enable-background="new 0 0 512 512" height="512" viewBox="0 0 512 512" width="512" xmlns="http://www.w3.org/2000/svg"><g><g><g><g><g><g><g><path d="m79.377 441.261c-48.887-46.623-79.377-112.32-79.377-185.209 0-141.385 114.615-256 256-256s256 114.615 256 256c0 72.9-30.476 138.584-79.377 185.208z" fill="#ffce00"/></g></g></g></g></g></g><path d="m432.623 441.261c42.489-40.509 71.066-95.378 77.831-156.916l-191.158-191.158-26.191 388.018z" fill="#ffa300"/><g><path d="m256 511.948c68.482 0 130.684-26.89 176.623-70.688 4.247-13.771 6.534-28.402 6.534-43.567 0-81.54-66.101-147.642-147.642-147.642h-71.03c-81.54 0-147.642 66.101-147.642 147.642 0 15.165 2.287 29.796 6.534 43.567 45.939 43.798 108.141 70.688 176.623 70.688z" fill="#c38778"/></g><g><path d="m291.515 250.052h-35.515v261.896c68.482 0 130.684-26.89 176.623-70.688 4.247-13.771 6.534-28.402 6.534-43.567-.001-81.539-66.102-147.641-147.642-147.641z" fill="#a65d4e"/></g><path d="m256 66.652c-49.031 0-88.779 39.748-88.779 88.778v197.39c27.204 11.82 57.226 18.374 88.779 18.374s61.574-6.554 88.779-18.374v-197.39c0-49.03-39.748-88.778-88.779-88.778z" fill="#1dd882"/><path d="m256 66.652v304.542c31.552 0 61.574-6.554 88.779-18.374v-197.39c0-49.03-39.748-88.778-88.779-88.778z" fill="#2cc47f"/><g><path d="m167.221 351.82v75.258c27.204 11.82 57.226 18.374 88.779 18.374s61.574-6.554 88.779-18.374v-75.258c-27.204 11.82-57.226 18.374-88.779 18.374s-61.574-6.554-88.779-18.374z" fill="#fff"/></g><g><path d="m256 370.194v75.258c31.552 0 61.574-6.554 88.779-18.374v-75.258c-27.205 11.82-57.227 18.374-88.779 18.374z" fill="#e9edf5"/></g><g><path d="m287.567 299.212h-63.134c-10.867 0-19.676-8.809-19.676-19.676 0-10.867 8.809-19.676 19.676-19.676h63.134c10.867 0 19.676 8.809 19.676 19.676 0 10.867-8.809 19.676-19.676 19.676z" fill="#ffb600"/></g><g><path d="m287.567 259.86h-31.567v39.353h31.567c10.867 0 19.676-8.81 19.676-19.676 0-10.868-8.809-19.677-19.676-19.677z" fill="#ff9500"/></g><g><path d="m305.73 233.8h-29.165v-.343c0-11.358-9.207-20.565-20.565-20.565s-20.565 9.207-20.565 20.565v.343h-29.165c-13.222 0-23.941 10.719-23.941 23.941 0 13.223 10.719 23.941 23.941 23.941h99.46c13.222 0 23.941-10.719 23.941-23.941 0-13.222-10.719-23.941-23.941-23.941z" fill="#ffce00"/></g><g><path d="m305.73 233.8h-29.165v-.343c0-11.357-9.207-20.565-20.565-20.565v68.791h49.73c13.222 0 23.941-10.719 23.941-23.941 0-13.223-10.719-23.942-23.941-23.942z" fill="#fdba12"/></g><g><g><ellipse cx="310.299" cy="169.59" fill="#333940" rx="17.267" ry="17.267" transform="matrix(.23 -.973 .973 .23 73.954 432.624)"/></g><g><ellipse cx="201.701" cy="169.59" fill="#555a66" rx="17.267" ry="17.267" transform="matrix(.707 -.707 .707 .707 -60.841 192.296)"/></g></g></g></svg>