<?xml version="1.0" encoding="utf-8"?>
<!-- Generator: Adobe Illustrator 24.3.0, SVG Export Plug-In . SVG Version: 6.00 Build 0)  -->
<svg version="1.1" id="Capa_1" xmlns="http://www.w3.org/2000/svg" xmlns:xlink="http://www.w3.org/1999/xlink" x="0px" y="0px"
	 viewBox="0 0 512 512" style="enable-background:new 0 0 512 512;" xml:space="preserve">
<style type="text/css">
	.st0{display:none;}
	.st1{display:inline;}
	.st2{fill:#FFCE00;}
	.st3{opacity:0.33;}
	.st4{fill:#C38778;}
	.st5{fill:#A65D4E;}
	.st6{fill:#1DD882;}
	.st7{fill:#2CC47F;}
	.st8{fill:#FFFFFF;}
	.st9{fill:#E9EDF5;}
	.st10{fill:#FFB600;}
	.st11{fill:#FF9500;}
	.st12{fill:#FDBA12;}
	.st13{fill:#333940;}
	.st14{fill:#555A66;}
</style>
<g>
	<g class="st0">
		<g class="st1">
			<g>
				<g>
					<g>
						<g>
							<path class="st2" d="M79.4,441.3C30.5,394.6,0,328.9,0,256.1c0-141.4,114.6-256,256-256s256,114.6,256,256
								c0,72.9-30.5,138.6-79.4,185.2L79.4,441.3z"/>
						</g>
					</g>
				</g>
			</g>
		</g>
	</g>
	<path class="st3" d="M432.6,441.3c42.5-40.5,71.1-95.4,77.8-156.9L319.3,93.2l-26.2,388L432.6,441.3z"/>
	<g>
		<path class="st4" d="M256,511.9c68.5,0,130.7-26.9,176.6-70.7c4.2-13.8,6.5-28.4,6.5-43.6c0-81.5-66.1-147.6-147.6-147.6h-71
			c-81.5,0-147.6,66.1-147.6,147.6c0,15.2,2.3,29.8,6.5,43.6C125.3,485.1,187.5,511.9,256,511.9L256,511.9z"/>
	</g>
	<g>
		<path class="st5" d="M291.5,250.1H256v261.9c68.5,0,130.7-26.9,176.6-70.7c4.2-13.8,6.5-28.4,6.5-43.6
			C439.2,316.2,373.1,250.1,291.5,250.1L291.5,250.1z"/>
	</g>
	<path class="st6" d="M256,66.7c-49,0-88.8,39.7-88.8,88.8v197.4c27.2,11.8,57.2,18.4,88.8,18.4s61.6-6.6,88.8-18.4V155.4
		C344.8,106.4,305,66.7,256,66.7z"/>
	<path class="st7" d="M256,66.7v304.5c31.6,0,61.6-6.6,88.8-18.4V155.4C344.8,106.4,305,66.7,256,66.7z"/>
	<g>
		<path class="st8" d="M167.2,351.8v75.3c27.2,11.8,57.2,18.4,88.8,18.4s61.6-6.6,88.8-18.4v-75.3c-27.2,11.8-57.2,18.4-88.8,18.4
			S194.4,363.6,167.2,351.8L167.2,351.8z"/>
	</g>
	<g>
		<path class="st9" d="M256,370.2v75.3c31.6,0,61.6-6.6,88.8-18.4v-75.3C317.6,363.6,287.6,370.2,256,370.2z"/>
	</g>
	<g>
		<path class="st10" d="M287.6,299.2h-63.1c-10.9,0-19.7-8.8-19.7-19.7s8.8-19.7,19.7-19.7h63.1c10.9,0,19.7,8.8,19.7,19.7
			S298.4,299.2,287.6,299.2z"/>
	</g>
	<g>
		<path class="st11" d="M287.6,259.9H256v39.4h31.6c10.9,0,19.7-8.8,19.7-19.7C307.2,268.7,298.4,259.9,287.6,259.9z"/>
	</g>
	<g>
		<path class="st2" d="M305.7,233.8h-29.2v-0.3c0-11.4-9.2-20.6-20.6-20.6s-20.6,9.2-20.6,20.6v0.3h-29.2
			c-13.2,0-23.9,10.7-23.9,23.9c0,13.2,10.7,23.9,23.9,23.9h99.5c13.2,0,23.9-10.7,23.9-23.9C329.7,244.5,319,233.8,305.7,233.8
			L305.7,233.8z"/>
	</g>
	<g>
		<path class="st12" d="M305.7,233.8h-29.2v-0.3c0-11.4-9.2-20.6-20.6-20.6v68.8h49.7c13.2,0,23.9-10.7,23.9-23.9
			C329.7,244.5,319,233.8,305.7,233.8L305.7,233.8z"/>
	</g>
	<g>
		<g>
			<ellipse class="st13" cx="310.3" cy="169.7" rx="17.3" ry="17.3"/>
		</g>
		<g>
			<ellipse class="st14" cx="201.7" cy="169.6" rx="17.3" ry="17.3"/>
		</g>
	</g>
</g>
</svg>
