<svg id="Capa_1" enable-background="new 0 0 512 512" height="512" viewBox="0 0 512 512" width="512" xmlns="http://www.w3.org/2000/svg"><g><g><g><g><g><g><g><path d="m89.08 450.103c-54.543-46.947-89.08-116.492-89.08-194.103 0-141.385 114.615-256 256-256s256 114.615 256 256c0 77.611-34.537 147.156-89.08 194.103z" fill="#a3d4ff"/></g></g></g></g></g></g><path d="m422.92 450.103c54.543-46.948 89.08-116.492 89.08-194.103 0-30.126-5.204-59.038-14.762-85.884l-72.059-72.059-186.395 78.574-61.056-61.056-73.388 73.389 273.063 273.063z" fill="#65b1fc"/><g><ellipse cx="370.966" cy="152.271" fill="#784132" rx="76.669" ry="51.893" transform="matrix(.707 -.707 .707 .707 .982 306.911)"/></g><g><ellipse cx="370.964" cy="152.272" fill="#61362b" rx="37.952" ry="25.688" transform="matrix(.707 -.707 .707 .707 .982 306.915)"/></g><g><ellipse cx="141.034" cy="152.271" fill="#a65d4e" rx="51.893" ry="76.669" transform="matrix(.707 -.707 .707 .707 -66.364 144.326)"/></g><g><ellipse cx="141.036" cy="152.272" fill="#915041" rx="25.688" ry="37.952" transform="matrix(.707 -.707 .707 .707 -66.364 144.324)"/></g><g><path d="m358.719 490.559c23.446-10.282 45.056-23.977 64.201-40.456l-37.122-207.052h-259.596l-37.122 207.052c19.145 16.479 40.755 30.173 64.201 40.456z" fill="#a65d4e"/></g><g><path d="m358.719 490.559c23.446-10.282 45.056-23.977 64.201-40.456l-37.122-207.052h-129.798v220.593z" fill="#784132"/></g><g><path d="m256 512c36.532 0 71.277-7.652 102.719-21.441-5.657-51.726-49.488-91.975-102.719-91.975s-97.062 40.249-102.719 91.975c31.442 13.789 66.187 21.441 102.719 21.441z" fill="#c38778"/></g><g><path d="m256 398.584v113.416c36.532 0 71.277-7.652 102.719-21.441-5.657-51.726-49.488-91.975-102.719-91.975z" fill="#a65d4e"/></g><g><path d="m405.122 267.19c0 73.826-66.764 100.998-149.122 100.998s-149.122-27.172-149.122-100.998 66.764-158.923 149.122-158.923 149.122 85.097 149.122 158.923z" fill="#c38778"/></g><g><path d="m256 108.267v259.921c82.358 0 149.122-27.172 149.122-100.998s-66.764-158.923-149.122-158.923z" fill="#a65d4e"/></g><g><g><g><ellipse cx="184.71" cy="201.781" fill="#414952" rx="15.555" ry="15.555" transform="matrix(.16 -.987 .987 .16 -44.053 351.785)"/></g></g><g><g><ellipse cx="327.29" cy="201.781" fill="#23272b" rx="15.555" ry="15.555" transform="matrix(.987 -.16 .16 .987 -28.096 55.031)"/></g></g></g><g><path d="m368.359 187.294-8.478 66.396-52.394 7.828 2.849 37.291 58.799-10.849c18.778-3.465 29.73-23.202 22.733-40.969z" fill="#fff"/></g><g><path d="m148.076 187.294 8.478 66.396 52.394 7.828-2.849 37.291-58.799-10.849c-18.778-3.465-29.73-23.202-22.733-40.969z" fill="#fff"/></g><g><path d="m322.286 274.405c0-36.609-29.677-66.286-66.286-66.286s-66.286 29.678-66.286 66.286c0 12.403 3.415 24.004 9.343 33.931h113.886c5.928-9.927 9.343-21.528 9.343-33.931z" fill="#a65d4e"/></g><g><path d="m322.286 274.405c0-36.608-29.677-66.286-66.286-66.286v100.217h56.943c5.928-9.927 9.343-21.528 9.343-33.931z" fill="#784132"/></g><g><g><ellipse cx="230.581" cy="271.046" fill="#414952" rx="17.189" ry="17.189" transform="matrix(.707 -.707 .707 .707 -124.123 242.433)"/></g><g><ellipse cx="281.419" cy="271.046" fill="#23272b" rx="17.189" ry="17.189" transform="matrix(.23 -.973 .973 .23 -47.033 482.663)"/></g></g></g></svg>