<?xml version="1.0" encoding="utf-8"?>
<!-- Generator: Adobe Illustrator 24.3.0, SVG Export Plug-In . SVG Version: 6.00 Build 0)  -->
<svg version="1.1" id="Capa_1" xmlns="http://www.w3.org/2000/svg" xmlns:xlink="http://www.w3.org/1999/xlink" x="0px" y="0px"
	 viewBox="0 0 512 512" style="enable-background:new 0 0 512 512;" xml:space="preserve">
<style type="text/css">
	.st0{display:none;}
	.st1{display:inline;}
	.st2{fill:#A3D4FF;}
	.st3{opacity:0.33;}
	.st4{fill:#784132;}
	.st5{fill:#61362B;}
	.st6{fill:#A65D4E;}
	.st7{fill:#915041;}
	.st8{fill:#C38778;}
	.st9{fill:#414952;}
	.st10{fill:#23272B;}
	.st11{fill:#FFFFFF;}
</style>
<g>
	<g class="st0">
		<g class="st1">
			<g>
				<g>
					<g>
						<g>
							<path class="st2" d="M89.1,450.1C34.5,403.2,0,333.6,0,256C0,114.6,114.6,0,256,0s256,114.6,256,256
								c0,77.6-34.5,147.2-89.1,194.1H89.1z"/>
						</g>
					</g>
				</g>
			</g>
		</g>
	</g>
	<path class="st3" d="M422.9,450.1C477.5,403.2,512,333.6,512,256c0-30.1-5.2-59-14.8-85.9l-72.1-72.1l-186.4,78.6l-61.1-61.1
		L104.3,189L377.4,462L422.9,450.1z"/>
	<g>
		
			<ellipse transform="matrix(0.7071 -0.7071 0.7071 0.7071 0.9493 306.8792)" class="st4" cx="370.9" cy="152.3" rx="76.7" ry="51.9"/>
	</g>
	<g>
		
			<ellipse transform="matrix(0.7071 -0.7071 0.7071 0.7071 0.9448 306.8804)" class="st5" cx="370.9" cy="152.3" rx="37.9" ry="25.7"/>
	</g>
	<g>
		
			<ellipse transform="matrix(0.7071 -0.7071 0.7071 0.7071 -66.3728 144.3029)" class="st6" cx="141" cy="152.3" rx="51.9" ry="76.7"/>
	</g>
	<g>
		
			<ellipse transform="matrix(0.7071 -0.7071 0.7071 0.7071 -66.3703 144.3036)" class="st7" cx="141" cy="152.3" rx="25.7" ry="37.9"/>
	</g>
	<g>
		<path class="st6" d="M358.7,490.6c23.4-10.3,45.1-24,64.2-40.5l-37.1-207.1H126.2L89.1,450.1c19.1,16.5,40.8,30.2,64.2,40.5H358.7
			z"/>
	</g>
	<g>
		<path class="st4" d="M358.7,490.6c23.4-10.3,45.1-24,64.2-40.5l-37.1-207.1H256v220.6L358.7,490.6z"/>
	</g>
	<g>
		<path class="st8" d="M256,512c36.5,0,71.3-7.7,102.7-21.4c-5.7-51.7-49.5-92-102.7-92s-97.1,40.2-102.7,92
			C184.7,504.3,219.5,512,256,512z"/>
	</g>
	<g>
		<path class="st6" d="M256,398.6V512c36.5,0,71.3-7.7,102.7-21.4C353.1,438.8,309.2,398.6,256,398.6L256,398.6z"/>
	</g>
	<g>
		<path class="st8" d="M405.1,267.2c0,73.8-66.8,101-149.1,101s-149.1-27.2-149.1-101S173.6,108.3,256,108.3
			S405.1,193.4,405.1,267.2z"/>
	</g>
	<g>
		<path class="st6" d="M256,108.3v259.9c82.4,0,149.1-27.2,149.1-101S338.4,108.3,256,108.3z"/>
	</g>
	<g>
		<g>
			<g>
				
					<ellipse transform="matrix(0.16 -0.9871 0.9871 0.16 -44.0516 351.7546)" class="st9" cx="184.7" cy="201.8" rx="15.6" ry="15.6"/>
			</g>
		</g>
		<g>
			<g>
				<ellipse class="st10" cx="327.2" cy="201.8" rx="15.6" ry="15.6"/>
			</g>
		</g>
	</g>
	<g>
		<path class="st11" d="M368.4,187.3l-8.5,66.4l-52.4,7.8l2.8,37.3l58.8-10.8c18.8-3.5,29.7-23.2,22.7-41L368.4,187.3z"/>
	</g>
	<g>
		<path class="st11" d="M148.1,187.3l8.5,66.4l52.4,7.8l-2.8,37.3L147.3,288c-18.8-3.5-29.7-23.2-22.7-41L148.1,187.3z"/>
	</g>
	<g>
		<path class="st6" d="M322.3,274.4c0-36.6-29.7-66.3-66.3-66.3s-66.3,29.7-66.3,66.3c0,12.4,3.4,24,9.3,33.9h113.9
			C318.9,298.4,322.3,286.8,322.3,274.4L322.3,274.4z"/>
	</g>
	<g>
		<path class="st4" d="M322.3,274.4c0-36.6-29.7-66.3-66.3-66.3v100.2h56.9C318.9,298.4,322.3,286.8,322.3,274.4L322.3,274.4z"/>
	</g>
	<g>
		<g>
			<ellipse class="st9" cx="230.5" cy="271" rx="17.2" ry="17.2"/>
		</g>
		<g>
			<ellipse class="st10" cx="281.4" cy="271.2" rx="17.2" ry="17.2"/>
		</g>
	</g>
</g>
</svg>
