<svg id="Capa_1" enable-background="new 0 0 512 512" height="512" viewBox="0 0 512 512" width="512" xmlns="http://www.w3.org/2000/svg"><g><g><g><g><g><g><g><path d="m130.896 479.402c-78.113-43.837-130.896-127.455-130.896-223.402 0-141.385 114.615-256 256-256s256 114.615 256 256c0 95.947-52.783 179.565-130.896 223.402z" fill="#ff6c52"/></g></g></g></g></g></g><path d="m164.055 479.402h217.049c78.113-43.837 130.896-127.455 130.896-223.402 0-15.649-1.404-30.97-4.094-45.844l-149.448-149.449-76.519 88.46-101.27-101.27 32.805 180.422-139.375 161.127z" fill="#f92814"/><g><path d="m170.747 50.122h30v87.312h-30z" fill="#414952" transform="matrix(.904 -.427 .427 .904 -22.258 88.296)"/></g><g><path d="m282.597 78.778h87.312v30h-87.312z" fill="#23272b" transform="matrix(.427 -.904 .904 .427 102.139 348.746)"/></g><g><g><ellipse cx="141.196" cy="223.085" fill="#fff" rx="98.16" ry="92.713"/></g><g><ellipse cx="370.804" cy="223.085" fill="#e9edf5" rx="98.16" ry="92.713"/></g></g><g><g><ellipse cx="137.333" cy="311.384" fill="#fff" rx="101.464" ry="99.819"/></g><g><ellipse cx="374.667" cy="311.384" fill="#e9edf5" rx="101.464" ry="99.819"/></g></g><g><path d="m256 68.471c-69.093 0-125.104 56.011-125.104 125.104v285.827c36.993 20.76 79.666 32.598 125.104 32.598s88.111-11.838 125.104-32.598v-285.827c0-69.093-56.011-125.104-125.104-125.104z" fill="#ffce00"/></g><g><path d="m256 68.471v443.529c45.438 0 88.111-11.838 125.104-32.598v-285.827c0-69.093-56.011-125.104-125.104-125.104z" fill="#fdba12"/></g><g><path d="m130.896 260.036h250.208v84.054h-250.208z" fill="#555a66"/></g><g><path d="m256 260.036h125.104v84.054h-125.104z" fill="#333940"/></g><g><path d="m130.896 389.446h250.208v84.054h-250.208z" fill="#555a66"/></g><g><path d="m256 389.446h125.104v84.054h-125.104z" fill="#333940"/></g><g><g><ellipse cx="198.498" cy="160.344" fill="#555a66" rx="17.267" ry="17.267" transform="matrix(.23 -.973 .973 .23 -3.163 316.693)"/></g><g><ellipse cx="313.502" cy="160.344" fill="#333940" rx="17.267" ry="17.267" transform="matrix(.707 -.707 .707 .707 -21.558 268.643)"/></g></g></g></svg>