<?xml version="1.0" encoding="utf-8"?>
<!-- Generator: Adobe Illustrator 24.3.0, SVG Export Plug-In . SVG Version: 6.00 Build 0)  -->
<svg version="1.1" id="Capa_1" xmlns="http://www.w3.org/2000/svg" xmlns:xlink="http://www.w3.org/1999/xlink" x="0px" y="0px"
	 viewBox="0 0 512 512" style="enable-background:new 0 0 512 512;" xml:space="preserve">
<style type="text/css">
	.st0{display:none;}
	.st1{display:inline;}
	.st2{fill:#1DD882;}
	.st3{opacity:0.33;}
	.st4{fill:#DCE1EB;}
	.st5{fill:#BEC3D2;}
	.st6{fill:#F2F6FC;}
	.st7{fill:#AFB4C8;}
	.st8{fill:#7E8596;}
	.st9{fill:#555A66;}
	.st10{fill:#333940;}
	.st11{fill:#FFCE00;}
	.st12{fill:#FDBA12;}
</style>
<g>
	<g class="st0">
		<g class="st1">
			<g>
				<g>
					<g>
						<g>
							<path class="st2" d="M145.6,487C59.5,445.8,0,357.8,0,256C0,114.6,114.6,0,256,0s256,114.6,256,256
								c0,101.8-59.5,189.8-145.6,231L145.6,487z"/>
						</g>
					</g>
				</g>
			</g>
		</g>
	</g>
	<path class="st3" d="M366.4,487C452.5,445.8,512,357.8,512,256c0-16.9-1.6-33.4-4.7-49.3l-79.3-79.3l-32.2,38.9L303,73.6
		L97.8,198.7l250.9,250.9L366.4,487z"/>
	<g>
		<path class="st4" d="M145.6,487c33.4,16,70.9,25,110.4,25s77-9,110.4-25l-23.6-216.3H169.2L145.6,487z"/>
	</g>
	<g>
		<path class="st5" d="M366.4,487l-23.6-216.3H256V512h0C295.5,512,333,503,366.4,487z"/>
	</g>
	<g>
		
			<ellipse transform="matrix(0.7071 -0.7071 0.7071 0.7071 -83.0645 139.257)" class="st4" cx="126.6" cy="169.9" rx="40.7" ry="60.1"/>
	</g>
	<g>
		
			<ellipse transform="matrix(0.7071 -0.7071 0.7071 0.7071 -7.2908 322.2479)" class="st5" cx="385.3" cy="169.9" rx="60.1" ry="40.7"/>
	</g>
	<g>
		<path class="st6" d="M121.9,215.9C121.9,129,181.9,97,256,97s134.1,32,134.1,118.9S330.1,403,256,403S121.9,302.8,121.9,215.9
			L121.9,215.9z"/>
	</g>
	<g>
		<path class="st4" d="M256,97C256,97,256,97,256,97l0,305.9h0c74.1,0,134.1-100.2,134.1-187.1C390.1,129,330.1,97,256,97z"/>
	</g>
	<g>
		<path class="st7" d="M256,320.8c-37.1,0-70.3,9.4-92.7,24.3C187.4,379.4,220,403,256,403s68.6-23.6,92.7-57.9
			C326.3,330.2,293.1,320.8,256,320.8z"/>
	</g>
	<g>
		<path class="st8" d="M256,320.8C256,320.8,256,320.8,256,320.8l0,82.1h0c36,0,68.6-23.6,92.7-57.9
			C326.3,330.2,293.1,320.8,256,320.8z"/>
	</g>
	<g>
		<g>
			<circle class="st9" cx="181.4" cy="250" r="17.3"/>
		</g>
		<g>
			<circle class="st10" cx="330.6" cy="250" r="17.3"/>
		</g>
	</g>
	<g>
		<g>
			<ellipse class="st9" cx="229.9" cy="355.7" rx="12.5" ry="12.5"/>
		</g>
		<g>
			<ellipse class="st10" cx="282" cy="355.9" rx="12.5" ry="12.5"/>
		</g>
	</g>
	<g>
		<path class="st11" d="M322.5,120.6C322.5,157.4,256,243,256,243s-66.5-85.7-66.5-122.4s29.8-66.5,66.5-66.5
			S322.5,83.9,322.5,120.6z"/>
	</g>
	<g>
		<path class="st12" d="M256,54.1c36.7,0,66.5,29.8,66.5,66.5S256,243,256,243L256,54.1z"/>
	</g>
</g>
</svg>
