<svg id="Capa_1" enable-background="new 0 0 512 512" height="512" viewBox="0 0 512 512" width="512" xmlns="http://www.w3.org/2000/svg"><g><g><g><g><g><g><g><path d="m145.561 487.019c-86.099-41.234-145.561-129.182-145.561-231.019 0-141.385 114.615-256 256-256s256 114.615 256 256c0 101.837-59.462 189.785-145.561 231.019z" fill="#1dd882"/></g></g></g></g></g></g><path d="m366.414 487.03c86.112-41.229 145.586-129.184 145.586-231.03 0-16.872-1.632-33.363-4.748-49.323l-79.313-79.312-32.236 38.916-92.673-92.675-205.224 125.087 250.885 250.885z" fill="#0caa5f"/><g><path d="m145.561 487.019c33.437 16.013 70.891 24.981 110.439 24.981s77.002-8.968 110.439-24.981l-23.637-216.309h-173.604z" fill="#dce1eb"/></g><g><path d="m366.439 487.019-23.637-216.309h-86.823v241.29h.021c39.548 0 77.002-8.968 110.439-24.981z" fill="#bec3d2"/></g><g><ellipse cx="126.598" cy="169.901" fill="#dce1eb" rx="40.717" ry="60.157" transform="matrix(.707 -.707 .707 .707 -83.059 139.281)"/></g><g><ellipse cx="385.402" cy="169.901" fill="#bec3d2" rx="60.157" ry="40.717" transform="matrix(.707 -.707 .707 .707 -7.257 322.284)"/></g><g><path d="m121.918 215.91c0-86.897 60.031-118.88 134.083-118.88s134.083 31.983 134.083 118.88-60.031 187.061-134.083 187.061-134.083-100.165-134.083-187.061z" fill="#f2f6fc"/></g><g><path d="m256 97.03c-.007 0-.014 0-.021 0v305.94h.021c74.052 0 134.083-100.164 134.083-187.061 0-86.896-60.031-118.879-134.083-118.879z" fill="#dce1eb"/></g><g><path d="m256 320.847c-37.061 0-70.27 9.404-92.691 24.255 24.079 34.25 56.732 57.869 92.691 57.869s68.612-23.619 92.691-57.869c-22.421-14.852-55.63-24.255-92.691-24.255z" fill="#afb4c8"/></g><g><path d="m256 320.847c-.007 0-.014 0-.021 0v82.123h.021c35.959 0 68.612-23.619 92.691-57.869-22.421-14.851-55.63-24.254-92.691-24.254z" fill="#7e8596"/></g><g><g><circle cx="181.394" cy="250" fill="#555a66" r="17.267"/></g><g><circle cx="330.606" cy="250" fill="#333940" r="17.267"/></g></g><g><g><ellipse cx="229.984" cy="355.725" fill="#555a66" rx="12.501" ry="12.501" transform="matrix(.707 -.707 .707 .707 -184.175 266.812)"/></g><g><ellipse cx="282.016" cy="355.725" fill="#333940" rx="12.501" ry="12.501" transform="matrix(.23 -.973 .973 .23 -128.987 548.468)"/></g></g><g><path d="m322.508 120.633c0 36.731-66.529 122.409-66.529 122.409s-66.487-85.678-66.487-122.409 29.777-66.508 66.508-66.508 66.508 29.776 66.508 66.508z" fill="#ffce00"/></g><g><path d="m256 54.125c36.731 0 66.508 29.777 66.508 66.508s-66.529 122.409-66.529 122.409z" fill="#fdba12"/></g></g></svg>