<?xml version="1.0" encoding="utf-8"?>
<!-- Generator: Adobe Illustrator 24.3.0, SVG Export Plug-In . SVG Version: 6.00 Build 0)  -->
<svg version="1.1" id="Capa_1" xmlns="http://www.w3.org/2000/svg" xmlns:xlink="http://www.w3.org/1999/xlink" x="0px" y="0px"
	 viewBox="0 0 512 512" style="enable-background:new 0 0 512 512;" xml:space="preserve">
<style type="text/css">
	.st0{display:none;}
	.st1{display:inline;}
	.st2{fill:#1DD882;}
	.st3{opacity:0.33;}
	.st4{fill:#FFFFFF;}
	.st5{fill:#E9EDF5;}
	.st6{fill:#707789;}
	.st7{fill:#555A66;}
	.st8{fill:#333940;}
	.st9{fill:#CDD2E1;}
	.st10{fill:#AFB4C8;}
</style>
<g>
	<g class="st0">
		<g class="st1">
			<g>
				<g>
					<g>
						<g>
							<g>
								<path class="st2" d="M5.2,307.4C1.8,290.8,0,273.6,0,256C0,114.6,114.6,0,256,0s256,114.6,256,256c0,17.6-1.8,34.8-5.2,51.4
									H5.2z"/>
							</g>
						</g>
					</g>
				</g>
			</g>
		</g>
	</g>
	<path class="st3" d="M511.7,269l-67.3-67.3l-0.1,3.1l-57.1-57.1l11.5,159.8h108.2C509.4,294.9,511,282.1,511.7,269z"/>
	<g>
		<path class="st4" d="M468.6,263.2c0-0.2,0-0.4,0-0.6c0-51.1-43.9-92.6-98-92.6c-28,0-53.2,11.1-71.1,28.8h-87.1
			c-17.9-17.8-43.1-28.8-71.1-28.8c-54.1,0-98,41.4-98,92.6c0,0.2,0,0.4,0,0.6C27,274.6,13.8,289.8,5.2,307.4
			C29,424.2,132.2,512,256,512s227-87.8,250.8-204.6C498.2,289.8,485,274.6,468.6,263.2L468.6,263.2z"/>
	</g>
	<g>
		<path class="st5" d="M506.8,307.4c-8.6-17.6-21.8-32.8-38.2-44.2c0-0.2,0-0.4,0-0.6c0-51.1-43.9-92.6-98-92.6
			c-28,0-53.2,11.1-71.1,28.8H256V512C379.8,512,483,424.1,506.8,307.4z"/>
	</g>
	<g>
		<g>
			<path class="st6" d="M153,332.9c-23.8,0-43-19.3-43-43V187.8c0-33.8,27.4-61.3,61.3-61.3h24.8v163.4
				C196.1,313.6,176.8,332.9,153,332.9L153,332.9z"/>
		</g>
		<g>
			<path class="st7" d="M359,332.9c23.8,0,43-19.3,43-43V187.8c0-33.8-27.4-61.3-61.3-61.3h-24.8v163.4
				C315.9,313.6,335.2,332.9,359,332.9z"/>
		</g>
	</g>
	<g>
		<path class="st7" d="M256,370.5c-41.9,0-78.4-28.8-88.1-69.6l-20.9-88.1c-13.5-56.8,29.6-111.4,88.1-111.4h41.8
			c58.4,0,101.5,54.5,88,111.4l-20.9,88.1C334.4,341.7,297.9,370.5,256,370.5z"/>
	</g>
	<g>
		<path class="st8" d="M276.9,101.4H256v269.1c41.9,0,78.3-28.8,88-69.6l20.9-88.1C378.4,155.9,335.3,101.4,276.9,101.4L276.9,101.4
			z"/>
	</g>
	<g>
		<g>
			<ellipse class="st5" cx="198.5" cy="211.6" rx="17.3" ry="17.3"/>
		</g>
		<g>
			<ellipse class="st9" cx="313.5" cy="211.7" rx="17.3" ry="17.3"/>
		</g>
	</g>
	<g>
		<path class="st9" d="M256,315.2l-19.8-19.8L215,316.6l26,26v26.6c4.9,0.8,9.9,1.2,15,1.2c5.1,0,10.1-0.4,15-1.2v-26.6l26-26
			l-21.2-21.2L256,315.2z"/>
	</g>
	<g>
		<path class="st10" d="M275.8,295.4L256,315.1v55.3c5.1,0,10.1-0.4,15-1.2v-26.6l26-26L275.8,295.4z"/>
	</g>
</g>
</svg>
