<svg id="Capa_1" enable-background="new 0 0 512 512" height="512" viewBox="0 0 512 512" width="512" xmlns="http://www.w3.org/2000/svg"><g><g><g><g><g><g><g><g><path d="m5.164 307.412c-3.386-16.609-5.164-33.803-5.164-51.412 0-141.385 114.615-256 256-256s256 114.615 256 256c0 17.609-1.778 34.803-5.164 51.412z" fill="#1dd882"/></g></g></g></g></g></g></g><path d="m511.677 268.972-67.316-67.316-.149 3.102-57.118-57.118 11.506 159.772h108.236c2.549-12.506 4.187-25.343 4.841-38.44z" fill="#0caa5f"/><g><path d="m468.625 263.179c.002-.184.002-.369.002-.553 0-51.123-43.878-92.567-98.005-92.567-27.978 0-53.218 11.073-71.074 28.832h-87.097c-17.857-17.759-43.096-28.832-71.074-28.832-54.126 0-98.005 41.444-98.005 92.567 0 .185 0 .369.002.553-16.385 11.39-29.611 26.597-38.21 44.232 23.801 116.745 127.06 204.589 250.836 204.589s227.035-87.844 250.836-204.589c-8.599-17.635-21.826-32.842-38.211-44.232z" fill="#fff"/></g><g><path d="m506.836 307.411c-8.599-17.635-21.826-32.841-38.21-44.232.001-.184.002-.369.002-.553 0-51.123-43.878-92.567-98.005-92.567-27.978 0-53.218 11.073-71.074 28.832h-43.506v313.109c123.757-.021 226.995-87.857 250.793-204.589z" fill="#e9edf5"/></g><g><g><path d="m153.007 332.92c-23.775 0-43.048-19.273-43.048-43.048v-102.119c0-33.85 27.441-61.291 61.291-61.291h24.805v163.41c-.001 23.775-19.274 43.048-43.048 43.048z" fill="#707789"/></g><g><path d="m358.993 332.92c23.775 0 43.048-19.273 43.048-43.048v-102.119c0-33.85-27.441-61.291-61.291-61.291h-24.805v163.41c.001 23.775 19.274 43.048 43.048 43.048z" fill="#555a66"/></g></g><g><path d="m256 370.474c-41.937 0-78.379-28.815-88.05-69.622l-20.882-88.113c-13.47-56.837 29.638-111.357 88.05-111.357h41.765c58.412 0 101.521 54.519 88.05 111.357l-20.882 88.113c-9.672 40.807-46.114 69.622-88.051 69.622z" fill="#555a66"/></g><g><path d="m276.882 101.382h-20.84v269.091c41.919-.019 78.34-28.828 88.008-69.621l20.882-88.113c13.471-56.838-29.638-111.357-88.05-111.357z" fill="#333940"/></g><g><g><ellipse cx="198.498" cy="211.565" fill="#e9edf5" rx="17.267" ry="17.267" transform="matrix(.707 -.707 .707 .707 -91.461 202.325)"/></g><g><ellipse cx="313.502" cy="211.565" fill="#cdd2e1" rx="17.267" ry="17.267" transform="matrix(.23 -.973 .973 .23 35.568 468.073)"/></g></g><g><path d="m256 315.168-19.803-19.802-21.213 21.213 26.016 26.016v26.634c4.894.82 9.906 1.245 15 1.245 5.094 0 10.106-.425 15-1.245v-26.634l26.016-26.015-21.213-21.213z" fill="#cdd2e1"/></g><g><path d="m275.803 295.366-19.76 19.76v55.347c5.079-.002 10.078-.427 14.958-1.244v-26.634l26.016-26.015z" fill="#afb4c8"/></g></g></svg>