<?xml version="1.0" encoding="utf-8"?>
<!-- Generator: Adobe Illustrator 24.3.0, SVG Export Plug-In . SVG Version: 6.00 Build 0)  -->
<svg version="1.1" id="Capa_1" xmlns="http://www.w3.org/2000/svg" xmlns:xlink="http://www.w3.org/1999/xlink" x="0px" y="0px"
	 viewBox="0 0 512 512" style="enable-background:new 0 0 512 512;" xml:space="preserve">
<style type="text/css">
	.st0{display:none;fill:#FFCE00;}
	.st1{opacity:0.33;}
	.st2{fill:#636978;}
	.st3{fill:#414952;}
	.st4{fill:#F2F6FC;}
	.st5{fill:#DCE1EB;}
	.st6{fill:#FFFFFF;}
	.st7{fill:#E9EDF5;}
	.st8{fill:#707789;}
	.st9{fill:#555A66;}
	.st10{fill:#23272B;}
</style>
<g>
	<path class="st0" d="M422.9,450.1C477.4,403.2,512,333.6,512,256C512,114.6,397.4,0,256,0S0,114.6,0,256
		c0,77.6,34.6,147.2,89.1,194.1H422.9z"/>
	<path class="st1" d="M512,256c0-18.5-2-36.5-5.7-53.8l-98.7-98.7l-302.3,69l70.8,70.8l148.8,78.4l98,128.4
		C477.4,403.2,512,333.6,512,256z"/>
	<path class="st2" d="M152.7,455.6c0-57.1,46.3-103.3,103.3-103.3s103.3,46.3,103.3,103.3v34.7c23.2-10.3,44.6-23.8,63.6-40.2
		l-37.1-207.1H126.2L89.1,450.1c19,16.3,40.4,29.9,63.6,40.2V455.6z"/>
	<path class="st3" d="M359.3,455.6v34.7c23.2-10.3,44.6-23.8,63.6-40.2l-37.1-207.1H256.1v109.2
		C313.1,352.3,359.3,398.6,359.3,455.6z"/>
	<g>
		<path class="st4" d="M256,351.3c-57.1,0-103.3,46.3-103.3,103.3v35.7c31.6,14,66.6,21.7,103.3,21.7s71.7-7.8,103.3-21.7v-35.7
			C359.3,397.5,313.1,351.3,256,351.3z"/>
	</g>
	<g>
		<path class="st5" d="M359.3,454.6c0-57.1-46.2-103.3-103.3-103.3V512c36.7,0,71.7-7.8,103.3-21.7V454.6z"/>
	</g>
	<g>
		<g>
			<circle class="st2" cx="138.7" cy="137.6" r="48.4"/>
		</g>
		<g>
			<circle class="st3" cx="373.3" cy="137.6" r="48.4"/>
		</g>
	</g>
	<g>
		<path class="st6" d="M399.3,216.4c0,64.8-64.2,88.6-143.3,88.6s-143.3-23.8-143.3-88.6C112.7,151.7,176.8,77,256,77
			S399.3,151.7,399.3,216.4z"/>
	</g>
	<g>
		<path class="st7" d="M399.3,216.4c0-64.8-64.1-139.4-143.3-139.4v228.1C335.2,305,399.3,281.2,399.3,216.4L399.3,216.4z"/>
	</g>
	<g>
		<g>
			<g>
				<ellipse class="st8" cx="192.6" cy="180" rx="42.4" ry="42.4"/>
			</g>
			<g>
				<ellipse class="st3" cx="202.8" cy="185.9" rx="15" ry="15"/>
			</g>
		</g>
		<g>
			<g>
				
					<ellipse transform="matrix(0.9851 -0.172 0.172 0.9851 -26.1981 57.6481)" class="st9" cx="319.5" cy="180" rx="42.4" ry="42.4"/>
			</g>
			<g>
				<ellipse class="st10" cx="309.2" cy="186" rx="15" ry="15"/>
			</g>
		</g>
	</g>
	<g>
		<path class="st3" d="M282.4,222.8c0,11.8-11.8,21.3-26.4,21.3s-26.4-9.5-26.4-21.3s11.8-12.7,26.4-12.7S282.4,211.1,282.4,222.8z"
			/>
	</g>
	<g>
		<path class="st10" d="M282.4,222.8c0-11.7-11.8-12.7-26.3-12.7v34C270.6,244.1,282.4,234.6,282.4,222.8z"/>
	</g>
</g>
</svg>
