<svg id="Capa_1" enable-background="new 0 0 512 512" height="512" viewBox="0 0 512 512" width="512" xmlns="http://www.w3.org/2000/svg"><g><path d="m404.088 464.846c65.304-46.39 107.912-122.642 107.912-208.846 0-141.385-114.615-256-256-256s-256 114.615-256 256c0 86.204 42.608 162.456 107.912 208.846z" fill="#ffce00"/><path d="m512 256c0-4.129-.098-8.235-.291-12.317l-70.144-70.144-12.592 11.936-59.033-59.033-289.673 115.043 54.7 54.7 40.099-19.349 175.549-5.868 53.473 193.878c65.304-46.39 107.912-122.642 107.912-208.846z" fill="#ffa300"/><path d="m166.266 446.711c0-49.559 40.175-89.734 89.734-89.734s89.734 40.175 89.734 89.734v49.11c20.891-7.821 40.492-18.284 58.385-30.998l-35.407-220.728h-225.424l-35.407 220.728c17.892 12.714 37.493 23.177 58.384 30.998v-49.11z" fill="#a65d4e"/><path d="m345.734 446.711v49.11c20.891-7.82 40.492-18.283 58.385-30.997l-35.407-220.728h-112.712v112.883c49.501.068 89.734 40.215 89.734 89.732z" fill="#784132"/><g><path d="m256 355.976c-49.559 0-89.734 40.175-89.734 89.734v50.121c27.924 10.453 58.161 16.169 89.734 16.169 31.572 0 61.81-5.716 89.734-16.168v-50.121c0-49.559-40.175-89.735-89.734-89.735z" fill="#c38778"/></g><g><path d="m345.734 445.711c0-49.516-40.234-89.664-89.734-89.733v156.021c31.527-.015 61.847-5.728 89.734-16.167z" fill="#a65d4e"/></g><g><g><ellipse cx="106.738" cy="202.97" fill="#a65d4e" rx="46.738" ry="46.738" transform="matrix(.307 -.952 .952 .307 -119.198 242.249)"/></g><g><ellipse cx="405.262" cy="202.97" fill="#784132" rx="46.738" ry="46.738" transform="matrix(.707 -.707 .707 .707 -24.823 346.012)"/></g></g><g><g><ellipse cx="106.738" cy="202.97" fill="#915041" rx="24.13" ry="24.13" transform="matrix(.232 -.973 .973 .232 -115.466 259.673)"/></g><g><ellipse cx="405.262" cy="202.97" fill="#61362b" rx="23.919" ry="23.919" transform="matrix(.23 -.973 .973 .23 114.611 550.758)"/></g></g><g><path d="m407.145 217.821c0 68.298-67.67 93.435-151.145 93.435s-151.145-25.137-151.145-93.435 67.67-147.023 151.145-147.023 151.145 78.725 151.145 147.023z" fill="#b46e5a"/></g><g><path d="m407.145 217.821c0-68.263-67.728-146.941-151.145-147.021v240.455c83.417-.025 151.145-25.171 151.145-93.434z" fill="#915041"/></g><g><path d="m301.704 111.814c-20.863 0-38.675 12.906-45.704 31.299-7.029-18.393-24.841-31.299-45.704-31.299-27.013 0-48.911 21.898-48.911 48.911v25.808c0 27.013 21.898 48.911 48.911 48.911 1.277 0 2.543-.049 3.796-.145v19.749c0 23.145 18.763 41.908 41.908 41.908 23.145 0 41.908-18.763 41.908-41.908v-19.749c1.253.096 2.518.145 3.796.145 27.013 0 48.911-21.898 48.911-48.911v-25.808c0-27.012-21.898-48.911-48.911-48.911z" fill="#c38778"/></g><g><path d="m301.704 111.815c-20.744 0-38.593 13.073-45.704 31.299v153.84c23.087-.069 41.908-18.802 41.908-41.905v-19.749c1.253.096 2.518.145 3.796.145 27.013 0 48.911-21.898 48.911-48.911v-25.808c0-27.013-21.898-48.911-48.911-48.911z" fill="#a65d4e"/></g><g><g><circle cx="210.742" cy="184.182" fill="#414952" r="17.347"/></g><g><circle cx="301.258" cy="184.182" fill="#23272b" r="17.347"/></g></g><g><g><ellipse cx="240.405" cy="232.361" fill="#414952" rx="9.53" ry="9.53" transform="matrix(.707 -.707 .707 .707 -93.891 238.049)"/></g><g><ellipse cx="271.595" cy="232.361" fill="#23272b" rx="9.53" ry="9.53" transform="matrix(.229 -.974 .974 .229 -16.747 443.582)"/></g></g></g></svg>