<?xml version="1.0" encoding="utf-8"?>
<!-- Generator: Adobe Illustrator 24.3.0, SVG Export Plug-In . SVG Version: 6.00 Build 0)  -->
<svg version="1.1" id="Capa_1" xmlns="http://www.w3.org/2000/svg" xmlns:xlink="http://www.w3.org/1999/xlink" x="0px" y="0px"
	 viewBox="0 0 512 512" style="enable-background:new 0 0 512 512;" xml:space="preserve">
<style type="text/css">
	.st0{display:none;fill:#FFCE00;}
	.st1{opacity:0.33;}
	.st2{fill:#A65D4E;}
	.st3{fill:#784132;}
	.st4{fill:#C38778;}
	.st5{fill:#915041;}
	.st6{fill:#61362B;}
	.st7{fill:#B46E5A;}
	.st8{fill:#414952;}
	.st9{fill:#23272B;}
</style>
<g>
	<path class="st0" d="M404.1,464.8C469.4,418.5,512,342.2,512,256C512,114.6,397.4,0,256,0S0,114.6,0,256
		c0,86.2,42.6,162.5,107.9,208.8H404.1z"/>
	<path class="st1" d="M512,256c0-4.1-0.1-8.2-0.3-12.3l-70.1-70.1L429,185.5l-59-59l-289.7,115l54.7,54.7l40.1-19.3l175.5-5.9
		l53.5,193.9C469.4,418.5,512,342.2,512,256z"/>
	<path class="st2" d="M166.3,446.7c0-49.6,40.2-89.7,89.7-89.7s89.7,40.2,89.7,89.7v49.1c20.9-7.8,40.5-18.3,58.4-31l-35.4-220.7
		H143.3l-35.4,220.7c17.9,12.7,37.5,23.2,58.4,31L166.3,446.7L166.3,446.7z"/>
	<path class="st3" d="M345.7,446.7v49.1c20.9-7.8,40.5-18.3,58.4-31l-35.4-220.7H256V357C305.5,357,345.7,397.2,345.7,446.7
		L345.7,446.7z"/>
	<g>
		<path class="st4" d="M256,356c-49.6,0-89.7,40.2-89.7,89.7v50.1c27.9,10.5,58.2,16.2,89.7,16.2c31.6,0,61.8-5.7,89.7-16.2v-50.1
			C345.7,396.2,305.6,356,256,356z"/>
	</g>
	<g>
		<path class="st2" d="M345.7,445.7c0-49.5-40.2-89.7-89.7-89.7v156c31.5,0,61.8-5.7,89.7-16.2V445.7z"/>
	</g>
	<g>
		<g>
			<ellipse class="st2" cx="106.8" cy="202.9" rx="46.8" ry="46.8"/>
		</g>
		<g>
			<ellipse class="st3" cx="405.2" cy="203" rx="46.7" ry="46.7"/>
		</g>
	</g>
	<g>
		<g>
			
				<ellipse transform="matrix(0.2319 -0.9727 0.9727 0.2319 -115.3537 259.7198)" class="st5" cx="106.8" cy="202.9" rx="24.1" ry="24.1"/>
		</g>
		<g>
			<ellipse class="st6" cx="405.3" cy="203.1" rx="23.9" ry="23.9"/>
		</g>
	</g>
	<g>
		<path class="st7" d="M407.1,217.8c0,68.3-67.7,93.4-151.1,93.4s-151.1-25.1-151.1-93.4s67.7-147,151.1-147
			S407.1,149.5,407.1,217.8L407.1,217.8z"/>
	</g>
	<g>
		<path class="st5" d="M407.1,217.8c0-68.3-67.7-146.9-151.1-147v240.5C339.4,311.2,407.1,286.1,407.1,217.8L407.1,217.8z"/>
	</g>
	<g>
		<path class="st4" d="M301.7,111.8c-20.9,0-38.7,12.9-45.7,31.3c-7-18.4-24.8-31.3-45.7-31.3c-27,0-48.9,21.9-48.9,48.9v25.8
			c0,27,21.9,48.9,48.9,48.9c1.3,0,2.5,0,3.8-0.1V255c0,23.1,18.8,41.9,41.9,41.9s41.9-18.8,41.9-41.9v-19.7
			c1.3,0.1,2.5,0.1,3.8,0.1c27,0,48.9-21.9,48.9-48.9v-25.8C350.6,133.7,328.7,111.8,301.7,111.8L301.7,111.8z"/>
	</g>
	<g>
		<path class="st2" d="M301.7,111.8c-20.7,0-38.6,13.1-45.7,31.3V297c23.1-0.1,41.9-18.8,41.9-41.9v-19.7c1.3,0.1,2.5,0.1,3.8,0.1
			c27,0,48.9-21.9,48.9-48.9v-25.8C350.6,133.7,328.7,111.8,301.7,111.8L301.7,111.8z"/>
	</g>
	<g>
		<g>
			<circle class="st8" cx="210.7" cy="184.2" r="17.3"/>
		</g>
		<g>
			<circle class="st9" cx="301.3" cy="184.2" r="17.3"/>
		</g>
	</g>
	<g>
		<g>
			<ellipse class="st8" cx="240.4" cy="232.4" rx="9.5" ry="9.5"/>
		</g>
		<g>
			<ellipse class="st9" cx="271.8" cy="232.3" rx="9.5" ry="9.5"/>
		</g>
	</g>
</g>
</svg>
