<?xml version="1.0" encoding="utf-8"?>
<!-- Generator: Adobe Illustrator 24.3.0, SVG Export Plug-In . SVG Version: 6.00 Build 0)  -->
<svg version="1.1" id="Capa_1" xmlns="http://www.w3.org/2000/svg" xmlns:xlink="http://www.w3.org/1999/xlink" x="0px" y="0px"
	 viewBox="0 0 512 512" style="enable-background:new 0 0 512 512;" xml:space="preserve">
<style type="text/css">
	.st0{display:none;fill:#FF6C52;}
	.st1{opacity:0.33;}
	.st2{fill:#DCE1EB;}
	.st3{fill:#BEC3D2;}
	.st4{fill:#F2F6FC;}
	.st5{fill:#FFFFFF;}
	.st6{fill:#E9EDF5;}
	.st7{fill:#555A66;}
	.st8{fill:#333940;}
	.st9{fill:#414952;}
	.st10{fill:#23272B;}
</style>
<g>
	<path class="st0" d="M403.7,465.1C469.2,418.7,512,342.4,512,256C512,114.6,397.4,0,256,0S0,114.6,0,256
		c0,86.4,42.8,162.7,108.3,209.1L403.7,465.1z"/>
	<path class="st1" d="M512,256c0-22.7-3-44.7-8.5-65.7L373.2,60l-27.3,227.9c0,0.9,0.7,1.6,1.6,1.6c0.8,0,1.4,0.5,1.6,1.3
		l54.8,174.2C469.2,418.7,512,342.4,512,256L512,256z"/>
	<path class="st2" d="M166.3,446.7c0-49.6,40.2-89.7,89.7-89.7s89.7,40.2,89.7,89.7v49.1c20.9-7.8,40.5-18.3,58.4-31l-35.4-177.4
		H143.3l-35.4,177.4c17.9,12.7,37.5,23.2,58.4,31V446.7z"/>
	<path class="st3" d="M345.7,446.7v49.1c20.9-7.8,40.5-18.3,58.4-31l-35.4-177.4H256V357C305.6,357,345.7,397.2,345.7,446.7z"/>
	<g>
		<path class="st4" d="M256,356c-49.6,0-89.7,40.2-89.7,89.7v50.1c27.9,10.5,58.2,16.2,89.7,16.2s61.8-5.7,89.7-16.2v-50.1
			C345.7,396.2,305.6,356,256,356z"/>
	</g>
	<g>
		<path class="st2" d="M256,356v156c31.6,0,61.8-5.7,89.7-16.2v-50.1C345.7,396.2,305.6,356,256,356z"/>
	</g>
	<g>
		<path class="st5" d="M383.1,170.9L373.2,60l-58.5,44.7c-17.9-8.9-37.8-14.1-58.7-14.1s-40.8,5.2-58.7,14.1L138.8,60l-9.9,110.9
			c-10.4,19.1-16.2,39.6-16.2,59.1c0,64.8,64.2,88.6,143.3,88.6s143.3-23.8,143.3-88.6C399.3,210.5,393.5,190,383.1,170.9
			L383.1,170.9z"/>
	</g>
	<g>
		<path class="st6" d="M383.1,170.9L373.2,60l-58.5,44.7c-17.9-8.9-37.8-14.1-58.7-14.1v228.1c79.2,0,143.3-23.8,143.3-88.6
			C399.3,210.5,393.5,190,383.1,170.9L383.1,170.9z"/>
	</g>
	<g>
		<path class="st2" d="M250,90.8c-18.7,0.9-36.5,5.9-52.7,13.9L138.8,60l-9.9,110.9c-10.4,19.1-16.2,39.6-16.2,59.1
			c0,3.3,0.2,6.4,0.5,9.5c10.1,2.9,20.7,4.5,31.7,4.5c62.3,0,108.4-49.7,108.4-111.9C253.2,117.9,253,103.6,250,90.8z"/>
	</g>
	<g>
		<g>
			<ellipse class="st7" cx="181.3" cy="201.5" rx="17.3" ry="17.3"/>
		</g>
		<g>
			<ellipse class="st8" cx="330.5" cy="201.5" rx="17.3" ry="17.3"/>
		</g>
	</g>
	<path class="st9" d="M282.4,227.6c0-11.8-11.8-12.7-26.4-12.7s-26.4,0.9-26.4,12.7c0,7.3,4.5,13.7,11.4,17.5V270h30v-24.8
		C277.9,241.3,282.4,234.9,282.4,227.6z"/>
	<path class="st10" d="M282.4,227.6c0-11.8-11.8-12.7-26.4-12.7v55h15v-24.8C277.9,241.3,282.4,234.9,282.4,227.6z"/>
</g>
</svg>
