<svg id="Capa_1" enable-background="new 0 0 512 512" height="512" viewBox="0 0 512 512" width="512" xmlns="http://www.w3.org/2000/svg"><g><path d="m403.739 465.092c65.502-46.365 108.261-122.735 108.261-209.092 0-141.385-114.615-256-256-256s-256 114.615-256 256c0 86.357 42.759 162.727 108.261 209.092z" fill="#ff6c52"/><path d="m512 256c0-22.703-2.955-44.715-8.502-65.674l-130.326-130.326-27.347 227.947c-.029.895.689 1.637 1.585 1.637.756 0 1.407.534 1.555 1.276l54.774 174.233c65.501-46.366 108.261-122.736 108.261-209.093z" fill="#f92814"/><path d="m166.266 446.711c0-49.559 40.175-89.734 89.734-89.734s89.734 40.175 89.734 89.734v49.11c20.891-7.821 40.492-18.284 58.385-30.998l-35.407-177.412h-225.424l-35.407 177.412c17.892 12.714 37.493 23.177 58.385 30.998z" fill="#dce1eb"/><path d="m345.734 446.711v49.11c20.891-7.821 40.492-18.284 58.385-30.998l-35.407-177.412h-112.712v69.565c49.559 0 89.734 40.176 89.734 89.735z" fill="#bec3d2"/><g><path d="m256 355.976c-49.559 0-89.734 40.175-89.734 89.734v50.121c27.924 10.453 58.162 16.169 89.734 16.169s61.81-5.716 89.734-16.168v-50.121c0-49.559-40.175-89.735-89.734-89.735z" fill="#f2f6fc"/></g><g><path d="m256 355.976v156.024c31.573 0 61.81-5.716 89.734-16.168v-50.121c0-49.559-40.175-89.735-89.734-89.735z" fill="#dce1eb"/></g><g><path d="m383.101 170.925-9.929-110.925-58.464 44.703c-17.919-8.865-37.79-14.078-58.708-14.078s-40.789 5.213-58.707 14.078l-58.465-44.703-9.929 110.925c-10.378 19.059-16.247 39.551-16.247 59.139 0 64.775 64.179 88.615 143.348 88.615s143.348-23.841 143.348-88.615c0-19.588-5.87-40.081-16.247-59.139z" fill="#fff"/></g><g><path d="m383.101 170.925-9.929-110.925-58.464 44.703c-17.919-8.865-37.79-14.078-58.708-14.078v228.054c79.169 0 143.348-23.841 143.348-88.615 0-19.588-5.869-40.081-16.247-59.139z" fill="#e9edf5"/></g><g><path d="m250.039 90.767c-18.733.887-36.539 5.918-52.746 13.937l-58.465-44.704-9.929 110.925c-10.378 19.059-16.247 39.551-16.247 59.139 0 3.273.164 6.442.486 9.509 10.06 2.943 20.702 4.523 31.713 4.523 62.256 0 108.369-49.659 108.369-111.915-.001-14.316-.225-28.551-3.181-41.414z" fill="#dce1eb"/></g><g><g><ellipse cx="181.394" cy="201.529" fill="#555a66" rx="17.267" ry="17.267" transform="matrix(.16 -.987 .987 .16 -46.589 348.3)"/></g><g><ellipse cx="330.606" cy="201.529" fill="#333940" rx="17.267" ry="17.267" transform="matrix(.16 -.987 .987 .16 78.722 495.585)"/></g></g><path d="m282.379 227.635c0-11.753-11.81-12.702-26.379-12.702s-26.379.949-26.379 12.702c0 7.256 4.505 13.661 11.379 17.502v24.845h30v-24.845c6.874-3.841 11.379-10.246 11.379-17.502z" fill="#414952"/><path d="m282.379 227.635c0-11.753-11.81-12.702-26.379-12.702v55.049h15v-24.845c6.874-3.841 11.379-10.246 11.379-17.502z" fill="#23272b"/></g></svg>