<svg id="Capa_1" enable-background="new 0 0 512 512" height="512" viewBox="0 0 512 512" width="512" xmlns="http://www.w3.org/2000/svg"><g><g><g><g><g><g><g><path d="m377.899 481.171c-29.316 15.904-62.087 26.25-96.898 29.624h-50.001c-34.811-3.374-67.581-13.72-96.897-29.624l-64.79-50.001c-42.985-45.793-69.313-107.407-69.313-175.17 0-141.385 114.615-256 256-256s256 114.615 256 256c0 67.763-26.328 129.376-69.313 175.169z" fill="#a3d4ff"/></g></g></g></g></g></g><path d="m442.686 431.171c40.734-43.395 66.51-100.997 69.099-164.576l-166.325-166.324-159.086 249.031-69.05-69.05-26.642 104.397 60.275 60.276-16.857 36.245c29.317 15.905 62.088 26.251 96.899 29.625h50.002c34.812-3.374 67.584-13.721 96.901-29.626z" fill="#65b1fc"/><path d="m375.524 179.524c0-66.011-53.513-119.524-119.524-119.524s-119.524 53.513-119.524 119.524c0 30.138 11.156 81.97 29.563 129.405v21.658c0 13.431-10.927 24.357-24.357 24.357s-24.357-10.927-24.357-24.357v-50.335h-50v50.335c0 41.001 33.356 74.357 74.357 74.357 14.227 0 27.53-4.023 38.842-10.982v2.319c0 19.238-15.651 34.889-34.889 34.889h-76.321c18.707 19.929 40.568 36.861 64.787 50h11.534c43.227 0 78.985-32.485 84.207-74.321.385.257.771.509 1.158.755v103.19c8.226.797 16.565 1.206 25 1.206s16.774-.408 25-1.205v-103.19c54.009-34.422 94.524-170.645 94.524-228.081z" fill="#ff6c52"/><path d="m370.318 404.944c41.001 0 74.357-33.356 74.357-74.357v-50.335h-50v50.335c0 13.431-10.927 24.357-24.357 24.357s-24.357-10.927-24.357-24.357v-21.658c18.406-47.435 29.563-99.267 29.563-129.405 0-66.011-53.513-119.524-119.524-119.524v452c8.435 0 16.774-.408 25-1.205v-103.19c.387-.246.773-.498 1.158-.755 5.222 41.835 40.98 74.321 84.207 74.321h11.534c24.219-13.139 46.08-30.071 64.787-50h-76.321c-19.237 0-34.889-15.651-34.889-34.889v-2.319c11.313 6.958 24.615 10.981 38.842 10.981z" fill="#ff432e"/><g><g><ellipse cx="197.466" cy="157.899" fill="#555a66" rx="17.267" ry="17.267" transform="matrix(.707 -.707 .707 .707 -53.815 185.877)"/></g><g><ellipse cx="314.534" cy="157.899" fill="#333940" rx="17.267" ry="17.267" transform="matrix(.23 -.973 .973 .23 88.594 427.741)"/></g></g><g><ellipse cx="254.593" cy="214.33" fill="#f92814" rx="37.818" ry="44.049"/></g><g><path d="m254.593 170.281c-20.886 0-37.818 19.721-37.818 44.049s16.932 44.049 37.818 44.049c.472 0 .939-.021 1.407-.041v-88.014c-.468-.021-.935-.043-1.407-.043z" fill="#f92814"/><path d="m292.411 214.33c0-23.778-16.178-43.144-36.411-44.007v88.014c20.233-.863 36.411-20.229 36.411-44.007z" fill="#db0404"/></g></g></svg>