<?xml version="1.0" encoding="utf-8"?>
<!-- Generator: Adobe Illustrator 25.2.0, SVG Export Plug-In . SVG Version: 6.00 Build 0)  -->
<svg version="1.1" id="Capa_1" xmlns="http://www.w3.org/2000/svg" xmlns:xlink="http://www.w3.org/1999/xlink" x="0px" y="0px"
	 viewBox="0 0 512 512" style="enable-background:new 0 0 512 512;" xml:space="preserve">
<style type="text/css">
	.st0{display:none;}
	.st1{display:inline;}
	.st2{fill:#A3D4FF;}
	.st3{display:none;opacity:0.33;fill:#231F20;}
	.st4{fill:#FF6C52;}
	.st5{fill:#FF432E;}
	.st6{fill:#555A66;}
	.st7{fill:#333940;}
	.st8{fill:#F92814;}
	.st9{fill:#DB0404;}
</style>
<g>
	<g class="st0">
		<g class="st1">
			<g>
				<g>
					<g>
						<g>
							<path class="st2" d="M377.9,481.2c-29.3,15.9-62.1,26.2-96.9,29.6h-50c-34.8-3.4-67.6-13.7-96.9-29.6l-64.8-50
								C26.3,385.4,0,323.8,0,256C0,114.6,114.6,0,256,0s256,114.6,256,256c0,67.8-26.3,129.4-69.3,175.2L377.9,481.2z"/>
						</g>
					</g>
				</g>
			</g>
		</g>
	</g>
	<path class="st3" d="M442.7,431.2c40.7-43.4,66.5-101,69.1-164.6L345.5,100.3l-159.1,249l-69.1-69.1L90.7,384.6l60.3,60.3
		l-16.9,36.2c29.3,15.9,62.1,26.3,96.9,29.6h50c34.8-3.4,67.6-13.7,96.9-29.6L442.7,431.2z"/>
	<path class="st4" d="M375.5,179.5C375.5,113.5,322,60,256,60s-119.5,53.5-119.5,119.5c0,30.1,11.2,82,29.6,129.4v21.7
		c0,13.4-10.9,24.4-24.4,24.4s-24.4-10.9-24.4-24.4v-50.3h-50v50.3c0,41,33.4,74.4,74.4,74.4c14.2,0,27.5-4,38.8-11v2.3
		c0,19.2-15.7,34.9-34.9,34.9H69.3c18.7,19.9,40.6,36.9,64.8,50h11.5c43.2,0,79-32.5,84.2-74.3c0.4,0.3,0.8,0.5,1.2,0.8v103.2
		c8.2,0.8,16.6,1.2,25,1.2c8.4,0,16.8-0.4,25-1.2V407.6C335,373.2,375.5,237,375.5,179.5L375.5,179.5z"/>
	<path class="st5" d="M370.3,404.9c41,0,74.4-33.4,74.4-74.4v-50.3h-50v50.3c0,13.4-10.9,24.4-24.4,24.4S346,344,346,330.6v-21.7
		c18.4-47.4,29.6-99.3,29.6-129.4C375.5,113.5,322,60,256,60v452c8.4,0,16.8-0.4,25-1.2V407.6c0.4-0.2,0.8-0.5,1.2-0.8
		c5.2,41.8,41,74.3,84.2,74.3h11.5c24.2-13.1,46.1-30.1,64.8-50h-76.3c-19.2,0-34.9-15.7-34.9-34.9V394
		C342.8,400.9,356.1,404.9,370.3,404.9z"/>
	<g>
		<g>
			<ellipse class="st6" cx="197.4" cy="157.9" rx="17.3" ry="17.3"/>
		</g>
		<g>
			<ellipse class="st7" cx="314.6" cy="158" rx="17.3" ry="17.3"/>
		</g>
	</g>
	<g>
		<ellipse class="st8" cx="254.6" cy="214.3" rx="37.8" ry="44"/>
	</g>
	<g>
		<path class="st8" d="M254.6,170.3c-20.9,0-37.8,19.7-37.8,44s16.9,44,37.8,44c0.5,0,0.9,0,1.4,0v-88
			C255.5,170.3,255.1,170.3,254.6,170.3L254.6,170.3z"/>
		<path class="st9" d="M292.4,214.3c0-23.8-16.2-43.1-36.4-44v88C276.2,257.5,292.4,238.1,292.4,214.3z"/>
	</g>
</g>
</svg>
