<?xml version="1.0" encoding="utf-8"?>
<!-- Generator: Adobe Illustrator 25.2.0, SVG Export Plug-In . SVG Version: 6.00 Build 0)  -->
<svg version="1.1" id="Capa_1" xmlns="http://www.w3.org/2000/svg" xmlns:xlink="http://www.w3.org/1999/xlink" x="0px" y="0px"
	 viewBox="0 0 512 512" style="enable-background:new 0 0 512 512;" xml:space="preserve">
<style type="text/css">
	.st0{display:none;}
	.st1{display:inline;}
	.st2{fill:#FFCE00;}
	.st3{fill:#231F20;}
	.st4{display:inline;fill:#00D65B;}
	.st5{display:inline;fill:#06BF51;}
	.st6{display:inline;fill:#FFFFFF;}
	.st7{display:inline;fill:#E9EDF5;}
	.st8{display:inline;fill:#707789;}
	.st9{display:inline;fill:#555A66;}
</style>
<g>
	<g class="st0">
		<g class="st1">
			<g>
				<g>
					<g>
						<g>
							<g>
								<g>
									<path class="st2" d="M512,256C512,114.6,397.4,0,256,0S0,114.6,0,256c0,91.9,48.4,172.5,121.1,217.6h269.7
										C463.6,428.5,512,347.9,512,256z"/>
								</g>
							</g>
						</g>
					</g>
				</g>
			</g>
		</g>
	</g>
	<path class="st3" d="M512,256c0-16.9-1.6-33.5-4.8-49.5L386.5,85.7l-37.2,177.2L172.1,85.7l-36.8,387.9h255.6
		C463.6,428.4,512,347.9,512,256L512,256z"/>
	<g class="st0">
		<path class="st4" d="M363.2,73.5c-15.7,0-28.3,12.7-28.3,28.3V168H177.2v-66.1c0-15.7-12.7-28.3-28.3-28.3s-28.3,12.7-28.3,28.3
			v371.3C159.8,497.8,206.2,512,256,512s96.2-14.2,135.5-38.8V101.9C391.5,86.2,378.8,73.5,363.2,73.5L363.2,73.5z"/>
	</g>
	<g class="st0">
		<path class="st5" d="M391.5,101.9c0-15.7-12.7-28.3-28.3-28.3s-28.3,12.7-28.3,28.3V168h-78.7v344c49.7,0,96.1-14.2,135.4-38.8
			V101.9z"/>
	</g>
	<g class="st0">
		<circle class="st6" cx="256" cy="282.7" r="70.4"/>
	</g>
	<g class="st0">
		<path class="st7" d="M326.4,282.7c0-38.8-31.4-70.3-70.2-70.4v140.7C294.9,353,326.4,321.5,326.4,282.7L326.4,282.7z"/>
	</g>
	<g class="st0">
		<circle class="st8" cx="256" cy="282.7" r="31.3"/>
	</g>
	<g class="st0">
		<path class="st9" d="M287.3,282.7c0-17.3-14-31.3-31.2-31.3V314C273.4,314,287.3,300,287.3,282.7z"/>
	</g>
	<g class="st0">
		<path class="st6" d="M256,422.1c-37.2,0-72.2-14.5-98.5-40.8l21.2-21.2c20.7,20.7,48.1,32,77.3,32s56.7-11.4,77.3-32l21.2,21.2
			C328.2,407.6,293.2,422.1,256,422.1z"/>
	</g>
	<g class="st0">
		<path class="st7" d="M333.3,360c-20.6,20.6-48,32-77.2,32v30c37.2,0,72.1-14.5,98.4-40.8L333.3,360z"/>
	</g>
</g>
</svg>
