<?xml version="1.0" encoding="utf-8"?>
<!-- Generator: Adobe Illustrator 25.2.0, SVG Export Plug-In . SVG Version: 6.00 Build 0)  -->
<svg version="1.1" id="Capa_1" xmlns="http://www.w3.org/2000/svg" xmlns:xlink="http://www.w3.org/1999/xlink" x="0px" y="0px"
	 viewBox="0 0 512 512" style="enable-background:new 0 0 512 512;" xml:space="preserve">
<style type="text/css">
	.st0{display:none;}
	.st1{display:inline;}
	.st2{fill:#FFCE00;}
	.st3{opacity:0.33;fill:#231F20;}
	.st4{fill:#5E00D8;}
	.st5{fill:#5600C6;}
	.st6{fill:#994AFF;}
	.st7{fill:#812AF2;}
	.st8{fill:#E9EDF5;}
	.st9{fill:#FFFFFF;}
</style>
<g>
	<g class="st0">
		<g class="st1">
			<g>
				<g>
					<g>
						<g>
							<g>
								<path class="st2" d="M512,256C512,114.6,397.4,0,256,0S0,114.6,0,256c0,85.7,42.1,161.6,106.8,208h298.4
									C469.9,417.6,512,341.7,512,256z"/>
							</g>
						</g>
					</g>
				</g>
			</g>
		</g>
	</g>
	<path class="st3" d="M510.5,283.6L395,168l-4.3,5.1L282.9,65.3L135,311.1l153,153h117.2C462.8,422.6,502.6,357.9,510.5,283.6
		L510.5,283.6z"/>
	<g>
		<path class="st4" d="M296.4,283.6h-80.8V410l-97.1,35.8c-7.4,2.7-12.4,9.8-12.4,17.8C148.3,494,200,512,256,512
			s107.7-18,149.9-48.4c0-7.9-4.9-15-12.4-17.8L296.4,410V283.6z"/>
	</g>
	<g>
		<path class="st5" d="M393.5,445.8L296.4,410V283.6h-40.3V512c55.9,0,107.6-18,149.7-48.4C405.9,455.6,400.9,448.5,393.5,445.8
			L393.5,445.8z"/>
	</g>
	<g>
		<path class="st6" d="M327.2,138.9h-44.3V65.3h-53.8v73.7h-43.5c-51.6,0-93.5,41.9-93.5,93.5s41.9,93.5,93.5,93.5h141.6
			c51.6,0,93.5-41.9,93.5-93.5C420.7,180.8,378.9,138.9,327.2,138.9L327.2,138.9z"/>
	</g>
	<g>
		<path class="st7" d="M327.2,138.9h-44.3V65.3h-26.8v260.6h71.1c51.6,0,93.5-41.9,93.5-93.5C420.7,180.8,378.9,138.9,327.2,138.9
			L327.2,138.9z"/>
	</g>
	<g>
		<g>
			<path class="st8" d="M392.7,252.9c0,0-25,29-55.9,29s-55.9-29-55.9-29s25-29,55.9-29S392.7,252.9,392.7,252.9z"/>
		</g>
		<g>
			<path class="st9" d="M231.2,252.9c0,0-25,29-55.9,29s-55.9-29-55.9-29s25-29,55.9-29S231.2,252.9,231.2,252.9z"/>
		</g>
	</g>
	<g>
		<g>
			<path class="st4" d="M220.6,275.1h70.8v30h-70.8L220.6,275.1z"/>
		</g>
	</g>
	<g>
		<g>
			<path class="st5" d="M256.1,275.1h35.3v30h-35.3V275.1z"/>
		</g>
	</g>
</g>
</svg>
