<?xml version="1.0" encoding="utf-8"?>
<!-- Generator: Adobe Illustrator 25.2.0, SVG Export Plug-In . SVG Version: 6.00 Build 0)  -->
<svg version="1.1" id="Capa_1" xmlns="http://www.w3.org/2000/svg" xmlns:xlink="http://www.w3.org/1999/xlink" x="0px" y="0px"
	 viewBox="0 0 512 512" style="enable-background:new 0 0 512 512;" xml:space="preserve">
<style type="text/css">
	.st0{fill:#FFCE00;}
	.st1{fill:#FFA300;}
	.st2{fill:#555A66;}
	.st3{fill:#333940;}
	.st4{fill:#636978;}
	.st5{fill:#414952;}
	.st6{fill:#7E8596;}
</style>
<g>
	<g>
		<g>
			<g>
				<g>
					<g>
						<g>
							<g>
								<g>
									<g>
										<circle class="st0" cx="256" cy="256" r="256"/>
									</g>
								</g>
							</g>
						</g>
					</g>
				</g>
			</g>
		</g>
	</g>
	<path class="st1" d="M512,256c0-11-0.7-21.8-2-32.4l-74.3-74.3l-11.3,12.4L369,106.2l-216,63.8L266.9,284l-8.6,14.9L118.5,159.1
		l-29.6,32.3l81.2,81.2l-20.8,10.7L221,355l-68,63.3l93.5,93.5c3.1,0.1,6.3,0.2,9.5,0.2C397.4,512,512,397.4,512,256z"/>
	<g>
		<path class="st2" d="M359,162.2c0,0-119.1,89.9,0,187.7H153c119.1-97.7,0-187.7,0-187.7H359z"/>
	</g>
	<g>
		<path class="st3" d="M359,162.2H256.1v187.7H359C239.9,252.1,359,162.2,359,162.2z"/>
	</g>
	<g>
		<ellipse class="st4" cx="256" cy="132.7" rx="122.2" ry="69.4"/>
	</g>
	<g>
		<path class="st5" d="M378.2,132.7c0-38.3-54.6-69.4-122.1-69.4v138.8C323.5,202.1,378.2,171,378.2,132.7z"/>
	</g>
	<g>
		<ellipse class="st6" cx="256" cy="132.7" rx="90" ry="42.9"/>
	</g>
	<g>
		<path class="st4" d="M346,132.7c0-23.7-40.2-42.8-89.9-42.9v85.7C305.8,175.6,346,156.4,346,132.7L346,132.7z"/>
	</g>
	<g>
		<ellipse class="st2" cx="256" cy="132.7" rx="41.6" ry="19.8"/>
	</g>
	<g>
		<path class="st3" d="M297.6,132.7c0-10.9-18.5-19.8-41.5-19.8v39.6C279,152.5,297.6,143.6,297.6,132.7z"/>
	</g>
	<g>
		<ellipse class="st4" cx="256" cy="381" rx="122.2" ry="69.4"/>
	</g>
	<g>
		<path class="st5" d="M378.2,381c0-38.3-54.6-69.4-122.1-69.4v138.8C323.5,450.3,378.2,419.3,378.2,381z"/>
	</g>
	<g>
		<ellipse class="st6" cx="256" cy="381" rx="90" ry="42.9"/>
	</g>
	<g>
		<path class="st4" d="M346,381c0-23.7-40.2-42.8-89.9-42.9v85.7C305.8,423.8,346,404.6,346,381L346,381z"/>
	</g>
	<g>
		<ellipse class="st2" cx="256" cy="381" rx="41.6" ry="19.8"/>
	</g>
	<g>
		<path class="st3" d="M297.6,381c0-10.9-18.5-19.8-41.5-19.8v39.6C279,400.7,297.6,391.9,297.6,381z"/>
	</g>
	<g>
		<circle class="st2" cx="100" cy="171.8" r="22.5"/>
	</g>
	<g>
		<circle class="st2" cx="158.6" cy="269.6" r="16.6"/>
	</g>
	<g>
		<circle class="st3" cx="388.3" cy="241.2" r="23.5"/>
	</g>
	<g>
		<circle class="st3" cx="415.7" cy="315.5" r="13.7"/>
	</g>
	<g>
		<circle class="st3" cx="423.5" cy="159.1" r="15.6"/>
	</g>
</g>
</svg>
