<?xml version="1.0" encoding="utf-8"?>
<!-- Generator: Adobe Illustrator 25.2.0, SVG Export Plug-In . SVG Version: 6.00 Build 0)  -->
<svg version="1.1" id="Capa_1" xmlns="http://www.w3.org/2000/svg" xmlns:xlink="http://www.w3.org/1999/xlink" x="0px" y="0px"
	 viewBox="0 0 512 512" style="enable-background:new 0 0 512 512;" xml:space="preserve">
<style type="text/css">
	.st0{display:none;}
	.st1{display:inline;}
	.st2{fill:#FE6A16;}
	.st3{opacity:0.33;fill:#231F20;}
	.st4{fill:#23272B;}
	.st5{fill:#414952;}
	.st6{fill:#555A66;}
	.st7{fill:#333940;}
	.st8{fill:#FFFFFF;}
	.st9{fill:#E9EDF5;}
	.st10{fill:#0C0E0F;}
	.st11{fill:#9196AA;}
	.st12{fill:#707789;}
</style>
<g>
	<g class="st0">
		<g class="st1">
			<g>
				<g>
					<g>
						<g>
							<g>
								<g>
									<circle class="st2" cx="256" cy="256" r="256"/>
								</g>
							</g>
						</g>
					</g>
				</g>
			</g>
		</g>
	</g>
	<path class="st3" d="M512,256c0-12.6-0.9-25.1-2.7-37.2L386.6,96l-13,29.7l-52.1-52.1l-24.3,52.3L239.3,68l-23.6,81.6l-50.6-50.6
		l-43.4,39.5l34.9,34.9l-74.7,36.4l52.7,52.7l-25.5,9.3l67.3,67.3l-37.5,89.2l81.3,81.3c11.7,1.6,23.7,2.5,35.9,2.5
		C397.4,512,512,397.4,512,256L512,256z"/>
	<g>
		<circle class="st4" cx="412.4" cy="186.5" r="29.3"/>
	</g>
	<g>
		<circle class="st4" cx="295.3" cy="86.8" r="29.3"/>
	</g>
	<g>
		<circle class="st4" cx="368.4" cy="119" r="29.3"/>
	</g>
	<g>
		<circle class="st5" cx="99.6" cy="186.5" r="29.3"/>
	</g>
	<g>
		<circle class="st5" cx="216.7" cy="86.8" r="29.3"/>
	</g>
	<g>
		<circle class="st5" cx="143.6" cy="119" r="29.3"/>
	</g>
	<g>
		<path class="st6" d="M419.2,233.1c0-62.1-73.1-147.6-163.2-147.6S92.8,171,92.8,233.1c0,27.5,14.3,42.3,38.1,50.3v122.7
			c0,19.2,15.6,34.8,34.8,34.8s34.8-15.6,34.8-34.8V292.4c6.7,0.2,13.5,0.3,20.6,0.3v139.4c0,19.2,15.6,34.8,34.8,34.8
			s34.8-15.6,34.8-34.8V292.7c7,0,13.9-0.1,20.6-0.3v113.7c0,19.2,15.6,34.8,34.8,34.8s34.8-15.6,34.8-34.8V283.4
			C404.9,275.4,419.2,260.5,419.2,233.1L419.2,233.1z"/>
	</g>
	<g>
		<path class="st7" d="M256,85.5c-0.1,0-0.1,0-0.2,0v381.5c0.1,0,0.1,0,0.2,0c19.2,0,34.8-15.6,34.8-34.8V292.7
			c7,0,13.9-0.1,20.6-0.3v113.7c0,19.2,15.6,34.8,34.8,34.8s34.8-15.6,34.8-34.8V283.4c23.8-8,38.1-22.8,38.1-50.3
			C419.2,171,346.1,85.5,256,85.5L256,85.5z"/>
	</g>
	<g>
		<circle class="st8" cx="256" cy="189.9" r="52.8"/>
	</g>
	<g>
		<path class="st9" d="M256,137.1c-0.1,0-0.1,0-0.2,0v105.5c0.1,0,0.1,0,0.2,0c29.1,0,52.8-23.6,52.8-52.8
			C308.8,160.7,285.1,137.1,256,137.1L256,137.1z"/>
	</g>
	<g>
		
			<ellipse transform="matrix(0.1602 -0.9871 0.9871 0.1602 27.5662 412.1581)" class="st7" cx="256" cy="189.9" rx="27.8" ry="27.8"/>
	</g>
	<g>
		<path class="st10" d="M256,162.1c-0.1,0-0.1,0-0.2,0v55.6c0.1,0,0.1,0,0.2,0c15.3,0,27.8-12.4,27.8-27.8S271.3,162.1,256,162.1z"
			/>
	</g>
	<g>
		<path class="st11" d="M329.3,247.7H182.7c-16.2,0-29.3-13.1-29.3-29.3c0-16.2,13.1-29.3,29.3-29.3h146.6
			c16.2,0,29.3,13.1,29.3,29.3S345.5,247.7,329.3,247.7L329.3,247.7z"/>
	</g>
	<g>
		<path class="st12" d="M329.3,189.1h-73.5v58.6h73.5c16.2,0,29.3-13.1,29.3-29.3S345.5,189.1,329.3,189.1L329.3,189.1z"/>
	</g>
</g>
</svg>
