<?xml version="1.0" encoding="utf-8"?>
<!-- Generator: Adobe Illustrator 25.2.0, SVG Export Plug-In . SVG Version: 6.00 Build 0)  -->
<svg version="1.1" id="Capa_1" xmlns="http://www.w3.org/2000/svg" xmlns:xlink="http://www.w3.org/1999/xlink" x="0px" y="0px"
	 viewBox="0 0 512 512" style="enable-background:new 0 0 512 512;" xml:space="preserve">
<style type="text/css">
	.st0{fill:#994AFF;}
	.st1{fill:#5E00D8;}
	.st2{fill:#FE8205;}
	.st3{fill:#FA5D0F;}
	.st4{fill:#FFCE00;}
	.st5{fill:#FDBA12;}
	.st6{fill:#FFFFFF;}
	.st7{fill:#E9EDF5;}
	.st8{fill:#FE6A16;}
	.st9{fill:#F24500;}
	.st10{fill:#414952;}
	.st11{fill:#23272B;}
	.st12{fill:#FF9500;}
</style>
<g>
	<g>
		<g>
			<g>
				<g>
					<g>
						<g>
							<g>
								<g>
									<circle class="st0" cx="256" cy="256" r="256"/>
								</g>
							</g>
						</g>
					</g>
				</g>
			</g>
		</g>
	</g>
	<path class="st1" d="M512,256c0-27.9-4.5-54.8-12.7-80L390.8,67.6l-4.3,34.7l-51.7-51.7l-16.6,131.4L202.7,66.4l-31,45.8
		l-26.6-26.6l-18.5,8.6l-13,285l-18.4,7.9l122,122c12.6,1.9,25.6,2.9,38.8,2.9C397.4,512,512,397.4,512,256z"/>
	<g>
		<path class="st2" d="M134.1,283l-27.6-11.8c15.2-35.6,12-56.7-1.2-107.8c-14.2-55.1,14.6-94.2,15.9-95.8l23.9,18.1l0.1-0.1
			c-0.9,1.2-21.3,29.6-10.8,70.3C147.7,207.8,153.8,237,134.1,283z"/>
	</g>
	<g>
		<path class="st3" d="M377.9,283c-19.7-46-13.6-75.2-0.3-127.1c10.5-40.7-10-69.1-10.8-70.3l12-9l12-9c1.2,1.6,30.1,40.7,15.9,95.8
			c-13.2,51.1-16.4,72.2-1.2,107.8L377.9,283z"/>
	</g>
	<g>
		<path class="st2" d="M197.2,193.7l-28.3-10c7.9-22.4,6.3-35-0.8-68.2c-7.9-37.2,8.4-63.9,9.1-65l25.4,15.9
			c-0.4,0.7-10.5,18-5.2,42.9C204.6,142.6,208.1,163,197.2,193.7z"/>
	</g>
	<g>
		<path class="st3" d="M314.8,193.7c-10.9-30.7-7.4-51.1-0.3-84.4c5.3-25-5.1-42.7-5.2-42.9l25.4-15.9c0.7,1.1,17.1,27.8,9.1,65
			c-7.1,33.2-8.7,45.8-0.8,68.2L314.8,193.7z"/>
	</g>
	<g>
		<path class="st4" d="M449.3,312.1c0,74.7-86.5,135.2-193.2,135.2S62.7,386.7,62.7,312.1S256,98,256,98S449.3,237.4,449.3,312.1z"
			/>
	</g>
	<g>
		<path class="st5" d="M449.3,312.1c0-74-190.1-211.8-193.2-214v349.2C362.7,447.2,449.3,386.7,449.3,312.1L449.3,312.1z"/>
	</g>
	<g>
		<path class="st6" d="M378.6,306.8c0,0-54.9,63.6-122.6,63.6s-122.6-63.6-122.6-63.6s54.9-63.6,122.6-63.6S378.6,306.8,378.6,306.8
			z"/>
	</g>
	<g>
		<path class="st7" d="M378.6,306.8c0,0-54.9-63.6-122.6-63.6v127.3C323.7,370.4,378.6,306.8,378.6,306.8z"/>
	</g>
	<g>
		<path class="st8" d="M304.8,306.8c0,27-21.8,48.8-48.8,48.8s-48.8-21.9-48.8-48.8S229.1,258,256,258S304.8,279.8,304.8,306.8z"/>
	</g>
	<g>
		<path class="st9" d="M304.8,306.8c0-27-21.9-48.8-48.8-48.8v97.7C283,355.6,304.8,333.8,304.8,306.8z"/>
	</g>
	<g>
		<path class="st10" d="M278.7,306.8c0,12.5-10.1,22.7-22.7,22.7s-22.7-10.2-22.7-22.7s10.2-22.7,22.7-22.7S278.7,294.3,278.7,306.8
			z"/>
	</g>
	<g>
		<path class="st11" d="M278.7,306.8c0-12.5-10.2-22.7-22.7-22.7v45.4C268.5,329.5,278.7,319.3,278.7,306.8z"/>
	</g>
	<g>
		<path class="st12" d="M256,243.2c-46.8,0-87.5,30.4-108.1,49.2h216.2C343.4,273.5,302.8,243.2,256,243.2L256,243.2z"/>
	</g>
	<g>
		<path class="st8" d="M256,243.2v49.2h108.1C343.4,273.5,302.8,243.2,256,243.2z"/>
	</g>
</g>
</svg>
