<?xml version="1.0" encoding="utf-8"?>
<!-- Generator: Adobe Illustrator 25.2.0, SVG Export Plug-In . SVG Version: 6.00 Build 0)  -->
<svg version="1.1" id="Capa_1" xmlns="http://www.w3.org/2000/svg" xmlns:xlink="http://www.w3.org/1999/xlink" x="0px" y="0px"
	 viewBox="0 0 512 512" style="enable-background:new 0 0 512 512;" xml:space="preserve">
<style type="text/css">
	.st0{fill:#994AFF;}
	.st1{fill:#5E00D8;}
	.st2{fill:#E9EDF5;}
	.st3{fill:#CDD2E1;}
	.st4{fill:#FFFFFF;}
	.st5{fill:#A3D4FF;}
	.st6{fill:#65B1FC;}
	.st7{fill:#AFB4C8;}
</style>
<g>
	<g>
		<g>
			<g>
				<g>
					<g>
						<g>
							<g>
								<g>
									<ellipse class="st0" cx="255.9" cy="256" rx="256" ry="256"/>
								</g>
							</g>
						</g>
					</g>
				</g>
			</g>
		</g>
	</g>
	<path class="st1" d="M512,256c0-24.1-3.3-47.4-9.5-69.5l-60.1-60.1l-105.6,31.9l79.3,79.3L408,272l-82.1-82.3l-32,38.4L175.2,109.4
		l-66.4,23.3L69.6,385.6l116.9,116.9c22.1,6.2,45.4,9.5,69.5,9.5C397.4,512,512,397.4,512,256L512,256z"/>
	<g>
		<path class="st2" d="M104.5,225.7h303v60.6h-303L104.5,225.7z"/>
	</g>
	<g>
		<path class="st3" d="M256.1,225.7h151.4v60.6H256.1L256.1,225.7z"/>
	</g>
	<g>
		<circle class="st4" cx="256" cy="256" r="96.4"/>
	</g>
	<g>
		<path class="st2" d="M352.4,256c0-53.2-43.1-96.3-96.2-96.4v192.7C309.3,352.3,352.4,309.2,352.4,256L352.4,256z"/>
	</g>
	<g>
		<circle class="st5" cx="256" cy="256" r="44.8"/>
	</g>
	<g>
		<path class="st6" d="M300.8,256c0-24.7-20-44.8-44.7-44.8v89.6C280.8,300.8,300.8,280.7,300.8,256z"/>
	</g>
	<g>
		<g>
			<path class="st3" d="M175.2,158.3v-48.9l-105.6,17v259.2l105.6,17v-48.9h-48.9V158.3L175.2,158.3z"/>
		</g>
		<g>
			<path class="st7" d="M336.8,353.7v48.9l105.6-17V126.4l-105.6-17v48.9h48.9v195.5L336.8,353.7z"/>
		</g>
	</g>
</g>
</svg>
