<?xml version="1.0" encoding="utf-8"?>
<!-- Generator: Adobe Illustrator 25.2.0, SVG Export Plug-In . SVG Version: 6.00 Build 0)  -->
<svg version="1.1" id="Capa_1" xmlns="http://www.w3.org/2000/svg" xmlns:xlink="http://www.w3.org/1999/xlink" x="0px" y="0px"
	 viewBox="0 0 512 512" style="enable-background:new 0 0 512 512;" xml:space="preserve">
<style type="text/css">
	.st0{fill:#FFCE00;}
	.st1{fill:#FFA300;}
	.st2{fill:#D13400;}
	.st3{fill:#F24500;}
	.st4{fill:#FE6A16;}
	.st5{fill:#FFFFFF;}
	.st6{fill:#E9EDF5;}
	.st7{fill:#707789;}
	.st8{fill:#555A66;}
	.st9{fill:#414952;}
	.st10{fill:#23272B;}
</style>
<g>
	<g>
		<g>
			<g>
				<g>
					<g>
						<g>
							<g>
								<g>
									<circle class="st0" cx="256" cy="256" r="256"/>
								</g>
							</g>
						</g>
					</g>
				</g>
			</g>
		</g>
	</g>
	<path class="st1" d="M511.8,267.4l-106-106l-3.9,5.4l-58.4-58.4l-220.5,49L89.6,256l-43.5,41.7l88.7,88.7l-54,6.8l110.6,110.6
		c20.7,5.4,42.3,8.2,64.7,8.2C393.6,512,505.8,403.5,511.8,267.4L511.8,267.4z"/>
	<path class="st2" d="M428.8,247.1v-32c0-40.8-33.2-74-74-74h-17.2v30h17.2c24.3,0,44,19.7,44,44v31.5
		c-22.5,6.2-39.1,26.8-39.1,51.2h30c0-12.7,10.4-23.1,23.1-23.1s23.1,10.4,23.1,23.1h30C465.9,274,450.3,253.9,428.8,247.1z"/>
	<path class="st3" d="M157.2,141c-40.8,0-74,33.2-74,74v32c-21.5,6.8-37.1,26.9-37.1,50.7h30c0-12.7,10.4-23.1,23.1-23.1
		s23.1,10.4,23.1,23.1h30c0-24.4-16.6-45.1-39.1-51.2V215c0-24.3,19.7-44,44-44h17.2v-30L157.2,141L157.2,141z"/>
	<g>
		<path class="st4" d="M422,355.6c-8.4,7.4-19.1,11.5-30.3,11.5c-23.4,0-43.1-17.8-45.4-41.1l-5-49.6
			c14.5-38.2,23.2-78.5,23.2-103.8c0-59.9-48.6-108.5-108.5-108.5s-108.5,48.6-108.5,108.5c0,25.3,8.7,65.7,23.2,103.8l-5,49.6
			c-2.3,23.3-22,41.1-45.4,41.1c-11.2,0-22-4.1-30.3-11.5l-39.8-35.4l15.3,46c10.8,32.3,40.5,54.5,74.5,55.6
			c29.2,1,56.1-13.7,71.3-37.6c16.1,46,44.7,102.1,44.7,102.1s28.6-56.2,44.7-102.1c15.2,23.8,42.1,38.5,71.3,37.6
			c34-1.1,63.7-23.3,74.5-55.6l15.3-46L422,355.6z"/>
	</g>
	<g>
		<path class="st3" d="M422,355.6c-8.4,7.4-19.1,11.5-30.3,11.5c-23.4,0-43.1-17.8-45.4-41.1l-5-49.6
			c14.5-38.2,23.2-78.5,23.2-103.8c0-59.9-48.6-108.5-108.5-108.5l0,422.2c1-1.9,28.9-57,44.7-102.1c15.2,23.8,42.1,38.5,71.3,37.6
			c34-1.1,63.7-23.3,74.5-55.6l15.3-46L422,355.6z"/>
	</g>
	<g>
		<circle class="st5" cx="256" cy="152.1" r="52.8"/>
	</g>
	<g>
		<path class="st6" d="M308.8,152.1c0-29.1-23.6-52.8-52.8-52.8v105.6C285.2,204.8,308.8,181.2,308.8,152.1z"/>
	</g>
	<g>
		
			<ellipse transform="matrix(0.1602 -0.9871 0.9871 0.1602 64.8702 380.4198)" class="st7" cx="256" cy="152.1" rx="27.8" ry="27.8"/>
	</g>
	<g>
		<path class="st8" d="M283.8,152.1c0-15.3-12.4-27.8-27.8-27.8v55.6C271.4,179.9,283.8,167.4,283.8,152.1z"/>
	</g>
	<g>
		<path class="st9" d="M211,221.1H301v30H211L211,221.1z"/>
	</g>
	<g>
		<path class="st10" d="M256,221.1H301v30H256V221.1z"/>
	</g>
</g>
</svg>
