<?xml version="1.0" encoding="utf-8"?>
<!-- Generator: Adobe Illustrator 25.2.0, SVG Export Plug-In . SVG Version: 6.00 Build 0)  -->
<svg version="1.1" id="Capa_1" xmlns="http://www.w3.org/2000/svg" xmlns:xlink="http://www.w3.org/1999/xlink" x="0px" y="0px"
	 viewBox="0 0 512 512" style="enable-background:new 0 0 512 512;" xml:space="preserve">
<style type="text/css">
	.st0{fill:#994AFF;}
	.st1{fill:#5E00D8;}
	.st2{fill:#DCE1EB;}
	.st3{fill:#BEC3D2;}
	.st4{fill:#00D65B;}
	.st5{fill:#06BF51;}
	.st6{fill:#09AF4C;}
	.st7{fill:#0A9154;}
	.st8{fill:#FFFFFF;}
	.st9{fill:#E9EDF5;}
	.st10{fill:#414952;}
	.st11{fill:#23272B;}
	.st12{fill:#2AF27A;}
	.st13{fill:#02CC4A;}
</style>
<g>
	<g>
		<g>
			<g>
				<g>
					<g>
						<g>
							<g>
								<g>
									<path class="st0" d="M394.6,471.3C354.6,497.1,307.1,512,256,512c-51.1,0-98.7-15-138.6-40.8l-29.8-22.5
										C33.9,401.9,0,332.9,0,256C0,114.6,114.6,0,256,0s256,114.6,256,256c0,76.9-33.9,145.9-87.6,192.8L394.6,471.3z"/>
								</g>
							</g>
						</g>
					</g>
				</g>
			</g>
		</g>
	</g>
	<path class="st1" d="M424.4,448.8c49.6-43.4,82.4-105.6,87-175.5L336.1,98.1L106,288l11.6,183.3C157.5,497.1,205,512,256,512
		c51,0,98.6-14.9,138.5-40.7L424.4,448.8z"/>
	<g>
		<path class="st2" d="M87.6,298.9v149.9c9.4,8.2,19.4,15.8,30,22.6V298.9c0-13.9,11.3-25.2,25.2-25.2h33.1v-30h-33.1
			C112.3,243.6,87.6,268.4,87.6,298.9L87.6,298.9z"/>
	</g>
	<g>
		<path class="st3" d="M369.2,243.6h-33.1v30h33.1c13.9,0,25.2,11.3,25.2,25.2v172.5c10.6-6.8,20.6-14.4,30-22.6V298.9
			C424.4,268.4,399.7,243.6,369.2,243.6z"/>
	</g>
	<g>
		<path class="st4" d="M366.1,326.8l-135.8,0.7l-84.4-0.7V173.6c0-60.8,49.3-110.1,110.1-110.1s110.1,49.3,110.1,110.1L366.1,326.8
			L366.1,326.8z"/>
	</g>
	<g>
		<path class="st5" d="M366.1,173.6c0-60.8-49.2-110.1-110-110.1V328h106.5l3.5-1.2L366.1,173.6L366.1,173.6z"/>
	</g>
	<g>
		<path class="st6" d="M319.5,357.3c17.8,0,32.2-14.4,32.2-32.2c0-16.4-12.3-29.9-28.1-31.9c-4.3-12.7-16.3-21.8-30.5-21.8
			c-4.5,0-8.7,0.9-12.6,2.6c-5.9-7-14.7-11.4-24.5-11.4s-18.6,4.4-24.5,11.4c-3.9-1.6-8.1-2.6-12.6-2.6c-14.1,0-26.1,9.1-30.4,21.8
			c-15.9,2-28.1,15.5-28.1,31.9c0,17.8,14.4,32.2,32.2,32.2H319.5z"/>
	</g>
	<g>
		<path class="st7" d="M323.6,293.2c-4.3-12.7-16.3-21.8-30.5-21.8c-4.5,0-8.7,0.9-12.6,2.6c-5.9-6.9-14.6-11.3-24.4-11.4v94.6h63.4
			c17.8,0,32.2-14.4,32.2-32.2C351.7,308.8,339.4,295.2,323.6,293.2L323.6,293.2z"/>
	</g>
	<g>
		<path class="st8" d="M145.9,326.8c0,36.6,20.2,68.4,50.1,85c4.1,27.4,27.7,48.5,56.3,48.5h7.3c28.6,0,52.2-21,56.3-48.5
			c29.9-16.5,50.1-48.4,50.1-85H145.9z"/>
	</g>
	<g>
		<path class="st9" d="M256.1,326.8v133.5h3.5c28.6,0,52.2-21,56.3-48.5c29.9-16.5,50.1-48.4,50.1-85L256.1,326.8L256.1,326.8z"/>
	</g>
	<g>
		<g>
			<ellipse transform="matrix(0.436 -0.9 0.9 0.436 -217.2296 393.7756)" class="st10" cx="205.5" cy="370.2" rx="25.2" ry="40.2"/>
		</g>
		<g>
			<ellipse transform="matrix(0.9 -0.436 0.436 0.9 -130.8198 170.6615)" class="st11" cx="306.5" cy="370.4" rx="40.2" ry="25.2"/>
		</g>
	</g>
	<g>
		<circle class="st12" cx="190.5" cy="226.4" r="16.6"/>
	</g>
	<g>
		<circle class="st13" cx="302.9" cy="109.1" r="12.7"/>
	</g>
	<g>
		<circle class="st13" cx="326.4" cy="237.1" r="13.7"/>
	</g>
	<g>
		<circle class="st12" cx="218.4" cy="136" r="9.3"/>
	</g>
	<g>
		
			<ellipse transform="matrix(0.1602 -0.9871 0.9871 0.1602 22.7159 412.9734)" class="st12" cx="254.1" cy="193.1" rx="15.6" ry="15.6"/>
	</g>
	<g>
		<path class="st13" d="M269.7,193.1c0-7.9-5.9-14.5-13.6-15.5v31C263.8,207.6,269.7,201.1,269.7,193.1z"/>
	</g>
</g>
</svg>
