<?xml version="1.0" encoding="utf-8"?>
<!-- Generator: Adobe Illustrator 25.2.0, SVG Export Plug-In . SVG Version: 6.00 Build 0)  -->
<svg version="1.1" id="Capa_1" xmlns="http://www.w3.org/2000/svg" xmlns:xlink="http://www.w3.org/1999/xlink" x="0px" y="0px"
	 viewBox="0 0 512 512" style="enable-background:new 0 0 512 512;" xml:space="preserve">
<style type="text/css">
	.st0{display:none;}
	.st1{display:inline;}
	.st2{fill:#FE6A16;}
	.st3{opacity:0.33;fill:#231F20;}
	.st4{fill:#A3D4FF;}
	.st5{fill:#65B1FC;}
	.st6{fill:#FFFFFF;}
	.st7{fill:#E9EDF5;}
	.st8{fill:#555A66;}
	.st9{fill:#333940;}
</style>
<g>
	<g class="st0">
		<g class="st1">
			<g>
				<g>
					<g>
						<g>
							<g>
								<g>
									<path class="st2" d="M256,0C114.6,0,0,114.6,0,256c0,68.1,26.6,129.9,69.9,175.8h372.2C485.4,385.9,512,324.1,512,256
										C512,114.6,397.4,0,256,0L256,0z"/>
								</g>
							</g>
						</g>
					</g>
				</g>
			</g>
		</g>
	</g>
	<path class="st3" d="M302.4,72.6l-89.4,91.1l54.1,54.1l-52,214h226.9c38-40.2,63.1-92.7,68.7-150.8L302.4,72.6z"/>
	<g>
		<path class="st4" d="M285.3,226.5v-53.4c20.5-10.6,34.5-32,34.5-56.7c0-35.3-28.6-63.9-63.9-63.9s-63.9,28.6-63.9,63.9
			c0,24.7,14,46.1,34.5,56.7v53.4c-64.7,20.3-121.1,105.2-157.5,204.5C115.9,480.9,182.3,512,256,512s140.1-31.1,186.8-80.9
			C406.4,331.8,350.1,246.8,285.3,226.5L285.3,226.5z"/>
	</g>
	<g>
		<path class="st5" d="M442.8,431.1c-36.4-99.3-92.7-184.2-157.5-204.5v-53.4c20.5-10.6,34.5-32,34.5-56.7
			c0-35.2-28.5-63.8-63.7-63.9V512C329.7,512,396.1,480.9,442.8,431.1z"/>
	</g>
	<g>
		<g>
			
				<ellipse transform="matrix(0.1602 -0.9871 0.9871 0.1602 103.9588 347.163)" class="st6" cx="256" cy="112.5" rx="37.1" ry="37.1"/>
		</g>
		<g>
			<path class="st7" d="M293.1,112.5c0-20.5-16.6-37.1-37-37.1v74.3C276.6,149.6,293.1,133,293.1,112.5z"/>
		</g>
		<g>
			<circle class="st8" cx="256" cy="112.5" r="16.8"/>
		</g>
		<g>
			<path class="st9" d="M272.8,112.5c0-9.3-7.5-16.8-16.7-16.8v33.7C265.4,129.3,272.8,121.7,272.8,112.5z"/>
		</g>
	</g>
	<g>
		<path class="st6" d="M162.7,341.3c0-45.4,41.8-82.3,93.3-82.3s93.3,36.8,93.3,82.3H162.7z"/>
	</g>
	<g>
		<path class="st7" d="M256.1,259.1v82.3h93.2C349.3,295.9,307.6,259.1,256.1,259.1z"/>
	</g>
</g>
</svg>
