<?xml version="1.0" encoding="utf-8"?>
<!-- Generator: Adobe Illustrator 25.2.0, SVG Export Plug-In . SVG Version: 6.00 Build 0)  -->
<svg version="1.1" id="Capa_1" xmlns="http://www.w3.org/2000/svg" xmlns:xlink="http://www.w3.org/1999/xlink" x="0px" y="0px"
	 viewBox="0 0 512 512" style="enable-background:new 0 0 512 512;" xml:space="preserve">
<style type="text/css">
	.st0{fill:#FFCE00;}
	.st1{fill:#FFA300;}
	.st2{fill:#06BF51;}
	.st3{fill:#0D9B50;}
	.st4{fill:#00D65B;}
	.st5{fill:#FFFFFF;}
	.st6{fill:#555A66;}
	.st7{fill:#E9EDF5;}
	.st8{fill:#333940;}
</style>
<g>
	<g>
		<g>
			<g>
				<g>
					<g>
						<g>
							<g>
								<g>
									<path class="st0" d="M512,256C512,114.6,397.4,0,256,0S0,114.6,0,256c0,86.7,43.1,163.3,109.1,209.6h293.9
										C468.9,419.3,512,342.7,512,256L512,256z"/>
								</g>
							</g>
						</g>
					</g>
				</g>
			</g>
		</g>
	</g>
	<path class="st1" d="M512,256c0-3.4-0.1-6.8-0.2-10.1l-83.2-83.2l-5,7.9l-88.7-88.7l-8.4,36.5l-36.5-36.5l-9.1,35.9l-35.9-35.9
		l-9.7,36.1l-32.6-32.6l-11.4,131.3L83.4,242.8l222.8,222.8h96.7C468.9,419.3,512,342.7,512,256z"/>
	<g>
		<path class="st2" d="M189.5,159.7c-8.3,0-15-6.7-15-15V92.6c0-8.3,6.7-15,15-15s15,6.7,15,15v52.1
			C204.5,153,197.8,159.7,189.5,159.7z"/>
	</g>
	<g>
		<path class="st2" d="M234.5,159.7c-8.3,0-15-6.7-15-15V92.6c0-8.3,6.7-15,15-15s15,6.7,15,15v52.1
			C249.5,153,242.8,159.7,234.5,159.7z"/>
	</g>
	<g>
		<path class="st3" d="M279.5,159.7c-8.3,0-15-6.7-15-15V92.6c0-8.3,6.7-15,15-15s15,6.7,15,15v52.1
			C294.5,153,287.7,159.7,279.5,159.7z"/>
	</g>
	<g>
		<path class="st3" d="M324.4,159.7c-8.3,0-15-6.7-15-15V92.6c0-8.3,6.7-15,15-15s15,6.7,15,15v52.1
			C339.4,153,332.7,159.7,324.4,159.7z"/>
	</g>
	<g>
		<path class="st2" d="M299,326.2h-86v54.7l-77.1,20.4c-15.6,4.1-26.5,18.2-26.5,34.4v30.2C150.9,495,201.5,512,256,512
			s105.1-17,146.6-46.1v-30.2c0-16.1-10.9-30.3-26.5-34.4L299,380.9L299,326.2L299,326.2z"/>
	</g>
	<g>
		<path class="st3" d="M402.6,435.7c0-16.1-10.9-30.3-26.5-34.4L299,380.9v-54.7h-42.9V512c54.5,0,105-17.1,146.5-46.1L402.6,435.7
			L402.6,435.7z"/>
	</g>
	<g>
		<g>
			<path class="st2" d="M83.4,242.8l107.5-17.6v-45L83.4,162.7V242.8z"/>
		</g>
		<g>
			<path class="st3" d="M428.6,242.8l-107.5-17.6v-45l107.5-17.6V242.8z"/>
		</g>
	</g>
	<g>
		<path class="st4" d="M256,375.7c-50.2,0-90.9-40.7-90.9-90.9V127.5h181.8v157.4C346.9,335,306.2,375.7,256,375.7z"/>
	</g>
	<g>
		<path class="st2" d="M256.1,127.5v248.3c50.1-0.1,90.8-40.7,90.8-90.9V127.5L256.1,127.5z"/>
	</g>
	<g>
		<g>
			<g>
				<circle class="st5" cx="171" cy="208.6" r="37.1"/>
			</g>
			<g>
				<circle class="st6" cx="171" cy="208.6" r="16.8"/>
			</g>
		</g>
		<g>
			<g>
				<circle class="st7" cx="341" cy="208.6" r="37.1"/>
			</g>
			<g>
				<circle class="st8" cx="341" cy="208.6" r="16.8"/>
			</g>
		</g>
	</g>
	<g>
		<g>
			
				<ellipse transform="matrix(0.1602 -0.9871 0.9871 0.1602 9.0918 427.8762)" class="st5" cx="256" cy="208.6" rx="37.1" ry="37.1"/>
		</g>
		<g>
			<path class="st7" d="M293.1,208.6c0-20.5-16.6-37.1-37-37.1v74.3C276.6,245.7,293.1,229.1,293.1,208.6z"/>
		</g>
		<g>
			<circle class="st6" cx="256" cy="208.6" r="16.8"/>
		</g>
		<g>
			<path class="st8" d="M272.8,208.6c0-9.3-7.5-16.8-16.7-16.8v33.7C265.4,225.4,272.8,217.9,272.8,208.6z"/>
		</g>
	</g>
	<g>
		<g>
			<path class="st2" d="M233.5,334.4c-8.3,0-15-6.7-15-15v-30c0-8.3,6.7-15,15-15s15,6.7,15,15v30
				C248.5,327.7,241.8,334.4,233.5,334.4z"/>
		</g>
		<g>
			<path class="st3" d="M278.5,334.4c-8.3,0-15-6.7-15-15v-30c0-8.3,6.7-15,15-15s15,6.7,15,15v30
				C293.5,327.7,286.8,334.4,278.5,334.4z"/>
		</g>
	</g>
</g>
</svg>
