<?xml version="1.0" encoding="utf-8"?>
<!-- Generator: Adobe Illustrator 25.2.0, SVG Export Plug-In . SVG Version: 6.00 Build 0)  -->
<svg version="1.1" id="Capa_1" xmlns="http://www.w3.org/2000/svg" xmlns:xlink="http://www.w3.org/1999/xlink" x="0px" y="0px"
	 viewBox="0 0 512 512" style="enable-background:new 0 0 512 512;" xml:space="preserve">
<style type="text/css">
	.st0{display:none;}
	.st1{display:inline;}
	.st2{fill:#994AFF;}
	.st3{opacity:0.33;fill:#231F20;}
	.st4{fill:#FFCE00;}
	.st5{fill:#FDBA12;}
	.st6{fill:#FFFFFF;}
	.st7{fill:#555A66;}
	.st8{fill:#E9EDF5;}
	.st9{fill:#333940;}
</style>
<g>
	<g class="st0">
		<g class="st1">
			<g>
				<g>
					<g>
						<g>
							<g>
								<circle class="st2" cx="256" cy="256" r="256"/>
							</g>
						</g>
					</g>
				</g>
			</g>
		</g>
	</g>
	<path class="st3" d="M512,256c0-5.5-0.2-11-0.5-16.4L364.9,93l-12.8,62.7l-72.4-72.4l-17,80.5L191.9,93l-51.4,232L81,346.6
		l165.3,165.3c3.2,0.1,6.5,0.2,9.7,0.2C397.4,512,512,397.4,512,256z"/>
	<g>
		<path class="st4" d="M420.9,222.8c-6.8,0-15.8,3.9-24.5,10.7c-8.8-9.6-19.9-18.1-32.9-25.4l-4.7-77.3c6.7-5,11-13,11-21.9
			c0-15.1-12.3-27.4-27.4-27.4s-27.4,12.3-27.4,27.4c0,9,4.3,16.9,11,21.9l-3.6,60.4c-14.4-4.1-30-7-46.3-8.3l-3.9-63.9
			c6.7-5,11-13,11-21.9c0-15.1-12.3-27.4-27.4-27.4S228.6,81.9,228.6,97c0,9,4.3,16.9,11,21.9l-3.9,63.9
			c-16.3,1.3-31.8,4.1-46.3,8.3l-3.6-60.4c6.7-5,11-13,11-21.9c0-15.1-12.3-27.4-27.4-27.4s-27.4,12.3-27.4,27.4
			c0,9,4.3,16.9,11,21.9l-4.7,77.3c-12.9,7.2-23.9,15.7-32.7,25.2c-8.6-6.6-17.5-10.4-24.2-10.4c-18.4,0-33.2,28.4-33.2,63.5
			s14.9,63.5,33.2,63.5c6.7,0,15.7-3.8,24.2-10.4c28.4,30.6,80.5,51.2,140.2,51.2c59.8,0,112.1-20.6,140.4-51.4
			c8.7,6.7,17.7,10.7,24.5,10.7c18.4,0,33.2-28.4,33.2-63.5S439.3,222.8,420.9,222.8z"/>
	</g>
	<g>
		<path class="st5" d="M420.9,222.8c-6.8,0-15.8,3.9-24.5,10.7c-8.8-9.6-19.9-18.1-32.9-25.4l-4.7-77.3c6.7-5,11-13,11-21.9
			c0-15.1-12.3-27.4-27.4-27.4s-27.4,12.3-27.4,27.4c0,9,4.3,16.9,11,21.9l-3.6,60.4c-14.4-4.1-30-7-46.3-8.3l-3.9-63.9
			c6.7-5,11-13,11-21.9c0-15.1-12.2-27.3-27.2-27.4v320.9c59.8,0,112-20.6,140.3-51.4c8.7,6.7,17.7,10.7,24.5,10.7
			c18.4,0,33.2-28.4,33.2-63.5S439.3,222.8,420.9,222.8L420.9,222.8z"/>
	</g>
	<g>
		<g>
			<g>
				<circle class="st6" cx="171" cy="268" r="37.1"/>
			</g>
			<g>
				<circle class="st7" cx="171" cy="268" r="16.8"/>
			</g>
		</g>
		<g>
			<g>
				<circle class="st8" cx="341" cy="268" r="37.1"/>
			</g>
			<g>
				<circle class="st9" cx="341" cy="268" r="16.8"/>
			</g>
		</g>
	</g>
	<g>
		<g>
			
				<ellipse transform="matrix(8.248049e-02 -0.9966 0.9966 8.248049e-02 -32.2367 501.0551)" class="st6" cx="256" cy="268" rx="37.1" ry="37.1"/>
		</g>
		<g>
			<path class="st8" d="M293.1,268c0-20.5-16.6-37.1-37-37.1v74.3C276.6,305.1,293.1,288.5,293.1,268z"/>
		</g>
		<g>
			<circle class="st7" cx="256" cy="268" r="16.8"/>
		</g>
		<g>
			<path class="st9" d="M272.8,268c0-9.3-7.5-16.8-16.7-16.8v33.7C265.4,284.8,272.8,277.3,272.8,268L272.8,268z"/>
		</g>
	</g>
	<g>
		<path class="st7" d="M213,325.4h86v30h-86V325.4z"/>
	</g>
	<g>
		<path class="st9" d="M256.1,325.4H299v30h-42.9V325.4z"/>
	</g>
</g>
</svg>
