<svg width="22" height="22" viewBox="0 0 22 22" fill="none" xmlns="http://www.w3.org/2000/svg">
<circle cx="11" cy="11" r="10" fill="white"/>
<path d="M22 11C22 17.0751 17.0751 22 11 22C4.92485 22 0 17.0751 0 11C0 4.92485 4.92485 0 11 0C17.0751 0 22 4.92485 22 11ZM9.72764 16.8244L17.8889 8.66312C18.1661 8.38599 18.1661 7.93663 17.8889 7.6595L16.8853 6.65589C16.6082 6.37871 16.1588 6.37871 15.8816 6.65589L9.22581 13.3117L6.11835 10.2042C5.84122 9.9271 5.39186 9.9271 5.11469 10.2042L4.11107 11.2078C3.83394 11.485 3.83394 11.9343 4.11107 12.2115L8.72398 16.8244C9.00115 17.1015 9.45046 17.1015 9.72764 16.8244Z" fill="#50EBC5"/>
</svg>
