<svg width="22" height="22" viewBox="0 0 22 22" fill="none" xmlns="http://www.w3.org/2000/svg">
<circle cx="11" cy="11" r="10" fill="white"/>
<path d="M11 0.34375C5.11513 0.34375 0.34375 5.11685 0.34375 11C0.34375 16.8866 5.11513 21.6562 11 21.6562C16.8849 21.6562 21.6562 16.8866 21.6562 11C21.6562 5.11685 16.8849 0.34375 11 0.34375ZM11 5.07031C11.9967 5.07031 12.8047 5.8783 12.8047 6.875C12.8047 7.8717 11.9967 8.67969 11 8.67969C10.0033 8.67969 9.19531 7.8717 9.19531 6.875C9.19531 5.8783 10.0033 5.07031 11 5.07031ZM13.4062 15.9844C13.4062 16.2691 13.1754 16.5 12.8906 16.5H9.10938C8.82462 16.5 8.59375 16.2691 8.59375 15.9844V14.9531C8.59375 14.6684 8.82462 14.4375 9.10938 14.4375H9.625V11.6875H9.10938C8.82462 11.6875 8.59375 11.4566 8.59375 11.1719V10.1406C8.59375 9.85587 8.82462 9.625 9.10938 9.625H11.8594C12.1441 9.625 12.375 9.85587 12.375 10.1406V14.4375H12.8906C13.1754 14.4375 13.4062 14.6684 13.4062 14.9531V15.9844Z" fill="#4B95FE"/>
</svg>
